<?xml version="1.0" standalone="no"?>
<!DOCTYPE svg PUBLIC "-//W3C//DTD SVG 1.1//EN" "http://www.w3.org/Graphics/SVG/1.1/DTD/svg11.dtd" >
<svg xmlns="http://www.w3.org/2000/svg">
<metadata>
Copyright (c) 2011 by Fontsmith Ltd. All rights reserved.
</metadata>
<defs>
<font id="FSJoeyWeb-MediumItalic" horiz-adv-x="524" >
  <font-face 
    font-family="FS Joey Web Medium"
    font-weight="500"
    font-style="italic"
    font-stretch="normal"
    units-per-em="1000"
    panose-1="2 0 6 6 4 0 0 9 0 4"
    ascent="750"
    descent="-250"
    x-height="490"
    cap-height="647"
    bbox="-198 -275 1057 1068"
    underline-thickness="50"
    underline-position="-50"
    slope="-11"
    unicode-range="U+000D-FB02"
  />
<missing-glyph horiz-adv-x="595" 
d="M45 693h495v-693h-495v693zM461 644h-337l169 -253zM491 94v505l-169 -252zM461 50l-168 252l-169 -252h337zM95 94l168 253l-168 252v-505z" />
    <glyph glyph-name="fi" unicode="fi" horiz-adv-x="519" 
d="M494 478q0 -4 -2.5 -18t-6.5 -31l-80 -411q-3 -18 -22 -18h-54q-18 0 -18 12q0 4 2.5 18t6.5 31l69 350h-190l-53 -301q-17 -98 -33 -160.5t-32 -106.5q-5 -11 -11 -15.5t-19 -4.5h-49q-14 0 -14 10q0 5 2 10.5t4 13.5q17 54 32.5 120t28.5 138l52 296h-61q-11 0 -11 9
q0 7 3 21l4 20q2 9 6 12t13 5l59 9l6 35q15 87 72 125t151 38q39 0 71 -4t52 -9q14 -3 14 -13q0 -5 -2 -11.5t-6 -17.5l-7 -21q-4 -13 -12 -13q-4 0 -8 1t-10 3q-17 4 -40.5 6.5t-51.5 2.5q-24 0 -46 -3.5t-39 -13.5t-29 -27.5t-17 -45.5l-5 -29h264q17 0 17 -12z" />
    <glyph glyph-name="fl" unicode="fl" horiz-adv-x="573" 
d="M505 675q12 2 17.5 2h7.5q12 0 12 -11q0 -5 -2.5 -17.5l-6.5 -32.5l-94 -479q-2 -13 -3.5 -22.5t-1.5 -18.5q0 -12 7 -16.5t23 -4.5h35q14 0 14 -11q0 -5 -1.5 -12t-3.5 -19l-3 -15q-2 -11 -7.5 -14.5t-16.5 -3.5h-37q-53 0 -78.5 17.5t-25.5 62.5q0 20 6 52l91 465
q-19 5 -47 9t-52 4q-54 0 -81.5 -20t-38.5 -73l-5 -27h103q12 0 12 -8q0 -3 -1 -10t-3 -15l-6 -31q-2 -8 -6 -11.5t-15 -3.5h-98l-53 -301q-17 -98 -33 -160.5t-32 -106.5q-5 -11 -11 -15.5t-19 -4.5h-49q-14 0 -14 10q0 5 2 10.5t4 13.5q17 54 32.5 120t28.5 138l52 296
h-61q-11 0 -11 9q0 7 3 21l4 20q2 9 6 12t13 5l60 9l6 35q17 88 66 126t142 38q36 0 70 -5t56 -11z" />
    <glyph glyph-name=".notdef" horiz-adv-x="595" 
d="M45 693h495v-693h-495v693zM461 644h-337l169 -253zM491 94v505l-169 -252zM461 50l-168 252l-169 -252h337zM95 94l168 253l-168 252v-505z" />
    <glyph glyph-name=".null" horiz-adv-x="0" 
 />
    <glyph glyph-name=".null" horiz-adv-x="0" 
 />
    <glyph glyph-name="nonmarkingreturn" unicode="&#xd;" horiz-adv-x="205" 
 />
    <glyph glyph-name="space" unicode=" " horiz-adv-x="205" 
 />
    <glyph glyph-name="nonbreakingspace" unicode="&#xa0;" horiz-adv-x="205" 
 />
    <glyph glyph-name="A" unicode="A" horiz-adv-x="564" 
d="M363 647q23 0 31.5 -7t12.5 -27q11 -64 20.5 -134.5t18 -140.5t15 -134.5t11.5 -116.5q2 -23 3.5 -41t1.5 -29q0 -17 -21 -17h-52q-16 0 -22 4t-7 17q-2 38 -5 78t-6 78h-231q-18 -37 -37 -78.5t-35 -77.5q-6 -14 -13.5 -17.5t-24.5 -3.5h-43q-13 0 -17.5 3.5t-4.5 11.5
q0 7 5 17.5t13 27.5q32 67 70 144.5t77 154t75.5 145t65.5 117.5q9 16 19 21t28 5h52zM317 550q-34 -64 -70 -134.5t-76 -157.5h187q-2 33 -5 70t-7 74.5l-8 75t-8 72.5h-13z" />
    <glyph glyph-name="B" unicode="B" horiz-adv-x="534" 
d="M292 656q44 0 81 -5.5t64 -21t42 -42t15 -68.5q0 -60 -29.5 -108.5t-89.5 -66.5v-2q48 -8 74.5 -36t26.5 -82q0 -118 -72 -171t-217 -53q-19 0 -40 0.5t-41.5 1.5t-39.5 2.5t-33 3.5q-12 2 -16 6.5t-4 12.5t1.5 16.5t4.5 23.5l109 555q3 14 9 19t20 7q24 3 57.5 5.5
t77.5 2.5zM161 298l-34 -172q-2 -11 -3.5 -17.5t-1.5 -13.5q0 -12 15 -13q14 -2 30.5 -3t36.5 -1q92 0 130.5 36t38.5 102q0 47 -30.5 64.5t-100.5 17.5h-81zM226 575q-11 -1 -14 -15l-36 -185h56q77 0 118 33t41 99q0 38 -22.5 54.5t-76.5 16.5q-19 0 -36.5 -0.5
t-29.5 -2.5z" />
    <glyph glyph-name="C" unicode="C" 
d="M346 656q42 0 84 -10t78 -27q12 -6 12 -13q0 -6 -2 -10.5t-7 -13.5l-17 -34q-5 -9 -11 -9q-4 0 -8.5 2t-9.5 4q-25 12 -57 20t-67 8q-42 0 -70.5 -10.5t-48 -33t-32.5 -59t-23 -87.5q-16 -79 -22.5 -131t-6.5 -85q0 -24 5.5 -42t19 -29.5t36.5 -17.5t58 -6q32 0 70.5 7
t63.5 15q15 5 21 5q8 0 12 -14l4 -17q6 -27 6 -32q0 -10 -14 -15q-38 -12 -87 -21t-91 -9q-54 0 -92 8.5t-63 29t-36.5 53t-11.5 80.5q0 37 9 100t26 147q16 82 40 127t57 71q31 25 72 37t103 12z" />
    <glyph glyph-name="D" unicode="D" horiz-adv-x="594" 
d="M38 0q-29 0 -29 18q0 4 2 13t5 23l109 562q2 14 8.5 20t19.5 8q27 4 69 6t80 2q135 0 194 -47.5t59 -150.5q0 -18 -2 -42t-6 -51.5t-9.5 -56.5t-12.5 -57q-18 -69 -48.5 -116t-75 -76.5t-104.5 -42t-138 -12.5h-121zM302 573h-39t-35 -2q-15 -1 -18 -17l-84 -432
l-4.5 -21t-1.5 -12q0 -10 14 -10h46q55 0 96 10t70.5 31.5t49.5 56.5t34 86q14 52 20.5 99.5t6.5 79.5q0 38 -8.5 63.5t-27.5 40.5t-48 21t-71 6z" />
    <glyph glyph-name="E" unicode="E" horiz-adv-x="488" 
d="M150 293q-6 -31 -11.5 -60t-9.5 -53.5t-6.5 -42t-2.5 -25.5q0 -17 8.5 -24t34.5 -7h220q14 0 14 -10q0 -4 -1.5 -11.5t-3.5 -21.5l-4 -21q-3 -17 -23 -17h-243q-48 0 -74 20t-26 68q0 14 2 38.5t10 64.5q17 87 34 172t36 167q8 36 19.5 59t29.5 35.5t43.5 17.5t61.5 5
h220q14 0 14 -10q0 -4 -1.5 -11.5t-3.5 -21.5l-4 -21q-3 -17 -23 -17h-210q-40 0 -50 -38q-9 -35 -17.5 -76.5t-16.5 -77.5h237q14 0 14 -10q0 -4 -1.5 -11.5t-3.5 -21.5l-4 -21q-3 -17 -23 -17h-235z" />
    <glyph glyph-name="F" unicode="F" horiz-adv-x="467" 
d="M257 566q-13 0 -22 -1.5t-16 -7.5q-10 -7 -15 -36l-29 -150h228q14 0 14 -10q0 -4 -1.5 -11.5t-3.5 -21.5l-4 -21q-3 -17 -23 -17h-226l-54 -274q-2 -9 -6.5 -12.5t-16.5 -3.5h-57q-17 0 -17 11q0 5 1 9.5t3 15.5l99 503q6 33 16 53.5t29 34.5q26 20 85 20h222
q14 0 14 -10q0 -4 -1.5 -12.5t-3.5 -20.5l-4 -21q-3 -17 -23 -17h-188z" />
    <glyph glyph-name="G" unicode="G" horiz-adv-x="580" 
d="M358 575q-47 0 -79 -11.5t-53.5 -35t-35 -59.5t-23.5 -86q-16 -79 -23 -127t-7 -73q0 -31 6.5 -52t21.5 -34t40 -19t63 -6q23 0 46 2t40 5q21 3 24 20l33 175h-77q-15 0 -15 11q0 4 1 11t3 15l6 30q3 14 18 14h162q13 0 13 -10q0 -5 -2.5 -16.5t-5.5 -26.5l-51 -263
q-2 -11 -6.5 -15.5t-16.5 -8.5q-35 -11 -83 -17.5t-96 -6.5q-57 0 -99 9t-69 29.5t-40.5 54t-13.5 82.5q0 23 2 48t6.5 53.5t11 62.5t15.5 76q8 37 16.5 67t20.5 54.5t27.5 43.5t36.5 36q64 49 183 49q51 0 96 -11t83 -31q9 -5 9 -12t-8 -21l-19 -35q-5 -9 -13 -9
q-5 0 -12 4q-30 16 -65 25t-71 9z" />
    <glyph glyph-name="H" unicode="H" horiz-adv-x="611" 
d="M503 626q2 13 8 17t18 4h57q16 0 16 -12q0 -6 -4 -26l-116 -588q-2 -13 -8 -17t-18 -4h-56q-16 0 -16 12q0 6 4 26l49 252h-277l-53 -269q-2 -13 -8 -17t-18 -4h-56q-16 0 -16 12q0 6 4 26l116 588q2 13 8 17t18 4h56q16 0 16 -12q0 -6 -4 -26l-47 -238h277z" />
    <glyph glyph-name="I" unicode="I" horiz-adv-x="247" 
d="M133 626q2 13 8 17t18 4h56q16 0 16 -12q0 -6 -4 -26l-115 -588q-2 -13 -8 -17t-18 -4h-56q-16 0 -16 12q0 6 4 26z" />
    <glyph glyph-name="J" unicode="J" horiz-adv-x="328" 
d="M217 626q2 13 8 17t18 4h57q16 0 16 -12q0 -6 -4 -26l-76 -385q-7 -37 -13 -63.5t-12.5 -45.5t-13 -32.5t-15.5 -24.5q-26 -33 -62 -45.5t-86 -12.5h-56q-9 0 -12 2.5t-3 6.5t1.5 11t3.5 18l6 29q2 9 6 12t12 3h40q28 0 44.5 7t27.5 21q10 13 16.5 34.5t14.5 63.5z" />
    <glyph glyph-name="K" unicode="K" horiz-adv-x="529" 
d="M128 626q2 13 8 17t18 4h56q16 0 16 -12q0 -6 -4 -26l-47 -238h42q22 0 35 16l208 245q8 9 14.5 12t17.5 3h65q13 0 13 -9q0 -5 -6 -13t-20 -25l-216 -253q-7 -8 -10.5 -13t-3.5 -10q0 -6 3.5 -12.5t8.5 -17.5l128 -251q9 -18 11.5 -24t2.5 -9q0 -10 -14 -10h-64
q-12 0 -17 3t-10 13l-125 258q-5 11 -10.5 13.5t-18.5 2.5h-50l-53 -269q-2 -13 -8 -17t-18 -4h-55q-16 0 -16 12q0 6 4 26z" />
    <glyph glyph-name="L" unicode="L" horiz-adv-x="398" 
d="M129 626q2 13 8 17t18 4h56q16 0 16 -12q0 -6 -4 -26l-93 -471q-3 -14 -5 -24.5t-2 -17.5q0 -8 4 -11.5t18 -3.5h170q14 0 14 -10q0 -4 -1.5 -11.5t-3.5 -21.5l-4 -21q-3 -17 -23 -17h-205q-32 0 -51 13.5t-19 42.5q0 14 2 29.5t6 35.5z" />
    <glyph glyph-name="M" unicode="M" horiz-adv-x="767" 
d="M-3 14q0 5 1.5 11t4.5 19q35 152 70 294.5t71 276.5q5 18 14.5 25t32.5 7h46q26 0 34.5 -5.5t11.5 -26.5q19 -130 36.5 -235.5t33.5 -193.5h5q57 104 117 212t118 220q10 18 21.5 23.5t34.5 5.5h64q15 0 21 -5.5t6 -17.5q0 -11 -2 -28.5t-4 -32.5q-17 -131 -37.5 -267.5
t-42.5 -275.5q-2 -12 -7 -16t-18 -4h-54q-18 0 -18 14q0 5 1 12.5t4 24.5q21 123 41.5 243.5t38.5 233.5h-6q-52 -99 -111 -207t-116 -208q-13 -21 -42 -21h-52q-16 0 -23 6.5t-10 21.5q-8 42 -16.5 91t-17.5 101.5t-17.5 107t-15.5 108.5h-7q-28 -115 -57.5 -247.5
t-56.5 -260.5q-2 -12 -7 -16t-18 -4h-54q-18 0 -18 14z" />
    <glyph glyph-name="N" unicode="N" horiz-adv-x="622" 
d="M493 20q-2 -12 -8.5 -16t-19.5 -4h-62q-16 0 -23.5 4t-10.5 14l-166 495h-5l-97 -494q-2 -11 -7 -15t-17 -4h-53q-15 0 -15 12q0 6 2.5 17t5.5 27l112 571q2 13 8.5 16.5t22.5 3.5h63q15 0 21.5 -4.5t10.5 -16.5l164 -495h5l97 497q2 11 7 15t17 4h51q17 0 17 -10
q0 -6 -2 -14.5t-4 -21.5z" />
    <glyph glyph-name="O" unicode="O" horiz-adv-x="603" 
d="M532 257q-17 -74 -41 -125t-58 -82.5t-80.5 -45t-108.5 -13.5q-100 0 -152.5 42t-52.5 131q0 42 8 97.5t22 124.5q16 79 39 131t57.5 83t82 43.5t113.5 12.5q96 0 149.5 -41.5t53.5 -133.5q0 -36 -8.5 -96.5t-23.5 -127.5zM466 466q0 60 -27 84.5t-90 24.5
q-71 0 -106 -29q-14 -11 -25 -26t-21 -36t-18 -50t-16 -68q-11 -53 -18 -100t-7 -88q0 -54 26 -80t88 -26q40 0 68.5 9.5t49.5 31.5t36.5 58.5t27.5 90.5q7 29 12.5 58t10 56t7 50t2.5 40z" />
    <glyph glyph-name="P" unicode="P" horiz-adv-x="527" 
d="M227 570q-7 -2 -10.5 -5.5t-5.5 -12.5l-45 -232q20 -1 36 -1h35q69 0 109 21.5t57 72.5q8 24 11 44t3 34q0 50 -30 67t-84 17q-27 0 -44 -1t-32 -4zM128 623q4 20 23 23q29 5 68.5 7.5t87.5 2.5q96 0 152 -34.5t56 -113.5q0 -24 -5 -59t-16 -67q-26 -74 -88 -109.5
t-174 -35.5h-41.5t-40.5 1l-44 -222q-2 -9 -6.5 -12.5t-16.5 -3.5h-54q-20 0 -20 12q0 7 4 24z" />
    <glyph glyph-name="Q" unicode="Q" horiz-adv-x="603" 
d="M532 257q-14 -60 -32 -104.5t-42.5 -76t-56 -50t-71.5 -27.5q20 -29 51 -61.5t64 -55.5q8 -5 8 -12t-10 -13l-41 -26q-13 -8 -20 -8q-10 0 -18 7q-36 31 -67.5 73.5t-54.5 87.5q-99 1 -151 42.5t-52 130.5q0 42 8 97.5t22 124.5q16 79 39 131t57.5 83t82 43.5t113.5 12.5
q96 0 149.5 -41.5t53.5 -133.5q0 -36 -8.5 -96.5t-23.5 -127.5zM466 466q0 60 -27 84.5t-90 24.5q-71 0 -106 -29q-14 -11 -25 -26t-21 -36t-18 -50t-16 -68q-11 -53 -18 -100t-7 -88q0 -54 26 -80t88 -26q40 0 68.5 9.5t49.5 31.5t36.5 58.5t27.5 90.5q7 29 12.5 58t10 56
t7 50t2.5 40z" />
    <glyph glyph-name="R" unicode="R" horiz-adv-x="533" 
d="M127 619q3 15 9.5 21t22.5 8q24 4 61 6t79 2q109 0 159.5 -33.5t50.5 -109.5q0 -44 -11 -88q-34 -124 -150 -148l86 -209q11 -26 16 -38t5 -18q0 -12 -17 -12h-60q-14 0 -21 4.5t-12 17.5l-86 231q-3 8 -6.5 10t-11.5 2h-43.5t-42.5 1l-48 -247q-2 -12 -7.5 -15.5
t-17.5 -3.5h-56q-11 0 -14.5 4t-1.5 15zM229 572q-8 -1 -11.5 -4t-5.5 -14l-41 -207q19 -1 36.5 -1.5t36.5 -0.5q67 0 102.5 19.5t52.5 72.5q5 14 7 32t2 32q0 44 -28.5 59t-85.5 15q-25 0 -39.5 -0.5t-25.5 -2.5z" />
    <glyph glyph-name="S" unicode="S" horiz-adv-x="498" 
d="M196 -9q-56 0 -103.5 8.5t-78.5 20.5q-15 5 -15 15q0 5 1.5 11t4.5 19l6 23q4 15 14 15q5 0 9 -1.5t9 -3.5q31 -12 69.5 -19.5t79.5 -7.5q55 0 88 16.5t46 55.5q11 31 11 63t-16 47t-62 26l-64 16q-35 9 -59 21t-38.5 29t-20.5 40t-6 53q0 25 5.5 52.5t14.5 52.5
q21 59 72.5 86t140.5 27q46 0 86 -7t70 -16q12 -4 12 -13q0 -5 -1.5 -11t-6.5 -20l-9 -26q-5 -12 -14 -12q-5 0 -10 1t-10 3q-21 7 -55.5 13t-67.5 6q-55 0 -81.5 -15t-38.5 -50q-5 -12 -7.5 -29t-2.5 -37q0 -25 14.5 -39t55.5 -25l67 -17q38 -10 63 -21.5t40 -27.5
t21.5 -37.5t6.5 -50.5q0 -20 -4.5 -47t-13.5 -54q-24 -73 -77 -103t-145 -30z" />
    <glyph glyph-name="T" unicode="T" horiz-adv-x="472" 
d="M234 566h-159q-14 0 -14 10q0 5 1.5 12t3.5 19l4 21q2 11 6.5 15t15.5 4h411q14 0 14 -11q0 -7 -5 -30l-4 -22q-2 -11 -6.5 -14.5t-15.5 -3.5h-156l-107 -547q-2 -12 -7.5 -15.5t-17.5 -3.5h-56q-17 0 -17 10q0 4 1 9.5t3 13.5z" />
    <glyph glyph-name="U" unicode="U" horiz-adv-x="599" 
d="M494 626q2 13 8 17t18 4h57q16 0 16 -12q0 -6 -4 -26l-77 -395q-12 -62 -31.5 -104.5t-51 -68.5t-76.5 -38t-108 -12q-103 0 -156 37.5t-53 113.5q0 14 3 42t11 66l72 376q2 13 8 17t18 4h57q16 0 16 -12q0 -6 -4 -26l-71 -371q-5 -27 -9 -48t-4 -38q0 -41 28.5 -60.5
t94.5 -19.5q34 0 60 8t45.5 25.5t32.5 46t21 69.5z" />
    <glyph glyph-name="V" unicode="V" horiz-adv-x="530" 
d="M176 0q-21 0 -29.5 7t-11.5 26q-11 67 -21 139.5t-18 148.5t-14.5 153t-10.5 152q0 11 5.5 16t19.5 5h48q12 0 17.5 -3.5t6.5 -16.5q6 -128 17.5 -263t28.5 -262h9q66 125 131 261t121 264q5 13 12 16.5t19 3.5h53q18 0 18 -11q0 -6 -3.5 -14.5t-8.5 -19.5
q-30 -66 -64 -137t-70 -144t-73.5 -146t-73.5 -142q-10 -19 -21 -26t-32 -7h-55z" />
    <glyph glyph-name="W" unicode="W" horiz-adv-x="798" 
d="M848 637q0 -6 -3 -15t-9 -24q-26 -65 -55.5 -137t-60.5 -145.5t-63 -146t-62 -138.5q-8 -19 -20 -25t-32 -6h-55q-20 0 -29.5 6t-11.5 25q-8 109 -11.5 228.5t-1.5 231.5h-7q-45 -112 -93 -225.5t-102 -234.5q-8 -19 -20.5 -25t-32.5 -6h-59q-20 0 -29.5 6t-10.5 25
q-3 54 -5.5 122t-4 145t-2.5 160.5t-1 168.5q0 11 5.5 15.5t19.5 4.5h47q14 0 19.5 -3.5t5.5 -16.5q-2 -137 -1.5 -272.5t4.5 -256.5h8q25 56 51 117t52 123.5t51 124.5t48 120q7 17 15.5 23.5t27.5 6.5h56q19 0 27 -6.5t8 -23.5q2 -121 5.5 -247t9.5 -238h8q25 60 52.5 127
t55.5 136t54 136.5t48 129.5q5 13 12 16.5t19 3.5h56q17 0 17 -10z" />
    <glyph glyph-name="X" unicode="X" horiz-adv-x="540" 
d="M-40 11q0 5 5.5 13.5t13.5 19.5l168 255q12 18 17 27t5 15q0 9 -2.5 17t-7.5 22l-68 219q-4 13 -6.5 22t-2.5 14q0 12 18 12h54q14 0 19.5 -3.5t8.5 -14.5l60 -230q5 -17 10 -22t13 -5h9q10 0 18 7.5t25 33.5l143 219q6 9 10.5 12t15.5 3h64q15 0 15 -9q0 -4 -4 -10
t-18 -28l-155 -229q-14 -21 -19 -30t-5 -17t2.5 -17t7.5 -25l82 -235q5 -14 7.5 -22t2.5 -13q0 -12 -19 -12h-53q-11 0 -16.5 3t-8.5 12l-79 251q-5 16 -10 20.5t-15 4.5h-8q-11 0 -17.5 -5.5t-15.5 -19.5l-153 -246q-8 -12 -16 -16t-25 -4h-55q-15 0 -15 11z" />
    <glyph glyph-name="Y" unicode="Y" horiz-adv-x="476" 
d="M166 214q-36 93 -58.5 190.5t-36.5 198.5q-1 5 -1.5 14t-0.5 15q0 15 21 15h52q11 0 16 -2.5t6 -13.5q8 -89 23 -168.5t37 -158.5h7q54 79 103 161.5t91 165.5q5 11 10.5 13.5t16.5 2.5h60q13 0 13 -9q0 -5 -3 -11t-5 -11q-103 -207 -255 -406l-38 -194q-2 -9 -6.5 -12.5
t-16.5 -3.5h-57q-17 0 -17 11q0 5 1 9.5t3 15.5z" />
    <glyph glyph-name="Z" unicode="Z" horiz-adv-x="501" 
d="M-20 41q2 11 6.5 20t21.5 30l382 475h-279q-17 0 -17 12q0 8 5 31l4 19q2 11 7 15t17 4h377q16 0 16 -13q0 -5 -1 -12t-3 -13q-5 -19 -11.5 -31t-22.5 -32l-375 -465h285q14 0 14 -11q0 -3 -1 -9t-3 -16l-5 -27q-2 -10 -6.5 -14t-16.5 -4h-378q-22 0 -19 18z" />
    <glyph glyph-name="a" unicode="a" horiz-adv-x="473" 
d="M289 45h-2q-21 -29 -53 -41.5t-80 -12.5h-15q-63 0 -94 28t-31 76q0 20 4.5 46t9.5 47q17 65 64.5 89t130.5 24h36q15 0 33.5 -1t32.5 -3l5 25q3 17 5 30t2 26q0 25 -17.5 34.5t-61.5 9.5q-26 0 -57 -4.5t-57 -11.5q-9 -2 -14 -3.5t-9 -1.5q-6 0 -8 3.5t-4 11.5l-4 23
q-3 16 -3 21q0 12 15 16q33 10 76 16.5t88 6.5q70 0 110.5 -22.5t40.5 -77.5q0 -14 -2.5 -33t-6.5 -39l-61 -313q-2 -8 -5.5 -11t-12.5 -3h-40q-9 0 -12 3.5t-3 11.5v30zM310 222q-15 2 -30.5 3t-32.5 1h-29q-25 0 -42.5 -3t-30 -9.5t-20.5 -18t-13 -28.5q-5 -15 -7 -31
t-2 -28q0 -22 15 -32t49 -10h11q49 0 79.5 21t40.5 72z" />
    <glyph glyph-name="b" unicode="b" horiz-adv-x="503" 
d="M312 499q72 0 111 -31.5t39 -98.5q0 -18 -5 -64.5t-22 -119.5q-12 -52 -30.5 -89t-46.5 -60t-65.5 -34t-87.5 -11q-94 0 -135 29.5t-41 91.5q0 20 3 44t10 57l87 446q3 18 22 18h53q18 0 18 -12q0 -4 -2.5 -16.5l-5.5 -27.5l-31 -162h3q20 17 52 28.5t74 11.5zM210 66
q57 0 87.5 30.5t44.5 97.5q13 63 19.5 102.5t6.5 59.5q0 67 -80 67q-65 0 -95 -30t-43 -99l-17 -90q-5 -27 -8 -44t-3 -36q0 -29 20 -43.5t68 -14.5z" />
    <glyph glyph-name="c" unicode="c" horiz-adv-x="440" 
d="M347 57q2 -11 3.5 -17.5t1.5 -11.5q0 -9 -12 -13q-29 -11 -67.5 -17.5t-73.5 -6.5q-89 0 -130.5 30t-41.5 93q0 17 3 40.5t7 49.5t9 51l9 45q21 100 71.5 149.5t152.5 49.5q35 0 72 -9.5t66 -25.5q10 -6 10 -13q0 -5 -8 -20l-16 -30q-3 -5 -5 -7.5t-7 -2.5q-4 0 -16 6
q-23 11 -49 17.5t-47 6.5q-30 0 -52.5 -7.5t-38.5 -25t-27 -46.5t-20 -72q-3 -18 -7 -37t-7 -37.5t-5 -35.5t-2 -29q0 -35 22.5 -48.5t72.5 -13.5q25 0 53.5 4.5t50.5 11.5q3 1 6.5 2t7.5 1q7 0 10 -12z" />
    <glyph glyph-name="d" unicode="d" horiz-adv-x="499" 
d="M420 184q-11 -56 -28 -93t-44 -59.5t-65 -31.5t-92 -9q-164 0 -164 129q0 29 8.5 75t17.5 97q12 63 30 103.5t43 63.5t58 31.5t75 8.5t73 -12.5t47 -31.5h2l40 204q2 11 6.5 14.5t16.5 3.5h53q17 0 17 -11v-2t-1 -5t-2 -11.5t-4 -20.5zM349 291q3 15 5.5 32t2.5 29
q0 33 -21.5 52.5t-71.5 19.5q-26 0 -45 -6.5t-33 -22.5t-24 -43.5t-18 -69.5q-11 -54 -17.5 -89t-6.5 -58q0 -35 18 -51.5t67 -16.5q28 0 48.5 6t35 20t24 36.5t15.5 54.5z" />
    <glyph glyph-name="e" unicode="e" horiz-adv-x="472" 
d="M432 367q0 -32 -6 -69.5t-14 -75.5q-3 -13 -9.5 -18.5t-22.5 -5.5h-253q-3 -17 -6 -31.5t-3 -30.5q0 -40 26.5 -53.5t77.5 -13.5q28 0 61 5.5t59 13.5q3 1 6.5 2t7.5 1q7 0 10 -12l6 -25q4 -15 4 -22q0 -8 -10 -12q-30 -12 -74.5 -20.5t-84.5 -8.5q-51 0 -85.5 9
t-55.5 26t-30 41.5t-9 55.5q0 29 7.5 72.5t21.5 113.5q10 49 26.5 84.5t43 59t63.5 35t87 11.5q78 0 117 -35.5t39 -96.5zM316 271q13 0 16 12q5 18 7 38t2 36q0 36 -18.5 51.5t-60.5 15.5q-47 0 -74.5 -26t-38.5 -86l-8 -41h175z" />
    <glyph glyph-name="f" unicode="f" horiz-adv-x="315" 
d="M2 -177q-14 0 -14 10q0 5 2 10.5t4 13.5q17 54 32.5 120t28.5 138l52 296h-61q-11 0 -11 9q0 6 3 21l4 20q2 9 6 12t13 5l59 9l6 35q8 46 22 77.5t36.5 51t53.5 27.5t73 8q26 0 48 -3.5t39 -8.5q6 -2 9 -5t3 -9q0 -5 -1.5 -11t-6.5 -20l-5 -15q-4 -13 -12 -13
q-3 0 -7.5 1t-8.5 2q-9 2 -23.5 4t-31.5 2q-43 0 -65 -19t-31 -72l-5 -29h103q12 0 12 -8q0 -3 -1 -10t-3 -15l-6 -31q-2 -8 -6 -11.5t-15 -3.5h-98l-53 -301q-17 -98 -33 -160.5t-32 -106.5q-5 -11 -11 -15.5t-19 -4.5h-49z" />
    <glyph glyph-name="g" unicode="g" horiz-adv-x="503" 
d="M271 424q-31 0 -52 -8.5t-36 -25.5t-24 -42.5t-16 -58.5q-9 -43 -16 -87.5t-7 -71.5q0 -34 18 -48.5t59 -14.5q55 0 90.5 26.5t46.5 89.5l21 109q4 20 6 34t2 27q0 34 -23.5 52.5t-68.5 18.5zM179 -187q-38 0 -73 5.5t-59 13.5q-12 3 -12 11q0 5 1.5 9t4.5 15l8 26
q4 12 13 12q2 0 10 -2q20 -7 50.5 -11t61.5 -4q54 0 81.5 24.5t41.5 86.5l8 40h-3q-17 -23 -52.5 -35.5t-82.5 -12.5q-78 0 -114 31.5t-36 91.5q0 35 7.5 85t19.5 110q10 52 27.5 88.5t42.5 59t59.5 32.5t79.5 10q52 0 85 -16t47 -42h2l12 34q3 9 7.5 12t15.5 3h35
q14 0 14 -10q0 -5 -1.5 -12t-3.5 -20l-77 -419q-12 -65 -26 -104t-39 -64q-26 -26 -65.5 -37t-89.5 -11z" />
    <glyph glyph-name="h" unicode="h" horiz-adv-x="505" 
d="M397 18q-3 -18 -22 -18h-53q-18 0 -18 12q0 4 3 19.5t6 29.5l45 229q5 23 7.5 41t2.5 31q0 33 -21 47t-59 14q-26 0 -47 -5.5t-37.5 -20t-28.5 -40.5t-20 -67l-53 -272q-3 -18 -22 -18h-53q-18 0 -18 12q0 4 2.5 18t6.5 31l118 598q3 18 22 18h52q18 0 18 -12
q0 -4 -3 -19l-6 -30l-30 -154h3q23 17 52.5 27t77.5 10q67 0 102.5 -28t36.5 -82q1 -24 -3 -51t-11 -63z" />
    <glyph glyph-name="i" unicode="i" horiz-adv-x="222" 
d="M108 18q-3 -18 -22 -18h-54q-18 0 -18 12q0 4 2.5 18t6.5 31l81 411q3 18 22 18h53q18 0 18 -12q0 -4 -2.5 -18t-6.5 -31zM165 555q-26 0 -38 11.5t-12 31.5q0 8 1 16t4 17q15 47 68 47h5q26 0 38 -11.5t12 -31.5q0 -8 -1 -16t-4 -17q-15 -47 -68 -47h-5z" />
    <glyph glyph-name="j" unicode="j" horiz-adv-x="221" 
d="M110 19q-9 -48 -23.5 -85t-40.5 -65q-45 -46 -145 -46h-29q-14 0 -14 9q0 4 1 9.5t4 18.5l5 24q4 16 18 16h18q30 0 47 6t30 19q16 16 23.5 41t14.5 59l88 447q3 18 22 18h53q18 0 18 -12q0 -4 -2.5 -18t-6.5 -31zM168 555q-26 0 -38 11.5t-12 31.5q0 8 1 16t4 17
q15 47 68 47h5q26 0 38 -11.5t12 -31.5q0 -8 -1 -16t-4 -17q-15 -47 -68 -47h-5z" />
    <glyph glyph-name="k" unicode="k" horiz-adv-x="446" 
d="M102 18q-3 -18 -22 -18h-53q-18 0 -18 12q0 4 2.5 18t6.5 31l117 598q3 18 22 18h53q18 0 18 -12q0 -4 -2.5 -16.5l-6.5 -32.5l-63 -316h25q19 0 32 16l139 157q10 11 17.5 14t21.5 3h58q13 0 13 -8q0 -4 -4 -9t-11 -13l-154 -173q-9 -11 -14.5 -17t-5.5 -14
q0 -6 4.5 -15t9.5 -20l84 -186q5 -11 7.5 -16t2.5 -10q0 -9 -15 -9h-49q-15 0 -22.5 5t-12.5 17l-82 185q-5 10 -9.5 13t-15.5 3h-34z" />
    <glyph glyph-name="l" unicode="l" horiz-adv-x="259" 
d="M125 137q-2 -13 -3.5 -22.5t-1.5 -18.5q0 -12 7 -16.5t23 -4.5h35q14 0 14 -11q0 -5 -1.5 -12t-3.5 -19l-3 -15q-2 -11 -7.5 -14.5t-16.5 -3.5h-37q-53 0 -78.5 17.5t-25.5 62.5q0 20 6 52l103 527q3 18 22 18h53q18 0 18 -11q0 -5 -2.5 -17.5l-6.5 -32.5z" />
    <glyph glyph-name="m" unicode="m" horiz-adv-x="790" 
d="M680 18q-2 -10 -6.5 -14t-15.5 -4h-53q-18 0 -18 12q0 4 2.5 16.5l6.5 32.5l44 225q4 20 6.5 37.5t2.5 34.5q0 32 -16.5 48.5t-55.5 16.5q-36 0 -66.5 -13t-53.5 -36q-1 -39 -10 -80l-54 -276q-2 -10 -6.5 -14t-15.5 -4h-53q-18 0 -18 12q0 4 2.5 17t6.5 32l48 245
q3 16 4.5 30t1.5 25q0 33 -20 47.5t-60 14.5q-51 0 -81.5 -24.5t-41.5 -82.5l-58 -298q-2 -10 -6.5 -14t-15.5 -4h-53q-18 0 -18 12q0 4 2.5 18t6.5 31l82 415q3 14 20 14h35q17 0 16 -13l-2 -33h3q27 27 60.5 41t81.5 14q53 0 82.5 -16.5t43.5 -44.5h1q34 29 76 45t87 16
q140 0 140 -120q0 -19 -3 -39.5t-9 -52.5z" />
    <glyph glyph-name="n" unicode="n" horiz-adv-x="506" 
d="M172 443q25 26 58 41t92 15q67 0 102.5 -28t35.5 -82q0 -21 -4 -51t-10 -63l-48 -257q-3 -18 -22 -18h-53q-18 0 -18 12q0 4 2.5 17.5t6.5 31.5l43 229q4 22 7 41t3 34q0 31 -20 44.5t-58 13.5q-26 0 -47.5 -5.5t-38 -20t-28.5 -40.5t-20 -67l-54 -272q-2 -10 -6.5 -14
t-15.5 -4h-52q-18 0 -18 12q0 4 2.5 17.5t6.5 31.5l82 415q3 14 20 14h35q9 0 13 -2t3 -10l-2 -35h3z" />
    <glyph glyph-name="o" unicode="o" horiz-adv-x="493" 
d="M201 -9q-91 0 -132.5 33.5t-41.5 104.5q0 26 6 68.5t14 84.5q12 60 30 101.5t45.5 67t65.5 37t90 11.5q91 0 132.5 -33.5t41.5 -104.5q0 -26 -6 -68.5t-14 -84.5q-12 -60 -30 -101.5t-45.5 -67t-65.5 -37t-90 -11.5zM209 66q56 0 85 32t44 107q11 56 16 90.5t5 52.5
q0 42 -20.5 59t-68.5 17q-56 0 -85 -32t-44 -107q-11 -56 -16 -90.5t-5 -52.5q0 -42 20.5 -59t68.5 -17z" />
    <glyph glyph-name="p" unicode="p" horiz-adv-x="511" 
d="M67 -159q-3 -18 -22 -18h-53q-18 0 -18 12q0 4 2.5 18t6.5 31l116 589q2 10 5.5 13.5t14.5 3.5h34q18 0 17 -15l-4 -32h2q28 29 64.5 42.5t90.5 13.5q68 0 107.5 -31t39.5 -101q0 -49 -25 -177q-10 -49 -25 -86t-39 -62t-59.5 -38t-85.5 -13q-49 0 -79.5 11t-50.5 32h-1z
M290 423q-28 0 -49.5 -6t-38 -20.5t-28 -39.5t-18.5 -62l-17 -86q-5 -28 -7 -43.5t-2 -37.5q0 -26 21 -44t72 -18q30 0 51.5 7.5t36.5 24t25.5 42.5t18.5 64q21 97 21 147q0 37 -19.5 54.5t-66.5 17.5z" />
    <glyph glyph-name="q" unicode="q" horiz-adv-x="501" 
d="M270 424q-27 0 -47.5 -6.5t-36 -23t-26.5 -46t-20 -74.5q-4 -18 -7.5 -37.5t-6.5 -38t-5 -34.5t-2 -26q0 -40 18.5 -55.5t59.5 -15.5q54 0 88 27.5t48 94.5l20 100q4 20 6 35.5t2 27.5q0 35 -23 53.5t-68 18.5zM258 499q57 0 89.5 -16t45.5 -42h2l12 34q4 9 9 12t13 3h37
q15 0 15 -12q0 -2 -1.5 -12.5t-9.5 -47.5l-113 -577q-2 -10 -6.5 -14t-15.5 -4h-53q-18 0 -18 12q0 4 2.5 18t6.5 31l29 148h-3q-37 -41 -126 -41q-70 0 -108 31.5t-38 104.5q0 26 7 70t19 106q20 103 66.5 149.5t138.5 46.5z" />
    <glyph glyph-name="r" unicode="r" horiz-adv-x="327" 
d="M102 18q-2 -10 -6.5 -14t-15.5 -4h-53q-18 0 -18 12q0 4 2.5 17.5t6.5 31.5l81 415q2 8 5.5 11t13.5 3h35q10 0 13 -3t2 -11l-5 -44h2q22 31 52 44.5t78 13.5h33q14 0 14 -10q0 -4 -1.5 -12.5t-3.5 -17.5l-5 -25q-2 -9 -5.5 -11.5t-12.5 -2.5h-29q-57 0 -88 -29.5
t-44 -100.5z" />
    <glyph glyph-name="s" unicode="s" horiz-adv-x="417" 
d="M158 -9q-35 0 -76.5 6.5t-72.5 18.5q-13 5 -13 15q0 7 7 29l7 23q3 11 11 11q4 0 7 -1t5 -2q28 -11 61 -17.5t62 -6.5q40 0 61.5 9t32.5 32q11 22 11 50q0 18 -11.5 29.5t-44.5 20.5l-60 16q-51 14 -71 42.5t-20 69.5q0 87 50 125t132 38q35 0 69.5 -5.5t59.5 -14.5
q14 -5 14 -14q0 -7 -8 -31l-6 -19q-3 -12 -12 -12q-5 0 -14 3q-20 6 -49 11t-53 5q-39 0 -59.5 -8.5t-28.5 -28.5q-4 -9 -5.5 -19.5t-1.5 -18.5q0 -20 13.5 -33t45.5 -21l60 -16q50 -14 70 -36.5t20 -65.5q0 -8 -1 -19t-3.5 -23t-5 -23t-5.5 -20q-20 -56 -63 -77.5
t-115 -21.5z" />
    <glyph glyph-name="t" unicode="t" horiz-adv-x="325" 
d="M313 490q13 0 13 -10q0 -6 -4 -25l-6 -29q-2 -9 -5.5 -12t-12.5 -3h-101l-47 -238q-4 -17 -6.5 -31t-2.5 -24q0 -26 13 -34.5t47 -8.5h47q15 0 15 -10q0 -4 -1 -10.5t-3 -14.5l-5 -22q-2 -11 -7 -14.5t-16 -3.5h-56q-67 0 -97 21t-30 70q0 17 2 35t7 40l48 245h-66
q-10 0 -10 7q0 3 3 18l5 25q3 13 12 15l71 11l21 109q3 19 23 19h53q16 0 16 -10q0 -7 -1.5 -14.5t-4.5 -24.5l-15 -76h101z" />
    <glyph glyph-name="u" unicode="u" horiz-adv-x="494" 
d="M415 166q-11 -57 -26.5 -89.5t-43.5 -51.5q-26 -18 -61.5 -26t-86.5 -8q-81 0 -123.5 28t-42.5 88q0 14 1.5 33t6.5 44l56 288q2 10 6.5 14t15.5 4h53q18 0 18 -12q0 -5 -2.5 -18.5t-6.5 -30.5l-48 -248q-3 -16 -5 -30t-2 -27q0 -27 17 -40.5t63 -13.5q30 0 49 5t33 17
t22.5 29t16.5 55l58 296q2 10 6.5 14t15.5 4h52q18 0 18 -12q0 -11 -8 -49z" />
    <glyph glyph-name="v" unicode="v" horiz-adv-x="442" 
d="M131 0q-17 0 -24.5 5.5t-10.5 22.5q-19 111 -33 221.5t-21 221.5q-1 19 19 19h50q18 0 19 -17q6 -100 14.5 -195t22.5 -190h7q52 93 101.5 190t91.5 195q8 17 25 17h57q12 0 12 -9q0 -6 -3.5 -15t-12.5 -29q-44 -96 -100 -203t-118 -209q-9 -14 -18 -19.5t-26 -5.5h-52z
" />
    <glyph glyph-name="w" unicode="w" horiz-adv-x="667" 
d="M386 466q18 0 24 -6.5t7 -23.5q3 -88 6 -175.5t7 -172.5h4q18 40 38 87t40.5 97t40 101t36.5 98q7 19 27 19h51q17 0 17 -11q0 -5 -4 -16t-10 -26q-42 -104 -87.5 -208t-90.5 -196q-9 -19 -20 -26t-28 -7h-48q-18 0 -27.5 6.5t-10.5 26.5q-5 82 -6.5 169t-2.5 165h-5
q-32 -78 -69.5 -163t-76.5 -171q-9 -20 -20.5 -26.5t-28.5 -6.5h-53q-17 0 -25.5 6.5t-10.5 26.5q-4 43 -7.5 95t-5.5 108.5t-3.5 115.5t-1.5 118q0 20 22 20h47q20 0 20 -19q-3 -95 -2 -195t6 -188h4q37 81 75.5 167.5t76.5 180.5q7 17 15.5 23.5t25.5 6.5h54z" />
    <glyph glyph-name="x" unicode="x" horiz-adv-x="453" 
d="M220 290q8 0 17.5 14.5t21.5 30.5l103 140q6 8 11.5 11.5t19.5 3.5h57q13 0 13 -8q0 -5 -4 -11.5t-20 -26.5l-116 -155q-17 -22 -23 -30.5t-6 -15.5t4.5 -17t11.5 -24l67 -148q10 -22 14 -30.5t4 -13.5q0 -10 -15 -10h-57q-17 0 -22 13l-68 164q-8 20 -13 25.5t-10 5.5
h-4q-8 0 -17.5 -14.5t-23.5 -34.5l-100 -144q-7 -10 -14.5 -12.5t-22.5 -2.5h-56q-12 0 -12 9q0 5 5.5 12t14.5 19l134 182q11 14 15.5 21t4.5 13q0 5 -4.5 16t-15.5 39l-55 133q-8 18 -10.5 25t-2.5 12q0 9 12 9h57q12 0 17.5 -3.5t9.5 -14.5l48 -131q11 -29 15.5 -40
t10.5 -11h4z" />
    <glyph glyph-name="y" unicode="y" horiz-adv-x="435" 
d="M38 -146q0 6 5.5 14.5t19.5 28.5q15 23 31.5 50t31.5 54q-20 8 -31.5 24t-16.5 46q-11 71 -19.5 153.5t-15.5 165.5q-2 31 -3.5 52.5t-1.5 32.5q0 15 18 15h50q19 0 20 -16q5 -107 11 -193t13 -152q2 -24 6 -36t12 -17q54 106 101.5 205.5t87.5 193.5q6 15 23 15h57
q14 0 14 -11q0 -5 -3.5 -13t-8.5 -18q-22 -51 -49.5 -108.5t-57 -116t-58.5 -114t-55 -101.5q-24 -43 -52.5 -91.5t-52.5 -86.5q-4 -6 -7 -9.5t-8 -3.5t-11.5 2.5t-20.5 10.5l-15 8q-14 8 -14 16z" />
    <glyph glyph-name="z" unicode="z" horiz-adv-x="409" 
d="M330 18q-2 -11 -6.5 -14.5t-15.5 -3.5h-317q-19 0 -19 12q0 4 1 10t3 15q2 13 8 23.5t23 30.5l267 321h-203q-15 0 -15 9q0 4 1 12t3 16l4 22q2 12 6.5 15.5t15.5 3.5h308q15 0 15 -12q0 -9 -4 -26q-4 -16 -14 -28t-29 -35l-259 -311h223q13 0 13 -10q0 -3 -1 -9.5
t-4 -20.5z" />
    <glyph glyph-name="ampersand" unicode="&#x26;" horiz-adv-x="615" 
d="M542 302q0 -12 -8 -46q-11 -43 -23 -75t-32 -63l60 -71q8 -9 8 -14q0 -6 -11 -14l-29 -24q-9 -8 -12.5 -10.5t-8.5 -2.5q-4 0 -7 2.5t-11 12.5l-48 57q-41 -34 -89.5 -48.5t-120.5 -14.5h-12q-91 0 -139 37.5t-48 116.5q0 40 12.5 72.5t34 58t50.5 44.5t63 33
q-25 34 -38 69t-13 67q0 78 53 122.5t141 44.5q81 0 123 -36.5t42 -97.5q0 -66 -38 -118.5t-126 -87.5l107 -129q13 28 21 57.5t12 52.5q2 11 7 14t15 3h49q16 0 16 -12zM215 300q-45 -20 -73.5 -56.5t-28.5 -88.5q0 -19 5 -35t17.5 -27.5t33 -18t51.5 -6.5h9q83 0 141 46z
M219 490q0 -32 10 -58t32 -52l10 -12q60 25 85.5 60t25.5 84q0 36 -21 53t-53 17q-42 0 -65.5 -25t-23.5 -67z" />
    <glyph glyph-name="at" unicode="@" horiz-adv-x="821" 
d="M784 414q0 -58 -14.5 -108.5t-42.5 -88t-68.5 -59t-92.5 -21.5q-87 0 -102 63q-14 -26 -42 -38.5t-64 -12.5q-50 0 -76 22.5t-26 65.5q0 25 5.5 59t15.5 76q16 65 47.5 95.5t88.5 30.5q37 0 59.5 -11t32.5 -31h2l7 18q4 12 17 12h38q12 0 12 -8t-6 -36l-30 -155
q-2 -11 -5 -27t-3 -30q0 -35 40 -35q31 0 55 18t40 47t24 66.5t8 76.5q0 54 -16.5 92.5t-47 63.5t-73 36.5t-93.5 11.5q-78 0 -141 -26t-107 -72.5t-67.5 -111t-23.5 -142.5q0 -111 59 -162.5t177 -51.5q21 0 44.5 2t47 5.5t45 7.5t38.5 8q6 2 11 3t10 1q4 0 6.5 -2.5
t4.5 -12.5l3 -17q2 -10 2.5 -14t0.5 -7q0 -9 -14 -13q-45 -13 -98 -21.5t-112 -8.5q-83 0 -143 18.5t-99 54t-57.5 86t-18.5 114.5q0 90 30 169t86.5 137.5t138 92.5t185.5 34q66 0 121.5 -16.5t95.5 -49.5t62.5 -82.5t22.5 -115.5zM469 344q3 17 6 31.5t3 25.5q0 36 -46 36
q-27 0 -43 -14.5t-24 -54.5q-8 -39 -15 -71t-7 -51q0 -20 9 -28t30 -8q30 0 49 17t28 65z" />
    <glyph glyph-name="exclam" unicode="!" horiz-adv-x="236" 
d="M128 637q2 11 9 15t18 4h56q20 0 20 -15q0 -6 -3 -19.5t-7 -30.5l-90 -413q-3 -12 -8.5 -16.5t-18.5 -4.5h-33q-21 0 -21 12q0 6 1.5 17t6.5 37zM51 -9q-46 0 -46 38q0 9 1 17.5t3 15.5q7 28 23 38t42 10h5q46 0 46 -38q0 -9 -1 -17.5t-3 -15.5q-7 -28 -23 -38t-42 -10
h-5z" />
    <glyph glyph-name="exclamdown" unicode="&#xa1;" horiz-adv-x="216" 
d="M62.9961 -146.991q-2 -10.999 -8.99902 -14.999q-7 -4 -17.999 -4h-55.9971q-19.999 0 -19.999 14.999q0 6 3 19.499t7 30.498l89.9941 412.975q3 12 8.5 16.499q5.49902 4.5 18.499 4.5h32.9971q20.999 0 20.999 -11.999q0 -6 -1.5 -16.999t-6.49902 -36.998z
M139.991 498.97q45.9971 0 45.9971 -37.998q0 -8.99902 -1 -17.499q-1 -8.49902 -2.99902 -15.499q-7 -27.998 -22.999 -37.9971q-15.999 -10 -41.9971 -10h-5q-45.9971 0 -45.9971 37.998q0 8.99902 1 17.499q1 8.49902 3 15.499q6.99902 27.998 22.998 37.9971
q15.999 10 41.998 10h4.99902z" />
    <glyph glyph-name="question" unicode="?" horiz-adv-x="445" 
d="M86 171q0 14 3 32q5 29 13.5 52.5t22 42t33 34.5t47.5 30l49 25q55 28 74 57t19 65q0 39 -20.5 54.5t-70.5 15.5q-30 0 -65 -7t-66 -18q-10 -4 -18 -4q-9 0 -12 11l-6 25q-2 10 -4 16t-2 11q0 8 11 12q36 13 84 22t92 9q92 0 134 -34t42 -99q0 -32 -7 -58.5t-24 -50.5
t-45 -45.5t-69 -42.5l-49 -25q-19 -10 -33 -19t-23.5 -20.5t-15.5 -25.5t-9 -34q-1 -5 -2 -12l-2 -14q-3 -18 -24 -18h-42q-15 0 -15 13zM93 -9q-46 0 -46 38q0 9 1 17.5t3 15.5q7 28 23 38t42 10h5q46 0 46 -38q0 -9 -1 -17.5t-3 -15.5q-7 -28 -23 -38t-42 -10h-5z" />
    <glyph glyph-name="questiondown" unicode="&#xbf;" horiz-adv-x="445" 
d="M345.979 318.98q0 -13.999 -2.99902 -31.998q-5 -28.998 -13.5 -52.4971q-8.49902 -23.498 -21.998 -41.9971t-32.998 -34.498t-47.4971 -29.998l-48.9971 -24.998q-54.9971 -27.999 -73.9951 -56.9971q-18.999 -28.998 -18.999 -64.9961q0 -38.9971 20.498 -54.4961
q20.499 -15.499 70.4961 -15.499q29.998 0 64.9961 6.99902q34.998 7 65.9961 17.999q9.99902 4 17.999 4q8.99902 0 11.999 -11l6 -24.998q1.99902 -9.99902 3.99902 -15.999t2 -10.999q0 -8 -10.999 -12q-35.998 -12.999 -83.9951 -21.998q-47.9971 -9 -91.9941 -9
q-91.9941 0 -133.992 33.998q-41.9971 33.998 -41.9971 98.9941q0 31.998 6.99902 58.4961q7 26.499 23.999 50.4971q16.999 23.999 44.9971 45.4971q27.998 21.499 68.9961 42.498l48.9971 24.998q18.999 10 32.998 18.999t23.498 20.499q9.5 11.499 15.499 25.498
q6 13.999 9 33.998q1 5 2 11.999q1 7 1.99902 13.999q3 17.999 23.999 17.999h41.9971q14.999 0 14.999 -12.999zM338.979 498.97q45.9971 0 45.9971 -37.998q0 -8.99902 -1 -17.499q-1 -8.49902 -3 -15.499q-6.99902 -27.998 -22.998 -37.9971q-15.999 -10 -41.998 -10
h-4.99902q-45.998 0 -45.998 37.998q0 8.99902 1 17.499q1 8.49902 3 15.499q7 27.998 22.999 37.9971q15.999 10 41.9971 10h5z" />
    <glyph glyph-name="asterisk" unicode="*" horiz-adv-x="370" 
d="M288 737q13 0 13 -9q0 -5 -3.5 -15t-7.5 -21l-28 -84l100 45q4 2 7 3t6 1q6 0 8 -9q2 -7 3 -15.5t3 -17.5q1 -5 1.5 -11t0.5 -10q0 -5 -3 -7.5t-13 -4.5l-109 -24l64 -74q10 -10 10 -18q0 -10 -16 -19l-27 -16q-12 -7 -16 -7q-9 0 -14 10l-41 96l-73 -99q-9 -12 -17 -12
q-3 0 -7 1.5t-11 6.5l-24 17q-8 6 -11 9t-3 8q0 7 11 16l98 85l-96 22q-12 3 -12 12q0 3 1.5 6l4.5 9l19 35q8 13 15 13q3 0 7.5 -2t12.5 -7l71 -41l8 112q1 16 17 16h51z" />
    <glyph glyph-name="period" unicode="." horiz-adv-x="204" 
d="M37 -9q-23 0 -35 10t-12 27q0 7 1 15t4 22q12 49 63 49h8q23 0 35 -10t12 -27q0 -7 -1 -15t-4 -22q-6 -26 -21 -37.5t-42 -11.5h-8z" />
    <glyph glyph-name="comma" unicode="," horiz-adv-x="218" 
d="M69 114q23 0 35.5 -11.5t12.5 -37.5q0 -42 -24 -87.5t-83 -104.5q-7 -7 -11 -7q-5 0 -12 5l-14 10q-10 7 -10 13q0 4 6 10q35 37 46.5 53.5t11.5 28.5q0 6 -2 9t-6 6l-7 5q-15 12 -15 34q0 32 14 53t49 21h9z" />
    <glyph glyph-name="colon" unicode=":" horiz-adv-x="234" 
d="M56 -9q-23 0 -35 10t-12 27q0 7 1 15t4 22q12 49 63 49h8q23 0 35 -10t12 -27q0 -7 -1 -15t-4 -22q-6 -26 -21 -37.5t-42 -11.5h-8zM129 372q-23 0 -35 10t-12 27q0 7 1 15t4 22q12 49 63 49h8q23 0 35 -10t12 -27q0 -7 -1 -15t-4 -22q-6 -26 -21 -37.5t-42 -11.5h-8z
" />
    <glyph glyph-name="semicolon" unicode=";" horiz-adv-x="227" 
d="M75 114q23 0 35.5 -11.5t12.5 -37.5q0 -42 -24 -87.5t-83 -104.5q-7 -7 -11 -7q-5 0 -12 5l-14 10q-10 7 -10 13q0 4 6 10q35 37 46.5 53.5t11.5 28.5q0 6 -2 9t-6 6l-7 5q-15 12 -15 34q0 32 14 53t49 21h9zM120 372q-23 0 -35 10t-12 27q0 7 1 15t4 22q12 49 63 49h8
q23 0 35 -10t12 -27q0 -7 -1 -15t-4 -22q-6 -26 -21 -37.5t-42 -11.5h-8z" />
    <glyph glyph-name="ellipsis" unicode="&#x2026;" horiz-adv-x="609" 
d="M35 -9q-23 0 -35 10t-12 27q0 7 1 15t4 22q12 49 63 49h8q23 0 35 -10t12 -27q0 -7 -1 -15t-4 -22q-6 -26 -21 -37.5t-42 -11.5h-8zM238 -9q-23 0 -35 10t-12 27q0 7 1 15t4 22q12 49 63 49h8q23 0 35 -10t12 -27q0 -7 -1 -15t-4 -22q-6 -26 -21 -37.5t-42 -11.5h-8z
M441 -9q-23 0 -35 10t-12 27q0 7 1 15t4 22q12 49 63 49h8q23 0 35 -10t12 -27q0 -7 -1 -15t-4 -22q-6 -26 -21 -37.5t-42 -11.5h-8z" />
    <glyph glyph-name="periodcentered" unicode="&#xb7;" horiz-adv-x="203" 
d="M80 229q-23 0 -35 10t-12 27q0 7 1 15t4 22q12 49 63 49h8q23 0 35 -10t12 -27q0 -7 -1 -15t-4 -22q-6 -26 -21 -37.5t-42 -11.5h-8z" />
    <glyph glyph-name="bullet" unicode="&#x2022;" horiz-adv-x="338" 
d="M139 141q-50 0 -77.5 28t-27.5 70q0 68 38 105t101 37q50 0 77.5 -28t27.5 -70q0 -68 -38 -105t-101 -37z" />
    <glyph glyph-name="slash" unicode="/" horiz-adv-x="373" 
d="M312 667q6 13 12 16.5t17 3.5h51q9 0 12 -2t3 -6q0 -5 -4 -13t-12 -25l-330 -645q-7 -13 -12.5 -16.5t-16.5 -3.5h-51q-15 0 -15 9q0 5 4 12.5t12 24.5z" />
    <glyph glyph-name="parenleft" unicode="(" horiz-adv-x="304" 
d="M273 672q14 14 21 14q6 0 14 -5l27 -17q13 -8 13 -14t-8 -14q-95 -100 -148.5 -215t-53.5 -233q0 -70 16 -138.5t42 -121.5q5 -10 5 -14t-3.5 -7t-15.5 -8l-20 -9q-15 -7 -22 -7q-9 0 -15 11q-38 67 -60.5 143t-22.5 153q0 127 62 251t169 231z" />
    <glyph glyph-name="brokenbar" unicode="&#xa6;" horiz-adv-x="230" 
d="M51 234q2 12 7.5 15.5t18.5 3.5h43q12 0 16.5 -2.5t4.5 -9.5q0 -6 -6 -36l-40 -207q-2 -12 -7.5 -15.5t-18.5 -3.5h-43q-12 0 -16.5 2.5t-4.5 9.5q0 6 6 36zM136 670q2 12 7.5 15.5t18.5 3.5h43q12 0 16.5 -2.5t4.5 -9.5q0 -6 -6 -36l-40 -207q-2 -12 -7.5 -15.5
t-18.5 -3.5h-43q-12 0 -16.5 2.5t-4.5 9.5q0 6 6 36z" />
    <glyph glyph-name="parenright" unicode=")" horiz-adv-x="304" 
d="M18 -103q-14 -14 -21 -14q-6 0 -14 5l-27 17q-13 8 -13 14t8 14q95 100 148.5 215t53.5 233q0 70 -16 138.5t-42 121.5q-5 10 -5 14t3.5 7t15.5 8l20 9q15 7 22 7q9 0 15 -11q38 -67 60.5 -143t22.5 -153q0 -127 -62 -251t-169 -231z" />
    <glyph glyph-name="bracketleft" unicode="[" horiz-adv-x="300" 
d="M323 673q12 0 12 -8q0 -4 -1.5 -11t-3.5 -18l-6 -30q-2 -9 -6.5 -11.5t-15.5 -2.5h-94l-116 -599h98q13 0 13 -9q0 -6 -5 -29l-6 -29q-2 -8 -6.5 -11t-15.5 -3h-163q-16 0 -16 13q0 5 1 12t4 23l135 694q4 19 24 19h168z" />
    <glyph glyph-name="backslash" unicode="\" horiz-adv-x="337" 
d="M88 638q-3 28 -3 34q0 7 4.5 11t16.5 4h46q13 0 18 -4t7 -16l72 -642q3 -29 3 -34q0 -7 -4.5 -11t-16.5 -4h-46q-13 0 -18 4t-7 16z" />
    <glyph glyph-name="bracketright" unicode="]" horiz-adv-x="300" 
d="M-42 -88q-12 0 -12 8q0 4 1.5 11t3.5 18l6 30q2 9 6.5 11.5t15.5 2.5h94l116 599h-98q-13 0 -13 9q0 6 5 29l6 29q2 8 6.5 11t15.5 3h163q16 0 16 -13q0 -5 -1 -12t-4 -23l-135 -694q-4 -19 -24 -19h-168z" />
    <glyph glyph-name="braceleft" unicode="{" horiz-adv-x="330" 
d="M99 168q3 15 3 29q0 40 -53 55q-14 4 -14 12q0 3 1 8t3 19l4 21q2 10 5 13t10 5q23 5 38.5 11.5t25.5 16t15.5 23t9.5 32.5l29 150q7 39 19 63t28.5 36.5t39 17t52.5 4.5h44q12 0 12 -9q0 -6 -5 -31l-5 -26q-2 -10 -7 -12.5t-13 -2.5h-34q-20 0 -29 -12.5t-17 -48.5
l-29 -149q-11 -46 -30.5 -69.5t-59.5 -36.5v-3q23 -9 36.5 -27.5t13.5 -44.5q0 -12 -2 -27t-7 -42l-21 -106l-3.5 -21t-1.5 -16q0 -12 6.5 -16.5t19.5 -4.5h38q12 0 12 -9q0 -5 -1 -12t-3 -15l-6 -29q-2 -9 -6 -12.5t-15 -3.5h-42q-50 0 -72 19t-22 57q0 16 2.5 34t7.5 43z
" />
    <glyph glyph-name="bar" unicode="|" horiz-adv-x="230" 
d="M135 670q2 12 7.5 15.5t18.5 3.5h43q12 0 16.5 -2.5t4.5 -9.5q0 -6 -6 -36l-124 -643q-2 -12 -7.5 -15.5t-18.5 -3.5h-43q-12 0 -16.5 2.5t-4.5 9.5q0 6 6 36z" />
    <glyph glyph-name="braceright" unicode="}" horiz-adv-x="330" 
d="M217 414q-3 -15 -3 -29q0 -40 53 -55q14 -4 14 -12q0 -3 -1 -8t-3 -19l-4 -21q-2 -10 -5 -13t-10 -5q-23 -5 -38.5 -11.5t-25.5 -16t-15.5 -23t-9.5 -32.5l-29 -150q-8 -39 -19.5 -63t-28 -36.5t-39 -17t-52.5 -4.5h-44q-12 0 -12 9q0 6 5 31l5 26q2 10 7 12.5t13 2.5h34
q20 0 29 12.5t17 48.5l29 149q6 23 13 40t17.5 29.5t25 21t34.5 15.5v3q-23 9 -36.5 27.5t-13.5 44.5q0 12 2 27t7 42l21 106l3.5 21t1.5 16q0 12 -6.5 16.5t-19.5 4.5h-38q-12 0 -12 9q0 5 1 12t3 15l6 29q2 9 6 12.5t15 3.5h42q50 0 72 -19t22 -57q0 -16 -2.5 -34
t-7.5 -43z" />
    <glyph glyph-name="hyphen" unicode="-" horiz-adv-x="315" 
d="M250 303q13 0 17 -3.5t4 -9.5q0 -4 -2 -13.5t-4 -20.5l-3 -16q-2 -14 -8 -19t-23 -5h-194q-13 0 -17 3.5t-4 9.5q0 4 2 13.5t4 20.5l3 16q2 14 8 19t23 5h194z" />
    <glyph glyph-name="uni00AD" unicode="&#xad;" horiz-adv-x="315" 
d="M250 303q13 0 17 -3.5t4 -9.5q0 -4 -2 -13.5t-4 -20.5l-3 -16q-2 -14 -8 -19t-23 -5h-194q-13 0 -17 3.5t-4 9.5q0 4 2 13.5t4 20.5l3 16q2 14 8 19t23 5h194z" />
    <glyph glyph-name="endash" unicode="&#x2013;" horiz-adv-x="500" 
d="M473 303q13 0 17 -3.5t4 -9.5q0 -4 -2 -13.5t-4 -20.5l-3 -16q-2 -14 -8 -19t-23 -5h-449q-13 0 -17 3.5t-4 9.5q0 4 2 13.5t4 20.5l3 16q2 14 8 19t23 5h449z" />
    <glyph glyph-name="emdash" unicode="&#x2014;" horiz-adv-x="1000" 
d="M5 216q-13 0 -17 3.5t-4 9.5q0 4 2 13.5t4 20.5l3 16q2 14 8 19t23 5h949q13 0 17 -3.5t4 -9.5q0 -4 -2 -13.5t-4 -20.5l-3 -16q-2 -14 -8 -19t-23 -5h-949z" />
    <glyph glyph-name="underscore" unicode="_" horiz-adv-x="521" 
d="M-27 -82q-19 0 -19 12q0 4 0.5 8.5t2.5 12.5l3 16q2 11 7.5 15.5t19.5 4.5h412q19 0 19 -12q0 -5 -3 -21l-3 -16q-2 -11 -7.5 -15.5t-19.5 -4.5h-412z" />
    <glyph glyph-name="dagger" unicode="&#x2020;" horiz-adv-x="376" 
d="M370 482q8 1 12.5 -2.5t4.5 -8.5t-1 -11t-4 -20l-5 -24q-3 -14 -8 -17.5t-19 -3.5l-102 2l-77 -375q-4 -22 -28 -22h-40q-19 0 -19 13q0 8 2.5 21l7.5 39l59 324l-103 -2q-17 0 -17 11q0 5 1 11t4 20l5 24q3 14 8 18t19 3l97 -5l30 163q2 13 8.5 17.5t19.5 4.5h55
q19 0 19 -12q0 -6 -2 -15t-5 -23l-28 -135z" />
    <glyph glyph-name="daggerdbl" unicode="&#x2021;" horiz-adv-x="376" 
d="M210 212l-39 -190q-4 -22 -28 -22h-40q-19 0 -19 13q0 8 2.5 21l7.5 39l25 139l-94 -2q-17 0 -17 11q0 5 1 11t4 20l5 24q3 14 8 18t19 3l89 -5l19 105l-103 -2q-17 0 -17 11q0 5 1 11t4 20l5 24q3 14 8 18t19 3l97 -5l30 163q2 13 8.5 17.5t19.5 4.5h55q19 0 19 -12
q0 -6 -2 -15t-5 -23l-28 -135l106 5q8 1 12.5 -2.5t4.5 -8.5t-1 -11t-4 -20l-5 -24q-3 -14 -8 -17.5t-19 -3.5l-102 2l-22 -105l100 5q8 1 12.5 -2.5t4.5 -8.5t-1 -11t-4 -20l-5 -24q-3 -14 -8 -17.5t-19 -3.5z" />
    <glyph glyph-name="section" unicode="&#xa7;" horiz-adv-x="432" 
d="M47 293q0 42 22.5 74t61.5 46q-20 10 -31.5 31.5t-11.5 52.5q0 29 8 53.5t21 41.5q23 32 64 44t86 12q38 0 70 -5.5t56 -15.5q11 -4 11 -11q0 -5 -2 -11t-5 -17l-8 -25q-3 -10 -10 -10q-4 0 -9 2t-13 4q-17 5 -39.5 9t-48.5 4q-36 0 -56.5 -7.5t-28.5 -24.5
q-8 -16 -8 -35q0 -17 12 -26t45 -16l49 -10q51 -11 74 -31t24 -57q0 -47 -22 -82t-62 -50q47 -23 47 -78q0 -20 -5 -44t-14 -44q-33 -76 -165 -76q-36 0 -77.5 7.5t-70.5 18.5q-10 4 -10 11q0 5 1.5 9.5t4.5 15.5l7 25q4 13 12 13q4 0 10 -2q28 -11 61 -17t61 -6q38 0 58 7
t28 24q4 8 6.5 18.5t2.5 20.5q0 22 -14 31t-57 18l-39 8q-55 11 -75.5 34.5t-20.5 65.5zM139 313q0 -19 9 -30t33 -16l49 -10q29 11 43.5 32t14.5 48q0 17 -9.5 27t-35.5 15l-51 11q-22 -8 -37.5 -28t-15.5 -49z" />
    <glyph glyph-name="paragraph" unicode="&#xb6;" horiz-adv-x="589" 
d="M450 600h-86l-135 -691q-2 -11 -8 -16t-20 -5h-52q-17 0 -17 12q0 6 2 17t6 31l71 365q-62 8 -101 46t-39 105q0 49 17.5 88.5t51 67.5t82 43.5t109.5 15.5h279q9 0 11.5 -2t2.5 -7q0 -3 -1 -9.5t-3 -16.5l-6 -31q-3 -13 -19 -13h-56l-135 -691q-2 -11 -8 -16t-20 -5h-44
q-17 0 -17 12q0 6 2 17t6 31z" />
    <glyph glyph-name="registered" unicode="&#xae;" horiz-adv-x="817" 
d="M389 299h-10h-11t-12 1l-24 -127q-2 -10 -7 -13t-16 -3h-45q-13 0 -13 10q0 4 2 12t5 24l62 317q2 10 5.5 13.5t14.5 5.5q22 4 48 5.5t47 1.5q57 0 94.5 -20.5t37.5 -74.5q0 -59 -26.5 -94.5t-76.5 -48.5l37 -94q9 -23 13 -32.5t4 -14.5q0 -10 -15 -10h-49q-8 0 -13 3
t-8 12zM399 478q-8 -1 -10 -12l-19 -96q9 -1 18.5 -1h20.5q37 0 54.5 18.5t17.5 52.5q0 23 -12 31.5t-39 8.5q-9 0 -16.5 -0.5t-14.5 -1.5zM359 69q81 0 143.5 26.5t105 73t64.5 110.5t22 138q0 98 -59 154t-168 56q-81 0 -143.5 -26.5t-105 -73t-64.5 -110.5t-22 -138
q0 -98 59 -154t168 -56zM352 -14q-74 0 -132.5 20.5t-99 58t-62 91.5t-21.5 120q0 95 31.5 175t89.5 137.5t138 89.5t178 32q74 0 132.5 -20.5t99 -58t62 -91.5t21.5 -120q0 -95 -31.5 -175t-89.5 -137.5t-138.5 -89.5t-177.5 -32z" />
    <glyph glyph-name="copyright" unicode="&#xa9;" horiz-adv-x="817" 
d="M496 205q3 -17 3 -24t-11 -11q-23 -8 -52.5 -13t-58.5 -5q-121 0 -121 93q0 30 5.5 67t11.5 72q8 47 22 77.5t34.5 48.5t48 25.5t61.5 7.5q28 0 58 -7.5t49 -18.5q10 -5 10 -14q0 -8 -11 -27l-8 -14q-4 -7 -6.5 -9t-5.5 -2q-5 0 -11 4q-17 9 -36 14.5t-39 5.5
q-18 0 -32.5 -4t-25.5 -15.5t-19 -31.5t-13 -51q-5 -27 -9.5 -58.5t-4.5 -51.5q0 -23 13.5 -33t48.5 -10q17 0 35.5 2.5t32.5 6.5q5 2 10 3t7 1q9 0 10 -10zM359 69q81 0 143.5 26.5t105 73t64.5 110.5t22 138q0 98 -59 154t-168 56q-81 0 -143.5 -26.5t-105 -73
t-64.5 -110.5t-22 -138q0 -98 59 -154t168 -56zM352 -14q-74 0 -132.5 20.5t-99 58t-62 91.5t-21.5 120q0 95 31.5 175t89.5 137.5t138 89.5t178 32q74 0 132.5 -20.5t99 -58t62 -91.5t21.5 -120q0 -95 -31.5 -175t-89.5 -137.5t-138.5 -89.5t-177.5 -32z" />
    <glyph glyph-name="trademark" unicode="&#x2122;" horiz-adv-x="718" 
d="M92 590q-12 0 -12 8q0 4 1 9.5t3 13.5l3 16q2 9 6 11.5t11 2.5h216q14 0 11 -14l-6 -33q-3 -14 -17 -14h-72l-44 -232q-3 -14 -19 -14h-42q-16 0 -13 14l44 232h-70zM517 443q21 44 42.5 92t40.5 93q5 14 12 18.5t23 4.5h65q19 0 19 -14q0 -12 -1.5 -26t-3.5 -34
q-5 -47 -12 -103t-16 -116q-3 -14 -17 -14h-42q-13 0 -13 10q0 5 2 15t4 25q8 49 15.5 94.5t13.5 94.5h-3q-22 -51 -43.5 -99t-44.5 -90q-5 -11 -11.5 -14.5t-19.5 -3.5h-44q-14 0 -18 4.5t-6 16.5q-5 45 -9.5 91.5t-7.5 94.5h-3q-7 -28 -13.5 -54.5t-12.5 -53.5t-12 -55.5
t-13 -61.5q-3 -14 -20 -14h-42q-13 0 -13 9q0 5 2 12.5t5 21.5q16 68 31 125.5t32 115.5q5 14 11 18.5t20 4.5h58q16 0 20.5 -4.5t5.5 -18.5q4 -49 7.5 -94.5t7.5 -90.5h4z" />
    <glyph glyph-name="quotedblleft" unicode="&#x201c;" horiz-adv-x="398" 
d="M315.98 440.973q-22.998 0 -35.498 11.5q-12.499 11.499 -12.499 37.4971q0 41.998 23.999 87.4951q23.998 45.4971 82.9951 104.493q6.99902 7 10.999 7q5 0 11.999 -5l13.999 -9.99902q10 -7 10 -12.999q0 -4 -6 -10q-34.998 -36.9971 -46.4971 -53.4961
t-11.499 -28.499q0 -5.99902 2 -8.99902q1.99902 -3 5.99902 -6l7 -4.99902q14.999 -12 14.999 -33.998q0 -31.998 -13.999 -52.9971t-48.9971 -20.999h-9zM127.992 440.973q-22.999 0 -35.498 11.5q-12.499 11.499 -12.499 37.4971q0 41.998 23.999 87.4951
q23.998 45.4971 82.9941 104.493q7 7 11 7q4.99902 0 11.999 -5l13.999 -9.99902q9.99902 -7 9.99902 -12.999q0 -4 -5.99902 -10q-34.998 -36.9971 -46.4971 -53.4961q-11.5 -16.499 -11.5 -28.499q0 -5.99902 2 -8.99902t6 -6l6.99902 -4.99902q15 -12 15 -33.998
q0 -31.998 -14 -52.9971q-13.999 -20.999 -48.9971 -20.999h-8.99902z" />
    <glyph glyph-name="quotedblright" unicode="&#x201d;" horiz-adv-x="398" 
d="M360 689q23 0 35.5 -11.5t12.5 -37.5q0 -42 -24 -87.5t-83 -104.5q-7 -7 -11 -7q-5 0 -12 5l-14 10q-10 7 -10 13q0 4 6 10q35 37 46.5 53.5t11.5 28.5q0 6 -2 9t-6 6l-7 5q-15 12 -15 34q0 32 14 53t49 21h9zM172 689q23 0 35.5 -11.5t12.5 -37.5q0 -42 -24 -87.5
t-83 -104.5q-7 -7 -11 -7q-5 0 -12 5l-14 10q-10 7 -10 13q0 4 6 10q35 37 46.5 53.5t11.5 28.5q0 6 -2 9t-6 6l-7 5q-15 12 -15 34q0 32 14 53t49 21h9z" />
    <glyph glyph-name="quoteleft" unicode="&#x2018;" horiz-adv-x="210" 
d="M127.992 440.973q-22.999 0 -35.498 11.5q-12.499 11.499 -12.499 37.4971q0 41.998 23.999 87.4951q23.998 45.4971 82.9941 104.493q7 7 11 7q4.99902 0 11.999 -5l13.999 -9.99902q9.99902 -7 9.99902 -12.999q0 -4 -5.99902 -10q-34.998 -36.9971 -46.4971 -53.4961
q-11.5 -16.499 -11.5 -28.499q0 -5.99902 2 -8.99902t6 -6l6.99902 -4.99902q15 -12 15 -33.998q0 -31.998 -14 -52.9971q-13.999 -20.999 -48.9971 -20.999h-8.99902z" />
    <glyph glyph-name="quoteright" unicode="&#x2019;" horiz-adv-x="210" 
d="M172 689q23 0 35.5 -11.5t12.5 -37.5q0 -42 -24 -87.5t-83 -104.5q-7 -7 -11 -7q-5 0 -12 5l-14 10q-10 7 -10 13q0 4 6 10q35 37 46.5 53.5t11.5 28.5q0 6 -2 9t-6 6l-7 5q-15 12 -15 34q0 32 14 53t49 21h9z" />
    <glyph glyph-name="guillemotleft" unicode="&#xab;" horiz-adv-x="533" 
d="M443 121q6 -6 6 -14t-9 -15l-23 -20q-8 -6 -16 -6q-9 0 -17 8l-125 117q-11 10 -13.5 15t-2.5 12q0 4 1 10t3 12q2 10 6.5 15.5t15.5 13.5l172 123q5 3 8.5 5.5t7.5 2.5q8 0 16 -10l19 -23q6 -7 8 -10.5t2 -7.5q0 -5 -5 -10.5t-19 -16.5l-126 -98v-1zM194 121q6 -6 6 -14
t-9 -15l-23 -20q-8 -6 -16 -6q-9 0 -17 8l-125 117q-11 10 -13.5 15t-2.5 12q0 4 1 10t3 12q2 10 6.5 15.5t15.5 13.5l172 123q5 3 8.5 5.5t7.5 2.5q8 0 16 -10l19 -23q6 -7 8 -10.5t2 -7.5q0 -5 -5 -10.5t-19 -16.5l-126 -98v-1z" />
    <glyph glyph-name="guillemotright" unicode="&#xbb;" horiz-adv-x="533" 
d="M298 345q-6 6 -6 14q0 7 9 15l23 20q7 6 16 6t17 -8l125 -117q11 -10 13.5 -15t2.5 -12q0 -4 -1 -10t-3 -12q-2 -10 -6.5 -15.5t-15.5 -13.5l-172 -123q-5 -3 -8.5 -5.5t-7.5 -2.5q-5 0 -8 2t-8 8l-19 23q-6 7 -8 10.5t-2 7.5q0 5 5 10.5t19 16.5l126 98v1zM49 345
q-6 6 -6 14q0 7 9 15l23 20q7 6 16 6t17 -8l125 -117q11 -10 13.5 -15t2.5 -12q0 -4 -1 -10t-3 -12q-2 -10 -6.5 -15.5t-15.5 -13.5l-172 -123q-5 -3 -8.5 -5.5t-7.5 -2.5q-9 0 -16 10l-19 23q-6 7 -8 10.5t-2 7.5q0 5 5 10.5t19 16.5l126 98v1z" />
    <glyph glyph-name="guilsinglleft" unicode="&#x2039;" horiz-adv-x="284" 
d="M194 121q6 -6 6 -14t-9 -15l-23 -20q-8 -6 -16 -6q-9 0 -17 8l-125 117q-11 10 -13.5 15t-2.5 12q0 4 1 10t3 12q2 10 6.5 15.5t15.5 13.5l172 123q5 3 8.5 5.5t7.5 2.5q8 0 16 -10l19 -23q6 -7 8 -10.5t2 -7.5q0 -5 -5 -10.5t-19 -16.5l-126 -98v-1z" />
    <glyph glyph-name="guilsinglright" unicode="&#x203a;" horiz-adv-x="284" 
d="M49 345q-6 6 -6 14q0 7 9 15l23 20q7 6 16 6t17 -8l125 -117q11 -10 13.5 -15t2.5 -12q0 -4 -1 -10t-3 -12q-2 -10 -6.5 -15.5t-15.5 -13.5l-172 -123q-5 -3 -8.5 -5.5t-7.5 -2.5q-9 0 -16 10l-19 23q-6 7 -8 10.5t-2 7.5q0 5 5 10.5t19 16.5l126 98v1z" />
    <glyph glyph-name="quotesinglbase" unicode="&#x201a;" horiz-adv-x="192" 
d="M72 114q23 0 35.5 -11.5t12.5 -37.5q0 -42 -24 -87.5t-83 -104.5q-7 -7 -11 -7q-5 0 -12 5l-14 10q-10 7 -10 13q0 4 6 10q35 37 46.5 53.5t11.5 28.5q0 6 -2 9t-6 6l-7 5q-15 12 -15 34q0 32 14 53t49 21h9z" />
    <glyph glyph-name="quotedblbase" unicode="&#x201e;" horiz-adv-x="398" 
d="M250 114q23 0 35.5 -11.5t12.5 -37.5q0 -42 -24 -87.5t-83 -104.5q-7 -7 -11 -7q-5 0 -12 5l-14 10q-10 7 -10 13q0 4 6 10q35 37 46.5 53.5t11.5 28.5q0 6 -2 9t-6 6l-7 5q-15 12 -15 34q0 32 14 53t49 21h9zM64 114q23 0 35.5 -11.5t12.5 -37.5q0 -42 -24 -87.5
t-83 -104.5q-7 -7 -11 -7q-5 0 -12 5l-14 10q-10 7 -10 13q0 4 6 10q35 37 46.5 53.5t11.5 28.5q0 6 -2 9t-6 6l-7 5q-15 12 -15 34q0 32 14 53t49 21h9z" />
    <glyph glyph-name="ordfeminine" unicode="&#xaa;" horiz-adv-x="326" 
d="M214 319q-11 -19 -31.5 -25t-51.5 -6h-13q-44 0 -60.5 17.5t-16.5 48.5q0 17 3 31.5t6 26.5q9 37 35.5 53t83.5 16h18q8 0 22.5 -0.5t28.5 -2.5l2 10q2 8 3 15t1 13q0 14 -10.5 20t-38.5 6q-18 0 -35.5 -3t-29.5 -6q-3 -1 -8 -2t-9 -1q-9 0 -10 15l-2 14q-1 6 -1.5 11
t-0.5 8q0 6 8 9q20 6 48 10t54 4q54 0 79.5 -16t25.5 -54q0 -14 -2.5 -28.5t-6.5 -32.5l-32 -167q-1 -10 -12 -10h-37q-10 0 -10 9v17zM227 423q-9 2 -21.5 2.5t-23.5 0.5h-15q-24 0 -37 -6t-18 -23q-5 -20 -5 -31q0 -14 7 -18.5t29 -4.5h9q32 0 47.5 9.5t21.5 39.5z" />
    <glyph glyph-name="ordmasculine" unicode="&#xba;" horiz-adv-x="326" 
d="M57 464q7 39 19 65.5t30 42.5t42.5 22.5t57.5 6.5q54 0 83 -22t29 -72q0 -11 -2 -30t-8 -51q-14 -74 -48 -106t-102 -32q-54 0 -83 24.5t-29 73.5q0 10 2.5 27t8.5 51zM127 456q-4 -23 -6.5 -39t-2.5 -27q0 -44 47 -44q31 0 46 16t23 54q5 23 8.5 45.5t3.5 40.5
q0 22 -10.5 31.5t-34.5 9.5q-34 0 -50 -17.5t-24 -69.5z" />
    <glyph glyph-name="zero" unicode="0" 
d="M215 70q41 0 67 15t46 47q15 24 25 57.5t21 78.5q12 52 20.5 104t8.5 94q0 60 -21.5 85.5t-71.5 25.5q-42 0 -68 -15t-46 -47q-15 -24 -25 -57.5t-21 -78.5q-12 -52 -20.5 -104t-8.5 -94q0 -60 21.5 -85.5t72.5 -25.5zM207 -9q-178 0 -178 178q0 54 7.5 106.5t18.5 103.5
q15 71 32 116t42 78q33 45 79 64t109 19q178 0 178 -178q0 -54 -7.5 -106.5t-18.5 -103.5q-15 -71 -32 -116t-42 -78q-33 -45 -79 -64t-109 -19z" />
    <glyph glyph-name="one" unicode="1" 
d="M413 76q16 0 16 -10q0 -6 -4 -26l-4 -21q-2 -11 -6.5 -15t-16.5 -4h-335q-18 0 -18 11q0 5 4 25l4 20q2 12 6.5 16t16.5 4h126l91 475h-6l-124 -48q-8 -3 -12 -3q-8 0 -12 11l-12 34q-3 8 -4 11.5t-1 5.5q0 9 11 13l158 61q18 7 29 9t25 2h33q23 0 23 -13q0 -5 -2 -14.5
t-4 -20.5l-100 -523h118z" />
    <glyph glyph-name="two" unicode="2" 
d="M139 628q14 5 34.5 10t44 9t49 6.5t49.5 2.5q38 0 70.5 -7.5t56 -24.5t36.5 -45.5t13 -71.5q0 -36 -9 -72q-6 -25 -17.5 -45t-30.5 -38t-48 -34t-71 -32l-63 -24q-37 -14 -62 -28.5t-42 -33t-27 -43.5t-16 -61l-3 -18h276q12 0 15.5 -4t1.5 -15l-8 -43q-2 -11 -7 -13.5
t-17 -2.5h-335q-24 0 -24 16q0 5 1 12t3 23l5 34q8 56 23.5 95.5t40.5 67.5t60 48t82 38l57 22q54 20 80.5 41t34.5 50q4 13 6 28t2 25q0 44 -27.5 60.5t-72.5 16.5q-29 0 -66.5 -5t-70.5 -16q-6 -2 -10 -2.5t-6 -0.5q-8 0 -11 12l-4 18q-3 13 -4 20t-1 11q0 10 12 14z" />
    <glyph glyph-name="three" unicode="3" 
d="M175 301q-16 0 -16 10q0 2 1 8.5t3 14.5l5 28q2 10 7 13.5t17 3.5h34q61 0 100 22t49 59q4 13 5.5 26t1.5 25q0 37 -26.5 52t-77.5 15q-31 0 -65.5 -5.5t-64.5 -13.5q-4 -1 -7 -1.5t-6 -0.5q-9 0 -12 14l-5 22q-2 7 -3 13t-1 10q0 11 11 15q34 11 78 18t88 7
q88 0 136 -34.5t48 -102.5q0 -17 -2 -31t-5 -27q-11 -48 -42 -76.5t-78 -41.5v-2q42 -12 65 -41.5t23 -80.5q0 -28 -4.5 -52.5t-12.5 -45.5q-24 -66 -80 -98t-150 -32q-48 0 -95 9t-75 20q-8 3 -10.5 5.5t-2.5 7.5q0 4 1 8t3 11l9 32q4 12 13 12q3 0 11 -2q30 -9 69.5 -16.5
t71.5 -7.5q43 0 72 9t48 30q36 39 36 105q0 47 -31 67t-94 20h-40z" />
    <glyph glyph-name="four" unicode="4" 
d="M282 0q-16 0 -16 11q0 4 1.5 11t3.5 20l23 118h-277q-15 0 -15 14q0 5 4 25q2 11 6 19.5t15 23.5l300 380q11 14 22 19.5t32 5.5h72q13 0 17.5 -3t4.5 -11q0 -5 -1.5 -13t-3.5 -20l-70 -362h65q16 0 16 -9q0 -6 -5 -31l-5 -23q-2 -10 -6 -12.5t-16 -2.5h-65l-27 -139
q-2 -12 -7.5 -16.5t-17.5 -4.5h-50zM370 551h-3l-248 -313h190z" />
    <glyph glyph-name="five" unicode="5" 
d="M24 19q-14 6 -14 14q0 5 2 12.5t4 15.5l6 21q5 14 13 14q4 0 8.5 -1.5t9.5 -3.5q31 -10 63.5 -15.5t67.5 -5.5q51 0 87.5 14.5t58.5 53.5q11 22 18 50.5t7 60.5q0 86 -87 86q-32 0 -64 -9.5t-64 -23.5q-10 -5 -15 -5q-6 0 -13 4l-21 13q-9 6 -9 13q0 4 1.5 10.5t5.5 20.5
l71 269q3 11 8 15.5t18 4.5h283q14 0 16 -5t0 -17l-8 -38q-2 -11 -6 -15.5t-18 -4.5h-210q-8 0 -11 -2.5t-5 -10.5l-45 -168q26 12 56 19t62 7q68 0 109.5 -39t41.5 -114q0 -82 -32 -149q-30 -63 -88.5 -91t-144.5 -28q-22 0 -45 2.5t-44.5 6t-40.5 8.5t-32 11z" />
    <glyph glyph-name="six" unicode="6" 
d="M307 413q77 0 119 -38.5t42 -117.5q0 -48 -8 -84t-23 -66q-29 -60 -80.5 -88t-123.5 -28q-98 0 -144.5 51.5t-46.5 138.5q0 75 14 146.5t33 131.5q33 106 99.5 151.5t167.5 45.5q35 0 71 -7t62 -20q11 -6 11 -12q0 -8 -8 -27l-9 -22q-6 -13 -13 -13q-4 0 -8.5 1.5
l-7.5 2.5q-20 8 -45.5 13.5t-51.5 5.5q-73 0 -114.5 -32t-65.5 -107q-5 -14 -8.5 -29.5t-7.5 -32.5q29 17 69.5 26.5t76.5 9.5zM132 189q0 -57 23.5 -89.5t83.5 -32.5q40 0 68.5 16.5t46.5 52.5q11 23 17 52.5t6 61.5q0 41 -20.5 64t-67.5 23q-37 0 -76 -11t-69 -28
q-5 -30 -8.5 -57.5t-3.5 -51.5z" />
    <glyph glyph-name="seven" unicode="7" 
d="M149 22q-9 -13 -18 -17.5t-24 -4.5h-57q-12 0 -12 10q0 5 5 13t17 25l360 519h-292q-14 0 -14 10q0 4 1 10t3 13l7 32q2 9 7 12t16 3h379q16 0 16 -13q0 -6 -3 -21l-4 -18l-4 -12t-6.5 -13.5t-11 -17t-16.5 -24.5z" />
    <glyph glyph-name="eight" unicode="8" 
d="M23 148q0 29 5 50t13 41q17 38 49 67t70 46q-24 17 -40 48t-16 72q0 23 5.5 46t15.5 42q24 46 71.5 71t123.5 25q89 0 134.5 -39.5t45.5 -105.5q0 -28 -7.5 -56t-23.5 -51t-38 -42.5t-51 -33.5q44 -24 64 -57.5t20 -78.5q0 -32 -8.5 -62t-23.5 -53q-32 -48 -83 -67
t-123 -19q-97 0 -150 42.5t-53 114.5zM289 280q-18 9 -29.5 14.5t-19 9t-11.5 6t-8 4.5q-32 -14 -59.5 -40.5t-37.5 -56.5q-9 -29 -9 -52q0 -48 31.5 -73t85.5 -25q42 0 72.5 11.5t49.5 38.5q9 13 13.5 30.5t4.5 35.5t-4.5 31t-14.5 24t-26 21t-38 21zM195 481
q0 -35 17.5 -56t59.5 -42l40 -20q29 14 47.5 30t28.5 33q8 14 14 31.5t6 40.5q0 42 -25.5 62t-70.5 20q-38 0 -62.5 -11t-38.5 -32q-16 -25 -16 -56z" />
    <glyph glyph-name="nine" unicode="9" 
d="M227 234q-80 0 -123.5 39.5t-43.5 114.5q0 45 7 80t15 55q14 37 35.5 62.5t49.5 41t61.5 22.5t70.5 7q89 0 136 -51t47 -150q0 -91 -13 -169.5t-42 -146.5q-30 -71 -86.5 -109.5t-152.5 -38.5q-42 0 -79.5 7.5t-65.5 19.5q-11 5 -11 11q0 5 2.5 11t5.5 15l8 23
q4 13 13 13q3 0 9 -2q20 -8 51.5 -14t66.5 -6q59 0 98.5 26t60.5 85q7 19 13.5 42t10.5 47q-30 -17 -67.5 -26t-76.5 -9zM390 442q0 69 -22 103.5t-75 34.5q-49 0 -79.5 -19.5t-47.5 -67.5q-6 -17 -10 -41t-4 -56q0 -86 94 -86q38 0 73.5 10t63.5 29q4 23 5.5 47t1.5 46z
" />
    <glyph glyph-name="dollar" unicode="$" 
d="M164 -97q-11 0 -13.5 4t-0.5 12l14 73q-44 3 -80.5 10.5t-61.5 17.5q-16 6 -16 15q0 5 2 11.5t5 16.5l6 22q4 15 14 15q5 0 9 -1.5t9 -3.5q26 -11 59.5 -18t68.5 -9l43 223l-19 5q-35 9 -59 21t-38 28.5t-20 39.5t-6 53q0 25 5.5 52.5t14.5 52.5q19 52 67 81.5t129 31.5
l15 74q2 11 6 13.5t14 2.5h26q11 0 13.5 -3t0.5 -13l-15 -76q32 -2 60.5 -8t51.5 -13q12 -4 12 -12q0 -6 -2.5 -13.5t-6.5 -18.5l-8 -22q-5 -12 -14 -12q-5 0 -10 1t-10 3q-16 5 -39 10t-49 7l-40 -212l12 -2q38 -10 63 -21.5t40 -27.5t21 -37.5t6 -50.5q0 -20 -4.5 -47
t-13.5 -54q-23 -69 -71 -99t-130 -33l-14 -73q-2 -10 -6 -13t-15 -3h-25zM173 443q0 -25 15.5 -40t54.5 -26l38 200q-41 -2 -64 -18.5t-34 -46.5q-5 -12 -7.5 -30.5t-2.5 -38.5zM348 206q0 30 -15.5 45t-53.5 26l-40 -207q38 5 62.5 22t35.5 49q5 15 8 32.5t3 32.5z" />
    <glyph glyph-name="cent" unicode="&#xa2;" 
d="M147 131q0 -30 16.5 -44.5t51.5 -17.5l68 351q-47 -5 -73 -37.5t-42 -112.5q-4 -18 -7.5 -37t-6.5 -37.5t-5 -35.5t-2 -29zM356 494q23 -4 45.5 -11.5t42.5 -18.5q10 -6 10 -13q0 -3 -1.5 -7t-6.5 -13l-16 -30q-3 -5 -5 -7.5t-7 -2.5q-4 0 -16 6q-15 7 -29.5 12t-31.5 8
l-68 -348q19 2 38 6t35 9q3 1 6.5 2t7.5 1q7 0 10 -12l4 -18q2 -11 3.5 -17.5t1.5 -11.5q0 -9 -12 -13q-23 -9 -51.5 -15t-57.5 -8l-14 -73q-2 -11 -6 -13.5t-15 -2.5h-26q-12 0 -12 8q0 3 3 20l12 61q-75 4 -109.5 33.5t-34.5 88.5q0 17 2.5 40.5t6.5 49.5t9 51l9 45
q12 56 30.5 94t45.5 61t61.5 33t78.5 11l15 78q2 11 6 13.5t15 2.5h26q12 0 12 -8q0 -4 -3 -20z" />
    <glyph glyph-name="Euro" unicode="&#x20ac;" 
d="M519 555q-5 -9 -11 -9q-4 0 -8.5 2t-9.5 4q-26 11 -54.5 17t-57.5 6q-38 0 -63 -9t-42 -28t-28.5 -49.5t-20.5 -72.5h195q10 0 13.5 -3.5t1.5 -15.5l-7 -35q-2 -9 -5.5 -12.5t-15.5 -3.5h-197l-11 -68h194q10 0 13.5 -3.5t1.5 -15.5l-7 -35q-2 -9 -5.5 -12.5t-15.5 -3.5
h-189q-2 -12 -2 -22v-19q0 -21 5 -39t17.5 -30.5t33 -20t51.5 -7.5q32 0 67.5 6t59.5 14q15 5 21 5q8 0 12 -14l4 -13q4 -14 5 -20.5t1 -10.5q0 -10 -14 -15q-36 -14 -83.5 -22.5t-87.5 -8.5q-102 0 -144.5 47t-42.5 133v17t2 20h-61q-10 0 -13.5 3.5t-1.5 15.5l7 35
q2 10 5.5 13t15.5 3h57q2 16 5 32.5t7 35.5h-55q-10 0 -13.5 3.5t-1.5 15.5l7 35q2 10 5.5 13t15.5 3h55q13 63 33.5 108.5t50 75t70 43t94.5 13.5q44 0 83.5 -9.5t69.5 -25.5q11 -6 11 -15q0 -4 -2 -8.5t-7 -15.5l-13 -27v0z" />
    <glyph glyph-name="florin" unicode="&#x192;" 
d="M197 322h-72q-8 0 -8 7q0 3 1 6.5t3 11.5l6 22q3 11 6.5 14t17.5 5l66 8l27 99q14 52 29 86t35 55q24 26 56.5 38t79.5 12q20 0 42 -3.5t39 -9.5q11 -4 11 -11q0 -5 -6 -24l-7 -22q-4 -13 -13 -13q-4 0 -7 0.5t-8 1.5q-14 3 -28 5t-27 2q-24 0 -41 -7.5t-30 -24.5
q-10 -13 -18.5 -36t-18.5 -61l-23 -85h112q13 0 13 -8q0 -5 -1.5 -11.5t-4.5 -17.5l-7 -25q-2 -8 -6.5 -11t-16.5 -3h-109l-87 -322q-14 -52 -29 -86t-35 -55q-24 -26 -56.5 -38t-79.5 -12q-19 0 -39 3.5t-37 8.5q-10 4 -10 10q0 3 2 11l11 36q4 13 12 13q2 0 12 -2
q12 -2 26.5 -4t28.5 -2q23 0 39.5 7.5t29.5 24.5q10 13 18.5 36t18.5 61z" />
    <glyph glyph-name="sterling" unicode="&#xa3;" 
d="M490 564q-23 6 -49.5 10t-52.5 4q-64 0 -94 -33q-14 -15 -23 -39t-17 -62l-15 -75h168q16 0 16 -10q0 -9 -4 -26l-5 -25q-2 -10 -6.5 -12.5t-15.5 -2.5h-168l-8 -41q-7 -35 -14.5 -61.5t-17 -46.5t-22.5 -36t-31 -29v-1h281q15 0 15 -10q0 -7 -4 -27l-4 -22
q-2 -11 -6 -15t-17 -4h-393q-14 0 -14 10q0 3 0.5 7.5t1.5 9.5l4 19q2 8 6.5 14.5t20.5 17.5q24 16 39.5 30.5t26 31t17 37t12.5 49.5l13 67h-60q-11 0 -11 6q0 4 3 19l4 21q2 10 6 13.5t16 5.5l56 9l16 81q12 61 29 98t43 61q52 49 149 49q17 0 36 -2t38 -5t35.5 -7
t28.5 -9q11 -4 11 -12q0 -5 -2 -11.5t-7 -20.5l-5 -14q-4 -13 -13 -13q-3 0 -6 0.5t-7 1.5z" />
    <glyph glyph-name="yen" unicode="&#xa5;" 
d="M269 96l-15 -80q-2 -9 -6.5 -12.5t-16.5 -3.5h-53q-17 0 -17 11q0 5 1 9.5t3 15.5l12 60h-118q-12 0 -14.5 4.5t-0.5 15.5l7 38q2 10 6.5 12.5t15.5 2.5h118l9 45l-3 7h-113q-12 0 -14.5 4.5t-0.5 15.5l7 38q2 10 6.5 12.5t15.5 2.5h75q-31 95 -51 197q-3 18 -6.5 38
t-5.5 39t-3.5 35.5t-1.5 27.5q0 16 20 16h49q11 0 16 -2.5t6 -13.5q7 -81 22 -167t36 -161h7q56 79 105 162t89 166q5 11 10.5 13.5t16.5 2.5h59q13 0 13 -9t-10 -27q-17 -34 -39 -73.5t-46.5 -81t-51 -83t-53.5 -79.5h72q12 0 14.5 -4.5t0.5 -15.5l-7 -38
q-2 -10 -6.5 -12.5t-15.5 -2.5h-111l-9 -11l-8 -41h117q12 0 14.5 -4.5t0.5 -15.5l-7 -38q-2 -10 -6.5 -12.5t-15.5 -2.5h-118z" />
    <glyph glyph-name="numbersign" unicode="#" horiz-adv-x="649" 
d="M291 372l-43 -103h113l43 103h-113zM28 186q-16 0 -16 10q0 5 8 24l11 26q6 14 12.5 18.5t21.5 4.5h89l43 103h-93q-16 0 -16 10q0 5 8 24l11 26q6 14 12.5 18.5t21.5 4.5h90l71 171q6 14 12.5 18t20.5 4h48q17 0 17 -11q0 -4 -3.5 -13t-8.5 -20l-62 -149h112l71 171
q6 14 12.5 18t20.5 4h48q17 0 17 -11q0 -4 -3.5 -13t-8.5 -20l-62 -149h88q16 0 16 -10q0 -5 -8 -24l-11 -26q-6 -14 -12.5 -18.5t-21.5 -4.5h-86l-43 -103h90q16 0 16 -10q0 -5 -8 -24l-11 -26q-6 -14 -12.5 -18.5t-21.5 -4.5h-86l-69 -164q-6 -14 -12.5 -18t-20.5 -4h-48
q-17 0 -17 11q0 4 3.5 13t8.5 20l60 142h-113l-68 -164q-6 -14 -12.5 -18t-20.5 -4h-48q-17 0 -17 11q0 4 3.5 13t8.5 20l60 142h-92z" />
    <glyph glyph-name="percent" unicode="%" horiz-adv-x="807" 
d="M153 409q0 -24 9 -33.5t28 -9.5q26 0 44 21.5t29 84.5q9 48 9 72t-9 33.5t-28 9.5q-26 0 -44 -21.5t-29 -84.5q-9 -48 -9 -72zM591 640q8 10 14.5 13t18.5 3h49q15 0 15 -10q0 -5 -6 -14l-465 -625q-8 -10 -14.5 -13t-18.5 -3h-49q-15 0 -15 10q0 5 6 14zM357 551
q0 -28 -6 -65.5t-19 -73.5q-21 -59 -56.5 -87t-93.5 -28q-56 0 -85 28t-29 77q0 28 6 65.5t19 73.5q21 59 56.5 87t93.5 28q56 0 85 -28t29 -77zM535 103q0 -24 9 -33.5t28 -9.5q26 0 44 21.5t29 84.5q9 48 9 72t-9 33.5t-28 9.5q-26 0 -44 -21.5t-29 -84.5q-9 -48 -9 -72z
M739 245q0 -28 -6 -65.5t-19 -73.5q-21 -59 -56.5 -87t-93.5 -28q-56 0 -85 28t-29 77q0 28 6 65.5t19 73.5q21 59 56.5 87t93.5 28q56 0 85 -28t29 -77z" />
    <glyph glyph-name="perthousand" unicode="&#x2030;" horiz-adv-x="1125" 
d="M153 409q0 -24 9 -33.5t28 -9.5q26 0 44 21.5t29 84.5q9 48 9 72t-9 33.5t-28 9.5q-26 0 -44 -21.5t-29 -84.5q-9 -48 -9 -72zM591 640q8 10 14.5 13t18.5 3h49q15 0 15 -10q0 -5 -6 -14l-465 -625q-8 -10 -14.5 -13t-18.5 -3h-49q-15 0 -15 10q0 5 6 14zM357 551
q0 -28 -6 -65.5t-19 -73.5q-21 -59 -56.5 -87t-93.5 -28q-56 0 -85 28t-29 77q0 28 6 65.5t19 73.5q21 59 56.5 87t93.5 28q56 0 85 -28t29 -77zM535 103q0 -24 9 -33.5t28 -9.5q26 0 44 21.5t29 84.5q9 48 9 72t-9 33.5t-28 9.5q-26 0 -44 -21.5t-29 -84.5q-9 -48 -9 -72z
M739 245q0 -28 -6 -65.5t-19 -73.5q-21 -59 -56.5 -87t-93.5 -28q-56 0 -85 28t-29 77q0 28 6 65.5t19 73.5q21 59 56.5 87t93.5 28q56 0 85 -28t29 -77zM853 103q0 -24 9 -33.5t28 -9.5q26 0 44 21.5t29 84.5q9 48 9 72t-9 33.5t-28 9.5q-26 0 -44 -21.5t-29 -84.5
q-9 -48 -9 -72zM1057 245q0 -28 -6 -65.5t-19 -73.5q-21 -59 -56.5 -87t-93.5 -28q-56 0 -85 28t-29 77q0 28 6 65.5t19 73.5q21 59 56.5 87t93.5 28q56 0 85 -28t29 -77z" />
    <glyph glyph-name="plus" unicode="+" 
d="M303 303h154q16 0 16 -11q0 -4 -1 -12t-3 -17l-4 -24q-2 -14 -8.5 -18.5t-20.5 -4.5h-150l-30 -155q-3 -14 -9.5 -18t-21.5 -4h-41q-20 0 -20 12q0 3 0.5 7.5t3.5 19.5l27 138h-154q-16 0 -16 11q0 4 1 12t3 17l4 24q2 14 8.5 18.5t20.5 4.5h150l30 155q3 14 9.5 18
t21.5 4h41q20 0 20 -12q0 -3 -0.5 -7.5t-3.5 -19.5z" />
    <glyph glyph-name="minus" unicode="&#x2212;" 
d="M45 216q-14 0 -17.5 4.5t-1.5 18.5l7 41q4 23 29 23h391q14 0 17.5 -5t1.5 -18l-7 -41q-3 -16 -9 -19.5t-20 -3.5h-391z" />
    <glyph glyph-name="multiply" unicode="&#xd7;" 
d="M399 147q6 -8 6 -14q0 -8 -15 -20l-26 -21q-8 -6 -12.5 -9.5t-9.5 -3.5q-8 0 -14 9l-85 107l-129 -109q-11 -10 -19 -10q-7 0 -14 9l-26 34q-6 6 -6 13q0 9 14 20l127 107l-88 110q-6 7 -6 14q0 8 15 20l26 21q8 6 12.5 9.5t9.5 3.5q8 0 14 -9l87 -110l132 110
q11 10 19 10q6 0 14 -9l21 -26q12 -13 12 -20t-15 -19l-131 -111z" />
    <glyph glyph-name="less" unicode="&#x3c;" 
d="M66 227q-11 6 -11 13q0 5 3 20l2 12q2 9 5.5 14t13.5 10l360 175q8 4 12 5t7 1q5 0 7.5 -3t6.5 -10l12 -25q7 -14 7 -22t-5 -12t-14 -9l-282 -140l220 -136q13 -8 13 -16t-16 -28l-14 -18q-10 -13 -18 -13q-7 0 -17 6z" />
    <glyph glyph-name="divide" unicode="&#xf7;" 
d="M45 216q-14 0 -17.5 4.5t-1.5 18.5l7 41q2 13 8 18t21 5h391q14 0 17.5 -5t1.5 -18l-7 -41q-2 -14 -8.5 -18.5t-20.5 -4.5h-391zM266 375q-48 0 -48 36q0 5 0.5 10.5t1.5 10.5l3 16q5 29 21.5 40.5t45.5 11.5h6q48 0 48 -36q0 -5 -0.5 -10.5t-1.5 -10.5l-3 -16
q-5 -29 -21.5 -40.5t-45.5 -11.5h-6zM197 19q-48 0 -48 36q0 5 0.5 10.5t1.5 10.5l3 16q5 29 21.5 40.5t45.5 11.5h6q48 0 48 -36q0 -5 -0.5 -10.5t-1.5 -10.5l-3 -16q-5 -29 -21.5 -40.5t-45.5 -11.5h-6z" />
    <glyph glyph-name="equal" unicode="=" 
d="M68 319q-20 0 -20 13q0 8 4 28l4 23q4 23 29 23h391q20 0 20 -13q0 -8 -4 -28l-4 -23q-4 -23 -29 -23h-391zM27 113q-20 0 -20 13q0 8 4 28l4 23q4 23 29 23h391q20 0 20 -13q0 -8 -4 -28l-4 -23q-4 -23 -29 -23h-391z" />
    <glyph glyph-name="logicalnot" unicode="&#xac;" 
d="M366 216h-323q-20 0 -20 14q0 4 2 14l7 36q3 14 8.5 18.5t19.5 4.5h392q20 0 20 -14q0 -4 -2 -14l-42 -213q-2 -13 -7.5 -17.5t-19.5 -4.5h-46q-20 0 -20 14q0 4 2 14z" />
    <glyph glyph-name="greater" unicode="&#x3e;" 
d="M441 295q11 -6 11 -13q0 -5 -3 -20l-2 -12q-2 -9 -5.5 -14t-13.5 -10l-360 -175q-8 -4 -12 -5t-7 -1q-5 0 -7.5 3t-6.5 10l-12 25q-7 14 -7 22t5 12t14 9l282 140l-220 136q-13 8 -13 16t16 28l14 18q6 8 9.5 10.5t8.5 2.5q6 0 17 -6z" />
    <glyph glyph-name="notequal" unicode="&#x2260;" 
d="M116 113h-89q-14 0 -17.5 4.5t-1.5 18.5l7 41q4 23 29 23h123l70 119h-169q-14 0 -17.5 4.5t-1.5 18.5l7 41q4 23 29 23h204l63 107q6 10 11 13.5t18 3.5h55q15 0 15 -9q0 -4 -2 -8l-4 -8l-59 -99h90q14 0 17.5 -5t1.5 -18l-7 -41q-3 -16 -9 -19.5t-20 -3.5h-124
l-70 -119h170q14 0 17.5 -5t1.5 -18l-7 -41q-3 -16 -9 -19.5t-20 -3.5h-204l-61 -103q-6 -10 -11.5 -13.5t-17.5 -3.5h-55q-15 0 -15 9q0 4 2 8l4 8z" />
    <glyph glyph-name="approxequal" unicode="&#x2248;" 
d="M356 382q15 0 37.5 13t47.5 40q7 8 10.5 10t6.5 2q4 0 14 -7l19 -14q10 -8 13.5 -11.5t3.5 -8.5t-6 -13.5t-12 -15.5q-39 -45 -76 -64t-76 -19q-23 0 -39 7t-35 20l-23 16q-15 11 -26.5 15.5t-27.5 4.5q-36 0 -85 -53q-7 -8 -10.5 -10t-6.5 -2q-4 0 -14 7l-19 14
q-10 8 -13.5 11.5t-3.5 8.5t6 13.5t12 15.5q39 45 76 64t76 19q26 0 42 -7.5t35 -21.5l23 -16q13 -9 24.5 -13.5t26.5 -4.5zM314 170q15 0 37.5 13t47.5 40q7 8 10.5 10t6.5 2q4 0 14 -7l19 -14q10 -8 13.5 -11.5t3.5 -8.5t-6 -13.5t-12 -15.5q-39 -45 -76 -64t-76 -19
q-23 0 -39 7t-35 20l-23 16q-15 11 -26.5 15.5t-27.5 4.5q-36 0 -85 -53q-7 -8 -10.5 -10t-6.5 -2q-4 0 -14 7l-19 14q-10 8 -13.5 11.5t-3.5 8.5t6 13.5t12 15.5q39 45 76 64t76 19q26 0 42 -7.5t35 -21.5l23 -16q13 -9 24.5 -13.5t26.5 -4.5z" />
    <glyph glyph-name="plusminus" unicode="&#xb1;" 
d="M1 0q-18 0 -18 12q0 7 4 30l4 22q2 14 8.5 18.5t20.5 4.5h393q18 0 18 -12q0 -7 -4 -30l-4 -22q-2 -14 -8.5 -18.5t-20.5 -4.5h-393zM325 423h154q16 0 16 -11q0 -5 -1 -11.5t-3 -16.5l-4 -25q-2 -14 -8.5 -18.5t-20.5 -4.5h-150l-29 -145q-3 -14 -9.5 -18t-21.5 -4h-41
q-20 0 -20 13q0 5 1 11.5t3 13.5l26 129h-154q-16 0 -16 11q0 5 1 11.5t3 16.5l4 25q2 14 8.5 18.5t20.5 4.5h150l29 145q3 14 9.5 18t21.5 4h41q20 0 20 -13q0 -5 -1 -11.5t-3 -13.5z" />
    <glyph glyph-name="lessequal" unicode="&#x2264;" 
d="M76 348q-11 7 -11 16q0 4 3 18l2 11q2 9 5.5 14t13.5 10l360 161q8 4 12 5t7 1q10 0 14 -13l9 -24q7 -19 7 -25q0 -13 -19 -21l-277 -124l219 -126q13 -8 13 -16t-16 -28l-15 -20q-10 -13 -18 -13q-7 0 -17 6zM5 0q-18 0 -18 12q0 7 4 30l4 22q2 14 8.5 18.5t20.5 4.5
h393q18 0 18 -12q0 -7 -4 -30l-4 -22q-2 -14 -8.5 -18.5t-20.5 -4.5h-393z" />
    <glyph glyph-name="greaterequal" unicode="&#x2265;" 
d="M-3 0q-18 0 -18 12q0 7 4 30l4 22q2 14 8.5 18.5t20.5 4.5h393q18 0 18 -12q0 -7 -4 -30l-4 -22q-2 -14 -8.5 -18.5t-20.5 -4.5h-393zM470 410q11 -7 11 -16q0 -5 -3 -18l-2 -11q-2 -9 -5.5 -14t-13.5 -10l-360 -161q-8 -4 -12 -5t-7 -1q-10 0 -14 13l-9 24q-7 19 -7 25
q0 13 19 21l277 124l-219 126q-13 8 -13 16t16 28l15 20q6 8 9.5 10.5t8.5 2.5q6 0 17 -6z" />
    <glyph glyph-name="asciicircum" unicode="^" 
d="M304 496h-6l-167 -186q-11 -14 -21 -14q-8 0 -18 9l-23 20q-8 8 -10.5 11.5t-2.5 7.5q0 6 9 16l185 220q11 11 16.5 13.5t21.5 2.5h44q15 0 21 -3t11 -13l113 -232q4 -8 4 -14q0 -5 -4 -9t-15 -10l-22 -12q-12 -7 -19 -7q-10 0 -16 13z" />
    <glyph glyph-name="asciitilde" unicode="~" 
d="M347 332q20 0 39 12.5t45 40.5q7 8 10.5 10t6.5 2q4 0 14 -7l19 -14q10 -8 13.5 -11.5t3.5 -8.5t-6 -13.5t-12 -15.5q-39 -45 -76 -64t-66 -19q-26 0 -44.5 6t-38.5 19l-22 15q-16 11 -28 17t-28 6q-36 0 -87 -55q-9 -10 -14 -10t-15 7l-19 14q-10 8 -13.5 11.5t-3.5 8.5
t6 13.5t12 15.5q39 45 74.5 64t75.5 19q22 0 39 -6.5t34 -17.5l23 -16q14 -10 27 -16.5t31 -6.5z" />
    <glyph glyph-name="lozenge" unicode="&#x25ca;" horiz-adv-x="532" 
d="M315 548h-1l-180 -231l82 -218h1l179 233zM251 10q-9 -11 -16.5 -15t-21.5 -4h-25q-19 0 -27 19l-111 280l-4 12t-2 12q0 12 4.5 23t15.5 25l219 281q9 11 16 15.5t18 4.5h26q13 0 18.5 -4.5t10.5 -15.5l111 -281q5 -13 5 -23q0 -15 -4.5 -26.5t-15.5 -25.5z" />
    <glyph glyph-name="degree" unicode="&#xb0;" horiz-adv-x="345" 
d="M201 542q26 0 45 18.5t19 50.5q0 20 -11.5 34t-32.5 14q-26 0 -45 -18.5t-19 -50.5q0 -20 11.5 -34t32.5 -14zM188 466q-50 0 -82 30.5t-32 79.5q0 32 11.5 61t32.5 50.5t50.5 34.5t65.5 13q50 0 82 -30.5t32 -79.5q0 -32 -11.5 -61t-32.5 -50.5t-50.5 -34.5t-65.5 -13z
" />
    <glyph glyph-name="quotesingle" unicode="'" horiz-adv-x="190" 
d="M85 444q-15 0 -12 18l32 220q3 21 21 21h67q19 0 15 -20l-53 -222q-4 -17 -19 -17h-51z" />
    <glyph glyph-name="quotedbl" unicode="&#x22;" horiz-adv-x="373" 
d="M85 444q-15 0 -12 18l32 220q3 21 21 21h67q19 0 15 -20l-53 -222q-4 -17 -19 -17h-51zM268 444q-15 0 -12 18l32 220q3 21 21 21h67q19 0 15 -20l-53 -222q-4 -17 -19 -17h-51z" />
    <glyph glyph-name="radical" unicode="&#x221a;" horiz-adv-x="596" 
d="M66 479q2 8 6.5 12t15.5 4h121q21 0 22 -19q11 -102 18.5 -192.5t15.5 -181.5h4q19 35 40.5 77t45 86.5t46.5 89.5t45 87q50 98 103 199q5 8 9.5 11.5t14.5 3.5h69q12 0 12 -8q0 -2 -2 -7t-12 -23l-320 -597q-7 -12 -14 -16.5t-20 -4.5h-77q-14 0 -18.5 5.5t-6.5 15.5
q-6 45 -12.5 95.5t-13 101.5t-12.5 101t-12 95h-65q-12 0 -12 9q0 4 3 21z" />
    <glyph glyph-name="currency" unicode="&#xa4;" horiz-adv-x="534" 
d="M165 267q0 -34 22 -54.5t59 -20.5q25 0 46 9.5t37 26t25 38t9 46.5q0 34 -22 54.5t-59 20.5q-25 0 -46.5 -9.5t-37 -26t-24.5 -38t-9 -46.5zM91 196q-11 27 -11 59q0 36 12 69t34 61l-42 50q-8 10 -8 15q0 4 2.5 8.5t13.5 12.5l33 26q8 7 14 7q5 0 12 -7l45 -55
q47 25 102 25q53 0 89 -25l65 54q8 7 14 7t11 -7l26 -31q8 -9 8 -15t-10 -15l-64 -53q11 -27 11 -59q0 -36 -12 -69t-34 -61l42 -50q8 -10 8 -15q0 -4 -2.5 -8.5t-13.5 -12.5l-33 -26q-8 -7 -14 -7t-12 7l-45 55q-47 -25 -102 -25q-53 0 -89 25l-65 -54q-8 -7 -14 -7t-11 7
l-26 31q-8 9 -8 15t10 15z" />
    <glyph glyph-name="infinity" unicode="&#x221e;" horiz-adv-x="831" 
d="M400 252q-101 -104 -210 -104q-31 0 -57.5 9t-45.5 27t-30 44t-11 59q0 43 15 80t42 64t65 42t85 15q59 0 99 -27.5t76 -83.5q51 54 102.5 82.5t108.5 28.5q69 0 107.5 -35.5t38.5 -101.5q0 -45 -16 -82.5t-44 -64t-67 -41.5t-84 -15q-56 0 -96.5 24t-77.5 80zM470 312
q24 -42 50 -63t61 -21q41 0 70.5 28.5t33.5 75.5q3 37 -15.5 55.5t-53.5 18.5q-36 0 -70 -24.5t-76 -69.5zM356 312q-23 43 -48 68.5t-61 25.5q-44 0 -74 -29.5t-30 -79.5q0 -33 18.5 -51t50.5 -18q35 0 69.5 21t74.5 63z" />
    <glyph glyph-name="mu" unicode="&#xb5;" horiz-adv-x="557" 
d="M102 472q2 10 6.5 14t15.5 4h53q18 0 18 -11q0 -5 -2.5 -18t-6.5 -32l-46 -239q-4 -20 -6 -34t-2 -25q0 -27 15.5 -44t61.5 -17q60 0 86 28t36 78l57 296q3 18 22 18h53q18 0 18 -11q0 -5 -2.5 -18t-6.5 -32l-58 -306q-2 -8 -3 -16t-1 -16q0 -23 26 -23q14 0 26 3
q8 2 12 2q8 0 9 -13l2 -17q1 -7 1.5 -13.5t0.5 -9.5q0 -9 -11 -14q-11 -6 -32 -10.5t-41 -4.5q-37 0 -55.5 13t-25.5 39h-2q-46 -52 -119 -52q-35 0 -58 8.5t-36 22.5l-35 -181q-3 -18 -22 -18h-53q-18 0 -18 12q0 4 3 18t6 31z" />
    <glyph glyph-name="mu" unicode="&#x3bc;" horiz-adv-x="557" 
d="M102 472q2 10 6.5 14t15.5 4h53q18 0 18 -11q0 -5 -2.5 -18t-6.5 -32l-46 -239q-4 -20 -6 -34t-2 -25q0 -27 15.5 -44t61.5 -17q60 0 86 28t36 78l57 296q3 18 22 18h53q18 0 18 -11q0 -5 -2.5 -18t-6.5 -32l-58 -306q-2 -8 -3 -16t-1 -16q0 -23 26 -23q14 0 26 3
q8 2 12 2q8 0 9 -13l2 -17q1 -7 1.5 -13.5t0.5 -9.5q0 -9 -11 -14q-11 -6 -32 -10.5t-41 -4.5q-37 0 -55.5 13t-25.5 39h-2q-46 -52 -119 -52q-35 0 -58 8.5t-36 22.5l-35 -181q-3 -18 -22 -18h-53q-18 0 -18 12q0 4 3 18t6 31z" />
    <glyph glyph-name="partialdiff" unicode="&#x2202;" horiz-adv-x="514" 
d="M177 646q31 11 68 17.5t72 6.5q78 0 122.5 -47.5t44.5 -141.5q0 -41 -7.5 -93t-17.5 -100q-15 -68 -36.5 -122.5t-52.5 -93.5t-72 -60t-95 -21q-84 0 -132.5 45.5t-48.5 135.5q0 59 20 109t55 83q57 54 150 54q35 0 71.5 -12t64.5 -30q5 25 7.5 52t2.5 47q0 60 -23 88.5
t-71 28.5q-17 0 -43.5 -4.5t-55.5 -12.5q-8 -2 -11 -2q-9 0 -12 10l-8 28q-3 10 -4 15t-1 7q0 9 13 13zM368 300q-20 16 -53 28.5t-69 12.5q-35 0 -60 -15t-41.5 -39t-24.5 -54t-8 -61q0 -51 24 -78t71 -27q63 0 100.5 60.5t60.5 172.5z" />
    <glyph glyph-name="summation" unicode="&#x2211;" horiz-adv-x="520" 
d="M98 546q-8 11 -10 17t0 18l9 48q2 11 8 14.5t17 3.5h404q12 0 14 -4t0 -13l-9 -46q-2 -11 -6.5 -14.5t-16.5 -3.5h-307l171 -232q10 -14 13.5 -20.5t3.5 -12.5q0 -11 -3 -24l-2 -11q-4 -19 -18 -31l-279 -252h311q15 0 15 -9q0 -7 -4 -26l-5 -26q-2 -11 -7 -14.5
t-17 -3.5h-414q-12 0 -16.5 3t-4.5 11q0 6 3 20l4 19q2 11 5 17.5t14 15.5l275 249q23 21 31 29t8 17q0 6 -4 13t-18 25z" />
    <glyph glyph-name="product" unicode="&#x220f;" horiz-adv-x="617" 
d="M453 566h-181l-127 -646q-2 -9 -6.5 -12.5t-16.5 -3.5h-57q-17 0 -17 11q0 5 1 9.5t3 15.5l122 626h-84q-11 0 -11 8q0 3 1 9.5t3 15.5l5 29q2 12 7 15.5t16 3.5h538q11 0 11 -8q0 -3 -1 -9.5t-3 -15.5l-5 -29q-2 -12 -7 -15.5t-16 -3.5h-77l-127 -646q-2 -9 -6.5 -12.5
t-16.5 -3.5h-57q-17 0 -17 11q0 5 1 9.5t3 15.5z" />
    <glyph glyph-name="pi" unicode="&#x3c0;" horiz-adv-x="604" 
d="M588 490q15 0 15 -10q0 -2 -1 -7.5t-3 -15.5l-6 -29q-3 -13 -7.5 -16.5t-17.5 -3.5h-80l-51 -267q-6 -30 -6 -47q0 -11 6 -19t22 -8q11 0 19.5 1t14.5 3t10 2q6 0 6 -9l2 -22q1 -10 1.5 -16t0.5 -11q0 -8 -11 -12q-15 -5 -37 -8.5t-43 -3.5q-45 0 -68 21t-23 60
q0 13 2.5 28.5t5.5 32.5l53 275h-148l-75 -387q-2 -14 -7.5 -17.5t-19.5 -3.5h-49q-14 0 -17.5 4.5t-1.5 16.5l74 387h-78q-15 0 -15 10q0 2 1 7.5t3 15.5l6 29q3 13 7.5 16.5t17.5 3.5h498z" />
    <glyph glyph-name="integral" unicode="&#x222b;" horiz-adv-x="362" 
d="M39 -105q-23 0 -44 3t-34 8q-10 4 -10 11q0 2 1 5.5t4 13.5l9 29q4 12 12 12q3 0 6 -0.5t7 -1.5q9 -2 19.5 -3t19.5 -1q47 0 66.5 30t23.5 98q4 79 7.5 167t7.5 169q2 58 13 100t33 69t55.5 39.5t80.5 12.5q23 0 44 -3t34 -8q10 -4 10 -11q0 -2 -1 -5.5t-4 -13.5l-9 -29
q-4 -12 -12 -12q-3 0 -6 0.5t-7 1.5q-9 2 -19.5 3t-19.5 1q-29 0 -47 -8t-28.5 -25t-15 -45t-5.5 -67q-3 -82 -7 -167t-9 -164q-3 -52 -13 -91t-29.5 -65.5t-52 -39.5t-80.5 -13z" />
    <glyph glyph-name="Omega" unicode="&#x3a9;" horiz-adv-x="618" 
d="M511 79q11 0 11 -8q0 -3 -1 -10.5t-3 -15.5l-5 -29q-2 -9 -5 -12.5t-13 -3.5h-199q-11 0 -11 8q0 2 0.5 8t2.5 12l5 26q2 11 6.5 17.5t15.5 15.5q38 31 66 64.5t48 72.5q13 25 23 54.5t16.5 59.5t9.5 58.5t3 51.5q0 61 -29 93.5t-96 32.5q-63 0 -100.5 -27.5t-61.5 -82.5
q-20 -47 -31.5 -105.5t-11.5 -111.5q0 -26 3.5 -47.5t11.5 -40.5t20 -36.5t30 -35.5q6 -7 8.5 -10.5t2.5 -8.5q0 -4 -1 -9t-3 -18l-5 -26q-2 -9 -5.5 -12t-13.5 -3h-198q-11 0 -11 8q0 3 1 10.5t3 15.5l5 29q2 9 5 12.5t13 3.5h102v3q-31 31 -48.5 76.5t-17.5 101.5
q0 27 4 59t11.5 64.5t17 62.5t20.5 54q70 156 255 156q107 0 162.5 -49t55.5 -155q0 -55 -12 -108t-34 -101t-53 -89.5t-68 -71.5v-3h99z" />
    <glyph glyph-name="Omega" unicode="&#x2126;" horiz-adv-x="618" 
d="M511 79q11 0 11 -8q0 -3 -1 -10.5t-3 -15.5l-5 -29q-2 -9 -5 -12.5t-13 -3.5h-199q-11 0 -11 8q0 2 0.5 8t2.5 12l5 26q2 11 6.5 17.5t15.5 15.5q38 31 66 64.5t48 72.5q13 25 23 54.5t16.5 59.5t9.5 58.5t3 51.5q0 61 -29 93.5t-96 32.5q-63 0 -100.5 -27.5t-61.5 -82.5
q-20 -47 -31.5 -105.5t-11.5 -111.5q0 -26 3.5 -47.5t11.5 -40.5t20 -36.5t30 -35.5q6 -7 8.5 -10.5t2.5 -8.5q0 -4 -1 -9t-3 -18l-5 -26q-2 -9 -5.5 -12t-13.5 -3h-198q-11 0 -11 8q0 3 1 10.5t3 15.5l5 29q2 9 5 12.5t13 3.5h102v3q-31 31 -48.5 76.5t-17.5 101.5
q0 27 4 59t11.5 64.5t17 62.5t20.5 54q70 156 255 156q107 0 162.5 -49t55.5 -155q0 -55 -12 -108t-34 -101t-53 -89.5t-68 -71.5v-3h99z" />
    <glyph glyph-name="Delta" unicode="&#x394;" horiz-adv-x="583" 
d="M401 82q-7 54 -14.5 112t-15.5 116t-16 112.5t-17 102.5h-7q-27 -47 -57.5 -102.5t-61.5 -114.5t-61 -117t-55 -109h305zM1 0q-25 0 -25 16q0 4 1 10t3 12l3 12q5 18 12.5 36t25.5 52q35 65 71 130.5t71 128t68 120.5t62 108q8 12 14 17t22 5h56q13 0 18.5 -4t8.5 -18
q29 -145 48.5 -267t36.5 -229q4 -23 5.5 -35t1.5 -20q0 -11 -3 -26l-5 -24q-3 -13 -9 -18.5t-23 -5.5h-463z" />
    <glyph glyph-name="Delta" unicode="&#x2206;" horiz-adv-x="583" 
d="M401 82q-7 54 -14.5 112t-15.5 116t-16 112.5t-17 102.5h-7q-27 -47 -57.5 -102.5t-61.5 -114.5t-61 -117t-55 -109h305zM1 0q-25 0 -25 16q0 4 1 10t3 12l3 12q5 18 12.5 36t25.5 52q35 65 71 130.5t71 128t68 120.5t62 108q8 12 14 17t22 5h56q13 0 18.5 -4t8.5 -18
q29 -145 48.5 -267t36.5 -229q4 -23 5.5 -35t1.5 -20q0 -11 -3 -26l-5 -24q-3 -13 -9 -18.5t-23 -5.5h-463z" />
    <glyph glyph-name="litre" unicode="&#x2113;" horiz-adv-x="465" 
d="M208 303q72 48 112.5 104.5t40.5 113.5q0 29 -13 42t-33 13q-17 0 -29.5 -9t-21.5 -24.5t-15.5 -37t-10.5 -45.5zM182 168q-4 -20 -5.5 -33.5t-1.5 -24.5q0 -17 8 -29.5t30 -12.5q46 0 110 52q7 7 14 7t12 -8l17 -22q5 -6 5 -13q0 -6 -8 -14q-36 -33 -81 -56t-98 -23
q-55 0 -79 30t-24 72q0 15 2.5 33t4.5 30l2 10q-11 -6 -24 -12t-24 -11q-2 -1 -4 -1.5t-5 -0.5q-7 0 -12 11l-10 26q-2 5 -3 9t-1 6q0 5 3 7.5t8 5.5q21 11 44.5 22t44.5 22l39 208q18 93 57 144.5t117 51.5q58 0 94.5 -32t36.5 -101q0 -89 -66 -164.5t-195 -148.5z" />
    <glyph glyph-name="estimated" unicode="&#x212e;" horiz-adv-x="820" 
d="M181 316q-5 0 -5 -5v-182q0 -10 9 -21q42 -45 100.5 -71t126.5 -26q72 0 133.5 29.5t103.5 79.5h54q-51 -58 -126.5 -93.5t-165.5 -35.5q-77 0 -144.5 26t-117.5 71t-79.5 105.5t-29.5 129.5t29.5 130t79.5 106t117.5 71t144.5 26q76 0 143 -26t117.5 -71t79.5 -106
t29 -130v-7h-599zM644 521q0 12 -10 22q-42 43 -99 68t-123 25q-68 0 -126 -25.5t-100 -70.5q-10 -8 -10 -23v-179q0 -5 5 -5h458q5 0 5 5v183z" />
    <glyph glyph-name="numero" unicode="&#x2116;" horiz-adv-x="936" 
d="M825 64q10 0 10 -7q0 -5 -3 -20l-4 -23q-2 -9 -5.5 -11.5t-12.5 -2.5h-217q-10 0 -10 7q0 5 3 20l4 23q2 9 5.5 11.5t12.5 2.5h217zM766 427q116 0 116 -103q0 -22 -5 -50.5t-12 -55.5q-15 -58 -48 -81t-87 -23q-116 0 -116 103q0 22 5 50.5t12 55.5q15 58 48.5 81
t86.5 23zM763 368q-25 0 -39 -12t-22 -39q-7 -22 -12 -49.5t-5 -45.5q0 -27 12.5 -38t35.5 -11q25 0 39 12t22 39q7 22 12 49.5t5 45.5q0 27 -12.5 38t-35.5 11zM495 20q-2 -12 -8.5 -16t-19.5 -4h-62q-16 0 -23.5 4t-10.5 14l-166 495h-5l-97 -494q-2 -11 -7 -15t-17 -4
h-53q-15 0 -15 12q0 6 2.5 17t5.5 27l112 571q2 13 8.5 16.5t22.5 3.5h63q15 0 21.5 -4.5t10.5 -16.5l164 -495h5l97 497q2 11 7 15t17 4h51q17 0 17 -10q0 -6 -2 -14.5t-4 -21.5z" />
    <glyph glyph-name="fraction" unicode="&#x2044;" horiz-adv-x="172" 
d="M273 640q8 10 14.5 13t18.5 3h49q15 0 15 -10q0 -5 -6 -14l-465 -625q-8 -10 -14.5 -13t-18.5 -3h-49q-15 0 -15 10q0 5 6 14z" />
    <glyph glyph-name="onesuperior" unicode="&#xb9;" horiz-adv-x="367" 
d="M321 505q13 0 13 -8q0 -4 -3 -23l-4 -22q-2 -9 -5.5 -12t-14.5 -3h-208q-13 0 -13 8q0 3 0.5 8t2.5 15l4 22q2 9 5.5 12t14.5 3h63l40 211h-4l-65 -37q-5 -3 -8 -3q-5 0 -11 9l-12 21q-5 9 -6.5 12.5t-1.5 5.5q0 5 10 11l91 52q12 7 19.5 9t22.5 2h42q16 0 16 -10
q0 -6 -1 -12t-3 -15l-50 -256h66z" />
    <glyph glyph-name="twosuperior" unicode="&#xb2;" horiz-adv-x="367" 
d="M318 505q15 0 15 -9q0 -5 -3 -18l-6 -28q-2 -8 -5.5 -10.5t-13.5 -2.5h-204q-18 0 -18 13q0 8 3 23l3 16q5 31 14 52.5t23.5 37.5t35 27.5t49.5 22.5l39 14q26 10 36.5 22t10.5 32q0 39 -51 39q-19 0 -37.5 -3.5t-36.5 -9.5q-11 -4 -14 -4q-8 0 -11 12l-5 17
q-3 9 -4 14.5t-1 7.5q0 9 15 15q26 10 53.5 14.5t53.5 4.5q52 0 85.5 -23t33.5 -73q0 -52 -22 -77.5t-72 -43.5l-47 -17q-34 -12 -48.5 -27t-18.5 -38h148z" />
    <glyph glyph-name="threesuperior" unicode="&#xb3;" horiz-adv-x="367" 
d="M106 507q5 11 11 11q3 0 11 -4q15 -6 35 -11t40 -5q25 0 45 13t20 44q0 33 -50 33h-32q-14 0 -11 15l7 37q2 8 4.5 10.5t11.5 2.5h17q80 0 80 52q0 15 -10 24t-37 9q-13 0 -31.5 -2.5t-34.5 -6.5q-8 -2 -13 -2q-6 0 -8 10l-4 19q-2 8 -3 13t-1 9q0 9 12 12q18 6 44 10
t50 4q52 0 83.5 -19.5t31.5 -63.5q0 -35 -15.5 -60.5t-47.5 -38.5v-3q38 -16 38 -62q0 -27 -8.5 -50t-25.5 -40t-43 -27t-60 -10q-30 0 -60.5 7t-49.5 16q-11 5 -11 12q0 3 2 9z" />
    <glyph glyph-name="onehalf" unicode="&#xbd;" horiz-adv-x="837" 
d="M618 640q8 10 14.5 13t18.5 3h49q15 0 15 -10q0 -5 -6 -14l-465 -625q-8 -10 -14.5 -13t-18.5 -3h-49q-15 0 -15 10q0 5 6 14zM286 353q13 0 13 -8q0 -4 -3 -23l-4 -22q-2 -9 -5.5 -12t-14.5 -3h-208q-13 0 -13 8q0 3 0.5 8t2.5 15l4 22q2 9 5.5 12t14.5 3h63l40 211h-4
l-65 -37q-5 -3 -8 -3q-5 0 -11 9l-12 21q-5 9 -6.5 12.5t-1.5 5.5q0 5 10 11l91 52q12 7 19.5 9t22.5 2h42q16 0 16 -10q0 -6 -1 -12t-3 -15l-50 -256h66zM727 68q15 0 15 -9q0 -5 -3 -18l-6 -28q-2 -8 -5.5 -10.5t-13.5 -2.5h-204q-18 0 -18 13q0 8 3 23l3 16q5 31 14 52.5
t23.5 37.5t35 27.5t49.5 22.5l39 14q26 10 36.5 22t10.5 32q0 39 -51 39q-19 0 -37.5 -3.5t-36.5 -9.5q-11 -4 -14 -4q-8 0 -11 12l-5 17q-3 9 -4 14.5t-1 7.5q0 9 15 15q26 10 53.5 14.5t53.5 4.5q52 0 85.5 -23t33.5 -73q0 -52 -22 -77.5t-72 -43.5l-47 -17
q-34 -12 -48.5 -27t-18.5 -38h148z" />
    <glyph glyph-name="onequarter" unicode="&#xbc;" horiz-adv-x="837" 
d="M473 83q-11 0 -11 8q0 6 2 16l2 10q3 14 6.5 20t12.5 17l152 182q12 14 21.5 18.5t26.5 4.5h53q13 0 16.5 -4.5t0.5 -18.5l-37 -190h36q9 0 9 -6t-3 -21l-4 -19q-2 -11 -5.5 -14t-11.5 -3h-33l-13 -69q-2 -9 -6 -11.5t-12 -2.5h-51q-11 0 -11 8q0 3 1.5 9t3.5 17l9 49
h-154zM666 284l-114 -138h87zM630 640q8 10 14.5 13t18.5 3h49q15 0 15 -10q0 -5 -6 -14l-465 -625q-8 -10 -14.5 -13t-18.5 -3h-49q-15 0 -15 10q0 5 6 14zM298 353q13 0 13 -8q0 -4 -3 -23l-4 -22q-2 -9 -5.5 -12t-14.5 -3h-208q-13 0 -13 8q0 3 0.5 8t2.5 15l4 22
q2 9 5.5 12t14.5 3h63l40 211h-4l-65 -37q-5 -3 -8 -3q-5 0 -11 9l-12 21q-5 9 -6.5 12.5t-1.5 5.5q0 5 10 11l91 52q12 7 19.5 9t22.5 2h42q16 0 16 -10q0 -6 -1 -12t-3 -15l-50 -256h66z" />
    <glyph glyph-name="threequarters" unicode="&#xbe;" horiz-adv-x="837" 
d="M463 83q-11 0 -11 8q0 6 2 16l2 10q3 14 6.5 20t12.5 17l152 182q12 14 21.5 18.5t26.5 4.5h53q13 0 16.5 -4.5t0.5 -18.5l-37 -190h36q9 0 9 -6t-3 -21l-4 -19q-2 -11 -5.5 -14t-11.5 -3h-33l-13 -69q-2 -9 -6 -11.5t-12 -2.5h-51q-11 0 -11 8q0 3 1.5 9t3.5 17l9 49
h-154zM656 284l-114 -138h87zM620 640q8 10 14.5 13t18.5 3h49q15 0 15 -10q0 -5 -6 -14l-465 -625q-8 -10 -14.5 -13t-18.5 -3h-49q-15 0 -15 10q0 5 6 14zM72 355q5 11 11 11q3 0 11 -4q15 -6 35 -11t40 -5q25 0 45 13t20 44q0 33 -50 33h-32q-14 0 -11 15l7 37
q2 8 4.5 10.5t11.5 2.5h17q80 0 80 52q0 15 -10 24t-37 9q-13 0 -31.5 -2.5t-34.5 -6.5q-8 -2 -13 -2q-6 0 -8 10l-4 19q-2 8 -3 13t-1 9q0 9 12 12q18 6 44 10t50 4q52 0 83.5 -19.5t31.5 -63.5q0 -35 -15.5 -60.5t-47.5 -38.5v-3q38 -16 38 -62q0 -27 -8.5 -50t-25.5 -40
t-43 -27t-60 -10q-30 0 -60.5 7t-49.5 16q-11 5 -11 12q0 3 2 9z" />
    <glyph glyph-name="grave" unicode="`" horiz-adv-x="339" 
d="M324 629q11 -5 11 -11q0 -4 -2 -8.5t-5 -11.5l-10 -21q-5 -10 -12 -10q-6 0 -13 3l-192 71q-13 4 -13 14q0 7 8 26l11 26q5 11 8 14t8 3t21 -8z" />
    <glyph glyph-name="acute" unicode="&#xb4;" horiz-adv-x="339" 
d="M302 716q16 8 21 8t8 -3t8 -14l11 -26q8 -19 8 -26q0 -10 -13 -14l-192 -71q-8 -3 -13 -3q-7 0 -12 10l-10 21q-3 7 -5 11.5t-2 8.5q0 6 11 11z" />
    <glyph glyph-name="dieresis" unicode="&#xa8;" horiz-adv-x="355" 
d="M170 697q20 0 31.5 -9t11.5 -27q0 -5 -1 -12.5t-4 -21.5q-5 -22 -20 -32t-38 -10h-8q-20 0 -31 8.5t-11 25.5q0 5 0.5 12.5t4.5 24.5q5 21 20 31t37 10h8zM333 697q20 0 31.5 -9t11.5 -27q0 -5 -1 -12.5t-4 -21.5q-5 -22 -20 -32t-38 -10h-8q-20 0 -31 8.5t-11 25.5
q0 5 0.5 12.5t4.5 24.5q5 21 20 31t37 10h8z" />
    <glyph glyph-name="circumflex" unicode="&#x2c6;" horiz-adv-x="373" 
d="M277 728q7 0 11 -1.5t9 -7.5l80 -114q8 -11 8 -17t-10 -13l-17 -11q-12 -8 -18 -8q-7 0 -15 9l-72 84h-4l-98 -82q-6 -5 -12 -9t-11 -4q-6 0 -10 2.5t-10 7.5l-13 12q-10 9 -10 15q0 5 4 9.5t10 10.5l113 108q6 5 10.5 7t12.5 2h42z" />
    <glyph glyph-name="tilde" unicode="&#x2dc;" horiz-adv-x="388" 
d="M91 593q-5 4 -6.5 6.5t-1.5 5.5q0 4 5 12q26 44 56 62.5t62 18.5q31 0 60 -23l18 -15q9 -8 16.5 -11.5t18.5 -3.5q16 0 29 12t29 32q4 6 11 6q4 0 12 -6l20 -16q7 -6 7 -11q0 -4 -5 -11q-54 -79 -115 -79q-19 0 -34.5 6t-28.5 17l-18 15q-15 14 -33 14q-28 0 -58 -42
q-6 -8 -12 -8t-17 8z" />
    <glyph glyph-name="macron" unicode="&#xaf;" horiz-adv-x="354" 
d="M354 670q14 0 14 -10q0 -6 -4 -25l-5 -23q-2 -9 -6 -12t-16 -3h-223q-14 0 -14 10q0 6 4 25l5 23q2 9 6 12t16 3h223z" />
    <glyph glyph-name="breve" unicode="&#x2d8;" horiz-adv-x="373" 
d="M239 563q-51 0 -83.5 26t-47.5 70q-2 5 -3.5 11.5t-1.5 11.5q0 8 9 12l36 12q5 2 9 3t7 1q7 0 10 -11q10 -37 27.5 -53t45.5 -16q32 0 55 19.5t41 53.5q5 8 11 8q5 0 8.5 -1.5t13.5 -6.5l14 -7q10 -5 13 -8t3 -8t-7 -18q-28 -48 -65 -73.5t-95 -25.5z" />
    <glyph glyph-name="dotaccent" unicode="&#x2d9;" horiz-adv-x="287" 
d="M131 622q0 35 21.5 55.5t52.5 20.5q26 0 40.5 -16t14.5 -39q0 -36 -23 -54.5t-51 -18.5q-25 0 -40 15.5t-15 36.5z" />
    <glyph glyph-name="ring" unicode="&#x2da;" horiz-adv-x="318" 
d="M116 627q0 48 31.5 77t77.5 29q37 0 60 -21.5t23 -57.5q0 -48 -30 -78.5t-78 -30.5q-38 0 -61 22.5t-23 59.5zM207 601q20 0 32 12t12 32q0 14 -9 23t-25 9q-20 0 -32 -12t-12 -32q0 -14 9 -23t25 -9z" />
    <glyph glyph-name="cedilla" unicode="&#xb8;" horiz-adv-x="320" 
d="M85 -62q8 2 17 3t18 1q29 0 46.5 -16.5t17.5 -46.5q0 -57 -33.5 -85.5t-90.5 -28.5q-23 0 -48 4t-41 10q-9 4 -9 10q0 3 4 14l7 18q4 11 9 11q3 0 5 -0.5t5 -1.5q14 -5 31 -7.5t30 -2.5q31 0 44.5 11t13.5 34t-31 23q-10 0 -18.5 -1t-13.5 -2t-9 -1.5t-7 -0.5q-7 0 -11 7
l-4 7q-4 8 -4 12q0 3 1.5 7t6.5 15l27 60q5 10 16 10h39q8 0 8 -6q0 -3 -7 -18z" />
    <glyph glyph-name="hungarumlaut" unicode="&#x2dd;" horiz-adv-x="429" 
d="M253 733q11 8 17 8q8 0 15 -10l20 -30q8 -12 8 -18q0 -8 -12 -15l-168 -105q-11 -7 -17 -7q-7 0 -14 10l-11 15q-9 12 -9 18q0 8 8 15zM462 733q11 8 17 8q8 0 15 -10l20 -30q8 -12 8 -18q0 -8 -12 -15l-168 -105q-11 -7 -17 -7q-7 0 -14 10l-11 15q-9 12 -9 18q0 8 8 15
z" />
    <glyph glyph-name="ogonek" unicode="&#x2db;" horiz-adv-x="319" 
d="M149 5q7 0 7 -4q0 -3 -2.5 -5t-5.5 -4q-32 -22 -55.5 -48t-23.5 -56q0 -26 33 -26q11 0 22 2t19 4q3 1 7 2t8 1q6 0 7 -9l3 -17q1 -6 1.5 -10.5t0.5 -7.5q0 -7 -10 -11q-17 -7 -38.5 -11t-45.5 -4q-42 0 -64.5 15.5t-22.5 48.5q0 44 31.5 79.5t74.5 55.5q5 2 10.5 3.5
t13.5 1.5h30z" />
    <glyph glyph-name="caron" unicode="&#x2c7;" horiz-adv-x="373" 
d="M210 558q-14 0 -20 10l-76 109q-6 9 -8.5 12.5t-2.5 8.5t2.5 7.5t7.5 5.5l25 17q8 5 13 5t11 -7l75 -89h4l105 89q8 7 15 7t13 -8l16 -17q9 -10 9 -16q0 -5 -8 -13l-116 -111q-5 -5 -9.5 -7.5t-13.5 -2.5h-42z" />
    <glyph glyph-name="commaaccent" horiz-adv-x="304" 
d="M83 -66q18 0 30 -9t12 -32q0 -18 -5 -35.5t-17 -37.5q-14 -23 -33.5 -46.5t-42.5 -43.5q-7 -5 -11 -5q-5 0 -13 7l-11 9q-7 6 -7 10t7 11q6 6 15 15.5t16 17.5q11 14 15.5 20.5t4.5 9.5q0 6 -8 11l-4 3q-14 9 -14 28q0 9 2 19.5t4 15.5q13 32 52 32h8z" />
    <glyph glyph-name="grave.cap" horiz-adv-x="339" 
d="M334 762q12 -5 12 -11q0 -4 -2 -8.5t-5 -11.5l-9 -22q-5 -10 -12 -10q-6 0 -13 3l-194 64q-13 4 -13 14q0 9 7 26l10 27q5 11 8 14t8 3q4 0 8 -1.5t13 -5.5z" />
    <glyph glyph-name="acute.cap" horiz-adv-x="339" 
d="M331 843q9 4 13 5.5t8 1.5q5 0 8 -3t8 -14l10 -27q7 -17 7 -26q0 -10 -13 -14l-194 -64q-8 -3 -13 -3q-7 0 -12 10l-9 22q-3 7 -5 11.5t-2 8.5q0 6 12 11z" />
    <glyph glyph-name="dieresis.cap" horiz-adv-x="355" 
d="M189 835q20 0 31.5 -9t11.5 -27q0 -5 -1 -12.5t-4 -21.5q-5 -22 -20 -32t-38 -10h-8q-20 0 -31 8.5t-11 25.5q0 5 0.5 12.5t4.5 24.5q5 21 20 31t37 10h8zM352 835q20 0 31.5 -9t11.5 -27q0 -5 -1 -12.5t-4 -21.5q-5 -22 -20 -32t-38 -10h-8q-20 0 -31 8.5t-11 25.5
q0 5 0.5 12.5t4.5 24.5q5 21 20 31t37 10h8z" />
    <glyph glyph-name="circumflex.cap" horiz-adv-x="373" 
d="M308 859q7 0 11 -1.5t9 -7.5l80 -114q8 -11 8 -17t-10 -13l-17 -11q-12 -8 -18 -8q-7 0 -15 9l-72 84h-4l-98 -82q-6 -5 -12 -9t-11 -4q-6 0 -10 2.5t-10 7.5l-13 12q-10 9 -10 15q0 5 4 9.5t10 10.5l113 108q6 5 10.5 7t12.5 2h42z" />
    <glyph glyph-name="tilde.cap" horiz-adv-x="388" 
d="M114 730q-5 4 -6.5 6.5t-1.5 5.5q0 4 5 12q26 44 56 62.5t62 18.5q31 0 60 -23l18 -15q9 -8 16.5 -11.5t18.5 -3.5q16 0 29 12t29 32q4 6 11 6q4 0 12 -6l20 -16q7 -6 7 -11q0 -4 -5 -11q-54 -79 -115 -79q-19 0 -34.5 6t-28.5 17l-18 15q-15 14 -33 14q-28 0 -58 -42
q-6 -8 -12 -8t-17 8z" />
    <glyph glyph-name="macron.cap" horiz-adv-x="354" 
d="M377 803q14 0 14 -10q0 -6 -4 -25l-5 -23q-2 -9 -6 -12t-16 -3h-223q-14 0 -14 10q0 6 4 25l5 23q2 9 6 12t16 3h223z" />
    <glyph glyph-name="breve.cap" horiz-adv-x="373" 
d="M260 698q-51 0 -83.5 26t-47.5 70q-2 5 -3.5 11.5t-1.5 11.5q0 8 9 12l36 12q5 2 9 3t7 1q7 0 10 -11q10 -37 27.5 -53t45.5 -16q32 0 55 19.5t41 53.5q5 8 11 8q5 0 8.5 -1.5t13.5 -6.5l14 -7q10 -5 13 -8t3 -8t-7 -18q-28 -48 -65 -73.5t-95 -25.5z" />
    <glyph glyph-name="dotaccent.cap" horiz-adv-x="287" 
d="M163 765q0 35 21.5 55.5t52.5 20.5q26 0 40.5 -16t14.5 -39q0 -36 -23 -54.5t-51 -18.5q-25 0 -40 15.5t-15 36.5z" />
    <glyph glyph-name="ring.cap" horiz-adv-x="318" 
d="M143 771q0 48 31.5 77t77.5 29q37 0 60 -21.5t23 -57.5q0 -48 -30 -78.5t-78 -30.5q-38 0 -61 22.5t-23 59.5zM234 745q20 0 32 12t12 32q0 14 -9 23t-25 9q-20 0 -32 -12t-12 -32q0 -14 9 -23t25 -9z" />
    <glyph glyph-name="hungarumlaut.cap" horiz-adv-x="429" 
d="M296 865q11 8 17 8q8 0 15 -10l20 -30q8 -12 8 -18q0 -8 -12 -15l-168 -105q-11 -7 -17 -7q-7 0 -14 10l-11 15q-9 12 -9 18q0 8 8 15zM505 865q11 8 17 8q8 0 15 -10l20 -30q8 -12 8 -18q0 -8 -12 -15l-168 -105q-11 -7 -17 -7q-7 0 -14 10l-11 15q-9 12 -9 18q0 8 8 15
z" />
    <glyph glyph-name="caron.cap" horiz-adv-x="373" 
d="M231 702q-14 0 -20 10l-76 109q-6 9 -8.5 12.5t-2.5 8.5t2.5 7.5t7.5 5.5l25 17q8 5 13 5t11 -7l75 -89h4l105 89q8 7 15 7t13 -8l16 -17q9 -10 9 -16q0 -5 -8 -13l-116 -111q-5 -5 -9.5 -7.5t-13.5 -2.5h-42z" />
    <glyph glyph-name="Agrave" unicode="&#xc0;" horiz-adv-x="564" 
d="M363 647q23 0 31.5 -7t12.5 -27q11 -64 20.5 -134.5t18 -140.5t15 -134.5t11.5 -116.5q2 -23 3.5 -41t1.5 -29q0 -17 -21 -17h-52q-16 0 -22 4t-7 17q-2 38 -5 78t-6 78h-231q-18 -37 -37 -78.5t-35 -77.5q-6 -14 -13.5 -17.5t-24.5 -3.5h-43q-13 0 -17.5 3.5t-4.5 11.5
q0 7 5 17.5t13 27.5q32 67 70 144.5t77 154t75.5 145t65.5 117.5q9 16 19 21t28 5h52zM317 550q-34 -64 -70 -134.5t-76 -157.5h187q-2 33 -5 70t-7 74.5l-8 75t-8 72.5h-13zM420 762q12 -5 12 -11q0 -4 -2 -8.5t-5 -11.5l-9 -22q-5 -10 -12 -10q-6 0 -13 3l-194 64
q-13 4 -13 14q0 9 7 26l10 27q5 11 8 14t8 3q4 0 8 -1.5t13 -5.5z" />
    <glyph glyph-name="Aacute" unicode="&#xc1;" horiz-adv-x="564" 
d="M363 647q23 0 31.5 -7t12.5 -27q11 -64 20.5 -134.5t18 -140.5t15 -134.5t11.5 -116.5q2 -23 3.5 -41t1.5 -29q0 -17 -21 -17h-52q-16 0 -22 4t-7 17q-2 38 -5 78t-6 78h-231q-18 -37 -37 -78.5t-35 -77.5q-6 -14 -13.5 -17.5t-24.5 -3.5h-43q-13 0 -17.5 3.5t-4.5 11.5
q0 7 5 17.5t13 27.5q32 67 70 144.5t77 154t75.5 145t65.5 117.5q9 16 19 21t28 5h52zM317 550q-34 -64 -70 -134.5t-76 -157.5h187q-2 33 -5 70t-7 74.5l-8 75t-8 72.5h-13zM451 843q9 4 13 5.5t8 1.5q5 0 8 -3t8 -14l10 -27q7 -17 7 -26q0 -10 -13 -14l-194 -64
q-8 -3 -13 -3q-7 0 -12 10l-9 22q-3 7 -5 11.5t-2 8.5q0 6 12 11z" />
    <glyph glyph-name="Acircumflex" unicode="&#xc2;" horiz-adv-x="564" 
d="M363 647q23 0 31.5 -7t12.5 -27q11 -64 20.5 -134.5t18 -140.5t15 -134.5t11.5 -116.5q2 -23 3.5 -41t1.5 -29q0 -17 -21 -17h-52q-16 0 -22 4t-7 17q-2 38 -5 78t-6 78h-231q-18 -37 -37 -78.5t-35 -77.5q-6 -14 -13.5 -17.5t-24.5 -3.5h-43q-13 0 -17.5 3.5t-4.5 11.5
q0 7 5 17.5t13 27.5q32 67 70 144.5t77 154t75.5 145t65.5 117.5q9 16 19 21t28 5h52zM317 550q-34 -64 -70 -134.5t-76 -157.5h187q-2 33 -5 70t-7 74.5l-8 75t-8 72.5h-13zM383 859q7 0 11 -1.5t9 -7.5l80 -114q8 -11 8 -17t-10 -13l-17 -11q-12 -8 -18 -8q-7 0 -15 9
l-72 84h-4l-98 -82q-6 -5 -12 -9t-11 -4q-6 0 -10 2.5t-10 7.5l-13 12q-10 9 -10 15q0 5 4 9.5t10 10.5l113 108q6 5 10.5 7t12.5 2h42z" />
    <glyph glyph-name="Atilde" unicode="&#xc3;" horiz-adv-x="564" 
d="M363 647q23 0 31.5 -7t12.5 -27q11 -64 20.5 -134.5t18 -140.5t15 -134.5t11.5 -116.5q2 -23 3.5 -41t1.5 -29q0 -17 -21 -17h-52q-16 0 -22 4t-7 17q-2 38 -5 78t-6 78h-231q-18 -37 -37 -78.5t-35 -77.5q-6 -14 -13.5 -17.5t-24.5 -3.5h-43q-13 0 -17.5 3.5t-4.5 11.5
q0 7 5 17.5t13 27.5q32 67 70 144.5t77 154t75.5 145t65.5 117.5q9 16 19 21t28 5h52zM317 550q-34 -64 -70 -134.5t-76 -157.5h187q-2 33 -5 70t-7 74.5l-8 75t-8 72.5h-13zM197 730q-5 4 -6.5 6.5t-1.5 5.5q0 4 5 12q26 44 56 62.5t62 18.5q31 0 60 -23l18 -15
q9 -8 16.5 -11.5t18.5 -3.5q16 0 29 12t29 32q4 6 11 6q4 0 12 -6l20 -16q7 -6 7 -11q0 -4 -5 -11q-54 -79 -115 -79q-19 0 -34.5 6t-28.5 17l-18 15q-15 14 -33 14q-28 0 -58 -42q-6 -8 -12 -8t-17 8z" />
    <glyph glyph-name="Adieresis" unicode="&#xc4;" horiz-adv-x="564" 
d="M363 647q23 0 31.5 -7t12.5 -27q11 -64 20.5 -134.5t18 -140.5t15 -134.5t11.5 -116.5q2 -23 3.5 -41t1.5 -29q0 -17 -21 -17h-52q-16 0 -22 4t-7 17q-2 38 -5 78t-6 78h-231q-18 -37 -37 -78.5t-35 -77.5q-6 -14 -13.5 -17.5t-24.5 -3.5h-43q-13 0 -17.5 3.5t-4.5 11.5
q0 7 5 17.5t13 27.5q32 67 70 144.5t77 154t75.5 145t65.5 117.5q9 16 19 21t28 5h52zM317 550q-34 -64 -70 -134.5t-76 -157.5h187q-2 33 -5 70t-7 74.5l-8 75t-8 72.5h-13zM301 835q20 0 31.5 -9t11.5 -27q0 -5 -1 -12.5t-4 -21.5q-5 -22 -20 -32t-38 -10h-8
q-20 0 -31 8.5t-11 25.5q0 5 0.5 12.5t4.5 24.5q5 21 20 31t37 10h8zM464 835q20 0 31.5 -9t11.5 -27q0 -5 -1 -12.5t-4 -21.5q-5 -22 -20 -32t-38 -10h-8q-20 0 -31 8.5t-11 25.5q0 5 0.5 12.5t4.5 24.5q5 21 20 31t37 10h8z" />
    <glyph glyph-name="Amacron" unicode="&#x100;" horiz-adv-x="564" 
d="M363 647q23 0 31.5 -7t12.5 -27q11 -64 20.5 -134.5t18 -140.5t15 -134.5t11.5 -116.5q2 -23 3.5 -41t1.5 -29q0 -17 -21 -17h-52q-16 0 -22 4t-7 17q-2 38 -5 78t-6 78h-231q-18 -37 -37 -78.5t-35 -77.5q-6 -14 -13.5 -17.5t-24.5 -3.5h-43q-13 0 -17.5 3.5t-4.5 11.5
q0 7 5 17.5t13 27.5q32 67 70 144.5t77 154t75.5 145t65.5 117.5q9 16 19 21t28 5h52zM317 550q-34 -64 -70 -134.5t-76 -157.5h187q-2 33 -5 70t-7 74.5l-8 75t-8 72.5h-13zM485 803q14 0 14 -10q0 -6 -4 -25l-5 -23q-2 -9 -6 -12t-16 -3h-223q-14 0 -14 10q0 6 4 25l5 23
q2 9 6 12t16 3h223z" />
    <glyph glyph-name="Abreve" unicode="&#x102;" horiz-adv-x="564" 
d="M363 647q23 0 31.5 -7t12.5 -27q11 -64 20.5 -134.5t18 -140.5t15 -134.5t11.5 -116.5q2 -23 3.5 -41t1.5 -29q0 -17 -21 -17h-52q-16 0 -22 4t-7 17q-2 38 -5 78t-6 78h-231q-18 -37 -37 -78.5t-35 -77.5q-6 -14 -13.5 -17.5t-24.5 -3.5h-43q-13 0 -17.5 3.5t-4.5 11.5
q0 7 5 17.5t13 27.5q32 67 70 144.5t77 154t75.5 145t65.5 117.5q9 16 19 21t28 5h52zM317 550q-34 -64 -70 -134.5t-76 -157.5h187q-2 33 -5 70t-7 74.5l-8 75t-8 72.5h-13zM351 698q-51 0 -83.5 26t-47.5 70q-2 5 -3.5 11.5t-1.5 11.5q0 8 9 12l36 12q5 2 9 3t7 1
q7 0 10 -11q10 -37 27.5 -53t45.5 -16q32 0 55 19.5t41 53.5q5 8 11 8q5 0 8.5 -1.5t13.5 -6.5l14 -7q10 -5 13 -8t3 -8t-7 -18q-28 -48 -65 -73.5t-95 -25.5z" />
    <glyph glyph-name="Acaron" unicode="&#x1cd;" horiz-adv-x="564" 
d="M363 647q23 0 31.5 -7t12.5 -27q11 -64 20.5 -134.5t18 -140.5t15 -134.5t11.5 -116.5q2 -23 3.5 -41t1.5 -29q0 -17 -21 -17h-52q-16 0 -22 4t-7 17q-2 38 -5 78t-6 78h-231q-18 -37 -37 -78.5t-35 -77.5q-6 -14 -13.5 -17.5t-24.5 -3.5h-43q-13 0 -17.5 3.5t-4.5 11.5
q0 7 5 17.5t13 27.5q32 67 70 144.5t77 154t75.5 145t65.5 117.5q9 16 19 21t28 5h52zM317 550q-34 -64 -70 -134.5t-76 -157.5h187q-2 33 -5 70t-7 74.5l-8 75t-8 72.5h-13zM328 702q-14 0 -20 10l-76 109q-6 9 -8.5 12.5t-2.5 8.5t2.5 7.5t7.5 5.5l25 17q8 5 13 5t11 -7
l75 -89h4l105 89q8 7 15 7t13 -8l16 -17q9 -10 9 -16q0 -5 -8 -13l-116 -111q-5 -5 -9.5 -7.5t-13.5 -2.5h-42z" />
    <glyph glyph-name="Aring" unicode="&#xc5;" horiz-adv-x="564" 
d="M363 647q23 0 31.5 -7t12.5 -27q11 -64 20.5 -134.5t18 -140.5t15 -134.5t11.5 -116.5q2 -23 3.5 -41t1.5 -29q0 -17 -21 -17h-52q-16 0 -22 4t-7 17q-2 38 -5 78t-6 78h-231q-18 -37 -37 -78.5t-35 -77.5q-6 -14 -13.5 -17.5t-24.5 -3.5h-43q-13 0 -17.5 3.5t-4.5 11.5
q0 7 5 17.5t13 27.5q32 67 70 144.5t77 154t75.5 145t65.5 117.5q9 16 19 21t28 5h52zM317 550q-34 -64 -70 -134.5t-76 -157.5h187q-2 33 -5 70t-7 74.5l-8 75t-8 72.5h-13zM270 771q0 48 31.5 77t77.5 29q37 0 60 -21.5t23 -57.5q0 -48 -30 -78.5t-78 -30.5
q-38 0 -61 22.5t-23 59.5zM361 745q20 0 32 12t12 32q0 14 -9 23t-25 9q-20 0 -32 -12t-12 -32q0 -14 9 -23t25 -9z" />
    <glyph glyph-name="Aringacute" unicode="&#x1fa;" horiz-adv-x="564" 
d="M363 647q23 0 31.5 -7t12.5 -27q11 -64 20.5 -134.5t18 -140.5t15 -134.5t11.5 -116.5q2 -23 3.5 -41t1.5 -29q0 -17 -21 -17h-52q-16 0 -22 4t-7 17q-2 38 -5 78t-6 78h-231q-18 -37 -37 -78.5t-35 -77.5q-6 -14 -13.5 -17.5t-24.5 -3.5h-43q-13 0 -17.5 3.5t-4.5 11.5
q0 7 5 17.5t13 27.5q32 67 70 144.5t77 154t75.5 145t65.5 117.5q9 16 19 21t28 5h52zM317 550q-34 -64 -70 -134.5t-76 -157.5h187q-2 33 -5 70t-7 74.5l-8 75t-8 72.5h-13zM266 774q0 48 31.5 77t77.5 29q37 0 60 -21.5t23 -57.5q0 -48 -30 -78.5t-78 -30.5
q-38 0 -61 22.5t-23 59.5zM357 748q20 0 32 12t12 32q0 14 -9 23t-25 9q-20 0 -32 -12t-12 -32q0 -14 9 -23t25 -9zM481 1060q16 8 21 8t8 -3t8 -14l11 -26q8 -19 8 -26q0 -10 -13 -14l-192 -71q-8 -3 -13 -3q-7 0 -12 10l-10 21q-3 7 -5 11.5t-2 8.5q0 6 11 11z" />
    <glyph glyph-name="Aogonek" unicode="&#x104;" horiz-adv-x="563" 
d="M363 647q23 0 32 -7t12 -27q10 -61 19.5 -131.5t18 -141t15.5 -135.5t12 -115q2 -24 4 -47t2 -29q0 -11 -12 -15q-54 -20 -79 -50.5t-25 -60.5q0 -26 33 -26q11 0 22 2t19 4q3 1 7 2t8 1q6 0 7 -9l3 -17q1 -6 1.5 -10.5t0.5 -7.5q0 -7 -10 -11q-17 -7 -39.5 -11t-44.5 -4
q-42 0 -64.5 15.5t-22.5 48.5q0 40 25 77t69 66q-3 44 -6 87.5t-6 81.5h-231q-18 -37 -37 -78.5t-35 -77.5q-6 -14 -13.5 -17.5t-24.5 -3.5h-43q-13 0 -17.5 3.5t-4.5 11.5q0 7 5 17.5t13 27.5q32 67 70 144.5t77 154t75.5 145t65.5 117.5q9 16 20 21t29 5h50zM317 550
q-34 -64 -70 -134.5t-76 -157.5h187q-2 33 -5 70t-7 74.5l-8 75t-8 72.5h-13z" />
    <glyph glyph-name="AE" unicode="&#xc6;" horiz-adv-x="831" 
d="M491 293q-6 -31 -11.5 -60t-9.5 -53.5t-6.5 -42t-2.5 -25.5q0 -17 8.5 -24t34.5 -7h220q14 0 14 -10q0 -4 -1.5 -11.5t-3.5 -21.5l-4 -21q-3 -17 -23 -17h-243q-48 0 -74 20t-26 68q0 13 2 35.5t7 53.5h-201q-26 -37 -52.5 -78.5t-49.5 -77.5q-9 -14 -17 -17.5t-25 -3.5
h-43q-13 0 -17 3.5t-2 11.5q2 7 9 17.5t18 27.5q45 67 97.5 144.5t105.5 154t102 145t87 117.5q12 16 26 21t34 5h375q14 0 14 -10q0 -4 -1.5 -11.5t-3.5 -21.5l-4 -21q-3 -17 -23 -17h-257l-37 -192h237q14 0 14 -10q0 -4 -1.5 -11.5t-3.5 -21.5l-4 -21q-3 -17 -23 -17
h-235zM440 566q-48 -67 -103 -144t-112 -164h163q15 76 31.5 155.5t32.5 152.5h-12z" />
    <glyph glyph-name="AEacute" unicode="&#x1fc;" horiz-adv-x="831" 
d="M491 293q-6 -31 -11.5 -60t-9.5 -53.5t-6.5 -42t-2.5 -25.5q0 -17 8.5 -24t34.5 -7h220q14 0 14 -10q0 -4 -1.5 -11.5t-3.5 -21.5l-4 -21q-3 -17 -23 -17h-243q-48 0 -74 20t-26 68q0 13 2 35.5t7 53.5h-201q-26 -37 -52.5 -78.5t-49.5 -77.5q-9 -14 -17 -17.5t-25 -3.5
h-43q-13 0 -17 3.5t-2 11.5q2 7 9 17.5t18 27.5q45 67 97.5 144.5t105.5 154t102 145t87 117.5q12 16 26 21t34 5h375q14 0 14 -10q0 -4 -1.5 -11.5t-3.5 -21.5l-4 -21q-3 -17 -23 -17h-257l-37 -192h237q14 0 14 -10q0 -4 -1.5 -11.5t-3.5 -21.5l-4 -21q-3 -17 -23 -17
h-235zM440 566q-48 -67 -103 -144t-112 -164h163q15 76 31.5 155.5t32.5 152.5h-12zM719 843q9 4 13 5.5t8 1.5q5 0 8 -3t8 -14l10 -27q7 -17 7 -26q0 -10 -13 -14l-194 -64q-8 -3 -13 -3q-7 0 -12 10l-9 22q-3 7 -5 11.5t-2 8.5q0 6 12 11z" />
    <glyph glyph-name="Cacute" unicode="&#x106;" 
d="M346 656q42 0 84 -10t78 -27q12 -6 12 -13q0 -6 -2 -10.5t-7 -13.5l-17 -34q-5 -9 -11 -9q-4 0 -8.5 2t-9.5 4q-25 12 -57 20t-67 8q-42 0 -70.5 -10.5t-48 -33t-32.5 -59t-23 -87.5q-16 -79 -22.5 -131t-6.5 -85q0 -24 5.5 -42t19 -29.5t36.5 -17.5t58 -6q32 0 70.5 7
t63.5 15q15 5 21 5q8 0 12 -14l4 -17q6 -27 6 -32q0 -10 -14 -15q-38 -12 -87 -21t-91 -9q-54 0 -92 8.5t-63 29t-36.5 53t-11.5 80.5q0 37 9 100t26 147q16 82 40 127t57 71q31 25 72 37t103 12zM458 843q9 4 13 5.5t8 1.5q5 0 8 -3t8 -14l10 -27q7 -17 7 -26
q0 -10 -13 -14l-194 -64q-8 -3 -13 -3q-7 0 -12 10l-9 22q-3 7 -5 11.5t-2 8.5q0 6 12 11z" />
    <glyph glyph-name="Ccedilla" unicode="&#xc7;" 
d="M233 -62q8 2 17 3t18 1q29 0 46.5 -16.5t17.5 -46.5q0 -57 -33.5 -85.5t-90.5 -28.5q-23 0 -48 4t-41 10q-9 4 -9 10q0 3 4 14l7 18q4 11 9 11q3 0 5 -0.5t5 -1.5q14 -5 31 -7.5t30 -2.5q31 0 44.5 11t13.5 34t-31 23q-10 0 -18.5 -1t-13.5 -2t-9 -1.5t-7 -0.5
q-7 0 -11 7l-4 7q-4 8 -4 12q0 3 1.5 7t6.5 15l28 62q-84 6 -121 44.5t-37 124.5q0 37 9 100t26 147q16 82 38 127t55 71q31 25 73 37t105 12q42 0 84 -10t78 -27q12 -6 12 -13q0 -6 -2 -10.5t-7 -13.5l-17 -34q-5 -9 -11 -9q-4 0 -8.5 2t-9.5 4q-25 12 -58.5 20t-65.5 8
q-41 0 -69.5 -10.5t-48 -33t-32.5 -59t-23 -87.5q-16 -79 -22.5 -131t-6.5 -85q0 -24 5.5 -42t19 -29.5t36.5 -17.5t58 -6q34 0 71.5 7t62.5 15q15 5 21 5q8 0 12 -14l4 -17q6 -27 6 -32q0 -10 -14 -15q-34 -12 -79 -20t-83 -10z" />
    <glyph glyph-name="Ccircumflex" unicode="&#x108;" 
d="M346 656q42 0 84 -10t78 -27q12 -6 12 -13q0 -6 -2 -10.5t-7 -13.5l-17 -34q-5 -9 -11 -9q-4 0 -8.5 2t-9.5 4q-25 12 -57 20t-67 8q-42 0 -70.5 -10.5t-48 -33t-32.5 -59t-23 -87.5q-16 -79 -22.5 -131t-6.5 -85q0 -24 5.5 -42t19 -29.5t36.5 -17.5t58 -6q32 0 70.5 7
t63.5 15q15 5 21 5q8 0 12 -14l4 -17q6 -27 6 -32q0 -10 -14 -15q-38 -12 -87 -21t-91 -9q-54 0 -92 8.5t-63 29t-36.5 53t-11.5 80.5q0 37 9 100t26 147q16 82 40 127t57 71q31 25 72 37t103 12zM399 859q7 0 11 -1.5t9 -7.5l80 -114q8 -11 8 -17t-10 -13l-17 -11
q-12 -8 -18 -8q-7 0 -15 9l-72 84h-4l-98 -82q-6 -5 -12 -9t-11 -4q-6 0 -10 2.5t-10 7.5l-13 12q-10 9 -10 15q0 5 4 9.5t10 10.5l113 108q6 5 10.5 7t12.5 2h42z" />
    <glyph glyph-name="Ccaron" unicode="&#x10c;" 
d="M346 656q42 0 84 -10t78 -27q12 -6 12 -13q0 -6 -2 -10.5t-7 -13.5l-17 -34q-5 -9 -11 -9q-4 0 -8.5 2t-9.5 4q-25 12 -57 20t-67 8q-42 0 -70.5 -10.5t-48 -33t-32.5 -59t-23 -87.5q-16 -79 -22.5 -131t-6.5 -85q0 -24 5.5 -42t19 -29.5t36.5 -17.5t58 -6q32 0 70.5 7
t63.5 15q15 5 21 5q8 0 12 -14l4 -17q6 -27 6 -32q0 -10 -14 -15q-38 -12 -87 -21t-91 -9q-54 0 -92 8.5t-63 29t-36.5 53t-11.5 80.5q0 37 9 100t26 147q16 82 40 127t57 71q31 25 72 37t103 12zM330 702q-14 0 -20 10l-76 109q-6 9 -8.5 12.5t-2.5 8.5t2.5 7.5t7.5 5.5
l25 17q8 5 13 5t11 -7l75 -89h4l105 89q8 7 15 7t13 -8l16 -17q9 -10 9 -16q0 -5 -8 -13l-116 -111q-5 -5 -9.5 -7.5t-13.5 -2.5h-42z" />
    <glyph glyph-name="Cdotaccent" unicode="&#x10a;" 
d="M346 656q42 0 84 -10t78 -27q12 -6 12 -13q0 -6 -2 -10.5t-7 -13.5l-17 -34q-5 -9 -11 -9q-4 0 -8.5 2t-9.5 4q-25 12 -57 20t-67 8q-42 0 -70.5 -10.5t-48 -33t-32.5 -59t-23 -87.5q-16 -79 -22.5 -131t-6.5 -85q0 -24 5.5 -42t19 -29.5t36.5 -17.5t58 -6q32 0 70.5 7
t63.5 15q15 5 21 5q8 0 12 -14l4 -17q6 -27 6 -32q0 -10 -14 -15q-38 -12 -87 -21t-91 -9q-54 0 -92 8.5t-63 29t-36.5 53t-11.5 80.5q0 37 9 100t26 147q16 82 40 127t57 71q31 25 72 37t103 12zM298 765q0 35 21.5 55.5t52.5 20.5q26 0 40.5 -16t14.5 -39q0 -36 -23 -54.5
t-51 -18.5q-25 0 -40 15.5t-15 36.5z" />
    <glyph glyph-name="Dcaron" unicode="&#x10e;" horiz-adv-x="594" 
d="M38 0q-29 0 -29 18q0 4 2 13t5 23l109 562q2 14 8.5 20t19.5 8q27 4 69 6t80 2q135 0 194 -47.5t59 -150.5q0 -18 -2 -42t-6 -51.5t-9.5 -56.5t-12.5 -57q-18 -69 -48.5 -116t-75 -76.5t-104.5 -42t-138 -12.5h-121zM302 573h-39t-35 -2q-15 -1 -18 -17l-84 -432
l-4.5 -21t-1.5 -12q0 -10 14 -10h46q55 0 96 10t70.5 31.5t49.5 56.5t34 86q14 52 20.5 99.5t6.5 79.5q0 38 -8.5 63.5t-27.5 40.5t-48 21t-71 6zM327 702q-14 0 -20 10l-76 109q-6 9 -8.5 12.5t-2.5 8.5t2.5 7.5t7.5 5.5l25 17q8 5 13 5t11 -7l75 -89h4l105 89q8 7 15 7
t13 -8l16 -17q9 -10 9 -16q0 -5 -8 -13l-116 -111q-5 -5 -9.5 -7.5t-13.5 -2.5h-42z" />
    <glyph glyph-name="Dcroat" unicode="&#x110;" horiz-adv-x="613" 
d="M57 0q-29 0 -29 18q0 4 2 13t5 23l46 236h-52q-19 0 -19 13q0 5 4 24l4 20q3 16 8 21t19 5h52l47 243q2 14 8.5 20t19.5 8q27 4 69 6t80 2q135 0 194 -47.5t59 -150.5q0 -18 -2 -42t-6 -51.5t-9.5 -56.5t-12.5 -57q-18 -69 -48.5 -116t-75 -76.5t-104.5 -42t-138 -12.5
h-121zM321 573h-39t-35 -2q-15 -1 -18 -17l-36 -181h103q19 0 19 -13q0 -5 -4 -24l-4 -20q-3 -16 -8 -21t-19 -5h-103l-32 -168l-4.5 -21t-1.5 -12q0 -10 14 -10h46q55 0 96 10t70.5 31.5t49.5 56.5t34 86q14 52 20.5 99.5t6.5 79.5q0 38 -8.5 63.5t-27.5 40.5t-48 21t-71 6
z" />
    <glyph glyph-name="Eth" unicode="&#xd0;" horiz-adv-x="613" 
d="M57 0q-29 0 -29 18q0 4 2 13t5 23l46 236h-52q-19 0 -19 13q0 5 4 24l4 20q3 16 8 21t19 5h52l47 243q2 14 8.5 20t19.5 8q27 4 69 6t80 2q135 0 194 -47.5t59 -150.5q0 -18 -2 -42t-6 -51.5t-9.5 -56.5t-12.5 -57q-18 -69 -48.5 -116t-75 -76.5t-104.5 -42t-138 -12.5
h-121zM321 573h-39t-35 -2q-15 -1 -18 -17l-36 -181h103q19 0 19 -13q0 -5 -4 -24l-4 -20q-3 -16 -8 -21t-19 -5h-103l-32 -168l-4.5 -21t-1.5 -12q0 -10 14 -10h46q55 0 96 10t70.5 31.5t49.5 56.5t34 86q14 52 20.5 99.5t6.5 79.5q0 38 -8.5 63.5t-27.5 40.5t-48 21t-71 6
z" />
    <glyph glyph-name="Egrave" unicode="&#xc8;" horiz-adv-x="488" 
d="M150 293q-6 -31 -11.5 -60t-9.5 -53.5t-6.5 -42t-2.5 -25.5q0 -17 8.5 -24t34.5 -7h220q14 0 14 -10q0 -4 -1.5 -11.5t-3.5 -21.5l-4 -21q-3 -17 -23 -17h-243q-48 0 -74 20t-26 68q0 14 2 38.5t10 64.5q17 87 34 172t36 167q8 36 19.5 59t29.5 35.5t43.5 17.5t61.5 5
h220q14 0 14 -10q0 -4 -1.5 -11.5t-3.5 -21.5l-4 -21q-3 -17 -23 -17h-210q-40 0 -50 -38q-9 -35 -17.5 -76.5t-16.5 -77.5h237q14 0 14 -10q0 -4 -1.5 -11.5t-3.5 -21.5l-4 -21q-3 -17 -23 -17h-235zM425 762q12 -5 12 -11q0 -4 -2 -8.5t-5 -11.5l-9 -22q-5 -10 -12 -10
q-6 0 -13 3l-194 64q-13 4 -13 14q0 9 7 26l10 27q5 11 8 14t8 3q4 0 8 -1.5t13 -5.5z" />
    <glyph glyph-name="Eacute" unicode="&#xc9;" horiz-adv-x="488" 
d="M150 293q-6 -31 -11.5 -60t-9.5 -53.5t-6.5 -42t-2.5 -25.5q0 -17 8.5 -24t34.5 -7h220q14 0 14 -10q0 -4 -1.5 -11.5t-3.5 -21.5l-4 -21q-3 -17 -23 -17h-243q-48 0 -74 20t-26 68q0 14 2 38.5t10 64.5q17 87 34 172t36 167q8 36 19.5 59t29.5 35.5t43.5 17.5t61.5 5
h220q14 0 14 -10q0 -4 -1.5 -11.5t-3.5 -21.5l-4 -21q-3 -17 -23 -17h-210q-40 0 -50 -38q-9 -35 -17.5 -76.5t-16.5 -77.5h237q14 0 14 -10q0 -4 -1.5 -11.5t-3.5 -21.5l-4 -21q-3 -17 -23 -17h-235zM428 843q9 4 13 5.5t8 1.5q5 0 8 -3t8 -14l10 -27q7 -17 7 -26
q0 -10 -13 -14l-194 -64q-8 -3 -13 -3q-7 0 -12 10l-9 22q-3 7 -5 11.5t-2 8.5q0 6 12 11z" />
    <glyph glyph-name="Ecircumflex" unicode="&#xca;" horiz-adv-x="488" 
d="M150 293q-6 -31 -11.5 -60t-9.5 -53.5t-6.5 -42t-2.5 -25.5q0 -17 8.5 -24t34.5 -7h220q14 0 14 -10q0 -4 -1.5 -11.5t-3.5 -21.5l-4 -21q-3 -17 -23 -17h-243q-48 0 -74 20t-26 68q0 14 2 38.5t10 64.5q17 87 34 172t36 167q8 36 19.5 59t29.5 35.5t43.5 17.5t61.5 5
h220q14 0 14 -10q0 -4 -1.5 -11.5t-3.5 -21.5l-4 -21q-3 -17 -23 -17h-210q-40 0 -50 -38q-9 -35 -17.5 -76.5t-16.5 -77.5h237q14 0 14 -10q0 -4 -1.5 -11.5t-3.5 -21.5l-4 -21q-3 -17 -23 -17h-235zM381 859q7 0 11 -1.5t9 -7.5l80 -114q8 -11 8 -17t-10 -13l-17 -11
q-12 -8 -18 -8q-7 0 -15 9l-72 84h-4l-98 -82q-6 -5 -12 -9t-11 -4q-6 0 -10 2.5t-10 7.5l-13 12q-10 9 -10 15q0 5 4 9.5t10 10.5l113 108q6 5 10.5 7t12.5 2h42z" />
    <glyph glyph-name="Ecaron" unicode="&#x11a;" horiz-adv-x="488" 
d="M150 293q-6 -31 -11.5 -60t-9.5 -53.5t-6.5 -42t-2.5 -25.5q0 -17 8.5 -24t34.5 -7h220q14 0 14 -10q0 -4 -1.5 -11.5t-3.5 -21.5l-4 -21q-3 -17 -23 -17h-243q-48 0 -74 20t-26 68q0 14 2 38.5t10 64.5q17 87 34 172t36 167q8 36 19.5 59t29.5 35.5t43.5 17.5t61.5 5
h220q14 0 14 -10q0 -4 -1.5 -11.5t-3.5 -21.5l-4 -21q-3 -17 -23 -17h-210q-40 0 -50 -38q-9 -35 -17.5 -76.5t-16.5 -77.5h237q14 0 14 -10q0 -4 -1.5 -11.5t-3.5 -21.5l-4 -21q-3 -17 -23 -17h-235zM313 702q-14 0 -20 10l-76 109q-6 9 -8.5 12.5t-2.5 8.5t2.5 7.5
t7.5 5.5l25 17q8 5 13 5t11 -7l75 -89h4l105 89q8 7 15 7t13 -8l16 -17q9 -10 9 -16q0 -5 -8 -13l-116 -111q-5 -5 -9.5 -7.5t-13.5 -2.5h-42z" />
    <glyph glyph-name="Edieresis" unicode="&#xcb;" horiz-adv-x="488" 
d="M150 293q-6 -31 -11.5 -60t-9.5 -53.5t-6.5 -42t-2.5 -25.5q0 -17 8.5 -24t34.5 -7h220q14 0 14 -10q0 -4 -1.5 -11.5t-3.5 -21.5l-4 -21q-3 -17 -23 -17h-243q-48 0 -74 20t-26 68q0 14 2 38.5t10 64.5q17 87 34 172t36 167q8 36 19.5 59t29.5 35.5t43.5 17.5t61.5 5
h220q14 0 14 -10q0 -4 -1.5 -11.5t-3.5 -21.5l-4 -21q-3 -17 -23 -17h-210q-40 0 -50 -38q-9 -35 -17.5 -76.5t-16.5 -77.5h237q14 0 14 -10q0 -4 -1.5 -11.5t-3.5 -21.5l-4 -21q-3 -17 -23 -17h-235zM277 835q20 0 31.5 -9t11.5 -27q0 -5 -1 -12.5t-4 -21.5q-5 -22 -20 -32
t-38 -10h-8q-20 0 -31 8.5t-11 25.5q0 5 0.5 12.5t4.5 24.5q5 21 20 31t37 10h8zM440 835q20 0 31.5 -9t11.5 -27q0 -5 -1 -12.5t-4 -21.5q-5 -22 -20 -32t-38 -10h-8q-20 0 -31 8.5t-11 25.5q0 5 0.5 12.5t4.5 24.5q5 21 20 31t37 10h8z" />
    <glyph glyph-name="Emacron" unicode="&#x112;" horiz-adv-x="488" 
d="M150 293q-6 -31 -11.5 -60t-9.5 -53.5t-6.5 -42t-2.5 -25.5q0 -17 8.5 -24t34.5 -7h220q14 0 14 -10q0 -4 -1.5 -11.5t-3.5 -21.5l-4 -21q-3 -17 -23 -17h-243q-48 0 -74 20t-26 68q0 14 2 38.5t10 64.5q17 87 34 172t36 167q8 36 19.5 59t29.5 35.5t43.5 17.5t61.5 5
h220q14 0 14 -10q0 -4 -1.5 -11.5t-3.5 -21.5l-4 -21q-3 -17 -23 -17h-210q-40 0 -50 -38q-9 -35 -17.5 -76.5t-16.5 -77.5h237q14 0 14 -10q0 -4 -1.5 -11.5t-3.5 -21.5l-4 -21q-3 -17 -23 -17h-235zM459 803q14 0 14 -10q0 -6 -4 -25l-5 -23q-2 -9 -6 -12t-16 -3h-223
q-14 0 -14 10q0 6 4 25l5 23q2 9 6 12t16 3h223z" />
    <glyph glyph-name="Ebreve" unicode="&#x114;" horiz-adv-x="488" 
d="M150 293q-6 -31 -11.5 -60t-9.5 -53.5t-6.5 -42t-2.5 -25.5q0 -17 8.5 -24t34.5 -7h220q14 0 14 -10q0 -4 -1.5 -11.5t-3.5 -21.5l-4 -21q-3 -17 -23 -17h-243q-48 0 -74 20t-26 68q0 14 2 38.5t10 64.5q17 87 34 172t36 167q8 36 19.5 59t29.5 35.5t43.5 17.5t61.5 5
h220q14 0 14 -10q0 -4 -1.5 -11.5t-3.5 -21.5l-4 -21q-3 -17 -23 -17h-210q-40 0 -50 -38q-9 -35 -17.5 -76.5t-16.5 -77.5h237q14 0 14 -10q0 -4 -1.5 -11.5t-3.5 -21.5l-4 -21q-3 -17 -23 -17h-235zM332 698q-51 0 -83.5 26t-47.5 70q-2 5 -3.5 11.5t-1.5 11.5q0 8 9 12
l36 12q5 2 9 3t7 1q7 0 10 -11q10 -37 27.5 -53t45.5 -16q32 0 55 19.5t41 53.5q5 8 11 8q5 0 8.5 -1.5t13.5 -6.5l14 -7q10 -5 13 -8t3 -8t-7 -18q-28 -48 -65 -73.5t-95 -25.5z" />
    <glyph glyph-name="Edotaccent" unicode="&#x116;" horiz-adv-x="488" 
d="M150 293q-6 -31 -11.5 -60t-9.5 -53.5t-6.5 -42t-2.5 -25.5q0 -17 8.5 -24t34.5 -7h220q14 0 14 -10q0 -4 -1.5 -11.5t-3.5 -21.5l-4 -21q-3 -17 -23 -17h-243q-48 0 -74 20t-26 68q0 14 2 38.5t10 64.5q17 87 34 172t36 167q8 36 19.5 59t29.5 35.5t43.5 17.5t61.5 5
h220q14 0 14 -10q0 -4 -1.5 -11.5t-3.5 -21.5l-4 -21q-3 -17 -23 -17h-210q-40 0 -50 -38q-9 -35 -17.5 -76.5t-16.5 -77.5h237q14 0 14 -10q0 -4 -1.5 -11.5t-3.5 -21.5l-4 -21q-3 -17 -23 -17h-235zM275 765q0 35 21.5 55.5t52.5 20.5q26 0 40.5 -16t14.5 -39
q0 -36 -23 -54.5t-51 -18.5q-25 0 -40 15.5t-15 36.5z" />
    <glyph glyph-name="Eogonek" unicode="&#x118;" horiz-adv-x="488" 
d="M150 293q-6 -31 -11.5 -60t-9.5 -53.5t-6.5 -42t-2.5 -25.5q0 -17 8.5 -24t34.5 -7h220q14 0 14 -10q0 -4 -1.5 -11.5t-3.5 -21.5l-3 -16q-2 -14 -12 -20t-19 -11q-37 -22 -57.5 -49.5t-20.5 -53.5t33 -26q11 0 22 2t19 4q3 1 7 2t8 1q5 0 7 -9l3 -17q1 -6 1.5 -10.5
t0.5 -7.5q0 -7 -10 -11q-17 -7 -38.5 -11t-45.5 -4q-42 0 -64.5 15.5t-22.5 48.5q0 44 31.5 79.5t74.5 55.5h-184q-48 0 -74 20t-26 68q0 14 2 38.5t10 64.5q17 87 34 172t36 167q8 36 19.5 59t29.5 35.5t43.5 17.5t61.5 5h220q14 0 14 -10q0 -4 -1.5 -11.5t-3.5 -21.5
l-4 -21q-3 -17 -23 -17h-210q-40 0 -50 -38q-9 -35 -17.5 -76.5t-16.5 -77.5h237q14 0 14 -10q0 -4 -1.5 -11.5t-3.5 -21.5l-4 -21q-3 -17 -23 -17h-235z" />
    <glyph glyph-name="Gcircumflex" unicode="&#x11c;" horiz-adv-x="580" 
d="M358 575q-47 0 -79 -11.5t-53.5 -35t-35 -59.5t-23.5 -86q-16 -79 -23 -127t-7 -73q0 -31 6.5 -52t21.5 -34t40 -19t63 -6q23 0 46 2t40 5q21 3 24 20l33 175h-77q-15 0 -15 11q0 4 1 11t3 15l6 30q3 14 18 14h162q13 0 13 -10q0 -5 -2.5 -16.5t-5.5 -26.5l-51 -263
q-2 -11 -6.5 -15.5t-16.5 -8.5q-35 -11 -83 -17.5t-96 -6.5q-57 0 -99 9t-69 29.5t-40.5 54t-13.5 82.5q0 23 2 48t6.5 53.5t11 62.5t15.5 76q8 37 16.5 67t20.5 54.5t27.5 43.5t36.5 36q64 49 183 49q51 0 96 -11t83 -31q9 -5 9 -12t-8 -21l-19 -35q-5 -9 -13 -9
q-5 0 -12 4q-30 16 -65 25t-71 9zM405 859q7 0 11 -1.5t9 -7.5l80 -114q8 -11 8 -17t-10 -13l-17 -11q-12 -8 -18 -8q-7 0 -15 9l-72 84h-4l-98 -82q-6 -5 -12 -9t-11 -4q-6 0 -10 2.5t-10 7.5l-13 12q-10 9 -10 15q0 5 4 9.5t10 10.5l113 108q6 5 10.5 7t12.5 2h42z" />
    <glyph glyph-name="Gbreve" unicode="&#x11e;" horiz-adv-x="580" 
d="M358 575q-47 0 -79 -11.5t-53.5 -35t-35 -59.5t-23.5 -86q-16 -79 -23 -127t-7 -73q0 -31 6.5 -52t21.5 -34t40 -19t63 -6q23 0 46 2t40 5q21 3 24 20l33 175h-77q-15 0 -15 11q0 4 1 11t3 15l6 30q3 14 18 14h162q13 0 13 -10q0 -5 -2.5 -16.5t-5.5 -26.5l-51 -263
q-2 -11 -6.5 -15.5t-16.5 -8.5q-35 -11 -83 -17.5t-96 -6.5q-57 0 -99 9t-69 29.5t-40.5 54t-13.5 82.5q0 23 2 48t6.5 53.5t11 62.5t15.5 76q8 37 16.5 67t20.5 54.5t27.5 43.5t36.5 36q64 49 183 49q51 0 96 -11t83 -31q9 -5 9 -12t-8 -21l-19 -35q-5 -9 -13 -9
q-5 0 -12 4q-30 16 -65 25t-71 9zM366 698q-51 0 -83.5 26t-47.5 70q-2 5 -3.5 11.5t-1.5 11.5q0 8 9 12l36 12q5 2 9 3t7 1q7 0 10 -11q10 -37 27.5 -53t45.5 -16q32 0 55 19.5t41 53.5q5 8 11 8q5 0 8.5 -1.5t13.5 -6.5l14 -7q10 -5 13 -8t3 -8t-7 -18q-28 -48 -65 -73.5
t-95 -25.5z" />
    <glyph glyph-name="Gdotaccent" unicode="&#x120;" horiz-adv-x="580" 
d="M358 575q-47 0 -79 -11.5t-53.5 -35t-35 -59.5t-23.5 -86q-16 -79 -23 -127t-7 -73q0 -31 6.5 -52t21.5 -34t40 -19t63 -6q23 0 46 2t40 5q21 3 24 20l33 175h-77q-15 0 -15 11q0 4 1 11t3 15l6 30q3 14 18 14h162q13 0 13 -10q0 -5 -2.5 -16.5t-5.5 -26.5l-51 -263
q-2 -11 -6.5 -15.5t-16.5 -8.5q-35 -11 -83 -17.5t-96 -6.5q-57 0 -99 9t-69 29.5t-40.5 54t-13.5 82.5q0 23 2 48t6.5 53.5t11 62.5t15.5 76q8 37 16.5 67t20.5 54.5t27.5 43.5t36.5 36q64 49 183 49q51 0 96 -11t83 -31q9 -5 9 -12t-8 -21l-19 -35q-5 -9 -13 -9
q-5 0 -12 4q-30 16 -65 25t-71 9zM306 765q0 35 21.5 55.5t52.5 20.5q26 0 40.5 -16t14.5 -39q0 -36 -23 -54.5t-51 -18.5q-25 0 -40 15.5t-15 36.5z" />
    <glyph glyph-name="Gcommaaccent" unicode="&#x122;" horiz-adv-x="580" 
d="M358 575q-47 0 -79 -11.5t-53.5 -35t-35 -59.5t-23.5 -86q-16 -79 -23 -127t-7 -73q0 -31 6.5 -52t21.5 -34t40 -19t63 -6q23 0 46 2t40 5q21 3 24 20l33 175h-77q-15 0 -15 11q0 4 1 11t3 15l6 30q3 14 18 14h162q13 0 13 -10q0 -5 -2.5 -16.5t-5.5 -26.5l-51 -263
q-2 -11 -6.5 -15.5t-16.5 -8.5q-35 -11 -83 -17.5t-96 -6.5q-57 0 -99 9t-69 29.5t-40.5 54t-13.5 82.5q0 23 2 48t6.5 53.5t11 62.5t15.5 76q8 37 16.5 67t20.5 54.5t27.5 43.5t36.5 36q64 49 183 49q51 0 96 -11t83 -31q9 -5 9 -12t-8 -21l-19 -35q-5 -9 -13 -9
q-5 0 -12 4q-30 16 -65 25t-71 9zM250 -66q18 0 30 -9t12 -32q0 -18 -5 -35.5t-17 -37.5q-14 -23 -33.5 -46.5t-42.5 -43.5q-7 -5 -11 -5q-5 0 -13 7l-11 9q-7 6 -7 10t7 11q6 6 15 15.5t16 17.5q11 14 15.5 20.5t4.5 9.5q0 6 -8 11l-4 3q-14 9 -14 28q0 9 2 19.5t4 15.5
q13 32 52 32h8z" />
    <glyph glyph-name="Hcircumflex" unicode="&#x124;" horiz-adv-x="611" 
d="M503 626q2 13 8 17t18 4h57q16 0 16 -12q0 -6 -4 -26l-116 -588q-2 -13 -8 -17t-18 -4h-56q-16 0 -16 12q0 6 4 26l49 252h-277l-53 -269q-2 -13 -8 -17t-18 -4h-56q-16 0 -16 12q0 6 4 26l116 588q2 13 8 17t18 4h56q16 0 16 -12q0 -6 -4 -26l-47 -238h277zM423 859
q7 0 11 -1.5t9 -7.5l80 -114q8 -11 8 -17t-10 -13l-17 -11q-12 -8 -18 -8q-7 0 -15 9l-72 84h-4l-98 -82q-6 -5 -12 -9t-11 -4q-6 0 -10 2.5t-10 7.5l-13 12q-10 9 -10 15q0 5 4 9.5t10 10.5l113 108q6 5 10.5 7t12.5 2h42z" />
    <glyph glyph-name="Hbar" unicode="&#x126;" horiz-adv-x="623" 
d="M118 542l17 84q2 13 8 17t18 4h56q16 0 16 -12q0 -6 -4 -26l-14 -67h277l17 84q2 13 8 17t18 4h57q16 0 16 -12q0 -6 -4 -26l-14 -67h48q14 0 14 -10q0 -6 -4 -25l-4 -17q-2 -9 -6 -12t-16 -3h-45l-89 -454q-2 -13 -8 -17t-18 -4h-56q-16 0 -16 12q0 6 4 26l49 252h-277
l-53 -269q-2 -13 -8 -17t-18 -4h-56q-16 0 -16 12q0 6 4 26l86 437h-46q-14 0 -14 10q0 6 4 25l4 17q2 9 6 12t16 3h43zM479 475h-277l-20 -104h277z" />
    <glyph glyph-name="Igrave" unicode="&#xcc;" horiz-adv-x="247" 
d="M133 626q2 13 8 17t18 4h56q16 0 16 -12q0 -6 -4 -26l-115 -588q-2 -13 -8 -17t-18 -4h-56q-16 0 -16 12q0 6 4 26zM258 762q12 -5 12 -11q0 -4 -2 -8.5t-5 -11.5l-9 -22q-5 -10 -12 -10q-6 0 -13 3l-194 64q-13 4 -13 14q0 9 7 26l10 27q5 11 8 14t8 3q4 0 8 -1.5
t13 -5.5z" />
    <glyph glyph-name="Iacute" unicode="&#xcd;" horiz-adv-x="247" 
d="M133 626q2 13 8 17t18 4h56q16 0 16 -12q0 -6 -4 -26l-115 -588q-2 -13 -8 -17t-18 -4h-56q-16 0 -16 12q0 6 4 26zM319 843q9 4 13 5.5t8 1.5q5 0 8 -3t8 -14l10 -27q7 -17 7 -26q0 -10 -13 -14l-194 -64q-8 -3 -13 -3q-7 0 -12 10l-9 22q-3 7 -5 11.5t-2 8.5q0 6 12 11
z" />
    <glyph glyph-name="Icircumflex" unicode="&#xce;" horiz-adv-x="247" 
d="M133 626q2 13 8 17t18 4h56q16 0 16 -12q0 -6 -4 -26l-115 -588q-2 -13 -8 -17t-18 -4h-56q-16 0 -16 12q0 6 4 26zM240 859q7 0 11 -1.5t9 -7.5l80 -114q8 -11 8 -17t-10 -13l-17 -11q-12 -8 -18 -8q-7 0 -15 9l-72 84h-4l-98 -82q-6 -5 -12 -9t-11 -4q-6 0 -10 2.5
t-10 7.5l-13 12q-10 9 -10 15q0 5 4 9.5t10 10.5l113 108q6 5 10.5 7t12.5 2h42z" />
    <glyph glyph-name="Itilde" unicode="&#x128;" horiz-adv-x="247" 
d="M133 626q2 13 8 17t18 4h56q16 0 16 -12q0 -6 -4 -26l-115 -588q-2 -13 -8 -17t-18 -4h-56q-16 0 -16 12q0 6 4 26zM47 730q-5 4 -6.5 6.5t-1.5 5.5q0 4 5 12q26 44 56 62.5t62 18.5q31 0 60 -23l18 -15q9 -8 16.5 -11.5t18.5 -3.5q16 0 29 12t29 32q4 6 11 6q4 0 12 -6
l20 -16q7 -6 7 -11q0 -4 -5 -11q-54 -79 -115 -79q-19 0 -34.5 6t-28.5 17l-18 15q-15 14 -33 14q-28 0 -58 -42q-6 -8 -12 -8t-17 8z" />
    <glyph glyph-name="Idieresis" unicode="&#xcf;" horiz-adv-x="247" 
d="M133 626q2 13 8 17t18 4h56q16 0 16 -12q0 -6 -4 -26l-115 -588q-2 -13 -8 -17t-18 -4h-56q-16 0 -16 12q0 6 4 26zM143 835q20 0 31.5 -9t11.5 -27q0 -5 -1 -12.5t-4 -21.5q-5 -22 -20 -32t-38 -10h-8q-20 0 -31 8.5t-11 25.5q0 5 0.5 12.5t4.5 24.5q5 21 20 31t37 10h8
zM306 835q20 0 31.5 -9t11.5 -27q0 -5 -1 -12.5t-4 -21.5q-5 -22 -20 -32t-38 -10h-8q-20 0 -31 8.5t-11 25.5q0 5 0.5 12.5t4.5 24.5q5 21 20 31t37 10h8z" />
    <glyph glyph-name="Imacron" unicode="&#x12a;" horiz-adv-x="247" 
d="M133 626q2 13 8 17t18 4h56q16 0 16 -12q0 -6 -4 -26l-115 -588q-2 -13 -8 -17t-18 -4h-56q-16 0 -16 12q0 6 4 26zM327 803q14 0 14 -10q0 -6 -4 -25l-5 -23q-2 -9 -6 -12t-16 -3h-223q-14 0 -14 10q0 6 4 25l5 23q2 9 6 12t16 3h223z" />
    <glyph glyph-name="Ibreve" unicode="&#x12c;" horiz-adv-x="247" 
d="M133 626q2 13 8 17t18 4h56q16 0 16 -12q0 -6 -4 -26l-115 -588q-2 -13 -8 -17t-18 -4h-56q-16 0 -16 12q0 6 4 26zM197 698q-51 0 -83.5 26t-47.5 70q-2 5 -3.5 11.5t-1.5 11.5q0 8 9 12l36 12q5 2 9 3t7 1q7 0 10 -11q10 -37 27.5 -53t45.5 -16q32 0 55 19.5t41 53.5
q5 8 11 8q5 0 8.5 -1.5t13.5 -6.5l14 -7q10 -5 13 -8t3 -8t-7 -18q-28 -48 -65 -73.5t-95 -25.5z" />
    <glyph glyph-name="Idotaccent" unicode="&#x130;" horiz-adv-x="247" 
d="M133 626q2 13 8 17t18 4h56q16 0 16 -12q0 -6 -4 -26l-115 -588q-2 -13 -8 -17t-18 -4h-56q-16 0 -16 12q0 6 4 26zM143 765q0 35 21.5 55.5t52.5 20.5q26 0 40.5 -16t14.5 -39q0 -36 -23 -54.5t-51 -18.5q-25 0 -40 15.5t-15 36.5z" />
    <glyph glyph-name="Iogonek" unicode="&#x12e;" horiz-adv-x="247" 
d="M133 626q2 13 8 17t18 4h56q16 0 16 -12q0 -6 -4 -26l-115 -588q-2 -13 -7.5 -16t-16.5 -7q-20 -7 -39 -19.5t-33.5 -27.5t-23 -31.5t-8.5 -31.5q0 -26 33 -26q11 0 22 2t19 4q3 1 7 2t8 1q6 0 7 -9l3 -17q1 -6 1.5 -10.5t0.5 -7.5q0 -7 -10 -11q-17 -8 -37 -11.5
t-46 -3.5q-42 0 -65 16.5t-23 49.5q0 42 29.5 81.5t80.5 68.5z" />
    <glyph glyph-name="IJ" unicode="&#x132;" horiz-adv-x="575" 
d="M133 626q2 13 8 17t18 4h56q16 0 16 -12q0 -6 -4 -26l-115 -588q-2 -13 -8 -17t-18 -4h-56q-16 0 -16 12q0 6 4 26zM464 626q2 13 8 17t18 4h57q16 0 16 -12q0 -6 -4 -26l-76 -385q-7 -37 -13 -63.5t-12.5 -45.5t-13 -32.5t-15.5 -24.5q-26 -33 -62 -45.5t-86 -12.5h-56
q-9 0 -12 2.5t-3 6.5t1.5 11t3.5 18l6 29q2 9 6 12t12 3h40q28 0 44.5 7t27.5 21q10 13 16.5 34.5t14.5 63.5z" />
    <glyph glyph-name="Jcircumflex" unicode="&#x134;" horiz-adv-x="328" 
d="M217 626q2 13 8 17t18 4h57q16 0 16 -12q0 -6 -4 -26l-76 -385q-7 -37 -13 -63.5t-12.5 -45.5t-13 -32.5t-15.5 -24.5q-26 -33 -62 -45.5t-86 -12.5h-56q-9 0 -12 2.5t-3 6.5t1.5 11t3.5 18l6 29q2 9 6 12t12 3h40q28 0 44.5 7t27.5 21q10 13 16.5 34.5t14.5 63.5z
M319 859q7 0 11 -1.5t9 -7.5l80 -114q8 -11 8 -17t-10 -13l-17 -11q-12 -8 -18 -8q-7 0 -15 9l-72 84h-4l-98 -82q-6 -5 -12 -9t-11 -4q-6 0 -10 2.5t-10 7.5l-13 12q-10 9 -10 15q0 5 4 9.5t10 10.5l113 108q6 5 10.5 7t12.5 2h42z" />
    <glyph glyph-name="Kcommaaccent" unicode="&#x136;" horiz-adv-x="529" 
d="M128 626q2 13 8 17t18 4h56q16 0 16 -12q0 -6 -4 -26l-47 -238h42q22 0 35 16l208 245q8 9 14.5 12t17.5 3h65q13 0 13 -9q0 -5 -6 -13t-20 -25l-216 -253q-7 -8 -10.5 -13t-3.5 -10q0 -6 3.5 -12.5t8.5 -17.5l128 -251q9 -18 11.5 -24t2.5 -9q0 -10 -14 -10h-64
q-12 0 -17 3t-10 13l-125 258q-5 11 -10.5 13.5t-18.5 2.5h-50l-53 -269q-2 -13 -8 -17t-18 -4h-55q-16 0 -16 12q0 6 4 26zM215 -66q18 0 30 -9t12 -32q0 -18 -5 -35.5t-17 -37.5q-14 -23 -33.5 -46.5t-42.5 -43.5q-7 -5 -11 -5q-5 0 -13 7l-11 9q-7 6 -7 10t7 11
q6 6 15 15.5t16 17.5q11 14 15.5 20.5t4.5 9.5q0 6 -8 11l-4 3q-14 9 -14 28q0 9 2 19.5t4 15.5q13 32 52 32h8z" />
    <glyph glyph-name="Lacute" unicode="&#x139;" horiz-adv-x="398" 
d="M129 626q2 13 8 17t18 4h56q16 0 16 -12q0 -6 -4 -26l-93 -471q-3 -14 -5 -24.5t-2 -17.5q0 -8 4 -11.5t18 -3.5h170q14 0 14 -10q0 -4 -1.5 -11.5t-3.5 -21.5l-4 -21q-3 -17 -23 -17h-205q-32 0 -51 13.5t-19 42.5q0 14 2 29.5t6 35.5zM310 843q9 4 13 5.5t8 1.5
q5 0 8 -3t8 -14l10 -27q7 -17 7 -26q0 -10 -13 -14l-194 -64q-8 -3 -13 -3q-7 0 -12 10l-9 22q-3 7 -5 11.5t-2 8.5q0 6 12 11z" />
    <glyph glyph-name="Lcaron" unicode="&#x13d;" horiz-adv-x="398" 
d="M129 626q2 13 8 17t18 4h56q16 0 16 -12q0 -6 -4 -26l-93 -471q-3 -14 -5 -24.5t-2 -17.5q0 -8 4 -11.5t18 -3.5h170q14 0 14 -10q0 -4 -1.5 -11.5t-3.5 -21.5l-4 -21q-3 -17 -23 -17h-205q-32 0 -51 13.5t-19 42.5q0 14 2 29.5t6 35.5zM366 648q18 0 30 -9t12 -32
q0 -18 -5 -35.5t-17 -37.5q-14 -23 -33.5 -46.5t-42.5 -43.5q-7 -5 -11 -5q-5 0 -13 7l-11 9q-7 6 -7 10t7 11q6 6 15 15.5t16 17.5q11 14 15.5 20.5t4.5 9.5q0 6 -8 11l-4 3q-14 9 -14 28q0 9 2 19.5t4 15.5q13 32 52 32h8z" />
    <glyph glyph-name="Lcommaaccent" unicode="&#x13b;" horiz-adv-x="398" 
d="M129 626q2 13 8 17t18 4h56q16 0 16 -12q0 -6 -4 -26l-93 -471q-3 -14 -5 -24.5t-2 -17.5q0 -8 4 -11.5t18 -3.5h170q14 0 14 -10q0 -4 -1.5 -11.5t-3.5 -21.5l-4 -21q-3 -17 -23 -17h-205q-32 0 -51 13.5t-19 42.5q0 14 2 29.5t6 35.5zM159 -66q18 0 30 -9t12 -32
q0 -18 -5 -35.5t-17 -37.5q-14 -23 -33.5 -46.5t-42.5 -43.5q-7 -5 -11 -5q-5 0 -13 7l-11 9q-7 6 -7 10t7 11q6 6 15 15.5t16 17.5q11 14 15.5 20.5t4.5 9.5q0 6 -8 11l-4 3q-14 9 -14 28q0 9 2 19.5t4 15.5q13 32 52 32h8z" />
    <glyph glyph-name="Lslash" unicode="&#x141;" horiz-adv-x="405" 
d="M319 81q17 0 17 -11q0 -5 -1 -13t-3 -18l-4 -21q-2 -11 -7 -14.5t-18 -3.5h-215q-31 0 -46 11.5t-15 37.5q0 14 2.5 30.5t5.5 32.5l25 130l-58 -33q-13 -8 -19 -8q-8 0 -8 8q0 3 2 12.5t5 24.5l6 27q2 11 6 16t15 12l71 41l55 284q2 12 7.5 16.5t17.5 4.5h55
q12 0 15.5 -4.5t1.5 -16.5l-42 -219l103 61q8 5 11.5 6.5t7.5 1.5q8 0 8 -8q0 -6 -6 -31l-7 -33q-2 -9 -6 -15t-15 -13l-116 -69l-33 -169q-3 -17 -4.5 -26t-1.5 -17t5.5 -11t19.5 -3h163z" />
    <glyph glyph-name="Ldot" unicode="&#x13f;" horiz-adv-x="412" 
d="M129 626q2 13 8 17t18 4h56q16 0 16 -12q0 -6 -4 -26l-93 -471q-3 -14 -5 -24.5t-2 -17.5q0 -8 4 -11.5t18 -3.5h170q14 0 14 -10q0 -4 -1.5 -11.5t-3.5 -21.5l-4 -21q-3 -17 -23 -17h-205q-32 0 -51 13.5t-19 42.5q0 14 2 29.5t6 35.5zM260 337q0 35 21.5 55.5
t52.5 20.5q26 0 40.5 -16t14.5 -39q0 -36 -23 -54.5t-51 -18.5q-25 0 -40 15.5t-15 36.5z" />
    <glyph glyph-name="Nacute" unicode="&#x143;" horiz-adv-x="622" 
d="M493 20q-2 -12 -8.5 -16t-19.5 -4h-62q-16 0 -23.5 4t-10.5 14l-166 495h-5l-97 -494q-2 -11 -7 -15t-17 -4h-53q-15 0 -15 12q0 6 2.5 17t5.5 27l112 571q2 13 8.5 16.5t22.5 3.5h63q15 0 21.5 -4.5t10.5 -16.5l164 -495h5l97 497q2 11 7 15t17 4h51q17 0 17 -10
q0 -6 -2 -14.5t-4 -21.5zM484 843q9 4 13 5.5t8 1.5q5 0 8 -3t8 -14l10 -27q7 -17 7 -26q0 -10 -13 -14l-194 -64q-8 -3 -13 -3q-7 0 -12 10l-9 22q-3 7 -5 11.5t-2 8.5q0 6 12 11z" />
    <glyph glyph-name="Ncaron" unicode="&#x147;" horiz-adv-x="622" 
d="M493 20q-2 -12 -8.5 -16t-19.5 -4h-62q-16 0 -23.5 4t-10.5 14l-166 495h-5l-97 -494q-2 -11 -7 -15t-17 -4h-53q-15 0 -15 12q0 6 2.5 17t5.5 27l112 571q2 13 8.5 16.5t22.5 3.5h63q15 0 21.5 -4.5t10.5 -16.5l164 -495h5l97 497q2 11 7 15t17 4h51q17 0 17 -10
q0 -6 -2 -14.5t-4 -21.5zM362 702q-14 0 -20 10l-76 109q-6 9 -8.5 12.5t-2.5 8.5t2.5 7.5t7.5 5.5l25 17q8 5 13 5t11 -7l75 -89h4l105 89q8 7 15 7t13 -8l16 -17q9 -10 9 -16q0 -5 -8 -13l-116 -111q-5 -5 -9.5 -7.5t-13.5 -2.5h-42z" />
    <glyph glyph-name="Ntilde" unicode="&#xd1;" horiz-adv-x="622" 
d="M493 20q-2 -12 -8.5 -16t-19.5 -4h-62q-16 0 -23.5 4t-10.5 14l-166 495h-5l-97 -494q-2 -11 -7 -15t-17 -4h-53q-15 0 -15 12q0 6 2.5 17t5.5 27l112 571q2 13 8.5 16.5t22.5 3.5h63q15 0 21.5 -4.5t10.5 -16.5l164 -495h5l97 497q2 11 7 15t17 4h51q17 0 17 -10
q0 -6 -2 -14.5t-4 -21.5zM226 730q-5 4 -6.5 6.5t-1.5 5.5q0 4 5 12q26 44 56 62.5t62 18.5q31 0 60 -23l18 -15q9 -8 16.5 -11.5t18.5 -3.5q16 0 29 12t29 32q4 6 11 6q4 0 12 -6l20 -16q7 -6 7 -11q0 -4 -5 -11q-54 -79 -115 -79q-19 0 -34.5 6t-28.5 17l-18 15
q-15 14 -33 14q-28 0 -58 -42q-6 -8 -12 -8t-17 8z" />
    <glyph glyph-name="Ncommaaccent" unicode="&#x145;" horiz-adv-x="622" 
d="M493 20q-2 -12 -8.5 -16t-19.5 -4h-62q-16 0 -23.5 4t-10.5 14l-166 495h-5l-97 -494q-2 -11 -7 -15t-17 -4h-53q-15 0 -15 12q0 6 2.5 17t5.5 27l112 571q2 13 8.5 16.5t22.5 3.5h63q15 0 21.5 -4.5t10.5 -16.5l164 -495h5l97 497q2 11 7 15t17 4h51q17 0 17 -10
q0 -6 -2 -14.5t-4 -21.5zM252 -66q18 0 30 -9t12 -32q0 -18 -5 -35.5t-17 -37.5q-14 -23 -33.5 -46.5t-42.5 -43.5q-7 -5 -11 -5q-5 0 -13 7l-11 9q-7 6 -7 10t7 11q6 6 15 15.5t16 17.5q11 14 15.5 20.5t4.5 9.5q0 6 -8 11l-4 3q-14 9 -14 28q0 9 2 19.5t4 15.5
q13 32 52 32h8z" />
    <glyph glyph-name="Eng" unicode="&#x14a;" horiz-adv-x="623" 
d="M101 19q-2 -11 -7 -15t-17 -4h-53q-15 0 -15 12q0 6 2.5 18t5.5 26l112 571q2 13 8.5 16.5t22.5 3.5h63q15 0 21.5 -4.5t10.5 -16.5l162 -508h5l99 510q2 11 7 15t17 4h51q17 0 17 -10q0 -6 -2 -16l-4 -20l-117 -601q-10 -50 -22.5 -85.5t-34.5 -59t-55 -34.5t-84 -11
h-43q-18 0 -18 11q0 3 1 9.5t3 18.5l4 20q2 11 6.5 15t16.5 4h35q41 0 63 15.5t33 63.5l8 33q-25 0 -37.5 6t-17.5 24l-148 473h-5z" />
    <glyph glyph-name="Ograve" unicode="&#xd2;" horiz-adv-x="603" 
d="M532 257q-17 -74 -41 -125t-58 -82.5t-80.5 -45t-108.5 -13.5q-100 0 -152.5 42t-52.5 131q0 42 8 97.5t22 124.5q16 79 39 131t57.5 83t82 43.5t113.5 12.5q96 0 149.5 -41.5t53.5 -133.5q0 -36 -8.5 -96.5t-23.5 -127.5zM466 466q0 60 -27 84.5t-90 24.5
q-71 0 -106 -29q-14 -11 -25 -26t-21 -36t-18 -50t-16 -68q-11 -53 -18 -100t-7 -88q0 -54 26 -80t88 -26q40 0 68.5 9.5t49.5 31.5t36.5 58.5t27.5 90.5q7 29 12.5 58t10 56t7 50t2.5 40zM464 762q12 -5 12 -11q0 -4 -2 -8.5t-5 -11.5l-9 -22q-5 -10 -12 -10q-6 0 -13 3
l-194 64q-13 4 -13 14q0 9 7 26l10 27q5 11 8 14t8 3q4 0 8 -1.5t13 -5.5z" />
    <glyph glyph-name="Oacute" unicode="&#xd3;" horiz-adv-x="603" 
d="M532 257q-17 -74 -41 -125t-58 -82.5t-80.5 -45t-108.5 -13.5q-100 0 -152.5 42t-52.5 131q0 42 8 97.5t22 124.5q16 79 39 131t57.5 83t82 43.5t113.5 12.5q96 0 149.5 -41.5t53.5 -133.5q0 -36 -8.5 -96.5t-23.5 -127.5zM466 466q0 60 -27 84.5t-90 24.5
q-71 0 -106 -29q-14 -11 -25 -26t-21 -36t-18 -50t-16 -68q-11 -53 -18 -100t-7 -88q0 -54 26 -80t88 -26q40 0 68.5 9.5t49.5 31.5t36.5 58.5t27.5 90.5q7 29 12.5 58t10 56t7 50t2.5 40zM470 843q9 4 13 5.5t8 1.5q5 0 8 -3t8 -14l10 -27q7 -17 7 -26q0 -10 -13 -14
l-194 -64q-8 -3 -13 -3q-7 0 -12 10l-9 22q-3 7 -5 11.5t-2 8.5q0 6 12 11z" />
    <glyph glyph-name="Ocircumflex" unicode="&#xd4;" horiz-adv-x="603" 
d="M532 257q-17 -74 -41 -125t-58 -82.5t-80.5 -45t-108.5 -13.5q-100 0 -152.5 42t-52.5 131q0 42 8 97.5t22 124.5q16 79 39 131t57.5 83t82 43.5t113.5 12.5q96 0 149.5 -41.5t53.5 -133.5q0 -36 -8.5 -96.5t-23.5 -127.5zM466 466q0 60 -27 84.5t-90 24.5
q-71 0 -106 -29q-14 -11 -25 -26t-21 -36t-18 -50t-16 -68q-11 -53 -18 -100t-7 -88q0 -54 26 -80t88 -26q40 0 68.5 9.5t49.5 31.5t36.5 58.5t27.5 90.5q7 29 12.5 58t10 56t7 50t2.5 40zM414 859q7 0 11 -1.5t9 -7.5l80 -114q8 -11 8 -17t-10 -13l-17 -11q-12 -8 -18 -8
q-7 0 -15 9l-72 84h-4l-98 -82q-6 -5 -12 -9t-11 -4q-6 0 -10 2.5t-10 7.5l-13 12q-10 9 -10 15q0 5 4 9.5t10 10.5l113 108q6 5 10.5 7t12.5 2h42z" />
    <glyph glyph-name="Otilde" unicode="&#xd5;" horiz-adv-x="603" 
d="M532 257q-17 -74 -41 -125t-58 -82.5t-80.5 -45t-108.5 -13.5q-100 0 -152.5 42t-52.5 131q0 42 8 97.5t22 124.5q16 79 39 131t57.5 83t82 43.5t113.5 12.5q96 0 149.5 -41.5t53.5 -133.5q0 -36 -8.5 -96.5t-23.5 -127.5zM466 466q0 60 -27 84.5t-90 24.5
q-71 0 -106 -29q-14 -11 -25 -26t-21 -36t-18 -50t-16 -68q-11 -53 -18 -100t-7 -88q0 -54 26 -80t88 -26q40 0 68.5 9.5t49.5 31.5t36.5 58.5t27.5 90.5q7 29 12.5 58t10 56t7 50t2.5 40zM221 730q-5 4 -6.5 6.5t-1.5 5.5q0 4 5 12q26 44 56 62.5t62 18.5q31 0 60 -23
l18 -15q9 -8 16.5 -11.5t18.5 -3.5q16 0 29 12t29 32q4 6 11 6q4 0 12 -6l20 -16q7 -6 7 -11q0 -4 -5 -11q-54 -79 -115 -79q-19 0 -34.5 6t-28.5 17l-18 15q-15 14 -33 14q-28 0 -58 -42q-6 -8 -12 -8t-17 8z" />
    <glyph glyph-name="Odieresis" unicode="&#xd6;" horiz-adv-x="603" 
d="M532 257q-17 -74 -41 -125t-58 -82.5t-80.5 -45t-108.5 -13.5q-100 0 -152.5 42t-52.5 131q0 42 8 97.5t22 124.5q16 79 39 131t57.5 83t82 43.5t113.5 12.5q96 0 149.5 -41.5t53.5 -133.5q0 -36 -8.5 -96.5t-23.5 -127.5zM466 466q0 60 -27 84.5t-90 24.5
q-71 0 -106 -29q-14 -11 -25 -26t-21 -36t-18 -50t-16 -68q-11 -53 -18 -100t-7 -88q0 -54 26 -80t88 -26q40 0 68.5 9.5t49.5 31.5t36.5 58.5t27.5 90.5q7 29 12.5 58t10 56t7 50t2.5 40zM318 835q20 0 31.5 -9t11.5 -27q0 -5 -1 -12.5t-4 -21.5q-5 -22 -20 -32t-38 -10h-8
q-20 0 -31 8.5t-11 25.5q0 5 0.5 12.5t4.5 24.5q5 21 20 31t37 10h8zM481 835q20 0 31.5 -9t11.5 -27q0 -5 -1 -12.5t-4 -21.5q-5 -22 -20 -32t-38 -10h-8q-20 0 -31 8.5t-11 25.5q0 5 0.5 12.5t4.5 24.5q5 21 20 31t37 10h8z" />
    <glyph glyph-name="Omacron" unicode="&#x14c;" horiz-adv-x="603" 
d="M532 257q-17 -74 -41 -125t-58 -82.5t-80.5 -45t-108.5 -13.5q-100 0 -152.5 42t-52.5 131q0 42 8 97.5t22 124.5q16 79 39 131t57.5 83t82 43.5t113.5 12.5q96 0 149.5 -41.5t53.5 -133.5q0 -36 -8.5 -96.5t-23.5 -127.5zM466 466q0 60 -27 84.5t-90 24.5
q-71 0 -106 -29q-14 -11 -25 -26t-21 -36t-18 -50t-16 -68q-11 -53 -18 -100t-7 -88q0 -54 26 -80t88 -26q40 0 68.5 9.5t49.5 31.5t36.5 58.5t27.5 90.5q7 29 12.5 58t10 56t7 50t2.5 40zM509 803q14 0 14 -10q0 -6 -4 -25l-5 -23q-2 -9 -6 -12t-16 -3h-223q-14 0 -14 10
q0 6 4 25l5 23q2 9 6 12t16 3h223z" />
    <glyph glyph-name="Obreve" unicode="&#x14e;" horiz-adv-x="603" 
d="M532 257q-17 -74 -41 -125t-58 -82.5t-80.5 -45t-108.5 -13.5q-100 0 -152.5 42t-52.5 131q0 42 8 97.5t22 124.5q16 79 39 131t57.5 83t82 43.5t113.5 12.5q96 0 149.5 -41.5t53.5 -133.5q0 -36 -8.5 -96.5t-23.5 -127.5zM466 466q0 60 -27 84.5t-90 24.5
q-71 0 -106 -29q-14 -11 -25 -26t-21 -36t-18 -50t-16 -68q-11 -53 -18 -100t-7 -88q0 -54 26 -80t88 -26q40 0 68.5 9.5t49.5 31.5t36.5 58.5t27.5 90.5q7 29 12.5 58t10 56t7 50t2.5 40zM385 698q-51 0 -83.5 26t-47.5 70q-2 5 -3.5 11.5t-1.5 11.5q0 8 9 12l36 12
q5 2 9 3t7 1q7 0 10 -11q10 -37 27.5 -53t45.5 -16q32 0 55 19.5t41 53.5q5 8 11 8q5 0 8.5 -1.5t13.5 -6.5l14 -7q10 -5 13 -8t3 -8t-7 -18q-28 -48 -65 -73.5t-95 -25.5z" />
    <glyph glyph-name="Ohungarumlaut" unicode="&#x150;" horiz-adv-x="603" 
d="M532 257q-17 -74 -41 -125t-58 -82.5t-80.5 -45t-108.5 -13.5q-100 0 -152.5 42t-52.5 131q0 42 8 97.5t22 124.5q16 79 39 131t57.5 83t82 43.5t113.5 12.5q96 0 149.5 -41.5t53.5 -133.5q0 -36 -8.5 -96.5t-23.5 -127.5zM466 466q0 60 -27 84.5t-90 24.5
q-71 0 -106 -29q-14 -11 -25 -26t-21 -36t-18 -50t-16 -68q-11 -53 -18 -100t-7 -88q0 -54 26 -80t88 -26q40 0 68.5 9.5t49.5 31.5t36.5 58.5t27.5 90.5q7 29 12.5 58t10 56t7 50t2.5 40zM382 865q11 8 17 8q8 0 15 -10l20 -30q8 -12 8 -18q0 -8 -12 -15l-168 -105
q-11 -7 -17 -7q-7 0 -14 10l-11 15q-9 12 -9 18q0 8 8 15zM591 865q11 8 17 8q8 0 15 -10l20 -30q8 -12 8 -18q0 -8 -12 -15l-168 -105q-11 -7 -17 -7q-7 0 -14 10l-11 15q-9 12 -9 18q0 8 8 15z" />
    <glyph glyph-name="Oslash" unicode="&#xd8;" horiz-adv-x="603" 
d="M532 257q-17 -74 -41 -125t-58 -82.5t-80.5 -45t-108.5 -13.5q-69 0 -117 20l-51 -74q-7 -11 -13 -11q-2 0 -5.5 1.5t-12.5 6.5l-20 12q-9 6 -9 11q0 6 5 12l55 79q-37 41 -37 116q0 42 8 97.5t22 124.5q16 79 39 131t57.5 83t82 43.5t113.5 12.5q73 0 118 -22l56 81
q5 8 12 8q4 0 11 -4l20 -12q10 -6 13 -8.5t3 -5.5q0 -5 -4 -10l-61 -88q35 -41 35 -114q0 -36 -8.5 -96.5t-23.5 -127.5zM138 178q0 -20 3 -35l286 415q-26 17 -78 17q-71 0 -106 -29q-14 -11 -25 -26t-21 -36t-18 -50t-16 -68q-11 -53 -18 -100t-7 -88zM466 466q0 18 -3 33
l-284 -412q27 -15 73 -15q40 0 68.5 9.5t49.5 31.5t36.5 58.5t27.5 90.5q7 29 12.5 58t10 56t7 50t2.5 40z" />
    <glyph glyph-name="Oslashacute" unicode="&#x1fe;" horiz-adv-x="603" 
d="M532 257q-17 -74 -41 -125t-58 -82.5t-80.5 -45t-108.5 -13.5q-69 0 -117 20l-51 -74q-7 -11 -13 -11q-2 0 -5.5 1.5t-12.5 6.5l-20 12q-9 6 -9 11q0 6 5 12l55 79q-37 41 -37 116q0 42 8 97.5t22 124.5q16 79 39 131t57.5 83t82 43.5t113.5 12.5q73 0 118 -22l56 81
q5 8 12 8q4 0 11 -4l20 -12q10 -6 13 -8.5t3 -5.5q0 -5 -4 -10l-61 -88q35 -41 35 -114q0 -36 -8.5 -96.5t-23.5 -127.5zM138 178q0 -20 3 -35l286 415q-26 17 -78 17q-71 0 -106 -29q-14 -11 -25 -26t-21 -36t-18 -50t-16 -68q-11 -53 -18 -100t-7 -88zM466 466q0 18 -3 33
l-284 -412q27 -15 73 -15q40 0 68.5 9.5t49.5 31.5t36.5 58.5t27.5 90.5q7 29 12.5 58t10 56t7 50t2.5 40zM470 843q9 4 13 5.5t8 1.5q5 0 8 -3t8 -14l10 -27q7 -17 7 -26q0 -10 -13 -14l-194 -64q-8 -3 -13 -3q-7 0 -12 10l-9 22q-3 7 -5 11.5t-2 8.5q0 6 12 11z" />
    <glyph glyph-name="OE" unicode="&#x152;" horiz-adv-x="852" 
d="M514 293q-6 -31 -11.5 -60t-9.5 -53.5t-6.5 -42t-2.5 -25.5q0 -17 8.5 -24t34.5 -7h220q14 0 14 -10q0 -4 -1.5 -11.5t-3.5 -21.5l-4 -21q-3 -17 -23 -17h-243q-34 0 -57 9.5t-34 32.5q-27 -25 -65.5 -38t-91.5 -13q-97 0 -148 42t-51 131q0 42 8 97.5t22 124.5
q16 79 40 131t56.5 83t74.5 43.5t93 12.5q55 0 95.5 -15t66.5 -38q18 26 48 35t79 9h220q14 0 14 -10q0 -4 -1.5 -11.5t-3.5 -21.5l-4 -21q-3 -17 -23 -17h-210q-40 0 -50 -38q-9 -35 -17.5 -76.5t-16.5 -77.5h237q14 0 14 -10q0 -4 -1.5 -11.5t-3.5 -21.5l-4 -21
q-3 -17 -23 -17h-235zM254 72q45 0 78 16t56 44q2 12 4 26.5t6 32.5q16 85 33 170t36 166q-23 23 -54.5 35.5t-67.5 12.5q-37 0 -61 -7.5t-41 -21.5q-14 -11 -25 -26t-21 -36t-18 -50t-16 -68q-11 -53 -18 -100t-7 -88q0 -54 27 -80t89 -26z" />
    <glyph glyph-name="Thorn" unicode="&#xde;" horiz-adv-x="526" 
d="M128 626q2 13 8 17t18 4h56q16 0 16 -12q0 -6 -4 -26l-16 -80q17 0 35.5 0.5t40.5 0.5q100 0 153 -34.5t53 -113.5q0 -24 -5 -59t-16 -67q-26 -74 -88 -109.5t-174 -35.5h-41t-40 1l-17 -91q-2 -13 -8 -17t-18 -4h-56q-16 0 -16 12q0 6 4 26zM270 449h-40t-40 -1
l-50 -254q20 -1 35.5 -1h34.5q69 0 109 21.5t57 72.5q8 24 11 44t3 37q0 48 -30.5 64.5t-89.5 16.5z" />
    <glyph glyph-name="Racute" unicode="&#x154;" horiz-adv-x="533" 
d="M127 619q3 15 9.5 21t22.5 8q24 4 61 6t79 2q109 0 159.5 -33.5t50.5 -109.5q0 -44 -11 -88q-34 -124 -150 -148l86 -209q11 -26 16 -38t5 -18q0 -12 -17 -12h-60q-14 0 -21 4.5t-12 17.5l-86 231q-3 8 -6.5 10t-11.5 2h-43.5t-42.5 1l-48 -247q-2 -12 -7.5 -15.5
t-17.5 -3.5h-56q-11 0 -14.5 4t-1.5 15zM229 572q-8 -1 -11.5 -4t-5.5 -14l-41 -207q19 -1 36.5 -1.5t36.5 -0.5q67 0 102.5 19.5t52.5 72.5q5 14 7 32t2 32q0 44 -28.5 59t-85.5 15q-25 0 -39.5 -0.5t-25.5 -2.5zM430 843q9 4 13 5.5t8 1.5q5 0 8 -3t8 -14l10 -27
q7 -17 7 -26q0 -10 -13 -14l-194 -64q-8 -3 -13 -3q-7 0 -12 10l-9 22q-3 7 -5 11.5t-2 8.5q0 6 12 11z" />
    <glyph glyph-name="Rcaron" unicode="&#x158;" horiz-adv-x="533" 
d="M127 619q3 15 9.5 21t22.5 8q24 4 61 6t79 2q109 0 159.5 -33.5t50.5 -109.5q0 -44 -11 -88q-34 -124 -150 -148l86 -209q11 -26 16 -38t5 -18q0 -12 -17 -12h-60q-14 0 -21 4.5t-12 17.5l-86 231q-3 8 -6.5 10t-11.5 2h-43.5t-42.5 1l-48 -247q-2 -12 -7.5 -15.5
t-17.5 -3.5h-56q-11 0 -14.5 4t-1.5 15zM229 572q-8 -1 -11.5 -4t-5.5 -14l-41 -207q19 -1 36.5 -1.5t36.5 -0.5q67 0 102.5 19.5t52.5 72.5q5 14 7 32t2 32q0 44 -28.5 59t-85.5 15q-25 0 -39.5 -0.5t-25.5 -2.5zM303 702q-14 0 -20 10l-76 109q-6 9 -8.5 12.5t-2.5 8.5
t2.5 7.5t7.5 5.5l25 17q8 5 13 5t11 -7l75 -89h4l105 89q8 7 15 7t13 -8l16 -17q9 -10 9 -16q0 -5 -8 -13l-116 -111q-5 -5 -9.5 -7.5t-13.5 -2.5h-42z" />
    <glyph glyph-name="Rcommaaccent" unicode="&#x156;" horiz-adv-x="533" 
d="M127 619q3 15 9.5 21t22.5 8q24 4 61 6t79 2q109 0 159.5 -33.5t50.5 -109.5q0 -44 -11 -88q-34 -124 -150 -148l86 -209q11 -26 16 -38t5 -18q0 -12 -17 -12h-60q-14 0 -21 4.5t-12 17.5l-86 231q-3 8 -6.5 10t-11.5 2h-43.5t-42.5 1l-48 -247q-2 -12 -7.5 -15.5
t-17.5 -3.5h-56q-11 0 -14.5 4t-1.5 15zM229 572q-8 -1 -11.5 -4t-5.5 -14l-41 -207q19 -1 36.5 -1.5t36.5 -0.5q67 0 102.5 19.5t52.5 72.5q5 14 7 32t2 32q0 44 -28.5 59t-85.5 15q-25 0 -39.5 -0.5t-25.5 -2.5zM219 -66q18 0 30 -9t12 -32q0 -18 -5 -35.5t-17 -37.5
q-14 -23 -33.5 -46.5t-42.5 -43.5q-7 -5 -11 -5q-5 0 -13 7l-11 9q-7 6 -7 10t7 11q6 6 15 15.5t16 17.5q11 14 15.5 20.5t4.5 9.5q0 6 -8 11l-4 3q-14 9 -14 28q0 9 2 19.5t4 15.5q13 32 52 32h8z" />
    <glyph glyph-name="Sacute" unicode="&#x15a;" horiz-adv-x="498" 
d="M196 -9q-56 0 -103.5 8.5t-78.5 20.5q-15 5 -15 15q0 5 1.5 11t4.5 19l6 23q4 15 14 15q5 0 9 -1.5t9 -3.5q31 -12 69.5 -19.5t79.5 -7.5q55 0 88 16.5t46 55.5q11 31 11 63t-16 47t-62 26l-64 16q-35 9 -59 21t-38.5 29t-20.5 40t-6 53q0 25 5.5 52.5t14.5 52.5
q21 59 72.5 86t140.5 27q46 0 86 -7t70 -16q12 -4 12 -13q0 -5 -1.5 -11t-6.5 -20l-9 -26q-5 -12 -14 -12q-5 0 -10 1t-10 3q-21 7 -55.5 13t-67.5 6q-55 0 -81.5 -15t-38.5 -50q-5 -12 -7.5 -29t-2.5 -37q0 -25 14.5 -39t55.5 -25l67 -17q38 -10 63 -21.5t40 -27.5
t21.5 -37.5t6.5 -50.5q0 -20 -4.5 -47t-13.5 -54q-24 -73 -77 -103t-145 -30zM415 843q9 4 13 5.5t8 1.5q5 0 8 -3t8 -14l10 -27q7 -17 7 -26q0 -10 -13 -14l-194 -64q-8 -3 -13 -3q-7 0 -12 10l-9 22q-3 7 -5 11.5t-2 8.5q0 6 12 11z" />
    <glyph glyph-name="Scircumflex" unicode="&#x15c;" horiz-adv-x="498" 
d="M196 -9q-56 0 -103.5 8.5t-78.5 20.5q-15 5 -15 15q0 5 1.5 11t4.5 19l6 23q4 15 14 15q5 0 9 -1.5t9 -3.5q31 -12 69.5 -19.5t79.5 -7.5q55 0 88 16.5t46 55.5q11 31 11 63t-16 47t-62 26l-64 16q-35 9 -59 21t-38.5 29t-20.5 40t-6 53q0 25 5.5 52.5t14.5 52.5
q21 59 72.5 86t140.5 27q46 0 86 -7t70 -16q12 -4 12 -13q0 -5 -1.5 -11t-6.5 -20l-9 -26q-5 -12 -14 -12q-5 0 -10 1t-10 3q-21 7 -55.5 13t-67.5 6q-55 0 -81.5 -15t-38.5 -50q-5 -12 -7.5 -29t-2.5 -37q0 -25 14.5 -39t55.5 -25l67 -17q38 -10 63 -21.5t40 -27.5
t21.5 -37.5t6.5 -50.5q0 -20 -4.5 -47t-13.5 -54q-24 -73 -77 -103t-145 -30zM353 859q7 0 11 -1.5t9 -7.5l80 -114q8 -11 8 -17t-10 -13l-17 -11q-12 -8 -18 -8q-7 0 -15 9l-72 84h-4l-98 -82q-6 -5 -12 -9t-11 -4q-6 0 -10 2.5t-10 7.5l-13 12q-10 9 -10 15q0 5 4 9.5
t10 10.5l113 108q6 5 10.5 7t12.5 2h42z" />
    <glyph glyph-name="Scaron" unicode="&#x160;" horiz-adv-x="498" 
d="M196 -9q-56 0 -103.5 8.5t-78.5 20.5q-15 5 -15 15q0 5 1.5 11t4.5 19l6 23q4 15 14 15q5 0 9 -1.5t9 -3.5q31 -12 69.5 -19.5t79.5 -7.5q55 0 88 16.5t46 55.5q11 31 11 63t-16 47t-62 26l-64 16q-35 9 -59 21t-38.5 29t-20.5 40t-6 53q0 25 5.5 52.5t14.5 52.5
q21 59 72.5 86t140.5 27q46 0 86 -7t70 -16q12 -4 12 -13q0 -5 -1.5 -11t-6.5 -20l-9 -26q-5 -12 -14 -12q-5 0 -10 1t-10 3q-21 7 -55.5 13t-67.5 6q-55 0 -81.5 -15t-38.5 -50q-5 -12 -7.5 -29t-2.5 -37q0 -25 14.5 -39t55.5 -25l67 -17q38 -10 63 -21.5t40 -27.5
t21.5 -37.5t6.5 -50.5q0 -20 -4.5 -47t-13.5 -54q-24 -73 -77 -103t-145 -30zM284 702q-14 0 -20 10l-76 109q-6 9 -8.5 12.5t-2.5 8.5t2.5 7.5t7.5 5.5l25 17q8 5 13 5t11 -7l75 -89h4l105 89q8 7 15 7t13 -8l16 -17q9 -10 9 -16q0 -5 -8 -13l-116 -111q-5 -5 -9.5 -7.5
t-13.5 -2.5h-42z" />
    <glyph glyph-name="Scedilla" unicode="&#x15e;" horiz-adv-x="498" 
d="M194 -62q8 2 17 3t18 1q29 0 46.5 -16.5t17.5 -46.5q0 -57 -33.5 -85.5t-90.5 -28.5q-23 0 -48 4t-41 10q-9 4 -9 10q0 3 4 14l7 18q4 11 9 11q3 0 5 -0.5t5 -1.5q14 -5 31 -7.5t30 -2.5q31 0 44.5 11t13.5 34t-31 23q-10 0 -18.5 -1t-13.5 -2t-9 -1.5t-7 -0.5
q-7 0 -11 7l-4 7q-4 8 -4 12q0 3 1.5 7t6.5 15l27 60v1q-44 3 -81 10.5t-62 17.5q-15 5 -15 15q0 5 1.5 11t4.5 19l6 23q4 15 14 15q5 0 9 -1.5t9 -3.5q31 -12 69.5 -19.5t79.5 -7.5q55 0 88 16.5t46 55.5q11 31 11 63t-16 47t-62 26l-64 16q-35 9 -59 21t-38.5 29t-20.5 40
t-6 53q0 25 5.5 52.5t14.5 52.5q21 59 72.5 86t140.5 27q46 0 86 -7t70 -16q12 -4 12 -13q0 -5 -1.5 -11t-6.5 -20l-9 -26q-5 -12 -14 -12q-5 0 -10 1t-10 3q-21 7 -55.5 13t-67.5 6q-55 0 -81.5 -15t-38.5 -50q-5 -12 -7.5 -29t-2.5 -37q0 -25 14.5 -39t55.5 -25l67 -17
q38 -10 63 -21.5t40 -27.5t21.5 -37.5t6.5 -50.5q0 -20 -4.5 -47t-13.5 -54q-23 -68 -70.5 -98.5t-128.5 -33.5z" />
    <glyph glyph-name="Scommaaccent" unicode="&#x218;" horiz-adv-x="498" 
d="M196 -9q-56 0 -103.5 8.5t-78.5 20.5q-15 5 -15 15q0 5 1.5 11t4.5 19l6 23q4 15 14 15q5 0 9 -1.5t9 -3.5q31 -12 69.5 -19.5t79.5 -7.5q55 0 88 16.5t46 55.5q11 31 11 63t-16 47t-62 26l-64 16q-35 9 -59 21t-38.5 29t-20.5 40t-6 53q0 25 5.5 52.5t14.5 52.5
q21 59 72.5 86t140.5 27q46 0 86 -7t70 -16q12 -4 12 -13q0 -5 -1.5 -11t-6.5 -20l-9 -26q-5 -12 -14 -12q-5 0 -10 1t-10 3q-21 7 -55.5 13t-67.5 6q-55 0 -81.5 -15t-38.5 -50q-5 -12 -7.5 -29t-2.5 -37q0 -25 14.5 -39t55.5 -25l67 -17q38 -10 63 -21.5t40 -27.5
t21.5 -37.5t6.5 -50.5q0 -20 -4.5 -47t-13.5 -54q-24 -73 -77 -103t-145 -30zM194 -66q18 0 30 -9t12 -32q0 -18 -5 -35.5t-17 -37.5q-14 -23 -33.5 -46.5t-42.5 -43.5q-7 -5 -11 -5q-5 0 -13 7l-11 9q-7 6 -7 10t7 11q6 6 15 15.5t16 17.5q11 14 15.5 20.5t4.5 9.5
q0 6 -8 11l-4 3q-14 9 -14 28q0 9 2 19.5t4 15.5q13 32 52 32h8z" />
    <glyph glyph-name="Tcaron" unicode="&#x164;" horiz-adv-x="472" 
d="M234 566h-159q-14 0 -14 10q0 5 1.5 12t3.5 19l4 21q2 11 6.5 15t15.5 4h411q14 0 14 -11q0 -7 -5 -30l-4 -22q-2 -11 -6.5 -14.5t-15.5 -3.5h-156l-107 -547q-2 -12 -7.5 -15.5t-17.5 -3.5h-56q-17 0 -17 10q0 4 1 9.5t3 13.5zM282 702q-14 0 -20 10l-76 109
q-6 9 -8.5 12.5t-2.5 8.5t2.5 7.5t7.5 5.5l25 17q8 5 13 5t11 -7l75 -89h4l105 89q8 7 15 7t13 -8l16 -17q9 -10 9 -16q0 -5 -8 -13l-116 -111q-5 -5 -9.5 -7.5t-13.5 -2.5h-42z" />
    <glyph glyph-name="Tcommaaccent" unicode="&#x162;" horiz-adv-x="472" 
d="M234 566h-159q-14 0 -14 10q0 5 1.5 12t3.5 19l4 21q2 11 6.5 15t15.5 4h411q14 0 14 -11q0 -7 -5 -30l-4 -22q-2 -11 -6.5 -14.5t-15.5 -3.5h-156l-107 -547q-2 -12 -7.5 -15.5t-17.5 -3.5h-56q-17 0 -17 10q0 4 1 9.5t3 13.5zM160 -66q18 0 30 -9t12 -32
q0 -18 -5 -35.5t-17 -37.5q-14 -23 -33.5 -46.5t-42.5 -43.5q-7 -5 -11 -5q-5 0 -13 7l-11 9q-7 6 -7 10t7 11q6 6 15 15.5t16 17.5q11 14 15.5 20.5t4.5 9.5q0 6 -8 11l-4 3q-14 9 -14 28q0 9 2 19.5t4 15.5q13 32 52 32h8z" />
    <glyph glyph-name="uni021A" unicode="&#x21a;" horiz-adv-x="472" 
d="M234 566h-159q-14 0 -14 10q0 5 1.5 12t3.5 19l4 21q2 11 6.5 15t15.5 4h411q14 0 14 -11q0 -7 -5 -30l-4 -22q-2 -11 -6.5 -14.5t-15.5 -3.5h-156l-107 -547q-2 -12 -7.5 -15.5t-17.5 -3.5h-56q-17 0 -17 10q0 4 1 9.5t3 13.5zM160 -66q18 0 30 -9t12 -32
q0 -18 -5 -35.5t-17 -37.5q-14 -23 -33.5 -46.5t-42.5 -43.5q-7 -5 -11 -5q-5 0 -13 7l-11 9q-7 6 -7 10t7 11q6 6 15 15.5t16 17.5q11 14 15.5 20.5t4.5 9.5q0 6 -8 11l-4 3q-14 9 -14 28q0 9 2 19.5t4 15.5q13 32 52 32h8z" />
    <glyph glyph-name="Tbar" unicode="&#x166;" horiz-adv-x="472" 
d="M180 293h-110q-17 0 -17 11q0 3 1 10.5t3 15.5l4 22q2 9 6 12t14 3h113l40 199h-159q-14 0 -14 10q0 5 1.5 12t3.5 19l4 21q2 11 6.5 15t15.5 4h411q14 0 14 -11q0 -7 -5 -30l-4 -22q-2 -11 -6.5 -14.5t-15.5 -3.5h-156l-39 -199h112q17 0 17 -11q0 -3 -1 -10.5t-3 -15.5
l-4 -22q-2 -9 -6 -12t-14 -3h-116l-53 -274q-2 -12 -7.5 -15.5t-17.5 -3.5h-56q-17 0 -17 10q0 4 1 9.5t3 13.5z" />
    <glyph glyph-name="Ugrave" unicode="&#xd9;" horiz-adv-x="599" 
d="M494 626q2 13 8 17t18 4h57q16 0 16 -12q0 -6 -4 -26l-77 -395q-12 -62 -31.5 -104.5t-51 -68.5t-76.5 -38t-108 -12q-103 0 -156 37.5t-53 113.5q0 14 3 42t11 66l72 376q2 13 8 17t18 4h57q16 0 16 -12q0 -6 -4 -26l-71 -371q-5 -27 -9 -48t-4 -38q0 -41 28.5 -60.5
t94.5 -19.5q34 0 60 8t45.5 25.5t32.5 46t21 69.5zM456 762q12 -5 12 -11q0 -4 -2 -8.5t-5 -11.5l-9 -22q-5 -10 -12 -10q-6 0 -13 3l-194 64q-13 4 -13 14q0 9 7 26l10 27q5 11 8 14t8 3q4 0 8 -1.5t13 -5.5z" />
    <glyph glyph-name="Uacute" unicode="&#xda;" horiz-adv-x="599" 
d="M494 626q2 13 8 17t18 4h57q16 0 16 -12q0 -6 -4 -26l-77 -395q-12 -62 -31.5 -104.5t-51 -68.5t-76.5 -38t-108 -12q-103 0 -156 37.5t-53 113.5q0 14 3 42t11 66l72 376q2 13 8 17t18 4h57q16 0 16 -12q0 -6 -4 -26l-71 -371q-5 -27 -9 -48t-4 -38q0 -41 28.5 -60.5
t94.5 -19.5q34 0 60 8t45.5 25.5t32.5 46t21 69.5zM464 843q9 4 13 5.5t8 1.5q5 0 8 -3t8 -14l10 -27q7 -17 7 -26q0 -10 -13 -14l-194 -64q-8 -3 -13 -3q-7 0 -12 10l-9 22q-3 7 -5 11.5t-2 8.5q0 6 12 11z" />
    <glyph glyph-name="Ucircumflex" unicode="&#xdb;" horiz-adv-x="599" 
d="M494 626q2 13 8 17t18 4h57q16 0 16 -12q0 -6 -4 -26l-77 -395q-12 -62 -31.5 -104.5t-51 -68.5t-76.5 -38t-108 -12q-103 0 -156 37.5t-53 113.5q0 14 3 42t11 66l72 376q2 13 8 17t18 4h57q16 0 16 -12q0 -6 -4 -26l-71 -371q-5 -27 -9 -48t-4 -38q0 -41 28.5 -60.5
t94.5 -19.5q34 0 60 8t45.5 25.5t32.5 46t21 69.5zM412 859q7 0 11 -1.5t9 -7.5l80 -114q8 -11 8 -17t-10 -13l-17 -11q-12 -8 -18 -8q-7 0 -15 9l-72 84h-4l-98 -82q-6 -5 -12 -9t-11 -4q-6 0 -10 2.5t-10 7.5l-13 12q-10 9 -10 15q0 5 4 9.5t10 10.5l113 108q6 5 10.5 7
t12.5 2h42z" />
    <glyph glyph-name="Utilde" unicode="&#x168;" horiz-adv-x="599" 
d="M494 626q2 13 8 17t18 4h57q16 0 16 -12q0 -6 -4 -26l-77 -395q-12 -62 -31.5 -104.5t-51 -68.5t-76.5 -38t-108 -12q-103 0 -156 37.5t-53 113.5q0 14 3 42t11 66l72 376q2 13 8 17t18 4h57q16 0 16 -12q0 -6 -4 -26l-71 -371q-5 -27 -9 -48t-4 -38q0 -41 28.5 -60.5
t94.5 -19.5q34 0 60 8t45.5 25.5t32.5 46t21 69.5zM216 730q-5 4 -6.5 6.5t-1.5 5.5q0 4 5 12q26 44 56 62.5t62 18.5q31 0 60 -23l18 -15q9 -8 16.5 -11.5t18.5 -3.5q16 0 29 12t29 32q4 6 11 6q4 0 12 -6l20 -16q7 -6 7 -11q0 -4 -5 -11q-54 -79 -115 -79q-19 0 -34.5 6
t-28.5 17l-18 15q-15 14 -33 14q-28 0 -58 -42q-6 -8 -12 -8t-17 8z" />
    <glyph glyph-name="Udieresis" unicode="&#xdc;" horiz-adv-x="599" 
d="M494 626q2 13 8 17t18 4h57q16 0 16 -12q0 -6 -4 -26l-77 -395q-12 -62 -31.5 -104.5t-51 -68.5t-76.5 -38t-108 -12q-103 0 -156 37.5t-53 113.5q0 14 3 42t11 66l72 376q2 13 8 17t18 4h57q16 0 16 -12q0 -6 -4 -26l-71 -371q-5 -27 -9 -48t-4 -38q0 -41 28.5 -60.5
t94.5 -19.5q34 0 60 8t45.5 25.5t32.5 46t21 69.5zM311 835q20 0 31.5 -9t11.5 -27q0 -5 -1 -12.5t-4 -21.5q-5 -22 -20 -32t-38 -10h-8q-20 0 -31 8.5t-11 25.5q0 5 0.5 12.5t4.5 24.5q5 21 20 31t37 10h8zM474 835q20 0 31.5 -9t11.5 -27q0 -5 -1 -12.5t-4 -21.5
q-5 -22 -20 -32t-38 -10h-8q-20 0 -31 8.5t-11 25.5q0 5 0.5 12.5t4.5 24.5q5 21 20 31t37 10h8z" />
    <glyph glyph-name="Umacron" unicode="&#x16a;" horiz-adv-x="599" 
d="M494 626q2 13 8 17t18 4h57q16 0 16 -12q0 -6 -4 -26l-77 -395q-12 -62 -31.5 -104.5t-51 -68.5t-76.5 -38t-108 -12q-103 0 -156 37.5t-53 113.5q0 14 3 42t11 66l72 376q2 13 8 17t18 4h57q16 0 16 -12q0 -6 -4 -26l-71 -371q-5 -27 -9 -48t-4 -38q0 -41 28.5 -60.5
t94.5 -19.5q34 0 60 8t45.5 25.5t32.5 46t21 69.5zM503 803q14 0 14 -10q0 -6 -4 -25l-5 -23q-2 -9 -6 -12t-16 -3h-223q-14 0 -14 10q0 6 4 25l5 23q2 9 6 12t16 3h223z" />
    <glyph glyph-name="Ubreve" unicode="&#x16c;" horiz-adv-x="599" 
d="M494 626q2 13 8 17t18 4h57q16 0 16 -12q0 -6 -4 -26l-77 -395q-12 -62 -31.5 -104.5t-51 -68.5t-76.5 -38t-108 -12q-103 0 -156 37.5t-53 113.5q0 14 3 42t11 66l72 376q2 13 8 17t18 4h57q16 0 16 -12q0 -6 -4 -26l-71 -371q-5 -27 -9 -48t-4 -38q0 -41 28.5 -60.5
t94.5 -19.5q34 0 60 8t45.5 25.5t32.5 46t21 69.5zM370 698q-51 0 -83.5 26t-47.5 70q-2 5 -3.5 11.5t-1.5 11.5q0 8 9 12l36 12q5 2 9 3t7 1q7 0 10 -11q10 -37 27.5 -53t45.5 -16q32 0 55 19.5t41 53.5q5 8 11 8q5 0 8.5 -1.5t13.5 -6.5l14 -7q10 -5 13 -8t3 -8t-7 -18
q-28 -48 -65 -73.5t-95 -25.5z" />
    <glyph glyph-name="Uring" unicode="&#x16e;" horiz-adv-x="599" 
d="M494 626q2 13 8 17t18 4h57q16 0 16 -12q0 -6 -4 -26l-77 -395q-12 -62 -31.5 -104.5t-51 -68.5t-76.5 -38t-108 -12q-103 0 -156 37.5t-53 113.5q0 14 3 42t11 66l72 376q2 13 8 17t18 4h57q16 0 16 -12q0 -6 -4 -26l-71 -371q-5 -27 -9 -48t-4 -38q0 -41 28.5 -60.5
t94.5 -19.5q34 0 60 8t45.5 25.5t32.5 46t21 69.5zM280 771q0 48 31.5 77t77.5 29q37 0 60 -21.5t23 -57.5q0 -48 -30 -78.5t-78 -30.5q-38 0 -61 22.5t-23 59.5zM371 745q20 0 32 12t12 32q0 14 -9 23t-25 9q-20 0 -32 -12t-12 -32q0 -14 9 -23t25 -9z" />
    <glyph glyph-name="Uhungarumlaut" unicode="&#x170;" horiz-adv-x="599" 
d="M494 626q2 13 8 17t18 4h57q16 0 16 -12q0 -6 -4 -26l-77 -395q-12 -62 -31.5 -104.5t-51 -68.5t-76.5 -38t-108 -12q-103 0 -156 37.5t-53 113.5q0 14 3 42t11 66l72 376q2 13 8 17t18 4h57q16 0 16 -12q0 -6 -4 -26l-71 -371q-5 -27 -9 -48t-4 -38q0 -41 28.5 -60.5
t94.5 -19.5q34 0 60 8t45.5 25.5t32.5 46t21 69.5zM382 865q11 8 17 8q8 0 15 -10l20 -30q8 -12 8 -18q0 -8 -12 -15l-168 -105q-11 -7 -17 -7q-7 0 -14 10l-11 15q-9 12 -9 18q0 8 8 15zM591 865q11 8 17 8q8 0 15 -10l20 -30q8 -12 8 -18q0 -8 -12 -15l-168 -105
q-11 -7 -17 -7q-7 0 -14 10l-11 15q-9 12 -9 18q0 8 8 15z" />
    <glyph glyph-name="Uogonek" unicode="&#x172;" horiz-adv-x="599" 
d="M494 626q2 13 8 17t18 4h57q16 0 16 -12q0 -6 -4 -26l-76 -389q-11 -55 -26 -92.5t-35.5 -62.5t-46.5 -40.5t-59 -25.5q-26 -8 -47 -20.5t-36 -27.5t-23 -31.5t-8 -31.5q0 -26 33 -26q11 0 22 2t19 4q3 1 7 2t8 1q6 0 7 -9l3 -17q1 -6 1.5 -10.5t0.5 -7.5q0 -7 -10 -11
q-17 -7 -38.5 -11t-45.5 -4q-42 0 -64.5 15.5t-22.5 48.5q0 19 8 38t21 35.5t30.5 30t36.5 22.5h-10q-104 2 -153 36.5t-49 104.5q0 21 3 50.5t11 67.5l72 376q2 13 8 17t18 4h57q16 0 16 -12q0 -6 -4 -26l-71 -371q-6 -30 -9 -50t-3 -41q0 -37 27 -56t90 -19q36 0 63 7
t46.5 24.5t33 46t21.5 71.5z" />
    <glyph glyph-name="Wgrave" unicode="&#x1e80;" horiz-adv-x="798" 
d="M848 637q0 -6 -3 -15t-9 -24q-26 -65 -55.5 -137t-60.5 -145.5t-63 -146t-62 -138.5q-8 -19 -20 -25t-32 -6h-55q-20 0 -29.5 6t-11.5 25q-8 109 -11.5 228.5t-1.5 231.5h-7q-45 -112 -93 -225.5t-102 -234.5q-8 -19 -20.5 -25t-32.5 -6h-59q-20 0 -29.5 6t-10.5 25
q-3 54 -5.5 122t-4 145t-2.5 160.5t-1 168.5q0 11 5.5 15.5t19.5 4.5h47q14 0 19.5 -3.5t5.5 -16.5q-2 -137 -1.5 -272.5t4.5 -256.5h8q25 56 51 117t52 123.5t51 124.5t48 120q7 17 15.5 23.5t27.5 6.5h56q19 0 27 -6.5t8 -23.5q2 -121 5.5 -247t9.5 -238h8q25 60 52.5 127
t55.5 136t54 136.5t48 129.5q5 13 12 16.5t19 3.5h56q17 0 17 -10zM541 762q12 -5 12 -11q0 -4 -2 -8.5t-5 -11.5l-9 -22q-5 -10 -12 -10q-6 0 -13 3l-194 64q-13 4 -13 14q0 9 7 26l10 27q5 11 8 14t8 3q4 0 8 -1.5t13 -5.5z" />
    <glyph glyph-name="Wacute" unicode="&#x1e82;" horiz-adv-x="798" 
d="M848 637q0 -6 -3 -15t-9 -24q-26 -65 -55.5 -137t-60.5 -145.5t-63 -146t-62 -138.5q-8 -19 -20 -25t-32 -6h-55q-20 0 -29.5 6t-11.5 25q-8 109 -11.5 228.5t-1.5 231.5h-7q-45 -112 -93 -225.5t-102 -234.5q-8 -19 -20.5 -25t-32.5 -6h-59q-20 0 -29.5 6t-10.5 25
q-3 54 -5.5 122t-4 145t-2.5 160.5t-1 168.5q0 11 5.5 15.5t19.5 4.5h47q14 0 19.5 -3.5t5.5 -16.5q-2 -137 -1.5 -272.5t4.5 -256.5h8q25 56 51 117t52 123.5t51 124.5t48 120q7 17 15.5 23.5t27.5 6.5h56q19 0 27 -6.5t8 -23.5q2 -121 5.5 -247t9.5 -238h8q25 60 52.5 127
t55.5 136t54 136.5t48 129.5q5 13 12 16.5t19 3.5h56q17 0 17 -10zM570 843q9 4 13 5.5t8 1.5q5 0 8 -3t8 -14l10 -27q7 -17 7 -26q0 -10 -13 -14l-194 -64q-8 -3 -13 -3q-7 0 -12 10l-9 22q-3 7 -5 11.5t-2 8.5q0 6 12 11z" />
    <glyph glyph-name="Wcircumflex" unicode="&#x174;" horiz-adv-x="798" 
d="M848 637q0 -6 -3 -15t-9 -24q-26 -65 -55.5 -137t-60.5 -145.5t-63 -146t-62 -138.5q-8 -19 -20 -25t-32 -6h-55q-20 0 -29.5 6t-11.5 25q-8 109 -11.5 228.5t-1.5 231.5h-7q-45 -112 -93 -225.5t-102 -234.5q-8 -19 -20.5 -25t-32.5 -6h-59q-20 0 -29.5 6t-10.5 25
q-3 54 -5.5 122t-4 145t-2.5 160.5t-1 168.5q0 11 5.5 15.5t19.5 4.5h47q14 0 19.5 -3.5t5.5 -16.5q-2 -137 -1.5 -272.5t4.5 -256.5h8q25 56 51 117t52 123.5t51 124.5t48 120q7 17 15.5 23.5t27.5 6.5h56q19 0 27 -6.5t8 -23.5q2 -121 5.5 -247t9.5 -238h8q25 60 52.5 127
t55.5 136t54 136.5t48 129.5q5 13 12 16.5t19 3.5h56q17 0 17 -10zM510 859q7 0 11 -1.5t9 -7.5l80 -114q8 -11 8 -17t-10 -13l-17 -11q-12 -8 -18 -8q-7 0 -15 9l-72 84h-4l-98 -82q-6 -5 -12 -9t-11 -4q-6 0 -10 2.5t-10 7.5l-13 12q-10 9 -10 15q0 5 4 9.5t10 10.5
l113 108q6 5 10.5 7t12.5 2h42z" />
    <glyph glyph-name="Wdieresis" unicode="&#x1e84;" horiz-adv-x="798" 
d="M848 637q0 -6 -3 -15t-9 -24q-26 -65 -55.5 -137t-60.5 -145.5t-63 -146t-62 -138.5q-8 -19 -20 -25t-32 -6h-55q-20 0 -29.5 6t-11.5 25q-8 109 -11.5 228.5t-1.5 231.5h-7q-45 -112 -93 -225.5t-102 -234.5q-8 -19 -20.5 -25t-32.5 -6h-59q-20 0 -29.5 6t-10.5 25
q-3 54 -5.5 122t-4 145t-2.5 160.5t-1 168.5q0 11 5.5 15.5t19.5 4.5h47q14 0 19.5 -3.5t5.5 -16.5q-2 -137 -1.5 -272.5t4.5 -256.5h8q25 56 51 117t52 123.5t51 124.5t48 120q7 17 15.5 23.5t27.5 6.5h56q19 0 27 -6.5t8 -23.5q2 -121 5.5 -247t9.5 -238h8q25 60 52.5 127
t55.5 136t54 136.5t48 129.5q5 13 12 16.5t19 3.5h56q17 0 17 -10zM413 835q20 0 31.5 -9t11.5 -27q0 -5 -1 -12.5t-4 -21.5q-5 -22 -20 -32t-38 -10h-8q-20 0 -31 8.5t-11 25.5q0 5 0.5 12.5t4.5 24.5q5 21 20 31t37 10h8zM576 835q20 0 31.5 -9t11.5 -27q0 -5 -1 -12.5
t-4 -21.5q-5 -22 -20 -32t-38 -10h-8q-20 0 -31 8.5t-11 25.5q0 5 0.5 12.5t4.5 24.5q5 21 20 31t37 10h8z" />
    <glyph glyph-name="Ygrave" unicode="&#x1ef2;" horiz-adv-x="476" 
d="M166 214q-36 93 -58.5 190.5t-36.5 198.5q-1 5 -1.5 14t-0.5 15q0 15 21 15h52q11 0 16 -2.5t6 -13.5q8 -89 23 -168.5t37 -158.5h7q54 79 103 161.5t91 165.5q5 11 10.5 13.5t16.5 2.5h60q13 0 13 -9q0 -5 -3 -11t-5 -11q-103 -207 -255 -406l-38 -194q-2 -9 -6.5 -12.5
t-16.5 -3.5h-57q-17 0 -17 11q0 5 1 9.5t3 15.5zM385 762q12 -5 12 -11q0 -4 -2 -8.5t-5 -11.5l-9 -22q-5 -10 -12 -10q-6 0 -13 3l-194 64q-13 4 -13 14q0 9 7 26l10 27q5 11 8 14t8 3q4 0 8 -1.5t13 -5.5z" />
    <glyph glyph-name="Yacute" unicode="&#xdd;" horiz-adv-x="476" 
d="M166 214q-36 93 -58.5 190.5t-36.5 198.5q-1 5 -1.5 14t-0.5 15q0 15 21 15h52q11 0 16 -2.5t6 -13.5q8 -89 23 -168.5t37 -158.5h7q54 79 103 161.5t91 165.5q5 11 10.5 13.5t16.5 2.5h60q13 0 13 -9q0 -5 -3 -11t-5 -11q-103 -207 -255 -406l-38 -194q-2 -9 -6.5 -12.5
t-16.5 -3.5h-57q-17 0 -17 11q0 5 1 9.5t3 15.5zM414 843q9 4 13 5.5t8 1.5q5 0 8 -3t8 -14l10 -27q7 -17 7 -26q0 -10 -13 -14l-194 -64q-8 -3 -13 -3q-7 0 -12 10l-9 22q-3 7 -5 11.5t-2 8.5q0 6 12 11z" />
    <glyph glyph-name="Ycircumflex" unicode="&#x176;" horiz-adv-x="476" 
d="M166 214q-36 93 -58.5 190.5t-36.5 198.5q-1 5 -1.5 14t-0.5 15q0 15 21 15h52q11 0 16 -2.5t6 -13.5q8 -89 23 -168.5t37 -158.5h7q54 79 103 161.5t91 165.5q5 11 10.5 13.5t16.5 2.5h60q13 0 13 -9q0 -5 -3 -11t-5 -11q-103 -207 -255 -406l-38 -194q-2 -9 -6.5 -12.5
t-16.5 -3.5h-57q-17 0 -17 11q0 5 1 9.5t3 15.5zM350 859q7 0 11 -1.5t9 -7.5l80 -114q8 -11 8 -17t-10 -13l-17 -11q-12 -8 -18 -8q-7 0 -15 9l-72 84h-4l-98 -82q-6 -5 -12 -9t-11 -4q-6 0 -10 2.5t-10 7.5l-13 12q-10 9 -10 15q0 5 4 9.5t10 10.5l113 108q6 5 10.5 7
t12.5 2h42z" />
    <glyph glyph-name="Ydieresis" unicode="&#x178;" horiz-adv-x="476" 
d="M166 214q-36 93 -58.5 190.5t-36.5 198.5q-1 5 -1.5 14t-0.5 15q0 15 21 15h52q11 0 16 -2.5t6 -13.5q8 -89 23 -168.5t37 -158.5h7q54 79 103 161.5t91 165.5q5 11 10.5 13.5t16.5 2.5h60q13 0 13 -9q0 -5 -3 -11t-5 -11q-103 -207 -255 -406l-38 -194q-2 -9 -6.5 -12.5
t-16.5 -3.5h-57q-17 0 -17 11q0 5 1 9.5t3 15.5zM251 835q20 0 31.5 -9t11.5 -27q0 -5 -1 -12.5t-4 -21.5q-5 -22 -20 -32t-38 -10h-8q-20 0 -31 8.5t-11 25.5q0 5 0.5 12.5t4.5 24.5q5 21 20 31t37 10h8zM414 835q20 0 31.5 -9t11.5 -27q0 -5 -1 -12.5t-4 -21.5
q-5 -22 -20 -32t-38 -10h-8q-20 0 -31 8.5t-11 25.5q0 5 0.5 12.5t4.5 24.5q5 21 20 31t37 10h8z" />
    <glyph glyph-name="Zacute" unicode="&#x179;" horiz-adv-x="501" 
d="M-20 41q2 11 6.5 20t21.5 30l382 475h-279q-17 0 -17 12q0 8 5 31l4 19q2 11 7 15t17 4h377q16 0 16 -13q0 -5 -1 -12t-3 -13q-5 -19 -11.5 -31t-22.5 -32l-375 -465h285q14 0 14 -11q0 -3 -1 -9t-3 -16l-5 -27q-2 -10 -6.5 -14t-16.5 -4h-378q-22 0 -19 18zM424 843
q9 4 13 5.5t8 1.5q5 0 8 -3t8 -14l10 -27q7 -17 7 -26q0 -10 -13 -14l-194 -64q-8 -3 -13 -3q-7 0 -12 10l-9 22q-3 7 -5 11.5t-2 8.5q0 6 12 11z" />
    <glyph glyph-name="Zcaron" unicode="&#x17d;" horiz-adv-x="501" 
d="M-20 41q2 11 6.5 20t21.5 30l382 475h-279q-17 0 -17 12q0 8 5 31l4 19q2 11 7 15t17 4h377q16 0 16 -13q0 -5 -1 -12t-3 -13q-5 -19 -11.5 -31t-22.5 -32l-375 -465h285q14 0 14 -11q0 -3 -1 -9t-3 -16l-5 -27q-2 -10 -6.5 -14t-16.5 -4h-378q-22 0 -19 18zM300 702
q-14 0 -20 10l-76 109q-6 9 -8.5 12.5t-2.5 8.5t2.5 7.5t7.5 5.5l25 17q8 5 13 5t11 -7l75 -89h4l105 89q8 7 15 7t13 -8l16 -17q9 -10 9 -16q0 -5 -8 -13l-116 -111q-5 -5 -9.5 -7.5t-13.5 -2.5h-42z" />
    <glyph glyph-name="Zdotaccent" unicode="&#x17b;" horiz-adv-x="501" 
d="M-20 41q2 11 6.5 20t21.5 30l382 475h-279q-17 0 -17 12q0 8 5 31l4 19q2 11 7 15t17 4h377q16 0 16 -13q0 -5 -1 -12t-3 -13q-5 -19 -11.5 -31t-22.5 -32l-375 -465h285q14 0 14 -11q0 -3 -1 -9t-3 -16l-5 -27q-2 -10 -6.5 -14t-16.5 -4h-378q-22 0 -19 18zM269 765
q0 35 21.5 55.5t52.5 20.5q26 0 40.5 -16t14.5 -39q0 -36 -23 -54.5t-51 -18.5q-25 0 -40 15.5t-15 36.5z" />
    <glyph glyph-name="agrave" unicode="&#xe0;" horiz-adv-x="473" 
d="M289 45h-2q-21 -29 -53 -41.5t-80 -12.5h-15q-63 0 -94 28t-31 76q0 20 4.5 46t9.5 47q17 65 64.5 89t130.5 24h36q15 0 33.5 -1t32.5 -3l5 25q3 17 5 30t2 26q0 25 -17.5 34.5t-61.5 9.5q-26 0 -57 -4.5t-57 -11.5q-9 -2 -14 -3.5t-9 -1.5q-6 0 -8 3.5t-4 11.5l-4 23
q-3 16 -3 21q0 12 15 16q33 10 76 16.5t88 6.5q70 0 110.5 -22.5t40.5 -77.5q0 -14 -2.5 -33t-6.5 -39l-61 -313q-2 -8 -5.5 -11t-12.5 -3h-40q-9 0 -12 3.5t-3 11.5v30zM310 222q-15 2 -30.5 3t-32.5 1h-29q-25 0 -42.5 -3t-30 -9.5t-20.5 -18t-13 -28.5q-5 -15 -7 -31
t-2 -28q0 -22 15 -32t49 -10h11q49 0 79.5 21t40.5 72zM390 629q11 -5 11 -11q0 -4 -2 -8.5t-5 -11.5l-10 -21q-5 -10 -12 -10q-6 0 -13 3l-192 71q-13 4 -13 14q0 7 8 26l11 26q5 11 8 14t8 3t21 -8z" />
    <glyph glyph-name="aacute" unicode="&#xe1;" horiz-adv-x="473" 
d="M289 45h-2q-21 -29 -53 -41.5t-80 -12.5h-15q-63 0 -94 28t-31 76q0 20 4.5 46t9.5 47q17 65 64.5 89t130.5 24h36q15 0 33.5 -1t32.5 -3l5 25q3 17 5 30t2 26q0 25 -17.5 34.5t-61.5 9.5q-26 0 -57 -4.5t-57 -11.5q-9 -2 -14 -3.5t-9 -1.5q-6 0 -8 3.5t-4 11.5l-4 23
q-3 16 -3 21q0 12 15 16q33 10 76 16.5t88 6.5q70 0 110.5 -22.5t40.5 -77.5q0 -14 -2.5 -33t-6.5 -39l-61 -313q-2 -8 -5.5 -11t-12.5 -3h-40q-9 0 -12 3.5t-3 11.5v30zM310 222q-15 2 -30.5 3t-32.5 1h-29q-25 0 -42.5 -3t-30 -9.5t-20.5 -18t-13 -28.5q-5 -15 -7 -31
t-2 -28q0 -22 15 -32t49 -10h11q49 0 79.5 21t40.5 72zM393 716q16 8 21 8t8 -3t8 -14l11 -26q8 -19 8 -26q0 -10 -13 -14l-192 -71q-8 -3 -13 -3q-7 0 -12 10l-10 21q-3 7 -5 11.5t-2 8.5q0 6 11 11z" />
    <glyph glyph-name="acircumflex" unicode="&#xe2;" horiz-adv-x="473" 
d="M289 45h-2q-21 -29 -53 -41.5t-80 -12.5h-15q-63 0 -94 28t-31 76q0 20 4.5 46t9.5 47q17 65 64.5 89t130.5 24h36q15 0 33.5 -1t32.5 -3l5 25q3 17 5 30t2 26q0 25 -17.5 34.5t-61.5 9.5q-26 0 -57 -4.5t-57 -11.5q-9 -2 -14 -3.5t-9 -1.5q-6 0 -8 3.5t-4 11.5l-4 23
q-3 16 -3 21q0 12 15 16q33 10 76 16.5t88 6.5q70 0 110.5 -22.5t40.5 -77.5q0 -14 -2.5 -33t-6.5 -39l-61 -313q-2 -8 -5.5 -11t-12.5 -3h-40q-9 0 -12 3.5t-3 11.5v30zM310 222q-15 2 -30.5 3t-32.5 1h-29q-25 0 -42.5 -3t-30 -9.5t-20.5 -18t-13 -28.5q-5 -15 -7 -31
t-2 -28q0 -22 15 -32t49 -10h11q49 0 79.5 21t40.5 72zM345 728q7 0 11 -1.5t9 -7.5l80 -114q8 -11 8 -17t-10 -13l-17 -11q-12 -8 -18 -8q-7 0 -15 9l-72 84h-4l-98 -82q-6 -5 -12 -9t-11 -4q-6 0 -10 2.5t-10 7.5l-13 12q-10 9 -10 15q0 5 4 9.5t10 10.5l113 108
q6 5 10.5 7t12.5 2h42z" />
    <glyph glyph-name="atilde" unicode="&#xe3;" horiz-adv-x="473" 
d="M289 45h-2q-21 -29 -53 -41.5t-80 -12.5h-15q-63 0 -94 28t-31 76q0 20 4.5 46t9.5 47q17 65 64.5 89t130.5 24h36q15 0 33.5 -1t32.5 -3l5 25q3 17 5 30t2 26q0 25 -17.5 34.5t-61.5 9.5q-26 0 -57 -4.5t-57 -11.5q-9 -2 -14 -3.5t-9 -1.5q-6 0 -8 3.5t-4 11.5l-4 23
q-3 16 -3 21q0 12 15 16q33 10 76 16.5t88 6.5q70 0 110.5 -22.5t40.5 -77.5q0 -14 -2.5 -33t-6.5 -39l-61 -313q-2 -8 -5.5 -11t-12.5 -3h-40q-9 0 -12 3.5t-3 11.5v30zM310 222q-15 2 -30.5 3t-32.5 1h-29q-25 0 -42.5 -3t-30 -9.5t-20.5 -18t-13 -28.5q-5 -15 -7 -31
t-2 -28q0 -22 15 -32t49 -10h11q49 0 79.5 21t40.5 72zM143 593q-5 4 -6.5 6.5t-1.5 5.5q0 4 5 12q26 44 56 62.5t62 18.5q31 0 60 -23l18 -15q9 -8 16.5 -11.5t18.5 -3.5q16 0 29 12t29 32q4 6 11 6q4 0 12 -6l20 -16q7 -6 7 -11q0 -4 -5 -11q-54 -79 -115 -79
q-19 0 -34.5 6t-28.5 17l-18 15q-15 14 -33 14q-28 0 -58 -42q-6 -8 -12 -8t-17 8z" />
    <glyph glyph-name="adieresis" unicode="&#xe4;" horiz-adv-x="473" 
d="M289 45h-2q-21 -29 -53 -41.5t-80 -12.5h-15q-63 0 -94 28t-31 76q0 20 4.5 46t9.5 47q17 65 64.5 89t130.5 24h36q15 0 33.5 -1t32.5 -3l5 25q3 17 5 30t2 26q0 25 -17.5 34.5t-61.5 9.5q-26 0 -57 -4.5t-57 -11.5q-9 -2 -14 -3.5t-9 -1.5q-6 0 -8 3.5t-4 11.5l-4 23
q-3 16 -3 21q0 12 15 16q33 10 76 16.5t88 6.5q70 0 110.5 -22.5t40.5 -77.5q0 -14 -2.5 -33t-6.5 -39l-61 -313q-2 -8 -5.5 -11t-12.5 -3h-40q-9 0 -12 3.5t-3 11.5v30zM310 222q-15 2 -30.5 3t-32.5 1h-29q-25 0 -42.5 -3t-30 -9.5t-20.5 -18t-13 -28.5q-5 -15 -7 -31
t-2 -28q0 -22 15 -32t49 -10h11q49 0 79.5 21t40.5 72zM238 697q20 0 31.5 -9t11.5 -27q0 -5 -1 -12.5t-4 -21.5q-5 -22 -20 -32t-38 -10h-8q-20 0 -31 8.5t-11 25.5q0 5 0.5 12.5t4.5 24.5q5 21 20 31t37 10h8zM401 697q20 0 31.5 -9t11.5 -27q0 -5 -1 -12.5t-4 -21.5
q-5 -22 -20 -32t-38 -10h-8q-20 0 -31 8.5t-11 25.5q0 5 0.5 12.5t4.5 24.5q5 21 20 31t37 10h8z" />
    <glyph glyph-name="amacron" unicode="&#x101;" horiz-adv-x="473" 
d="M289 45h-2q-21 -29 -53 -41.5t-80 -12.5h-15q-63 0 -94 28t-31 76q0 20 4.5 46t9.5 47q17 65 64.5 89t130.5 24h36q15 0 33.5 -1t32.5 -3l5 25q3 17 5 30t2 26q0 25 -17.5 34.5t-61.5 9.5q-26 0 -57 -4.5t-57 -11.5q-9 -2 -14 -3.5t-9 -1.5q-6 0 -8 3.5t-4 11.5l-4 23
q-3 16 -3 21q0 12 15 16q33 10 76 16.5t88 6.5q70 0 110.5 -22.5t40.5 -77.5q0 -14 -2.5 -33t-6.5 -39l-61 -313q-2 -8 -5.5 -11t-12.5 -3h-40q-9 0 -12 3.5t-3 11.5v30zM310 222q-15 2 -30.5 3t-32.5 1h-29q-25 0 -42.5 -3t-30 -9.5t-20.5 -18t-13 -28.5q-5 -15 -7 -31
t-2 -28q0 -22 15 -32t49 -10h11q49 0 79.5 21t40.5 72zM427 670q14 0 14 -10q0 -6 -4 -25l-5 -23q-2 -9 -6 -12t-16 -3h-223q-14 0 -14 10q0 6 4 25l5 23q2 9 6 12t16 3h223z" />
    <glyph glyph-name="abreve" unicode="&#x103;" horiz-adv-x="473" 
d="M289 45h-2q-21 -29 -53 -41.5t-80 -12.5h-15q-63 0 -94 28t-31 76q0 20 4.5 46t9.5 47q17 65 64.5 89t130.5 24h36q15 0 33.5 -1t32.5 -3l5 25q3 17 5 30t2 26q0 25 -17.5 34.5t-61.5 9.5q-26 0 -57 -4.5t-57 -11.5q-9 -2 -14 -3.5t-9 -1.5q-6 0 -8 3.5t-4 11.5l-4 23
q-3 16 -3 21q0 12 15 16q33 10 76 16.5t88 6.5q70 0 110.5 -22.5t40.5 -77.5q0 -14 -2.5 -33t-6.5 -39l-61 -313q-2 -8 -5.5 -11t-12.5 -3h-40q-9 0 -12 3.5t-3 11.5v30zM310 222q-15 2 -30.5 3t-32.5 1h-29q-25 0 -42.5 -3t-30 -9.5t-20.5 -18t-13 -28.5q-5 -15 -7 -31
t-2 -28q0 -22 15 -32t49 -10h11q49 0 79.5 21t40.5 72zM300 563q-51 0 -83.5 26t-47.5 70q-2 5 -3.5 11.5t-1.5 11.5q0 8 9 12l36 12q5 2 9 3t7 1q7 0 10 -11q10 -37 27.5 -53t45.5 -16q32 0 55 19.5t41 53.5q5 8 11 8q5 0 8.5 -1.5t13.5 -6.5l14 -7q10 -5 13 -8t3 -8
t-7 -18q-28 -48 -65 -73.5t-95 -25.5z" />
    <glyph glyph-name="acaron" unicode="&#x1ce;" horiz-adv-x="473" 
d="M289 45h-2q-21 -29 -53 -41.5t-80 -12.5h-15q-63 0 -94 28t-31 76q0 20 4.5 46t9.5 47q17 65 64.5 89t130.5 24h36q15 0 33.5 -1t32.5 -3l5 25q3 17 5 30t2 26q0 25 -17.5 34.5t-61.5 9.5q-26 0 -57 -4.5t-57 -11.5q-9 -2 -14 -3.5t-9 -1.5q-6 0 -8 3.5t-4 11.5l-4 23
q-3 16 -3 21q0 12 15 16q33 10 76 16.5t88 6.5q70 0 110.5 -22.5t40.5 -77.5q0 -14 -2.5 -33t-6.5 -39l-61 -313q-2 -8 -5.5 -11t-12.5 -3h-40q-9 0 -12 3.5t-3 11.5v30zM310 222q-15 2 -30.5 3t-32.5 1h-29q-25 0 -42.5 -3t-30 -9.5t-20.5 -18t-13 -28.5q-5 -15 -7 -31
t-2 -28q0 -22 15 -32t49 -10h11q49 0 79.5 21t40.5 72zM272 558q-14 0 -20 10l-76 109q-6 9 -8.5 12.5t-2.5 8.5t2.5 7.5t7.5 5.5l25 17q8 5 13 5t11 -7l75 -89h4l105 89q8 7 15 7t13 -8l16 -17q9 -10 9 -16q0 -5 -8 -13l-116 -111q-5 -5 -9.5 -7.5t-13.5 -2.5h-42z" />
    <glyph glyph-name="aring" unicode="&#xe5;" horiz-adv-x="473" 
d="M289 45h-2q-21 -29 -53 -41.5t-80 -12.5h-15q-63 0 -94 28t-31 76q0 20 4.5 46t9.5 47q17 65 64.5 89t130.5 24h36q15 0 33.5 -1t32.5 -3l5 25q3 17 5 30t2 26q0 25 -17.5 34.5t-61.5 9.5q-26 0 -57 -4.5t-57 -11.5q-9 -2 -14 -3.5t-9 -1.5q-6 0 -8 3.5t-4 11.5l-4 23
q-3 16 -3 21q0 12 15 16q33 10 76 16.5t88 6.5q70 0 110.5 -22.5t40.5 -77.5q0 -14 -2.5 -33t-6.5 -39l-61 -313q-2 -8 -5.5 -11t-12.5 -3h-40q-9 0 -12 3.5t-3 11.5v30zM310 222q-15 2 -30.5 3t-32.5 1h-29q-25 0 -42.5 -3t-30 -9.5t-20.5 -18t-13 -28.5q-5 -15 -7 -31
t-2 -28q0 -22 15 -32t49 -10h11q49 0 79.5 21t40.5 72zM214 627q0 48 31.5 77t77.5 29q37 0 60 -21.5t23 -57.5q0 -48 -30 -78.5t-78 -30.5q-38 0 -61 22.5t-23 59.5zM305 601q20 0 32 12t12 32q0 14 -9 23t-25 9q-20 0 -32 -12t-12 -32q0 -14 9 -23t25 -9z" />
    <glyph glyph-name="aringacute" unicode="&#x1fb;" horiz-adv-x="473" 
d="M289 45h-2q-21 -29 -53 -41.5t-80 -12.5h-15q-63 0 -94 28t-31 76q0 20 4.5 46t9.5 47q17 65 64.5 89t130.5 24h36q15 0 33.5 -1t32.5 -3l5 25q3 17 5 30t2 26q0 25 -17.5 34.5t-61.5 9.5q-26 0 -57 -4.5t-57 -11.5q-9 -2 -14 -3.5t-9 -1.5q-6 0 -8 3.5t-4 11.5l-4 23
q-3 16 -3 21q0 12 15 16q33 10 76 16.5t88 6.5q70 0 110.5 -22.5t40.5 -77.5q0 -14 -2.5 -33t-6.5 -39l-61 -313q-2 -8 -5.5 -11t-12.5 -3h-40q-9 0 -12 3.5t-3 11.5v30zM310 222q-15 2 -30.5 3t-32.5 1h-29q-25 0 -42.5 -3t-30 -9.5t-20.5 -18t-13 -28.5q-5 -15 -7 -31
t-2 -28q0 -22 15 -32t49 -10h11q49 0 79.5 21t40.5 72zM217 613q0 48 31.5 77t77.5 29q37 0 60 -21.5t23 -57.5q0 -48 -30 -78.5t-78 -30.5q-38 0 -61 22.5t-23 59.5zM308 587q20 0 32 12t12 32q0 14 -9 23t-25 9q-20 0 -32 -12t-12 -32q0 -14 9 -23t25 -9zM431 890
q16 8 21 8t8 -3t8 -14l11 -26q8 -19 8 -26q0 -10 -13 -14l-192 -71q-8 -3 -13 -3q-7 0 -12 10l-10 21q-3 7 -5 11.5t-2 8.5q0 6 11 11z" />
    <glyph glyph-name="aogonek" unicode="&#x105;" horiz-adv-x="473" 
d="M183 -135q0 21 9.5 42t24.5 40t34 35t38 26l1 37h-2q-21 -30 -53.5 -42t-80.5 -12h-14q-61 0 -94 23.5t-33 73.5q0 23 5 50.5t10 48.5q17 65 64.5 89.5t130.5 24.5h39q15 0 32.5 -1t31.5 -3l5 25q3 17 5 30t2 26q0 26 -18 35t-62 9q-26 0 -57 -4.5t-57 -11.5
q-9 -2 -14 -3.5t-9 -1.5q-11 0 -12 15l-4 23q-1 6 -1.5 12t-0.5 11q0 10 14 14q33 10 76 16.5t88 6.5q70 0 110.5 -22.5t40.5 -77.5q0 -14 -2.5 -33t-6.5 -39l-61 -313q-2 -6 -4.5 -9t-11.5 -7q-18 -8 -33 -20.5t-26.5 -27.5t-17.5 -31t-6 -31q0 -26 33 -26q11 0 22 2t19 4
q3 1 7 2t8 1q6 0 7 -9l3 -17q1 -6 1.5 -10.5t0.5 -7.5q0 -7 -10 -11q-17 -7 -38.5 -11t-45.5 -4q-42 0 -64.5 15.5t-22.5 48.5zM311 222q-15 2 -31 3t-33 1h-29q-25 0 -42.5 -3t-30 -10t-20.5 -18.5t-13 -28.5q-5 -15 -7 -31t-2 -28q0 -23 15 -32t49 -9h11q49 0 80 21t41 72
z" />
    <glyph glyph-name="ae" unicode="&#xe6;" horiz-adv-x="747" 
d="M706 367q0 -34 -6.5 -69.5t-14.5 -75.5q-3 -13 -10 -18.5t-22 -5.5h-253q-3 -17 -5 -31.5t-2 -30.5q0 -40 25.5 -54t76.5 -14q28 0 61 5.5t59 13.5q3 1 6.5 2t7.5 1q7 0 10 -12l6 -24q4 -15 4 -22q0 -8 -10 -12q-30 -12 -74.5 -20.5t-84.5 -8.5q-69 0 -105 17t-50 47
q-24 -32 -64 -48t-106 -16h-14q-61 0 -94 23.5t-33 73.5q0 23 5 50.5t10 48.5q17 65 64.5 89.5t130.5 24.5h39q15 0 32 -1t31 -3q1 6 2 11.5t3 12.5l3 16q4 20 4 39q0 26 -17.5 36t-61.5 10q-26 0 -57 -4.5t-57 -11.5q-9 -2 -14 -3.5t-9 -1.5q-11 0 -12 15l-4 23
q-1 6 -1.5 12t-0.5 11q0 10 14 14q33 10 76 16.5t88 6.5q97 0 124 -46q25 23 59.5 34.5t83.5 11.5q80 0 118.5 -34.5t38.5 -97.5zM312 223q-30 3 -64 3h-29q-25 0 -42.5 -3t-30 -10t-20.5 -18.5t-13 -28.5q-5 -15 -7 -31t-2 -28q0 -23 15 -32t49 -9h11q49 0 79 20.5t41 72.5
zM587 271q13 0 16 12q5 18 7.5 38t2.5 36q0 36 -18 51.5t-60 15.5q-48 0 -74 -24t-39 -88l-8 -41h173z" />
    <glyph glyph-name="aeacute" unicode="&#x1fd;" horiz-adv-x="747" 
d="M706 367q0 -34 -6.5 -69.5t-14.5 -75.5q-3 -13 -10 -18.5t-22 -5.5h-253q-3 -17 -5 -31.5t-2 -30.5q0 -40 25.5 -54t76.5 -14q28 0 61 5.5t59 13.5q3 1 6.5 2t7.5 1q7 0 10 -12l6 -24q4 -15 4 -22q0 -8 -10 -12q-30 -12 -74.5 -20.5t-84.5 -8.5q-69 0 -105 17t-50 47
q-24 -32 -64 -48t-106 -16h-14q-61 0 -94 23.5t-33 73.5q0 23 5 50.5t10 48.5q17 65 64.5 89.5t130.5 24.5h39q15 0 32 -1t31 -3q1 6 2 11.5t3 12.5l3 16q4 20 4 39q0 26 -17.5 36t-61.5 10q-26 0 -57 -4.5t-57 -11.5q-9 -2 -14 -3.5t-9 -1.5q-11 0 -12 15l-4 23
q-1 6 -1.5 12t-0.5 11q0 10 14 14q33 10 76 16.5t88 6.5q97 0 124 -46q25 23 59.5 34.5t83.5 11.5q80 0 118.5 -34.5t38.5 -97.5zM312 223q-30 3 -64 3h-29q-25 0 -42.5 -3t-30 -10t-20.5 -18.5t-13 -28.5q-5 -15 -7 -31t-2 -28q0 -23 15 -32t49 -9h11q49 0 79 20.5t41 72.5
zM587 271q13 0 16 12q5 18 7.5 38t2.5 36q0 36 -18 51.5t-60 15.5q-48 0 -74 -24t-39 -88l-8 -41h173zM550 716q16 8 21 8t8 -3t8 -14l11 -26q8 -19 8 -26q0 -10 -13 -14l-192 -71q-8 -3 -13 -3q-7 0 -12 10l-10 21q-3 7 -5 11.5t-2 8.5q0 6 11 11z" />
    <glyph glyph-name="cacute" unicode="&#x107;" horiz-adv-x="440" 
d="M347 57q2 -11 3.5 -17.5t1.5 -11.5q0 -9 -12 -13q-29 -11 -67.5 -17.5t-73.5 -6.5q-89 0 -130.5 30t-41.5 93q0 17 3 40.5t7 49.5t9 51l9 45q21 100 71.5 149.5t152.5 49.5q35 0 72 -9.5t66 -25.5q10 -6 10 -13q0 -5 -8 -20l-16 -30q-3 -5 -5 -7.5t-7 -2.5q-4 0 -16 6
q-23 11 -49 17.5t-47 6.5q-30 0 -52.5 -7.5t-38.5 -25t-27 -46.5t-20 -72q-3 -18 -7 -37t-7 -37.5t-5 -35.5t-2 -29q0 -35 22.5 -48.5t72.5 -13.5q25 0 53.5 4.5t50.5 11.5q3 1 6.5 2t7.5 1q7 0 10 -12zM395 716q16 8 21 8t8 -3t8 -14l11 -26q8 -19 8 -26q0 -10 -13 -14
l-192 -71q-8 -3 -13 -3q-7 0 -12 10l-10 21q-3 7 -5 11.5t-2 8.5q0 6 11 11z" />
    <glyph glyph-name="ccedilla" unicode="&#xe7;" horiz-adv-x="440" 
d="M347 57q2 -11 3.5 -17.5t1.5 -11.5q0 -9 -12 -13q-26 -10 -58.5 -15.5t-64.5 -7.5l-24 -54q8 2 17 3t18 1q29 0 46.5 -16.5t17.5 -46.5q0 -57 -33.5 -85.5t-90.5 -28.5q-23 0 -48 4t-41 10q-9 4 -9 10q0 3 4 14l7 18q4 11 9 11q3 0 5 -0.5t5 -1.5q14 -5 31 -7.5t30 -2.5
q31 0 44.5 11t13.5 34t-31 23q-10 0 -18.5 -1t-13.5 -2t-9 -1.5t-7 -0.5q-7 0 -11 7l-4 7q-4 8 -4 12q0 3 1.5 7t6.5 15l28 62q-67 7 -98.5 36t-31.5 85q0 17 3 40.5t7 49.5t9 51l9 45q12 57 31 95t46.5 61.5t64 33t82.5 9.5q35 0 72 -9.5t66 -25.5q10 -6 10 -13
q0 -3 -1.5 -7t-6.5 -13l-16 -30q-3 -5 -5 -7.5t-7 -2.5q-4 0 -16 6q-23 11 -47 17.5t-49 6.5q-30 0 -52 -7.5t-38 -25t-27.5 -46.5t-20.5 -72q-3 -18 -7 -37t-7 -37.5t-5 -35.5t-2 -29q0 -35 22.5 -49t72.5 -14q25 0 53.5 4.5t50.5 11.5q3 1 6.5 2t7.5 1q7 0 10 -12z" />
    <glyph glyph-name="ccircumflex" unicode="&#x109;" horiz-adv-x="440" 
d="M347 57q2 -11 3.5 -17.5t1.5 -11.5q0 -9 -12 -13q-29 -11 -67.5 -17.5t-73.5 -6.5q-89 0 -130.5 30t-41.5 93q0 17 3 40.5t7 49.5t9 51l9 45q21 100 71.5 149.5t152.5 49.5q35 0 72 -9.5t66 -25.5q10 -6 10 -13q0 -5 -8 -20l-16 -30q-3 -5 -5 -7.5t-7 -2.5q-4 0 -16 6
q-23 11 -49 17.5t-47 6.5q-30 0 -52.5 -7.5t-38.5 -25t-27 -46.5t-20 -72q-3 -18 -7 -37t-7 -37.5t-5 -35.5t-2 -29q0 -35 22.5 -48.5t72.5 -13.5q25 0 53.5 4.5t50.5 11.5q3 1 6.5 2t7.5 1q7 0 10 -12zM335 728q7 0 11 -1.5t9 -7.5l80 -114q8 -11 8 -17t-10 -13l-17 -11
q-12 -8 -18 -8q-7 0 -15 9l-72 84h-4l-98 -82q-6 -5 -12 -9t-11 -4q-6 0 -10 2.5t-10 7.5l-13 12q-10 9 -10 15q0 5 4 9.5t10 10.5l113 108q6 5 10.5 7t12.5 2h42z" />
    <glyph glyph-name="ccaron" unicode="&#x10d;" horiz-adv-x="440" 
d="M347 57q2 -11 3.5 -17.5t1.5 -11.5q0 -9 -12 -13q-29 -11 -67.5 -17.5t-73.5 -6.5q-89 0 -130.5 30t-41.5 93q0 17 3 40.5t7 49.5t9 51l9 45q21 100 71.5 149.5t152.5 49.5q35 0 72 -9.5t66 -25.5q10 -6 10 -13q0 -5 -8 -20l-16 -30q-3 -5 -5 -7.5t-7 -2.5q-4 0 -16 6
q-23 11 -49 17.5t-47 6.5q-30 0 -52.5 -7.5t-38.5 -25t-27 -46.5t-20 -72q-3 -18 -7 -37t-7 -37.5t-5 -35.5t-2 -29q0 -35 22.5 -48.5t72.5 -13.5q25 0 53.5 4.5t50.5 11.5q3 1 6.5 2t7.5 1q7 0 10 -12zM259 558q-14 0 -20 10l-76 109q-6 9 -8.5 12.5t-2.5 8.5t2.5 7.5
t7.5 5.5l25 17q8 5 13 5t11 -7l75 -89h4l105 89q8 7 15 7t13 -8l16 -17q9 -10 9 -16q0 -5 -8 -13l-116 -111q-5 -5 -9.5 -7.5t-13.5 -2.5h-42z" />
    <glyph glyph-name="cdotaccent" unicode="&#x10b;" horiz-adv-x="440" 
d="M347 57q2 -11 3.5 -17.5t1.5 -11.5q0 -9 -12 -13q-29 -11 -67.5 -17.5t-73.5 -6.5q-89 0 -130.5 30t-41.5 93q0 17 3 40.5t7 49.5t9 51l9 45q21 100 71.5 149.5t152.5 49.5q35 0 72 -9.5t66 -25.5q10 -6 10 -13q0 -5 -8 -20l-16 -30q-3 -5 -5 -7.5t-7 -2.5q-4 0 -16 6
q-23 11 -49 17.5t-47 6.5q-30 0 -52.5 -7.5t-38.5 -25t-27 -46.5t-20 -72q-3 -18 -7 -37t-7 -37.5t-5 -35.5t-2 -29q0 -35 22.5 -48.5t72.5 -13.5q25 0 53.5 4.5t50.5 11.5q3 1 6.5 2t7.5 1q7 0 10 -12zM232 622q0 35 21.5 55.5t52.5 20.5q26 0 40.5 -16t14.5 -39
q0 -36 -23 -54.5t-51 -18.5q-25 0 -40 15.5t-15 36.5z" />
    <glyph glyph-name="dcaron" unicode="&#x10f;" horiz-adv-x="499" 
d="M420 184q-11 -56 -28 -93t-44 -59.5t-65 -31.5t-92 -9q-164 0 -164 129q0 29 8.5 75t17.5 97q12 63 30 103.5t43 63.5t58 31.5t75 8.5t73 -12.5t47 -31.5h2l40 204q2 11 6.5 14.5t16.5 3.5h53q17 0 17 -11v-2t-1 -5t-2 -11.5t-4 -20.5zM349 291q3 15 5.5 32t2.5 29
q0 33 -21.5 52.5t-71.5 19.5q-26 0 -45 -6.5t-33 -22.5t-24 -43.5t-18 -69.5q-11 -54 -17.5 -89t-6.5 -58q0 -35 18 -51.5t67 -16.5q28 0 48.5 6t35 20t24 36.5t15.5 54.5zM621 710q18 0 30 -9t12 -32q0 -18 -5 -35.5t-17 -37.5q-14 -23 -33.5 -46.5t-42.5 -43.5
q-7 -5 -11 -5q-5 0 -13 7l-11 9q-7 6 -7 10t7 11q6 6 15 15.5t16 17.5q11 14 15.5 20.5t4.5 9.5q0 6 -8 11l-4 3q-14 9 -14 28q0 9 2 19.5t4 15.5q13 32 52 32h8z" />
    <glyph glyph-name="dcroat" unicode="&#x111;" horiz-adv-x="499" 
d="M504 612h54q8 0 10 -2t2 -7q0 -3 -1 -9t-3 -14l-4 -18q-2 -9 -6.5 -12t-15.5 -3h-49l-71 -363q-11 -56 -28 -93t-44 -59.5t-65 -31.5t-92 -9q-84 0 -124.5 30.5t-40.5 95.5q0 32 7.5 76t18.5 102q12 62 29.5 101.5t43 62.5t59 31.5t75.5 8.5q44 0 74.5 -13t45.5 -31h2
l18 92h-88q-8 0 -10 2t-2 7q0 3 1 9t3 14l4 18q2 9 6.5 12t15.5 3h83l9 47q2 11 6.5 14.5t16.5 3.5h53q17 0 17 -11v-2t-1 -5t-2 -11.5t-4 -20.5zM349 291q3 15 5.5 32t2.5 29q0 33 -21.5 52.5t-71.5 19.5q-26 0 -45.5 -6.5t-34 -23t-25 -44.5t-19.5 -71q-11 -52 -17 -86.5
t-6 -57.5q0 -35 19.5 -51.5t68.5 -16.5q28 0 48.5 6t35 20t24 36.5t15.5 54.5z" />
    <glyph glyph-name="eth" unicode="&#xf0;" horiz-adv-x="496" 
d="M243 617q-14 8 -27 15t-24 12q-8 4 -8 10q0 5 12 21l18 24q6 7 12 7q4 0 12 -3q19 -8 34.5 -16t31.5 -19l56 47q8 6 12 6q3 0 5 -1t7 -6l13 -13q9 -9 9 -15q0 -7 -14 -18l-42 -36q44 -37 71 -96t27 -149q0 -15 -2.5 -59.5t-16.5 -117.5q-11 -57 -25 -98.5t-39 -68
t-65 -39.5t-104 -13q-87 0 -129 31.5t-42 100.5q0 16 6.5 59.5t16.5 97.5q9 49 24 83.5t39 56.5t57.5 32t79.5 10q38 0 66 -9.5t43 -24.5h2q-2 55 -21.5 93t-48.5 61l-60 -49q-8 -6 -12 -6q-5 0 -12 7l-12 14q-9 10 -9 15q0 7 14 18zM331 194q8 36 12.5 64t4.5 53
q0 40 -23 57.5t-68 17.5q-62 0 -87.5 -31.5t-35.5 -97.5q-7 -39 -12.5 -69t-5.5 -49q0 -38 20.5 -55t68.5 -17q29 0 49.5 6t35 20.5t24 39t17.5 61.5z" />
    <glyph glyph-name="egrave" unicode="&#xe8;" horiz-adv-x="472" 
d="M432 367q0 -32 -6 -69.5t-14 -75.5q-3 -13 -9.5 -18.5t-22.5 -5.5h-253q-3 -17 -6 -31.5t-3 -30.5q0 -40 26.5 -53.5t77.5 -13.5q28 0 61 5.5t59 13.5q3 1 6.5 2t7.5 1q7 0 10 -12l6 -25q4 -15 4 -22q0 -8 -10 -12q-30 -12 -74.5 -20.5t-84.5 -8.5q-51 0 -85.5 9
t-55.5 26t-30 41.5t-9 55.5q0 29 7.5 72.5t21.5 113.5q10 49 26.5 84.5t43 59t63.5 35t87 11.5q78 0 117 -35.5t39 -96.5zM316 271q13 0 16 12q5 18 7 38t2 36q0 36 -18.5 51.5t-60.5 15.5q-47 0 -74.5 -26t-38.5 -86l-8 -41h175zM374 629q11 -5 11 -11q0 -4 -2 -8.5
t-5 -11.5l-10 -21q-5 -10 -12 -10q-6 0 -13 3l-192 71q-13 4 -13 14q0 7 8 26l11 26q5 11 8 14t8 3t21 -8z" />
    <glyph glyph-name="eacute" unicode="&#xe9;" horiz-adv-x="472" 
d="M432 367q0 -32 -6 -69.5t-14 -75.5q-3 -13 -9.5 -18.5t-22.5 -5.5h-253q-3 -17 -6 -31.5t-3 -30.5q0 -40 26.5 -53.5t77.5 -13.5q28 0 61 5.5t59 13.5q3 1 6.5 2t7.5 1q7 0 10 -12l6 -25q4 -15 4 -22q0 -8 -10 -12q-30 -12 -74.5 -20.5t-84.5 -8.5q-51 0 -85.5 9
t-55.5 26t-30 41.5t-9 55.5q0 29 7.5 72.5t21.5 113.5q10 49 26.5 84.5t43 59t63.5 35t87 11.5q78 0 117 -35.5t39 -96.5zM316 271q13 0 16 12q5 18 7 38t2 36q0 36 -18.5 51.5t-60.5 15.5q-47 0 -74.5 -26t-38.5 -86l-8 -41h175zM392 716q16 8 21 8t8 -3t8 -14l11 -26
q8 -19 8 -26q0 -10 -13 -14l-192 -71q-8 -3 -13 -3q-7 0 -12 10l-10 21q-3 7 -5 11.5t-2 8.5q0 6 11 11z" />
    <glyph glyph-name="ecircumflex" unicode="&#xea;" horiz-adv-x="472" 
d="M432 367q0 -32 -6 -69.5t-14 -75.5q-3 -13 -9.5 -18.5t-22.5 -5.5h-253q-3 -17 -6 -31.5t-3 -30.5q0 -40 26.5 -53.5t77.5 -13.5q28 0 61 5.5t59 13.5q3 1 6.5 2t7.5 1q7 0 10 -12l6 -25q4 -15 4 -22q0 -8 -10 -12q-30 -12 -74.5 -20.5t-84.5 -8.5q-51 0 -85.5 9
t-55.5 26t-30 41.5t-9 55.5q0 29 7.5 72.5t21.5 113.5q10 49 26.5 84.5t43 59t63.5 35t87 11.5q78 0 117 -35.5t39 -96.5zM316 271q13 0 16 12q5 18 7 38t2 36q0 36 -18.5 51.5t-60.5 15.5q-47 0 -74.5 -26t-38.5 -86l-8 -41h175zM329 728q7 0 11 -1.5t9 -7.5l80 -114
q8 -11 8 -17t-10 -13l-17 -11q-12 -8 -18 -8q-7 0 -15 9l-72 84h-4l-98 -82q-6 -5 -12 -9t-11 -4q-6 0 -10 2.5t-10 7.5l-13 12q-10 9 -10 15q0 5 4 9.5t10 10.5l113 108q6 5 10.5 7t12.5 2h42z" />
    <glyph glyph-name="ecaron" unicode="&#x11b;" horiz-adv-x="472" 
d="M432 367q0 -32 -6 -69.5t-14 -75.5q-3 -13 -9.5 -18.5t-22.5 -5.5h-253q-3 -17 -6 -31.5t-3 -30.5q0 -40 26.5 -53.5t77.5 -13.5q28 0 61 5.5t59 13.5q3 1 6.5 2t7.5 1q7 0 10 -12l6 -25q4 -15 4 -22q0 -8 -10 -12q-30 -12 -74.5 -20.5t-84.5 -8.5q-51 0 -85.5 9
t-55.5 26t-30 41.5t-9 55.5q0 29 7.5 72.5t21.5 113.5q10 49 26.5 84.5t43 59t63.5 35t87 11.5q78 0 117 -35.5t39 -96.5zM316 271q13 0 16 12q5 18 7 38t2 36q0 36 -18.5 51.5t-60.5 15.5q-47 0 -74.5 -26t-38.5 -86l-8 -41h175zM255 558q-14 0 -20 10l-76 109
q-6 9 -8.5 12.5t-2.5 8.5t2.5 7.5t7.5 5.5l25 17q8 5 13 5t11 -7l75 -89h4l105 89q8 7 15 7t13 -8l16 -17q9 -10 9 -16q0 -5 -8 -13l-116 -111q-5 -5 -9.5 -7.5t-13.5 -2.5h-42z" />
    <glyph glyph-name="edieresis" unicode="&#xeb;" horiz-adv-x="472" 
d="M432 367q0 -32 -6 -69.5t-14 -75.5q-3 -13 -9.5 -18.5t-22.5 -5.5h-253q-3 -17 -6 -31.5t-3 -30.5q0 -40 26.5 -53.5t77.5 -13.5q28 0 61 5.5t59 13.5q3 1 6.5 2t7.5 1q7 0 10 -12l6 -25q4 -15 4 -22q0 -8 -10 -12q-30 -12 -74.5 -20.5t-84.5 -8.5q-51 0 -85.5 9
t-55.5 26t-30 41.5t-9 55.5q0 29 7.5 72.5t21.5 113.5q10 49 26.5 84.5t43 59t63.5 35t87 11.5q78 0 117 -35.5t39 -96.5zM316 271q13 0 16 12q5 18 7 38t2 36q0 36 -18.5 51.5t-60.5 15.5q-47 0 -74.5 -26t-38.5 -86l-8 -41h175zM226 697q20 0 31.5 -9t11.5 -27
q0 -5 -1 -12.5t-4 -21.5q-5 -22 -20 -32t-38 -10h-8q-20 0 -31 8.5t-11 25.5q0 5 0.5 12.5t4.5 24.5q5 21 20 31t37 10h8zM389 697q20 0 31.5 -9t11.5 -27q0 -5 -1 -12.5t-4 -21.5q-5 -22 -20 -32t-38 -10h-8q-20 0 -31 8.5t-11 25.5q0 5 0.5 12.5t4.5 24.5q5 21 20 31
t37 10h8z" />
    <glyph glyph-name="emacron" unicode="&#x113;" horiz-adv-x="472" 
d="M432 367q0 -32 -6 -69.5t-14 -75.5q-3 -13 -9.5 -18.5t-22.5 -5.5h-253q-3 -17 -6 -31.5t-3 -30.5q0 -40 26.5 -53.5t77.5 -13.5q28 0 61 5.5t59 13.5q3 1 6.5 2t7.5 1q7 0 10 -12l6 -25q4 -15 4 -22q0 -8 -10 -12q-30 -12 -74.5 -20.5t-84.5 -8.5q-51 0 -85.5 9
t-55.5 26t-30 41.5t-9 55.5q0 29 7.5 72.5t21.5 113.5q10 49 26.5 84.5t43 59t63.5 35t87 11.5q78 0 117 -35.5t39 -96.5zM316 271q13 0 16 12q5 18 7 38t2 36q0 36 -18.5 51.5t-60.5 15.5q-47 0 -74.5 -26t-38.5 -86l-8 -41h175zM421 670q14 0 14 -10q0 -6 -4 -25l-5 -23
q-2 -9 -6 -12t-16 -3h-223q-14 0 -14 10q0 6 4 25l5 23q2 9 6 12t16 3h223z" />
    <glyph glyph-name="ebreve" unicode="&#x115;" horiz-adv-x="472" 
d="M432 367q0 -32 -6 -69.5t-14 -75.5q-3 -13 -9.5 -18.5t-22.5 -5.5h-253q-3 -17 -6 -31.5t-3 -30.5q0 -40 26.5 -53.5t77.5 -13.5q28 0 61 5.5t59 13.5q3 1 6.5 2t7.5 1q7 0 10 -12l6 -25q4 -15 4 -22q0 -8 -10 -12q-30 -12 -74.5 -20.5t-84.5 -8.5q-51 0 -85.5 9
t-55.5 26t-30 41.5t-9 55.5q0 29 7.5 72.5t21.5 113.5q10 49 26.5 84.5t43 59t63.5 35t87 11.5q78 0 117 -35.5t39 -96.5zM316 271q13 0 16 12q5 18 7 38t2 36q0 36 -18.5 51.5t-60.5 15.5q-47 0 -74.5 -26t-38.5 -86l-8 -41h175zM283 563q-51 0 -83.5 26t-47.5 70
q-2 5 -3.5 11.5t-1.5 11.5q0 8 9 12l36 12q5 2 9 3t7 1q7 0 10 -11q10 -37 27.5 -53t45.5 -16q32 0 55 19.5t41 53.5q5 8 11 8q5 0 8.5 -1.5t13.5 -6.5l14 -7q10 -5 13 -8t3 -8t-7 -18q-28 -48 -65 -73.5t-95 -25.5z" />
    <glyph glyph-name="edotaccent" unicode="&#x117;" horiz-adv-x="472" 
d="M432 367q0 -32 -6 -69.5t-14 -75.5q-3 -13 -9.5 -18.5t-22.5 -5.5h-253q-3 -17 -6 -31.5t-3 -30.5q0 -40 26.5 -53.5t77.5 -13.5q28 0 61 5.5t59 13.5q3 1 6.5 2t7.5 1q7 0 10 -12l6 -25q4 -15 4 -22q0 -8 -10 -12q-30 -12 -74.5 -20.5t-84.5 -8.5q-51 0 -85.5 9
t-55.5 26t-30 41.5t-9 55.5q0 29 7.5 72.5t21.5 113.5q10 49 26.5 84.5t43 59t63.5 35t87 11.5q78 0 117 -35.5t39 -96.5zM316 271q13 0 16 12q5 18 7 38t2 36q0 36 -18.5 51.5t-60.5 15.5q-47 0 -74.5 -26t-38.5 -86l-8 -41h175zM229 622q0 35 21.5 55.5t52.5 20.5
q26 0 40.5 -16t14.5 -39q0 -36 -23 -54.5t-51 -18.5q-25 0 -40 15.5t-15 36.5z" />
    <glyph glyph-name="eogonek" unicode="&#x119;" horiz-adv-x="472" 
d="M433 367q0 -34 -6.5 -69.5t-14.5 -75.5q-3 -13 -10 -18.5t-22 -5.5h-253q-3 -17 -6 -31.5t-3 -30.5q0 -40 26.5 -53.5t77.5 -13.5q28 0 61 5.5t59 13.5q3 1 6.5 2t7.5 1q7 0 10 -12l6 -25q4 -15 4 -22q0 -8 -10 -12q-57 -29 -90 -65.5t-33 -66.5q0 -26 33 -26q11 0 22 2
t19 4q3 1 7 2t8 1q6 0 7 -9l3 -17q1 -6 1.5 -10.5t0.5 -7.5q0 -7 -10 -11q-17 -7 -38.5 -11t-45.5 -4q-42 0 -64.5 15.5t-22.5 48.5q0 40 26 73t70 57q-14 -2 -27 -3t-25 -1q-51 0 -85.5 8.5t-55.5 25.5t-30 41.5t-9 56.5q0 29 7.5 72.5t21.5 113.5q10 53 29 89.5t46 59
t63.5 32t81.5 9.5q80 0 118.5 -34.5t38.5 -97.5zM315 271q13 0 16 12q5 18 7 38t2 36q0 36 -18 51.5t-60 15.5q-47 0 -74.5 -26t-38.5 -86l-8 -41h174z" />
    <glyph glyph-name="gcircumflex" unicode="&#x11d;" horiz-adv-x="503" 
d="M271 424q-31 0 -52 -8.5t-36 -25.5t-24 -42.5t-16 -58.5q-9 -43 -16 -87.5t-7 -71.5q0 -34 18 -48.5t59 -14.5q55 0 90.5 26.5t46.5 89.5l21 109q4 20 6 34t2 27q0 34 -23.5 52.5t-68.5 18.5zM179 -187q-38 0 -73 5.5t-59 13.5q-12 3 -12 11q0 5 1.5 9t4.5 15l8 26
q4 12 13 12q2 0 10 -2q20 -7 50.5 -11t61.5 -4q54 0 81.5 24.5t41.5 86.5l8 40h-3q-17 -23 -52.5 -35.5t-82.5 -12.5q-78 0 -114 31.5t-36 91.5q0 35 7.5 85t19.5 110q10 52 27.5 88.5t42.5 59t59.5 32.5t79.5 10q52 0 85 -16t47 -42h2l12 34q3 9 7.5 12t15.5 3h35
q14 0 14 -10q0 -5 -1.5 -12t-3.5 -20l-77 -419q-12 -65 -26 -104t-39 -64q-26 -26 -65.5 -37t-89.5 -11zM346 728q7 0 11 -1.5t9 -7.5l80 -114q8 -11 8 -17t-10 -13l-17 -11q-12 -8 -18 -8q-7 0 -15 9l-72 84h-4l-98 -82q-6 -5 -12 -9t-11 -4q-6 0 -10 2.5t-10 7.5l-13 12
q-10 9 -10 15q0 5 4 9.5t10 10.5l113 108q6 5 10.5 7t12.5 2h42z" />
    <glyph glyph-name="gbreve" unicode="&#x11f;" horiz-adv-x="503" 
d="M271 424q-31 0 -52 -8.5t-36 -25.5t-24 -42.5t-16 -58.5q-9 -43 -16 -87.5t-7 -71.5q0 -34 18 -48.5t59 -14.5q55 0 90.5 26.5t46.5 89.5l21 109q4 20 6 34t2 27q0 34 -23.5 52.5t-68.5 18.5zM179 -187q-38 0 -73 5.5t-59 13.5q-12 3 -12 11q0 5 1.5 9t4.5 15l8 26
q4 12 13 12q2 0 10 -2q20 -7 50.5 -11t61.5 -4q54 0 81.5 24.5t41.5 86.5l8 40h-3q-17 -23 -52.5 -35.5t-82.5 -12.5q-78 0 -114 31.5t-36 91.5q0 35 7.5 85t19.5 110q10 52 27.5 88.5t42.5 59t59.5 32.5t79.5 10q52 0 85 -16t47 -42h2l12 34q3 9 7.5 12t15.5 3h35
q14 0 14 -10q0 -5 -1.5 -12t-3.5 -20l-77 -419q-12 -65 -26 -104t-39 -64q-26 -26 -65.5 -37t-89.5 -11zM308 563q-51 0 -83.5 26t-47.5 70q-2 5 -3.5 11.5t-1.5 11.5q0 8 9 12l36 12q5 2 9 3t7 1q7 0 10 -11q10 -37 27.5 -53t45.5 -16q32 0 55 19.5t41 53.5q5 8 11 8
q5 0 8.5 -1.5t13.5 -6.5l14 -7q10 -5 13 -8t3 -8t-7 -18q-28 -48 -65 -73.5t-95 -25.5z" />
    <glyph glyph-name="gdotaccent" unicode="&#x121;" horiz-adv-x="503" 
d="M271 424q-31 0 -52 -8.5t-36 -25.5t-24 -42.5t-16 -58.5q-9 -43 -16 -87.5t-7 -71.5q0 -34 18 -48.5t59 -14.5q55 0 90.5 26.5t46.5 89.5l21 109q4 20 6 34t2 27q0 34 -23.5 52.5t-68.5 18.5zM179 -187q-38 0 -73 5.5t-59 13.5q-12 3 -12 11q0 5 1.5 9t4.5 15l8 26
q4 12 13 12q2 0 10 -2q20 -7 50.5 -11t61.5 -4q54 0 81.5 24.5t41.5 86.5l8 40h-3q-17 -23 -52.5 -35.5t-82.5 -12.5q-78 0 -114 31.5t-36 91.5q0 35 7.5 85t19.5 110q10 52 27.5 88.5t42.5 59t59.5 32.5t79.5 10q52 0 85 -16t47 -42h2l12 34q3 9 7.5 12t15.5 3h35
q14 0 14 -10q0 -5 -1.5 -12t-3.5 -20l-77 -419q-12 -65 -26 -104t-39 -64q-26 -26 -65.5 -37t-89.5 -11zM247 622q0 35 21.5 55.5t52.5 20.5q26 0 40.5 -16t14.5 -39q0 -36 -23 -54.5t-51 -18.5q-25 0 -40 15.5t-15 36.5z" />
    <glyph glyph-name="gcommaaccent" unicode="&#x123;" horiz-adv-x="503" 
d="M271 424q-31 0 -52 -8.5t-36 -25.5t-24 -42.5t-16 -58.5q-9 -43 -16 -87.5t-7 -71.5q0 -34 18 -48.5t59 -14.5q55 0 90.5 26.5t46.5 89.5l21 109q4 20 6 34t2 27q0 34 -23.5 52.5t-68.5 18.5zM179 -187q-38 0 -73 5.5t-59 13.5q-12 3 -12 11q0 5 1.5 9t4.5 15l8 26
q4 12 13 12q2 0 10 -2q20 -7 50.5 -11t61.5 -4q54 0 81.5 24.5t41.5 86.5l8 40h-3q-17 -23 -52.5 -35.5t-82.5 -12.5q-78 0 -114 31.5t-36 91.5q0 35 7.5 85t19.5 110q10 52 27.5 88.5t42.5 59t59.5 32.5t79.5 10q52 0 85 -16t47 -42h2l12 34q3 9 7.5 12t15.5 3h35
q14 0 14 -10q0 -5 -1.5 -12t-3.5 -20l-77 -419q-12 -65 -26 -104t-39 -64q-26 -26 -65.5 -37t-89.5 -11zM302.981 565.966q-17.999 0 -29.998 8.99902q-11.999 9 -11.999 31.998q0 17.999 4.99902 35.498q5 17.499 16.999 37.498q13.999 22.998 33.498 46.4971
q19.499 23.498 42.498 43.4971q6.99902 5 10.999 5q5 0 12.999 -7l10.999 -8.99902q7 -6 7 -10t-7 -10.999q-5.99902 -6 -14.999 -15.499q-8.99902 -9.5 -15.999 -17.499q-10.999 -13.999 -15.499 -20.499q-4.49902 -6.49902 -4.49902 -9.49902q0 -6 7.99902 -11l4 -2.99902
q13.999 -9 13.999 -27.999q0 -8.99902 -2 -19.498q-2 -10.5 -4 -15.499q-12.999 -31.998 -51.9961 -31.998h-8z" />
    <glyph glyph-name="hcircumflex" unicode="&#x125;" horiz-adv-x="505" 
d="M397 18q-3 -18 -22 -18h-53q-18 0 -18 12q0 4 3 19.5t6 29.5l45 229q5 23 7.5 41t2.5 31q0 33 -21 47t-59 14q-26 0 -47 -5.5t-37.5 -20t-28.5 -40.5t-20 -67l-53 -272q-3 -18 -22 -18h-53q-18 0 -18 12q0 4 2.5 18t6.5 31l118 598q3 18 22 18h52q18 0 18 -12
q0 -4 -3 -19l-6 -30l-30 -154h3q23 17 52.5 27t77.5 10q67 0 102.5 -28t36.5 -82q1 -24 -3 -51t-11 -63zM225 873q7 0 11 -1.5t9 -7.5l80 -114q8 -11 8 -17t-10 -13l-17 -11q-12 -8 -18 -8q-7 0 -15 9l-72 84h-4l-98 -82q-6 -5 -12 -9t-11 -4q-6 0 -10 2.5t-10 7.5l-13 12
q-10 9 -10 15q0 5 4 9.5t10 10.5l113 108q6 5 10.5 7t12.5 2h42z" />
    <glyph glyph-name="hbar" unicode="&#x127;" horiz-adv-x="505" 
d="M397 18q-3 -18 -22 -18h-53q-18 0 -18 12q0 4 3 19.5t6 29.5l45 229q5 23 7.5 41t2.5 31q0 33 -21 47t-59 14q-26 0 -47 -5.5t-37.5 -20t-28.5 -40.5t-20 -67l-53 -272q-3 -18 -22 -18h-53q-18 0 -18 12q0 4 2.5 18t6.5 31l96 486h-43q-8 0 -10 2t-2 7q0 3 1 9t3 14l4 18
q2 9 6.5 12t15.5 3h38l9 47q3 18 22 18h52q18 0 18 -12q0 -4 -3 -19l-6 -30l-1 -4h120q8 0 10 -2t2 -7q0 -3 -1 -9t-3 -14l-4 -18q-2 -9 -6.5 -12t-15.5 -3h-115l-16 -85h3q23 17 52.5 27t77.5 10q67 0 102.5 -28t36.5 -82q1 -24 -3 -51t-11 -63z" />
    <glyph glyph-name="dotlessi" unicode="&#x131;" horiz-adv-x="222" 
d="M108 18q-3 -18 -22 -18h-54q-18 0 -18 12q0 4 2.5 18t6.5 31l81 411q3 18 22 18h53q18 0 18 -12q0 -4 -2.5 -18t-6.5 -31z" />
    <glyph glyph-name="igrave" unicode="&#xec;" horiz-adv-x="222" 
d="M108 18q-3 -18 -22 -18h-54q-18 0 -18 12q0 4 2.5 18t6.5 31l81 411q3 18 22 18h53q18 0 18 -12q0 -4 -2.5 -18t-6.5 -31zM228 629q11 -5 11 -11q0 -4 -2 -8.5t-5 -11.5l-10 -21q-5 -10 -12 -10q-6 0 -13 3l-192 71q-13 4 -13 14q0 7 8 26l11 26q5 11 8 14t8 3t21 -8z
" />
    <glyph glyph-name="iacute" unicode="&#xed;" horiz-adv-x="222" 
d="M108 18q-3 -18 -22 -18h-54q-18 0 -18 12q0 4 2.5 18t6.5 31l81 411q3 18 22 18h53q18 0 18 -12q0 -4 -2.5 -18t-6.5 -31zM281 716q16 8 21 8t8 -3t8 -14l11 -26q8 -19 8 -26q0 -10 -13 -14l-192 -71q-8 -3 -13 -3q-7 0 -12 10l-10 21q-3 7 -5 11.5t-2 8.5q0 6 11 11z
" />
    <glyph glyph-name="icircumflex" unicode="&#xee;" horiz-adv-x="222" 
d="M108 18q-3 -18 -22 -18h-54q-18 0 -18 12q0 4 2.5 18t6.5 31l81 411q3 18 22 18h53q18 0 18 -12q0 -4 -2.5 -18t-6.5 -31zM212 728q7 0 11 -1.5t9 -7.5l80 -114q8 -11 8 -17t-10 -13l-17 -11q-12 -8 -18 -8q-7 0 -15 9l-72 84h-4l-98 -82q-6 -5 -12 -9t-11 -4
q-6 0 -10 2.5t-10 7.5l-13 12q-10 9 -10 15q0 5 4 9.5t10 10.5l113 108q6 5 10.5 7t12.5 2h42z" />
    <glyph glyph-name="itilde" unicode="&#x129;" horiz-adv-x="222" 
d="M108 18q-3 -18 -22 -18h-54q-18 0 -18 12q0 4 2.5 18t6.5 31l81 411q3 18 22 18h53q18 0 18 -12q0 -4 -2.5 -18t-6.5 -31zM17 593q-5 4 -6.5 6.5t-1.5 5.5q0 4 5 12q26 44 56 62.5t62 18.5q31 0 60 -23l18 -15q9 -8 16.5 -11.5t18.5 -3.5q16 0 29 12t29 32q4 6 11 6
q4 0 12 -6l20 -16q7 -6 7 -11q0 -4 -5 -11q-54 -79 -115 -79q-19 0 -34.5 6t-28.5 17l-18 15q-15 14 -33 14q-28 0 -58 -42q-6 -8 -12 -8t-17 8z" />
    <glyph glyph-name="idieresis" unicode="&#xef;" horiz-adv-x="222" 
d="M108 18q-3 -18 -22 -18h-54q-18 0 -18 12q0 4 2.5 18t6.5 31l81 411q3 18 22 18h53q18 0 18 -12q0 -4 -2.5 -18t-6.5 -31zM110 697q20 0 31.5 -9t11.5 -27q0 -5 -1 -12.5t-4 -21.5q-5 -22 -20 -32t-38 -10h-8q-20 0 -31 8.5t-11 25.5q0 5 0.5 12.5t4.5 24.5q5 21 20 31
t37 10h8zM273 697q20 0 31.5 -9t11.5 -27q0 -5 -1 -12.5t-4 -21.5q-5 -22 -20 -32t-38 -10h-8q-20 0 -31 8.5t-11 25.5q0 5 0.5 12.5t4.5 24.5q5 21 20 31t37 10h8z" />
    <glyph glyph-name="imacron" unicode="&#x12b;" horiz-adv-x="222" 
d="M108 18q-3 -18 -22 -18h-54q-18 0 -18 12q0 4 2.5 18t6.5 31l81 411q3 18 22 18h53q18 0 18 -12q0 -4 -2.5 -18t-6.5 -31zM300 670q14 0 14 -10q0 -6 -4 -25l-5 -23q-2 -9 -6 -12t-16 -3h-223q-14 0 -14 10q0 6 4 25l5 23q2 9 6 12t16 3h223z" />
    <glyph glyph-name="ibreve" unicode="&#x12d;" horiz-adv-x="222" 
d="M108 18q-3 -18 -22 -18h-54q-18 0 -18 12q0 4 2.5 18t6.5 31l81 411q3 18 22 18h53q18 0 18 -12q0 -4 -2.5 -18t-6.5 -31zM166 563q-51 0 -83.5 26t-47.5 70q-2 5 -3.5 11.5t-1.5 11.5q0 8 9 12l36 12q5 2 9 3t7 1q7 0 10 -11q10 -37 27.5 -53t45.5 -16q32 0 55 19.5
t41 53.5q5 8 11 8q5 0 8.5 -1.5t13.5 -6.5l14 -7q10 -5 13 -8t3 -8t-7 -18q-28 -48 -65 -73.5t-95 -25.5z" />
    <glyph glyph-name="iogonek" unicode="&#x12f;" horiz-adv-x="222" 
d="M-70 -135q0 37 22 72t58 59l94 476q3 18 22 18h53q18 0 18 -12q0 -4 -3 -18t-6 -31l-80 -411q-2 -10 -5.5 -13.5t-8.5 -6.5q-84 -50 -84 -110q0 -26 33 -26q11 0 22 2t19 4q3 1 7 2t8 1q5 0 7 -9l3 -17q1 -6 1.5 -10.5t0.5 -7.5q0 -7 -10 -11q-17 -7 -38.5 -11t-45.5 -4
q-42 0 -64.5 15.5t-22.5 48.5zM165 555q-26 0 -38 11.5t-12 31.5q0 8 1 16t4 17q15 47 68 47h5q26 0 38 -11.5t12 -31.5q0 -8 -1 -16t-4 -17q-15 -47 -68 -47h-5z" />
    <glyph glyph-name="ij" unicode="&#x133;" horiz-adv-x="446" 
d="M108 18q-3 -18 -22 -18h-54q-18 0 -18 12q0 4 2.5 18t6.5 31l81 411q3 18 22 18h53q18 0 18 -12q0 -4 -2.5 -18t-6.5 -31zM165 555q-26 0 -38 11.5t-12 31.5q0 8 1 16t4 17q15 47 68 47h5q26 0 38 -11.5t12 -31.5q0 -8 -1 -16t-4 -17q-15 -47 -68 -47h-5zM335 19
q-9 -48 -23.5 -85t-40.5 -65q-45 -46 -145 -46h-29q-14 0 -14 9q0 4 1 9.5t4 18.5l5 24q4 16 18 16h18q30 0 47 6t30 19q16 16 23.5 41t14.5 59l88 447q3 18 22 18h53q18 0 18 -12q0 -4 -2.5 -18t-6.5 -31zM393 555q-26 0 -38 11.5t-12 31.5q0 8 1 16t4 17q15 47 68 47h5
q26 0 38 -11.5t12 -31.5q0 -8 -1 -16t-4 -17q-15 -47 -68 -47h-5z" />
    <glyph glyph-name="jcircumflex" unicode="&#x135;" horiz-adv-x="221" 
d="M110 19q-9 -48 -23.5 -85t-40.5 -65q-45 -46 -145 -46h-29q-14 0 -14 9q0 4 1 9.5t4 18.5l5 24q4 16 18 16h18q30 0 47 6t30 19q16 16 23.5 41t14.5 59l88 447q3 18 22 18h53q18 0 18 -12q0 -4 -2.5 -18t-6.5 -31zM208 728q7 0 11 -1.5t9 -7.5l80 -114q8 -11 8 -17
t-10 -13l-17 -11q-12 -8 -18 -8q-7 0 -15 9l-72 84h-4l-98 -82q-6 -5 -12 -9t-11 -4q-6 0 -10 2.5t-10 7.5l-13 12q-10 9 -10 15q0 5 4 9.5t10 10.5l113 108q6 5 10.5 7t12.5 2h42z" />
    <glyph glyph-name="kcommaaccent" unicode="&#x137;" horiz-adv-x="446" 
d="M102 18q-3 -18 -22 -18h-53q-18 0 -18 12q0 4 2.5 18t6.5 31l117 598q3 18 22 18h53q18 0 18 -12q0 -4 -2.5 -16.5l-6.5 -32.5l-63 -316h25q19 0 32 16l139 157q10 11 17.5 14t21.5 3h58q13 0 13 -8q0 -4 -4 -9t-11 -13l-154 -173q-9 -11 -14.5 -17t-5.5 -14
q0 -6 4.5 -15t9.5 -20l84 -186q5 -11 7.5 -16t2.5 -10q0 -9 -15 -9h-49q-15 0 -22.5 5t-12.5 17l-82 185q-5 10 -9.5 13t-15.5 3h-34zM180 -66q18 0 30 -9t12 -32q0 -18 -5 -35.5t-17 -37.5q-14 -23 -33.5 -46.5t-42.5 -43.5q-7 -5 -11 -5q-5 0 -13 7l-11 9q-7 6 -7 10t7 11
q6 6 15 15.5t16 17.5q11 14 15.5 20.5t4.5 9.5q0 6 -8 11l-4 3q-14 9 -14 28q0 9 2 19.5t4 15.5q13 32 52 32h8z" />
    <glyph glyph-name="kgreenlandic" unicode="&#x138;" horiz-adv-x="446" 
d="M102 18q-3 -18 -22 -18h-53q-18 0 -18 12q0 4 2.5 18t6.5 31l80 411q3 18 22 18h53q18 0 18 -12q0 -4 -2.5 -16.5l-6.5 -32.5l-26 -129h25q19 0 32 16l139 157q10 11 17.5 14t21.5 3h58q13 0 13 -8q0 -4 -4 -9t-11 -13l-154 -173q-9 -11 -14.5 -17t-5.5 -14q0 -6 4.5 -15
t9.5 -20l84 -186q5 -11 7.5 -16t2.5 -10q0 -9 -15 -9h-49q-15 0 -22.5 5t-12.5 17l-82 185q-5 10 -9.5 13t-15.5 3h-34z" />
    <glyph glyph-name="lacute" unicode="&#x13a;" horiz-adv-x="259" 
d="M125 137q-2 -13 -3.5 -22.5t-1.5 -18.5q0 -12 7 -16.5t23 -4.5h35q14 0 14 -11q0 -5 -1.5 -12t-3.5 -19l-3 -15q-2 -11 -7.5 -14.5t-16.5 -3.5h-37q-53 0 -78.5 17.5t-25.5 62.5q0 20 6 52l103 527q3 18 22 18h53q18 0 18 -11q0 -5 -2.5 -17.5l-6.5 -32.5zM298 864
q16 8 21 8t8 -3t8 -14l11 -26q8 -19 8 -26q0 -10 -13 -14l-192 -71q-8 -3 -13 -3q-7 0 -12 10l-10 21q-3 7 -5 11.5t-2 8.5q0 6 11 11z" />
    <glyph glyph-name="lcaron" unicode="&#x13e;" horiz-adv-x="312" 
d="M125 137q-2 -13 -3.5 -22.5t-1.5 -18.5q0 -12 7 -16.5t23 -4.5h35q14 0 14 -11q0 -5 -1.5 -12t-3.5 -19l-3 -15q-2 -11 -7.5 -14.5t-16.5 -3.5h-37q-53 0 -78.5 17.5t-25.5 62.5q0 20 6 52l103 527q3 18 22 18h53q18 0 18 -11q0 -5 -2.5 -17.5l-6.5 -32.5zM339 708
q18 0 30 -9t12 -32q0 -18 -5 -35.5t-17 -37.5q-14 -23 -33.5 -46.5t-42.5 -43.5q-7 -5 -11 -5q-5 0 -13 7l-11 9q-7 6 -7 10t7 11q6 6 15 15.5t16 17.5q11 14 15.5 20.5t4.5 9.5q0 6 -8 11l-4 3q-14 9 -14 28q0 9 2 19.5t4 15.5q13 32 52 32h8z" />
    <glyph glyph-name="lcommaaccent" unicode="&#x13c;" horiz-adv-x="259" 
d="M125 137q-2 -13 -3.5 -22.5t-1.5 -18.5q0 -12 7 -16.5t23 -4.5h35q14 0 14 -11q0 -5 -1.5 -12t-3.5 -19l-3 -15q-2 -11 -7.5 -14.5t-16.5 -3.5h-37q-53 0 -78.5 17.5t-25.5 62.5q0 20 6 52l103 527q3 18 22 18h53q18 0 18 -11q0 -5 -2.5 -17.5l-6.5 -32.5zM96 -66
q18 0 30 -9t12 -32q0 -18 -5 -35.5t-17 -37.5q-14 -23 -33.5 -46.5t-42.5 -43.5q-7 -5 -11 -5q-5 0 -13 7l-11 9q-7 6 -7 10t7 11q6 6 15 15.5t16 17.5q11 14 15.5 20.5t4.5 9.5q0 6 -8 11l-4 3q-14 9 -14 28q0 9 2 19.5t4 15.5q13 32 52 32h8z" />
    <glyph glyph-name="lslash" unicode="&#x142;" horiz-adv-x="295" 
d="M209 433l93 54q8 5 12 6.5t9 1.5q8 0 8 -8q0 -3 -1.5 -10t-3.5 -19l-6 -36q-2 -12 -6 -17t-13 -10l-112 -65l-38 -193q-2 -13 -3.5 -22.5t-1.5 -18.5q0 -12 7 -16.5t23 -4.5h35q14 0 14 -11q0 -5 -1.5 -12t-3.5 -19l-3 -15q-2 -11 -7.5 -14.5t-16.5 -3.5h-37
q-53 0 -78.5 17.5t-25.5 62.5q0 20 6 52l27 137l-66 -38q-8 -5 -12 -6.5t-9 -1.5q-8 0 -8 8q0 3 1.5 10t3.5 19l6 36q2 12 6 17t13 10l85 49l56 287q3 18 22 18h53q18 0 18 -11q0 -5 -2.5 -17.5l-6.5 -32.5z" />
    <glyph glyph-name="longs" unicode="&#x17f;" horiz-adv-x="268" 
d="M2 -177q-14 0 -14 10q0 5 2 10.5t4 13.5q17 54 32.5 120t28.5 138l52 296h-61q-11 0 -11 9q0 6 3 21l4 20q2 9 6 12t13 5l59 9l6 35q8 46 22 77.5t36.5 51t53.5 27.5t73 8q26 0 48 -3.5t39 -8.5q6 -2 9 -5t3 -9q0 -5 -1.5 -11t-6.5 -20l-5 -15q-4 -13 -12 -13
q-3 0 -7.5 1t-8.5 2q-9 2 -23.5 4t-31.5 2q-43 0 -65 -20t-31 -71l-72 -409q-9 -50 -17 -90t-16 -72t-16 -57.5t-16 -47.5q-5 -11 -11 -15.5t-19 -4.5h-49z" />
    <glyph glyph-name="ldot" unicode="&#x140;" horiz-adv-x="367" 
d="M125 137q-2 -13 -3.5 -22.5t-1.5 -18.5q0 -12 7 -16.5t23 -4.5h35q14 0 14 -11q0 -5 -1.5 -12t-3.5 -19l-3 -15q-2 -11 -7.5 -14.5t-16.5 -3.5h-37q-53 0 -78.5 17.5t-25.5 62.5q0 20 6 52l103 527q3 18 22 18h53q18 0 18 -11q0 -5 -2.5 -17.5l-6.5 -32.5zM235 339
q0 35 21.5 55.5t52.5 20.5q26 0 40.5 -16t14.5 -39q0 -36 -23 -54.5t-51 -18.5q-25 0 -40 15.5t-15 36.5z" />
    <glyph glyph-name="nacute" unicode="&#x144;" horiz-adv-x="506" 
d="M172 443q25 26 58 41t92 15q67 0 102.5 -28t35.5 -82q0 -21 -4 -51t-10 -63l-48 -257q-3 -18 -22 -18h-53q-18 0 -18 12q0 4 2.5 17.5t6.5 31.5l43 229q4 22 7 41t3 34q0 31 -20 44.5t-58 13.5q-26 0 -47.5 -5.5t-38 -20t-28.5 -40.5t-20 -67l-54 -272q-2 -10 -6.5 -14
t-15.5 -4h-52q-18 0 -18 12q0 4 2.5 17.5t6.5 31.5l82 415q3 14 20 14h35q9 0 13 -2t3 -10l-2 -35h3zM414 716q16 8 21 8t8 -3t8 -14l11 -26q8 -19 8 -26q0 -10 -13 -14l-192 -71q-8 -3 -13 -3q-7 0 -12 10l-10 21q-3 7 -5 11.5t-2 8.5q0 6 11 11z" />
    <glyph glyph-name="ncaron" unicode="&#x148;" horiz-adv-x="506" 
d="M172 443q25 26 58 41t92 15q67 0 102.5 -28t35.5 -82q0 -21 -4 -51t-10 -63l-48 -257q-3 -18 -22 -18h-53q-18 0 -18 12q0 4 2.5 17.5t6.5 31.5l43 229q4 22 7 41t3 34q0 31 -20 44.5t-58 13.5q-26 0 -47.5 -5.5t-38 -20t-28.5 -40.5t-20 -67l-54 -272q-2 -10 -6.5 -14
t-15.5 -4h-52q-18 0 -18 12q0 4 2.5 17.5t6.5 31.5l82 415q3 14 20 14h35q9 0 13 -2t3 -10l-2 -35h3zM281 558q-14 0 -20 10l-76 109q-6 9 -8.5 12.5t-2.5 8.5t2.5 7.5t7.5 5.5l25 17q8 5 13 5t11 -7l75 -89h4l105 89q8 7 15 7t13 -8l16 -17q9 -10 9 -16q0 -5 -8 -13
l-116 -111q-5 -5 -9.5 -7.5t-13.5 -2.5h-42z" />
    <glyph glyph-name="ntilde" unicode="&#xf1;" horiz-adv-x="506" 
d="M172 443q25 26 58 41t92 15q67 0 102.5 -28t35.5 -82q0 -21 -4 -51t-10 -63l-48 -257q-3 -18 -22 -18h-53q-18 0 -18 12q0 4 2.5 17.5t6.5 31.5l43 229q4 22 7 41t3 34q0 31 -20 44.5t-58 13.5q-26 0 -47.5 -5.5t-38 -20t-28.5 -40.5t-20 -67l-54 -272q-2 -10 -6.5 -14
t-15.5 -4h-52q-18 0 -18 12q0 4 2.5 17.5t6.5 31.5l82 415q3 14 20 14h35q9 0 13 -2t3 -10l-2 -35h3zM164 593q-5 4 -6.5 6.5t-1.5 5.5q0 4 5 12q26 44 56 62.5t62 18.5q31 0 60 -23l18 -15q9 -8 16.5 -11.5t18.5 -3.5q16 0 29 12t29 32q4 6 11 6q4 0 12 -6l20 -16
q7 -6 7 -11q0 -4 -5 -11q-54 -79 -115 -79q-19 0 -34.5 6t-28.5 17l-18 15q-15 14 -33 14q-28 0 -58 -42q-6 -8 -12 -8t-17 8z" />
    <glyph glyph-name="ncommaaccent" unicode="&#x146;" horiz-adv-x="506" 
d="M172 443q25 26 58 41t92 15q67 0 102.5 -28t35.5 -82q0 -21 -4 -51t-10 -63l-48 -257q-3 -18 -22 -18h-53q-18 0 -18 12q0 4 2.5 17.5t6.5 31.5l43 229q4 22 7 41t3 34q0 31 -20 44.5t-58 13.5q-26 0 -47.5 -5.5t-38 -20t-28.5 -40.5t-20 -67l-54 -272q-2 -10 -6.5 -14
t-15.5 -4h-52q-18 0 -18 12q0 4 2.5 17.5t6.5 31.5l82 415q3 14 20 14h35q9 0 13 -2t3 -10l-2 -35h3zM199 -66q18 0 30 -9t12 -32q0 -18 -5 -35.5t-17 -37.5q-14 -23 -33.5 -46.5t-42.5 -43.5q-7 -5 -11 -5q-5 0 -13 7l-11 9q-7 6 -7 10t7 11q6 6 15 15.5t16 17.5
q11 14 15.5 20.5t4.5 9.5q0 6 -8 11l-4 3q-14 9 -14 28q0 9 2 19.5t4 15.5q13 32 52 32h8z" />
    <glyph glyph-name="napostrophe" unicode="&#x149;" horiz-adv-x="572" 
d="M238 443q25 26 58 41t92 15q67 0 102.5 -28t35.5 -82q0 -21 -4 -51t-10 -63l-48 -257q-3 -18 -22 -18h-53q-18 0 -18 12q0 4 2.5 17.5t6.5 31.5l43 229q4 22 7 41t3 34q0 31 -20 44.5t-58 13.5q-26 0 -47.5 -5.5t-38 -20t-28.5 -40.5t-20 -67l-54 -272q-2 -10 -6.5 -14
t-15.5 -4h-52q-18 0 -18 12q0 4 2.5 17.5t6.5 31.5l82 415q3 14 20 14h35q9 0 13 -2t3 -10l-2 -35h3zM130 713q23 0 35.5 -11.5t12.5 -37.5q0 -42 -24 -87.5t-83 -104.5q-7 -7 -11 -7q-5 0 -12 5l-14 10q-10 7 -10 13q0 4 6 10q35 37 46.5 53.5t11.5 28.5q0 6 -2 9t-6 6
l-7 5q-15 12 -15 34q0 32 14 53t49 21h9z" />
    <glyph glyph-name="eng" unicode="&#x14b;" horiz-adv-x="506" 
d="M357 290q4 22 7 41t3 34q0 31 -20 44.5t-58 13.5q-26 0 -47.5 -5.5t-38 -20t-28.5 -40.5t-20 -67l-54 -272q-2 -10 -6.5 -14t-15.5 -4h-52q-18 0 -18 12q0 4 2.5 17.5t6.5 31.5l82 415q3 14 20 14h35q9 0 13 -2t3 -10l-2 -35h3q25 26 58 41t92 15q67 0 102.5 -28
t35.5 -82q0 -21 -4 -51t-10 -63l-45 -241q-11 -56 -27 -94t-40 -62t-57 -34.5t-77 -10.5h-42q-12 0 -12 9q0 4 1.5 10t3.5 17l5 25q3 15 16 15h27q23 0 40.5 5t30.5 19t22.5 39t17.5 66z" />
    <glyph glyph-name="ograve" unicode="&#xf2;" horiz-adv-x="493" 
d="M201 -9q-91 0 -132.5 33.5t-41.5 104.5q0 26 6 68.5t14 84.5q12 60 30 101.5t45.5 67t65.5 37t90 11.5q91 0 132.5 -33.5t41.5 -104.5q0 -26 -6 -68.5t-14 -84.5q-12 -60 -30 -101.5t-45.5 -67t-65.5 -37t-90 -11.5zM209 66q56 0 85 32t44 107q11 56 16 90.5t5 52.5
q0 42 -20.5 59t-68.5 17q-56 0 -85 -32t-44 -107q-11 -56 -16 -90.5t-5 -52.5q0 -42 20.5 -59t68.5 -17zM390 629q11 -5 11 -11q0 -4 -2 -8.5t-5 -11.5l-10 -21q-5 -10 -12 -10q-6 0 -13 3l-192 71q-13 4 -13 14q0 7 8 26l11 26q5 11 8 14t8 3t21 -8z" />
    <glyph glyph-name="oacute" unicode="&#xf3;" horiz-adv-x="493" 
d="M201 -9q-91 0 -132.5 33.5t-41.5 104.5q0 26 6 68.5t14 84.5q12 60 30 101.5t45.5 67t65.5 37t90 11.5q91 0 132.5 -33.5t41.5 -104.5q0 -26 -6 -68.5t-14 -84.5q-12 -60 -30 -101.5t-45.5 -67t-65.5 -37t-90 -11.5zM209 66q56 0 85 32t44 107q11 56 16 90.5t5 52.5
q0 42 -20.5 59t-68.5 17q-56 0 -85 -32t-44 -107q-11 -56 -16 -90.5t-5 -52.5q0 -42 20.5 -59t68.5 -17zM403 716q16 8 21 8t8 -3t8 -14l11 -26q8 -19 8 -26q0 -10 -13 -14l-192 -71q-8 -3 -13 -3q-7 0 -12 10l-10 21q-3 7 -5 11.5t-2 8.5q0 6 11 11z" />
    <glyph glyph-name="ocircumflex" unicode="&#xf4;" horiz-adv-x="493" 
d="M201 -9q-91 0 -132.5 33.5t-41.5 104.5q0 26 6 68.5t14 84.5q12 60 30 101.5t45.5 67t65.5 37t90 11.5q91 0 132.5 -33.5t41.5 -104.5q0 -26 -6 -68.5t-14 -84.5q-12 -60 -30 -101.5t-45.5 -67t-65.5 -37t-90 -11.5zM209 66q56 0 85 32t44 107q11 56 16 90.5t5 52.5
q0 42 -20.5 59t-68.5 17q-56 0 -85 -32t-44 -107q-11 -56 -16 -90.5t-5 -52.5q0 -42 20.5 -59t68.5 -17zM350 728q7 0 11 -1.5t9 -7.5l80 -114q8 -11 8 -17t-10 -13l-17 -11q-12 -8 -18 -8q-7 0 -15 9l-72 84h-4l-98 -82q-6 -5 -12 -9t-11 -4q-6 0 -10 2.5t-10 7.5l-13 12
q-10 9 -10 15q0 5 4 9.5t10 10.5l113 108q6 5 10.5 7t12.5 2h42z" />
    <glyph glyph-name="otilde" unicode="&#xf5;" horiz-adv-x="493" 
d="M201 -9q-91 0 -132.5 33.5t-41.5 104.5q0 26 6 68.5t14 84.5q12 60 30 101.5t45.5 67t65.5 37t90 11.5q91 0 132.5 -33.5t41.5 -104.5q0 -26 -6 -68.5t-14 -84.5q-12 -60 -30 -101.5t-45.5 -67t-65.5 -37t-90 -11.5zM209 66q56 0 85 32t44 107q11 56 16 90.5t5 52.5
q0 42 -20.5 59t-68.5 17q-56 0 -85 -32t-44 -107q-11 -56 -16 -90.5t-5 -52.5q0 -42 20.5 -59t68.5 -17zM155 593q-5 4 -6.5 6.5t-1.5 5.5q0 4 5 12q26 44 56 62.5t62 18.5q31 0 60 -23l18 -15q9 -8 16.5 -11.5t18.5 -3.5q16 0 29 12t29 32q4 6 11 6q4 0 12 -6l20 -16
q7 -6 7 -11q0 -4 -5 -11q-54 -79 -115 -79q-19 0 -34.5 6t-28.5 17l-18 15q-15 14 -33 14q-28 0 -58 -42q-6 -8 -12 -8t-17 8z" />
    <glyph glyph-name="odieresis" unicode="&#xf6;" horiz-adv-x="493" 
d="M201 -9q-91 0 -132.5 33.5t-41.5 104.5q0 26 6 68.5t14 84.5q12 60 30 101.5t45.5 67t65.5 37t90 11.5q91 0 132.5 -33.5t41.5 -104.5q0 -26 -6 -68.5t-14 -84.5q-12 -60 -30 -101.5t-45.5 -67t-65.5 -37t-90 -11.5zM209 66q56 0 85 32t44 107q11 56 16 90.5t5 52.5
q0 42 -20.5 59t-68.5 17q-56 0 -85 -32t-44 -107q-11 -56 -16 -90.5t-5 -52.5q0 -42 20.5 -59t68.5 -17zM246 697q20 0 31.5 -9t11.5 -27q0 -5 -1 -12.5t-4 -21.5q-5 -22 -20 -32t-38 -10h-8q-20 0 -31 8.5t-11 25.5q0 5 0.5 12.5t4.5 24.5q5 21 20 31t37 10h8zM409 697
q20 0 31.5 -9t11.5 -27q0 -5 -1 -12.5t-4 -21.5q-5 -22 -20 -32t-38 -10h-8q-20 0 -31 8.5t-11 25.5q0 5 0.5 12.5t4.5 24.5q5 21 20 31t37 10h8z" />
    <glyph glyph-name="omacron" unicode="&#x14d;" horiz-adv-x="493" 
d="M201 -9q-91 0 -132.5 33.5t-41.5 104.5q0 26 6 68.5t14 84.5q12 60 30 101.5t45.5 67t65.5 37t90 11.5q91 0 132.5 -33.5t41.5 -104.5q0 -26 -6 -68.5t-14 -84.5q-12 -60 -30 -101.5t-45.5 -67t-65.5 -37t-90 -11.5zM209 66q56 0 85 32t44 107q11 56 16 90.5t5 52.5
q0 42 -20.5 59t-68.5 17q-56 0 -85 -32t-44 -107q-11 -56 -16 -90.5t-5 -52.5q0 -42 20.5 -59t68.5 -17zM437 670q14 0 14 -10q0 -6 -4 -25l-5 -23q-2 -9 -6 -12t-16 -3h-223q-14 0 -14 10q0 6 4 25l5 23q2 9 6 12t16 3h223z" />
    <glyph glyph-name="obreve" unicode="&#x14f;" horiz-adv-x="493" 
d="M201 -9q-91 0 -132.5 33.5t-41.5 104.5q0 26 6 68.5t14 84.5q12 60 30 101.5t45.5 67t65.5 37t90 11.5q91 0 132.5 -33.5t41.5 -104.5q0 -26 -6 -68.5t-14 -84.5q-12 -60 -30 -101.5t-45.5 -67t-65.5 -37t-90 -11.5zM209 66q56 0 85 32t44 107q11 56 16 90.5t5 52.5
q0 42 -20.5 59t-68.5 17q-56 0 -85 -32t-44 -107q-11 -56 -16 -90.5t-5 -52.5q0 -42 20.5 -59t68.5 -17zM303 563q-51 0 -83.5 26t-47.5 70q-2 5 -3.5 11.5t-1.5 11.5q0 8 9 12l36 12q5 2 9 3t7 1q7 0 10 -11q10 -37 27.5 -53t45.5 -16q32 0 55 19.5t41 53.5q5 8 11 8
q5 0 8.5 -1.5t13.5 -6.5l14 -7q10 -5 13 -8t3 -8t-7 -18q-28 -48 -65 -73.5t-95 -25.5z" />
    <glyph glyph-name="ohungarumlaut" unicode="&#x151;" horiz-adv-x="493" 
d="M201 -9q-91 0 -132.5 33.5t-41.5 104.5q0 26 6 68.5t14 84.5q12 60 30 101.5t45.5 67t65.5 37t90 11.5q91 0 132.5 -33.5t41.5 -104.5q0 -26 -6 -68.5t-14 -84.5q-12 -60 -30 -101.5t-45.5 -67t-65.5 -37t-90 -11.5zM209 66q56 0 85 32t44 107q11 56 16 90.5t5 52.5
q0 42 -20.5 59t-68.5 17q-56 0 -85 -32t-44 -107q-11 -56 -16 -90.5t-5 -52.5q0 -42 20.5 -59t68.5 -17zM321 733q11 8 17 8q8 0 15 -10l20 -30q8 -12 8 -18q0 -8 -12 -15l-168 -105q-11 -7 -17 -7q-7 0 -14 10l-11 15q-9 12 -9 18q0 8 8 15zM530 733q11 8 17 8q8 0 15 -10
l20 -30q8 -12 8 -18q0 -8 -12 -15l-168 -105q-11 -7 -17 -7q-7 0 -14 10l-11 15q-9 12 -9 18q0 8 8 15z" />
    <glyph glyph-name="oslash" unicode="&#xf8;" horiz-adv-x="493" 
d="M201 -9q-49 0 -83 9l-41 -64q-6 -9 -12 -9t-13 4l-18 11q-9 5 -9 11q0 5 5 12l38 60q-41 32 -41 104q0 26 6 68.5t14 84.5q12 60 30 101.5t45.5 67t65.5 37t90 11.5q49 0 85 -11l41 64q6 9 12 9t13 -4l18 -11q9 -5 9 -11q0 -5 -5 -12l-38 -60q39 -35 39 -102
q0 -26 -6 -68.5t-14 -84.5q-12 -60 -30 -101.5t-45.5 -67t-65.5 -37t-90 -11.5zM120 142q0 -18 3 -31l195 306q-18 7 -48 7q-56 0 -85 -32t-44 -107q-11 -56 -16 -90.5t-5 -52.5zM209 66q56 0 85 32t44 107q11 56 16 90.5t5 52.5q0 15 -3 26l-193 -303q10 -3 21 -4t25 -1z
" />
    <glyph glyph-name="oslashacute" unicode="&#x1ff;" horiz-adv-x="493" 
d="M201 -9q-49 0 -83 9l-41 -64q-6 -9 -12 -9t-13 4l-18 11q-9 5 -9 11q0 5 5 12l38 60q-41 32 -41 104q0 26 6 68.5t14 84.5q12 60 30 101.5t45.5 67t65.5 37t90 11.5q49 0 85 -11l41 64q6 9 12 9t13 -4l18 -11q9 -5 9 -11q0 -5 -5 -12l-38 -60q39 -35 39 -102
q0 -26 -6 -68.5t-14 -84.5q-12 -60 -30 -101.5t-45.5 -67t-65.5 -37t-90 -11.5zM120 142q0 -18 3 -31l195 306q-18 7 -48 7q-56 0 -85 -32t-44 -107q-11 -56 -16 -90.5t-5 -52.5zM209 66q56 0 85 32t44 107q11 56 16 90.5t5 52.5q0 15 -3 26l-193 -303q10 -3 21 -4t25 -1z
M399 716q16 8 21 8t8 -3t8 -14l11 -26q8 -19 8 -26q0 -10 -13 -14l-192 -71q-8 -3 -13 -3q-7 0 -12 10l-10 21q-3 7 -5 11.5t-2 8.5q0 6 11 11z" />
    <glyph glyph-name="oe" unicode="&#x153;" horiz-adv-x="775" 
d="M201 -9q-91 0 -132.5 33.5t-41.5 104.5q0 26 6 68.5t14 84.5q12 60 30 101.5t45.5 67t65.5 37t90 11.5q54 0 90 -14t55 -40q46 54 156 54q80 0 118.5 -34.5t38.5 -97.5q0 -34 -6.5 -69.5t-14.5 -75.5q-3 -13 -10 -18.5t-22 -5.5h-253q-3 -17 -5 -31.5t-2 -30.5
q0 -40 25.5 -54t76.5 -14q28 0 61 5.5t59 13.5q3 1 6.5 2t7.5 1q7 0 10 -12l6 -24q4 -15 4 -22q0 -8 -10 -12q-30 -12 -74.5 -20.5t-84.5 -8.5q-61 0 -98.5 17.5t-52.5 45.5q-23 -33 -62.5 -48t-95.5 -15zM209 66q28 0 49 6.5t36 22.5t25.5 42.5t18.5 67.5l9 49q12 67 12 99
q0 40 -20.5 55.5t-68.5 15.5q-56 0 -85 -32t-44 -107q-11 -56 -16 -90.5t-5 -52.5q0 -42 20.5 -59t68.5 -17zM617 271q13 0 16 12q5 18 7.5 38t2.5 36q0 36 -18 51.5t-60 15.5q-48 0 -74 -24t-39 -88l-8 -41h173z" />
    <glyph glyph-name="thorn" unicode="&#xfe;" horiz-adv-x="510" 
d="M223 66q30 0 51.5 7.5t36.5 24t25 42.5t18 64q21 97 21 147q0 37 -19.5 54.5t-66.5 17.5q-28 0 -49.5 -5.5t-38 -19.5t-28 -39t-18.5 -65l-16 -83q-5 -23 -7 -40t-2 -41q0 -29 21 -46.5t72 -17.5zM234 -9q-50 0 -79.5 10.5t-48.5 33.5h-1l-38 -194q-3 -18 -22 -18h-53
q-18 0 -18 12q0 4 2.5 18t6.5 31l151 775q2 10 6.5 14t15.5 4h53q18 0 18 -11q0 -5 -2.5 -17.5l-6.5 -32.5q0 -1 -3.5 -17t-8 -39.5t-10 -49.5t-9.5 -47q26 18 58.5 27t76.5 9q67 0 107 -30.5t40 -101.5q0 -49 -25 -177q-10 -49 -25 -86t-39.5 -62t-60 -38t-85.5 -13z" />
    <glyph glyph-name="racute" unicode="&#x155;" horiz-adv-x="327" 
d="M102 18q-2 -10 -6.5 -14t-15.5 -4h-53q-18 0 -18 12q0 4 2.5 17.5t6.5 31.5l81 415q2 8 5.5 11t13.5 3h35q10 0 13 -3t2 -11l-5 -44h2q22 31 52 44.5t78 13.5h33q14 0 14 -10q0 -4 -1.5 -12.5t-3.5 -17.5l-5 -25q-2 -9 -5.5 -11.5t-12.5 -2.5h-29q-57 0 -88 -29.5
t-44 -100.5zM340 716q16 8 21 8t8 -3t8 -14l11 -26q8 -19 8 -26q0 -10 -13 -14l-192 -71q-8 -3 -13 -3q-7 0 -12 10l-10 21q-3 7 -5 11.5t-2 8.5q0 6 11 11z" />
    <glyph glyph-name="rcaron" unicode="&#x159;" horiz-adv-x="327" 
d="M102 18q-2 -10 -6.5 -14t-15.5 -4h-53q-18 0 -18 12q0 4 2.5 17.5t6.5 31.5l81 415q2 8 5.5 11t13.5 3h35q10 0 13 -3t2 -11l-5 -44h2q22 31 52 44.5t78 13.5h33q14 0 14 -10q0 -4 -1.5 -12.5t-3.5 -17.5l-5 -25q-2 -9 -5.5 -11.5t-12.5 -2.5h-29q-57 0 -88 -29.5
t-44 -100.5zM200 558q-14 0 -20 10l-76 109q-6 9 -8.5 12.5t-2.5 8.5t2.5 7.5t7.5 5.5l25 17q8 5 13 5t11 -7l75 -89h4l105 89q8 7 15 7t13 -8l16 -17q9 -10 9 -16q0 -5 -8 -13l-116 -111q-5 -5 -9.5 -7.5t-13.5 -2.5h-42z" />
    <glyph glyph-name="rcommaaccent" unicode="&#x157;" horiz-adv-x="327" 
d="M102 18q-2 -10 -6.5 -14t-15.5 -4h-53q-18 0 -18 12q0 4 2.5 17.5t6.5 31.5l81 415q2 8 5.5 11t13.5 3h35q10 0 13 -3t2 -11l-5 -44h2q22 31 52 44.5t78 13.5h33q14 0 14 -10q0 -4 -1.5 -12.5t-3.5 -17.5l-5 -25q-2 -9 -5.5 -11.5t-12.5 -2.5h-29q-57 0 -88 -29.5
t-44 -100.5zM43 -66q18 0 30 -9t12 -32q0 -18 -5 -35.5t-17 -37.5q-14 -23 -33.5 -46.5t-42.5 -43.5q-7 -5 -11 -5q-5 0 -13 7l-11 9q-7 6 -7 10t7 11q6 6 15 15.5t16 17.5q11 14 15.5 20.5t4.5 9.5q0 6 -8 11l-4 3q-14 9 -14 28q0 9 2 19.5t4 15.5q13 32 52 32h8z" />
    <glyph glyph-name="sacute" unicode="&#x15b;" horiz-adv-x="417" 
d="M158 -9q-35 0 -76.5 6.5t-72.5 18.5q-13 5 -13 15q0 7 7 29l7 23q3 11 11 11q4 0 7 -1t5 -2q28 -11 61 -17.5t62 -6.5q40 0 61.5 9t32.5 32q11 22 11 50q0 18 -11.5 29.5t-44.5 20.5l-60 16q-51 14 -71 42.5t-20 69.5q0 87 50 125t132 38q35 0 69.5 -5.5t59.5 -14.5
q14 -5 14 -14q0 -7 -8 -31l-6 -19q-3 -12 -12 -12q-5 0 -14 3q-20 6 -49 11t-53 5q-39 0 -59.5 -8.5t-28.5 -28.5q-4 -9 -5.5 -19.5t-1.5 -18.5q0 -20 13.5 -33t45.5 -21l60 -16q50 -14 70 -36.5t20 -65.5q0 -8 -1 -19t-3.5 -23t-5 -23t-5.5 -20q-20 -56 -63 -77.5
t-115 -21.5zM354 716q16 8 21 8t8 -3t8 -14l11 -26q8 -19 8 -26q0 -10 -13 -14l-192 -71q-8 -3 -13 -3q-7 0 -12 10l-10 21q-3 7 -5 11.5t-2 8.5q0 6 11 11z" />
    </font>
</defs>
</svg>
