<?xml version="1.0" standalone="no"?>
<!DOCTYPE svg PUBLIC "-//W3C//DTD SVG 1.1//EN" "http://www.w3.org/Graphics/SVG/1.1/DTD/svg11.dtd" >
<svg xmlns="http://www.w3.org/2000/svg">
<metadata>
Copyright (c) 2011 by Fontsmith Ltd. All rights reserved.
</metadata>
<defs>
<font id="FSJoeyWeb-Light" horiz-adv-x="512" >
  <font-face 
    font-family="FS Joey Web Light"
    font-weight="300"
    font-stretch="normal"
    units-per-em="1000"
    panose-1="2 0 5 6 3 0 0 2 0 4"
    ascent="750"
    descent="-250"
    x-height="490"
    cap-height="647"
    bbox="-163.25 -251.909 1000 1036.23"
    underline-thickness="50"
    underline-position="-50"
    unicode-range="U+000D-FB02"
  />
<missing-glyph horiz-adv-x="535" 
d="M20 693h495v-693h-495v693zM436 644h-337l169 -253zM466 94v505l-169 -252zM436 50l-168 252l-169 -252h337zM70 94l168 253l-168 252v-505z" />
    <glyph glyph-name="fi" unicode="fi" horiz-adv-x="479" 
d="M134 8q0 -8 -8 -8h-28q-7 0 -7 8v442h-63q-6 0 -6 6v19q0 5 6 7l63 8v37q0 33 4 54t14 40q20 38 59.5 51.5t87.5 13.5q32 0 63 -5.5t50 -13.5q6 -2 7.5 -4.5t0.5 -7.5l-3 -16q-1 -10 -11 -7q-23 7 -50.5 11t-55.5 4q-34 0 -54.5 -4.5t-34.5 -15.5q-21 -16 -27.5 -40
t-6.5 -66v-31h249q8 0 8 -8v-474q0 -8 -8 -8h-28q-7 0 -7 8v442h-214v-442z" />
    <glyph glyph-name="fl" unicode="fl" horiz-adv-x="509" 
d="M134 9q0 -8 -8 -8h-28q-7 0 -7 8v442h-63q-6 0 -6 6v19q0 5 6 7l63 8v37q0 33 4 54t14 40q20 37 58 51t83 14q28 0 55.5 -5t47.5 -11l33 7q8 0 8 -8v-558q0 -44 11 -57.5t40 -13.5h26q7 0 7 -7v-25q0 -8 -8 -8h-23q-53 0 -74.5 22.5t-21.5 83.5v524q-21 8 -47 12.5
t-53 4.5q-32 0 -51 -4.5t-32 -15.5q-20 -17 -27 -40.5t-7 -65.5v-31h109q8 0 8 -7v-26q0 -7 -8 -7h-109v-442z" />
    <glyph glyph-name=".notdef" horiz-adv-x="535" 
d="M20 693h495v-693h-495v693zM436 644h-337l169 -253zM466 94v505l-169 -252zM436 50l-168 252l-169 -252h337zM70 94l168 253l-168 252v-505z" />
    <glyph glyph-name=".null" horiz-adv-x="0" 
 />
    <glyph glyph-name=".null" horiz-adv-x="0" 
 />
    <glyph glyph-name="nonmarkingreturn" unicode="&#xd;" horiz-adv-x="226" 
 />
    <glyph glyph-name="space" unicode=" " horiz-adv-x="226" 
 />
    <glyph glyph-name="nonbreakingspace" unicode="&#xa0;" horiz-adv-x="226" 
 />
    <glyph glyph-name="A" unicode="A" 
d="M134 223q-14 -50 -29 -106t-28 -109q-1 -8 -10 -8h-33q-8 0 -6 11q20 79 42.5 163t46.5 165t48 155t46 134q5 13 10.5 16t16.5 3h35q11 0 17 -3t11 -16q22 -60 45.5 -134t47.5 -155t47 -165t43 -163q2 -11 -6 -11h-33q-9 0 -10 8q-13 53 -28 109t-29 106h-244zM367 265
q-11 37 -23 79.5t-25.5 86.5t-27.5 89t-28 87h-14q-14 -42 -28 -87t-27.5 -89t-25.5 -86.5t-23 -79.5h222z" />
    <glyph glyph-name="B" unicode="B" horiz-adv-x="500" 
d="M222 0q-42 0 -74.5 1t-56.5 4q-19 3 -19 20v593q0 16 17 21q12 4 28.5 7t34.5 5.5t36 3.5t34 1q96 0 144.5 -36t48.5 -114v-15q0 -59 -25 -97t-73 -49v-3q67 -7 102.5 -44t35.5 -104v-14q0 -51 -16 -85.5t-46 -55.5t-73.5 -30t-97.5 -9zM405 189q0 38 -11 63t-34 39.5
t-60 20t-89 5.5h-93v-259q0 -12 12 -13q25 -3 89 -3q35 0 68.5 4t59.5 18t42 41t16 73v11zM201 359q37 0 67 5.5t51.5 20.5t33.5 41.5t12 68.5v9q0 63 -38 86.5t-108 23.5q-25 0 -50 -2t-42 -7q-9 -3 -9 -12v-234h83z" />
    <glyph glyph-name="C" unicode="C" horiz-adv-x="492" 
d="M280 656q96 0 166 -41q8 -5 4 -15l-8 -18q-5 -9 -15 -3q-34 17 -68.5 26t-77.5 9q-39 0 -70 -8t-54 -31q-32 -32 -42.5 -88t-10.5 -147v-32q0 -52 2 -88t7 -61.5t14 -44.5t23 -36q20 -24 51.5 -34.5t87.5 -10.5q37 0 75 8t69 19q11 4 14 -7l5 -21q2 -6 0 -8t-6 -4
q-32 -13 -74.5 -21t-87.5 -8q-70 0 -112 16t-68 49q-14 17 -23 37t-14.5 47t-8 64.5t-2.5 90.5v58q0 53 3.5 93.5t11.5 71.5t22.5 54t35.5 41q27 23 65 33t86 10z" />
    <glyph glyph-name="D" unicode="D" horiz-adv-x="568" 
d="M219 616h-43t-46 -2q-12 -1 -12 -14v-549q0 -9 8 -9h92q66 0 108.5 9t71.5 35q33 29 49.5 81.5t16.5 146.5v27q0 46 -4 80t-11.5 59.5t-19 44.5t-25.5 35q-31 34 -78 45t-107 11zM92 0q-20 0 -20 18v615q0 8 3.5 13t14.5 7q15 1 28 2t27.5 2t31.5 1h38q73 0 128.5 -12.5
t93 -46.5t56.5 -93t19 -153v-47q0 -79 -14 -137t-45.5 -95.5t-83 -55.5t-126.5 -18h-151z" />
    <glyph glyph-name="E" unicode="E" horiz-adv-x="455" 
d="M69 96q-5 47 -5.5 101.5t-0.5 97.5v57q0 48 1.5 101t4.5 98q2 24 7 41t16 29q25 26 84 26h232q11 0 11 -11v-20q0 -11 -11 -11h-229q-20 0 -30.5 -3t-16.5 -9q-7 -7 -10 -18t-5 -31q-3 -42 -4.5 -85t-1.5 -103h244q11 0 11 -11v-20q0 -11 -11 -11h-244q0 -40 0.5 -70
t1.5 -55t2 -45.5t2 -40.5q2 -20 5 -31t10 -18q6 -6 16.5 -9t30.5 -3h229q11 0 11 -11v-20q0 -11 -11 -11h-232q-30 0 -50 5t-33 19q-12 13 -17 30.5t-7 41.5z" />
    <glyph glyph-name="F" unicode="F" horiz-adv-x="428" 
d="M118 11q0 -11 -9 -11h-28q-9 0 -9 11v533q0 62 27 83q14 11 33.5 15.5t47.5 4.5h205q11 0 11 -11v-19q0 -12 -11 -12h-201q-23 0 -34.5 -3t-18.5 -10q-8 -8 -10.5 -19.5t-2.5 -34.5v-179h231q11 0 11 -11v-20q0 -11 -11 -11h-231v-306z" />
    <glyph glyph-name="G" unicode="G" horiz-adv-x="549" 
d="M330 294q-11 0 -11 11v20q0 11 11 11h148q10 0 10 -10v-294q0 -19 -19 -23q-30 -8 -74.5 -13t-86.5 -5q-72 0 -120 18.5t-77.5 56t-42 94.5t-12.5 134v58q0 155 57.5 229.5t191.5 74.5q42 0 84.5 -6.5t76.5 -17.5q7 -2 9.5 -4.5t0.5 -9.5l-4 -19q-3 -11 -16 -7
q-29 8 -68 15t-79 7q-53 0 -91.5 -12.5t-64 -44t-37.5 -84.5t-12 -134v-30q0 -75 10.5 -127.5t34.5 -85.5t63.5 -48t97.5 -15q30 0 61.5 2.5t55.5 7.5q15 3 15 18v233h-112z" />
    <glyph glyph-name="H" unicode="H" horiz-adv-x="577" 
d="M505 11q0 -11 -9 -11h-28q-9 0 -9 11v304h-341v-304q0 -11 -9 -11h-28q-9 0 -9 11v625q0 11 9 11h28q9 0 9 -11v-279h341v279q0 11 9 11h28q9 0 9 -11v-625z" />
    <glyph glyph-name="I" unicode="I" horiz-adv-x="202" 
d="M124 11q0 -11 -9 -11h-28q-9 0 -9 11v625q0 11 9 11h28q9 0 9 -11v-625z" />
    <glyph glyph-name="J" unicode="J" horiz-adv-x="281" 
d="M68 42q68 0 87 38q10 20 10 47.5v62.5v446q0 11 9 11h28q9 0 9 -11v-444v-65t-12 -63q-13 -32 -43.5 -48t-87.5 -16h-37q-11 0 -11 11v20q0 11 11 11h37z" />
    <glyph glyph-name="K" unicode="K" horiz-adv-x="476" 
d="M118 354h80q13 0 19 3t12 12l185 272q4 6 14 6h31q11 0 5 -9l-189 -280q-8 -12 -8 -18q0 -5 8 -19l185 -308q7 -13 -7 -13h-30q-10 0 -15 8l-174 292q-5 9 -11.5 10.5t-20.5 1.5h-84v-301q0 -11 -9 -11h-28q-9 0 -9 11v625q0 11 9 11h28q9 0 9 -11v-282z" />
    <glyph glyph-name="L" unicode="L" horiz-adv-x="355" 
d="M326 42q11 0 11 -11v-20q0 -11 -11 -11h-167q-47 0 -66 16q-21 18 -21 62v558q0 11 9 11h28q9 0 9 -11v-549q0 -28 9 -36.5t35 -8.5h164z" />
    <glyph glyph-name="M" unicode="M" horiz-adv-x="726" 
d="M351 112q-14 0 -20.5 6.5t-14.5 25.5q-19 47 -40.5 103t-44.5 116.5t-45.5 122.5t-43.5 121h-6q-13 -145 -21.5 -290.5t-15.5 -308.5q0 -8 -10 -8h-30q-8 0 -8 11q6 155 16 307t24 303q2 14 8 20t21 6h30q15 0 21.5 -5t12.5 -21q19 -54 41.5 -115t46 -123t46 -122
t43.5 -112h4q21 52 43.5 112t46 122t45.5 123t42 115q6 16 12.5 21t21.5 5h30q15 0 21 -6t8 -20q14 -151 24 -303t16 -307q0 -11 -8 -11h-30q-10 0 -10 8q-7 163 -15.5 308.5t-21.5 290.5h-6q-21 -59 -43.5 -121t-45.5 -122.5t-44.5 -116.5t-40.5 -103q-8 -19 -15 -25.5
t-21 -6.5h-23z" />
    <glyph glyph-name="N" unicode="N" horiz-adv-x="596" 
d="M123 607h-6v-596q0 -11 -9 -11h-26q-10 0 -10 11v604q0 19 7 25.5t24 6.5h20q20 0 28.5 -6t17.5 -24l304 -577h6v596q0 11 9 11h26q10 0 10 -11v-606q0 -16 -6 -23t-21 -7h-27q-24 0 -35 21z" />
    <glyph glyph-name="O" unicode="O" horiz-adv-x="568" 
d="M284 33q42 0 78 12.5t56 38.5q27 35 36.5 87t9.5 138v29q0 46 -2 80.5t-7.5 61t-14.5 47t-22 37.5q-20 26 -56 38t-78 12t-78 -12t-56 -38q-14 -17 -22.5 -37.5t-14 -47t-7.5 -61t-2 -80.5v-29q0 -86 9.5 -138t36.5 -87q20 -26 56 -38.5t78 -12.5zM284 -9
q-57 0 -100 14.5t-69 44.5q-17 18 -28 40.5t-18 52t-10 67t-3 85.5v56q0 49 3 86.5t10 67t18 52t28 40.5q26 30 69 44.5t100 14.5t100 -14.5t69 -44.5q16 -18 27.5 -40.5t18.5 -52t10 -67t3 -86.5v-56q0 -48 -3 -85.5t-10 -67t-18.5 -52t-27.5 -40.5q-26 -30 -69 -44.5
t-100 -14.5z" />
    <glyph glyph-name="P" unicode="P" horiz-adv-x="484" 
d="M221 614q-26 0 -48.5 -2t-40.5 -5q-14 -3 -14 -18v-289q48 -3 102 -3q46 0 80 7.5t56.5 25.5t33.5 48t11 75v9q0 78 -41.5 115t-138.5 37zM118 11q0 -11 -9 -11h-28q-9 0 -9 11v612q0 18 15 21q28 5 61.5 8.5t68.5 3.5q62 0 106 -10.5t72 -34t41 -60t13 -87.5v-12
q0 -102 -56.5 -149.5t-167.5 -47.5h-51.5t-55.5 1v-245z" />
    <glyph glyph-name="Q" unicode="Q" horiz-adv-x="568" 
d="M411 -161q-41 25 -79.5 65t-69.5 88q-49 2 -86 16t-61 42q-17 18 -28 40.5t-18 52t-10 67t-3 85.5v56q0 49 3 86.5t10 67t18 52t28 40.5q26 30 69 44.5t100 14.5t100 -14.5t69 -44.5q16 -18 27.5 -40.5t18.5 -52t10 -67t3 -86.5v-56q0 -48 -3 -85.5t-10 -67t-18.5 -52
t-27.5 -40.5q-23 -26 -57.5 -39.5t-79.5 -17.5q23 -35 54.5 -64.5t80.5 -61.5q11 -7 -1 -16l-16 -12q-5 -4 -9.5 -4.5t-13.5 4.5zM284 30q42 0 78 12.5t56 38.5q27 35 36.5 88.5t9.5 139.5v29q0 46 -2 81t-7.5 62t-14.5 48t-22 38q-20 26 -56 38t-78 12t-78 -12t-56 -38
q-14 -17 -22.5 -38t-14 -48t-7.5 -62t-2 -81v-29q0 -86 9.5 -139.5t36.5 -88.5q20 -26 56 -38.5t78 -12.5z" />
    <glyph glyph-name="R" unicode="R" horiz-adv-x="503" 
d="M118 11q0 -11 -9 -11h-28q-9 0 -9 11v612q0 18 15 21q28 5 63.5 8.5t66.5 3.5q62 0 106 -9.5t72 -30.5t41 -55.5t13 -84.5v-11q0 -80 -34.5 -124.5t-101.5 -57.5l158 -271q7 -12 -7 -12h-32q-12 0 -17 9l-151 267q-10 -1 -20 -1h-21h-51.5t-53.5 2v-266zM221 614
q-26 0 -48.5 -2t-40.5 -5q-14 -3 -14 -18v-269q48 -3 99 -3q46 0 80.5 6.5t57.5 24t34.5 46.5t11.5 74v9q0 75 -41.5 106t-138.5 31z" />
    <glyph glyph-name="S" unicode="S" horiz-adv-x="447" 
d="M210 -9q-51 0 -90.5 9.5t-70.5 22.5q-10 4 -6 13l7 23q3 10 13 5q29 -14 66.5 -22.5t79.5 -8.5q79 0 115 35.5t36 96.5v12q0 31 -5.5 52.5t-19 36.5t-36 25t-56.5 18l-57 14q-69 17 -105.5 53.5t-36.5 100.5v18q0 78 49 119.5t140 41.5q40 0 71.5 -5t57.5 -13
q11 -3 8 -15l-4 -20q-3 -10 -15 -6q-27 8 -58.5 12.5t-62.5 4.5q-68 0 -103 -30t-35 -89v-11q0 -30 9 -50t25 -33.5t37 -21.5t45 -14l56 -14q42 -11 69.5 -24t44 -32t23.5 -45t7 -61v-19q0 -47 -14.5 -81t-40.5 -55.5t-62.5 -32t-80.5 -10.5z" />
    <glyph glyph-name="T" unicode="T" horiz-adv-x="478" 
d="M262 605v-594q0 -11 -9 -11h-28q-9 0 -9 11v594h-181q-12 0 -12 10v22q0 10 12 10h408q12 0 12 -10v-22q0 -10 -12 -10h-181z" />
    <glyph glyph-name="U" unicode="U" horiz-adv-x="570" 
d="M285 -9q-58 0 -98 13t-66 39q-27 26 -39 67.5t-12 95.5v430q0 11 9 11h28q9 0 9 -11v-425q0 -49 8 -81.5t29 -55.5q20 -23 52 -34t80 -11t80 11t52 34q21 23 29 55.5t8 81.5v425q0 11 9 11h28q9 0 9 -11v-430q0 -54 -12 -95.5t-39 -67.5q-26 -26 -66 -39t-98 -13z" />
    <glyph glyph-name="V" unicode="V" horiz-adv-x="522" 
d="M267 40q48 147 92 298t85 301q3 8 10 8h33q10 0 6 -11q-25 -88 -47.5 -166.5t-45 -153t-46 -147.5t-48.5 -150q-5 -13 -13 -16t-19 -3h-27q-11 0 -18.5 3t-12.5 16q-26 77 -50 150t-46.5 147.5t-45 153t-46.5 166.5q-2 11 6 11h33q7 0 10 -8q42 -150 86 -301t92 -298h12z
" />
    <glyph glyph-name="W" unicode="W" horiz-adv-x="786" 
d="M388 578q-15 -65 -29.5 -130.5t-30.5 -133t-34 -139t-38 -147.5q-5 -17 -12.5 -22.5t-22.5 -5.5h-25q-14 0 -21.5 4.5t-12.5 21.5q-20 70 -38.5 146t-36 154t-33 156.5t-28.5 153.5q-2 11 6 11h32q9 0 10 -10q11 -68 26 -144t31.5 -154t35 -154.5t37.5 -144.5h11
q36 139 68.5 274.5t63.5 277.5q3 15 10 20t23 5h26q15 0 22.5 -5t10.5 -20q31 -142 64 -277.5t68 -274.5h11q19 68 37.5 144.5t35 154.5t31.5 154t26 144q1 10 10 10h32q8 0 6 -11q-13 -75 -28.5 -153.5t-33 -156.5t-36.5 -154t-38 -146q-5 -17 -12.5 -21.5t-21.5 -4.5h-25
q-15 0 -22.5 5.5t-12.5 22.5q-20 76 -38 147.5t-34 139t-30.5 133t-29.5 130.5h-10z" />
    <glyph glyph-name="X" unicode="X" horiz-adv-x="514" 
d="M247 314q-16 0 -24.5 -4.5t-15.5 -19.5l-127 -282q-4 -8 -11 -8h-34q-12 0 -7 9l144 309q2 5 4 9t2 8q0 6 -6 18l-133 285q-2 3 0 6t7 3h28q7 0 10 -2t7 -10l123 -263q5 -11 10 -14.5t14 -3.5h38q9 0 14 3.5t10 14.5l123 263q4 8 7 10t10 2h28q5 0 7 -3t0 -6l-133 -285
q-6 -12 -6 -18q0 -4 2 -8t4 -9l144 -309q4 -9 -7 -9h-34q-7 0 -11 8l-127 282q-7 15 -15.5 19.5t-24.5 4.5h-20z" />
    <glyph glyph-name="Y" unicode="Y" horiz-adv-x="466" 
d="M256 11q0 -11 -9 -11h-28q-9 0 -9 11v213q-29 52 -53 98t-45 94t-41.5 101t-42.5 119q-4 11 6 11h33q7 0 10 -8q68 -206 152 -358h8q84 152 152 358q3 8 10 8h33q10 0 6 -11q-22 -66 -42.5 -119t-41.5 -101t-45 -94t-53 -98v-213z" />
    <glyph glyph-name="Z" unicode="Z" horiz-adv-x="473" 
d="M423 38q8 0 8 -8v-21q0 -3 -2.5 -6t-5.5 -3h-374q-13 0 -13 11v10q0 14 5.5 25t14.5 25l329 538h-325q-8 0 -8 9v20q0 9 8 9h359q12 0 12 -12v-10q0 -8 -1 -15t-5 -15t-10.5 -19.5t-16.5 -28.5l-312 -509h337z" />
    <glyph glyph-name="a" unicode="a" horiz-adv-x="453" 
d="M343 240q-14 2 -32 3t-35 1h-63q-69 0 -98 -21.5t-29 -74.5v-25q0 -51 22 -72t69 -21h39q66 0 96.5 29.5t30.5 89.5v91zM340 50q-17 -29 -47.5 -44t-87.5 -15h-20q-79 0 -111 32t-32 107v12q0 35 7.5 61.5t28 44t55 26.5t88.5 9h50q18 0 36.5 -1t35.5 -3v59
q0 72 -30.5 97t-91.5 25q-33 0 -65 -5.5t-55 -12.5q-13 -4 -16 5l-4 18q-2 7 0 9.5t8 4.5q26 8 60.5 14t76.5 6q87 0 123.5 -40.5t36.5 -130.5v-319q0 -9 -9 -9h-22q-9 0 -10 10l-3 40h-2z" />
    <glyph glyph-name="b" unicode="b" horiz-adv-x="487" 
d="M393 264q0 107 -34.5 151t-106.5 44q-78 0 -110.5 -37t-32.5 -106v-147q0 -76 35 -107t103 -31q40 0 68 10t45 33t25 61t8 94v35zM109 439h2q18 26 53.5 43t92.5 17q94 0 137 -55t43 -176v-47q0 -65 -12.5 -109t-36.5 -71t-59.5 -38.5t-82.5 -11.5q-98 0 -139 43.5
t-41 131.5v503q0 8 7 8h28q8 0 8 -8v-230z" />
    <glyph glyph-name="c" unicode="c" horiz-adv-x="406" 
d="M367 31q3 -8 1 -11t-9 -6q-23 -10 -55 -16.5t-60 -6.5q-91 0 -138 44q-31 29 -43.5 78.5t-12.5 118.5v34q0 75 13 119.5t41 70.5q44 43 132 43q44 0 79 -11.5t58 -28.5q8 -5 3 -13l-13 -19q-4 -6 -13 0q-49 32 -115 32q-36 0 -59.5 -8t-39.5 -23q-15 -15 -23.5 -34
t-12.5 -41t-5 -46.5t-1 -50.5v-17q0 -61 8.5 -102t33.5 -70q14 -17 43 -26.5t65 -9.5q23 0 52 5t53 15q10 4 14 -7z" />
    <glyph glyph-name="d" unicode="d" horiz-adv-x="485" 
d="M376 310q0 70 -36.5 109.5t-107.5 39.5q-36 0 -62.5 -10t-43 -33t-24.5 -61t-8 -93v-35q0 -56 8.5 -94t26 -60.5t45 -32t65.5 -9.5q34 0 59.5 7.5t42.5 24t26 43.5t9 67v137zM376 669q0 8 7 8h28q8 0 8 -8v-510q0 -38 -10 -69t-31.5 -53t-55.5 -34t-82 -12t-84 10.5
t-59.5 37t-35 70.5t-11.5 110v49q0 119 41 175t142 56q51 0 87 -17.5t54 -46.5h2v234z" />
    <glyph glyph-name="e" unicode="e" horiz-adv-x="448" 
d="M396 258q0 -23 -9 -32.5t-32 -9.5h-261q1 -53 9 -88.5t25.5 -57t44 -30.5t65.5 -9q26 0 60 6t60 17q10 4 13 -4l6 -16q2 -7 1 -10t-9 -7q-27 -12 -63 -19t-68 -7q-52 0 -88 13t-58 40.5t-32 71.5t-10 106v45q0 121 41.5 176.5t137.5 55.5q167 0 167 -181v-60zM339 258
q8 0 11 2t3 14v31q0 84 -30 119t-94 35q-35 0 -60 -9t-41 -32t-24 -62t-9 -98h244z" />
    <glyph glyph-name="f" unicode="f" horiz-adv-x="264" 
d="M134 8q0 -8 -8 -8h-28q-7 0 -7 8v442h-63q-6 0 -6 6v19q0 5 6 7l63 8v37q0 33 4 54t14 40t24.5 31.5t32.5 20t37.5 10.5t38.5 3q20 0 40 -2.5t37 -7.5q8 -2 7 -13l-3 -17q-1 -6 -3.5 -7t-7.5 0q-14 3 -31 5.5t-34 2.5q-55 0 -79 -20q-20 -17 -27 -40.5t-7 -65.5v-31h109
q8 0 8 -7v-26q0 -7 -8 -7h-109v-442z" />
    <glyph glyph-name="g" unicode="g" horiz-adv-x="461" 
d="M219 499q11 0 21 -0.5t20 -1.5q17 34 41.5 50.5t62.5 16.5h22q8 0 8 -7v-27q0 -8 -8 -8h-28q-21 0 -34 -8t-21 -27q22 -7 39 -18.5t28.5 -31t17 -48t5.5 -69.5v-32q0 -68 -17.5 -106t-52.5 -57q42 -26 65 -59t23 -84v-17q0 -44 -14 -73t-39.5 -46.5t-60.5 -25t-77 -7.5
q-25 0 -50 3.5t-49 9.5t-45 14t-37 17q-4 2 -5.5 5t0.5 9l8 19q4 8 14 3q35 -18 79 -29t89 -11q68 0 105.5 25t37.5 90v10q0 50 -26 81t-68 52q-14 -2 -26.5 -3t-27.5 -1q-92 0 -132 42.5t-40 138.5v32q0 51 11 85.5t32.5 55t54 29.5t74.5 9zM91 291q0 -82 31 -113t97 -31
q34 0 58.5 6t40.5 22t23.5 44.5t7.5 73.5v23q0 43 -8 71t-24.5 44t-41 22t-56.5 6t-56 -6t-40 -22t-24 -44t-8 -71v-25z" />
    <glyph glyph-name="h" unicode="h" horiz-adv-x="498" 
d="M431 8q0 -8 -8 -8h-28q-7 0 -7 8v293q0 83 -30.5 120.5t-105.5 37.5q-63 0 -99.5 -35t-36.5 -109v-307q0 -8 -8 -8h-28q-7 0 -7 8v661q0 8 7 8h28q8 0 8 -8v-237q17 30 54 49t88 19q49 0 82 -12.5t53 -37t29 -61t9 -84.5v-297z" />
    <glyph glyph-name="i" unicode="i" horiz-adv-x="219" 
d="M145 618q0 -21 -9 -30t-24 -9h-4q-20 0 -28 9t-8 30v6q0 21 10 29.5t26 8.5h4q15 0 24 -8.5t9 -29.5v-6zM131 8q0 -8 -8 -8h-28q-7 0 -7 8v474q0 8 7 8h28q8 0 8 -8v-474z" />
    <glyph glyph-name="j" unicode="j" horiz-adv-x="220" 
d="M145 618q0 -21 -9 -30t-24 -9h-4q-20 0 -28 9t-8 30v6q0 21 10 29.5t26 8.5h4q15 0 24 -8.5t9 -29.5v-6zM131 1q0 -32 -3.5 -57.5t-13.5 -47.5q-19 -41 -51.5 -57.5t-77.5 -16.5h-35q-9 0 -9 9v23q0 8 8 8h31q66 0 90 40q13 22 15.5 46t2.5 49v485q0 8 7 8h28q8 0 8 -8
v-481z" />
    <glyph glyph-name="k" unicode="k" horiz-adv-x="404" 
d="M116 8q0 -8 -8 -8h-28q-7 0 -7 8v661q0 8 7 8h28q8 0 8 -8v-388h53q11 0 19 4t16 17l132 182q4 6 13 6h28q13 0 6 -11l-155 -212q-3 -4 -2.5 -6t2.5 -6l154 -244q7 -11 -6 -11h-27q-9 0 -14 8l-135 215q-6 11 -12 14.5t-17 3.5h-55v-233z" />
    <glyph glyph-name="l" unicode="l" horiz-adv-x="234" 
d="M76 669q0 8 7 8h28q8 0 8 -8v-558q0 -44 11 -57.5t40 -13.5h26q7 0 7 -7v-25q0 -8 -8 -8h-23q-53 0 -74.5 22.5t-21.5 83.5v563z" />
    <glyph glyph-name="m" unicode="m" horiz-adv-x="802" 
d="M565 499q109 0 148 -70q13 -23 17.5 -52.5t4.5 -71.5v-297q0 -8 -8 -8h-28q-7 0 -7 8v293q0 59 -12 90.5t-38 47.5q-15 9 -34.5 14.5t-47.5 5.5q-49 0 -83 -17.5t-58 -49.5q7 -38 7 -87v-297q0 -8 -8 -8h-28q-7 0 -7 8v300q0 83 -32 117t-101 34q-66 0 -100 -35.5
t-34 -104.5v-311q0 -8 -8 -8h-28q-7 0 -7 8v475q0 7 7 7h22q9 0 9 -8l3 -48h2q17 30 52 47.5t86 17.5q57 0 92 -17t57 -55h2q20 29 59 50.5t101 21.5z" />
    <glyph glyph-name="n" unicode="n" horiz-adv-x="498" 
d="M431 8q0 -8 -8 -8h-28q-7 0 -7 8v293q0 59 -12 90.5t-38 47.5q-15 9 -34.5 14t-45.5 6q-33 1 -59.5 -6.5t-44.5 -24.5t-28 -45t-10 -68v-307q0 -8 -8 -8h-28q-7 0 -7 8v475q0 7 7 7h22q9 0 9 -8l3 -46h1q18 29 53.5 46t89.5 17q112 0 151 -70q13 -23 17.5 -52.5
t4.5 -71.5v-297z" />
    <glyph glyph-name="o" unicode="o" horiz-adv-x="470" 
d="M94 235q0 -62 6 -96t21 -57q34 -51 114 -51q79 0 114 51q15 23 21 57t6 96v20q0 62 -6 96t-21 57q-35 51 -114 51q-80 0 -114 -51q-15 -23 -21 -57t-6 -96v-20zM420 223q0 -62 -11 -112t-43 -79q-20 -19 -51.5 -30t-79.5 -11t-79.5 11t-51.5 30q-32 29 -43 79t-11 112v44
q0 62 10.5 112t43.5 79q21 18 52 29.5t79 11.5t79.5 -11t51.5 -30q32 -29 43 -79t11 -112v-44z" />
    <glyph glyph-name="p" unicode="p" horiz-adv-x="495" 
d="M116 169q0 -66 40 -102t110 -36q36 0 61.5 8t42 30t24 60t7.5 98v42q0 46 -5.5 81.5t-20.5 59.5t-42 36.5t-70 12.5q-77 0 -112 -36t-35 -102v-152zM116 -170q0 -8 -8 -8h-28q-7 0 -7 8v653q0 7 7 7h22q9 0 9 -8l3 -51h2q20 32 55 50t95 18q53 0 87.5 -14.5t55 -42
t28.5 -69t8 -95.5v-58q0 -55 -8 -97.5t-28 -72t-54 -44.5t-85 -15q-33 0 -57.5 4.5t-42 13t-30 20.5t-21.5 27h-3v-226z" />
    <glyph glyph-name="q" unicode="q" horiz-adv-x="496" 
d="M423 -170q0 -8 -8 -8h-28q-7 0 -7 8v223h-3q-23 -30 -56.5 -46t-84.5 -16q-98 0 -142 51.5t-44 168.5v52q0 67 11 112.5t33.5 73t57.5 39t84 11.5q102 0 142 -62h2l4 43q0 10 10 10h19q5 0 7.5 -1t2.5 -8v-651zM234 459q-37 0 -63.5 -10t-43.5 -34t-25 -63.5t-8 -98.5
v-37q0 -50 7.5 -85t24.5 -57t45.5 -32.5t69.5 -10.5q63 0 101 33.5t38 96.5v158q0 70 -39 105t-107 35z" />
    <glyph glyph-name="r" unicode="r" horiz-adv-x="284" 
d="M227 450q-34 0 -55.5 -10t-33.5 -30q-14 -22 -18 -43.5t-4 -44.5v-314q0 -8 -8 -8h-28q-7 0 -7 8v475q0 7 7 7h20q10 0 11 -8l6 -49h1q14 26 40 41.5t69 15.5h31q8 0 8 -8v-23q0 -9 -9 -9h-30z" />
    <glyph glyph-name="s" unicode="s" horiz-adv-x="382" 
d="M179 -9q-37 0 -73.5 8t-58.5 17q-5 2 -6.5 4.5t0.5 8.5l5 17q3 9 15 5q29 -10 58.5 -16t63.5 -6q36 0 59 6.5t35.5 19t17 31t4.5 42.5v5q0 26 -3.5 43t-14 28.5t-28.5 18t-48 11.5l-45 8q-69 12 -93 43.5t-24 82.5v4q0 66 40 96.5t115 30.5q29 0 58 -4.5t49 -9.5
q11 -3 8 -13l-4 -16q-2 -9 -14 -6q-23 5 -48 8t-52 3q-58 0 -83.5 -22t-25.5 -66v-4q0 -22 5 -37.5t17 -26t31.5 -17t48.5 -11.5l45 -8q29 -5 50 -14.5t34 -24.5t19 -37.5t6 -53.5v-9q0 -76 -39 -107.5t-124 -31.5z" />
    <glyph glyph-name="t" unicode="t" horiz-adv-x="294" 
d="M85 607q0 8 8 8h27q8 0 8 -8v-117h122q8 0 8 -7v-26q0 -7 -8 -7h-122v-291q0 -35 2.5 -57t16.5 -38q11 -12 31 -19t54 -7h30q8 0 8 -8v-22q0 -8 -8 -8h-36q-45 0 -73 11.5t-42 28.5q-17 22 -21.5 47t-4.5 67v296h-70q-6 0 -6 6v19q0 5 6 7l70 8v117z" />
    <glyph glyph-name="u" unicode="u" horiz-adv-x="482" 
d="M241 29q41 0 63.5 6.5t39.5 21.5q14 13 20.5 35t6.5 61v329q0 8 8 8h27q8 0 8 -8v-335q0 -42 -8.5 -70.5t-30.5 -48.5q-20 -18 -51 -27.5t-83 -9.5t-83 9.5t-51 27.5q-22 20 -30.5 48.5t-8.5 70.5v335q0 8 8 8h27q8 0 8 -8v-329q0 -39 6.5 -61t20.5 -35
q17 -15 39.5 -21.5t63.5 -6.5z" />
    <glyph glyph-name="v" unicode="v" horiz-adv-x="421" 
d="M201 0q-14 0 -21 6.5t-12 19.5q-38 96 -74.5 206.5t-69.5 247.5q-3 10 7 10h25q10 0 12 -8q63 -253 137 -440h11q74 187 137 440q2 8 12 8h25q10 0 7 -10q-33 -137 -69.5 -247.5t-74.5 -206.5q-5 -13 -12 -19.5t-21 -6.5h-19z" />
    <glyph glyph-name="w" unicode="w" horiz-adv-x="656" 
d="M335 466q15 0 22.5 -4t10.5 -17q25 -101 52 -205t53 -198h11q31 108 57.5 218t46.5 222q1 8 10 8h24q11 0 10 -10q-22 -115 -48.5 -228.5t-60.5 -222.5q-5 -17 -13 -23t-24 -6h-15q-18 0 -25 7.5t-12 21.5q-13 44 -26.5 94t-27 101t-25.5 100.5t-22 93.5h-10
q-10 -44 -22 -93.5t-25.5 -100.5t-27 -101t-26.5 -94q-5 -14 -12 -21.5t-25 -7.5h-15q-16 0 -24 6t-13 23q-34 109 -60.5 222.5t-48.5 228.5q-2 8 0.5 9t9.5 1h24q5 0 7 -1t4 -7q20 -112 46 -222t57 -218h11q26 94 53 198t52 205q3 13 10.5 17t22.5 4h14z" />
    <glyph glyph-name="x" unicode="x" horiz-adv-x="408" 
d="M233 219q-5 9 -9 11.5t-14 2.5h-15q-11 0 -14.5 -2.5t-7.5 -11.5l-99 -213q-2 -6 -12 -6h-31q-10 0 -5 9l113 230q4 7 4.5 12t-3.5 12l-106 217q-5 10 5 10h28q8 0 12 -6l92 -196q5 -9 9 -12t12 -3h22q8 0 12 3t9 12l95 196q4 6 12 6h28q10 0 5 -10l-109 -217
q-4 -7 -3.5 -12t4.5 -12l115 -229q5 -10 -5 -10h-30q-10 0 -12 6z" />
    <glyph glyph-name="y" unicode="y" horiz-adv-x="406" 
d="M225 53q32 85 61.5 190t52.5 239q1 8 10 8h26q10 0 7 -10q-28 -129 -52.5 -222t-48.5 -167t-50 -137.5t-57 -133.5q-4 -10 -13 -6l-23 10q-8 4 -4 12q22 44 41 87.5t36 89.5q-26 1 -42 13t-29 46q-16 44 -30.5 88t-28 93t-27.5 104.5t-30 122.5q-3 10 7 10h26q9 0 11 -9
q6 -26 15 -64.5t21.5 -86.5t28.5 -102.5t34 -111.5q6 -18 11 -30.5t10.5 -19.5t13 -10t18.5 -3h5v0z" />
    <glyph glyph-name="z" unicode="z" horiz-adv-x="386" 
d="M93 40h246q7 0 7 -7v-26q0 -7 -7 -7h-291q-8 0 -8 7v12q0 8 3.5 16.5t13.5 24.5l243 390h-243q-8 0 -8 7v26q0 7 8 7h289q8 0 8 -7v-10q0 -8 -3.5 -17t-14.5 -28z" />
    <glyph glyph-name="ampersand" unicode="&#x26;" horiz-adv-x="607" 
d="M461 72q-26 -40 -71.5 -60.5t-115.5 -20.5h-40q-94 0 -139.5 43.5t-45.5 118.5v15q0 69 32.5 113.5t93.5 71.5q-44 44 -61.5 82t-17.5 78v4q0 63 39 101t110 38q37 0 64.5 -10.5t46 -28.5t27.5 -43t9 -54v-10q0 -28 -5.5 -54t-19 -49.5t-36.5 -45.5t-58 -41l172 -171
q6 19 9 43.5t3 52.5v73q0 10 11 10h24q10 0 10 -11v-67q0 -45 -4.5 -76.5t-15.5 -60.5l90 -88q8 -8 0 -16l-15 -14q-5 -5 -8.5 -4.5t-10.5 6.5zM264 32q63 0 103.5 17t60.5 56l-226 222q-58 -29 -80.5 -66t-22.5 -93v-11q0 -60 33 -92.5t108 -32.5h24zM344 518
q0 51 -28 74.5t-69 23.5q-54 0 -77.5 -26t-23.5 -77v-4q0 -17 4 -33t14 -34t27 -38.5t43 -45.5l12 -12q28 16 47 33t30.5 36.5t16 43t4.5 53.5v6z" />
    <glyph glyph-name="at" unicode="@" horiz-adv-x="778" 
d="M458 210q-13 -25 -40.5 -44t-64.5 -19q-47 0 -75.5 30t-28.5 91q0 26 5 63t12 63q13 49 45 77t80 28q32 0 55 -14t34 -36l6 26q2 7 4.5 8.5t9.5 1.5h14q7 0 10 -2t2 -10l-22 -170q-2 -16 -4 -33t-2 -25q0 -30 16.5 -48t53.5 -18q30 0 52.5 14t37 39.5t22 61t7.5 78.5
q0 58 -19 106t-54.5 82.5t-87.5 54t-118 19.5q-68 0 -125 -22t-98 -64t-64 -102t-23 -136q0 -75 23 -131t64.5 -93t99 -55t126.5 -18q54 0 104 10.5t87 26.5q5 2 8.5 1.5t5.5 -6.5l5 -14q4 -11 -7 -16q-39 -19 -96 -30.5t-114 -11.5q-83 0 -148.5 23t-110.5 66t-69 104.5
t-24 138.5q0 84 25.5 152t72 117t113 75.5t147.5 26.5q68 0 126.5 -20.5t101.5 -59t67.5 -94.5t24.5 -126q0 -59 -12.5 -103t-35 -73.5t-52.5 -44t-64 -14.5q-46 0 -74.5 21t-33.5 48zM466 344q3 24 3 37q0 34 -16.5 57t-57.5 23q-35 0 -57.5 -20.5t-33.5 -68.5
q-5 -23 -8.5 -51t-3.5 -52q0 -83 66 -83q42 0 68.5 28.5t33.5 80.5z" />
    <glyph glyph-name="exclam" unicode="!" horiz-adv-x="216" 
d="M121 643q10 0 10 -10l-4 -483q0 -10 -8 -10h-23q-8 0 -8 10l-4 483q0 10 10 10h27zM146 26q0 -16 -7 -25.5t-25 -9.5h-12q-18 0 -25 9.5t-7 25.5v20q0 17 7 26.5t25 9.5h12q18 0 25 -9.5t7 -26.5v-20z" />
    <glyph glyph-name="exclamdown" unicode="&#xa1;" horiz-adv-x="216" 
d="M121 -152.99q10 0 10 9.99902l-4 482.971q0 9.99902 -8 9.99902h-23q-8 0 -8 -9.99902l-4 -482.971q0 -9.99902 10 -9.99902h27zM146 463.972q0 15.999 -7 25.498q-7 9.5 -25 9.5h-12q-18 0 -25 -9.5q-7 -9.49902 -7 -25.498v-19.999q0 -16.999 7 -26.498q7 -9.5 25 -9.5
h12q18 0 25 9.5q7 9.49902 7 26.498v19.999z" />
    <glyph glyph-name="question" unicode="?" horiz-adv-x="443" 
d="M181 142q0 -11 -9 -11h-28q-9 0 -9 11v28q0 30 2.5 51.5t11 39t23.5 32.5t40 32l49 33q23 16 39 29t26 27.5t14.5 32t4.5 42.5v7q0 63 -36.5 92t-106.5 29q-38 0 -74.5 -7t-67.5 -18q-9 -3 -10 6l-5 21q-1 8 5 11q29 11 71 18.5t85 7.5q99 0 143 -42t44 -114v-12
q0 -47 -22 -84.5t-74 -72.5l-50 -34q-21 -15 -34 -26.5t-20 -25t-9.5 -31.5t-2.5 -44v-28zM197 26q0 -16 -7 -25.5t-25 -9.5h-12q-18 0 -25 9.5t-7 25.5v14q0 17 7 26.5t25 9.5h12q18 0 25 -9.5t7 -26.5v-14z" />
    <glyph glyph-name="questiondown" unicode="&#xbf;" horiz-adv-x="443" 
d="M261.984 347.979q0 11 8.99902 11h27.998q9 0 9 -11v-27.998q0 -29.998 -2.5 -51.4971q-2.5 -21.498 -10.999 -38.9971q-8.5 -17.499 -23.499 -32.498t-39.9971 -31.998l-48.9971 -32.998q-22.999 -15.999 -38.998 -28.998q-15.999 -13 -25.998 -27.499
q-10 -14.499 -14.499 -31.998q-4.5 -17.499 -4.5 -42.4971v-7q0 -62.9961 36.498 -91.9941q36.4971 -28.998 106.493 -28.998q37.998 0 74.4951 7q36.498 6.99902 67.4961 17.998q9 3 9.99902 -5.99902l5 -20.999q1 -7.99902 -5 -10.999q-28.998 -11 -70.9951 -18.499
q-41.998 -7.5 -84.9951 -7.5q-98.9941 0 -142.991 41.998q-43.9971 41.9971 -43.9971 113.993v11.999q0 46.9971 21.999 84.4951q21.998 37.4971 73.9951 72.4951l49.9971 33.998q20.998 14.999 33.998 26.498q12.999 11.5 19.998 24.999q7 13.499 9.5 31.498t2.5 43.9971
v27.998zM245.985 463.972q0 15.999 6.99902 25.498q7 9.5 24.999 9.5h11.999q17.999 0 24.998 -9.5q7 -9.49902 7 -25.498v-13.999q0 -16.999 -7 -26.498q-6.99902 -9.5 -24.998 -9.5h-11.999q-17.999 0 -24.999 9.5q-6.99902 9.49902 -6.99902 26.498v13.999z" />
    <glyph glyph-name="asterisk" unicode="*" horiz-adv-x="330" 
d="M165 547l-59 -103q-7 -13 -19 -5l-27 18q-11 7 0 18l85 91l-107 27q-15 3 -10 15l12 29q4 13 17 6l96 -51l-16 117q-2 9 1 12t11 3h32q8 0 11 -3t1 -12l-16 -117l96 51q13 7 17 -6l12 -29q5 -12 -10 -15l-107 -27l85 -91q10 -11 0 -18l-27 -18q-12 -8 -19 5z" />
    <glyph glyph-name="period" unicode="." horiz-adv-x="185" 
d="M132 24q0 -17 -7.5 -25t-27.5 -8h-10q-34 0 -34 33v27q0 33 34 33h10q20 0 27.5 -8t7.5 -25v-27z" />
    <glyph glyph-name="comma" unicode="," horiz-adv-x="179" 
d="M98 87q19 0 29 -9t10 -33v-20q0 -38 -13 -75.5t-39 -75.5q-4 -7 -11 -3l-19 11q-6 3 -1 10q13 20 22.5 40t14.5 37q3 13 -8 18l-12 5q-18 7 -18 29v33q0 33 32 33h13z" />
    <glyph glyph-name="colon" unicode=":" horiz-adv-x="185" 
d="M132 24q0 -17 -7.5 -25t-27.5 -8h-10q-34 0 -34 33v27q0 33 34 33h10q20 0 27.5 -8t7.5 -25v-27zM132 405q0 -17 -7.5 -25t-27.5 -8h-10q-34 0 -34 33v27q0 33 34 33h10q20 0 27.5 -8t7.5 -25v-27z" />
    <glyph glyph-name="semicolon" unicode=";" horiz-adv-x="179" 
d="M98 87q19 0 29 -9t10 -33v-20q0 -38 -13 -75.5t-39 -75.5q-4 -7 -11 -3l-19 11q-6 3 -1 10q13 20 22.5 40t14.5 37q3 13 -8 18l-12 5q-18 7 -18 29v33q0 33 32 33h13zM133 405q0 -17 -7.5 -25t-27.5 -8h-10q-34 0 -34 33v27q0 33 34 33h10q20 0 27.5 -8t7.5 -25v-27z" />
    <glyph glyph-name="ellipsis" unicode="&#x2026;" horiz-adv-x="555" 
d="M132 24q0 -17 -7.5 -25t-27.5 -8h-10q-34 0 -34 33v27q0 33 34 33h10q20 0 27.5 -8t7.5 -25v-27zM317 24q0 -17 -7.5 -25t-27.5 -8h-10q-34 0 -34 33v27q0 33 34 33h10q20 0 27.5 -8t7.5 -25v-27zM502 24q0 -17 -7.5 -25t-27.5 -8h-10q-34 0 -34 33v27q0 33 34 33h10
q20 0 27.5 -8t7.5 -25v-27z" />
    <glyph glyph-name="periodcentered" unicode="&#xb7;" horiz-adv-x="185" 
d="M132 279q0 -17 -7.5 -25t-27.5 -8h-10q-34 0 -34 33v27q0 33 34 33h10q20 0 27.5 -8t7.5 -25v-27z" />
    <glyph glyph-name="bullet" unicode="&#x2022;" horiz-adv-x="341" 
d="M62 261q0 23 8.5 43t23 34.5t34 23t42.5 8.5t43 -8.5t34.5 -23t23 -34.5t8.5 -43t-8.5 -42.5t-23 -34t-34.5 -23t-43 -8.5q-46 0 -77 31t-31 77z" />
    <glyph glyph-name="slash" unicode="/" horiz-adv-x="308" 
d="M73 -17q-3 -9 -11 -9h-28q-11 0 -8 10l209 697q3 9 11 9h28q10 0 8 -10z" />
    <glyph glyph-name="parenleft" unicode="(" horiz-adv-x="272" 
d="M75 288q0 108 34.5 210.5t106.5 197.5q6 7 14 2l16 -10q9 -5 3 -13q-35 -47 -59 -96t-38.5 -97.5t-20.5 -97.5t-6 -96q0 -48 6 -97t20.5 -97.5t38.5 -97t59 -95.5q6 -8 -3 -13l-16 -10q-8 -5 -14 2q-72 94 -106.5 197t-34.5 211z" />
    <glyph glyph-name="brokenbar" unicode="&#xa6;" horiz-adv-x="181" 
d="M111 -14q0 -9 -8 -9h-25q-8 0 -8 9v236q0 9 8 9h25q8 0 8 -9v-236zM111 446q0 -9 -8 -9h-25q-8 0 -8 9v237q0 9 8 9h25q8 0 8 -9v-237z" />
    <glyph glyph-name="parenright" unicode=")" horiz-adv-x="272" 
d="M197 288q0 -108 -34.5 -211t-106.5 -197q-6 -7 -14 -2l-16 10q-9 5 -3 13q70 94 97 192t27 195q0 47 -6 96t-20.5 97.5t-38.5 97.5t-59 96q-6 8 3 13l16 10q8 5 14 -2q72 -95 106.5 -197.5t34.5 -210.5z" />
    <glyph glyph-name="bracketleft" unicode="[" horiz-adv-x="244" 
d="M77 -92q-7 0 -7 7v760q0 7 7 7h144q7 0 7 -7v-27q0 -7 -7 -7h-103v-692h103q7 0 7 -7v-27q0 -7 -7 -7h-144z" />
    <glyph glyph-name="backslash" unicode="\" horiz-adv-x="308" 
d="M234.985 -17q3 -9 11 -9h27.998q10.999 0 7.99902 10l-208.987 697q-2.99902 9 -10.999 9h-27.998q-10 0 -8 -10z" />
    <glyph glyph-name="bracketright" unicode="]" horiz-adv-x="244" 
d="M23 -92q-7 0 -7 7v27q0 7 7 7h103v692h-103q-7 0 -7 7v27q0 7 7 7h144q7 0 7 -7v-760q0 -7 -7 -7h-144z" />
    <glyph glyph-name="braceleft" unicode="{" horiz-adv-x="278" 
d="M139 160q0 52 -19 77t-63 36q-7 1 -7 10v25q0 9 7 10q44 10 63 32t19 71v170q0 50 22.5 70.5t65.5 20.5h36q7 0 7 -7v-27q0 -7 -7 -7h-32q-26 0 -36.5 -12t-10.5 -57v-143q0 -61 -20.5 -92.5t-70.5 -39.5v-3q50 -14 70.5 -45t20.5 -94v-137q0 -45 10.5 -57t36.5 -12h32
q7 0 7 -7v-27q0 -7 -7 -7h-36q-43 0 -65.5 20.5t-22.5 70.5v161z" />
    <glyph glyph-name="bar" unicode="|" horiz-adv-x="181" 
d="M111 -14q0 -9 -8 -9h-25q-8 0 -8 9v697q0 9 8 9h25q8 0 8 -9v-697z" />
    <glyph glyph-name="braceright" unicode="}" horiz-adv-x="278" 
d="M139 -1q0 -50 -22.5 -70.5t-65.5 -20.5h-36q-7 0 -7 7v27q0 7 7 7h32q26 0 36.5 12t10.5 57v137q0 63 20.5 94t70.5 45v3q-50 8 -70.5 39.5t-20.5 92.5v143q0 45 -10.5 57t-36.5 12h-32q-7 0 -7 7v27q0 7 7 7h36q43 0 65.5 -20.5t22.5 -70.5v-170q0 -49 19 -71t63 -32
q7 -1 7 -10v-25q0 -9 -7 -10q-44 -11 -63 -36t-19 -77v-161z" />
    <glyph glyph-name="hyphen" unicode="-" horiz-adv-x="275" 
d="M42 239q-7 0 -7 7v30q0 7 7 7h191q7 0 7 -7v-30q0 -7 -7 -7h-191z" />
    <glyph glyph-name="uni00AD" unicode="&#xad;" horiz-adv-x="275" 
d="M42 239q-7 0 -7 7v30q0 7 7 7h191q7 0 7 -7v-30q0 -7 -7 -7h-191z" />
    <glyph glyph-name="endash" unicode="&#x2013;" horiz-adv-x="500" 
d="M7 239q-7 0 -7 7v30q0 7 7 7h486q7 0 7 -7v-30q0 -7 -7 -7h-486z" />
    <glyph glyph-name="emdash" unicode="&#x2014;" horiz-adv-x="1000" 
d="M7 239q-7 0 -7 7v30q0 7 7 7h986q7 0 7 -7v-30q0 -7 -7 -7h-986z" />
    <glyph glyph-name="underscore" unicode="_" horiz-adv-x="467" 
d="M441 -58q6 0 6 -6v-19q0 -6 -6 -6h-415q-6 0 -6 6v19q0 6 6 6h415z" />
    <glyph glyph-name="dagger" unicode="&#x2020;" horiz-adv-x="356" 
d="M200 433l-4 -424q0 -9 -8 -9h-21q-8 0 -8 9l-5 424l-121 -2q-8 0 -8 7v37q0 7 8 7l120 -4l-2 191q0 6 2 7.5t8 1.5h32q10 0 10 -9l-2 -191l122 4q8 0 8 -7v-37q0 -7 -8 -7z" />
    <glyph glyph-name="daggerdbl" unicode="&#x2021;" horiz-adv-x="356" 
d="M198 242l-2 -233q0 -9 -8 -9h-21q-8 0 -8 9l-3 233l-108 -2q-8 0 -8 7v37q0 7 8 7l107 -4l-1 146l-121 -2q-8 0 -8 7v37q0 7 8 7l120 -4l-2 191q0 6 2 7.5t8 1.5h32q10 0 10 -9l-2 -191l122 4q8 0 8 -7v-37q0 -7 -8 -7l-123 2l-2 -146l110 4q8 0 8 -7v-37q0 -7 -8 -7z
" />
    <glyph glyph-name="section" unicode="&#xa7;" horiz-adv-x="430" 
d="M184 423q-37 -6 -55 -28t-18 -57v-6q0 -17 3 -29.5t11.5 -21.5t24 -15.5t40.5 -11.5l59 -12q37 14 53 36.5t16 51.5v6q0 17 -3.5 29t-12.5 21t-25.5 15.5t-41.5 11.5zM321 647q7 -2 8 -5t0 -8l-4 -17q-2 -10 -14 -6q-20 6 -45.5 9.5t-47.5 3.5q-16 0 -36 -1.5t-38 -11.5
q-32 -17 -32 -64v-6q0 -35 20.5 -53t70.5 -28l55 -11q57 -11 80 -35.5t23 -74.5v-9q0 -32 -18 -58.5t-51 -40.5q36 -11 52 -36.5t16 -70.5v-9q0 -36 -11.5 -59.5t-32.5 -38t-50 -20.5t-63 -6q-33 0 -68.5 7t-58.5 16q-5 2 -7 4.5t0 8.5l5 19q2 7 5.5 7.5t10.5 -1.5
q23 -8 53 -14.5t60 -6.5q32 0 54 5t36 17q13 10 18.5 25.5t5.5 35.5v6q0 19 -3 32.5t-12.5 23.5t-26.5 17t-44 12l-56 11q-62 12 -84.5 38t-22.5 75v10q0 35 18.5 61t53.5 37q-71 21 -71 102v9q0 31 12.5 54.5t33.5 36.5q37 23 104 23q28 0 55 -4.5t47 -10.5z" />
    <glyph glyph-name="paragraph" unicode="&#xb6;" horiz-adv-x="557" 
d="M426 654v-764q0 -11 -11 -11h-25q-12 0 -12 11v764h-103v-764q0 -11 -11 -11h-25q-12 0 -12 11v450q-34 0 -66.5 11.5t-57.5 34t-40 55.5t-15 77q0 37 13.5 69.5t38 57t59.5 38.5t78 14h266q13 0 13 -12v-19q0 -12 -13 -12h-77z" />
    <glyph glyph-name="registered" unicode="&#xae;" horiz-adv-x="796" 
d="M756 348q0 -85 -28 -152.5t-76.5 -114t-113.5 -71t-140 -24.5t-140 24.5t-113.5 71t-76.5 114t-28 152.5t28 152.5t76.5 114t113.5 71t140 24.5t140 -24.5t113.5 -71t76.5 -114t28 -152.5zM710 348q0 74 -24 133t-66 100t-99 63t-123 22t-123 -22t-99 -63t-66 -100
t-24 -133t24 -133t66 -100t99 -63t123 -22t123 22t99 63t66 100t24 133zM315 148q0 -9 -10 -9h-22q-10 0 -10 9v394q0 9 3 14.5t15 7.5q14 3 40.5 5.5t51.5 2.5q75 0 111 -33q33 -32 33 -92v-6q0 -25 -7 -48.5t-24 -40.5q-21 -22 -59 -31l87 -170q6 -12 -7 -12h-21
q-8 0 -11 1.5t-7 9.5l-85 168h-78v-170zM315 355h67q32 0 50 6t30 17q22 22 22 66v2q0 47 -23 67t-77 20q-17 0 -33.5 -1t-24.5 -3t-9.5 -4.5t-1.5 -10.5v-159z" />
    <glyph glyph-name="copyright" unicode="&#xa9;" horiz-adv-x="796" 
d="M756 348q0 -85 -28 -152.5t-76.5 -114t-113.5 -71t-140 -24.5t-140 24.5t-113.5 71t-76.5 114t-28 152.5t28 152.5t76.5 114t113.5 71t140 24.5t140 -24.5t113.5 -71t76.5 -114t28 -152.5zM710 348q0 74 -24 133t-66 100t-99 63t-123 22t-123 -22t-99 -63t-66 -100
t-24 -133t24 -133t66 -100t99 -63t123 -22t123 22t99 63t66 100t24 133zM290 356q0 -97 26.5 -141t94.5 -44q25 0 47.5 6t43.5 15q9 4 12 -5l5 -18q3 -9 -6 -13q-24 -11 -50.5 -17.5t-53.5 -6.5q-36 0 -65.5 10t-49.5 31q-49 50 -49 175v12q0 63 13.5 106t38.5 69
q40 41 114 41q27 0 52.5 -6.5t50.5 -18.5q9 -5 4 -15l-6 -14q-4 -9 -12 -5q-20 9 -42 14.5t-45 5.5q-68 0 -95.5 -42t-27.5 -139z" />
    <glyph glyph-name="trademark" unicode="&#x2122;" horiz-adv-x="643" 
d="M120 347q-6 0 -7 1t-1 6v260h-80q-6 0 -6 7v20q0 6 6 6h199q5 0 5 -6v-20q0 -7 -5 -7h-81v-260q0 -7 -7 -7h-23zM451 394q-3 -13 -17 -13h-25q-13 0 -17 13q-17 53 -31.5 102.5t-30.5 106.5h-3q-5 -63 -8 -126t-5 -123q0 -7 -7 -7h-21q-8 0 -8 8q1 38 3 72t4 67.5t4.5 68
t5.5 73.5q0 11 12 11h37q12 0 15 -11q16 -61 31.5 -117t29.5 -97h4q13 40 28.5 93.5t33.5 120.5q4 11 16 11h37q13 0 13 -11q3 -39 5.5 -73.5t4.5 -68t3.5 -67.5t3.5 -72q0 -8 -9 -8h-22q-7 0 -7 7q-2 60 -5 123t-8 126h-3q-17 -57 -32 -106.5t-32 -102.5z" />
    <glyph glyph-name="quotedblleft" unicode="&#x201c;" horiz-adv-x="338" 
d="M242.985 467.972q-18.999 0 -28.998 8.99902q-10 9 -10 32.998v19.999q0 37.9971 12.999 75.4951q13 37.498 38.998 75.4951q4 7 10.999 3l18.999 -10.999q6 -3 1 -9.99902q-12.999 -19.999 -22.499 -39.998q-9.49902 -19.999 -14.499 -36.998
q-2.99902 -12.999 8 -17.999l11.999 -4.99902q17.999 -7 17.999 -28.998v-32.998q0 -32.998 -31.998 -32.998h-12.999zM108.993 467.972q-18.999 0 -28.998 8.99902q-9.99902 9 -9.99902 32.998v19.999q0 37.9971 12.999 75.4951t38.9971 75.4951q4 7 11 3l18.998 -10.999
q6 -3 1 -9.99902q-12.999 -19.999 -22.498 -39.998q-9.5 -19.999 -14.499 -36.998q-3 -12.999 7.99902 -17.999l12 -4.99902q17.998 -7 17.998 -28.998v-32.998q0 -32.998 -31.998 -32.998h-12.999z" />
    <glyph glyph-name="quotedblright" unicode="&#x201d;" horiz-adv-x="339" 
d="M230 686q19 0 29 -9t10 -33v-20q0 -38 -13 -75.5t-39 -75.5q-4 -7 -11 -3l-19 11q-6 3 -1 10q13 20 22.5 40t14.5 37q3 13 -8 18l-12 5q-18 7 -18 29v33q0 33 32 33h13zM95 686q19 0 29 -9t10 -33v-20q0 -38 -13 -75.5t-39 -75.5q-4 -7 -11 -3l-19 11q-6 3 -1 10
q13 20 22.5 40t14.5 37q3 13 -8 18l-12 5q-18 7 -18 29v33q0 33 32 33h13z" />
    <glyph glyph-name="quoteleft" unicode="&#x2018;" horiz-adv-x="204" 
d="M108.993 466.972q-18.999 0 -28.998 8.99902q-9.99902 9 -9.99902 32.998v19.999q0 37.998 12.999 75.4951q12.999 37.498 38.9971 75.4961q4 6.99902 11 2.99902l18.998 -10.999q6 -3 1 -9.99902q-12.999 -19.999 -22.498 -39.998q-9.5 -19.999 -14.499 -36.998
q-3 -12.999 7.99902 -17.998l12 -5q17.998 -7 17.998 -28.998v-32.998q0 -32.998 -31.998 -32.998h-12.999z" />
    <glyph glyph-name="quoteright" unicode="&#x2019;" horiz-adv-x="204" 
d="M95 686q19 0 29 -9t10 -33v-20q0 -38 -13 -75.5t-39 -75.5q-4 -7 -11 -3l-19 11q-6 3 -1 10q13 20 22.5 40t14.5 37q3 13 -8 18l-12 5q-18 7 -18 29v33q0 33 32 33h13z" />
    <glyph glyph-name="guillemotleft" unicode="&#xab;" horiz-adv-x="447" 
d="M99 232l114 -108q2 -2 3 -5.5t-2 -6.5l-16 -16q-5 -5 -12 0l-136 115q-5 5 -5 12v17q0 7 5 12l136 114q7 5 12 0l16 -16q5 -6 -1 -12zM274 232l114 -108q2 -2 3 -5.5t-2 -6.5l-16 -16q-5 -5 -12 0l-136 115q-5 5 -5 12v17q0 7 5 12l136 114q7 5 12 0l16 -16q5 -6 -1 -12z
" />
    <glyph glyph-name="guillemotright" unicode="&#xbb;" horiz-adv-x="451" 
d="M172.989 232l-113.993 -108q-2 -2 -3 -5.5q-0.999023 -3.5 2 -6.5l15.999 -16q5 -5 12 0l135.991 115q5 5 5 12v17q0 7 -5 12l-135.991 114q-7 5 -12 0l-15.999 -16q-4.99902 -6 1 -12zM351.979 232l-113.993 -108q-2 -2 -3 -5.5t2 -6.5l15.999 -16q5 -5 11.999 0
l135.992 115q5 5 5 12v17q0 7 -5 12l-135.992 114q-6.99902 5 -11.999 0l-15.999 -16q-4.99902 -6 1 -12z" />
    <glyph glyph-name="guilsinglleft" unicode="&#x2039;" horiz-adv-x="272" 
d="M99 232l114 -108q2 -2 3 -5.5t-2 -6.5l-16 -16q-5 -5 -12 0l-136 115q-5 5 -5 12v17q0 7 5 12l136 114q7 5 12 0l16 -16q5 -6 -1 -12z" />
    <glyph glyph-name="guilsinglright" unicode="&#x203a;" horiz-adv-x="272" 
d="M59 338q-2 2 -3 5.5t2 6.5l16 16q5 5 12 0l136 -114q5 -5 5 -12v-17q0 -7 -5 -12l-136 -115q-7 -5 -12 0l-16 16q-3 3 -2 6.5t3 5.5l114 108z" />
    <glyph glyph-name="quotesinglbase" unicode="&#x201a;" horiz-adv-x="204" 
d="M95 87q19 0 29 -9t10 -33v-20q0 -38 -13 -75.5t-39 -75.5q-4 -7 -11 -3l-19 11q-6 3 -1 10q13 20 22.5 40t14.5 37q3 13 -8 18l-12 5q-18 7 -18 29v33q0 33 32 33h13z" />
    <glyph glyph-name="quotedblbase" unicode="&#x201e;" horiz-adv-x="338" 
d="M229 87q19 0 29 -9t10 -33v-20q0 -38 -13 -75.5t-39 -75.5q-4 -7 -11 -3l-19 11q-6 3 -1 10q13 20 22.5 40t14.5 37q3 13 -8 18l-12 5q-18 7 -18 29v33q0 33 32 33h13zM95 87q19 0 29 -9t10 -33v-20q0 -38 -13 -75.5t-39 -75.5q-4 -7 -11 -3l-19 11q-6 3 -1 10
q13 20 22.5 40t14.5 37q3 13 -8 18l-12 5q-18 7 -18 29v33q0 33 32 33h13z" />
    <glyph glyph-name="ordfeminine" unicode="&#xaa;" horiz-adv-x="297" 
d="M215 442q-6 1 -14.5 1.5t-19.5 0.5h-33q-40 0 -55 -11.5t-15 -38.5v-16q0 -47 47 -47h23q38 0 52.5 15.5t14.5 41.5v54zM218 335h-2q-19 -37 -74 -37h-19q-42 0 -64.5 18.5t-22.5 66.5v10q0 43 25.5 63.5t88.5 20.5h20q11 0 23.5 -0.5t21.5 -1.5v30q0 33 -16 46t-51 13
q-21 0 -41 -3.5t-37 -8.5q-9 -2 -10 5l-3 18q-1 6 5 9q17 6 42 10t49 4q55 0 78.5 -22t23.5 -76v-190q0 -7 -7 -7h-18q-8 0 -9 7z" />
    <glyph glyph-name="ordmasculine" unicode="&#xba;" horiz-adv-x="313" 
d="M78 444q0 -34 4 -56t13.5 -34.5t24.5 -17.5t36 -5q22 0 37 5t24.5 17.5t13.5 34.5t4 56v6q0 67 -17.5 91t-61.5 24q-43 0 -60.5 -24t-17.5 -91v-6zM277 436q0 -40 -7.5 -66.5t-22.5 -42.5t-37.5 -22.5t-53.5 -6.5t-53.5 6.5t-37.5 22.5t-22 42.5t-7 66.5v24
q0 79 29 108.5t91 29.5t91.5 -29.5t29.5 -108.5v-24z" />
    <glyph glyph-name="zero" unicode="0" 
d="M256 32q44 0 72 20t44 56.5t22 89.5t6 119v13q0 66 -6 119t-22 89.5t-44 56.5t-72 20t-72 -20t-44 -56.5t-22 -89.5t-6 -119v-13q0 -66 6 -119t22 -89.5t44 -56.5t72 -20zM256 -9q-44 0 -80 15t-61.5 51.5t-39 98t-13.5 154.5v27q0 93 13.5 154.5t39 98t61.5 51.5t80 15
t80 -15t61.5 -51.5t39 -98t13.5 -154.5v-27q0 -93 -13.5 -154.5t-39 -98t-61.5 -51.5t-80 -15z" />
    <glyph glyph-name="one" unicode="1" 
d="M89 0q-9 0 -9 8v22q0 9 9 9h154v562h-4l-117 -72q-7 -4 -11 2l-13 23q-4 7 4 12l117 73q8 5 14.5 6.5t19.5 1.5h20q16 0 16 -15v-593h153q9 0 9 -9v-22q0 -8 -9 -8h-353z" />
    <glyph glyph-name="two" unicode="2" 
d="M98 0q-10 0 -13.5 3t-3.5 14v93q0 39 5 69.5t18.5 54.5t37.5 43.5t63 35.5l72 30q32 13 52.5 27.5t32.5 31t17 36.5t5 45v7q0 72 -33.5 98t-101.5 26q-32 0 -70.5 -6t-70.5 -17q-12 -4 -15 8l-4 18q-3 11 8 14q15 5 34.5 9.5t40.5 8t41 5.5t37 2q44 0 78 -8t57.5 -26.5
t36 -50t12.5 -78.5v-11q0 -35 -7.5 -60.5t-24 -46t-41.5 -36.5t-61 -32l-71 -31q-33 -15 -53.5 -29t-31 -33.5t-14 -47t-3.5 -69.5v-58h287q9 0 9 -9v-22q0 -8 -9 -8h-316z" />
    <glyph glyph-name="three" unicode="3" 
d="M234 30q32 0 59 7.5t46.5 24t30 42.5t10.5 62v10q0 46 -12.5 75t-36.5 44.5t-58 21t-76 5.5h-27q-10 0 -10 9v26q0 9 10 9h27q95 0 133 31t38 95v10q0 58 -32.5 85t-89.5 27q-35 0 -67.5 -6t-59.5 -15q-11 -4 -14 7l-4 18q-2 10 8 14q28 11 65 17.5t74 6.5
q87 0 128.5 -40t41.5 -110v-14q0 -53 -24 -90.5t-79 -54.5v-4q24 -5 44.5 -17t36.5 -31.5t25 -47.5t9 -64v-11q0 -48 -14 -82.5t-39 -56.5t-60 -32t-78 -10q-45 0 -84 6.5t-71 16.5q-6 2 -7.5 5.5t-0.5 8.5l4 17q1 4 3.5 6.5t10.5 0.5q26 -8 63.5 -15t76.5 -7z" />
    <glyph glyph-name="four" unicode="4" 
d="M337 213v394h-8l-242 -394h250zM383 11q0 -11 -9 -11h-28q-9 0 -9 11v163h-285q-8 0 -11.5 3t-3.5 13v10q0 8 3.5 15.5t11.5 21.5l240 390q7 11 14.5 15.5t23.5 4.5h34q19 0 19 -18v-416h71q9 0 9 -9v-22q0 -8 -9 -8h-71v-163z" />
    <glyph glyph-name="five" unicode="5" 
d="M162 604q-9 0 -9 -8l-16 -228q53 34 127 34q43 0 74 -11t55 -35q26 -26 37.5 -63.5t11.5 -88.5v-8q0 -50 -13 -89.5t-42 -65.5q-55 -50 -157 -50q-36 0 -79 8.5t-73 22.5q-11 5 -8 15l6 19q3 10 16 4q32 -14 70.5 -21t73.5 -7q75 0 116 39q21 20 30.5 52.5t9.5 73.5v8
q0 38 -7.5 65.5t-25.5 50.5q-32 39 -99 39q-36 0 -69.5 -10t-60.5 -27q-10 -5 -17 -4l-14 4q-8 3 -7 13l20 298q1 13 15 13h259q11 0 11 -11v-20q0 -12 -11 -12h-224z" />
    <glyph glyph-name="six" unicode="6" 
d="M265 360q-45 0 -83 -17.5t-67 -49.5q0 -60 8.5 -108t26.5 -81.5t47 -52t70 -18.5q61 0 97 44t36 120v13q0 77 -36 113.5t-99 36.5zM402 643q11 -4 8 -14l-4 -16q-2 -5 -4 -7.5t-10 -0.5q-17 4 -39.5 7t-46.5 3q-50 0 -84.5 -19.5t-57 -55.5t-34 -86t-14.5 -110
q28 25 66 41.5t91 16.5q82 0 129.5 -49.5t47.5 -137.5v-19q0 -47 -14.5 -85t-40 -64.5t-59 -41t-71.5 -14.5q-106 0 -153 80.5t-47 227.5v9q0 97 21 167.5t54 110.5q28 34 70 52t101 18q22 0 47.5 -3.5t43.5 -9.5z" />
    <glyph glyph-name="seven" unicode="7" 
d="M77 604q-11 0 -11 12v20q0 11 11 11h366q9 0 12 -3t3 -11v-13q0 -13 -5.5 -24l-15.5 -31l-280 -554q-3 -6 -6.5 -8.5t-11.5 -2.5h-25q-16 0 -10 12l304 592h-331z" />
    <glyph glyph-name="eight" unicode="8" 
d="M78 497q0 70 47.5 114.5t130.5 44.5q44 0 76.5 -12t54 -32t32 -48t10.5 -59v-13q0 -52 -29 -94.5t-78 -71.5q64 -23 95 -62.5t31 -90.5v-9q0 -43 -14.5 -75.5t-40 -54t-60.5 -32.5t-77 -11t-77 9.5t-61 30.5t-40.5 54t-14.5 80v4q0 57 30 101t84 69q-53 24 -76 64t-23 81
v13zM114 159q0 -65 40.5 -96.5t101.5 -31.5q63 0 101.5 33.5t38.5 98.5v6q0 48 -30 78t-92 53l-57 21q-50 -23 -76.5 -61.5t-26.5 -92.5v-8zM377 499q0 51 -29.5 84t-91.5 33q-61 0 -93 -33t-32 -87v-9q0 -51 28.5 -80.5t84.5 -50.5l37 -14q49 30 72.5 64.5t23.5 85.5v7z
" />
    <glyph glyph-name="nine" unicode="9" 
d="M241 287q38 0 79 17.5t76 51.5q0 125 -34.5 193t-108.5 68q-73 0 -108 -45t-35 -123v-11q0 -77 34 -114t97 -37zM212 31q55 0 90.5 24t56 63t29 89.5t8.5 104.5q-26 -28 -69.5 -47.5t-94.5 -19.5q-83 0 -128.5 52.5t-45.5 137.5v19q0 43 13 80t37.5 64t60.5 42.5t82 15.5
q57 0 95 -23t60.5 -64.5t31.5 -98t9 -122.5v-10q0 -75 -11.5 -138.5t-39 -110t-72.5 -72.5t-112 -26q-29 0 -59 4t-50 11q-7 2 -8 5t0 8l4 18q3 11 15 8q22 -5 47 -9.5t51 -4.5z" />
    <glyph glyph-name="dollar" unicode="$" 
d="M241 2q-54 0 -95.5 9.5t-72.5 21.5q-10 4 -6 13l7 23q3 10 14 5q29 -13 69 -21t83 -8h8v271l-32 8q-71 18 -109.5 52.5t-38.5 96.5v17q0 71 45 110.5t129 44.5v90q0 12 10 12h19q10 0 10 -12v-89q36 -2 69 -6.5t59 -13.5q6 -2 8 -4.5t0 -10.5l-4 -20q-3 -10 -16 -6
q-48 15 -116 18v-248l16 -4q43 -11 72 -24t47 -31.5t25.5 -43.5t7.5 -59v-18q0 -80 -44.5 -121t-118.5 -50v-98q0 -12 -12 -12h-14q-12 0 -12 12v96h-7zM119 480q0 -29 9.5 -48.5t26 -32.5t39 -21.5t48.5 -14.5v240q-123 -8 -123 -113v-10zM399 182q0 29 -6.5 49.5t-20 35
t-35 24t-51.5 16.5v-259q57 9 85 40.5t28 82.5v11z" />
    <glyph glyph-name="cent" unicode="&#xa2;" 
d="M298 493q35 -3 66 -13.5t51 -24.5q9 -6 4 -14l-11 -18q-4 -7 -14 -1q-20 12 -45.5 20.5t-50.5 11.5v-419q22 1 46.5 6.5t45.5 13.5q10 4 14 -7l4 -13q2 -8 0.5 -10.5t-8.5 -5.5q-20 -9 -48 -15t-54 -8v-93q0 -9 -10 -9h-20q-9 0 -9 9v94q-72 4 -113 42q-31 29 -43.5 77.5
t-12.5 115.5v34q0 74 13 117t41 69q41 38 115 41v100q0 9 9 9h20q10 0 10 -9v-100zM176 71q11 -14 33 -23t50 -12v418q-29 -2 -49 -9.5t-34 -19.5q-30 -29 -36 -73.5t-6 -95.5v-17q0 -60 8.5 -99.5t33.5 -68.5z" />
    <glyph glyph-name="Euro" unicode="&#x20ac;" 
d="M149 228q1 -49 8.5 -85.5t26.5 -61t52.5 -37t87.5 -12.5q33 0 71 7.5t64 17.5q11 4 14 -5l6 -19q2 -7 0 -9t-6 -4q-32 -14 -73 -22t-84 -8q-61 0 -101.5 14t-65.5 43t-36 74t-14 107h-73q-7 0 -7 6v30q0 6 7 6h73v71h-73q-7 0 -7 6v30q0 6 7 6h73q1 49 5 85t12 62.5
t21 46t31 34.5q54 45 146 45q42 0 82.5 -9.5t75.5 -27.5q6 -3 8 -6.5t-2 -11.5l-7 -15q-4 -10 -16 -4q-33 15 -67.5 23.5t-72.5 8.5q-41 0 -68.5 -8.5t-50.5 -30.5q-27 -26 -36.5 -70.5t-10.5 -121.5h223q7 0 7 -6v-30q0 -6 -7 -6h-223v-1v-70h223q7 0 7 -6v-30q0 -6 -7 -6
h-223z" />
    <glyph glyph-name="florin" unicode="&#x192;" 
d="M259 -13q-3 -41 -12 -73t-27 -54t-45.5 -34t-66.5 -12q-17 0 -35 2t-32 6q-10 3 -7 11l5 18q2 5 4 7.5t9 0.5q11 -2 26.5 -4t31.5 -2q53 0 77.5 34t28.5 95l22 330h-71q-10 0 -8 9l2 10q1 9 11 10l69 11l11 142q4 48 12 84t25 60t45 36t72 12q18 0 35 -2.5t31 -6.5
q8 -2 7 -10l-4 -19q-1 -9 -13 -6q-11 2 -26.5 4t-32.5 2q-32 0 -51.5 -8.5t-31.5 -26.5t-17.5 -47t-8.5 -69l-10 -146h126q5 0 8 -1.5t2 -7.5l-3 -22q-1 -5 -2.5 -6.5t-7.5 -1.5h-125z" />
    <glyph glyph-name="sterling" unicode="&#xa3;" 
d="M447 43q11 0 11 -11v-20q0 -12 -11 -12h-371q-11 0 -11 11v8q0 8 2.5 12.5t14.5 14.5q39 32 56 75.5t17 109.5v87h-56q-10 0 -10 8v16q0 10 10 11l56 9v115q0 48 9.5 80.5t31.5 54.5q44 44 130 44q33 0 66 -5.5t56 -13.5q11 -4 8 -13l-6 -19q-2 -5 -4.5 -6.5t-10.5 0.5
q-26 8 -52.5 12t-53.5 4q-35 0 -60.5 -7.5t-39.5 -25.5q-14 -17 -20 -44t-6 -72v-105h187q9 0 9 -8v-27q0 -8 -9 -8h-188v-79q0 -63 -14 -111t-52 -82v-3h311z" />
    <glyph glyph-name="yen" unicode="&#xa5;" 
d="M279 123v-112q0 -11 -9 -11h-28q-9 0 -9 11v112h-134q-7 0 -7 6v30q0 6 7 6h134v59h-134q-7 0 -7 6v30q0 6 7 6h110q-22 41 -42 81.5t-39 85t-38 94.5t-39 109q-4 11 6 11h33q7 0 10 -8q34 -103 73 -199t80 -174h5q40 78 80 174t74 199q3 8 10 8h33q10 0 6 -11
q-20 -59 -39 -109t-38.5 -94.5t-39.5 -85t-42 -81.5h109q7 0 7 -6v-30q0 -6 -7 -6h-132v-59h132q7 0 7 -6v-30q0 -6 -7 -6h-132z" />
    <glyph glyph-name="numbersign" unicode="#" horiz-adv-x="595" 
d="M229 413l-38 -177h167l39 177h-168zM394 197l-40 -187q-3 -10 -12 -10h-23q-9 0 -8 10l39 187h-167l-40 -187q-3 -10 -11 -10h-26q-8 0 -7 10l39 187h-127q-13 0 -10 9l6 24q2 7 14 7h125l39 176h-133q-13 0 -10 9l6 24q2 7 14 7h130l40 183q2 10 10 10h28q9 0 6 -10
l-39 -183h167l40 183q2 10 10 10h26q9 0 7 -10l-39 -183h136q13 0 10 -9l-6 -24q-2 -7 -14 -7h-134l-38 -176h141q13 0 10 -9l-6 -24q-2 -7 -14 -7h-139z" />
    <glyph glyph-name="percent" unicode="%" horiz-adv-x="731" 
d="M170 656q56 0 82 -28q23 -23 30.5 -60.5t7.5 -80.5v-12q0 -43 -7.5 -80.5t-30.5 -60.5q-26 -28 -82 -28t-82 28q-23 23 -30.5 60.5t-7.5 80.5v12q0 43 7.5 80.5t30.5 60.5q26 28 82 28zM170 341q18 0 32.5 6t24.5 21.5t15.5 41.5t5.5 66v10q0 40 -5.5 66t-15.5 41.5
t-24.5 21.5t-32.5 6t-32.5 -6t-24.5 -21.5t-15.5 -41.5t-5.5 -66v-10q0 -40 5.5 -66t15.5 -41.5t24.5 -21.5t32.5 -6zM212 -3q-2 -4 -4 -5t-7 -1h-33q-9 0 -5 8l354 651q2 4 4 5t7 1h33q9 0 5 -8zM561 341q56 0 82 -28q23 -23 30.5 -60.5t7.5 -80.5v-12q0 -43 -7.5 -80.5
t-30.5 -60.5q-26 -28 -82 -28t-82 28q-23 23 -30.5 60.5t-7.5 80.5v12q0 43 7.5 80.5t30.5 60.5q26 28 82 28zM561 26q18 0 32.5 6t24.5 21.5t15.5 41.5t5.5 66v10q0 40 -5.5 66t-15.5 41.5t-24.5 21.5t-32.5 6t-32.5 -6t-24.5 -21.5t-15.5 -41.5t-5.5 -66v-10
q0 -40 5.5 -66t15.5 -41.5t24.5 -21.5t32.5 -6z" />
    <glyph glyph-name="perthousand" unicode="&#x2030;" horiz-adv-x="1033" 
d="M170 656q56 0 82 -28q23 -23 30.5 -60.5t7.5 -80.5v-12q0 -43 -7.5 -80.5t-30.5 -60.5q-26 -28 -82 -28t-82 28q-23 23 -30.5 60.5t-7.5 80.5v12q0 43 7.5 80.5t30.5 60.5q26 28 82 28zM170 341q18 0 32.5 6t24.5 21.5t15.5 41.5t5.5 66v10q0 40 -5.5 66t-15.5 41.5
t-24.5 21.5t-32.5 6t-32.5 -6t-24.5 -21.5t-15.5 -41.5t-5.5 -66v-10q0 -40 5.5 -66t15.5 -41.5t24.5 -21.5t32.5 -6zM212 -3q-2 -4 -4 -5t-7 -1h-33q-9 0 -5 8l354 651q2 4 4 5t7 1h33q9 0 5 -8zM561 341q56 0 82 -28q23 -23 30.5 -60.5t7.5 -80.5v-12q0 -43 -7.5 -80.5
t-30.5 -60.5q-26 -28 -82 -28t-82 28q-23 23 -30.5 60.5t-7.5 80.5v12q0 43 7.5 80.5t30.5 60.5q26 28 82 28zM561 26q18 0 32.5 6t24.5 21.5t15.5 41.5t5.5 66v10q0 40 -5.5 66t-15.5 41.5t-24.5 21.5t-32.5 6t-32.5 -6t-24.5 -21.5t-15.5 -41.5t-5.5 -66v-10
q0 -40 5.5 -66t15.5 -41.5t24.5 -21.5t32.5 -6zM863 341q56 0 82 -28q23 -23 30.5 -60.5t7.5 -80.5v-12q0 -43 -7.5 -80.5t-30.5 -60.5q-26 -28 -82 -28t-82 28q-23 23 -30.5 60.5t-7.5 80.5v12q0 43 7.5 80.5t30.5 60.5q26 28 82 28zM863 26q18 0 32.5 6t24.5 21.5
t15.5 41.5t5.5 66v10q0 40 -5.5 66t-15.5 41.5t-24.5 21.5t-32.5 6t-32.5 -6t-24.5 -21.5t-15.5 -41.5t-5.5 -66v-10q0 -40 5.5 -66t15.5 -41.5t24.5 -21.5t32.5 -6z" />
    <glyph glyph-name="plus" unicode="+" 
d="M277 240v-175q0 -7 -6 -7h-30q-7 0 -7 7v175h-175q-6 0 -6 6v30q0 7 6 7h175v174q0 7 7 7h30q6 0 6 -7v-174h175q6 0 6 -6v-31q0 -6 -6 -6h-175z" />
    <glyph glyph-name="minus" unicode="&#x2212;" 
d="M59 240q-6 0 -6 6v30q0 7 6 7h393q6 0 6 -6v-31q0 -6 -6 -6h-393z" />
    <glyph glyph-name="multiply" unicode="&#xd7;" 
d="M286 261l123 -123q5 -6 1 -10l-21 -21q-6 -4 -10 0l-124 124l-124 -124q-3 -5 -8 0l-21 21q-6 5 -1 10l124 123l-123 123q-6 6 0 10l21 22q5 3 9 -1l123 -123l124 124q5 3 8 0l22 -22q4 -5 0 -9z" />
    <glyph glyph-name="less" unicode="&#x3c;" 
d="M147 262l273 -146q10 -5 4 -15l-11 -21q-5 -8 -15 -2l-308 165q-5 2 -5 9v18q0 6 5 9l308 167q10 6 15 -2l11 -21q6 -10 -4 -15z" />
    <glyph glyph-name="divide" unicode="&#xf7;" 
d="M296 74q0 -17 -7.5 -25t-30.5 -8h-12q-37 0 -37 33v28q0 33 37 33h12q23 0 30.5 -8t7.5 -25v-28zM296 421q0 -17 -7.5 -25t-30.5 -8h-12q-37 0 -37 33v28q0 33 37 33h12q23 0 30.5 -8t7.5 -25v-28zM59 240q-6 0 -6 6v30q0 7 6 7h393q6 0 6 -6v-31q0 -6 -6 -6h-393z" />
    <glyph glyph-name="equal" unicode="=" 
d="M59 329q-6 0 -6 6v30q0 7 6 7h393q6 0 6 -6v-31q0 -6 -6 -6h-393zM59 151q-6 0 -6 6v30q0 7 6 7h393q6 0 6 -6v-31q0 -6 -6 -6h-393z" />
    <glyph glyph-name="logicalnot" unicode="&#xac;" 
d="M458 51q0 -6 -6 -6h-29q-7 0 -7 6v189h-357q-6 0 -6 6v30q0 7 6 7h393q6 0 6 -6v-226z" />
    <glyph glyph-name="greater" unicode="&#x3e;" 
d="M92 408q-10 5 -4 15l11 21q5 8 15 2l308 -167q5 -3 5 -9v-18q0 -7 -5 -9l-308 -165q-10 -6 -15 2l-11 21q-6 10 4 15l273 146z" />
    <glyph glyph-name="notequal" unicode="&#x2260;" 
d="M226 151l-61 -124q-4 -7 -10 -7h-33q-8 0 -3 9l61 122h-122q-6 0 -6 6v30q0 7 6 7h143l66 135h-209q-6 0 -6 6v30q0 7 6 7h230l59 120q3 7 10 7h33q7 0 3 -9l-59 -118h118q6 0 6 -6v-31q0 -6 -6 -6h-139l-66 -135h205q6 0 6 -6v-31q0 -6 -6 -6h-226z" />
    <glyph glyph-name="approxequal" unicode="&#x2248;" 
d="M366 295q-23 0 -44.5 6t-47.5 20l-71 38q-17 9 -32 13t-29 4q-26 0 -42.5 -15t-38.5 -53q-5 -11 -15 -4l-19 9q-4 2 -5.5 4t0.5 7q29 57 58 79.5t67 22.5q26 0 45.5 -7.5t42.5 -19.5l66 -35q20 -11 35.5 -15t34.5 -4q26 0 42.5 15t38.5 53q5 10 15 4l19 -9q4 -2 5.5 -4
t-0.5 -7q-29 -57 -58 -79.5t-67 -22.5zM366 104q-23 0 -44.5 6t-47.5 20l-71 38q-17 9 -32 13t-29 4q-26 0 -42.5 -15t-38.5 -53q-5 -11 -15 -4l-19 9q-4 2 -5.5 4t0.5 7q29 57 58 79.5t67 22.5q26 0 45.5 -7.5t42.5 -19.5l66 -35q20 -11 35.5 -15t34.5 -4q26 0 42.5 15
t38.5 53q5 10 15 4l19 -9q4 -2 5.5 -4t-0.5 -7q-29 -57 -58 -79.5t-67 -22.5z" />
    <glyph glyph-name="plusminus" unicode="&#xb1;" 
d="M277 335v-175q0 -7 -6 -7h-30q-7 0 -7 7v175h-175q-6 0 -6 6v32q0 5 6 5h175v174q0 7 7 7h30q6 0 6 -7v-174h175q6 0 6 -6v-31q0 -6 -6 -6h-175zM59 0q-6 0 -6 6v30q0 7 6 7h393q6 0 6 -6v-31q0 -6 -6 -6h-393z" />
    <glyph glyph-name="lessequal" unicode="&#x2264;" 
d="M59 0q-6 0 -6 6v30q0 7 6 7h393q6 0 6 -6v-31q0 -6 -6 -6h-393zM131 350l273 -146q10 -5 4 -15l-11 -21q-5 -8 -15 -2l-308 165q-5 2 -5 9v18q0 6 5 9l308 167q10 6 15 -2l11 -21q6 -10 -4 -15z" />
    <glyph glyph-name="greaterequal" unicode="&#x2265;" 
d="M107 496q-10 5 -4 15l11 21q5 8 15 2l308 -167q5 -3 5 -9v-18q0 -7 -5 -9l-308 -165q-10 -6 -15 2l-11 21q-6 10 4 15l273 146zM59 0q-6 0 -6 6v31q0 6 6 6h393q6 0 6 -7v-30q0 -6 -6 -6h-393z" />
    <glyph glyph-name="asciicircum" unicode="^" 
d="M274 606q9 0 13 -2t9 -9l150 -231q6 -8 -3 -14l-24 -11q-9 -6 -15 3l-143 212h-9l-142 -212q-6 -9 -15 -3l-25 11q-9 6 -3 14l150 231q5 7 9 9t13 2h35z" />
    <glyph glyph-name="asciitilde" unicode="~" 
d="M212 325q-19 14 -33 20.5t-28 6.5q-10 0 -19.5 -3t-20 -12t-21 -25.5t-22.5 -43.5q-3 -7 -7 -7t-11 3l-21 10l-4.5 4.5t0.5 10.5q26 62 57 87.5t70 25.5q22 0 42 -8.5t42 -23.5l57 -39q20 -13 34.5 -19.5t31.5 -6.5q25 0 47 19.5t43 61.5q4 8 13 2l20 -12q6 -4 6.5 -7
t-1.5 -8q-27 -59 -62 -82.5t-64 -23.5t-49 8t-47 26z" />
    <glyph glyph-name="lozenge" unicode="&#x25ca;" 
d="M419 323l-162 288h-2l-162 -288l162 -278h2zM232 652q4 8 7 9.5t10 1.5h14q7 0 10 -1.5t7 -9.5l169 -303q8 -13 8 -25v-7q0 -12 -8 -25l-168 -290q-5 -8 -7.5 -9.5t-7.5 -1.5h-20q-5 0 -7.5 1.5t-7.5 9.5l-168 290q-8 13 -8 25v7q0 12 8 25z" />
    <glyph glyph-name="degree" unicode="&#xb0;" horiz-adv-x="294" 
d="M147 526q31 0 50.5 21t19.5 53t-19.5 52.5t-50.5 20.5t-50.5 -20.5t-19.5 -52.5t19.5 -53t50.5 -21zM147 489q-26 0 -46.5 8.5t-35.5 23.5t-23 35.5t-8 43.5q0 47 31 78.5t82 31.5t82 -31.5t31 -78.5q0 -23 -8 -43.5t-23 -35.5t-36 -23.5t-46 -8.5z" />
    <glyph glyph-name="quotesingle" unicode="'" horiz-adv-x="150" 
d="M67 452q-11 0 -11 12l-7 210q-1 9 3 11.5t12 2.5h23q8 0 11.5 -2.5t3.5 -11.5l-7 -210q0 -12 -11 -12h-17z" />
    <glyph glyph-name="quotedbl" unicode="&#x22;" horiz-adv-x="298" 
d="M215 452q-11 0 -11 12l-7 210q-1 9 3 11.5t12 2.5h23q8 0 11.5 -2.5t3.5 -11.5l-7 -210q0 -12 -11 -12h-17zM67 452q-11 0 -11 12l-7 210q-1 9 3 11.5t12 2.5h23q8 0 11.5 -2.5t3.5 -11.5l-7 -210q0 -12 -11 -12h-17z" />
    <glyph glyph-name="radical" unicode="&#x221a;" horiz-adv-x="535" 
d="M28 476q0 10 10 10h91q7 0 11 -2t6 -10l128 -395h1l177 565q4 12 14 12h28q13 0 9 -13l-207 -635q-2 -8 -11 -8h-20q-9 0 -12 8l-148 439h-67q-10 0 -10 10v19z" />
    <glyph glyph-name="currency" unicode="&#xa4;" 
d="M436 280q0 -31 -10 -58t-27 -50l75 -73q7 -8 0 -15l-17 -17q-8 -8 -16 0l-74 72q-47 -36 -109 -36q-65 0 -113 37l-74 -73q-8 -8 -16 0l-17 17q-8 7 0 15l76 75q-17 22 -26 48.5t-9 57.5t9 57.5t26 48.5l-76 75q-8 7 0 15l17 17q8 8 16 0l74 -73q48 37 113 37
q62 0 109 -36l74 72q8 8 16 0l17 -17q7 -8 0 -15l-75 -73q17 -23 27 -50t10 -58zM388 280q0 29 -10.5 54t-28 43t-41 28t-50.5 10t-51 -10t-41.5 -28t-28 -43t-10.5 -54t10.5 -54t28 -43t41.5 -28t51 -10t50.5 10t41 28t28 43t10.5 54z" />
    <glyph glyph-name="infinity" unicode="&#x221e;" horiz-adv-x="832" 
d="M417 279q-42 -54 -88.5 -80t-105.5 -26q-33 0 -61 9t-48.5 27.5t-32 46t-11.5 65.5q0 30 10 56.5t29 46t47 30.5t64 11q64 0 109 -32t84 -84q43 54 89 85t108 31q38 0 66.5 -11.5t47.5 -31t28.5 -45.5t9.5 -56q0 -40 -13 -68t-34.5 -46t-49.5 -26t-58 -8
q-59 0 -105.5 27.5t-84.5 78.5zM388 313q-77 109 -163 109q-49 0 -78 -24t-29 -78q0 -53 30 -78.5t75 -25.5q41 0 82 20t83 77zM444 316q41 -59 82.5 -79.5t82.5 -20.5q45 0 75 25.5t30 78.5q0 54 -29 78t-78 24q-44 0 -82.5 -24.5t-80.5 -81.5z" />
    <glyph glyph-name="mu" unicode="&#xb5;" horiz-adv-x="539" 
d="M116 -170q0 -8 -8 -8h-27q-8 0 -8 8v652q0 8 8 8h27q8 0 8 -8v-342q0 -63 30.5 -87t93.5 -24q27 0 51.5 7.5t43.5 25t30 45t11 68.5v307q0 8 8 8h27q8 0 8 -8v-403q0 -31 9 -40.5t26 -9.5q9 0 20.5 2.5t17.5 4.5q6 3 9 -5l4 -16q2 -7 -4 -11q-23 -13 -56 -13
q-31 0 -48 18t-18 50h-3q-17 -30 -49.5 -49t-89.5 -19q-48 0 -76.5 11.5t-44.5 32.5v-205z" />
    <glyph glyph-name="mu" unicode="&#x3bc;" horiz-adv-x="539" 
d="M116 -170q0 -8 -8 -8h-27q-8 0 -8 8v652q0 8 8 8h27q8 0 8 -8v-342q0 -63 30.5 -87t93.5 -24q27 0 51.5 7.5t43.5 25t30 45t11 68.5v307q0 8 8 8h27q8 0 8 -8v-403q0 -31 9 -40.5t26 -9.5q9 0 20.5 2.5t17.5 4.5q6 3 9 -5l4 -16q2 -7 -4 -11q-23 -13 -56 -13
q-31 0 -48 18t-18 50h-3q-17 -30 -49.5 -49t-89.5 -19q-48 0 -76.5 11.5t-44.5 32.5v-205z" />
    <glyph glyph-name="partialdiff" unicode="&#x2202;" 
d="M247 360q-63 0 -99 -36.5t-36 -113.5v-13q0 -76 36.5 -120t101.5 -44q39 0 67 18.5t46 52t26 81.5t8 108q-29 32 -67 49.5t-83 17.5zM110 643q18 6 43.5 9.5t47.5 3.5q59 0 101 -18t70 -52q33 -40 54 -110.5t21 -167.5v-9q0 -148 -48 -228t-154 -80q-39 0 -72 14.5
t-58 41t-39 64.5t-14 85v19q0 88 47.5 137.5t129.5 49.5q53 0 91 -16.5t66 -41.5q-3 60 -14.5 110t-34 86t-57 55.5t-84.5 19.5q-24 0 -46.5 -3t-39.5 -7q-8 -2 -10 0.5t-4 7.5l-4 16q-3 10 8 14z" />
    <glyph glyph-name="summation" unicode="&#x2211;" horiz-adv-x="592" 
d="M113 -59l-5 5h412q11 0 11 -12v-19q0 -11 -11 -11h-444q-14 0 -14 13v13q0 8 2 13l4 10l276 327v3l-253 311q-8 10 -11 15t-3 14v11q0 13 14 13h421q11 0 11 -11v-19q0 -12 -11 -12h-391l13 6l229 -279q16 -20 21 -28.5t5 -19.5v-6q0 -10 -5 -18.5t-21 -27.5z" />
    <glyph glyph-name="product" unicode="&#x220f;" horiz-adv-x="603" 
d="M465 609v-694q0 -11 -9 -11h-28q-9 0 -9 11v694h-233v-694q0 -11 -9 -11h-28q-9 0 -9 11v694h-95q-6 0 -8 1.5t-2 7.5v20q0 6 2 7.5t8 1.5h513q6 0 8 -1.5t2 -7.5v-20q0 -6 -2 -7.5t-8 -1.5h-93z" />
    <glyph glyph-name="pi" unicode="&#x3c0;" horiz-adv-x="583" 
d="M61 453q-11 0 -11 10v16q0 11 11 11h455q11 0 11 -11v-16q0 -10 -11 -10h-87v-355q0 -45 10 -59t34 -14q14 0 26 2.5t20 5.5q9 3 10 -4l4 -16q3 -7 -4 -10q-11 -5 -28 -8.5t-32 -3.5q-45 0 -64 21t-19 76v365h-211v-443q0 -10 -9 -10h-25q-9 0 -9 10v443h-71z" />
    <glyph glyph-name="integral" unicode="&#x222b;" horiz-adv-x="357" 
d="M228 59q0 -75 -37 -119.5t-110 -44.5q-12 0 -25.5 1t-20.5 3q-7 1 -6 10l3 20q1 8 10 7q8 -2 19.5 -2.5t20.5 -0.5q47 0 75 30t28 93v19t-1 17q-3 36 -10 80t-14.5 88t-14.5 85.5t-11 72.5q-2 20 -3 36t-1 32q0 170 146 170q32 0 47 -5q6 -2 5 -8l-4 -24q-1 -8 -10 -7
q-8 2 -18 3t-20 1q-104 0 -104 -131q0 -10 0.5 -20.5t1.5 -21.5q3 -37 10.5 -81t15.5 -89.5t15.5 -90t10.5 -82.5q1 -10 1.5 -19.5t0.5 -21.5z" />
    <glyph glyph-name="Omega" unicode="&#x3a9;" horiz-adv-x="672" 
d="M95 354q0 86 13.5 142t48.5 95q29 33 75 49t104 16t104 -16t75 -49q35 -39 48.5 -95t13.5 -142v-56q0 -84 -31 -151.5t-94 -102.5v-2h124q11 0 11 -11v-20q0 -11 -11 -11h-191q-9 0 -12 3t-3 10v10q0 11 4.5 14.5t10.5 6.5q75 40 109.5 103.5t34.5 166.5v27
q0 75 -8.5 124.5t-36.5 87.5q-45 62 -148 62t-148 -62q-28 -38 -36.5 -87.5t-8.5 -124.5v-27q0 -103 34.5 -166.5t109.5 -103.5q6 -3 10.5 -6.5t4.5 -14.5v-10q0 -7 -3 -10t-12 -3h-191q-11 0 -11 11v20q0 11 11 11h124v2q-63 35 -94 102.5t-31 151.5v56z" />
    <glyph glyph-name="Omega" unicode="&#x2126;" horiz-adv-x="672" 
d="M95 354q0 86 13.5 142t48.5 95q29 33 75 49t104 16t104 -16t75 -49q35 -39 48.5 -95t13.5 -142v-56q0 -84 -31 -151.5t-94 -102.5v-2h124q11 0 11 -11v-20q0 -11 -11 -11h-191q-9 0 -12 3t-3 10v10q0 11 4.5 14.5t10.5 6.5q75 40 109.5 103.5t34.5 166.5v27
q0 75 -8.5 124.5t-36.5 87.5q-45 62 -148 62t-148 -62q-28 -38 -36.5 -87.5t-8.5 -124.5v-27q0 -103 34.5 -166.5t109.5 -103.5q6 -3 10.5 -6.5t4.5 -14.5v-10q0 -7 -3 -10t-12 -3h-191q-11 0 -11 11v20q0 11 11 11h124v2q-63 35 -94 102.5t-31 151.5v56z" />
    <glyph glyph-name="Delta" unicode="&#x394;" horiz-adv-x="609" 
d="M496 46q-20 65 -45 140t-50.5 148t-50 139t-43.5 114h-5q-20 -48 -44 -114t-49.5 -139t-50 -148t-45.5 -140h383zM269 634q4 13 19 13h33q15 0 19 -13q55 -146 103 -283.5t86 -248.5q8 -22 14 -41t6 -32v-15q0 -14 -14 -14h-461q-14 0 -14 14v15q0 13 6 32t14 41
q36 111 84.5 248.5t104.5 283.5z" />
    <glyph glyph-name="Delta" unicode="&#x2206;" horiz-adv-x="609" 
d="M496 46q-20 65 -45 140t-50.5 148t-50 139t-43.5 114h-5q-20 -48 -44 -114t-49.5 -139t-50 -148t-45.5 -140h383zM269 634q4 13 19 13h33q15 0 19 -13q55 -146 103 -283.5t86 -248.5q8 -22 14 -41t6 -32v-15q0 -14 -14 -14h-461q-14 0 -14 14v15q0 13 6 32t14 41
q36 111 84.5 248.5t104.5 283.5z" />
    <glyph glyph-name="litre" unicode="&#x2113;" horiz-adv-x="425" 
d="M150 262q78 49 117.5 109t39.5 139q0 53 -20.5 78.5t-52.5 25.5q-43 0 -63.5 -31.5t-20.5 -104.5v-216zM150 171q0 -78 22 -110t64 -32q29 0 57 22.5t45 57.5q4 8 11 4l17 -10q6 -4 3 -11q-24 -51 -61 -76t-75 -25q-60 0 -92 40t-32 131v32q-14 -8 -32 -18t-35 -18
q-9 -5 -12 3l-8 19q-4 8 5 13l38 19t44 25v253q0 85 32 123.5t92 38.5q22 0 42.5 -6.5t37 -23.5t26.5 -46t10 -73q0 -88 -48.5 -155t-150.5 -130v-47z" />
    <glyph glyph-name="estimated" unicode="&#x212e;" horiz-adv-x="820" 
d="M181 316q-5 0 -5 -5v-182q0 -10 9 -21q42 -45 100.5 -71t126.5 -26q72 0 133.5 29.5t103.5 79.5h54q-51 -58 -126.5 -93.5t-165.5 -35.5q-77 0 -144.5 26t-117.5 71t-79.5 105.5t-29.5 129.5t29.5 130t79.5 106t117.5 71t144.5 26q76 0 143 -26t117.5 -71t79.5 -106
t29 -130v-7h-599zM644 521q0 12 -10 22q-42 43 -99 68t-123 25q-68 0 -126 -25.5t-100 -70.5q-10 -8 -10 -23v-179q0 -5 5 -5h458q5 0 5 5v183z" />
    <glyph glyph-name="numero" unicode="&#x2116;" horiz-adv-x="889" 
d="M626 0q-7 0 -8.5 1.5t-1.5 9.5v11q0 7 1.5 9t8.5 2h198q7 0 8.5 -2t1.5 -9v-11q0 -8 -1.5 -9.5t-8.5 -1.5h-198zM123 607h-6v-596q0 -11 -9 -11h-26q-10 0 -10 11v604q0 19 7 25.5t24 6.5h20q20 0 28.5 -6t17.5 -24l304 -577h6v596q0 11 9 11h26q10 0 10 -11v-606
q0 -16 -6 -23t-21 -7h-27q-24 0 -35 21zM645 223q0 -34 4 -56t13.5 -34.5t24.5 -17.5t36 -5q22 0 37 5t24.5 17.5t13.5 34.5t4 56v6q0 67 -17.5 91t-61.5 24q-43 0 -60.5 -24t-17.5 -91v-6zM844 215q0 -40 -7.5 -66.5t-22.5 -42.5t-37.5 -22.5t-53.5 -6.5t-53.5 6.5
t-37.5 22.5t-22 42.5t-7 66.5v24q0 79 29 108.5t91 29.5t91.5 -29.5t29.5 -108.5v-24z" />
    <glyph glyph-name="fraction" unicode="&#x2044;" horiz-adv-x="98" 
d="M-116 -9q-4 -7 -11 -7h-30q-10 0 -4 9l376 656q3 7 11 7h30q8 0 4 -9z" />
    <glyph glyph-name="onesuperior" unicode="&#xb9;" horiz-adv-x="302" 
d="M45 455q-6 0 -6 6v22q0 6 6 6h84v252h-3l-66 -48q-6 -5 -10 1l-14 19q-4 5 3 10l59 42q11 8 17 10.5t15 2.5h30q13 0 13 -11v-278h83q6 0 6 -6v-22q0 -6 -6 -6h-211z" />
    <glyph glyph-name="twosuperior" unicode="&#xb2;" horiz-adv-x="302" 
d="M84 489h164q6 0 6 -6v-22q0 -6 -6 -6h-199q-8 0 -8 8v18q0 48 14 76t51 46l53 26q27 14 37 28t10 38v6q0 32 -16 41.5t-49 9.5q-18 0 -38 -3.5t-36 -8.5q-9 -3 -10 4l-4 19q-1 7 5 10q18 6 42.5 10t44.5 4q51 0 78 -18t27 -63v-6q0 -36 -12.5 -58t-50.5 -40l-51 -25
q-32 -15 -42 -33t-10 -48v-7z" />
    <glyph glyph-name="threesuperior" unicode="&#xb3;" horiz-adv-x="302" 
d="M133 481q40 0 58 14t18 41v7q0 31 -18.5 45.5t-61.5 14.5h-20q-6 0 -6 7v20q0 8 7 8h19q42 0 56.5 15t14.5 44v7q0 25 -13.5 36.5t-45.5 11.5q-17 0 -35.5 -3t-32.5 -8q-9 -3 -10 4l-4 18q-1 7 5 10q15 5 38.5 9.5t46.5 4.5q45 0 70 -19.5t25 -60.5v-8q0 -30 -14 -50
t-39 -27v-2q26 -2 44 -21.5t18 -51.5v-10q0 -45 -31.5 -68t-80.5 -23q-24 0 -45 3.5t-44 11.5q-5 2 -3 8l4 21q2 7 8 4q14 -5 33 -9t39 -4z" />
    <glyph glyph-name="onehalf" unicode="&#xbd;" horiz-adv-x="764" 
d="M209 -9q-4 -7 -11 -7h-30q-10 0 -4 9l376 656q3 7 11 7h30q8 0 4 -9zM66 324q-6 0 -6 6v22q0 6 6 6h84v252h-3l-66 -48q-6 -5 -10 1l-14 19q-4 5 3 10l59 42q11 8 17 10.5t15 2.5h30q13 0 13 -11v-278h83q6 0 6 -6v-22q0 -6 -6 -6h-211zM526 34h164q6 0 6 -6v-22
q0 -6 -6 -6h-199q-8 0 -8 8v18q0 48 14 76t51 46l53 26q27 14 37 28t10 38v6q0 32 -16 41.5t-49 9.5q-18 0 -38 -3.5t-36 -8.5q-9 -3 -10 4l-4 19q-1 7 5 10q18 6 42.5 10t44.5 4q51 0 78 -18t27 -63v-6q0 -36 -12.5 -58t-50.5 -40l-51 -25q-32 -15 -42 -33t-10 -48v-7z" />
    <glyph glyph-name="onequarter" unicode="&#xbc;" horiz-adv-x="764" 
d="M622 88v-81q0 -7 -6 -7h-30q-8 0 -8 7v81h-150q-8 0 -8 6v23q0 6 8 17l126 181q4 5 6.5 7t9.5 2h44q8 0 8 -8v-194h38q6 0 6 -5v-24q0 -5 -6 -5h-38zM463 122h115v162h-4zM209 -9q-4 -7 -11 -7h-30q-10 0 -4 9l376 656q3 7 11 7h30q8 0 4 -9zM66 324q-6 0 -6 6v22
q0 6 6 6h84v252h-3l-66 -48q-6 -5 -10 1l-14 19q-4 5 3 10l59 42q11 8 17 10.5t15 2.5h30q13 0 13 -11v-278h83q6 0 6 -6v-22q0 -6 -6 -6h-211z" />
    <glyph glyph-name="threequarters" unicode="&#xbe;" horiz-adv-x="764" 
d="M622 88v-81q0 -7 -6 -7h-30q-8 0 -8 7v81h-150q-8 0 -8 6v23q0 6 8 17l126 181q4 5 6.5 7t9.5 2h44q8 0 8 -8v-194h38q6 0 6 -5v-24q0 -5 -6 -5h-38zM463 122h115v162h-4zM209 -9q-4 -7 -11 -7h-30q-10 0 -4 9l376 656q3 7 11 7h30q8 0 4 -9zM166 350q40 0 58 14t18 41v7
q0 31 -18.5 45.5t-61.5 14.5h-20q-6 0 -6 7v20q0 8 7 8h19q42 0 56.5 15t14.5 44v7q0 25 -13.5 36.5t-45.5 11.5q-17 0 -35.5 -3t-32.5 -8q-9 -3 -10 4l-4 18q-1 7 5 10q15 5 38.5 9.5t46.5 4.5q45 0 70 -19.5t25 -60.5v-8q0 -30 -14 -50t-39 -27v-2q26 -2 44 -21.5
t18 -51.5v-10q0 -45 -31.5 -68t-80.5 -23q-24 0 -45 3.5t-44 11.5q-5 2 -3 8l4 21q2 7 8 4q14 -5 33 -9t39 -4z" />
    <glyph glyph-name="grave" unicode="`" horiz-adv-x="278" 
d="M238 618q8 -5 4 -16l-7 -16q-3 -6 -7 -7t-15 4l-166 75q-21 7 -13 21l13 26q7 15 22 8z" />
    <glyph glyph-name="acute" unicode="&#xb4;" horiz-adv-x="278" 
d="M205 713q15 7 22 -8l13 -26q8 -14 -13 -21l-166 -75q-11 -5 -15 -4t-7 7l-7 16q-4 11 4 16z" />
    <glyph glyph-name="dieresis" unicode="&#xa8;" horiz-adv-x="324" 
d="M86 686q20 0 27.5 -6.5t7.5 -25.5v-21q0 -18 -7.5 -24.5t-27.5 -6.5h-10q-20 0 -27 6.5t-7 24.5v21q0 19 7.5 25.5t26.5 6.5h10zM247 686q20 0 27.5 -6.5t7.5 -25.5v-21q0 -18 -7.5 -24.5t-27.5 -6.5h-10q-20 0 -27 6.5t-7 24.5v21q0 19 7.5 25.5t26.5 6.5h10z" />
    <glyph glyph-name="circumflex" unicode="&#x2c6;" horiz-adv-x="373" 
d="M160 725q6 7 15 7h24q9 0 15 -7l111 -122q8 -8 1 -15l-19 -16q-8 -6 -17 3l-100 103h-6l-100 -103q-10 -10 -17 -3l-19 16q-8 6 1 15z" />
    <glyph glyph-name="tilde" unicode="&#x2dc;" horiz-adv-x="416" 
d="M51 609q-8 5 -2 14q17 36 42.5 54.5t54.5 18.5q16 0 30 -6t29 -17l27 -21q11 -8 18.5 -11.5t18.5 -3.5q15 0 31 15.5t28 35.5q4 5 9 3l21 -14q8 -5 3 -13q-17 -32 -43 -53.5t-55 -21.5q-16 0 -29.5 5t-28.5 17l-26 20q-11 8 -19.5 12.5t-19.5 4.5q-29 0 -57 -50
q-4 -7 -12 -2z" />
    <glyph glyph-name="macron" unicode="&#xaf;" horiz-adv-x="321" 
d="M46 622q-11 0 -11 11v21q0 12 11 12h229q11 0 11 -12v-21q0 -11 -11 -11h-229z" />
    <glyph glyph-name="breve" unicode="&#x2d8;" horiz-adv-x="373" 
d="M186 571q-23 0 -45.5 6.5t-41 20t-33 33.5t-21.5 48q-4 12 7 15l21 6q12 4 15 -6q12 -42 37.5 -61.5t60.5 -19.5t61.5 19.5t37.5 61.5q3 10 15 6l21 -6q7 -2 8 -5.5t-1 -9.5q-7 -28 -21.5 -48t-33.5 -33.5t-41.5 -20t-45.5 -6.5z" />
    <glyph glyph-name="dotaccent" unicode="&#x2d9;" horiz-adv-x="132" 
d="M9 643q0 24 17 40.5t40 16.5t40 -16.5t17 -40.5t-17 -40.5t-40 -16.5t-40 16.5t-17 40.5z" />
    <glyph glyph-name="ring" unicode="&#x2da;" horiz-adv-x="219" 
d="M18 639q0 44 27 66.5t64 22.5q38 0 64.5 -22.5t26.5 -66.5t-26.5 -66.5t-64.5 -22.5q-37 0 -64 22.5t-27 66.5zM61 639q0 -24 14 -36.5t34 -12.5q21 0 34.5 12.5t13.5 36.5t-13.5 36.5t-34.5 12.5q-20 0 -34 -12.5t-14 -36.5z" />
    <glyph glyph-name="cedilla" unicode="&#xb8;" horiz-adv-x="224" 
d="M107 -70q7 2 15.5 3t18.5 1q29 0 47.5 -17t18.5 -55q0 -90 -105 -90q-18 0 -38 3t-31 7q-8 2 -6 10l4 22q2 8 10 5q14 -4 31.5 -6t31.5 -2q29 0 43.5 10.5t14.5 37.5q0 37 -39 37q-11 0 -21.5 -1.5t-17.5 -3.5q-7 -1 -11 1l-7 4q-3 2 -4 3.5t0 6.5l12 87q1 6 7 6h28
q7 0 6 -7z" />
    <glyph glyph-name="hungarumlaut" unicode="&#x2dd;" horiz-adv-x="530" 
d="M224 725q14 12 24 -2l14 -20q10 -14 -6 -25l-150 -97q-9 -6 -15 3l-14 18q-6 8 1 13zM423 725q14 12 24 -2l14 -20q10 -14 -6 -25l-150 -97q-8 -5 -15 3l-14 18q-6 8 1 13z" />
    <glyph glyph-name="ogonek" unicode="&#x2db;" horiz-adv-x="223" 
d="M41 -117q0 37 21.5 68t54.5 50q8 5 17 5h23q5 0 5 -2t-2 -4q-35 -23 -54 -51.5t-19 -56.5q0 -45 51 -45q32 0 54 10q7 4 10 -4l6 -22q2 -5 0.5 -6.5t-6.5 -3.5q-30 -15 -74 -15q-42 0 -64.5 20t-22.5 57z" />
    <glyph glyph-name="caron" unicode="&#x2c7;" horiz-adv-x="373" 
d="M48 696q-9 9 -1 15l19 16q7 7 17 -3l100 -103h6l100 103q9 9 17 3l19 -16q7 -7 -1 -15l-111 -122q-6 -7 -15 -7h-24q-9 0 -15 7z" />
    <glyph glyph-name="commaaccent" unicode="&#x326;" horiz-adv-x="181" 
d="M98 -71q36 0 36 -37v-17q0 -66 -58 -121q-4 -4 -6.5 -5.5t-7.5 2.5l-11 9q-7 5 -2 10q10 10 19 22t15 25q2 4 3 7t1 7q0 9 -13 16q-11 5 -15.5 12t-4.5 22v18q0 16 8.5 23t22.5 7h13z" />
    <glyph glyph-name="grave.cap" horiz-adv-x="278" 
d="M241 739q9 -4 6 -15l-6 -17q-2 -7 -6 -8.5t-15 2.5l-174 55q-21 6 -15 20l10 27q6 16 21 10z" />
    <glyph glyph-name="acute.cap" horiz-adv-x="278" 
d="M216 813q15 6 21 -10l10 -27q6 -14 -15 -20l-174 -55q-11 -4 -15 -2.5t-6 8.5l-6 17q-3 11 6 15z" />
    <glyph glyph-name="dieresis.cap" horiz-adv-x="324" 
d="M86 809q20 0 27.5 -6.5t7.5 -25.5v-21q0 -18 -7.5 -24.5t-27.5 -6.5h-10q-20 0 -27 6.5t-7 24.5v21q0 19 7.5 25.5t26.5 6.5h10zM247 809q20 0 27.5 -6.5t7.5 -25.5v-21q0 -18 -7.5 -24.5t-27.5 -6.5h-10q-20 0 -27 6.5t-7 24.5v21q0 19 7.5 25.5t26.5 6.5h10z" />
    <glyph glyph-name="circumflex.cap" horiz-adv-x="373" 
d="M160 853q6 7 15 7h24q9 0 15 -7l111 -122q8 -8 1 -15l-19 -16q-8 -6 -17 3l-100 103h-6l-100 -103q-10 -10 -17 -3l-19 16q-8 6 1 15z" />
    <glyph glyph-name="tilde.cap" horiz-adv-x="416" 
d="M51 734q-8 5 -2 14q17 36 42.5 54.5t54.5 18.5q16 0 30 -6t29 -17l27 -21q11 -8 18.5 -11.5t18.5 -3.5q15 0 31 15.5t28 35.5q4 5 9 3l21 -14q8 -5 3 -13q-17 -32 -43 -53.5t-55 -21.5q-16 0 -29.5 5t-28.5 17l-26 20q-11 8 -19.5 12.5t-19.5 4.5q-29 0 -57 -50
q-4 -7 -12 -2z" />
    <glyph glyph-name="macron.cap" horiz-adv-x="321" 
d="M46 733q-11 0 -11 11v21q0 12 11 12h229q11 0 11 -12v-21q0 -11 -11 -11h-229z" />
    <glyph glyph-name="breve.cap" horiz-adv-x="373" 
d="M186 703q-23 0 -45.5 6.5t-41 20t-33 33.5t-21.5 48q-4 12 7 15l21 6q12 4 15 -6q12 -42 37.5 -61.5t60.5 -19.5t61.5 19.5t37.5 61.5q3 10 15 6l21 -6q7 -2 8 -5.5t-1 -9.5q-7 -28 -21.5 -48t-33.5 -33.5t-41.5 -20t-45.5 -6.5z" />
    <glyph glyph-name="dotaccent.cap" horiz-adv-x="132" 
d="M9 771q0 24 17 40.5t40 16.5t40 -16.5t17 -40.5t-17 -40.5t-40 -16.5t-40 16.5t-17 40.5z" />
    <glyph glyph-name="ring.cap" horiz-adv-x="219" 
d="M19 796q0 44 27 66.5t64 22.5q38 0 64.5 -22.5t26.5 -66.5t-26.5 -66.5t-64.5 -22.5q-37 0 -64 22.5t-27 66.5zM62 796q0 -24 14 -36.5t34 -12.5q21 0 34.5 12.5t13.5 36.5t-13.5 36.5t-34.5 12.5q-20 0 -34 -12.5t-14 -36.5z" />
    <glyph glyph-name="hungarumlaut.cap" horiz-adv-x="530" 
d="M219 835q14 12 24 -2l14 -20q10 -14 -6 -25l-150 -97q-9 -6 -15 3l-14 18q-6 8 1 13zM418 835q14 12 24 -2l14 -20q10 -14 -6 -25l-150 -97q-9 -6 -15 3l-14 18q-6 8 1 13z" />
    <glyph glyph-name="caron.cap" horiz-adv-x="373" 
d="M48 831q-9 9 -1 15l19 16q7 7 17 -3l100 -103h6l100 103q9 9 17 3l19 -16q7 -7 -1 -15l-111 -122q-6 -7 -15 -7h-24q-9 0 -15 7z" />
    <glyph glyph-name="Agrave" unicode="&#xc0;" 
d="M134 223q-14 -50 -29 -106t-28 -109q-1 -8 -10 -8h-33q-8 0 -6 11q20 79 42.5 163t46.5 165t48 155t46 134q5 13 10.5 16t16.5 3h35q11 0 17 -3t11 -16q22 -60 45.5 -134t47.5 -155t47 -165t43 -163q2 -11 -6 -11h-33q-9 0 -10 8q-13 53 -28 109t-29 106h-244zM367 265
q-11 37 -23 79.5t-25.5 86.5t-27.5 89t-28 87h-14q-14 -42 -28 -87t-27.5 -89t-25.5 -86.5t-23 -79.5h222zM324 753q9 -4 6 -15l-6 -17q-2 -7 -6 -8.5t-15 2.5l-174 55q-21 6 -15 20l10 27q6 16 21 10z" />
    <glyph glyph-name="Aacute" unicode="&#xc1;" 
d="M134 223q-14 -50 -29 -106t-28 -109q-1 -8 -10 -8h-33q-8 0 -6 11q20 79 42.5 163t46.5 165t48 155t46 134q5 13 10.5 16t16.5 3h35q11 0 17 -3t11 -16q22 -60 45.5 -134t47.5 -155t47 -165t43 -163q2 -11 -6 -11h-33q-9 0 -10 8q-13 53 -28 109t-29 106h-244zM367 265
q-11 37 -23 79.5t-25.5 86.5t-27.5 89t-28 87h-14q-14 -42 -28 -87t-27.5 -89t-25.5 -86.5t-23 -79.5h222zM371 827q15 6 21 -10l10 -27q6 -14 -15 -20l-174 -55q-11 -4 -15 -2.5t-6 8.5l-6 17q-3 11 6 15z" />
    <glyph glyph-name="Acircumflex" unicode="&#xc2;" 
d="M134 223q-14 -50 -29 -106t-28 -109q-1 -8 -10 -8h-33q-8 0 -6 11q20 79 42.5 163t46.5 165t48 155t46 134q5 13 10.5 16t16.5 3h35q11 0 17 -3t11 -16q22 -60 45.5 -134t47.5 -155t47 -165t43 -163q2 -11 -6 -11h-33q-9 0 -10 8q-13 53 -28 109t-29 106h-244zM367 265
q-11 37 -23 79.5t-25.5 86.5t-27.5 89t-28 87h-14q-14 -42 -28 -87t-27.5 -89t-25.5 -86.5t-23 -79.5h222zM229 867q6 7 15 7h24q9 0 15 -7l111 -122q8 -8 1 -15l-19 -16q-8 -6 -17 3l-100 103h-6l-100 -103q-10 -10 -17 -3l-19 16q-8 6 1 15z" />
    <glyph glyph-name="Atilde" unicode="&#xc3;" 
d="M134 223q-14 -50 -29 -106t-28 -109q-1 -8 -10 -8h-33q-8 0 -6 11q20 79 42.5 163t46.5 165t48 155t46 134q5 13 10.5 16t16.5 3h35q11 0 17 -3t11 -16q22 -60 45.5 -134t47.5 -155t47 -165t43 -163q2 -11 -6 -11h-33q-9 0 -10 8q-13 53 -28 109t-29 106h-244zM367 265
q-11 37 -23 79.5t-25.5 86.5t-27.5 89t-28 87h-14q-14 -42 -28 -87t-27.5 -89t-25.5 -86.5t-23 -79.5h222zM103 748q-8 5 -2 14q17 36 42.5 54.5t54.5 18.5q16 0 30 -6t29 -17l27 -21q11 -8 18.5 -11.5t18.5 -3.5q15 0 31 15.5t28 35.5q4 5 9 3l21 -14q8 -5 3 -13
q-17 -32 -43 -53.5t-55 -21.5q-16 0 -29.5 5t-28.5 17l-26 20q-11 8 -19.5 12.5t-19.5 4.5q-29 0 -57 -50q-4 -7 -12 -2z" />
    <glyph glyph-name="Adieresis" unicode="&#xc4;" 
d="M134 223q-14 -50 -29 -106t-28 -109q-1 -8 -10 -8h-33q-8 0 -6 11q20 79 42.5 163t46.5 165t48 155t46 134q5 13 10.5 16t16.5 3h35q11 0 17 -3t11 -16q22 -60 45.5 -134t47.5 -155t47 -165t43 -163q2 -11 -6 -11h-33q-9 0 -10 8q-13 53 -28 109t-29 106h-244zM367 265
q-11 37 -23 79.5t-25.5 86.5t-27.5 89t-28 87h-14q-14 -42 -28 -87t-27.5 -89t-25.5 -86.5t-23 -79.5h222zM180 823q20 0 27.5 -6.5t7.5 -25.5v-21q0 -18 -7.5 -24.5t-27.5 -6.5h-10q-20 0 -27 6.5t-7 24.5v21q0 19 7.5 25.5t26.5 6.5h10zM341 823q20 0 27.5 -6.5t7.5 -25.5
v-21q0 -18 -7.5 -24.5t-27.5 -6.5h-10q-20 0 -27 6.5t-7 24.5v21q0 19 7.5 25.5t26.5 6.5h10z" />
    <glyph glyph-name="Amacron" unicode="&#x100;" 
d="M134 223q-14 -50 -29 -106t-28 -109q-1 -8 -10 -8h-33q-8 0 -6 11q20 79 42.5 163t46.5 165t48 155t46 134q5 13 10.5 16t16.5 3h35q11 0 17 -3t11 -16q22 -60 45.5 -134t47.5 -155t47 -165t43 -163q2 -11 -6 -11h-33q-9 0 -10 8q-13 53 -28 109t-29 106h-244zM367 265
q-11 37 -23 79.5t-25.5 86.5t-27.5 89t-28 87h-14q-14 -42 -28 -87t-27.5 -89t-25.5 -86.5t-23 -79.5h222zM142 733q-11 0 -11 11v21q0 12 11 12h229q11 0 11 -12v-21q0 -11 -11 -11h-229z" />
    <glyph glyph-name="Abreve" unicode="&#x102;" 
d="M134 223q-14 -50 -29 -106t-28 -109q-1 -8 -10 -8h-33q-8 0 -6 11q20 79 42.5 163t46.5 165t48 155t46 134q5 13 10.5 16t16.5 3h35q11 0 17 -3t11 -16q22 -60 45.5 -134t47.5 -155t47 -165t43 -163q2 -11 -6 -11h-33q-9 0 -10 8q-13 53 -28 109t-29 106h-244zM367 265
q-11 37 -23 79.5t-25.5 86.5t-27.5 89t-28 87h-14q-14 -42 -28 -87t-27.5 -89t-25.5 -86.5t-23 -79.5h222zM256 703q-23 0 -45.5 6.5t-41 20t-33 33.5t-21.5 48q-4 12 7 15l21 6q12 4 15 -6q12 -42 37.5 -61.5t60.5 -19.5t61.5 19.5t37.5 61.5q3 10 15 6l21 -6q7 -2 8 -5.5
t-1 -9.5q-7 -28 -21.5 -48t-33.5 -33.5t-41.5 -20t-45.5 -6.5z" />
    <glyph glyph-name="Acaron" unicode="&#x1cd;" 
d="M134 223q-14 -50 -29 -106t-28 -109q-1 -8 -10 -8h-33q-8 0 -6 11q20 79 42.5 163t46.5 165t48 155t46 134q5 13 10.5 16t16.5 3h35q11 0 17 -3t11 -16q22 -60 45.5 -134t47.5 -155t47 -165t43 -163q2 -11 -6 -11h-33q-9 0 -10 8q-13 53 -28 109t-29 106h-244zM367 265
q-11 37 -23 79.5t-25.5 86.5t-27.5 89t-28 87h-14q-14 -42 -28 -87t-27.5 -89t-25.5 -86.5t-23 -79.5h222zM118 831q-9 9 -1 15l19 16q7 7 17 -3l100 -103h6l100 103q9 9 17 3l19 -16q7 -7 -1 -15l-111 -122q-6 -7 -15 -7h-24q-9 0 -15 7z" />
    <glyph glyph-name="Aring" unicode="&#xc5;" 
d="M134 223q-14 -50 -29 -106t-28 -109q-1 -8 -10 -8h-33q-8 0 -6 11q20 79 42.5 163t46.5 165t48 155t46 134q5 13 10.5 16t16.5 3h35q11 0 17 -3t11 -16q22 -60 45.5 -134t47.5 -155t47 -165t43 -163q2 -11 -6 -11h-33q-9 0 -10 8q-13 53 -28 109t-29 106h-244zM367 265
q-11 37 -23 79.5t-25.5 86.5t-27.5 89t-28 87h-14q-14 -42 -28 -87t-27.5 -89t-25.5 -86.5t-23 -79.5h222zM165 796q0 44 27 66.5t64 22.5q38 0 64.5 -22.5t26.5 -66.5t-26.5 -66.5t-64.5 -22.5q-37 0 -64 22.5t-27 66.5zM208 796q0 -24 14 -36.5t34 -12.5q21 0 34.5 12.5
t13.5 36.5t-13.5 36.5t-34.5 12.5q-20 0 -34 -12.5t-14 -36.5z" />
    <glyph glyph-name="Aringacute" unicode="&#x1fa;" 
d="M134 223q-14 -50 -29 -106t-28 -109q-1 -8 -10 -8h-33q-8 0 -6 11q20 79 42.5 163t46.5 165t48 155t46 134q5 13 10.5 16t16.5 3h35q11 0 17 -3t11 -16q22 -60 45.5 -134t47.5 -155t47 -165t43 -163q2 -11 -6 -11h-33q-9 0 -10 8q-13 53 -28 109t-29 106h-244zM367 265
q-11 37 -23 79.5t-25.5 86.5t-27.5 89t-28 87h-14q-14 -42 -28 -87t-27.5 -89t-25.5 -86.5t-23 -79.5h222zM163 785q0 44 27 66.5t64 22.5q38 0 64.5 -22.5t26.5 -66.5t-26.5 -66.5t-64.5 -22.5q-37 0 -64 22.5t-27 66.5zM206 785q0 -24 14 -36.5t34 -12.5q21 0 34.5 12.5
t13.5 36.5t-13.5 36.5t-34.5 12.5q-20 0 -34 -12.5t-14 -36.5zM360 1034q15 7 22 -8l13 -26q8 -14 -13 -21l-166 -75q-11 -5 -15 -4t-7 7l-7 16q-4 11 4 16z" />
    <glyph glyph-name="Aogonek" unicode="&#x104;" horiz-adv-x="513" 
d="M367 265q-11 37 -23 79.5t-25.5 86.5t-27.5 89t-28 87h-14q-14 -42 -28 -87t-27.5 -89t-25.5 -86.5t-23 -79.5h222zM435 8q-13 53 -28 109t-29 106h-244q-14 -50 -29 -106t-28 -109q-1 -8 -10 -8h-33q-8 0 -6 11q20 79 42.5 163t46.5 165t48 155t46 134q5 13 10.5 16
t16.5 3h35q11 0 17 -3t11 -16q22 -60 45.5 -133t47.5 -153t46.5 -163.5t42.5 -163.5q3 -11 -5 -15q-47 -23 -67 -51.5t-20 -56.5q0 -45 51 -45q32 0 54 10q7 4 10 -4l6 -22q2 -5 0.5 -6.5t-6.5 -3.5q-30 -15 -74 -15q-42 0 -64.5 20t-22.5 57t24 71t66 54z" />
    <glyph glyph-name="AE" unicode="&#xc6;" horiz-adv-x="771" 
d="M429 605v-249h255q11 0 11 -11v-20q0 -11 -11 -11h-255v-212q0 -34 12 -47t49 -13h229q11 0 11 -11v-20q0 -11 -11 -11h-234q-54 0 -78.5 22.5t-24.5 73.5v127h-204l-98 -211q-5 -12 -13 -12h-32q-13 0 -6 13q48 101 88.5 184t76.5 154.5t69 135.5t68 128q9 17 18.5 24.5
t31.5 7.5h343q11 0 11 -11v-20q0 -11 -11 -11h-295zM374 605q-30 -57 -52 -99t-41.5 -79.5t-38.5 -75t-42 -86.5h182v340h-8z" />
    <glyph glyph-name="AEacute" unicode="&#x1fc;" horiz-adv-x="771" 
d="M429 605v-249h255q11 0 11 -11v-20q0 -11 -11 -11h-255v-212q0 -34 12 -47t49 -13h229q11 0 11 -11v-20q0 -11 -11 -11h-234q-54 0 -78.5 22.5t-24.5 73.5v127h-204l-98 -211q-5 -12 -13 -12h-32q-13 0 -6 13q48 101 88.5 184t76.5 154.5t69 135.5t68 128q9 17 18.5 24.5
t31.5 7.5h343q11 0 11 -11v-20q0 -11 -11 -11h-295zM374 605q-30 -57 -52 -99t-41.5 -79.5t-38.5 -75t-42 -86.5h182v340h-8zM638 813q15 6 21 -10l10 -27q6 -14 -15 -20l-174 -55q-11 -4 -15 -2.5t-6 8.5l-6 17q-3 11 6 15z" />
    <glyph glyph-name="Cacute" unicode="&#x106;" horiz-adv-x="492" 
d="M280 656q96 0 166 -41q8 -5 4 -15l-8 -18q-5 -9 -15 -3q-34 17 -68.5 26t-77.5 9q-39 0 -70 -8t-54 -31q-32 -32 -42.5 -88t-10.5 -147v-32q0 -52 2 -88t7 -61.5t14 -44.5t23 -36q20 -24 51.5 -34.5t87.5 -10.5q37 0 75 8t69 19q11 4 14 -7l5 -21q2 -6 0 -8t-6 -4
q-32 -13 -74.5 -21t-87.5 -8q-70 0 -112 16t-68 49q-14 17 -23 37t-14.5 47t-8 64.5t-2.5 90.5v58q0 53 3.5 93.5t11.5 71.5t22.5 54t35.5 41q27 23 65 33t86 10zM383 813q15 6 21 -10l10 -27q6 -14 -15 -20l-174 -55q-11 -4 -15 -2.5t-6 8.5l-6 17q-3 11 6 15z" />
    <glyph glyph-name="Ccedilla" unicode="&#xc7;" horiz-adv-x="492" 
d="M281 614q-39 0 -70 -8t-54 -31q-32 -32 -42.5 -88t-10.5 -147v-32q0 -52 2 -88t7 -61.5t14 -44.5t23 -36q20 -24 51.5 -34.5t87.5 -10.5q37 0 75.5 7.5t69.5 20.5q10 4 13 -5l5 -24q3 -8 -6 -12q-67 -28 -155 -29l-8 -61q7 2 15.5 3t18.5 1q29 0 47.5 -17t18.5 -55
q0 -90 -105 -90q-18 0 -38 3t-31 7q-8 2 -6 10l4 22q2 8 10 5q14 -4 31.5 -6t31.5 -2q29 0 43.5 10.5t14.5 37.5q0 37 -39 37q-11 0 -21.5 -1.5t-17.5 -3.5q-7 -1 -11 1l-7 4q-3 2 -4 3.5t0 6.5l12 86q-54 4 -88.5 19.5t-57.5 44.5q-14 17 -23 37t-14.5 47t-8 64.5
t-2.5 90.5v58q0 53 3.5 93.5t11.5 71.5t22.5 54t35.5 41q27 23 65 33t86 10q96 0 166 -41q8 -5 4 -15l-8 -18q-5 -9 -15 -3q-34 17 -68.5 26t-77.5 9z" />
    <glyph glyph-name="Ccircumflex" unicode="&#x108;" horiz-adv-x="492" 
d="M280 656q96 0 166 -41q8 -5 4 -15l-8 -18q-5 -9 -15 -3q-34 17 -68.5 26t-77.5 9q-39 0 -70 -8t-54 -31q-32 -32 -42.5 -88t-10.5 -147v-32q0 -52 2 -88t7 -61.5t14 -44.5t23 -36q20 -24 51.5 -34.5t87.5 -10.5q37 0 75 8t69 19q11 4 14 -7l5 -21q2 -6 0 -8t-6 -4
q-32 -13 -74.5 -21t-87.5 -8q-70 0 -112 16t-68 49q-14 17 -23 37t-14.5 47t-8 64.5t-2.5 90.5v58q0 53 3.5 93.5t11.5 71.5t22.5 54t35.5 41q27 23 65 33t86 10zM246 853q6 7 15 7h24q9 0 15 -7l111 -122q8 -8 1 -15l-19 -16q-8 -6 -17 3l-100 103h-6l-100 -103
q-10 -10 -17 -3l-19 16q-8 6 1 15z" />
    <glyph glyph-name="Ccaron" unicode="&#x10c;" horiz-adv-x="492" 
d="M280 656q96 0 166 -41q8 -5 4 -15l-8 -18q-5 -9 -15 -3q-34 17 -68.5 26t-77.5 9q-39 0 -70 -8t-54 -31q-32 -32 -42.5 -88t-10.5 -147v-32q0 -52 2 -88t7 -61.5t14 -44.5t23 -36q20 -24 51.5 -34.5t87.5 -10.5q37 0 75 8t69 19q11 4 14 -7l5 -21q2 -6 0 -8t-6 -4
q-32 -13 -74.5 -21t-87.5 -8q-70 0 -112 16t-68 49q-14 17 -23 37t-14.5 47t-8 64.5t-2.5 90.5v58q0 53 3.5 93.5t11.5 71.5t22.5 54t35.5 41q27 23 65 33t86 10zM136 831q-9 9 -1 15l19 16q7 7 17 -3l100 -103h6l100 103q9 9 17 3l19 -16q7 -7 -1 -15l-111 -122
q-6 -7 -15 -7h-24q-9 0 -15 7z" />
    <glyph glyph-name="Cdotaccent" unicode="&#x10a;" horiz-adv-x="492" 
d="M280 656q96 0 166 -41q8 -5 4 -15l-8 -18q-5 -9 -15 -3q-34 17 -68.5 26t-77.5 9q-39 0 -70 -8t-54 -31q-32 -32 -42.5 -88t-10.5 -147v-32q0 -52 2 -88t7 -61.5t14 -44.5t23 -36q20 -24 51.5 -34.5t87.5 -10.5q37 0 75 8t69 19q11 4 14 -7l5 -21q2 -6 0 -8t-6 -4
q-32 -13 -74.5 -21t-87.5 -8q-70 0 -112 16t-68 49q-14 17 -23 37t-14.5 47t-8 64.5t-2.5 90.5v58q0 53 3.5 93.5t11.5 71.5t22.5 54t35.5 41q27 23 65 33t86 10zM214 771q0 24 17 40.5t40 16.5t40 -16.5t17 -40.5t-17 -40.5t-40 -16.5t-40 16.5t-17 40.5z" />
    <glyph glyph-name="Dcaron" unicode="&#x10e;" horiz-adv-x="568" 
d="M219 616h-43t-46 -2q-12 -1 -12 -14v-549q0 -9 8 -9h92q66 0 108.5 9t71.5 35q33 29 49.5 81.5t16.5 146.5v27q0 46 -4 80t-11.5 59.5t-19 44.5t-25.5 35q-31 34 -78 45t-107 11zM92 0q-20 0 -20 18v615q0 8 3.5 13t14.5 7q15 1 28 2t27.5 2t31.5 1h38q73 0 128.5 -12.5
t93 -46.5t56.5 -93t19 -153v-47q0 -79 -14 -137t-45.5 -95.5t-83 -55.5t-126.5 -18h-151zM143 831q-9 9 -1 15l19 16q7 7 17 -3l100 -103h6l100 103q9 9 17 3l19 -16q7 -7 -1 -15l-111 -122q-6 -7 -15 -7h-24q-9 0 -15 7z" />
    <glyph glyph-name="Dcroat" unicode="&#x110;" horiz-adv-x="587" 
d="M111 0q-20 -2 -20 18v297h-71q-10 0 -10 8v22q0 8 10 8h71v280q0 8 3.5 13t14.5 7q15 1 28 2t27.5 2t31.5 1h38q73 0 128.5 -12.5t93 -46.5t56.5 -93t19 -153v-47q0 -79 -14 -137t-45.5 -95.5t-83 -55.5t-126.5 -18h-151zM238 616h-43t-46 -2q-12 -1 -12 -14v-247h153
q10 0 10 -8v-22q0 -8 -10 -8h-153v-264q0 -9 8 -9h92q66 0 108.5 9t71.5 35q33 29 48.5 81.5t15.5 146.5v27q0 46 -3.5 80t-11 59.5t-18.5 44.5t-25 35q-31 34 -78 45t-107 11z" />
    <glyph glyph-name="Eth" unicode="&#xd0;" horiz-adv-x="587" 
d="M111 0q-20 -2 -20 18v297h-71q-10 0 -10 8v22q0 8 10 8h71v280q0 8 3.5 13t14.5 7q15 1 28 2t27.5 2t31.5 1h38q73 0 128.5 -12.5t93 -46.5t56.5 -93t19 -153v-47q0 -79 -14 -137t-45.5 -95.5t-83 -55.5t-126.5 -18h-151zM238 616h-43t-46 -2q-12 -1 -12 -14v-247h153
q10 0 10 -8v-22q0 -8 -10 -8h-153v-264q0 -9 8 -9h92q66 0 108.5 9t71.5 35q33 29 48.5 81.5t15.5 146.5v27q0 46 -3.5 80t-11 59.5t-18.5 44.5t-25 35q-31 34 -78 45t-107 11z" />
    <glyph glyph-name="Egrave" unicode="&#xc8;" horiz-adv-x="455" 
d="M69 96q-5 47 -5.5 101.5t-0.5 97.5v57q0 48 1.5 101t4.5 98q2 24 7 41t16 29q25 26 84 26h232q11 0 11 -11v-20q0 -11 -11 -11h-229q-20 0 -30.5 -3t-16.5 -9q-7 -7 -10 -18t-5 -31q-3 -42 -4.5 -85t-1.5 -103h244q11 0 11 -11v-20q0 -11 -11 -11h-244q0 -40 0.5 -70
t1.5 -55t2 -45.5t2 -40.5q2 -20 5 -31t10 -18q6 -6 16.5 -9t30.5 -3h229q11 0 11 -11v-20q0 -11 -11 -11h-232q-30 0 -50 5t-33 19q-12 13 -17 30.5t-7 41.5zM351 739q9 -4 6 -15l-6 -17q-2 -7 -6 -8.5t-15 2.5l-174 55q-21 6 -15 20l10 27q6 16 21 10z" />
    <glyph glyph-name="Eacute" unicode="&#xc9;" horiz-adv-x="455" 
d="M69 96q-5 47 -5.5 101.5t-0.5 97.5v57q0 48 1.5 101t4.5 98q2 24 7 41t16 29q25 26 84 26h232q11 0 11 -11v-20q0 -11 -11 -11h-229q-20 0 -30.5 -3t-16.5 -9q-7 -7 -10 -18t-5 -31q-3 -42 -4.5 -85t-1.5 -103h244q11 0 11 -11v-20q0 -11 -11 -11h-244q0 -40 0.5 -70
t1.5 -55t2 -45.5t2 -40.5q2 -20 5 -31t10 -18q6 -6 16.5 -9t30.5 -3h229q11 0 11 -11v-20q0 -11 -11 -11h-232q-30 0 -50 5t-33 19q-12 13 -17 30.5t-7 41.5zM357 813q15 6 21 -10l10 -27q6 -14 -15 -20l-174 -55q-11 -4 -15 -2.5t-6 8.5l-6 17q-3 11 6 15z" />
    <glyph glyph-name="Ecircumflex" unicode="&#xca;" horiz-adv-x="455" 
d="M69 96q-5 47 -5.5 101.5t-0.5 97.5v57q0 48 1.5 101t4.5 98q2 24 7 41t16 29q25 26 84 26h232q11 0 11 -11v-20q0 -11 -11 -11h-229q-20 0 -30.5 -3t-16.5 -9q-7 -7 -10 -18t-5 -31q-3 -42 -4.5 -85t-1.5 -103h244q11 0 11 -11v-20q0 -11 -11 -11h-244q0 -40 0.5 -70
t1.5 -55t2 -45.5t2 -40.5q2 -20 5 -31t10 -18q6 -6 16.5 -9t30.5 -3h229q11 0 11 -11v-20q0 -11 -11 -11h-232q-30 0 -50 5t-33 19q-12 13 -17 30.5t-7 41.5zM228 853q6 7 15 7h24q9 0 15 -7l111 -122q8 -8 1 -15l-19 -16q-8 -6 -17 3l-100 103h-6l-100 -103q-10 -10 -17 -3
l-19 16q-8 6 1 15z" />
    <glyph glyph-name="Ecaron" unicode="&#x11a;" horiz-adv-x="455" 
d="M69 96q-5 47 -5.5 101.5t-0.5 97.5v57q0 48 1.5 101t4.5 98q2 24 7 41t16 29q25 26 84 26h232q11 0 11 -11v-20q0 -11 -11 -11h-229q-20 0 -30.5 -3t-16.5 -9q-7 -7 -10 -18t-5 -31q-3 -42 -4.5 -85t-1.5 -103h244q11 0 11 -11v-20q0 -11 -11 -11h-244q0 -40 0.5 -70
t1.5 -55t2 -45.5t2 -40.5q2 -20 5 -31t10 -18q6 -6 16.5 -9t30.5 -3h229q11 0 11 -11v-20q0 -11 -11 -11h-232q-30 0 -50 5t-33 19q-12 13 -17 30.5t-7 41.5zM118 831q-9 9 -1 15l19 16q7 7 17 -3l100 -103h6l100 103q9 9 17 3l19 -16q7 -7 -1 -15l-111 -122q-6 -7 -15 -7
h-24q-9 0 -15 7z" />
    <glyph glyph-name="Edieresis" unicode="&#xcb;" horiz-adv-x="455" 
d="M69 96q-5 47 -5.5 101.5t-0.5 97.5v57q0 48 1.5 101t4.5 98q2 24 7 41t16 29q25 26 84 26h232q11 0 11 -11v-20q0 -11 -11 -11h-229q-20 0 -30.5 -3t-16.5 -9q-7 -7 -10 -18t-5 -31q-3 -42 -4.5 -85t-1.5 -103h244q11 0 11 -11v-20q0 -11 -11 -11h-244q0 -40 0.5 -70
t1.5 -55t2 -45.5t2 -40.5q2 -20 5 -31t10 -18q6 -6 16.5 -9t30.5 -3h229q11 0 11 -11v-20q0 -11 -11 -11h-232q-30 0 -50 5t-33 19q-12 13 -17 30.5t-7 41.5zM179 809q20 0 27.5 -6.5t7.5 -25.5v-21q0 -18 -7.5 -24.5t-27.5 -6.5h-10q-20 0 -27 6.5t-7 24.5v21
q0 19 7.5 25.5t26.5 6.5h10zM340 809q20 0 27.5 -6.5t7.5 -25.5v-21q0 -18 -7.5 -24.5t-27.5 -6.5h-10q-20 0 -27 6.5t-7 24.5v21q0 19 7.5 25.5t26.5 6.5h10z" />
    <glyph glyph-name="Emacron" unicode="&#x112;" horiz-adv-x="455" 
d="M69 96q-5 47 -5.5 101.5t-0.5 97.5v57q0 48 1.5 101t4.5 98q2 24 7 41t16 29q25 26 84 26h232q11 0 11 -11v-20q0 -11 -11 -11h-229q-20 0 -30.5 -3t-16.5 -9q-7 -7 -10 -18t-5 -31q-3 -42 -4.5 -85t-1.5 -103h244q11 0 11 -11v-20q0 -11 -11 -11h-244q0 -40 0.5 -70
t1.5 -55t2 -45.5t2 -40.5q2 -20 5 -31t10 -18q6 -6 16.5 -9t30.5 -3h229q11 0 11 -11v-20q0 -11 -11 -11h-232q-30 0 -50 5t-33 19q-12 13 -17 30.5t-7 41.5zM139 733q-11 0 -11 11v21q0 12 11 12h229q11 0 11 -12v-21q0 -11 -11 -11h-229z" />
    <glyph glyph-name="Ebreve" unicode="&#x114;" horiz-adv-x="455" 
d="M69 96q-5 47 -5.5 101.5t-0.5 97.5v57q0 48 1.5 101t4.5 98q2 24 7 41t16 29q25 26 84 26h232q11 0 11 -11v-20q0 -11 -11 -11h-229q-20 0 -30.5 -3t-16.5 -9q-7 -7 -10 -18t-5 -31q-3 -42 -4.5 -85t-1.5 -103h244q11 0 11 -11v-20q0 -11 -11 -11h-244q0 -40 0.5 -70
t1.5 -55t2 -45.5t2 -40.5q2 -20 5 -31t10 -18q6 -6 16.5 -9t30.5 -3h229q11 0 11 -11v-20q0 -11 -11 -11h-232q-30 0 -50 5t-33 19q-12 13 -17 30.5t-7 41.5zM257 703q-23 0 -45.5 6.5t-41 20t-33 33.5t-21.5 48q-4 12 7 15l21 6q12 4 15 -6q12 -42 37.5 -61.5t60.5 -19.5
t61.5 19.5t37.5 61.5q3 10 15 6l21 -6q7 -2 8 -5.5t-1 -9.5q-7 -28 -21.5 -48t-33.5 -33.5t-41.5 -20t-45.5 -6.5z" />
    <glyph glyph-name="Edotaccent" unicode="&#x116;" horiz-adv-x="455" 
d="M69 96q-5 47 -5.5 101.5t-0.5 97.5v57q0 48 1.5 101t4.5 98q2 24 7 41t16 29q25 26 84 26h232q11 0 11 -11v-20q0 -11 -11 -11h-229q-20 0 -30.5 -3t-16.5 -9q-7 -7 -10 -18t-5 -31q-3 -42 -4.5 -85t-1.5 -103h244q11 0 11 -11v-20q0 -11 -11 -11h-244q0 -40 0.5 -70
t1.5 -55t2 -45.5t2 -40.5q2 -20 5 -31t10 -18q6 -6 16.5 -9t30.5 -3h229q11 0 11 -11v-20q0 -11 -11 -11h-232q-30 0 -50 5t-33 19q-12 13 -17 30.5t-7 41.5zM205 771q0 24 17 40.5t40 16.5t40 -16.5t17 -40.5t-17 -40.5t-40 -16.5t-40 16.5t-17 40.5z" />
    <glyph glyph-name="Eogonek" unicode="&#x118;" horiz-adv-x="484" 
d="M280 -117q0 33 22 65t57 52h-183q-30 0 -50 5t-33 19q-12 13 -17 30.5t-7 41.5q-5 47 -5.5 101.5t-0.5 97.5v57q0 48 1.5 101t4.5 98q2 24 7 41t16 29q25 26 84 26h232q11 0 11 -11v-20q0 -11 -11 -11h-229q-20 0 -30.5 -3t-16.5 -9q-7 -7 -10 -18t-5 -31
q-3 -42 -3.5 -85t-0.5 -103h242q11 0 11 -11v-20q0 -11 -11 -11h-242v-70t0.5 -55t1.5 -45.5t2 -40.5q2 -20 5 -31t10 -18q6 -6 16.5 -9t30.5 -3h229q11 0 11 -11v-18q0 -9 -8 -13q-41 -20 -63 -50t-22 -58q0 -45 51 -45q32 0 54 10q7 4 10 -4l6 -22q2 -5 0.5 -6.5
t-6.5 -3.5q-30 -15 -74 -15q-42 0 -64.5 20t-22.5 57z" />
    <glyph glyph-name="Gcircumflex" unicode="&#x11c;" horiz-adv-x="549" 
d="M330 294q-11 0 -11 11v20q0 11 11 11h148q10 0 10 -10v-294q0 -19 -19 -23q-30 -8 -74.5 -13t-86.5 -5q-72 0 -120 18.5t-77.5 56t-42 94.5t-12.5 134v58q0 155 57.5 229.5t191.5 74.5q42 0 84.5 -6.5t76.5 -17.5q7 -2 9.5 -4.5t0.5 -9.5l-4 -19q-3 -11 -16 -7
q-29 8 -68 15t-79 7q-53 0 -91.5 -12.5t-64 -44t-37.5 -84.5t-12 -134v-30q0 -75 10.5 -127.5t34.5 -85.5t63.5 -48t97.5 -15q30 0 61.5 2.5t55.5 7.5q15 3 15 18v233h-112zM275 853q6 7 15 7h24q9 0 15 -7l111 -122q8 -8 1 -15l-19 -16q-8 -6 -17 3l-100 103h-6l-100 -103
q-10 -10 -17 -3l-19 16q-8 6 1 15z" />
    <glyph glyph-name="Gbreve" unicode="&#x11e;" horiz-adv-x="549" 
d="M330 294q-11 0 -11 11v20q0 11 11 11h148q10 0 10 -10v-294q0 -19 -19 -23q-30 -8 -74.5 -13t-86.5 -5q-72 0 -120 18.5t-77.5 56t-42 94.5t-12.5 134v58q0 155 57.5 229.5t191.5 74.5q42 0 84.5 -6.5t76.5 -17.5q7 -2 9.5 -4.5t0.5 -9.5l-4 -19q-3 -11 -16 -7
q-29 8 -68 15t-79 7q-53 0 -91.5 -12.5t-64 -44t-37.5 -84.5t-12 -134v-30q0 -75 10.5 -127.5t34.5 -85.5t63.5 -48t97.5 -15q30 0 61.5 2.5t55.5 7.5q15 3 15 18v233h-112zM293 703q-23 0 -45.5 6.5t-41 20t-33 33.5t-21.5 48q-4 12 7 15l21 6q12 4 15 -6
q12 -42 37.5 -61.5t60.5 -19.5t61.5 19.5t37.5 61.5q3 10 15 6l21 -6q7 -2 8 -5.5t-1 -9.5q-7 -28 -21.5 -48t-33.5 -33.5t-41.5 -20t-45.5 -6.5z" />
    <glyph glyph-name="Gdotaccent" unicode="&#x120;" horiz-adv-x="549" 
d="M330 294q-11 0 -11 11v20q0 11 11 11h148q10 0 10 -10v-294q0 -19 -19 -23q-30 -8 -74.5 -13t-86.5 -5q-72 0 -120 18.5t-77.5 56t-42 94.5t-12.5 134v58q0 155 57.5 229.5t191.5 74.5q42 0 84.5 -6.5t76.5 -17.5q7 -2 9.5 -4.5t0.5 -9.5l-4 -19q-3 -11 -16 -7
q-29 8 -68 15t-79 7q-53 0 -91.5 -12.5t-64 -44t-37.5 -84.5t-12 -134v-30q0 -75 10.5 -127.5t34.5 -85.5t63.5 -48t97.5 -15q30 0 61.5 2.5t55.5 7.5q15 3 15 18v233h-112zM242 771q0 24 17 40.5t40 16.5t40 -16.5t17 -40.5t-17 -40.5t-40 -16.5t-40 16.5t-17 40.5z" />
    <glyph glyph-name="Gcommaaccent" unicode="&#x122;" horiz-adv-x="549" 
d="M330 294q-11 0 -11 11v20q0 11 11 11h148q10 0 10 -10v-294q0 -19 -19 -23q-30 -8 -74.5 -13t-86.5 -5q-72 0 -120 18.5t-77.5 56t-42 94.5t-12.5 134v58q0 155 57.5 229.5t191.5 74.5q42 0 84.5 -6.5t76.5 -17.5q7 -2 9.5 -4.5t0.5 -9.5l-4 -19q-3 -11 -16 -7
q-29 8 -68 15t-79 7q-53 0 -91.5 -12.5t-64 -44t-37.5 -84.5t-12 -134v-30q0 -75 10.5 -127.5t34.5 -85.5t63.5 -48t97.5 -15q30 0 61.5 2.5t55.5 7.5q15 3 15 18v233h-112zM310 -71q36 0 36 -37v-17q0 -66 -58 -121q-4 -4 -6.5 -5.5t-7.5 2.5l-11 9q-7 5 -2 10q10 10 19 22
t15 25q2 4 3 7t1 7q0 9 -13 16q-11 5 -15.5 12t-4.5 22v18q0 16 8.5 23t22.5 7h13z" />
    <glyph glyph-name="Hcircumflex" unicode="&#x124;" horiz-adv-x="577" 
d="M505 11q0 -11 -9 -11h-28q-9 0 -9 11v304h-341v-304q0 -11 -9 -11h-28q-9 0 -9 11v625q0 11 9 11h28q9 0 9 -11v-279h341v279q0 11 9 11h28q9 0 9 -11v-625zM259 853q6 7 15 7h24q9 0 15 -7l111 -122q8 -8 1 -15l-19 -16q-8 -6 -17 3l-100 103h-6l-100 -103
q-10 -10 -17 -3l-19 16q-8 6 1 15z" />
    <glyph glyph-name="Hbar" unicode="&#x126;" horiz-adv-x="589" 
d="M511 477v-466q0 -11 -9 -11h-28q-9 0 -9 11v304h-341v-304q0 -11 -9 -11h-28q-9 0 -9 11v466h-50q-10 0 -10 8v22q0 8 10 8h50v121q0 11 9 11h28q9 0 9 -11v-121h341v121q0 11 9 11h28q9 0 9 -11v-121h50q10 0 10 -8v-22q0 -8 -10 -8h-50zM465 357v120h-341v-120h341z
" />
    <glyph glyph-name="Igrave" unicode="&#xcc;" horiz-adv-x="202" 
d="M124 11q0 -11 -9 -11h-28q-9 0 -9 11v625q0 11 9 11h28q9 0 9 -11v-625zM169 739q9 -4 6 -15l-6 -17q-2 -7 -6 -8.5t-15 2.5l-174 55q-21 6 -15 20l10 27q6 16 21 10z" />
    <glyph glyph-name="Iacute" unicode="&#xcd;" horiz-adv-x="202" 
d="M124 11q0 -11 -9 -11h-28q-9 0 -9 11v625q0 11 9 11h28q9 0 9 -11v-625zM212 813q15 6 21 -10l10 -27q6 -14 -15 -20l-174 -55q-11 -4 -15 -2.5t-6 8.5l-6 17q-3 11 6 15z" />
    <glyph glyph-name="Icircumflex" unicode="&#xce;" horiz-adv-x="202" 
d="M124 11q0 -11 -9 -11h-28q-9 0 -9 11v625q0 11 9 11h28q9 0 9 -11v-625zM74 853q6 7 15 7h24q9 0 15 -7l111 -122q8 -8 1 -15l-19 -16q-8 -6 -17 3l-100 103h-6l-100 -103q-10 -10 -17 -3l-19 16q-8 6 1 15z" />
    <glyph glyph-name="Itilde" unicode="&#x128;" horiz-adv-x="202" 
d="M124 11q0 -11 -9 -11h-28q-9 0 -9 11v625q0 11 9 11h28q9 0 9 -11v-625zM-54 734q-8 5 -2 14q17 36 42.5 54.5t54.5 18.5q16 0 30 -6t29 -17l27 -21q11 -8 18.5 -11.5t18.5 -3.5q15 0 31 15.5t28 35.5q4 5 9 3l21 -14q8 -5 3 -13q-17 -32 -43 -53.5t-55 -21.5
q-16 0 -29.5 5t-28.5 17l-26 20q-11 8 -19.5 12.5t-19.5 4.5q-29 0 -57 -50q-4 -7 -12 -2z" />
    <glyph glyph-name="Idieresis" unicode="&#xcf;" horiz-adv-x="202" 
d="M124 11q0 -11 -9 -11h-28q-9 0 -9 11v625q0 11 9 11h28q9 0 9 -11v-625zM27 809q20 0 27.5 -6.5t7.5 -25.5v-21q0 -18 -7.5 -24.5t-27.5 -6.5h-10q-20 0 -27 6.5t-7 24.5v21q0 19 7.5 25.5t26.5 6.5h10zM188 809q20 0 27.5 -6.5t7.5 -25.5v-21q0 -18 -7.5 -24.5
t-27.5 -6.5h-10q-20 0 -27 6.5t-7 24.5v21q0 19 7.5 25.5t26.5 6.5h10z" />
    <glyph glyph-name="Imacron" unicode="&#x12a;" horiz-adv-x="202" 
d="M124 11q0 -11 -9 -11h-28q-9 0 -9 11v625q0 11 9 11h28q9 0 9 -11v-625zM-12 733q-11 0 -11 11v21q0 12 11 12h229q11 0 11 -12v-21q0 -11 -11 -11h-229z" />
    <glyph glyph-name="Ibreve" unicode="&#x12c;" horiz-adv-x="202" 
d="M124 11q0 -11 -9 -11h-28q-9 0 -9 11v625q0 11 9 11h28q9 0 9 -11v-625zM102 703q-23 0 -45.5 6.5t-41 20t-33 33.5t-21.5 48q-4 12 7 15l21 6q12 4 15 -6q12 -42 37.5 -61.5t60.5 -19.5t61.5 19.5t37.5 61.5q3 10 15 6l21 -6q7 -2 8 -5.5t-1 -9.5q-7 -28 -21.5 -48
t-33.5 -33.5t-41.5 -20t-45.5 -6.5z" />
    <glyph glyph-name="Idotaccent" unicode="&#x130;" horiz-adv-x="202" 
d="M124 11q0 -11 -9 -11h-28q-9 0 -9 11v625q0 11 9 11h28q9 0 9 -11v-625zM45 771q0 24 17 40.5t40 16.5t40 -16.5t17 -40.5t-17 -40.5t-40 -16.5t-40 16.5t-17 40.5z" />
    <glyph glyph-name="Iogonek" unicode="&#x12e;" horiz-adv-x="202" 
d="M6 -117q0 37 20 68.5t52 50.5v634q0 11 9 11h28q9 0 9 -11v-625q0 -5 -2 -7.5t-9 -7.5q-35 -23 -48 -50.5t-13 -53.5q0 -45 51 -45q32 0 54 10q7 4 10 -4l6 -22q2 -5 0.5 -6.5t-6.5 -3.5q-30 -15 -74 -15q-42 0 -64.5 20t-22.5 57z" />
    <glyph glyph-name="IJ" unicode="&#x132;" horiz-adv-x="483" 
d="M124 11q0 -11 -9 -11h-28q-9 0 -9 11v625q0 11 9 11h28q9 0 9 -11v-625zM270 42q68 0 87 38q10 20 10 47.5v62.5v446q0 11 9 11h28q9 0 9 -11v-444v-65t-12 -63q-13 -32 -43.5 -48t-87.5 -16h-37q-11 0 -11 11v20q0 11 11 11h37z" />
    <glyph glyph-name="Jcircumflex" unicode="&#x134;" horiz-adv-x="281" 
d="M68 42q68 0 87 38q10 20 10 47.5v62.5v446q0 11 9 11h28q9 0 9 -11v-444v-65t-12 -63q-13 -32 -43.5 -48t-87.5 -16h-37q-11 0 -11 11v20q0 11 11 11h37zM160 853q6 7 15 7h24q9 0 15 -7l111 -122q8 -8 1 -15l-19 -16q-8 -6 -17 3l-100 103h-6l-100 -103q-10 -10 -17 -3
l-19 16q-8 6 1 15z" />
    <glyph glyph-name="Kcommaaccent" unicode="&#x136;" horiz-adv-x="476" 
d="M118 354h80q13 0 19 3t12 12l185 272q4 6 14 6h31q11 0 5 -9l-189 -280q-8 -12 -8 -18q0 -5 8 -19l185 -308q7 -13 -7 -13h-30q-10 0 -15 8l-174 292q-5 9 -11.5 10.5t-20.5 1.5h-84v-301q0 -11 -9 -11h-28q-9 0 -9 11v625q0 11 9 11h28q9 0 9 -11v-282zM249 -71
q36 0 36 -37v-17q0 -66 -58 -121q-4 -4 -6.5 -5.5t-7.5 2.5l-11 9q-7 5 -2 10q10 10 19 22t15 25q2 4 3 7t1 7q0 9 -13 16q-11 5 -15.5 12t-4.5 22v18q0 16 8.5 23t22.5 7h13z" />
    <glyph glyph-name="Lacute" unicode="&#x139;" horiz-adv-x="355" 
d="M326 42q11 0 11 -11v-20q0 -11 -11 -11h-167q-47 0 -66 16q-21 18 -21 62v558q0 11 9 11h28q9 0 9 -11v-549q0 -28 9 -36.5t35 -8.5h164zM238 813q15 6 21 -10l10 -27q6 -14 -15 -20l-174 -55q-11 -4 -15 -2.5t-6 8.5l-6 17q-3 11 6 15z" />
    <glyph glyph-name="Lcaron" unicode="&#x13d;" horiz-adv-x="355" 
d="M326 42q11 0 11 -11v-20q0 -11 -11 -11h-167q-47 0 -66 16q-21 18 -21 62v558q0 11 9 11h28q9 0 9 -11v-549q0 -28 9 -36.5t35 -8.5h164zM284 648q36 0 36 -37v-17q0 -66 -58 -121q-4 -4 -6.5 -5.5t-7.5 2.5l-11 9q-7 5 -2 10q10 10 19 22t15 25q2 4 3 7t1 7q0 9 -13 16
q-11 5 -15.5 12t-4.5 22v18q0 16 8.5 23t22.5 7h13z" />
    <glyph glyph-name="Lcommaaccent" unicode="&#x13b;" horiz-adv-x="355" 
d="M326 42q11 0 11 -11v-20q0 -11 -11 -11h-167q-47 0 -66 16q-21 18 -21 62v558q0 11 9 11h28q9 0 9 -11v-549q0 -28 9 -36.5t35 -8.5h164zM214 -71q36 0 36 -37v-17q0 -66 -58 -121q-4 -4 -6.5 -5.5t-7.5 2.5l-11 9q-7 5 -2 10q10 10 19 22t15 25q2 4 3 7t1 7q0 9 -13 16
q-11 5 -15.5 12t-4.5 22v18q0 16 8.5 23t22.5 7h13z" />
    <glyph glyph-name="Lslash" unicode="&#x141;" horiz-adv-x="375" 
d="M346 42q11 0 11 -11v-20q0 -11 -11 -11h-167q-47 0 -66 16q-21 18 -21 62v211l-80 -52q-12 -8 -12 10v19q0 9 2 13.5t10 9.5l80 52v295q0 11 9 11h28q9 0 9 -11v-264l100 66q12 7 12 -10v-19q0 -9 -2 -13.5t-10 -9.5l-100 -66v-233q0 -28 9 -36.5t35 -8.5h164z" />
    <glyph glyph-name="Ldot" unicode="&#x13f;" horiz-adv-x="355" 
d="M326 42q11 0 11 -11v-20q0 -11 -11 -11h-167q-47 0 -66 16q-21 18 -21 62v558q0 11 9 11h28q9 0 9 -11v-549q0 -28 9 -36.5t35 -8.5h164zM212 350q0 24 17 40.5t40 16.5t40 -16.5t17 -40.5t-17 -40.5t-40 -16.5t-40 16.5t-17 40.5z" />
    <glyph glyph-name="Nacute" unicode="&#x143;" horiz-adv-x="596" 
d="M123 607h-6v-596q0 -11 -9 -11h-26q-10 0 -10 11v604q0 19 7 25.5t24 6.5h20q20 0 28.5 -6t17.5 -24l304 -577h6v596q0 11 9 11h26q10 0 10 -11v-606q0 -16 -6 -23t-21 -7h-27q-24 0 -35 21zM409 813q15 6 21 -10l10 -27q6 -14 -15 -20l-174 -55q-11 -4 -15 -2.5t-6 8.5
l-6 17q-3 11 6 15z" />
    <glyph glyph-name="Ncaron" unicode="&#x147;" horiz-adv-x="596" 
d="M123 607h-6v-596q0 -11 -9 -11h-26q-10 0 -10 11v604q0 19 7 25.5t24 6.5h20q20 0 28.5 -6t17.5 -24l304 -577h6v596q0 11 9 11h26q10 0 10 -11v-606q0 -16 -6 -23t-21 -7h-27q-24 0 -35 21zM165 831q-9 9 -1 15l19 16q7 7 17 -3l100 -103h6l100 103q9 9 17 3l19 -16
q7 -7 -1 -15l-111 -122q-6 -7 -15 -7h-24q-9 0 -15 7z" />
    <glyph glyph-name="Ntilde" unicode="&#xd1;" horiz-adv-x="596" 
d="M123 607h-6v-596q0 -11 -9 -11h-26q-10 0 -10 11v604q0 19 7 25.5t24 6.5h20q20 0 28.5 -6t17.5 -24l304 -577h6v596q0 11 9 11h26q10 0 10 -11v-606q0 -16 -6 -23t-21 -7h-27q-24 0 -35 21zM142 734q-8 5 -2 14q17 36 42.5 54.5t54.5 18.5q16 0 30 -6t29 -17l27 -21
q11 -8 18.5 -11.5t18.5 -3.5q15 0 31 15.5t28 35.5q4 5 9 3l21 -14q8 -5 3 -13q-17 -32 -43 -53.5t-55 -21.5q-16 0 -29.5 5t-28.5 17l-26 20q-11 8 -19.5 12.5t-19.5 4.5q-29 0 -57 -50q-4 -7 -12 -2z" />
    <glyph glyph-name="Ncommaaccent" unicode="&#x145;" horiz-adv-x="596" 
d="M123 607h-6v-596q0 -11 -9 -11h-26q-10 0 -10 11v604q0 19 7 25.5t24 6.5h20q20 0 28.5 -6t17.5 -24l304 -577h6v596q0 11 9 11h26q10 0 10 -11v-606q0 -16 -6 -23t-21 -7h-27q-24 0 -35 21zM314 -71q36 0 36 -37v-17q0 -66 -58 -121q-4 -4 -6.5 -5.5t-7.5 2.5l-11 9
q-7 5 -2 10q10 10 19 22t15 25q2 4 3 7t1 7q0 9 -13 16q-11 5 -15.5 12t-4.5 22v18q0 16 8.5 23t22.5 7h13z" />
    <glyph glyph-name="Eng" unicode="&#x14a;" horiz-adv-x="596" 
d="M524 19q0 -71 -5 -113t-23 -64q-14 -17 -37 -23t-56 -6h-25q-10 0 -10 8v21q0 8 9 8h29q20 0 35.5 4t23.5 15q10 13 13 37.5t3 62.5v31h-11q-24 0 -35 21l-312 586h-6v-596q0 -11 -9 -11h-26q-10 0 -10 11v604q0 19 7 25.5t24 6.5h20q20 0 28.5 -6t17.5 -24l304 -577h6
v596q0 11 9 11h26q10 0 10 -11v-617z" />
    <glyph glyph-name="Ograve" unicode="&#xd2;" horiz-adv-x="568" 
d="M284 33q42 0 78 12.5t56 38.5q27 35 36.5 87t9.5 138v29q0 46 -2 80.5t-7.5 61t-14.5 47t-22 37.5q-20 26 -56 38t-78 12t-78 -12t-56 -38q-14 -17 -22.5 -37.5t-14 -47t-7.5 -61t-2 -80.5v-29q0 -86 9.5 -138t36.5 -87q20 -26 56 -38.5t78 -12.5zM284 -9
q-57 0 -100 14.5t-69 44.5q-17 18 -28 40.5t-18 52t-10 67t-3 85.5v56q0 49 3 86.5t10 67t18 52t28 40.5q26 30 69 44.5t100 14.5t100 -14.5t69 -44.5q16 -18 27.5 -40.5t18.5 -52t10 -67t3 -86.5v-56q0 -48 -3 -85.5t-10 -67t-18.5 -52t-27.5 -40.5q-26 -30 -69 -44.5
t-100 -14.5zM381 739q9 -4 6 -15l-6 -17q-2 -7 -6 -8.5t-15 2.5l-174 55q-21 6 -15 20l10 27q6 16 21 10z" />
    <glyph glyph-name="Oacute" unicode="&#xd3;" horiz-adv-x="568" 
d="M284 33q42 0 78 12.5t56 38.5q27 35 36.5 87t9.5 138v29q0 46 -2 80.5t-7.5 61t-14.5 47t-22 37.5q-20 26 -56 38t-78 12t-78 -12t-56 -38q-14 -17 -22.5 -37.5t-14 -47t-7.5 -61t-2 -80.5v-29q0 -86 9.5 -138t36.5 -87q20 -26 56 -38.5t78 -12.5zM284 -9
q-57 0 -100 14.5t-69 44.5q-17 18 -28 40.5t-18 52t-10 67t-3 85.5v56q0 49 3 86.5t10 67t18 52t28 40.5q26 30 69 44.5t100 14.5t100 -14.5t69 -44.5q16 -18 27.5 -40.5t18.5 -52t10 -67t3 -86.5v-56q0 -48 -3 -85.5t-10 -67t-18.5 -52t-27.5 -40.5q-26 -30 -69 -44.5
t-100 -14.5zM392 813q15 6 21 -10l10 -27q6 -14 -15 -20l-174 -55q-11 -4 -15 -2.5t-6 8.5l-6 17q-3 11 6 15z" />
    <glyph glyph-name="Ocircumflex" unicode="&#xd4;" horiz-adv-x="568" 
d="M284 33q42 0 78 12.5t56 38.5q27 35 36.5 87t9.5 138v29q0 46 -2 80.5t-7.5 61t-14.5 47t-22 37.5q-20 26 -56 38t-78 12t-78 -12t-56 -38q-14 -17 -22.5 -37.5t-14 -47t-7.5 -61t-2 -80.5v-29q0 -86 9.5 -138t36.5 -87q20 -26 56 -38.5t78 -12.5zM284 -9
q-57 0 -100 14.5t-69 44.5q-17 18 -28 40.5t-18 52t-10 67t-3 85.5v56q0 49 3 86.5t10 67t18 52t28 40.5q26 30 69 44.5t100 14.5t100 -14.5t69 -44.5q16 -18 27.5 -40.5t18.5 -52t10 -67t3 -86.5v-56q0 -48 -3 -85.5t-10 -67t-18.5 -52t-27.5 -40.5q-26 -30 -69 -44.5
t-100 -14.5zM259 853q6 7 15 7h24q9 0 15 -7l111 -122q8 -8 1 -15l-19 -16q-8 -6 -17 3l-100 103h-6l-100 -103q-10 -10 -17 -3l-19 16q-8 6 1 15z" />
    <glyph glyph-name="Otilde" unicode="&#xd5;" horiz-adv-x="568" 
d="M284 33q42 0 78 12.5t56 38.5q27 35 36.5 87t9.5 138v29q0 46 -2 80.5t-7.5 61t-14.5 47t-22 37.5q-20 26 -56 38t-78 12t-78 -12t-56 -38q-14 -17 -22.5 -37.5t-14 -47t-7.5 -61t-2 -80.5v-29q0 -86 9.5 -138t36.5 -87q20 -26 56 -38.5t78 -12.5zM284 -9
q-57 0 -100 14.5t-69 44.5q-17 18 -28 40.5t-18 52t-10 67t-3 85.5v56q0 49 3 86.5t10 67t18 52t28 40.5q26 30 69 44.5t100 14.5t100 -14.5t69 -44.5q16 -18 27.5 -40.5t18.5 -52t10 -67t3 -86.5v-56q0 -48 -3 -85.5t-10 -67t-18.5 -52t-27.5 -40.5q-26 -30 -69 -44.5
t-100 -14.5zM136 734q-8 5 -2 14q17 36 42.5 54.5t54.5 18.5q16 0 30 -6t29 -17l27 -21q11 -8 18.5 -11.5t18.5 -3.5q15 0 31 15.5t28 35.5q4 5 9 3l21 -14q8 -5 3 -13q-17 -32 -43 -53.5t-55 -21.5q-16 0 -29.5 5t-28.5 17l-26 20q-11 8 -19.5 12.5t-19.5 4.5
q-29 0 -57 -50q-4 -7 -12 -2z" />
    <glyph glyph-name="Odieresis" unicode="&#xd6;" horiz-adv-x="568" 
d="M284 33q42 0 78 12.5t56 38.5q27 35 36.5 87t9.5 138v29q0 46 -2 80.5t-7.5 61t-14.5 47t-22 37.5q-20 26 -56 38t-78 12t-78 -12t-56 -38q-14 -17 -22.5 -37.5t-14 -47t-7.5 -61t-2 -80.5v-29q0 -86 9.5 -138t36.5 -87q20 -26 56 -38.5t78 -12.5zM284 -9
q-57 0 -100 14.5t-69 44.5q-17 18 -28 40.5t-18 52t-10 67t-3 85.5v56q0 49 3 86.5t10 67t18 52t28 40.5q26 30 69 44.5t100 14.5t100 -14.5t69 -44.5q16 -18 27.5 -40.5t18.5 -52t10 -67t3 -86.5v-56q0 -48 -3 -85.5t-10 -67t-18.5 -52t-27.5 -40.5q-26 -30 -69 -44.5
t-100 -14.5zM211 809q20 0 27.5 -6.5t7.5 -25.5v-21q0 -18 -7.5 -24.5t-27.5 -6.5h-10q-20 0 -27 6.5t-7 24.5v21q0 19 7.5 25.5t26.5 6.5h10zM372 809q20 0 27.5 -6.5t7.5 -25.5v-21q0 -18 -7.5 -24.5t-27.5 -6.5h-10q-20 0 -27 6.5t-7 24.5v21q0 19 7.5 25.5t26.5 6.5h10z
" />
    <glyph glyph-name="Omacron" unicode="&#x14c;" horiz-adv-x="568" 
d="M284 33q42 0 78 12.5t56 38.5q27 35 36.5 87t9.5 138v29q0 46 -2 80.5t-7.5 61t-14.5 47t-22 37.5q-20 26 -56 38t-78 12t-78 -12t-56 -38q-14 -17 -22.5 -37.5t-14 -47t-7.5 -61t-2 -80.5v-29q0 -86 9.5 -138t36.5 -87q20 -26 56 -38.5t78 -12.5zM284 -9
q-57 0 -100 14.5t-69 44.5q-17 18 -28 40.5t-18 52t-10 67t-3 85.5v56q0 49 3 86.5t10 67t18 52t28 40.5q26 30 69 44.5t100 14.5t100 -14.5t69 -44.5q16 -18 27.5 -40.5t18.5 -52t10 -67t3 -86.5v-56q0 -48 -3 -85.5t-10 -67t-18.5 -52t-27.5 -40.5q-26 -30 -69 -44.5
t-100 -14.5zM173 733q-11 0 -11 11v21q0 12 11 12h229q11 0 11 -12v-21q0 -11 -11 -11h-229z" />
    <glyph glyph-name="Obreve" unicode="&#x14e;" horiz-adv-x="568" 
d="M284 33q42 0 78 12.5t56 38.5q27 35 36.5 87t9.5 138v29q0 46 -2 80.5t-7.5 61t-14.5 47t-22 37.5q-20 26 -56 38t-78 12t-78 -12t-56 -38q-14 -17 -22.5 -37.5t-14 -47t-7.5 -61t-2 -80.5v-29q0 -86 9.5 -138t36.5 -87q20 -26 56 -38.5t78 -12.5zM284 -9
q-57 0 -100 14.5t-69 44.5q-17 18 -28 40.5t-18 52t-10 67t-3 85.5v56q0 49 3 86.5t10 67t18 52t28 40.5q26 30 69 44.5t100 14.5t100 -14.5t69 -44.5q16 -18 27.5 -40.5t18.5 -52t10 -67t3 -86.5v-56q0 -48 -3 -85.5t-10 -67t-18.5 -52t-27.5 -40.5q-26 -30 -69 -44.5
t-100 -14.5zM286 703q-23 0 -45.5 6.5t-41 20t-33 33.5t-21.5 48q-4 12 7 15l21 6q12 4 15 -6q12 -42 37.5 -61.5t60.5 -19.5t61.5 19.5t37.5 61.5q3 10 15 6l21 -6q7 -2 8 -5.5t-1 -9.5q-7 -28 -21.5 -48t-33.5 -33.5t-41.5 -20t-45.5 -6.5z" />
    <glyph glyph-name="Ohungarumlaut" unicode="&#x150;" horiz-adv-x="568" 
d="M284 33q42 0 78 12.5t56 38.5q27 35 36.5 87t9.5 138v29q0 46 -2 80.5t-7.5 61t-14.5 47t-22 37.5q-20 26 -56 38t-78 12t-78 -12t-56 -38q-14 -17 -22.5 -37.5t-14 -47t-7.5 -61t-2 -80.5v-29q0 -86 9.5 -138t36.5 -87q20 -26 56 -38.5t78 -12.5zM284 -9
q-57 0 -100 14.5t-69 44.5q-17 18 -28 40.5t-18 52t-10 67t-3 85.5v56q0 49 3 86.5t10 67t18 52t28 40.5q26 30 69 44.5t100 14.5t100 -14.5t69 -44.5q16 -18 27.5 -40.5t18.5 -52t10 -67t3 -86.5v-56q0 -48 -3 -85.5t-10 -67t-18.5 -52t-27.5 -40.5q-26 -30 -69 -44.5
t-100 -14.5zM293 835q14 12 24 -2l14 -20q10 -14 -6 -25l-150 -97q-9 -6 -15 3l-14 18q-6 8 1 13zM492 835q14 12 24 -2l14 -20q10 -14 -6 -25l-150 -97q-9 -6 -15 3l-14 18q-6 8 1 13z" />
    <glyph glyph-name="Oslash" unicode="&#xd8;" horiz-adv-x="568" 
d="M284 -9q-77 0 -126 25l-31 -60q-4 -6 -12 -2l-19 10q-7 4 -3 11l32 64q-4 3 -10 11q-17 18 -28 40.5t-18 52t-10 67t-3 85.5v56q0 49 3 86.5t10 67t18 52t28 40.5q26 30 69 44.5t100 14.5q42 0 76.5 -7.5t60.5 -24.5l32 62q4 6 12 2l19 -10q7 -4 3 -11l-35 -69
q17 -18 28.5 -40.5t18.5 -52t10 -67.5t3 -87v-56q0 -48 -3 -85.5t-10 -67t-18.5 -52t-27.5 -40.5q-26 -30 -69 -44.5t-100 -14.5zM104 309q0 -85 9.5 -137t35.5 -86l251 495q-21 17 -51.5 25t-64.5 8q-42 0 -78 -12t-56 -38q-14 -17 -22.5 -37.5t-14 -47t-7.5 -61t-2 -80.5
v-29zM284 33q42 0 78 12.5t56 38.5q27 35 36.5 87t9.5 138v29q0 82 -8 130t-29 81l-248 -491q20 -13 47.5 -19t57.5 -6z" />
    <glyph glyph-name="Oslashacute" unicode="&#x1fe;" horiz-adv-x="568" 
d="M284 -9q-77 0 -126 25l-31 -60q-4 -6 -12 -2l-19 10q-7 4 -3 11l32 64q-4 3 -10 11q-17 18 -28 40.5t-18 52t-10 67t-3 85.5v56q0 49 3 86.5t10 67t18 52t28 40.5q26 30 69 44.5t100 14.5q42 0 76.5 -7.5t60.5 -24.5l32 62q4 6 12 2l19 -10q7 -4 3 -11l-35 -69
q17 -18 28.5 -40.5t18.5 -52t10 -67.5t3 -87v-56q0 -48 -3 -85.5t-10 -67t-18.5 -52t-27.5 -40.5q-26 -30 -69 -44.5t-100 -14.5zM104 309q0 -85 9.5 -137t35.5 -86l251 495q-21 17 -51.5 25t-64.5 8q-42 0 -78 -12t-56 -38q-14 -17 -22.5 -37.5t-14 -47t-7.5 -61t-2 -80.5
v-29zM284 33q42 0 78 12.5t56 38.5q27 35 36.5 87t9.5 138v29q0 82 -8 130t-29 81l-248 -491q20 -13 47.5 -19t57.5 -6zM392 813q15 6 21 -10l10 -27q6 -14 -15 -20l-174 -55q-11 -4 -15 -2.5t-6 8.5l-6 17q-3 11 6 15z" />
    <glyph glyph-name="OE" unicode="&#x152;" horiz-adv-x="829" 
d="M467 24q-6 6 -10 12t-6 15q-32 -32 -71.5 -46t-95.5 -14q-57 0 -100 14.5t-69 44.5q-17 18 -28 40.5t-18 52t-10 67t-3 85.5v56q0 49 3 86.5t10 67t18 52t28 40.5q26 30 69 44.5t100 14.5q55 0 96 -13.5t74 -39.5q3 6 5 9.5t7 8.5q25 26 84 26h232q11 0 11 -11v-20
q0 -11 -11 -11h-229q-20 0 -30.5 -3t-16.5 -9q-7 -7 -10 -18t-5 -31q-3 -42 -3.5 -85t-0.5 -103h242q11 0 11 -11v-20q0 -11 -11 -11h-242v-70t0.5 -55t1.5 -45.5t2 -40.5q2 -20 5 -31t10 -18q6 -6 16.5 -9t30.5 -3h229q11 0 11 -11v-20q0 -11 -11 -11h-232q-30 0 -50 5
t-33 19zM443 562q-32 27 -70 40t-89 13q-42 0 -77.5 -12.5t-55.5 -38.5q-14 -17 -23 -37.5t-14 -47t-7.5 -61t-2.5 -80.5v-29q0 -86 10 -138t37 -87q20 -26 55.5 -39t77.5 -13q56 0 96 17.5t63 46.5q-5 47 -5.5 101.5t-0.5 97.5v57q0 48 1.5 102.5t4.5 107.5z" />
    <glyph glyph-name="Thorn" unicode="&#xde;" horiz-adv-x="484" 
d="M118 549q23 4 48 6t51 2q62 0 106 -11t72 -34t41 -60t13 -88v-11q0 -102 -56.5 -149.5t-167.5 -47.5h-49.5t-57.5 2v-147q0 -11 -9 -11h-28q-9 0 -9 11v638q0 11 9 11h28q9 0 9 -11v-100zM221 515q-23 0 -52 -2.5t-51 -6.5v-305q48 -3 102 -3q46 0 79.5 7.5t55.5 25.5
t33 48t11 75v13q0 78 -40.5 113t-137.5 35z" />
    <glyph glyph-name="Racute" unicode="&#x154;" horiz-adv-x="503" 
d="M118 11q0 -11 -9 -11h-28q-9 0 -9 11v612q0 18 15 21q28 5 63.5 8.5t66.5 3.5q62 0 106 -9.5t72 -30.5t41 -55.5t13 -84.5v-11q0 -80 -34.5 -124.5t-101.5 -57.5l158 -271q7 -12 -7 -12h-32q-12 0 -17 9l-151 267q-10 -1 -20 -1h-21h-51.5t-53.5 2v-266zM221 614
q-26 0 -48.5 -2t-40.5 -5q-14 -3 -14 -18v-269q48 -3 99 -3q46 0 80.5 6.5t57.5 24t34.5 46.5t11.5 74v9q0 75 -41.5 106t-138.5 31zM353 813q15 6 21 -10l10 -27q6 -14 -15 -20l-174 -55q-11 -4 -15 -2.5t-6 8.5l-6 17q-3 11 6 15z" />
    <glyph glyph-name="Rcaron" unicode="&#x158;" horiz-adv-x="503" 
d="M118 11q0 -11 -9 -11h-28q-9 0 -9 11v612q0 18 15 21q28 5 63.5 8.5t66.5 3.5q62 0 106 -9.5t72 -30.5t41 -55.5t13 -84.5v-11q0 -80 -34.5 -124.5t-101.5 -57.5l158 -271q7 -12 -7 -12h-32q-12 0 -17 9l-151 267q-10 -1 -20 -1h-21h-51.5t-53.5 2v-266zM221 614
q-26 0 -48.5 -2t-40.5 -5q-14 -3 -14 -18v-269q48 -3 99 -3q46 0 80.5 6.5t57.5 24t34.5 46.5t11.5 74v9q0 75 -41.5 106t-138.5 31zM108 831q-9 9 -1 15l19 16q7 7 17 -3l100 -103h6l100 103q9 9 17 3l19 -16q7 -7 -1 -15l-111 -122q-6 -7 -15 -7h-24q-9 0 -15 7z" />
    <glyph glyph-name="Rcommaaccent" unicode="&#x156;" horiz-adv-x="503" 
d="M118 11q0 -11 -9 -11h-28q-9 0 -9 11v612q0 18 15 21q28 5 63.5 8.5t66.5 3.5q62 0 106 -9.5t72 -30.5t41 -55.5t13 -84.5v-11q0 -80 -34.5 -124.5t-101.5 -57.5l158 -271q7 -12 -7 -12h-32q-12 0 -17 9l-151 267q-10 -1 -20 -1h-21h-51.5t-53.5 2v-266zM221 614
q-26 0 -48.5 -2t-40.5 -5q-14 -3 -14 -18v-269q48 -3 99 -3q46 0 80.5 6.5t57.5 24t34.5 46.5t11.5 74v9q0 75 -41.5 106t-138.5 31zM262 -71q36 0 36 -37v-17q0 -66 -58 -121q-4 -4 -6.5 -5.5t-7.5 2.5l-11 9q-7 5 -2 10q10 10 19 22t15 25q2 4 3 7t1 7q0 9 -13 16
q-11 5 -15.5 12t-4.5 22v18q0 16 8.5 23t22.5 7h13z" />
    <glyph glyph-name="Sacute" unicode="&#x15a;" horiz-adv-x="447" 
d="M210 -9q-51 0 -90.5 9.5t-70.5 22.5q-10 4 -6 13l7 23q3 10 13 5q29 -14 66.5 -22.5t79.5 -8.5q79 0 115 35.5t36 96.5v12q0 31 -5.5 52.5t-19 36.5t-36 25t-56.5 18l-57 14q-69 17 -105.5 53.5t-36.5 100.5v18q0 78 49 119.5t140 41.5q40 0 71.5 -5t57.5 -13
q11 -3 8 -15l-4 -20q-3 -10 -15 -6q-27 8 -58.5 12.5t-62.5 4.5q-68 0 -103 -30t-35 -89v-11q0 -30 9 -50t25 -33.5t37 -21.5t45 -14l56 -14q42 -11 69.5 -24t44 -32t23.5 -45t7 -61v-19q0 -47 -14.5 -81t-40.5 -55.5t-62.5 -32t-80.5 -10.5zM335 813q15 6 21 -10l10 -27
q6 -14 -15 -20l-174 -55q-11 -4 -15 -2.5t-6 8.5l-6 17q-3 11 6 15z" />
    <glyph glyph-name="Scircumflex" unicode="&#x15c;" horiz-adv-x="447" 
d="M210 -9q-51 0 -90.5 9.5t-70.5 22.5q-10 4 -6 13l7 23q3 10 13 5q29 -14 66.5 -22.5t79.5 -8.5q79 0 115 35.5t36 96.5v12q0 31 -5.5 52.5t-19 36.5t-36 25t-56.5 18l-57 14q-69 17 -105.5 53.5t-36.5 100.5v18q0 78 49 119.5t140 41.5q40 0 71.5 -5t57.5 -13
q11 -3 8 -15l-4 -20q-3 -10 -15 -6q-27 8 -58.5 12.5t-62.5 4.5q-68 0 -103 -30t-35 -89v-11q0 -30 9 -50t25 -33.5t37 -21.5t45 -14l56 -14q42 -11 69.5 -24t44 -32t23.5 -45t7 -61v-19q0 -47 -14.5 -81t-40.5 -55.5t-62.5 -32t-80.5 -10.5zM202 853q6 7 15 7h24q9 0 15 -7
l111 -122q8 -8 1 -15l-19 -16q-8 -6 -17 3l-100 103h-6l-100 -103q-10 -10 -17 -3l-19 16q-8 6 1 15z" />
    <glyph glyph-name="Scaron" unicode="&#x160;" horiz-adv-x="447" 
d="M210 -9q-51 0 -90.5 9.5t-70.5 22.5q-10 4 -6 13l7 23q3 10 13 5q29 -14 66.5 -22.5t79.5 -8.5q79 0 115 35.5t36 96.5v12q0 31 -5.5 52.5t-19 36.5t-36 25t-56.5 18l-57 14q-69 17 -105.5 53.5t-36.5 100.5v18q0 78 49 119.5t140 41.5q40 0 71.5 -5t57.5 -13
q11 -3 8 -15l-4 -20q-3 -10 -15 -6q-27 8 -58.5 12.5t-62.5 4.5q-68 0 -103 -30t-35 -89v-11q0 -30 9 -50t25 -33.5t37 -21.5t45 -14l56 -14q42 -11 69.5 -24t44 -32t23.5 -45t7 -61v-19q0 -47 -14.5 -81t-40.5 -55.5t-62.5 -32t-80.5 -10.5zM85 831q-9 9 -1 15l19 16
q7 7 17 -3l100 -103h6l100 103q9 9 17 3l19 -16q7 -7 -1 -15l-111 -122q-6 -7 -15 -7h-24q-9 0 -15 7z" />
    <glyph glyph-name="Scedilla" unicode="&#x15e;" horiz-adv-x="447" 
d="M408 170q0 -44 -13 -77t-36.5 -54.5t-56.5 -33t-73 -13.5l-8 -62q7 2 15.5 3t18.5 1q29 0 47.5 -17t18.5 -55q0 -90 -105 -90q-18 0 -38 3t-31 7q-8 2 -6 10l4 22q2 8 10 5q14 -4 31.5 -6t31.5 -2q29 0 43.5 10.5t14.5 37.5q0 37 -39 37q-11 0 -21.5 -1.5t-17.5 -3.5
q-7 -1 -11 1l-7 4q-3 2 -4 3.5t0 6.5l12 86q-44 2 -78.5 11t-60.5 20q-10 4 -6 13l7 24q3 10 13 5q28 -14 66 -23t80 -9q79 0 115 35.5t36 96.5v12q0 31 -5.5 52.5t-19 36.5t-36 25t-56.5 18l-57 14q-69 17 -105.5 53.5t-36.5 100.5v18q0 78 49 119.5t140 41.5q40 0 71.5 -5
t57.5 -13q11 -3 8 -15l-4 -21q-3 -10 -15 -6q-27 8 -58.5 13t-62.5 5q-68 0 -103 -30t-35 -89v-11q0 -30 9 -50t25 -33.5t37 -21.5t45 -14l56 -14q42 -11 69.5 -24t44 -32t23.5 -45t7 -61v-19v0z" />
    <glyph glyph-name="Scommaaccent" unicode="&#x218;" horiz-adv-x="447" 
d="M210 -9q-51 0 -90.5 9.5t-70.5 22.5q-10 4 -6 13l7 23q3 10 13 5q29 -14 66.5 -22.5t79.5 -8.5q79 0 115 35.5t36 96.5v12q0 31 -5.5 52.5t-19 36.5t-36 25t-56.5 18l-57 14q-69 17 -105.5 53.5t-36.5 100.5v18q0 78 49 119.5t140 41.5q40 0 71.5 -5t57.5 -13
q11 -3 8 -15l-4 -20q-3 -10 -15 -6q-27 8 -58.5 12.5t-62.5 4.5q-68 0 -103 -30t-35 -89v-11q0 -30 9 -50t25 -33.5t37 -21.5t45 -14l56 -14q42 -11 69.5 -24t44 -32t23.5 -45t7 -61v-19q0 -47 -14.5 -81t-40.5 -55.5t-62.5 -32t-80.5 -10.5zM227 -71q36 0 36 -37v-17
q0 -66 -58 -121q-4 -4 -6.5 -5.5t-7.5 2.5l-11 9q-7 5 -2 10q10 10 19 22t15 25q2 4 3 7t1 7q0 9 -13 16q-11 5 -15.5 12t-4.5 22v18q0 16 8.5 23t22.5 7h13z" />
    <glyph glyph-name="Tcaron" unicode="&#x164;" horiz-adv-x="478" 
d="M262 605v-594q0 -11 -9 -11h-28q-9 0 -9 11v594h-181q-12 0 -12 10v22q0 10 12 10h408q12 0 12 -10v-22q0 -10 -12 -10h-181zM101 831q-9 9 -1 15l19 16q7 7 17 -3l100 -103h6l100 103q9 9 17 3l19 -16q7 -7 -1 -15l-111 -122q-6 -7 -15 -7h-24q-9 0 -15 7z" />
    <glyph glyph-name="Tcommaaccent" unicode="&#x162;" horiz-adv-x="478" 
d="M262 605v-594q0 -11 -9 -11h-28q-9 0 -9 11v594h-181q-12 0 -12 10v22q0 10 12 10h408q12 0 12 -10v-22q0 -10 -12 -10h-181zM245 -71q36 0 36 -37v-17q0 -66 -58 -121q-4 -4 -6.5 -5.5t-7.5 2.5l-11 9q-7 5 -2 10q10 10 19 22t15 25q2 4 3 7t1 7q0 9 -13 16
q-11 5 -15.5 12t-4.5 22v18q0 16 8.5 23t22.5 7h13z" />
    <glyph glyph-name="uni021A" unicode="&#x21a;" horiz-adv-x="478" 
d="M262 605v-594q0 -11 -9 -11h-28q-9 0 -9 11v594h-181q-12 0 -12 10v22q0 10 12 10h408q12 0 12 -10v-22q0 -10 -12 -10h-181zM245 -71q36 0 36 -37v-17q0 -66 -58 -121q-4 -4 -6.5 -5.5t-7.5 2.5l-11 9q-7 5 -2 10q10 10 19 22t15 25q2 4 3 7t1 7q0 9 -13 16
q-11 5 -15.5 12t-4.5 22v18q0 16 8.5 23t22.5 7h13z" />
    <glyph glyph-name="Tbar" unicode="&#x166;" horiz-adv-x="478" 
d="M262 609v-260h151q10 0 10 -8v-22q0 -8 -10 -8h-151v-300q0 -11 -9 -11h-28q-9 0 -9 11v300h-151q-10 0 -10 8v22q0 8 10 8h151v260h-181q-12 0 -12 10v18q0 10 12 10h408q12 0 12 -10v-18q0 -10 -12 -10h-181z" />
    <glyph glyph-name="Ugrave" unicode="&#xd9;" horiz-adv-x="570" 
d="M285 -9q-58 0 -98 13t-66 39q-27 26 -39 67.5t-12 95.5v430q0 11 9 11h28q9 0 9 -11v-425q0 -49 8 -81.5t29 -55.5q20 -23 52 -34t80 -11t80 11t52 34q21 23 29 55.5t8 81.5v425q0 11 9 11h28q9 0 9 -11v-430q0 -54 -12 -95.5t-39 -67.5q-26 -26 -66 -39t-98 -13z
M379 739q9 -4 6 -15l-6 -17q-2 -7 -6 -8.5t-15 2.5l-174 55q-21 6 -15 20l10 27q6 16 21 10z" />
    <glyph glyph-name="Uacute" unicode="&#xda;" horiz-adv-x="570" 
d="M285 -9q-58 0 -98 13t-66 39q-27 26 -39 67.5t-12 95.5v430q0 11 9 11h28q9 0 9 -11v-425q0 -49 8 -81.5t29 -55.5q20 -23 52 -34t80 -11t80 11t52 34q21 23 29 55.5t8 81.5v425q0 11 9 11h28q9 0 9 -11v-430q0 -54 -12 -95.5t-39 -67.5q-26 -26 -66 -39t-98 -13z
M366 813q15 6 21 -10l10 -27q6 -14 -15 -20l-174 -55q-11 -4 -15 -2.5t-6 8.5l-6 17q-3 11 6 15z" />
    <glyph glyph-name="Ucircumflex" unicode="&#xdb;" horiz-adv-x="570" 
d="M285 -9q-58 0 -98 13t-66 39q-27 26 -39 67.5t-12 95.5v430q0 11 9 11h28q9 0 9 -11v-425q0 -49 8 -81.5t29 -55.5q20 -23 52 -34t80 -11t80 11t52 34q21 23 29 55.5t8 81.5v425q0 11 9 11h28q9 0 9 -11v-430q0 -54 -12 -95.5t-39 -67.5q-26 -26 -66 -39t-98 -13z
M260 853q6 7 15 7h24q9 0 15 -7l111 -122q8 -8 1 -15l-19 -16q-8 -6 -17 3l-100 103h-6l-100 -103q-10 -10 -17 -3l-19 16q-8 6 1 15z" />
    <glyph glyph-name="Utilde" unicode="&#x168;" horiz-adv-x="570" 
d="M285 -9q-58 0 -98 13t-66 39q-27 26 -39 67.5t-12 95.5v430q0 11 9 11h28q9 0 9 -11v-425q0 -49 8 -81.5t29 -55.5q20 -23 52 -34t80 -11t80 11t52 34q21 23 29 55.5t8 81.5v425q0 11 9 11h28q9 0 9 -11v-430q0 -54 -12 -95.5t-39 -67.5q-26 -26 -66 -39t-98 -13z
M128 734q-8 5 -2 14q17 36 42.5 54.5t54.5 18.5q16 0 30 -6t29 -17l27 -21q11 -8 18.5 -11.5t18.5 -3.5q15 0 31 15.5t28 35.5q4 5 9 3l21 -14q8 -5 3 -13q-17 -32 -43 -53.5t-55 -21.5q-16 0 -29.5 5t-28.5 17l-26 20q-11 8 -19.5 12.5t-19.5 4.5q-29 0 -57 -50
q-4 -7 -12 -2z" />
    <glyph glyph-name="Udieresis" unicode="&#xdc;" horiz-adv-x="570" 
d="M285 -9q-58 0 -98 13t-66 39q-27 26 -39 67.5t-12 95.5v430q0 11 9 11h28q9 0 9 -11v-425q0 -49 8 -81.5t29 -55.5q20 -23 52 -34t80 -11t80 11t52 34q21 23 29 55.5t8 81.5v425q0 11 9 11h28q9 0 9 -11v-430q0 -54 -12 -95.5t-39 -67.5q-26 -26 -66 -39t-98 -13z
M208 809q20 0 27.5 -6.5t7.5 -25.5v-21q0 -18 -7.5 -24.5t-27.5 -6.5h-10q-20 0 -27 6.5t-7 24.5v21q0 19 7.5 25.5t26.5 6.5h10zM369 809q20 0 27.5 -6.5t7.5 -25.5v-21q0 -18 -7.5 -24.5t-27.5 -6.5h-10q-20 0 -27 6.5t-7 24.5v21q0 19 7.5 25.5t26.5 6.5h10z" />
    <glyph glyph-name="Umacron" unicode="&#x16a;" horiz-adv-x="570" 
d="M285 -9q-58 0 -98 13t-66 39q-27 26 -39 67.5t-12 95.5v430q0 11 9 11h28q9 0 9 -11v-425q0 -49 8 -81.5t29 -55.5q20 -23 52 -34t80 -11t80 11t52 34q21 23 29 55.5t8 81.5v425q0 11 9 11h28q9 0 9 -11v-430q0 -54 -12 -95.5t-39 -67.5q-26 -26 -66 -39t-98 -13z
M170 733q-11 0 -11 11v21q0 12 11 12h229q11 0 11 -12v-21q0 -11 -11 -11h-229z" />
    <glyph glyph-name="Ubreve" unicode="&#x16c;" horiz-adv-x="570" 
d="M285 -9q-58 0 -98 13t-66 39q-27 26 -39 67.5t-12 95.5v430q0 11 9 11h28q9 0 9 -11v-425q0 -49 8 -81.5t29 -55.5q20 -23 52 -34t80 -11t80 11t52 34q21 23 29 55.5t8 81.5v425q0 11 9 11h28q9 0 9 -11v-430q0 -54 -12 -95.5t-39 -67.5q-26 -26 -66 -39t-98 -13z
M285 703q-23 0 -45.5 6.5t-41 20t-33 33.5t-21.5 48q-4 12 7 15l21 6q12 4 15 -6q12 -42 37.5 -61.5t60.5 -19.5t61.5 19.5t37.5 61.5q3 10 15 6l21 -6q7 -2 8 -5.5t-1 -9.5q-7 -28 -21.5 -48t-33.5 -33.5t-41.5 -20t-45.5 -6.5z" />
    <glyph glyph-name="Uring" unicode="&#x16e;" horiz-adv-x="570" 
d="M285 -9q-58 0 -98 13t-66 39q-27 26 -39 67.5t-12 95.5v430q0 11 9 11h28q9 0 9 -11v-425q0 -49 8 -81.5t29 -55.5q20 -23 52 -34t80 -11t80 11t52 34q21 23 29 55.5t8 81.5v425q0 11 9 11h28q9 0 9 -11v-430q0 -54 -12 -95.5t-39 -67.5q-26 -26 -66 -39t-98 -13z
M196 796q0 44 27 66.5t64 22.5q38 0 64.5 -22.5t26.5 -66.5t-26.5 -66.5t-64.5 -22.5q-37 0 -64 22.5t-27 66.5zM239 796q0 -24 14 -36.5t34 -12.5q21 0 34.5 12.5t13.5 36.5t-13.5 36.5t-34.5 12.5q-20 0 -34 -12.5t-14 -36.5z" />
    <glyph glyph-name="Uhungarumlaut" unicode="&#x170;" horiz-adv-x="570" 
d="M285 -9q-58 0 -98 13t-66 39q-27 26 -39 67.5t-12 95.5v430q0 11 9 11h28q9 0 9 -11v-425q0 -49 8 -81.5t29 -55.5q20 -23 52 -34t80 -11t80 11t52 34q21 23 29 55.5t8 81.5v425q0 11 9 11h28q9 0 9 -11v-430q0 -54 -12 -95.5t-39 -67.5q-26 -26 -66 -39t-98 -13z
M290 835q14 12 24 -2l14 -20q10 -14 -6 -25l-150 -97q-9 -6 -15 3l-14 18q-6 8 1 13zM489 835q14 12 24 -2l14 -20q10 -14 -6 -25l-150 -97q-9 -6 -15 3l-14 18q-6 8 1 13z" />
    <glyph glyph-name="Uogonek" unicode="&#x172;" horiz-adv-x="570" 
d="M285 -9q-58 0 -98 13t-66 39q-27 26 -39 67.5t-12 95.5v430q0 11 9 11h28q9 0 9 -11v-425q0 -49 8 -81.5t29 -55.5q20 -23 52 -34t80 -11q94 0 134 44q21 23 28 56t7 82v425q0 11 9 11h28q9 0 9 -11v-430q0 -54 -12 -95t-39 -68q-15 -15 -30 -23t-33 -15
q-51 -20 -72.5 -53t-21.5 -60q0 -45 51 -45q32 0 54 10q7 4 10 -4l6 -22q2 -5 0.5 -6.5t-6.5 -3.5q-30 -15 -74 -15q-42 0 -64.5 20t-22.5 57q0 32 17.5 61.5t49.5 48.5q-5 -1 -14 -1.5t-14 -0.5z" />
    <glyph glyph-name="Wgrave" unicode="&#x1e80;" horiz-adv-x="786" 
d="M388 578q-15 -65 -29.5 -130.5t-30.5 -133t-34 -139t-38 -147.5q-5 -17 -12.5 -22.5t-22.5 -5.5h-25q-14 0 -21.5 4.5t-12.5 21.5q-20 70 -38.5 146t-36 154t-33 156.5t-28.5 153.5q-2 11 6 11h32q9 0 10 -10q11 -68 26 -144t31.5 -154t35 -154.5t37.5 -144.5h11
q36 139 68.5 274.5t63.5 277.5q3 15 10 20t23 5h26q15 0 22.5 -5t10.5 -20q31 -142 64 -277.5t68 -274.5h11q19 68 37.5 144.5t35 154.5t31.5 154t26 144q1 10 10 10h32q8 0 6 -11q-13 -75 -28.5 -153.5t-33 -156.5t-36.5 -154t-38 -146q-5 -17 -12.5 -21.5t-21.5 -4.5h-25
q-15 0 -22.5 5.5t-12.5 22.5q-20 76 -38 147.5t-34 139t-30.5 133t-29.5 130.5h-10zM463 739q9 -4 6 -15l-6 -17q-2 -7 -6 -8.5t-15 2.5l-174 55q-21 6 -15 20l10 27q6 16 21 10z" />
    <glyph glyph-name="Wacute" unicode="&#x1e82;" horiz-adv-x="786" 
d="M388 578q-15 -65 -29.5 -130.5t-30.5 -133t-34 -139t-38 -147.5q-5 -17 -12.5 -22.5t-22.5 -5.5h-25q-14 0 -21.5 4.5t-12.5 21.5q-20 70 -38.5 146t-36 154t-33 156.5t-28.5 153.5q-2 11 6 11h32q9 0 10 -10q11 -68 26 -144t31.5 -154t35 -154.5t37.5 -144.5h11
q36 139 68.5 274.5t63.5 277.5q3 15 10 20t23 5h26q15 0 22.5 -5t10.5 -20q31 -142 64 -277.5t68 -274.5h11q19 68 37.5 144.5t35 154.5t31.5 154t26 144q1 10 10 10h32q8 0 6 -11q-13 -75 -28.5 -153.5t-33 -156.5t-36.5 -154t-38 -146q-5 -17 -12.5 -21.5t-21.5 -4.5h-25
q-15 0 -22.5 5.5t-12.5 22.5q-20 76 -38 147.5t-34 139t-30.5 133t-29.5 130.5h-10zM507 813q15 6 21 -10l10 -27q6 -14 -15 -20l-174 -55q-11 -4 -15 -2.5t-6 8.5l-6 17q-3 11 6 15z" />
    <glyph glyph-name="Wcircumflex" unicode="&#x174;" horiz-adv-x="786" 
d="M388 578q-15 -65 -29.5 -130.5t-30.5 -133t-34 -139t-38 -147.5q-5 -17 -12.5 -22.5t-22.5 -5.5h-25q-14 0 -21.5 4.5t-12.5 21.5q-20 70 -38.5 146t-36 154t-33 156.5t-28.5 153.5q-2 11 6 11h32q9 0 10 -10q11 -68 26 -144t31.5 -154t35 -154.5t37.5 -144.5h11
q36 139 68.5 274.5t63.5 277.5q3 15 10 20t23 5h26q15 0 22.5 -5t10.5 -20q31 -142 64 -277.5t68 -274.5h11q19 68 37.5 144.5t35 154.5t31.5 154t26 144q1 10 10 10h32q8 0 6 -11q-13 -75 -28.5 -153.5t-33 -156.5t-36.5 -154t-38 -146q-5 -17 -12.5 -21.5t-21.5 -4.5h-25
q-15 0 -22.5 5.5t-12.5 22.5q-20 76 -38 147.5t-34 139t-30.5 133t-29.5 130.5h-10zM366 853q6 7 15 7h24q9 0 15 -7l111 -122q8 -8 1 -15l-19 -16q-8 -6 -17 3l-100 103h-6l-100 -103q-10 -10 -17 -3l-19 16q-8 6 1 15z" />
    <glyph glyph-name="Wdieresis" unicode="&#x1e84;" horiz-adv-x="786" 
d="M388 578q-15 -65 -29.5 -130.5t-30.5 -133t-34 -139t-38 -147.5q-5 -17 -12.5 -22.5t-22.5 -5.5h-25q-14 0 -21.5 4.5t-12.5 21.5q-20 70 -38.5 146t-36 154t-33 156.5t-28.5 153.5q-2 11 6 11h32q9 0 10 -10q11 -68 26 -144t31.5 -154t35 -154.5t37.5 -144.5h11
q36 139 68.5 274.5t63.5 277.5q3 15 10 20t23 5h26q15 0 22.5 -5t10.5 -20q31 -142 64 -277.5t68 -274.5h11q19 68 37.5 144.5t35 154.5t31.5 154t26 144q1 10 10 10h32q8 0 6 -11q-13 -75 -28.5 -153.5t-33 -156.5t-36.5 -154t-38 -146q-5 -17 -12.5 -21.5t-21.5 -4.5h-25
q-15 0 -22.5 5.5t-12.5 22.5q-20 76 -38 147.5t-34 139t-30.5 133t-29.5 130.5h-10zM317 809q20 0 27.5 -6.5t7.5 -25.5v-21q0 -18 -7.5 -24.5t-27.5 -6.5h-10q-20 0 -27 6.5t-7 24.5v21q0 19 7.5 25.5t26.5 6.5h10zM478 809q20 0 27.5 -6.5t7.5 -25.5v-21q0 -18 -7.5 -24.5
t-27.5 -6.5h-10q-20 0 -27 6.5t-7 24.5v21q0 19 7.5 25.5t26.5 6.5h10z" />
    <glyph glyph-name="Ygrave" unicode="&#x1ef2;" horiz-adv-x="466" 
d="M256 11q0 -11 -9 -11h-28q-9 0 -9 11v213q-29 52 -53 98t-45 94t-41.5 101t-42.5 119q-4 11 6 11h33q7 0 10 -8q68 -206 152 -358h8q84 152 152 358q3 8 10 8h33q10 0 6 -11q-22 -66 -42.5 -119t-41.5 -101t-45 -94t-53 -98v-213zM328 739q9 -4 6 -15l-6 -17
q-2 -7 -6 -8.5t-15 2.5l-174 55q-21 6 -15 20l10 27q6 16 21 10z" />
    <glyph glyph-name="Yacute" unicode="&#xdd;" horiz-adv-x="466" 
d="M256 11q0 -11 -9 -11h-28q-9 0 -9 11v213q-29 52 -53 98t-45 94t-41.5 101t-42.5 119q-4 11 6 11h33q7 0 10 -8q68 -206 152 -358h8q84 152 152 358q3 8 10 8h33q10 0 6 -11q-22 -66 -42.5 -119t-41.5 -101t-45 -94t-53 -98v-213zM330 813q15 6 21 -10l10 -27
q6 -14 -15 -20l-174 -55q-11 -4 -15 -2.5t-6 8.5l-6 17q-3 11 6 15z" />
    <glyph glyph-name="Ycircumflex" unicode="&#x176;" horiz-adv-x="466" 
d="M256 11q0 -11 -9 -11h-28q-9 0 -9 11v213q-29 52 -53 98t-45 94t-41.5 101t-42.5 119q-4 11 6 11h33q7 0 10 -8q68 -206 152 -358h8q84 152 152 358q3 8 10 8h33q10 0 6 -11q-22 -66 -42.5 -119t-41.5 -101t-45 -94t-53 -98v-213zM206 853q6 7 15 7h24q9 0 15 -7
l111 -122q8 -8 1 -15l-19 -16q-8 -6 -17 3l-100 103h-6l-100 -103q-10 -10 -17 -3l-19 16q-8 6 1 15z" />
    <glyph glyph-name="Ydieresis" unicode="&#x178;" horiz-adv-x="466" 
d="M256 11q0 -11 -9 -11h-28q-9 0 -9 11v213q-29 52 -53 98t-45 94t-41.5 101t-42.5 119q-4 11 6 11h33q7 0 10 -8q68 -206 152 -358h8q84 152 152 358q3 8 10 8h33q10 0 6 -11q-22 -66 -42.5 -119t-41.5 -101t-45 -94t-53 -98v-213zM158 809q20 0 27.5 -6.5t7.5 -25.5v-21
q0 -18 -7.5 -24.5t-27.5 -6.5h-10q-20 0 -27 6.5t-7 24.5v21q0 19 7.5 25.5t26.5 6.5h10zM319 809q20 0 27.5 -6.5t7.5 -25.5v-21q0 -18 -7.5 -24.5t-27.5 -6.5h-10q-20 0 -27 6.5t-7 24.5v21q0 19 7.5 25.5t26.5 6.5h10z" />
    <glyph glyph-name="Zacute" unicode="&#x179;" horiz-adv-x="473" 
d="M423 38q8 0 8 -8v-21q0 -3 -2.5 -6t-5.5 -3h-374q-13 0 -13 11v10q0 14 5.5 25t14.5 25l329 538h-325q-8 0 -8 9v20q0 9 8 9h359q12 0 12 -12v-10q0 -8 -1 -15t-5 -15t-10.5 -19.5t-16.5 -28.5l-312 -509h337zM335 813q15 6 21 -10l10 -27q6 -14 -15 -20l-174 -55
q-11 -4 -15 -2.5t-6 8.5l-6 17q-3 11 6 15z" />
    <glyph glyph-name="Zcaron" unicode="&#x17d;" horiz-adv-x="473" 
d="M423 38q8 0 8 -8v-21q0 -3 -2.5 -6t-5.5 -3h-374q-13 0 -13 11v10q0 14 5.5 25t14.5 25l329 538h-325q-8 0 -8 9v20q0 9 8 9h359q12 0 12 -12v-10q0 -8 -1 -15t-5 -15t-10.5 -19.5t-16.5 -28.5l-312 -509h337zM113 831q-9 9 -1 15l19 16q7 7 17 -3l100 -103h6l100 103
q9 9 17 3l19 -16q7 -7 -1 -15l-111 -122q-6 -7 -15 -7h-24q-9 0 -15 7z" />
    <glyph glyph-name="Zdotaccent" unicode="&#x17b;" horiz-adv-x="473" 
d="M423 38q8 0 8 -8v-21q0 -3 -2.5 -6t-5.5 -3h-374q-13 0 -13 11v10q0 14 5.5 25t14.5 25l329 538h-325q-8 0 -8 9v20q0 9 8 9h359q12 0 12 -12v-10q0 -8 -1 -15t-5 -15t-10.5 -19.5t-16.5 -28.5l-312 -509h337zM190 771q0 24 17 40.5t40 16.5t40 -16.5t17 -40.5t-17 -40.5
t-40 -16.5t-40 16.5t-17 40.5z" />
    <glyph glyph-name="agrave" unicode="&#xe0;" horiz-adv-x="453" 
d="M343 240q-14 2 -32 3t-35 1h-63q-69 0 -98 -21.5t-29 -74.5v-25q0 -51 22 -72t69 -21h39q66 0 96.5 29.5t30.5 89.5v91zM340 50q-17 -29 -47.5 -44t-87.5 -15h-20q-79 0 -111 32t-32 107v12q0 35 7.5 61.5t28 44t55 26.5t88.5 9h50q18 0 36.5 -1t35.5 -3v59
q0 72 -30.5 97t-91.5 25q-33 0 -65 -5.5t-55 -12.5q-13 -4 -16 5l-4 18q-2 7 0 9.5t8 4.5q26 8 60.5 14t76.5 6q87 0 123.5 -40.5t36.5 -130.5v-319q0 -9 -9 -9h-22q-9 0 -10 10l-3 40h-2zM323 618q8 -5 4 -16l-7 -16q-3 -6 -7 -7t-15 4l-166 75q-21 7 -13 21l13 26
q7 15 22 8z" />
    <glyph glyph-name="aacute" unicode="&#xe1;" horiz-adv-x="453" 
d="M343 240q-14 2 -32 3t-35 1h-63q-69 0 -98 -21.5t-29 -74.5v-25q0 -51 22 -72t69 -21h39q66 0 96.5 29.5t30.5 89.5v91zM340 50q-17 -29 -47.5 -44t-87.5 -15h-20q-79 0 -111 32t-32 107v12q0 35 7.5 61.5t28 44t55 26.5t88.5 9h50q18 0 36.5 -1t35.5 -3v59
q0 72 -30.5 97t-91.5 25q-33 0 -65 -5.5t-55 -12.5q-13 -4 -16 5l-4 18q-2 7 0 9.5t8 4.5q26 8 60.5 14t76.5 6q87 0 123.5 -40.5t36.5 -130.5v-319q0 -9 -9 -9h-22q-9 0 -10 10l-3 40h-2zM319 713q15 7 22 -8l13 -26q8 -14 -13 -21l-166 -75q-11 -5 -15 -4t-7 7l-7 16
q-4 11 4 16z" />
    <glyph glyph-name="acircumflex" unicode="&#xe2;" horiz-adv-x="453" 
d="M343 240q-14 2 -32 3t-35 1h-63q-69 0 -98 -21.5t-29 -74.5v-25q0 -51 22 -72t69 -21h39q66 0 96.5 29.5t30.5 89.5v91zM340 50q-17 -29 -47.5 -44t-87.5 -15h-20q-79 0 -111 32t-32 107v12q0 35 7.5 61.5t28 44t55 26.5t88.5 9h50q18 0 36.5 -1t35.5 -3v59
q0 72 -30.5 97t-91.5 25q-33 0 -65 -5.5t-55 -12.5q-13 -4 -16 5l-4 18q-2 7 0 9.5t8 4.5q26 8 60.5 14t76.5 6q87 0 123.5 -40.5t36.5 -130.5v-319q0 -9 -9 -9h-22q-9 0 -10 10l-3 40h-2zM207 725q6 7 15 7h24q9 0 15 -7l111 -122q8 -8 1 -15l-19 -16q-8 -6 -17 3l-100 103
h-6l-100 -103q-10 -10 -17 -3l-19 16q-8 6 1 15z" />
    <glyph glyph-name="atilde" unicode="&#xe3;" horiz-adv-x="453" 
d="M343 240q-14 2 -32 3t-35 1h-63q-69 0 -98 -21.5t-29 -74.5v-25q0 -51 22 -72t69 -21h39q66 0 96.5 29.5t30.5 89.5v91zM340 50q-17 -29 -47.5 -44t-87.5 -15h-20q-79 0 -111 32t-32 107v12q0 35 7.5 61.5t28 44t55 26.5t88.5 9h50q18 0 36.5 -1t35.5 -3v59
q0 72 -30.5 97t-91.5 25q-33 0 -65 -5.5t-55 -12.5q-13 -4 -16 5l-4 18q-2 7 0 9.5t8 4.5q26 8 60.5 14t76.5 6q87 0 123.5 -40.5t36.5 -130.5v-319q0 -9 -9 -9h-22q-9 0 -10 10l-3 40h-2zM77 609q-8 5 -2 14q17 36 42.5 54.5t54.5 18.5q16 0 30 -6t29 -17l27 -21
q11 -8 18.5 -11.5t18.5 -3.5q15 0 31 15.5t28 35.5q4 5 9 3l21 -14q8 -5 3 -13q-17 -32 -43 -53.5t-55 -21.5q-16 0 -29.5 5t-28.5 17l-26 20q-11 8 -19.5 12.5t-19.5 4.5q-29 0 -57 -50q-4 -7 -12 -2z" />
    <glyph glyph-name="adieresis" unicode="&#xe4;" horiz-adv-x="453" 
d="M343 240q-14 2 -32 3t-35 1h-63q-69 0 -98 -21.5t-29 -74.5v-25q0 -51 22 -72t69 -21h39q66 0 96.5 29.5t30.5 89.5v91zM340 50q-17 -29 -47.5 -44t-87.5 -15h-20q-79 0 -111 32t-32 107v12q0 35 7.5 61.5t28 44t55 26.5t88.5 9h50q18 0 36.5 -1t35.5 -3v59
q0 72 -30.5 97t-91.5 25q-33 0 -65 -5.5t-55 -12.5q-13 -4 -16 5l-4 18q-2 7 0 9.5t8 4.5q26 8 60.5 14t76.5 6q87 0 123.5 -40.5t36.5 -130.5v-319q0 -9 -9 -9h-22q-9 0 -10 10l-3 40h-2zM155 686q20 0 27.5 -6.5t7.5 -25.5v-21q0 -18 -7.5 -24.5t-27.5 -6.5h-10
q-20 0 -27 6.5t-7 24.5v21q0 19 7.5 25.5t26.5 6.5h10zM316 686q20 0 27.5 -6.5t7.5 -25.5v-21q0 -18 -7.5 -24.5t-27.5 -6.5h-10q-20 0 -27 6.5t-7 24.5v21q0 19 7.5 25.5t26.5 6.5h10z" />
    <glyph glyph-name="amacron" unicode="&#x101;" horiz-adv-x="453" 
d="M343 240q-14 2 -32 3t-35 1h-63q-69 0 -98 -21.5t-29 -74.5v-25q0 -51 22 -72t69 -21h39q66 0 96.5 29.5t30.5 89.5v91zM340 50q-17 -29 -47.5 -44t-87.5 -15h-20q-79 0 -111 32t-32 107v12q0 35 7.5 61.5t28 44t55 26.5t88.5 9h50q18 0 36.5 -1t35.5 -3v59
q0 72 -30.5 97t-91.5 25q-33 0 -65 -5.5t-55 -12.5q-13 -4 -16 5l-4 18q-2 7 0 9.5t8 4.5q26 8 60.5 14t76.5 6q87 0 123.5 -40.5t36.5 -130.5v-319q0 -9 -9 -9h-22q-9 0 -10 10l-3 40h-2zM120 622q-11 0 -11 11v21q0 12 11 12h229q11 0 11 -12v-21q0 -11 -11 -11h-229z" />
    <glyph glyph-name="abreve" unicode="&#x103;" horiz-adv-x="453" 
d="M343 240q-14 2 -32 3t-35 1h-63q-69 0 -98 -21.5t-29 -74.5v-25q0 -51 22 -72t69 -21h39q66 0 96.5 29.5t30.5 89.5v91zM340 50q-17 -29 -47.5 -44t-87.5 -15h-20q-79 0 -111 32t-32 107v12q0 35 7.5 61.5t28 44t55 26.5t88.5 9h50q18 0 36.5 -1t35.5 -3v59
q0 72 -30.5 97t-91.5 25q-33 0 -65 -5.5t-55 -12.5q-13 -4 -16 5l-4 18q-2 7 0 9.5t8 4.5q26 8 60.5 14t76.5 6q87 0 123.5 -40.5t36.5 -130.5v-319q0 -9 -9 -9h-22q-9 0 -10 10l-3 40h-2zM232 571q-23 0 -45.5 6.5t-41 20t-33 33.5t-21.5 48q-4 12 7 15l21 6q12 4 15 -6
q12 -42 37.5 -61.5t60.5 -19.5t61.5 19.5t37.5 61.5q3 10 15 6l21 -6q7 -2 8 -5.5t-1 -9.5q-7 -28 -21.5 -48t-33.5 -33.5t-41.5 -20t-45.5 -6.5z" />
    <glyph glyph-name="acaron" unicode="&#x1ce;" horiz-adv-x="453" 
d="M343 240q-14 2 -32 3t-35 1h-63q-69 0 -98 -21.5t-29 -74.5v-25q0 -51 22 -72t69 -21h39q66 0 96.5 29.5t30.5 89.5v91zM340 50q-17 -29 -47.5 -44t-87.5 -15h-20q-79 0 -111 32t-32 107v12q0 35 7.5 61.5t28 44t55 26.5t88.5 9h50q18 0 36.5 -1t35.5 -3v59
q0 72 -30.5 97t-91.5 25q-33 0 -65 -5.5t-55 -12.5q-13 -4 -16 5l-4 18q-2 7 0 9.5t8 4.5q26 8 60.5 14t76.5 6q87 0 123.5 -40.5t36.5 -130.5v-319q0 -9 -9 -9h-22q-9 0 -10 10l-3 40h-2zM90 696q-9 9 -1 15l19 16q7 7 17 -3l100 -103h6l100 103q9 9 17 3l19 -16
q7 -7 -1 -15l-111 -122q-6 -7 -15 -7h-24q-9 0 -15 7z" />
    <glyph glyph-name="aring" unicode="&#xe5;" horiz-adv-x="453" 
d="M343 240q-14 2 -32 3t-35 1h-63q-69 0 -98 -21.5t-29 -74.5v-25q0 -51 22 -72t69 -21h39q66 0 96.5 29.5t30.5 89.5v91zM340 50q-17 -29 -47.5 -44t-87.5 -15h-20q-79 0 -111 32t-32 107v12q0 35 7.5 61.5t28 44t55 26.5t88.5 9h50q18 0 36.5 -1t35.5 -3v59
q0 72 -30.5 97t-91.5 25q-33 0 -65 -5.5t-55 -12.5q-13 -4 -16 5l-4 18q-2 7 0 9.5t8 4.5q26 8 60.5 14t76.5 6q87 0 123.5 -40.5t36.5 -130.5v-319q0 -9 -9 -9h-22q-9 0 -10 10l-3 40h-2zM147 639q0 44 27 66.5t64 22.5q38 0 64.5 -22.5t26.5 -66.5t-26.5 -66.5
t-64.5 -22.5q-37 0 -64 22.5t-27 66.5zM190 639q0 -24 14 -36.5t34 -12.5q21 0 34.5 12.5t13.5 36.5t-13.5 36.5t-34.5 12.5q-20 0 -34 -12.5t-14 -36.5z" />
    <glyph glyph-name="aringacute" unicode="&#x1fb;" horiz-adv-x="453" 
d="M343 240q-14 2 -32 3t-35 1h-63q-69 0 -98 -21.5t-29 -74.5v-25q0 -51 22 -72t69 -21h39q66 0 96.5 29.5t30.5 89.5v91zM340 50q-17 -29 -47.5 -44t-87.5 -15h-20q-79 0 -111 32t-32 107v12q0 35 7.5 61.5t28 44t55 26.5t88.5 9h50q18 0 36.5 -1t35.5 -3v59
q0 72 -30.5 97t-91.5 25q-33 0 -65 -5.5t-55 -12.5q-13 -4 -16 5l-4 18q-2 7 0 9.5t8 4.5q26 8 60.5 14t76.5 6q87 0 123.5 -40.5t36.5 -130.5v-319q0 -9 -9 -9h-22q-9 0 -10 10l-3 40h-2zM133 636q0 44 27 66.5t64 22.5q38 0 64.5 -22.5t26.5 -66.5t-26.5 -66.5
t-64.5 -22.5q-37 0 -64 22.5t-27 66.5zM176 636q0 -24 14 -36.5t34 -12.5q21 0 34.5 12.5t13.5 36.5t-13.5 36.5t-34.5 12.5q-20 0 -34 -12.5t-14 -36.5zM300 879q15 7 22 -8l13 -26q8 -14 -13 -21l-166 -75q-11 -5 -15 -4t-7 7l-7 16q-4 11 4 16z" />
    <glyph glyph-name="aogonek" unicode="&#x105;" horiz-adv-x="452" 
d="M342 240q-14 2 -32 3t-35 1h-63q-69 0 -98 -21.5t-29 -74.5v-25q0 -51 21.5 -72t69.5 -21h48q57 0 87.5 31t30.5 88v91zM385 19q0 -9 -1.5 -12.5t-6.5 -7.5q-70 -49 -70 -107q0 -45 51 -45q32 0 54 10q7 4 10 -4l6 -22q2 -5 0.5 -6.5t-6.5 -3.5q-30 -15 -74 -15
q-42 0 -64.5 20t-22.5 57q0 35 20.5 67.5t62.5 56.5l-3 40h-2q-17 -30 -46 -43t-89 -13h-20q-77 0 -110 32t-33 107v12q0 35 7.5 61.5t28 44t55 26.5t88.5 9h50q18 0 36.5 -1t35.5 -3v59q0 72 -30.5 97t-91.5 25q-33 0 -65 -5t-55 -13q-13 -4 -16 5l-4 18q-2 7 0 9.5t8 4.5
q26 8 61.5 14t77.5 6q85 0 121.5 -40.5t36.5 -130.5v-309z" />
    <glyph glyph-name="ae" unicode="&#xe6;" horiz-adv-x="741" 
d="M689 258q0 -23 -9 -32.5t-32 -9.5h-261q1 -53 9 -88.5t25.5 -57t44 -30.5t65.5 -9q26 0 60 6t60 17q9 4 13 -4l7 -16q2 -5 0.5 -8.5t-9.5 -7.5q-27 -12 -63 -19.5t-68 -7.5q-66 0 -109 23.5t-54 66.5q-22 -90 -163 -90h-20q-77 0 -110 32t-33 107v12q0 35 7.5 61.5t28 44
t55 26.5t88.5 9h50q18 0 36.5 -1t35.5 -3v59q0 72 -30.5 97t-91.5 25q-33 0 -65 -5t-55 -13q-13 -4 -16 5l-4 18q-2 7 0 9.5t8 4.5q26 8 61.5 14t77.5 6q58 0 94 -18.5t50 -60.5q20 41 55.5 60t94.5 19q83 0 125 -40t42 -137v-64zM343 210v12v18q-14 2 -32 3t-35 1h-63
q-69 0 -98 -21.5t-29 -74.5v-25q0 -51 21.5 -72t69.5 -21h48q61 0 89.5 31t28.5 88v61zM630 258q8 0 11 2t3 14v35q0 84 -29 117t-93 33q-35 0 -60 -9t-41.5 -31.5t-24 -61.5t-8.5 -99h242z" />
    <glyph glyph-name="aeacute" unicode="&#x1fd;" horiz-adv-x="741" 
d="M689 258q0 -23 -9 -32.5t-32 -9.5h-261q1 -53 9 -88.5t25.5 -57t44 -30.5t65.5 -9q26 0 60 6t60 17q9 4 13 -4l7 -16q2 -5 0.5 -8.5t-9.5 -7.5q-27 -12 -63 -19.5t-68 -7.5q-66 0 -109 23.5t-54 66.5q-22 -90 -163 -90h-20q-77 0 -110 32t-33 107v12q0 35 7.5 61.5t28 44
t55 26.5t88.5 9h50q18 0 36.5 -1t35.5 -3v59q0 72 -30.5 97t-91.5 25q-33 0 -65 -5t-55 -13q-13 -4 -16 5l-4 18q-2 7 0 9.5t8 4.5q26 8 61.5 14t77.5 6q58 0 94 -18.5t50 -60.5q20 41 55.5 60t94.5 19q83 0 125 -40t42 -137v-64zM343 210v12v18q-14 2 -32 3t-35 1h-63
q-69 0 -98 -21.5t-29 -74.5v-25q0 -51 21.5 -72t69.5 -21h48q61 0 89.5 31t28.5 88v61zM630 258q8 0 11 2t3 14v35q0 84 -29 117t-93 33q-35 0 -60 -9t-41.5 -31.5t-24 -61.5t-8.5 -99h242zM472 713q15 7 22 -8l13 -26q8 -14 -13 -21l-166 -75q-11 -5 -15 -4t-7 7l-7 16
q-4 11 4 16z" />
    <glyph glyph-name="cacute" unicode="&#x107;" horiz-adv-x="406" 
d="M367 31q3 -8 1 -11t-9 -6q-23 -10 -55 -16.5t-60 -6.5q-91 0 -138 44q-31 29 -43.5 78.5t-12.5 118.5v34q0 75 13 119.5t41 70.5q44 43 132 43q44 0 79 -11.5t58 -28.5q8 -5 3 -13l-13 -19q-4 -6 -13 0q-49 32 -115 32q-36 0 -59.5 -8t-39.5 -23q-15 -15 -23.5 -34
t-12.5 -41t-5 -46.5t-1 -50.5v-17q0 -61 8.5 -102t33.5 -70q14 -17 43 -26.5t65 -9.5q23 0 52 5t53 15q10 4 14 -7zM331 713q15 7 22 -8l13 -26q8 -14 -13 -21l-166 -75q-11 -5 -15 -4t-7 7l-7 16q-4 11 4 16z" />
    <glyph glyph-name="ccedilla" unicode="&#xe7;" horiz-adv-x="399" 
d="M235 459q-36 0 -59.5 -8t-39.5 -23q-15 -15 -23.5 -34t-12.5 -41t-5 -46.5t-1 -50.5v-17q0 -61 8.5 -102t33.5 -70q14 -17 43 -26.5t65 -9.5q23 0 52 5t53 15q10 4 14 -7l4 -13q3 -8 1 -11t-9 -6q-23 -10 -55 -16.5t-60 -6.5h-2l-8 -61q7 2 15.5 3t18.5 1q29 0 47.5 -17
t18.5 -55q0 -90 -105 -90q-18 0 -38 3t-31 7q-8 2 -6 10l4 22q2 8 10 5q14 -4 31.5 -6t31.5 -2q29 0 43.5 10.5t14.5 37.5q0 37 -39 37q-11 0 -21.5 -1.5t-17.5 -3.5q-7 -1 -11 1l-7 4q-3 2 -4 3.5t0 6.5l12 87v1q-62 9 -95 41q-31 29 -43.5 78.5t-12.5 118.5v34
q0 75 13 119.5t41 70.5q44 43 132 43q44 0 79 -11.5t58 -28.5q8 -5 3 -13l-13 -19q-4 -6 -13 0q-49 32 -115 32z" />
    <glyph glyph-name="ccircumflex" unicode="&#x109;" horiz-adv-x="406" 
d="M367 31q3 -8 1 -11t-9 -6q-23 -10 -55 -16.5t-60 -6.5q-91 0 -138 44q-31 29 -43.5 78.5t-12.5 118.5v34q0 75 13 119.5t41 70.5q44 43 132 43q44 0 79 -11.5t58 -28.5q8 -5 3 -13l-13 -19q-4 -6 -13 0q-49 32 -115 32q-36 0 -59.5 -8t-39.5 -23q-15 -15 -23.5 -34
t-12.5 -41t-5 -46.5t-1 -50.5v-17q0 -61 8.5 -102t33.5 -70q14 -17 43 -26.5t65 -9.5q23 0 52 5t53 15q10 4 14 -7zM206 725q6 7 15 7h24q9 0 15 -7l111 -122q8 -8 1 -15l-19 -16q-8 -6 -17 3l-100 103h-6l-100 -103q-10 -10 -17 -3l-19 16q-8 6 1 15z" />
    <glyph glyph-name="ccaron" unicode="&#x10d;" horiz-adv-x="406" 
d="M367 31q3 -8 1 -11t-9 -6q-23 -10 -55 -16.5t-60 -6.5q-91 0 -138 44q-31 29 -43.5 78.5t-12.5 118.5v34q0 75 13 119.5t41 70.5q44 43 132 43q44 0 79 -11.5t58 -28.5q8 -5 3 -13l-13 -19q-4 -6 -13 0q-49 32 -115 32q-36 0 -59.5 -8t-39.5 -23q-15 -15 -23.5 -34
t-12.5 -41t-5 -46.5t-1 -50.5v-17q0 -61 8.5 -102t33.5 -70q14 -17 43 -26.5t65 -9.5q23 0 52 5t53 15q10 4 14 -7zM96 696q-9 9 -1 15l19 16q7 7 17 -3l100 -103h6l100 103q9 9 17 3l19 -16q7 -7 -1 -15l-111 -122q-6 -7 -15 -7h-24q-9 0 -15 7z" />
    <glyph glyph-name="cdotaccent" unicode="&#x10b;" horiz-adv-x="406" 
d="M367 31q3 -8 1 -11t-9 -6q-23 -10 -55 -16.5t-60 -6.5q-91 0 -138 44q-31 29 -43.5 78.5t-12.5 118.5v34q0 75 13 119.5t41 70.5q44 43 132 43q44 0 79 -11.5t58 -28.5q8 -5 3 -13l-13 -19q-4 -6 -13 0q-49 32 -115 32q-36 0 -59.5 -8t-39.5 -23q-15 -15 -23.5 -34
t-12.5 -41t-5 -46.5t-1 -50.5v-17q0 -61 8.5 -102t33.5 -70q14 -17 43 -26.5t65 -9.5q23 0 52 5t53 15q10 4 14 -7zM175 643q0 24 17 40.5t40 16.5t40 -16.5t17 -40.5t-17 -40.5t-40 -16.5t-40 16.5t-17 40.5z" />
    <glyph glyph-name="dcaron" unicode="&#x10f;" horiz-adv-x="485" 
d="M376 310q0 70 -36.5 109.5t-107.5 39.5q-36 0 -62.5 -10t-43 -33t-24.5 -61t-8 -93v-35q0 -56 8.5 -94t26 -60.5t45 -32t65.5 -9.5q34 0 59.5 7.5t42.5 24t26 43.5t9 67v137zM376 669q0 8 7 8h28q8 0 8 -8v-510q0 -38 -10 -69t-31.5 -53t-55.5 -34t-82 -12t-84 10.5
t-59.5 37t-35 70.5t-11.5 110v49q0 119 41 175t142 56q51 0 87 -17.5t54 -46.5h2v234zM517 685q36 0 36 -37v-17q0 -66 -58 -121q-4 -4 -6.5 -5.5t-7.5 2.5l-11 9q-7 5 -2 10q10 10 19 22t15 25q2 4 3 7t1 7q0 9 -13 16q-11 5 -15.5 12t-4.5 22v18q0 16 8.5 23t22.5 7h13z
" />
    <glyph glyph-name="dcroat" unicode="&#x111;" horiz-adv-x="485" 
d="M376 561h-129q-9 0 -9 10v14q0 10 9 10h129v74q0 8 7 8h28q8 0 8 -8v-74h75q9 0 9 -10v-14q0 -10 -9 -10h-75v-402q0 -38 -10 -69t-31.5 -53t-55.5 -34t-82 -12t-84 10.5t-59.5 37t-35 70.5t-11.5 110v49q0 119 41 175t142 56q51 0 87 -17.5t54 -46.5h2v126zM376 310
q0 70 -36.5 109.5t-107.5 39.5q-36 0 -62.5 -10t-43 -33t-24.5 -61t-8 -93v-35q0 -56 8.5 -94t26 -60.5t45 -32t65.5 -9.5q34 0 59.5 7.5t42.5 24t26 43.5t9 67v137z" />
    <glyph glyph-name="eth" unicode="&#xf0;" horiz-adv-x="501" 
d="M285 625q83 -70 123 -166.5t40 -208.5v-28q0 -54 -14.5 -97t-40.5 -73t-63 -45.5t-82 -15.5q-50 0 -87 16.5t-61.5 46t-37 69t-12.5 86.5v30q0 50 11.5 91t35.5 70.5t60.5 46t86.5 16.5q40 0 72 -12t54 -33l2 2q-18 53 -49 98.5t-72 81.5l-93 -68q-7 -5 -13 4l-9 12
q-5 8 2 14l84 60q-39 28 -84 47q-6 2 -7 4t1 8l8 19q4 9 12 6q29 -12 55.5 -26.5t49.5 -31.5l79 57q8 6 13 -1l11 -14q4 -7 -2 -12zM247 422q-42 0 -71.5 -14t-47.5 -39t-26 -60t-8 -78v-11q0 -94 39.5 -141t116.5 -47q74 0 114 50.5t40 147.5v11q0 48 -11.5 82.5t-32 56.5
t-49.5 32t-64 10z" />
    <glyph glyph-name="egrave" unicode="&#xe8;" horiz-adv-x="448" 
d="M396 258q0 -23 -9 -32.5t-32 -9.5h-261q1 -53 9 -88.5t25.5 -57t44 -30.5t65.5 -9q26 0 60 6t60 17q10 4 13 -4l6 -16q2 -7 1 -10t-9 -7q-27 -12 -63 -19t-68 -7q-52 0 -88 13t-58 40.5t-32 71.5t-10 106v45q0 121 41.5 176.5t137.5 55.5q167 0 167 -181v-60zM339 258
q8 0 11 2t3 14v31q0 84 -30 119t-94 35q-35 0 -60 -9t-41 -32t-24 -62t-9 -98h244zM321 618q8 -5 4 -16l-7 -16q-3 -6 -7 -7t-15 4l-166 75q-21 7 -13 21l13 26q7 15 22 8z" />
    <glyph glyph-name="eacute" unicode="&#xe9;" horiz-adv-x="448" 
d="M396 258q0 -23 -9 -32.5t-32 -9.5h-261q1 -53 9 -88.5t25.5 -57t44 -30.5t65.5 -9q26 0 60 6t60 17q10 4 13 -4l6 -16q2 -7 1 -10t-9 -7q-27 -12 -63 -19t-68 -7q-52 0 -88 13t-58 40.5t-32 71.5t-10 106v45q0 121 41.5 176.5t137.5 55.5q167 0 167 -181v-60zM339 258
q8 0 11 2t3 14v31q0 84 -30 119t-94 35q-35 0 -60 -9t-41 -32t-24 -62t-9 -98h244zM305 713q15 7 22 -8l13 -26q8 -14 -13 -21l-166 -75q-11 -5 -15 -4t-7 7l-7 16q-4 11 4 16z" />
    <glyph glyph-name="ecircumflex" unicode="&#xea;" horiz-adv-x="448" 
d="M396 258q0 -23 -9 -32.5t-32 -9.5h-261q1 -53 9 -88.5t25.5 -57t44 -30.5t65.5 -9q26 0 60 6t60 17q10 4 13 -4l6 -16q2 -7 1 -10t-9 -7q-27 -12 -63 -19t-68 -7q-52 0 -88 13t-58 40.5t-32 71.5t-10 106v45q0 121 41.5 176.5t137.5 55.5q167 0 167 -181v-60zM339 258
q8 0 11 2t3 14v31q0 84 -30 119t-94 35q-35 0 -60 -9t-41 -32t-24 -62t-9 -98h244zM204 725q6 7 15 7h24q9 0 15 -7l111 -122q8 -8 1 -15l-19 -16q-8 -6 -17 3l-100 103h-6l-100 -103q-10 -10 -17 -3l-19 16q-8 6 1 15z" />
    <glyph glyph-name="ecaron" unicode="&#x11b;" horiz-adv-x="448" 
d="M396 258q0 -23 -9 -32.5t-32 -9.5h-261q1 -53 9 -88.5t25.5 -57t44 -30.5t65.5 -9q26 0 60 6t60 17q10 4 13 -4l6 -16q2 -7 1 -10t-9 -7q-27 -12 -63 -19t-68 -7q-52 0 -88 13t-58 40.5t-32 71.5t-10 106v45q0 121 41.5 176.5t137.5 55.5q167 0 167 -181v-60zM339 258
q8 0 11 2t3 14v31q0 84 -30 119t-94 35q-35 0 -60 -9t-41 -32t-24 -62t-9 -98h244zM96 696q-9 9 -1 15l19 16q7 7 17 -3l100 -103h6l100 103q9 9 17 3l19 -16q7 -7 -1 -15l-111 -122q-6 -7 -15 -7h-24q-9 0 -15 7z" />
    <glyph glyph-name="edieresis" unicode="&#xeb;" horiz-adv-x="448" 
d="M396 258q0 -23 -9 -32.5t-32 -9.5h-261q1 -53 9 -88.5t25.5 -57t44 -30.5t65.5 -9q26 0 60 6t60 17q10 4 13 -4l6 -16q2 -7 1 -10t-9 -7q-27 -12 -63 -19t-68 -7q-52 0 -88 13t-58 40.5t-32 71.5t-10 106v45q0 121 41.5 176.5t137.5 55.5q167 0 167 -181v-60zM339 258
q8 0 11 2t3 14v31q0 84 -30 119t-94 35q-35 0 -60 -9t-41 -32t-24 -62t-9 -98h244zM157 686q20 0 27.5 -6.5t7.5 -25.5v-21q0 -18 -7.5 -24.5t-27.5 -6.5h-10q-20 0 -27 6.5t-7 24.5v21q0 19 7.5 25.5t26.5 6.5h10zM318 686q20 0 27.5 -6.5t7.5 -25.5v-21q0 -18 -7.5 -24.5
t-27.5 -6.5h-10q-20 0 -27 6.5t-7 24.5v21q0 19 7.5 25.5t26.5 6.5h10z" />
    <glyph glyph-name="emacron" unicode="&#x113;" horiz-adv-x="448" 
d="M396 258q0 -23 -9 -32.5t-32 -9.5h-261q1 -53 9 -88.5t25.5 -57t44 -30.5t65.5 -9q26 0 60 6t60 17q10 4 13 -4l6 -16q2 -7 1 -10t-9 -7q-27 -12 -63 -19t-68 -7q-52 0 -88 13t-58 40.5t-32 71.5t-10 106v45q0 121 41.5 176.5t137.5 55.5q167 0 167 -181v-60zM339 258
q8 0 11 2t3 14v31q0 84 -30 119t-94 35q-35 0 -60 -9t-41 -32t-24 -62t-9 -98h244zM115 622q-11 0 -11 11v21q0 12 11 12h229q11 0 11 -12v-21q0 -11 -11 -11h-229z" />
    <glyph glyph-name="ebreve" unicode="&#x115;" horiz-adv-x="448" 
d="M396 258q0 -23 -9 -32.5t-32 -9.5h-261q1 -53 9 -88.5t25.5 -57t44 -30.5t65.5 -9q26 0 60 6t60 17q10 4 13 -4l6 -16q2 -7 1 -10t-9 -7q-27 -12 -63 -19t-68 -7q-52 0 -88 13t-58 40.5t-32 71.5t-10 106v45q0 121 41.5 176.5t137.5 55.5q167 0 167 -181v-60zM339 258
q8 0 11 2t3 14v31q0 84 -30 119t-94 35q-35 0 -60 -9t-41 -32t-24 -62t-9 -98h244zM234 571q-23 0 -45.5 6.5t-41 20t-33 33.5t-21.5 48q-4 12 7 15l21 6q12 4 15 -6q12 -42 37.5 -61.5t60.5 -19.5t61.5 19.5t37.5 61.5q3 10 15 6l21 -6q7 -2 8 -5.5t-1 -9.5
q-7 -28 -21.5 -48t-33.5 -33.5t-41.5 -20t-45.5 -6.5z" />
    <glyph glyph-name="edotaccent" unicode="&#x117;" horiz-adv-x="448" 
d="M396 258q0 -23 -9 -32.5t-32 -9.5h-261q1 -53 9 -88.5t25.5 -57t44 -30.5t65.5 -9q26 0 60 6t60 17q10 4 13 -4l6 -16q2 -7 1 -10t-9 -7q-27 -12 -63 -19t-68 -7q-52 0 -88 13t-58 40.5t-32 71.5t-10 106v45q0 121 41.5 176.5t137.5 55.5q167 0 167 -181v-60zM339 258
q8 0 11 2t3 14v31q0 84 -30 119t-94 35q-35 0 -60 -9t-41 -32t-24 -62t-9 -98h244zM172 643q0 24 17 40.5t40 16.5t40 -16.5t17 -40.5t-17 -40.5t-40 -16.5t-40 16.5t-17 40.5z" />
    <glyph glyph-name="eogonek" unicode="&#x119;" horiz-adv-x="448" 
d="M337 258q8 0 11 2t3 14v35q0 84 -29 117t-93 33q-35 0 -60 -9t-41.5 -31.5t-24 -61.5t-8.5 -99h242zM217 -117q0 36 18 64t48 48q-9 -2 -21.5 -3t-23.5 -1q-52 0 -88 13t-58 40.5t-32 71.5t-10 106v45q0 123 41.5 177.5t137.5 54.5q83 0 125 -40t42 -137v-64
q0 -23 -9 -32.5t-32 -9.5h-261q1 -53 9 -88.5t25.5 -57t44 -30.5t65.5 -9q26 0 60 6t60 17q9 4 13 -4l7 -16q2 -5 0.5 -8.5t-9.5 -7.5q-29 -13 -49.5 -29.5t-33 -33t-18 -33t-5.5 -29.5q0 -46 51 -46q32 0 54 10q7 4 10 -4l6 -22q2 -5 0.5 -6.5t-6.5 -3.5q-30 -15 -74 -15
q-42 0 -64.5 20t-22.5 57z" />
    <glyph glyph-name="gcircumflex" unicode="&#x11d;" horiz-adv-x="461" 
d="M219 499q11 0 21 -0.5t20 -1.5q17 34 41.5 50.5t62.5 16.5h22q8 0 8 -7v-27q0 -8 -8 -8h-28q-21 0 -34 -8t-21 -27q22 -7 39 -18.5t28.5 -31t17 -48t5.5 -69.5v-32q0 -68 -17.5 -106t-52.5 -57q42 -26 65 -59t23 -84v-17q0 -44 -14 -73t-39.5 -46.5t-60.5 -25t-77 -7.5
q-25 0 -50 3.5t-49 9.5t-45 14t-37 17q-4 2 -5.5 5t0.5 9l8 19q4 8 14 3q35 -18 79 -29t89 -11q68 0 105.5 25t37.5 90v10q0 50 -26 81t-68 52q-14 -2 -26.5 -3t-27.5 -1q-92 0 -132 42.5t-40 138.5v32q0 51 11 85.5t32.5 55t54 29.5t74.5 9zM91 291q0 -82 31 -113t97 -31
q34 0 58.5 6t40.5 22t23.5 44.5t7.5 73.5v23q0 43 -8 71t-24.5 44t-41 22t-56.5 6t-56 -6t-40 -22t-24 -44t-8 -71v-25zM201 753q6 7 15 7h24q9 0 15 -7l111 -122q8 -8 1 -15l-19 -16q-8 -6 -17 3l-100 103h-6l-100 -103q-10 -10 -17 -3l-19 16q-8 6 1 15z" />
    <glyph glyph-name="gbreve" unicode="&#x11f;" horiz-adv-x="461" 
d="M219 499q11 0 21 -0.5t20 -1.5q17 34 41.5 50.5t62.5 16.5h22q8 0 8 -7v-27q0 -8 -8 -8h-28q-21 0 -34 -8t-21 -27q22 -7 39 -18.5t28.5 -31t17 -48t5.5 -69.5v-32q0 -68 -17.5 -106t-52.5 -57q42 -26 65 -59t23 -84v-17q0 -44 -14 -73t-39.5 -46.5t-60.5 -25t-77 -7.5
q-25 0 -50 3.5t-49 9.5t-45 14t-37 17q-4 2 -5.5 5t0.5 9l8 19q4 8 14 3q35 -18 79 -29t89 -11q68 0 105.5 25t37.5 90v10q0 50 -26 81t-68 52q-14 -2 -26.5 -3t-27.5 -1q-92 0 -132 42.5t-40 138.5v32q0 51 11 85.5t32.5 55t54 29.5t74.5 9zM91 291q0 -82 31 -113t97 -31
q34 0 58.5 6t40.5 22t23.5 44.5t7.5 73.5v23q0 43 -8 71t-24.5 44t-41 22t-56.5 6t-56 -6t-40 -22t-24 -44t-8 -71v-25zM224 585q-23 0 -45.5 6.5t-41 20t-33 33.5t-21.5 48q-4 12 7 15l21 6q12 4 15 -6q12 -42 37.5 -61.5t60.5 -19.5t61.5 19.5t37.5 61.5q3 10 15 6l21 -6
q7 -2 8 -5.5t-1 -9.5q-7 -28 -21.5 -48t-33.5 -33.5t-41.5 -20t-45.5 -6.5z" />
    <glyph glyph-name="gdotaccent" unicode="&#x121;" horiz-adv-x="461" 
d="M219 499q11 0 21 -0.5t20 -1.5q17 34 41.5 50.5t62.5 16.5h22q8 0 8 -7v-27q0 -8 -8 -8h-28q-21 0 -34 -8t-21 -27q22 -7 39 -18.5t28.5 -31t17 -48t5.5 -69.5v-32q0 -68 -17.5 -106t-52.5 -57q42 -26 65 -59t23 -84v-17q0 -44 -14 -73t-39.5 -46.5t-60.5 -25t-77 -7.5
q-25 0 -50 3.5t-49 9.5t-45 14t-37 17q-4 2 -5.5 5t0.5 9l8 19q4 8 14 3q35 -18 79 -29t89 -11q68 0 105.5 25t37.5 90v10q0 50 -26 81t-68 52q-14 -2 -26.5 -3t-27.5 -1q-92 0 -132 42.5t-40 138.5v32q0 51 11 85.5t32.5 55t54 29.5t74.5 9zM91 291q0 -82 31 -113t97 -31
q34 0 58.5 6t40.5 22t23.5 44.5t7.5 73.5v23q0 43 -8 71t-24.5 44t-41 22t-56.5 6t-56 -6t-40 -22t-24 -44t-8 -71v-25zM169 663q0 24 17 40.5t40 16.5t40 -16.5t17 -40.5t-17 -40.5t-40 -16.5t-40 16.5t-17 40.5z" />
    <glyph glyph-name="gcommaaccent" unicode="&#x123;" horiz-adv-x="461" 
d="M219 499q11 0 21 -0.5t20 -1.5q17 34 41.5 50.5t62.5 16.5h22q8 0 8 -7v-27q0 -8 -8 -8h-28q-21 0 -34 -8t-21 -27q22 -7 39 -18.5t28.5 -31t17 -48t5.5 -69.5v-32q0 -68 -17.5 -106t-52.5 -57q42 -26 65 -59t23 -84v-17q0 -44 -14 -73t-39.5 -46.5t-60.5 -25t-77 -7.5
q-25 0 -50 3.5t-49 9.5t-45 14t-37 17q-4 2 -5.5 5t0.5 9l8 19q4 8 14 3q35 -18 79 -29t89 -11q68 0 105.5 25t37.5 90v10q0 50 -26 81t-68 52q-14 -2 -26.5 -3t-27.5 -1q-92 0 -132 42.5t-40 138.5v32q0 51 11 85.5t32.5 55t54 29.5t74.5 9zM91 291q0 -82 31 -113t97 -31
q34 0 58.5 6t40.5 22t23.5 44.5t7.5 73.5v23q0 43 -8 71t-24.5 44t-41 22t-56.5 6t-56 -6t-40 -22t-24 -44t-8 -71v-25zM219.986 584.964q-35.998 0 -35.998 36.998v16.999q0 65.9961 57.9971 120.992q4 4 6.49902 5.5q2.5 1.5 7.5 -2.5l10.999 -8.99902q7 -5 2 -9.99902
q-9.99902 -10 -18.999 -21.999q-8.99902 -11.999 -14.999 -24.999q-2 -3.99902 -2.99902 -6.99902q-1 -3 -1 -7q0 -8.99902 12.999 -15.999q10.999 -4.99902 15.499 -11.999q4.5 -6.99902 4.5 -21.999v-17.998q0 -15.999 -8.5 -22.999q-8.49902 -7 -22.499 -7h-12.999z" />
    <glyph glyph-name="hcircumflex" unicode="&#x125;" horiz-adv-x="498" 
d="M431 8q0 -8 -8 -8h-28q-7 0 -7 8v293q0 83 -30.5 120.5t-105.5 37.5q-63 0 -99.5 -35t-36.5 -109v-307q0 -8 -8 -8h-28q-7 0 -7 8v661q0 8 7 8h28q8 0 8 -8v-237q17 30 54 49t88 19q49 0 82 -12.5t53 -37t29 -61t9 -84.5v-297zM67 833q6 7 15 7h24q9 0 15 -7l111 -122
q8 -8 1 -15l-19 -16q-8 -6 -17 3l-100 103h-6l-100 -103q-10 -10 -17 -3l-19 16q-8 6 1 15z" />
    <glyph glyph-name="hbar" unicode="&#x127;" horiz-adv-x="498" 
d="M431 8q0 -8 -8 -8h-28q-7 0 -7 8v293q0 83 -30.5 120.5t-105.5 37.5q-63 0 -99.5 -35t-36.5 -109v-307q0 -8 -8 -8h-28q-7 0 -7 8v553h-68q-9 0 -9 10v14q0 10 9 10h68v74q0 8 7 8h28q8 0 8 -8v-74h123q9 0 9 -10v-14q0 -10 -9 -10h-123v-129q17 30 54 49t88 19
q49 0 82 -12.5t53 -37t29 -61t9 -84.5v-297z" />
    <glyph glyph-name="dotlessi" unicode="&#x131;" horiz-adv-x="219" 
d="M131 8q0 -8 -8 -8h-28q-7 0 -7 8v474q0 8 7 8h28q8 0 8 -8v-474z" />
    <glyph glyph-name="igrave" unicode="&#xec;" horiz-adv-x="219" 
d="M185 619q8 -5 4 -16l-7 -16q-3 -6 -7 -7t-15 4l-166 75q-21 7 -13 21l13 26q7 15 22 8zM131 8q0 -8 -8 -8h-28q-7 0 -7 8v474q0 8 7 8h28q8 0 8 -8v-474z" />
    <glyph glyph-name="iacute" unicode="&#xed;" horiz-adv-x="219" 
d="M224 713q15 7 22 -8l13 -26q8 -14 -13 -21l-166 -75q-11 -5 -15 -4t-7 7l-7 16q-4 11 4 16zM131 8q0 -8 -8 -8h-28q-7 0 -7 8v474q0 8 7 8h28q8 0 8 -8v-474z" />
    <glyph glyph-name="icircumflex" unicode="&#xee;" horiz-adv-x="219" 
d="M131 8q0 -8 -8 -8h-28q-7 0 -7 8v474q0 8 7 8h28q8 0 8 -8v-474zM83 725q6 7 15 7h24q9 0 15 -7l111 -122q8 -8 1 -15l-19 -16q-8 -6 -17 3l-100 103h-6l-100 -103q-10 -10 -17 -3l-19 16q-8 6 1 15z" />
    <glyph glyph-name="itilde" unicode="&#x129;" horiz-adv-x="219" 
d="M-46 609q-8 5 -2 14q17 36 42.5 54.5t54.5 18.5q16 0 30 -6t29 -17l27 -21q11 -8 18.5 -11.5t18.5 -3.5q15 0 31 15.5t28 35.5q4 5 9 3l21 -14q8 -5 3 -13q-17 -32 -43 -53.5t-55 -21.5q-16 0 -29.5 5t-28.5 17l-26 20q-11 8 -19.5 12.5t-19.5 4.5q-29 0 -57 -50
q-4 -7 -12 -2zM131 8q0 -8 -8 -8h-28q-7 0 -7 8v474q0 8 7 8h28q8 0 8 -8v-474z" />
    <glyph glyph-name="idieresis" unicode="&#xef;" horiz-adv-x="219" 
d="M34 686q20 0 27.5 -6.5t7.5 -25.5v-21q0 -18 -7.5 -24.5t-27.5 -6.5h-10q-20 0 -27 6.5t-7 24.5v21q0 19 7.5 25.5t26.5 6.5h10zM195 686q20 0 27.5 -6.5t7.5 -25.5v-21q0 -18 -7.5 -24.5t-27.5 -6.5h-10q-20 0 -27 6.5t-7 24.5v21q0 19 7.5 25.5t26.5 6.5h10zM131 8
q0 -8 -8 -8h-28q-7 0 -7 8v474q0 8 7 8h28q8 0 8 -8v-474z" />
    <glyph glyph-name="imacron" unicode="&#x12b;" horiz-adv-x="219" 
d="M-4 622q-11 0 -11 11v21q0 12 11 12h229q11 0 11 -12v-21q0 -11 -11 -11h-229zM131 8q0 -8 -8 -8h-28q-7 0 -7 8v474q0 8 7 8h28q8 0 8 -8v-474z" />
    <glyph glyph-name="ibreve" unicode="&#x12d;" horiz-adv-x="219" 
d="M108 571q-23 0 -45.5 6.5t-41 20t-33 33.5t-21.5 48q-4 12 7 15l21 6q12 4 15 -6q12 -42 37.5 -61.5t60.5 -19.5t61.5 19.5t37.5 61.5q3 10 15 6l21 -6q7 -2 8 -5.5t-1 -9.5q-7 -28 -21.5 -48t-33.5 -33.5t-41.5 -20t-45.5 -6.5zM131 8q0 -8 -8 -8h-28q-7 0 -7 8v474
q0 8 7 8h28q8 0 8 -8v-474z" />
    <glyph glyph-name="iogonek" unicode="&#x12f;" horiz-adv-x="219" 
d="M88 482q0 8 7 8h28q8 0 8 -8v-474q0 -8 -8 -13q-32 -22 -49.5 -48.5t-17.5 -54.5q0 -45 51 -45q32 0 54 10q7 4 10 -4l6 -22q2 -5 0.5 -6.5t-6.5 -3.5q-30 -15 -74 -15q-42 0 -64.5 20t-22.5 57q0 39 21.5 68.5t56.5 51.5v479zM145 618q0 -21 -9 -30t-24 -9h-4
q-20 0 -28 9t-8 30v6q0 21 10 29.5t26 8.5h4q15 0 24 -8.5t9 -29.5v-6z" />
    <glyph glyph-name="ij" unicode="&#x133;" horiz-adv-x="440" 
d="M145 618q0 -21 -9 -30t-24 -9h-4q-20 0 -28 9t-8 30v6q0 21 10 29.5t26 8.5h4q15 0 24 -8.5t9 -29.5v-6zM131 8q0 -8 -8 -8h-28q-7 0 -7 8v474q0 8 7 8h28q8 0 8 -8v-474zM365 618q0 -21 -9 -30t-24 -9h-4q-20 0 -28 9t-8 30v6q0 21 10 29.5t26 8.5h4q15 0 24 -8.5
t9 -29.5v-6zM351 1q0 -32 -3.5 -57.5t-13.5 -47.5q-19 -41 -51.5 -57.5t-77.5 -16.5h-35q-9 0 -9 9v23q0 8 8 8h31q66 0 90 40q13 22 15.5 46t2.5 49v485q0 8 7 8h28q8 0 8 -8v-481z" />
    <glyph glyph-name="jcircumflex" unicode="&#x135;" horiz-adv-x="220" 
d="M131 1q0 -32 -3.5 -57.5t-13.5 -47.5q-19 -41 -51.5 -57.5t-77.5 -16.5h-35q-9 0 -9 9v23q0 8 8 8h31q66 0 90 40q13 22 15.5 46t2.5 49v485q0 8 7 8h28q8 0 8 -8v-481zM81 725q6 7 15 7h24q9 0 15 -7l111 -122q8 -8 1 -15l-19 -16q-8 -6 -17 3l-100 103h-6l-100 -103
q-10 -10 -17 -3l-19 16q-8 6 1 15z" />
    <glyph glyph-name="kcommaaccent" unicode="&#x137;" horiz-adv-x="404" 
d="M116 8q0 -8 -8 -8h-28q-7 0 -7 8v661q0 8 7 8h28q8 0 8 -8v-388h53q11 0 19 4t16 17l132 182q4 6 13 6h28q13 0 6 -11l-155 -212q-3 -4 -2.5 -6t2.5 -6l154 -244q7 -11 -6 -11h-27q-9 0 -14 8l-135 215q-6 11 -12 14.5t-17 3.5h-55v-233zM230 -71q36 0 36 -37v-17
q0 -66 -58 -121q-4 -4 -6.5 -5.5t-7.5 2.5l-11 9q-7 5 -2 10q10 10 19 22t15 25q2 4 3 7t1 7q0 9 -13 16q-11 5 -15.5 12t-4.5 22v18q0 16 8.5 23t22.5 7h13z" />
    <glyph glyph-name="kgreenlandic" unicode="&#x138;" horiz-adv-x="404" 
d="M382 11q7 -11 -6 -11h-27q-9 0 -14 8l-135 215q-6 11 -12 14.5t-17 3.5h-55v-233q0 -8 -8 -8h-28q-7 0 -7 8v474q0 8 7 8h28q8 0 8 -8v-201h53q11 0 19 4t16 17l132 182q4 6 13 6h28q13 0 6 -11l-155 -212q-5 -6 0 -12z" />
    <glyph glyph-name="lacute" unicode="&#x13a;" horiz-adv-x="234" 
d="M76 669q0 8 7 8h28q8 0 8 -8v-558q0 -44 11 -57.5t40 -13.5h26q7 0 7 -7v-25q0 -8 -8 -8h-23q-53 0 -74.5 22.5t-21.5 83.5v563zM225 836q15 7 22 -8l13 -26q8 -14 -13 -21l-166 -75q-11 -5 -15 -4t-7 7l-7 16q-4 11 4 16z" />
    <glyph glyph-name="lcaron" unicode="&#x13e;" horiz-adv-x="234" 
d="M217 691q36 0 36 -37v-17q0 -68 -54 -117q-4 -4 -6.5 -5.5t-7.5 2.5l-11 9q-7 5 -2 10q18 18 30 43q2 4 3 7t1 7q0 9 -13 16q-11 5 -15.5 12t-4.5 22v18q0 16 8.5 23t22.5 7h13zM76 669q0 8 7 8h28q8 0 8 -8v-558q0 -44 11 -57.5t40 -13.5h26q7 0 7 -7v-25q0 -8 -8 -8
h-23q-53 0 -74.5 22.5t-21.5 83.5v563z" />
    <glyph glyph-name="lcommaaccent" unicode="&#x13c;" horiz-adv-x="234" 
d="M76 669q0 8 7 8h28q8 0 8 -8v-558q0 -44 11 -57.5t40 -13.5h26q7 0 7 -7v-25q0 -8 -8 -8h-23q-53 0 -74.5 22.5t-21.5 83.5v563zM149 -71q36 0 36 -37v-17q0 -66 -58 -121q-4 -4 -6.5 -5.5t-7.5 2.5l-11 9q-7 5 -2 10q10 10 19 22t15 25q2 4 3 7t1 7q0 9 -13 16
q-11 5 -15.5 12t-4.5 22v18q0 16 8.5 23t22.5 7h13z" />
    <glyph glyph-name="lslash" unicode="&#x142;" horiz-adv-x="234" 
d="M76 311l-75 -50q-13 -9 -13 8v12q0 9 2 12.5t8 8.5l78 52v315q0 8 7 8h28q8 0 8 -8v-287l112 75q13 9 13 -8v-12q0 -9 -2 -12.5t-8 -8.5l-115 -77v-228q0 -44 11 -57.5t40 -13.5h26q7 0 7 -7v-25q0 -8 -8 -8h-23q-53 0 -74.5 22.5t-21.5 83.5v205z" />
    <glyph glyph-name="longs" unicode="&#x17f;" horiz-adv-x="224" 
d="M134 8q0 -8 -8 -8h-28q-7 0 -7 8v442h-63q-6 0 -6 6v19q0 5 6 7l63 8v37q0 33 4 54t14 40t24.5 31.5t32.5 20t37.5 10.5t38.5 3q26 0 45 -2.5t32 -6.5q4 -2 6.5 -3t1.5 -6l-4 -22q-2 -6 -4 -7t-7 0q-14 3 -31 5.5t-34 2.5q-55 0 -79 -20q-20 -17 -27 -40.5t-7 -65.5v-513
z" />
    <glyph glyph-name="ldot" unicode="&#x140;" horiz-adv-x="299" 
d="M76 669q0 8 7 8h28q8 0 8 -8v-558q0 -44 11 -57.5t40 -13.5h26q7 0 7 -7v-25q0 -8 -8 -8h-23q-53 0 -74.5 22.5t-21.5 83.5v563zM186 376q0 24 17 40.5t40 16.5t40 -16.5t17 -40.5t-17 -40.5t-40 -16.5t-40 16.5t-17 40.5z" />
    <glyph glyph-name="nacute" unicode="&#x144;" horiz-adv-x="498" 
d="M431 8q0 -8 -8 -8h-28q-7 0 -7 8v293q0 59 -12 90.5t-38 47.5q-15 9 -34.5 14t-45.5 6q-33 1 -59.5 -6.5t-44.5 -24.5t-28 -45t-10 -68v-307q0 -8 -8 -8h-28q-7 0 -7 8v475q0 7 7 7h22q9 0 9 -8l3 -46h1q18 29 53.5 46t89.5 17q112 0 151 -70q13 -23 17.5 -52.5
t4.5 -71.5v-297zM334 713q15 7 22 -8l13 -26q8 -14 -13 -21l-166 -75q-11 -5 -15 -4t-7 7l-7 16q-4 11 4 16z" />
    <glyph glyph-name="ncaron" unicode="&#x148;" horiz-adv-x="498" 
d="M431 8q0 -8 -8 -8h-28q-7 0 -7 8v293q0 59 -12 90.5t-38 47.5q-15 9 -34.5 14t-45.5 6q-33 1 -59.5 -6.5t-44.5 -24.5t-28 -45t-10 -68v-307q0 -8 -8 -8h-28q-7 0 -7 8v475q0 7 7 7h22q9 0 9 -8l3 -46h1q18 29 53.5 46t89.5 17q112 0 151 -70q13 -23 17.5 -52.5
t4.5 -71.5v-297zM115 696q-9 9 -1 15l19 16q7 7 17 -3l100 -103h6l100 103q9 9 17 3l19 -16q7 -7 -1 -15l-111 -122q-6 -7 -15 -7h-24q-9 0 -15 7z" />
    <glyph glyph-name="ntilde" unicode="&#xf1;" horiz-adv-x="498" 
d="M431 8q0 -8 -8 -8h-28q-7 0 -7 8v293q0 59 -12 90.5t-38 47.5q-15 9 -34.5 14t-45.5 6q-33 1 -59.5 -6.5t-44.5 -24.5t-28 -45t-10 -68v-307q0 -8 -8 -8h-28q-7 0 -7 8v475q0 7 7 7h22q9 0 9 -8l3 -46h1q18 29 53.5 46t89.5 17q112 0 151 -70q13 -23 17.5 -52.5
t4.5 -71.5v-297zM98 609q-8 5 -2 14q17 36 42.5 54.5t54.5 18.5q16 0 30 -6t29 -17l27 -21q11 -8 18.5 -11.5t18.5 -3.5q15 0 31 15.5t28 35.5q4 5 9 3l21 -14q8 -5 3 -13q-17 -32 -43 -53.5t-55 -21.5q-16 0 -29.5 5t-28.5 17l-26 20q-11 8 -19.5 12.5t-19.5 4.5
q-29 0 -57 -50q-4 -7 -12 -2z" />
    <glyph glyph-name="ncommaaccent" unicode="&#x146;" horiz-adv-x="498" 
d="M431 8q0 -8 -8 -8h-28q-7 0 -7 8v293q0 59 -12 90.5t-38 47.5q-15 9 -34.5 14t-45.5 6q-33 1 -59.5 -6.5t-44.5 -24.5t-28 -45t-10 -68v-307q0 -8 -8 -8h-28q-7 0 -7 8v475q0 7 7 7h22q9 0 9 -8l3 -46h1q18 29 53.5 46t89.5 17q112 0 151 -70q13 -23 17.5 -52.5
t4.5 -71.5v-297zM263 -71q36 0 36 -37v-17q0 -66 -58 -121q-4 -4 -6.5 -5.5t-7.5 2.5l-11 9q-7 5 -2 10q10 10 19 22t15 25q2 4 3 7t1 7q0 9 -13 16q-11 5 -15.5 12t-4.5 22v18q0 16 8.5 23t22.5 7h13z" />
    <glyph glyph-name="napostrophe" unicode="&#x149;" horiz-adv-x="498" 
d="M431 8q0 -8 -8 -8h-28q-7 0 -7 8v293q0 59 -12 90.5t-38 47.5q-15 9 -34.5 14t-45.5 6q-33 1 -59.5 -6.5t-44.5 -24.5t-28 -45t-10 -68v-307q0 -8 -8 -8h-28q-7 0 -7 8v475q0 7 7 7h22q9 0 9 -8l3 -46h1q18 29 53.5 46t89.5 17q112 0 151 -70q13 -23 17.5 -52.5
t4.5 -71.5v-297zM-2 669q19 0 29 -9t10 -33v-20q0 -38 -13 -75.5t-39 -75.5q-4 -7 -11 -3l-19 11q-6 3 -1 10q13 20 22.5 40t14.5 37q3 13 -8 18l-12 5q-18 7 -18 29v33q0 33 32 33h13z" />
    <glyph glyph-name="eng" unicode="&#x14b;" horiz-adv-x="498" 
d="M263 -148q-9 0 -9 9v23q0 8 8 8h41q20 0 36 4t27 18q12 15 17 46t5 85v256q0 59 -12 90.5t-38 47.5q-15 9 -34.5 14t-45.5 6q-33 1 -59.5 -6.5t-44.5 -24.5t-28 -45t-10 -68v-307q0 -8 -8 -8h-28q-7 0 -7 8v475q0 7 7 7h22q9 0 9 -8l3 -46h1q18 29 53.5 46t89.5 17
q112 0 151 -70q13 -23 17.5 -52.5t4.5 -71.5v-266q0 -62 -9 -98.5t-28 -56.5q-18 -19 -43.5 -25.5t-57.5 -6.5h-30z" />
    <glyph glyph-name="ograve" unicode="&#xf2;" horiz-adv-x="470" 
d="M94 235q0 -62 6 -96t21 -57q34 -51 114 -51q79 0 114 51q15 23 21 57t6 96v20q0 62 -6 96t-21 57q-35 51 -114 51q-80 0 -114 -51q-15 -23 -21 -57t-6 -96v-20zM420 223q0 -62 -11 -112t-43 -79q-20 -19 -51.5 -30t-79.5 -11t-79.5 11t-51.5 30q-32 29 -43 79t-11 112v44
q0 62 10.5 112t43.5 79q21 18 52 29.5t79 11.5t79.5 -11t51.5 -30q32 -29 43 -79t11 -112v-44zM322 618q8 -5 4 -16l-7 -16q-3 -6 -7 -7t-15 4l-166 75q-21 7 -13 21l13 26q7 15 22 8z" />
    <glyph glyph-name="oacute" unicode="&#xf3;" horiz-adv-x="470" 
d="M94 235q0 -62 6 -96t21 -57q34 -51 114 -51q79 0 114 51q15 23 21 57t6 96v20q0 62 -6 96t-21 57q-35 51 -114 51q-80 0 -114 -51q-15 -23 -21 -57t-6 -96v-20zM420 223q0 -62 -11 -112t-43 -79q-20 -19 -51.5 -30t-79.5 -11t-79.5 11t-51.5 30q-32 29 -43 79t-11 112v44
q0 62 10.5 112t43.5 79q21 18 52 29.5t79 11.5t79.5 -11t51.5 -30q32 -29 43 -79t11 -112v-44zM310 713q15 7 22 -8l13 -26q8 -14 -13 -21l-166 -75q-11 -5 -15 -4t-7 7l-7 16q-4 11 4 16z" />
    <glyph glyph-name="ocircumflex" unicode="&#xf4;" horiz-adv-x="470" 
d="M94 235q0 -62 6 -96t21 -57q34 -51 114 -51q79 0 114 51q15 23 21 57t6 96v20q0 62 -6 96t-21 57q-35 51 -114 51q-80 0 -114 -51q-15 -23 -21 -57t-6 -96v-20zM420 223q0 -62 -11 -112t-43 -79q-20 -19 -51.5 -30t-79.5 -11t-79.5 11t-51.5 30q-32 29 -43 79t-11 112v44
q0 62 10.5 112t43.5 79q21 18 52 29.5t79 11.5t79.5 -11t51.5 -30q32 -29 43 -79t11 -112v-44zM211 725q6 7 15 7h24q9 0 15 -7l111 -122q8 -8 1 -15l-19 -16q-8 -6 -17 3l-100 103h-6l-100 -103q-10 -10 -17 -3l-19 16q-8 6 1 15z" />
    <glyph glyph-name="otilde" unicode="&#xf5;" horiz-adv-x="470" 
d="M94 235q0 -62 6 -96t21 -57q34 -51 114 -51q79 0 114 51q15 23 21 57t6 96v20q0 62 -6 96t-21 57q-35 51 -114 51q-80 0 -114 -51q-15 -23 -21 -57t-6 -96v-20zM420 223q0 -62 -11 -112t-43 -79q-20 -19 -51.5 -30t-79.5 -11t-79.5 11t-51.5 30q-32 29 -43 79t-11 112v44
q0 62 10.5 112t43.5 79q21 18 52 29.5t79 11.5t79.5 -11t51.5 -30q32 -29 43 -79t11 -112v-44zM83 609q-8 5 -2 14q17 36 42.5 54.5t54.5 18.5q16 0 30 -6t29 -17l27 -21q11 -8 18.5 -11.5t18.5 -3.5q15 0 31 15.5t28 35.5q4 5 9 3l21 -14q8 -5 3 -13q-17 -32 -43 -53.5
t-55 -21.5q-16 0 -29.5 5t-28.5 17l-26 20q-11 8 -19.5 12.5t-19.5 4.5q-29 0 -57 -50q-4 -7 -12 -2z" />
    <glyph glyph-name="odieresis" unicode="&#xf6;" horiz-adv-x="470" 
d="M94 235q0 -62 6 -96t21 -57q34 -51 114 -51q79 0 114 51q15 23 21 57t6 96v20q0 62 -6 96t-21 57q-35 51 -114 51q-80 0 -114 -51q-15 -23 -21 -57t-6 -96v-20zM420 223q0 -62 -11 -112t-43 -79q-20 -19 -51.5 -30t-79.5 -11t-79.5 11t-51.5 30q-32 29 -43 79t-11 112v44
q0 62 10.5 112t43.5 79q21 18 52 29.5t79 11.5t79.5 -11t51.5 -30q32 -29 43 -79t11 -112v-44zM160 686q20 0 27.5 -6.5t7.5 -25.5v-21q0 -18 -7.5 -24.5t-27.5 -6.5h-10q-20 0 -27 6.5t-7 24.5v21q0 19 7.5 25.5t26.5 6.5h10zM321 686q20 0 27.5 -6.5t7.5 -25.5v-21
q0 -18 -7.5 -24.5t-27.5 -6.5h-10q-20 0 -27 6.5t-7 24.5v21q0 19 7.5 25.5t26.5 6.5h10z" />
    <glyph glyph-name="omacron" unicode="&#x14d;" horiz-adv-x="470" 
d="M94 235q0 -62 6 -96t21 -57q34 -51 114 -51q79 0 114 51q15 23 21 57t6 96v20q0 62 -6 96t-21 57q-35 51 -114 51q-80 0 -114 -51q-15 -23 -21 -57t-6 -96v-20zM420 223q0 -62 -11 -112t-43 -79q-20 -19 -51.5 -30t-79.5 -11t-79.5 11t-51.5 30q-32 29 -43 79t-11 112v44
q0 62 10.5 112t43.5 79q21 18 52 29.5t79 11.5t79.5 -11t51.5 -30q32 -29 43 -79t11 -112v-44zM123 622q-11 0 -11 11v21q0 12 11 12h229q11 0 11 -12v-21q0 -11 -11 -11h-229z" />
    <glyph glyph-name="obreve" unicode="&#x14f;" horiz-adv-x="470" 
d="M94 235q0 -62 6 -96t21 -57q34 -51 114 -51q79 0 114 51q15 23 21 57t6 96v20q0 62 -6 96t-21 57q-35 51 -114 51q-80 0 -114 -51q-15 -23 -21 -57t-6 -96v-20zM420 223q0 -62 -11 -112t-43 -79q-20 -19 -51.5 -30t-79.5 -11t-79.5 11t-51.5 30q-32 29 -43 79t-11 112v44
q0 62 10.5 112t43.5 79q21 18 52 29.5t79 11.5t79.5 -11t51.5 -30q32 -29 43 -79t11 -112v-44zM238 571q-23 0 -45.5 6.5t-41 20t-33 33.5t-21.5 48q-4 12 7 15l21 6q12 4 15 -6q12 -42 37.5 -61.5t60.5 -19.5t61.5 19.5t37.5 61.5q3 10 15 6l21 -6q7 -2 8 -5.5t-1 -9.5
q-7 -28 -21.5 -48t-33.5 -33.5t-41.5 -20t-45.5 -6.5z" />
    <glyph glyph-name="ohungarumlaut" unicode="&#x151;" horiz-adv-x="470" 
d="M94 235q0 -62 6 -96t21 -57q34 -51 114 -51q79 0 114 51q15 23 21 57t6 96v20q0 62 -6 96t-21 57q-35 51 -114 51q-80 0 -114 -51q-15 -23 -21 -57t-6 -96v-20zM420 223q0 -62 -11 -112t-43 -79q-20 -19 -51.5 -30t-79.5 -11t-79.5 11t-51.5 30q-32 29 -43 79t-11 112v44
q0 62 10.5 112t43.5 79q21 18 52 29.5t79 11.5t79.5 -11t51.5 -30q32 -29 43 -79t11 -112v-44zM237 725q14 12 24 -2l14 -20q10 -14 -6 -25l-150 -97q-9 -6 -15 3l-14 18q-6 8 1 13zM436 725q14 12 24 -2l14 -20q10 -14 -6 -25l-150 -97q-8 -5 -15 3l-14 18q-6 8 1 13z" />
    <glyph glyph-name="oslash" unicode="&#xf8;" horiz-adv-x="470" 
d="M420 223q0 -62 -11 -112t-43 -79q-20 -19 -51.5 -30t-79.5 -11q-33 0 -58 5.5t-44 14.5l-29 -58q-3 -8 -12 -3l-16 8q-8 5 -4 12l31 62q-32 29 -42.5 79t-10.5 112v44q0 62 10.5 112t43.5 79q21 18 52 29.5t79 11.5q30 0 53.5 -5t42.5 -13l30 60q3 7 12 3l16 -8
q8 -5 4 -12l-32 -62l5 -4q32 -29 43 -79t11 -112v-44zM340 419l-187 -368q32 -20 82 -20q79 0 114 51q15 23 21 57t6 96v20q0 62 -6 96t-21 57zM94 235q0 -62 6 -96t21 -57l4 -6l186 366q-31 17 -76 17q-80 0 -114 -51q-15 -23 -21 -57t-6 -96v-20z" />
    <glyph glyph-name="oslashacute" unicode="&#x1ff;" horiz-adv-x="470" 
d="M329 713q15 7 22 -8l13 -26q8 -14 -13 -21l-166 -75q-11 -5 -15 -4t-7 7l-7 16q-4 11 4 16zM420 223q0 -62 -11 -112t-43 -79q-20 -19 -51.5 -30t-79.5 -11q-33 0 -58 5.5t-44 14.5l-29 -58q-3 -8 -12 -3l-16 8q-8 5 -4 12l31 62q-32 29 -42.5 79t-10.5 112v44
q0 62 10.5 112t43.5 79q21 18 52 29.5t79 11.5q30 0 53.5 -5t42.5 -13l30 60q3 7 12 3l16 -8q8 -5 4 -12l-32 -62l5 -4q32 -29 43 -79t11 -112v-44zM340 419l-187 -368q32 -20 82 -20q79 0 114 51q15 23 21 57t6 96v20q0 62 -6 96t-21 57zM94 235q0 -62 6 -96t21 -57l4 -6
l186 366q-31 17 -76 17q-80 0 -114 -51q-15 -23 -21 -57t-6 -96v-20z" />
    <glyph glyph-name="oe" unicode="&#x153;" horiz-adv-x="774" 
d="M722 258q0 -23 -9 -32.5t-32 -9.5h-261q1 -53 9 -88.5t25.5 -57t44 -30.5t65.5 -9q26 0 60 6t60 17q9 4 13 -4l7 -16q2 -5 0.5 -8.5t-9.5 -7.5q-27 -12 -63 -19.5t-68 -7.5q-72 0 -112.5 24t-54.5 70q-15 -42 -55 -68t-107 -26q-48 0 -79.5 11t-51.5 30q-32 29 -43 79
t-11 112v44q0 62 10.5 112t43.5 79q21 18 52 29.5t79 11.5q61 0 102 -22t64 -74q17 50 54 73t100 23q83 0 125 -40t42 -137v-64zM94 235q0 -62 6 -96t21 -57q34 -51 114 -51q79 0 114 51q15 23 21 57t6 96v32v11q-2 51 -7.5 80.5t-19.5 49.5q-35 51 -114 51q-80 0 -114 -51
q-15 -23 -21 -57t-6 -96v-20zM663 258q8 0 11 2t3 14v35q0 84 -29 117t-93 33q-33 0 -58 -9t-41.5 -31.5t-25 -61.5t-9.5 -99h242z" />
    <glyph glyph-name="thorn" unicode="&#xfe;" horiz-adv-x="495" 
d="M118 431q20 33 52.5 50.5t95.5 17.5q53 0 87.5 -14.5t55 -42t28.5 -69t8 -95.5v-58q0 -55 -8 -97.5t-28 -72t-54 -44.5t-85 -15q-33 0 -57.5 4.5t-42 13t-30 20.5t-21.5 27h-3v-226q0 -8 -8 -8h-28q-7 0 -7 8v839q0 8 7 8h28q8 0 8 -8v-238h2zM116 169q0 -66 40 -102
t110 -36q36 0 61.5 8t42 30t24 60t7.5 98v42q0 46 -5.5 81.5t-20.5 59.5t-42 36.5t-70 12.5q-77 0 -112 -36t-35 -102v-152z" />
    <glyph glyph-name="racute" unicode="&#x155;" horiz-adv-x="284" 
d="M227 450q-34 0 -55.5 -10t-33.5 -30q-14 -22 -18 -43.5t-4 -44.5v-314q0 -8 -8 -8h-28q-7 0 -7 8v475q0 7 7 7h20q10 0 11 -8l6 -49h1q14 26 40 41.5t69 15.5h31q8 0 8 -8v-23q0 -9 -9 -9h-30zM264 713q15 7 22 -8l13 -26q8 -14 -13 -21l-166 -75q-11 -5 -15 -4t-7 7
l-7 16q-4 11 4 16z" />
    <glyph glyph-name="rcaron" unicode="&#x159;" horiz-adv-x="284" 
d="M227 450q-34 0 -55.5 -10t-33.5 -30q-14 -22 -18 -43.5t-4 -44.5v-314q0 -8 -8 -8h-28q-7 0 -7 8v475q0 7 7 7h20q10 0 11 -8l6 -49h1q14 26 40 41.5t69 15.5h31q8 0 8 -8v-23q0 -9 -9 -9h-30zM30 696q-9 9 -1 15l19 16q7 7 17 -3l100 -103h6l100 103q9 9 17 3l19 -16
q7 -7 -1 -15l-111 -122q-6 -7 -15 -7h-24q-9 0 -15 7z" />
    <glyph glyph-name="rcommaaccent" unicode="&#x157;" horiz-adv-x="284" 
d="M227 450q-34 0 -55.5 -10t-33.5 -30q-14 -22 -18 -43.5t-4 -44.5v-314q0 -8 -8 -8h-28q-7 0 -7 8v475q0 7 7 7h20q10 0 11 -8l6 -49h1q14 26 40 41.5t69 15.5h31q8 0 8 -8v-23q0 -9 -9 -9h-30zM100 -71q36 0 36 -37v-17q0 -66 -58 -121q-4 -4 -6.5 -5.5t-7.5 2.5l-11 9
q-7 5 -2 10q10 10 19 22t15 25q2 4 3 7t1 7q0 9 -13 16q-11 5 -15.5 12t-4.5 22v18q0 16 8.5 23t22.5 7h13z" />
    <glyph glyph-name="sacute" unicode="&#x15b;" horiz-adv-x="382" 
d="M179 -9q-37 0 -73.5 8t-58.5 17q-5 2 -6.5 4.5t0.5 8.5l5 17q3 9 15 5q29 -10 58.5 -16t63.5 -6q36 0 59 6.5t35.5 19t17 31t4.5 42.5v5q0 26 -3.5 43t-14 28.5t-28.5 18t-48 11.5l-45 8q-69 12 -93 43.5t-24 82.5v4q0 66 40 96.5t115 30.5q29 0 58 -4.5t49 -9.5
q11 -3 8 -13l-4 -16q-2 -9 -14 -6q-23 5 -48 8t-52 3q-58 0 -83.5 -22t-25.5 -66v-4q0 -22 5 -37.5t17 -26t31.5 -17t48.5 -11.5l45 -8q29 -5 50 -14.5t34 -24.5t19 -37.5t6 -53.5v-9q0 -76 -39 -107.5t-124 -31.5zM277 713q15 7 22 -8l13 -26q8 -14 -13 -21l-166 -75
q-11 -5 -15 -4t-7 7l-7 16q-4 11 4 16z" />
    <glyph glyph-name="scircumflex" unicode="&#x15d;" horiz-adv-x="382" 
d="M179 -9q-37 0 -73.5 8t-58.5 17q-5 2 -6.5 4.5t0.5 8.5l5 17q3 9 15 5q29 -10 58.5 -16t63.5 -6q36 0 59 6.5t35.5 19t17 31t4.5 42.5v5q0 26 -3.5 43t-14 28.5t-28.5 18t-48 11.5l-45 8q-69 12 -93 43.5t-24 82.5v4q0 66 40 96.5t115 30.5q29 0 58 -4.5t49 -9.5
q11 -3 8 -13l-4 -16q-2 -9 -14 -6q-23 5 -48 8t-52 3q-58 0 -83.5 -22t-25.5 -66v-4q0 -22 5 -37.5t17 -26t31.5 -17t48.5 -11.5l45 -8q29 -5 50 -14.5t34 -24.5t19 -37.5t6 -53.5v-9q0 -76 -39 -107.5t-124 -31.5zM165 725q6 7 15 7h24q9 0 15 -7l111 -122q8 -8 1 -15
l-19 -16q-8 -6 -17 3l-100 103h-6l-100 -103q-10 -10 -17 -3l-19 16q-8 6 1 15z" />
    <glyph glyph-name="scaron" unicode="&#x161;" horiz-adv-x="382" 
d="M179 -9q-37 0 -73.5 8t-58.5 17q-5 2 -6.5 4.5t0.5 8.5l5 17q3 9 15 5q29 -10 58.5 -16t63.5 -6q36 0 59 6.5t35.5 19t17 31t4.5 42.5v5q0 26 -3.5 43t-14 28.5t-28.5 18t-48 11.5l-45 8q-69 12 -93 43.5t-24 82.5v4q0 66 40 96.5t115 30.5q29 0 58 -4.5t49 -9.5
q11 -3 8 -13l-4 -16q-2 -9 -14 -6q-23 5 -48 8t-52 3q-58 0 -83.5 -22t-25.5 -66v-4q0 -22 5 -37.5t17 -26t31.5 -17t48.5 -11.5l45 -8q29 -5 50 -14.5t34 -24.5t19 -37.5t6 -53.5v-9q0 -76 -39 -107.5t-124 -31.5zM55 696q-9 9 -1 15l19 16q7 7 17 -3l100 -103h6l100 103
q9 9 17 3l19 -16q7 -7 -1 -15l-111 -122q-6 -7 -15 -7h-24q-9 0 -15 7z" />
    <glyph glyph-name="scedilla" unicode="&#x15f;" horiz-adv-x="382" 
d="M149 -104q-3 2 -4 3.5t0 6.5l12 86q-34 2 -64 8t-47 14q-9 4 -6 13l6 19q2 6 5.5 6.5t9.5 -1.5q27 -9 57.5 -14.5t64.5 -5.5q36 0 59 6t35.5 18.5t17 30.5t4.5 42v5q0 26 -4 43t-14.5 27.5t-28.5 17t-47 12.5l-45 8q-69 12 -93 43.5t-24 82.5v5q0 66 40 96.5t115 30.5
q29 0 58 -4t49 -9q11 -2 8 -13l-4 -20q-2 -6 -4.5 -7t-9.5 1q-23 5 -50 8.5t-50 3.5q-58 0 -83.5 -21.5t-25.5 -64.5v-4q0 -22 5 -37.5t17 -26t31.5 -17t48.5 -11.5l45 -8q28 -5 49 -14.5t34 -24.5t19.5 -37.5t6.5 -53.5v-9q0 -72 -35 -103.5t-109 -34.5l-8 -62q7 2 15.5 3
t18.5 1q29 0 47.5 -17t18.5 -55q0 -90 -105 -90q-18 0 -38 3t-31 7q-8 2 -6 10l4 22q2 8 10 5q14 -4 31.5 -6t31.5 -2q29 0 43.5 10.5t14.5 37.5q0 37 -39 37q-11 0 -21.5 -1.5t-17.5 -3.5q-7 -1 -11 1l-7 4v0z" />
    <glyph glyph-name="scommaaccent" unicode="&#x219;" horiz-adv-x="382" 
d="M179 -9q-37 0 -73.5 8t-58.5 17q-5 2 -6.5 4.5t0.5 8.5l5 17q3 9 15 5q29 -10 58.5 -16t63.5 -6q36 0 59 6.5t35.5 19t17 31t4.5 42.5v5q0 26 -3.5 43t-14 28.5t-28.5 18t-48 11.5l-45 8q-69 12 -93 43.5t-24 82.5v4q0 66 40 96.5t115 30.5q29 0 58 -4.5t49 -9.5
q11 -3 8 -13l-4 -16q-2 -9 -14 -6q-23 5 -48 8t-52 3q-58 0 -83.5 -22t-25.5 -66v-4q0 -22 5 -37.5t17 -26t31.5 -17t48.5 -11.5l45 -8q29 -5 50 -14.5t34 -24.5t19 -37.5t6 -53.5v-9q0 -76 -39 -107.5t-124 -31.5zM202 -71q36 0 36 -37v-17q0 -66 -58 -121q-4 -4 -6.5 -5.5
t-7.5 2.5l-11 9q-7 5 -2 10q10 10 19 22t15 25q2 4 3 7t1 7q0 9 -13 16q-11 5 -15.5 12t-4.5 22v18q0 16 8.5 23t22.5 7h13z" />
    <glyph glyph-name="germandbls" unicode="&#xdf;" horiz-adv-x="488" 
d="M73 516q0 170 167 170q35 0 65 -9t52.5 -27.5t35.5 -48t13 -69.5v-14q0 -55 -24 -96.5t-73 -56.5v-3q72 -7 103 -49t31 -117v-11q0 -51 -8.5 -87.5t-29 -60t-55 -35t-85.5 -11.5q-26 0 -53.5 4t-48.5 11q-5 2 -6 4t0 7l4 20q1 8 10 6q21 -6 45.5 -9t50.5 -3
q39 0 64.5 8.5t40.5 27t21 48t6 71.5v5q0 82 -37.5 114.5t-120.5 32.5h-34q-11 0 -11 10v18q0 12 11 12h23q35 0 60 11.5t41 31t23.5 44.5t7.5 52v9q0 60 -31.5 90t-91.5 30q-66 0 -94.5 -34t-28.5 -117v-543q0 -8 -8 -8h-28q-7 0 -7 8v564z" />
    <glyph glyph-name="tcaron" unicode="&#x165;" horiz-adv-x="294" 
d="M265 677q36 0 36 -37v-17q0 -65 -41 -106q-4 -4 -6.5 -5.5t-7.5 2.5l-13 10q-7 5 -2 10t9.5 12t9.5 16q4 8 4 17t-13 16q-11 5 -15.5 12t-4.5 22v18q0 16 8.5 23t22.5 7h13zM85 607q0 8 8 8h27q8 0 8 -8v-117h122q8 0 8 -7v-26q0 -7 -8 -7h-122v-291q0 -35 2.5 -57
t16.5 -38q11 -12 31 -19t54 -7h30q8 0 8 -8v-22q0 -8 -8 -8h-36q-45 0 -73 11.5t-42 28.5q-17 22 -21.5 47t-4.5 67v296h-70q-6 0 -6 6v19q0 5 6 7l70 8v117z" />
    <glyph glyph-name="tcommaaccent" unicode="&#x163;" horiz-adv-x="294" 
d="M85 607q0 8 8 8h27q8 0 8 -8v-117h122q8 0 8 -7v-26q0 -7 -8 -7h-122v-291q0 -35 2.5 -57t16.5 -38q11 -12 31 -19t54 -7h30q8 0 8 -8v-22q0 -8 -8 -8h-36q-45 0 -73 11.5t-42 28.5q-17 22 -21.5 47t-4.5 67v296h-70q-6 0 -6 6v19q0 5 6 7l70 8v117zM194 -71q36 0 36 -37
v-17q0 -66 -58 -121q-4 -4 -6.5 -5.5t-7.5 2.5l-11 9q-7 5 -2 10q10 10 19 22t15 25q2 4 3 7t1 7q0 9 -13 16q-11 5 -15.5 12t-4.5 22v18q0 16 8.5 23t22.5 7h13z" />
    <glyph glyph-name="uni021B" unicode="&#x21b;" horiz-adv-x="294" 
d="M85 607q0 8 8 8h27q8 0 8 -8v-117h122q8 0 8 -7v-26q0 -7 -8 -7h-122v-291q0 -35 2.5 -57t16.5 -38q11 -12 31 -19t54 -7h30q8 0 8 -8v-22q0 -8 -8 -8h-36q-45 0 -73 11.5t-42 28.5q-17 22 -21.5 47t-4.5 67v296h-70q-6 0 -6 6v19q0 5 6 7l70 8v117zM194 -71q36 0 36 -37
v-17q0 -66 -58 -121q-4 -4 -6.5 -5.5t-7.5 2.5l-11 9q-7 5 -2 10q10 10 19 22t15 25q2 4 3 7t1 7q0 9 -13 16q-11 5 -15.5 12t-4.5 22v18q0 16 8.5 23t22.5 7h13z" />
    <glyph glyph-name="tbar" unicode="&#x167;" horiz-adv-x="294" 
d="M128 270v-111q0 -35 2.5 -57t16.5 -38q11 -12 31 -19t54 -7h30q8 0 8 -8v-22q0 -8 -8 -8h-36q-45 0 -73 11.5t-42 28.5q-17 22 -21.5 47t-4.5 67v116h-70q-6 0 -6 6v19q0 5 6 7l70 8v140h-70q-6 0 -6 6v19q0 5 6 7l70 8v117q0 8 8 8h27q8 0 8 -8v-117h122q8 0 8 -7v-26
q0 -7 -8 -7h-122v-140h122q8 0 8 -7v-26q0 -7 -8 -7h-122z" />
    <glyph glyph-name="ugrave" unicode="&#xf9;" horiz-adv-x="482" 
d="M241 29q41 0 63.5 6.5t39.5 21.5q14 13 20.5 35t6.5 61v329q0 8 8 8h27q8 0 8 -8v-335q0 -42 -8.5 -70.5t-30.5 -48.5q-20 -18 -51 -27.5t-83 -9.5t-83 9.5t-51 27.5q-22 20 -30.5 48.5t-8.5 70.5v335q0 8 8 8h27q8 0 8 -8v-329q0 -39 6.5 -61t20.5 -35
q17 -15 39.5 -21.5t63.5 -6.5zM324 618q8 -5 4 -16l-7 -16q-3 -6 -7 -7t-15 4l-166 75q-21 7 -13 21l13 26q7 15 22 8z" />
    <glyph glyph-name="uacute" unicode="&#xfa;" horiz-adv-x="482" 
d="M241 29q41 0 63.5 6.5t39.5 21.5q14 13 20.5 35t6.5 61v329q0 8 8 8h27q8 0 8 -8v-335q0 -42 -8.5 -70.5t-30.5 -48.5q-20 -18 -51 -27.5t-83 -9.5t-83 9.5t-51 27.5q-22 20 -30.5 48.5t-8.5 70.5v335q0 8 8 8h27q8 0 8 -8v-329q0 -39 6.5 -61t20.5 -35
q17 -15 39.5 -21.5t63.5 -6.5zM328 713q15 7 22 -8l13 -26q8 -14 -13 -21l-166 -75q-11 -5 -15 -4t-7 7l-7 16q-4 11 4 16z" />
    <glyph glyph-name="ucircumflex" unicode="&#xfb;" horiz-adv-x="482" 
d="M241 29q41 0 63.5 6.5t39.5 21.5q14 13 20.5 35t6.5 61v329q0 8 8 8h27q8 0 8 -8v-335q0 -42 -8.5 -70.5t-30.5 -48.5q-20 -18 -51 -27.5t-83 -9.5t-83 9.5t-51 27.5q-22 20 -30.5 48.5t-8.5 70.5v335q0 8 8 8h27q8 0 8 -8v-329q0 -39 6.5 -61t20.5 -35
q17 -15 39.5 -21.5t63.5 -6.5zM215 725q6 7 15 7h24q9 0 15 -7l111 -122q8 -8 1 -15l-19 -16q-8 -6 -17 3l-100 103h-6l-100 -103q-10 -10 -17 -3l-19 16q-8 6 1 15z" />
    <glyph glyph-name="utilde" unicode="&#x169;" horiz-adv-x="482" 
d="M241 29q41 0 63.5 6.5t39.5 21.5q14 13 20.5 35t6.5 61v329q0 8 8 8h27q8 0 8 -8v-335q0 -42 -8.5 -70.5t-30.5 -48.5q-20 -18 -51 -27.5t-83 -9.5t-83 9.5t-51 27.5q-22 20 -30.5 48.5t-8.5 70.5v335q0 8 8 8h27q8 0 8 -8v-329q0 -39 6.5 -61t20.5 -35
q17 -15 39.5 -21.5t63.5 -6.5zM87 609q-8 5 -2 14q17 36 42.5 54.5t54.5 18.5q16 0 30 -6t29 -17l27 -21q11 -8 18.5 -11.5t18.5 -3.5q15 0 31 15.5t28 35.5q4 5 9 3l21 -14q8 -5 3 -13q-17 -32 -43 -53.5t-55 -21.5q-16 0 -29.5 5t-28.5 17l-26 20q-11 8 -19.5 12.5
t-19.5 4.5q-29 0 -57 -50q-4 -7 -12 -2z" />
    <glyph glyph-name="udieresis" unicode="&#xfc;" horiz-adv-x="482" 
d="M241 29q41 0 63.5 6.5t39.5 21.5q14 13 20.5 35t6.5 61v329q0 8 8 8h27q8 0 8 -8v-335q0 -42 -8.5 -70.5t-30.5 -48.5q-20 -18 -51 -27.5t-83 -9.5t-83 9.5t-51 27.5q-22 20 -30.5 48.5t-8.5 70.5v335q0 8 8 8h27q8 0 8 -8v-329q0 -39 6.5 -61t20.5 -35
q17 -15 39.5 -21.5t63.5 -6.5zM167 686q20 0 27.5 -6.5t7.5 -25.5v-21q0 -18 -7.5 -24.5t-27.5 -6.5h-10q-20 0 -27 6.5t-7 24.5v21q0 19 7.5 25.5t26.5 6.5h10zM328 686q20 0 27.5 -6.5t7.5 -25.5v-21q0 -18 -7.5 -24.5t-27.5 -6.5h-10q-20 0 -27 6.5t-7 24.5v21
q0 19 7.5 25.5t26.5 6.5h10z" />
    <glyph glyph-name="umacron" unicode="&#x16b;" horiz-adv-x="482" 
d="M241 29q41 0 63.5 6.5t39.5 21.5q14 13 20.5 35t6.5 61v329q0 8 8 8h27q8 0 8 -8v-335q0 -42 -8.5 -70.5t-30.5 -48.5q-20 -18 -51 -27.5t-83 -9.5t-83 9.5t-51 27.5q-22 20 -30.5 48.5t-8.5 70.5v335q0 8 8 8h27q8 0 8 -8v-329q0 -39 6.5 -61t20.5 -35
q17 -15 39.5 -21.5t63.5 -6.5zM128 622q-11 0 -11 11v21q0 12 11 12h229q11 0 11 -12v-21q0 -11 -11 -11h-229z" />
    <glyph glyph-name="ubreve" unicode="&#x16d;" horiz-adv-x="482" 
d="M241 29q41 0 63.5 6.5t39.5 21.5q14 13 20.5 35t6.5 61v329q0 8 8 8h27q8 0 8 -8v-335q0 -42 -8.5 -70.5t-30.5 -48.5q-20 -18 -51 -27.5t-83 -9.5t-83 9.5t-51 27.5q-22 20 -30.5 48.5t-8.5 70.5v335q0 8 8 8h27q8 0 8 -8v-329q0 -39 6.5 -61t20.5 -35
q17 -15 39.5 -21.5t63.5 -6.5zM240 571q-23 0 -45.5 6.5t-41 20t-33 33.5t-21.5 48q-4 12 7 15l21 6q12 4 15 -6q12 -42 37.5 -61.5t60.5 -19.5t61.5 19.5t37.5 61.5q3 10 15 6l21 -6q7 -2 8 -5.5t-1 -9.5q-7 -28 -21.5 -48t-33.5 -33.5t-41.5 -20t-45.5 -6.5z" />
    <glyph glyph-name="uring" unicode="&#x16f;" horiz-adv-x="482" 
d="M241 29q41 0 63.5 6.5t39.5 21.5q14 13 20.5 35t6.5 61v329q0 8 8 8h27q8 0 8 -8v-335q0 -42 -8.5 -70.5t-30.5 -48.5q-20 -18 -51 -27.5t-83 -9.5t-83 9.5t-51 27.5q-22 20 -30.5 48.5t-8.5 70.5v335q0 8 8 8h27q8 0 8 -8v-329q0 -39 6.5 -61t20.5 -35
q17 -15 39.5 -21.5t63.5 -6.5zM151 639q0 44 27 66.5t64 22.5q38 0 64.5 -22.5t26.5 -66.5t-26.5 -66.5t-64.5 -22.5q-37 0 -64 22.5t-27 66.5zM194 639q0 -24 14 -36.5t34 -12.5q21 0 34.5 12.5t13.5 36.5t-13.5 36.5t-34.5 12.5q-20 0 -34 -12.5t-14 -36.5z" />
    <glyph glyph-name="uhungarumlaut" unicode="&#x171;" horiz-adv-x="482" 
d="M241 29q41 0 63.5 6.5t39.5 21.5q14 13 20.5 35t6.5 61v329q0 8 8 8h27q8 0 8 -8v-335q0 -42 -8.5 -70.5t-30.5 -48.5q-20 -18 -51 -27.5t-83 -9.5t-83 9.5t-51 27.5q-22 20 -30.5 48.5t-8.5 70.5v335q0 8 8 8h27q8 0 8 -8v-329q0 -39 6.5 -61t20.5 -35
q17 -15 39.5 -21.5t63.5 -6.5zM244 725q14 12 24 -2l14 -20q10 -14 -6 -25l-150 -97q-9 -6 -15 3l-14 18q-6 8 1 13zM443 725q14 12 24 -2l14 -20q10 -14 -6 -25l-150 -97q-8 -5 -15 3l-14 18q-6 8 1 13z" />
    <glyph glyph-name="uogonek" unicode="&#x173;" horiz-adv-x="482" 
d="M241 29q41 0 63.5 6t39.5 20q15 12 21 35.5t6 62.5v329q0 8 8 8h27q8 0 8 -8v-335q0 -42 -8 -69.5t-26 -44.5t-34 -24t-32 -18q-26 -17 -44 -44t-18 -55q0 -45 51 -45q32 0 54 10q7 4 10 -4l6 -22q2 -5 0.5 -6.5t-6.5 -3.5q-30 -15 -74 -15q-42 0 -64.5 20t-22.5 57
q0 33 18 62.5t47 46.5q-6 -1 -14.5 -1h-15.5q-52 0 -83 9.5t-51 27.5q-22 20 -30.5 48.5t-8.5 70.5v335q0 8 8 8h27q8 0 8 -8v-329q0 -39 6.5 -61t20.5 -35q17 -15 39.5 -21.5t63.5 -6.5z" />
    <glyph glyph-name="wgrave" unicode="&#x1e81;" horiz-adv-x="656" 
d="M335 466q15 0 22.5 -4t10.5 -17q25 -101 52 -205t53 -198h11q31 108 57.5 218t46.5 222q1 8 10 8h24q11 0 10 -10q-22 -115 -48.5 -228.5t-60.5 -222.5q-5 -17 -13 -23t-24 -6h-15q-18 0 -25 7.5t-12 21.5q-13 44 -26.5 94t-27 101t-25.5 100.5t-22 93.5h-10
q-10 -44 -22 -93.5t-25.5 -100.5t-27 -101t-26.5 -94q-5 -14 -12 -21.5t-25 -7.5h-15q-16 0 -24 6t-13 23q-34 109 -60.5 222.5t-48.5 228.5q-2 8 0.5 9t9.5 1h24q5 0 7 -1t4 -7q20 -112 46 -222t57 -218h11q26 94 53 198t52 205q3 13 10.5 17t22.5 4h14zM405 618
q8 -5 4 -16l-7 -16q-3 -6 -7 -7t-15 4l-166 75q-21 7 -13 21l13 26q7 15 22 8z" />
    <glyph glyph-name="wacute" unicode="&#x1e83;" horiz-adv-x="656" 
d="M335 466q15 0 22.5 -4t10.5 -17q25 -101 52 -205t53 -198h11q31 108 57.5 218t46.5 222q1 8 10 8h24q11 0 10 -10q-22 -115 -48.5 -228.5t-60.5 -222.5q-5 -17 -13 -23t-24 -6h-15q-18 0 -25 7.5t-12 21.5q-13 44 -26.5 94t-27 101t-25.5 100.5t-22 93.5h-10
q-10 -44 -22 -93.5t-25.5 -100.5t-27 -101t-26.5 -94q-5 -14 -12 -21.5t-25 -7.5h-15q-16 0 -24 6t-13 23q-34 109 -60.5 222.5t-48.5 228.5q-2 8 0.5 9t9.5 1h24q5 0 7 -1t4 -7q20 -112 46 -222t57 -218h11q26 94 53 198t52 205q3 13 10.5 17t22.5 4h14zM426 713
q15 7 22 -8l13 -26q8 -14 -13 -21l-166 -75q-11 -5 -15 -4t-7 7l-7 16q-4 11 4 16z" />
    <glyph glyph-name="wcircumflex" unicode="&#x175;" horiz-adv-x="656" 
d="M335 466q15 0 22.5 -4t10.5 -17q25 -101 52 -205t53 -198h11q31 108 57.5 218t46.5 222q1 8 10 8h24q11 0 10 -10q-22 -115 -48.5 -228.5t-60.5 -222.5q-5 -17 -13 -23t-24 -6h-15q-18 0 -25 7.5t-12 21.5q-13 44 -26.5 94t-27 101t-25.5 100.5t-22 93.5h-10
q-10 -44 -22 -93.5t-25.5 -100.5t-27 -101t-26.5 -94q-5 -14 -12 -21.5t-25 -7.5h-15q-16 0 -24 6t-13 23q-34 109 -60.5 222.5t-48.5 228.5q-2 8 0.5 9t9.5 1h24q5 0 7 -1t4 -7q20 -112 46 -222t57 -218h11q26 94 53 198t52 205q3 13 10.5 17t22.5 4h14zM302 725q6 7 15 7
h24q9 0 15 -7l111 -122q8 -8 1 -15l-19 -16q-8 -6 -17 3l-100 103h-6l-100 -103q-10 -10 -17 -3l-19 16q-8 6 1 15z" />
    <glyph glyph-name="wdieresis" unicode="&#x1e85;" horiz-adv-x="656" 
d="M335 466q15 0 22.5 -4t10.5 -17q25 -101 52 -205t53 -198h11q31 108 57.5 218t46.5 222q1 8 10 8h24q11 0 10 -10q-22 -115 -48.5 -228.5t-60.5 -222.5q-5 -17 -13 -23t-24 -6h-15q-18 0 -25 7.5t-12 21.5q-13 44 -26.5 94t-27 101t-25.5 100.5t-22 93.5h-10
q-10 -44 -22 -93.5t-25.5 -100.5t-27 -101t-26.5 -94q-5 -14 -12 -21.5t-25 -7.5h-15q-16 0 -24 6t-13 23q-34 109 -60.5 222.5t-48.5 228.5q-2 8 0.5 9t9.5 1h24q5 0 7 -1t4 -7q20 -112 46 -222t57 -218h11q26 94 53 198t52 205q3 13 10.5 17t22.5 4h14zM252 686
q20 0 27.5 -6.5t7.5 -25.5v-21q0 -18 -7.5 -24.5t-27.5 -6.5h-10q-20 0 -27 6.5t-7 24.5v21q0 19 7.5 25.5t26.5 6.5h10zM413 686q20 0 27.5 -6.5t7.5 -25.5v-21q0 -18 -7.5 -24.5t-27.5 -6.5h-10q-20 0 -27 6.5t-7 24.5v21q0 19 7.5 25.5t26.5 6.5h10z" />
    <glyph glyph-name="ygrave" unicode="&#x1ef3;" horiz-adv-x="406" 
d="M225 53q32 85 61.5 190t52.5 239q1 8 10 8h26q10 0 7 -10q-28 -129 -52.5 -222t-48.5 -167t-50 -137.5t-57 -133.5q-4 -10 -13 -6l-23 10q-8 4 -4 12q22 44 41 87.5t36 89.5q-26 1 -42 13t-29 46q-16 44 -30.5 88t-28 93t-27.5 104.5t-30 122.5q-3 10 7 10h26q9 0 11 -9
q6 -26 15 -64.5t21.5 -86.5t28.5 -102.5t34 -111.5q6 -18 11 -30.5t10.5 -19.5t13 -10t18.5 -3h5v0zM293 618q8 -5 4 -16l-7 -16q-3 -6 -7 -7t-15 4l-166 75q-21 7 -13 21l13 26q7 15 22 8z" />
    <glyph glyph-name="yacute" unicode="&#xfd;" horiz-adv-x="406" 
d="M225 53q32 85 61.5 190t52.5 239q1 8 10 8h26q10 0 7 -10q-28 -129 -52.5 -222t-48.5 -167t-50 -137.5t-57 -133.5q-4 -10 -13 -6l-23 10q-8 4 -4 12q22 44 41 87.5t36 89.5q-26 1 -42 13t-29 46q-16 44 -30.5 88t-28 93t-27.5 104.5t-30 122.5q-3 10 7 10h26q9 0 11 -9
q6 -26 15 -64.5t21.5 -86.5t28.5 -102.5t34 -111.5q6 -18 11 -30.5t10.5 -19.5t13 -10t18.5 -3h5v0zM304 713q15 7 22 -8l13 -26q8 -14 -13 -21l-166 -75q-11 -5 -15 -4t-7 7l-7 16q-4 11 4 16z" />
    <glyph glyph-name="ycircumflex" unicode="&#x177;" horiz-adv-x="406" 
d="M225 53q32 85 61.5 190t52.5 239q1 8 10 8h26q10 0 7 -10q-28 -129 -52.5 -222t-48.5 -167t-50 -137.5t-57 -133.5q-4 -10 -13 -6l-23 10q-8 4 -4 12q22 44 41 87.5t36 89.5q-26 1 -42 13t-29 46q-16 44 -30.5 88t-28 93t-27.5 104.5t-30 122.5q-3 10 7 10h26q9 0 11 -9
q6 -26 15 -64.5t21.5 -86.5t28.5 -102.5t34 -111.5q6 -18 11 -30.5t10.5 -19.5t13 -10t18.5 -3h5v0zM185 725q6 7 15 7h24q9 0 15 -7l111 -122q8 -8 1 -15l-19 -16q-8 -6 -17 3l-100 103h-6l-100 -103q-10 -10 -17 -3l-19 16q-8 6 1 15z" />
    <glyph glyph-name="ydieresis" unicode="&#xff;" horiz-adv-x="406" 
d="M225 53q32 85 61.5 190t52.5 239q1 8 10 8h26q10 0 7 -10q-28 -129 -52.5 -222t-48.5 -167t-50 -137.5t-57 -133.5q-4 -10 -13 -6l-23 10q-8 4 -4 12q22 44 41 87.5t36 89.5q-26 1 -42 13t-29 46q-16 44 -30.5 88t-28 93t-27.5 104.5t-30 122.5q-3 10 7 10h26q9 0 11 -9
q6 -26 15 -64.5t21.5 -86.5t28.5 -102.5t34 -111.5q6 -18 11 -30.5t10.5 -19.5t13 -10t18.5 -3h5v0zM132 686q20 0 27.5 -6.5t7.5 -25.5v-21q0 -18 -7.5 -24.5t-27.5 -6.5h-10q-20 0 -27 6.5t-7 24.5v21q0 19 7.5 25.5t26.5 6.5h10zM293 686q20 0 27.5 -6.5t7.5 -25.5v-21
q0 -18 -7.5 -24.5t-27.5 -6.5h-10q-20 0 -27 6.5t-7 24.5v21q0 19 7.5 25.5t26.5 6.5h10z" />
    <glyph glyph-name="zacute" unicode="&#x17a;" horiz-adv-x="386" 
d="M93 40h246q7 0 7 -7v-26q0 -7 -7 -7h-291q-8 0 -8 7v12q0 8 3.5 16.5t13.5 24.5l243 390h-243q-8 0 -8 7v26q0 7 8 7h289q8 0 8 -7v-10q0 -8 -3.5 -17t-14.5 -28zM290 713q15 7 22 -8l13 -26q8 -14 -13 -21l-166 -75q-11 -5 -15 -4t-7 7l-7 16q-4 11 4 16z" />
    <glyph glyph-name="zcaron" unicode="&#x17e;" horiz-adv-x="386" 
d="M93 40h246q7 0 7 -7v-26q0 -7 -7 -7h-291q-8 0 -8 7v12q0 8 3.5 16.5t13.5 24.5l243 390h-243q-8 0 -8 7v26q0 7 8 7h289q8 0 8 -7v-10q0 -8 -3.5 -17t-14.5 -28zM68 696q-9 9 -1 15l19 16q7 7 17 -3l100 -103h6l100 103q9 9 17 3l19 -16q7 -7 -1 -15l-111 -122
q-6 -7 -15 -7h-24q-9 0 -15 7z" />
    <glyph glyph-name="zdotaccent" unicode="&#x17c;" horiz-adv-x="386" 
d="M93 40h246q7 0 7 -7v-26q0 -7 -7 -7h-291q-8 0 -8 7v12q0 8 3.5 16.5t13.5 24.5l243 390h-243q-8 0 -8 7v26q0 7 8 7h289q8 0 8 -7v-10q0 -8 -3.5 -17t-14.5 -28zM149 643q0 24 17 40.5t40 16.5t40 -16.5t17 -40.5t-17 -40.5t-40 -16.5t-40 16.5t-17 40.5z" />
    <glyph glyph-name="apple" unicode="&#xf8ff;" horiz-adv-x="575" 
d="M228 199v64h193v63h-193v192h255v-64h-191v-64h191v-191h-255zM164 583v-519h72v-64h-136v647h383v-64h-319z" />
  </font>
</defs>
</svg>
