<?xml version="1.0" standalone="no"?>
<!DOCTYPE svg PUBLIC "-//W3C//DTD SVG 1.1//EN" "http://www.w3.org/Graphics/SVG/1.1/DTD/svg11.dtd" >
<svg xmlns="http://www.w3.org/2000/svg">
<metadata>
Copyright (c) 2011 by Fontsmith Ltd. All rights reserved.
</metadata>
<defs>
<font id="FSJoeyWeb-Medium" horiz-adv-x="530" >
  <font-face 
    font-family="FS Joey Web Medium"
    font-weight="500"
    font-stretch="normal"
    units-per-em="1000"
    panose-1="2 0 6 6 4 0 0 2 0 4"
    ascent="750"
    descent="-250"
    x-height="490"
    cap-height="647"
    bbox="-175 -272 1084 1061"
    underline-thickness="50"
    underline-position="-50"
    unicode-range="U+000D-FB02"
  />
<missing-glyph horiz-adv-x="535" 
d="M20 693h495v-693h-495v693zM436 644h-337l169 -253zM466 94v505l-169 -252zM436 50l-168 252l-169 -252h337zM70 94l168 253l-168 252v-505z" />
    <glyph glyph-name="fi" unicode="fi" horiz-adv-x="533" 
d="M461 18q0 -11 -4.5 -14.5t-15.5 -3.5h-52q-11 0 -15.5 3.5t-4.5 14.5v393h-188v-393q0 -11 -4.5 -14.5t-15.5 -3.5h-52q-11 0 -15.5 3.5t-4.5 14.5v393h-56q-17 0 -17 17v31q0 9 3 12t12 5l58 11v35q0 90 51.5 126.5t146.5 36.5q33 0 68 -4.5t56 -10.5q13 -4 13 -13
q0 -7 -5 -30l-4 -19q-2 -8 -5 -10t-8 -2t-21 3t-41 6.5t-51 3.5q-59 0 -83.5 -19.5t-24.5 -72.5v-27h261q11 0 15 -4t4 -14v-454z" />
    <glyph glyph-name="fl" unicode="fl" horiz-adv-x="574" 
d="M463 132q0 -29 7.5 -41.5t33.5 -12.5h25q9 0 13 -3t4 -14v-43q0 -18 -16 -18h-43q-63 0 -89.5 26.5t-26.5 91.5v479q-17 7 -40.5 10t-45.5 3q-59 0 -81.5 -20t-22.5 -72v-28h100q17 0 17 -16v-48q0 -8 -3 -11.5t-14 -3.5h-100v-393q0 -11 -4.5 -14.5t-15.5 -3.5h-52
q-11 0 -15.5 3.5t-4.5 14.5v393h-57q-10 0 -13 4t-3 12v32q0 9 3 12t12 5l58 11v35q0 87 46 125.5t136 38.5q29 0 58 -4t54 -11l60 6q11 1 15.5 -2.5t4.5 -14.5v-528z" />
    <glyph glyph-name=".notdef" horiz-adv-x="535" 
d="M20 693h495v-693h-495v693zM436 644h-337l169 -253zM466 94v505l-169 -252zM436 50l-168 252l-169 -252h337zM70 94l168 253l-168 252v-505z" />
    <glyph glyph-name=".null" horiz-adv-x="0" 
 />
    <glyph glyph-name=".null" horiz-adv-x="0" 
 />
    <glyph glyph-name="nonmarkingreturn" unicode="&#xd;" horiz-adv-x="224" 
 />
    <glyph glyph-name="space" unicode=" " horiz-adv-x="224" 
 />
    <glyph glyph-name="nonbreakingspace" unicode="&#xa0;" horiz-adv-x="224" 
 />
    <glyph glyph-name="A" unicode="A" horiz-adv-x="548" 
d="M295 647q25 0 35 -5.5t18 -26.5q21 -60 44 -129t46 -142.5t45 -149.5t43 -151q2 -8 4.5 -16t2.5 -15q0 -12 -20 -12h-48q-17 0 -23.5 3.5t-10.5 17.5q-8 34 -19 74.5t-22 79.5h-232q-11 -39 -22 -79.5t-19 -74.5q-4 -14 -10.5 -17.5t-23.5 -3.5h-48q-20 0 -20 12
q0 7 2.5 15t4.5 16q21 75 43 151t45 149.5t46 142.5t44 129q8 21 18 26.5t35 5.5h42zM271 550q-23 -69 -46 -144.5t-44 -147.5h186q-21 72 -44 147.5t-46 144.5h-6z" />
    <glyph glyph-name="B" unicode="B" horiz-adv-x="536" 
d="M229 656q109 0 167.5 -38.5t58.5 -122.5v-11q0 -50 -22 -86t-63 -50v-1q57 -11 91 -48t34 -100v-11q0 -101 -67.5 -144.5t-190.5 -43.5q-39 0 -74 1t-64 3q-17 2 -23.5 9t-6.5 24v573q0 18 5.5 25t22.5 10q29 5 63.5 8t68.5 3zM167 298v-199q0 -11 5 -14.5t13 -4.5
q13 -1 28 -1h30q35 0 63 5t47.5 17.5t30 33t10.5 51.5v10q0 57 -35 79.5t-114 22.5h-78zM178 573q-6 -2 -8.5 -4.5t-2.5 -10.5v-183h59q68 0 98 23t30 80v9q0 50 -28.5 70t-86.5 20q-20 0 -35.5 -1t-25.5 -3z" />
    <glyph glyph-name="C" unicode="C" horiz-adv-x="518" 
d="M471 611q10 -6 10 -13q0 -8 -8 -24l-15 -30q-5 -9 -13 -9q-5 0 -13 4q-30 17 -63 27t-70 10q-73 0 -106 -36q-11 -12 -18.5 -27t-12.5 -38.5t-7.5 -57t-2.5 -82.5v-23q0 -48 1.5 -81t5.5 -56t11 -38t18 -27q19 -21 48.5 -30t74.5 -9q31 0 66.5 7.5t61.5 16.5q5 2 9 3t7 1
q9 0 12 -9l6 -19q5 -15 6 -21t1 -11q0 -11 -12 -15q-34 -13 -81 -23t-90 -10q-72 0 -117 15t-71 43q-17 18 -28.5 40t-18 51.5t-9 68.5t-2.5 91v46q0 59 4.5 101.5t14 73t25 52t37.5 38.5q30 23 71.5 34t94.5 11q48 0 93 -12.5t80 -32.5z" />
    <glyph glyph-name="D" unicode="D" horiz-adv-x="599" 
d="M228 0h-66.5t-62.5 1q-17 1 -23.5 7.5t-6.5 22.5v583q0 17 6 24.5t23 9.5q30 3 61.5 4.5t67.5 1.5q83 0 143.5 -15.5t100 -50.5t58.5 -93t19 -143v-53q0 -79 -16.5 -135.5t-54 -93t-98.5 -53.5t-151 -17zM237 575q-14 0 -30.5 -0.5t-24.5 -1.5q-15 -1 -15 -17v-460
q0 -18 18 -18h56q55 0 94.5 10.5t64 37t36 71.5t11.5 114v29q0 69 -11.5 114t-36.5 72t-65 38t-97 11z" />
    <glyph glyph-name="E" unicode="E" horiz-adv-x="486" 
d="M193 0q-32 0 -55 4.5t-38.5 17.5t-24 35.5t-11.5 57.5q-4 42 -6 94t-2 97v39v45t0.5 51t2 51t3.5 46q3 32 12 53t24.5 33.5t39 17.5t56.5 5h230q13 0 16.5 -4.5t3.5 -15.5v-40q0 -11 -3.5 -15.5t-16.5 -4.5h-222q-21 0 -32 -8.5t-13 -28.5q-2 -29 -3.5 -70.5t-1.5 -86.5
h232q13 0 16.5 -4t3.5 -15v-41q0 -10 -3.5 -14.5t-16.5 -4.5h-232q0 -55 1 -99.5t6 -80.5q2 -20 12 -27.5t30 -7.5h222q14 0 17.5 -4t3.5 -15v-41q0 -11 -3.5 -15t-17.5 -4h-230z" />
    <glyph glyph-name="F" unicode="F" horiz-adv-x="459" 
d="M208 567q-14 0 -21.5 -2t-12.5 -8q-8 -11 -8 -35v-152h226q12 0 16 -4.5t4 -15.5v-40q0 -11 -4 -15.5t-16 -4.5h-226v-270q0 -12 -4.5 -16t-16.5 -4h-56q-12 0 -16.5 4t-4.5 16v522q0 30 7 48.5t19 30.5q26 26 81 26h240q10 0 15 -3.5t5 -15.5v-42q0 -19 -20 -19h-207z
" />
    <glyph glyph-name="G" unicode="G" horiz-adv-x="577" 
d="M497 624q12 -5 12 -14q0 -5 -7 -25l-9 -28q-6 -18 -27 -9q-31 12 -67 20t-77 8q-46 0 -78 -11.5t-52.5 -39t-30 -73.5t-9.5 -116v-25q0 -70 8 -116t27.5 -73.5t51.5 -39t80 -11.5q26 0 50 1.5t41 4.5q8 2 11.5 5.5t3.5 12.5v179h-81q-12 0 -16.5 3.5t-4.5 14.5v44
q0 11 4.5 15t16.5 4h160q19 0 19 -19v-290q0 -14 -4.5 -21t-18.5 -11q-38 -10 -86 -16.5t-95 -6.5q-78 0 -130 17t-82.5 54t-43 96t-12.5 143v46q0 94 22 158.5t70 101.5q33 26 78.5 37.5t105.5 11.5q48 0 91.5 -9t78.5 -23z" />
    <glyph glyph-name="H" unicode="H" horiz-adv-x="612" 
d="M543 21q0 -13 -5 -17t-17 -4h-55q-12 0 -16.5 4t-4.5 17v269h-278v-269q0 -13 -5 -17t-17 -4h-54q-12 0 -17 4t-5 17v605q0 12 5 16.5t17 4.5h54q12 0 17 -4.5t5 -16.5v-255h278v255q0 12 5 16.5t17 4.5h54q12 0 17 -4.5t5 -16.5v-605z" />
    <glyph glyph-name="I" unicode="I" horiz-adv-x="246" 
d="M150 647q12 0 17 -4.5t5 -16.5v-605q0 -13 -5 -17t-17 -4h-54q-12 0 -17 4t-5 17v605q0 12 4.5 16.5t16.5 4.5h55z" />
    <glyph glyph-name="J" unicode="J" horiz-adv-x="339" 
d="M269 201q0 -49 -6.5 -82t-21.5 -58q-20 -32 -54 -46.5t-88 -14.5h-49q-12 0 -16 4t-4 15v44q0 11 4 15.5t15 4.5h43q53 0 68 32q8 18 9.5 37t1.5 54v420q0 12 4.5 16.5t16.5 4.5h55q12 0 17 -4.5t5 -16.5v-425z" />
    <glyph glyph-name="K" unicode="K" 
d="M167 21q0 -13 -5 -17t-17 -4h-54q-12 0 -17 4t-5 17v605q0 12 5 16.5t17 4.5h54q12 0 17 -4.5t5 -16.5v-253h47q11 0 16.5 3.5t10.5 11.5l165 242q6 9 13 13t20 4h61q16 0 16 -9q0 -7 -7 -17l-185 -266q-4 -5 -6 -8.5t-2 -8.5q0 -7 8 -18l168 -270l16.5 -25.5t5.5 -14.5
q0 -10 -18 -10h-60q-12 0 -18 3t-12 13l-159 262q-5 9 -11 11.5t-18 2.5h-51v-271z" />
    <glyph glyph-name="L" unicode="L" horiz-adv-x="417" 
d="M167 106q0 -15 6 -21t23 -6h175q13 0 17 -3.5t4 -14.5v-43q0 -10 -4 -14t-17 -4h-206q-53 0 -74.5 22.5t-21.5 67.5v536q0 12 5 16.5t17 4.5h54q12 0 17 -4.5t5 -16.5v-520z" />
    <glyph glyph-name="M" unicode="M" horiz-adv-x="766" 
d="M637 0q-13 0 -18 3t-5 17q-2 131 -5 261t-8 247h-6q-17 -47 -35 -101t-37 -108t-37.5 -105t-35.5 -94q-8 -20 -19 -24t-29 -4h-39q-18 0 -28.5 4t-18.5 24q-17 43 -36 94t-38 105t-37.5 108t-34.5 101h-6q-3 -56 -4.5 -118t-3 -127t-3 -131.5t-2.5 -131.5q0 -14 -5 -17
t-17 -3h-52q-21 0 -21 14q0 8 0.5 17.5t0.5 14.5q5 147 11.5 289.5t14.5 280.5q2 20 10.5 25.5t31.5 5.5h55q12 0 20.5 -1t14 -4t9 -9t7.5 -17q36 -108 74.5 -220t74.5 -209h5q37 97 76.5 209t73.5 220q7 22 16.5 26.5t34.5 4.5h55q23 0 31.5 -5.5t10.5 -25.5
q8 -138 14.5 -280.5t11.5 -289.5q0 -5 0.5 -14t0.5 -18t-5.5 -11.5t-16.5 -2.5h-51z" />
    <glyph glyph-name="N" unicode="N" horiz-adv-x="622" 
d="M164 504h-5v-483q0 -13 -4.5 -17t-16.5 -4h-48q-12 0 -16.5 4t-4.5 17v598q0 17 6.5 22.5t23.5 5.5h53q20 0 29.5 -6.5t17.5 -21.5l259 -476h5v483q0 12 4.5 16.5t16.5 4.5h48q12 0 16.5 -4.5t4.5 -16.5v-599q0 -17 -6.5 -22t-23.5 -5h-53q-20 0 -29.5 6.5t-17.5 20.5z
" />
    <glyph glyph-name="O" unicode="O" horiz-adv-x="600" 
d="M549 300q0 -50 -3 -87.5t-10 -66t-19 -51t-30 -42.5q-26 -29 -73.5 -45.5t-113.5 -16.5t-113.5 16.5t-73.5 45.5q-18 20 -30 42.5t-19 51t-10 66t-3 87.5v46q0 50 3 87.5t10 66.5t19 51.5t30 42.5q26 29 73.5 45.5t113.5 16.5t113.5 -16.5t73.5 -45.5q18 -20 30 -42.5
t19 -51.5t10 -66.5t3 -87.5v-46zM448 335q0 75 -5.5 122.5t-30.5 76.5q-18 21 -44.5 31.5t-67.5 10.5t-67.5 -10.5t-44.5 -31.5q-25 -29 -30.5 -76.5t-5.5 -122.5v-23q0 -75 5.5 -122.5t30.5 -76.5q18 -21 44.5 -31.5t67.5 -10.5t67.5 10.5t44.5 31.5q25 29 30.5 76.5
t5.5 122.5v23z" />
    <glyph glyph-name="P" unicode="P" horiz-adv-x="508" 
d="M167 21q0 -13 -4.5 -17t-17.5 -4h-54q-13 0 -17.5 4t-4.5 17v594q0 17 6 24t21 9q29 4 65.5 6t81.5 2q126 0 183.5 -44.5t57.5 -151.5v-16q0 -56 -16.5 -94.5t-47 -63.5t-74.5 -36t-99 -11h-43.5t-36.5 1v-219zM182 574q-15 -1 -15 -19v-236q17 -1 34 -1h29q42 0 71.5 6
t48 20.5t27.5 39t9 62.5v12q0 65 -32 92t-109 27q-17 0 -33.5 -0.5t-29.5 -2.5z" />
    <glyph glyph-name="Q" unicode="Q" horiz-adv-x="600" 
d="M549 300q0 -50 -3 -87.5t-10 -66t-19 -51t-30 -42.5q-20 -21 -51.5 -36t-73.5 -21q18 -27 53 -57t75 -53q12 -8 12 -14q0 -3 -2 -6t-8 -8l-36 -28q-5 -4 -9 -6t-10 -2q-5 0 -9 2t-9 5q-23 15 -44.5 34t-41 41t-36 44.5t-29.5 43.5q-108 8 -155 61q-18 20 -30 42.5t-19 51
t-10 66t-3 87.5v46q0 50 3 87.5t10 66.5t19 51.5t30 42.5q26 29 73.5 45.5t113.5 16.5t113.5 -16.5t73.5 -45.5q18 -20 30 -42.5t19 -51.5t10 -66.5t3 -87.5v-46zM448 335q0 75 -5.5 122.5t-30.5 76.5q-18 21 -44.5 31.5t-67.5 10.5t-67.5 -10.5t-44.5 -31.5
q-25 -29 -30.5 -76.5t-5.5 -122.5v-23q0 -75 5.5 -122.5t30.5 -76.5q18 -21 44.5 -31.5t67.5 -10.5t67.5 10.5t44.5 31.5q25 29 30.5 76.5t5.5 122.5v23z" />
    <glyph glyph-name="R" unicode="R" horiz-adv-x="538" 
d="M69 619q0 24 20 27q15 2 33.5 4t39 3.5t41.5 2t39 0.5q118 0 177.5 -40.5t59.5 -142.5v-19q0 -74 -33 -119t-88 -58l141 -237q8 -14 12 -20t4 -11q0 -9 -14 -9h-64q-13 0 -18 3.5t-10 11.5q-33 58 -72 125t-71 126q-11 -1 -23.5 -1h-23.5h-25t-27 1v-245q0 -13 -5 -17
t-17 -4h-54q-12 0 -17 4t-5 17v598zM167 345q15 -1 33.5 -1.5t38.5 -0.5q40 0 67 5.5t43.5 18.5t24 35t7.5 55v13q0 30 -6.5 50.5t-22 33t-41.5 18t-64 5.5q-41 0 -66 -3q-14 -2 -14 -16v-213z" />
    <glyph glyph-name="S" unicode="S" horiz-adv-x="487" 
d="M229 -9q-44 0 -91.5 8t-82.5 21q-15 6 -15 17q0 2 0.5 7t2.5 14l8 31q3 12 13 12q5 0 16 -4q32 -11 71 -19t84 -8q69 0 94 23.5t25 80.5v10q0 25 -4 41.5t-14.5 27.5t-29 18.5t-48.5 14.5l-68 16q-39 9 -67 22.5t-46 33t-26.5 46.5t-8.5 65v16q0 171 205 171
q47 0 87 -6.5t65 -14.5q17 -6 17 -15q0 -5 -2 -12.5t-5 -18.5l-6 -22q-3 -14 -14 -14q-6 0 -13 3q-33 11 -63 16t-63 5q-61 0 -87.5 -22t-26.5 -72v-10q0 -24 5.5 -39t17 -24.5t29.5 -15.5t42 -12l68 -16q39 -9 67 -21t46 -31.5t26.5 -49t8.5 -72.5v-12q0 -52 -12.5 -88
t-39 -58.5t-67.5 -32.5t-98 -10z" />
    <glyph glyph-name="T" unicode="T" horiz-adv-x="480" 
d="M289 567v-547q0 -12 -4.5 -16t-16.5 -4h-56q-12 0 -16.5 4t-4.5 16v547h-155q-13 0 -16.5 4.5t-3.5 15.5v41q0 12 5 15.5t15 3.5h408q10 0 15 -3.5t5 -15.5v-41q0 -11 -3.5 -15.5t-16.5 -4.5h-155z" />
    <glyph glyph-name="U" unicode="U" horiz-adv-x="599" 
d="M535 214q0 -117 -57 -169q-29 -26 -72 -40t-107 -14t-106 13.5t-72 40.5q-29 26 -43 69t-14 100v412q0 12 5 16.5t16 4.5h56q11 0 16 -4.5t5 -16.5v-407q0 -37 6 -65.5t23 -45.5q34 -37 108 -37q39 0 65.5 9t43.5 28q16 17 22.5 45.5t6.5 65.5v407q0 12 5 16.5t17 4.5h54
q12 0 17 -4.5t5 -16.5v-412z" />
    <glyph glyph-name="V" unicode="V" horiz-adv-x="539" 
d="M197 30q-45 127 -89 268t-82 288q-5 17 -8 28t-3 20q0 13 18 13h55q12 0 18.5 -3.5t9.5 -16.5q15 -66 33 -134t37.5 -135.5t39 -132.5t39.5 -124h9q19 59 39 124.5t39.5 133t37.5 135.5t33 133q3 13 9.5 16.5t18.5 3.5h52q21 0 21 -12q0 -5 -1.5 -11t-4.5 -17
q-42 -150 -87 -298t-90 -279q-6 -18 -15 -24t-31 -6h-52q-22 0 -30.5 6t-15.5 24z" />
    <glyph glyph-name="W" unicode="W" horiz-adv-x="800" 
d="M396 496q-21 -114 -47 -233.5t-55 -234.5q-5 -19 -15 -23.5t-31 -4.5h-57q-22 0 -31.5 5t-14.5 23q-32 125 -63 263.5t-58 287.5q-3 17 -6 32t-3 23q0 13 19 13h52q14 0 20 -3t9 -18q23 -140 48.5 -273t54.5 -255h8q13 55 27 116t27.5 124t26 125.5t24.5 121.5
q4 18 12.5 23t28.5 5h56q20 0 28.5 -5t12.5 -23q12 -59 24.5 -121.5t26 -125.5t27 -124t27.5 -116h8q29 122 54.5 255t48.5 273q3 15 9 18t20 3h52q19 0 19 -13q0 -8 -3 -23t-6 -32q-27 -149 -58 -287.5t-63 -263.5q-5 -18 -14.5 -23t-31.5 -5h-57q-21 0 -31 4.5t-15 23.5
q-29 115 -55 234.5t-47 233.5h-8z" />
    <glyph glyph-name="X" unicode="X" horiz-adv-x="542" 
d="M409 627q5 11 12 15.5t22 4.5h59q14 0 14 -10q0 -3 -2 -8t-12 -25l-125 -251q-3 -7 -4.5 -11t-1.5 -9q0 -4 2 -9l4 -10l133 -268l11.5 -23t3.5 -13q0 -10 -19 -10h-51q-16 0 -24 4t-13 15l-109 231q-12 25 -18 32t-17 7h-4q-11 0 -17 -7t-18 -32l-111 -231
q-5 -11 -13 -15t-24 -4h-51q-19 0 -19 10q0 6 3.5 13l11.5 23l135 263q2 5 4 11t2 10q0 5 -1 10.5t-5 12.5l-125 251q-10 20 -12 25t-2 8q0 10 14 10h59q15 0 22 -4.5t12 -15.5l100 -215q11 -25 17.5 -32t17.5 -7h4q11 0 17.5 7t17.5 32z" />
    <glyph glyph-name="Y" unicode="Y" horiz-adv-x="478" 
d="M242 295q37 75 70 163t56 172q2 8 8 12.5t18 4.5h48q11 0 16 -2t5 -10q0 -6 -2 -13t-5 -17q-34 -109 -75 -205.5t-93 -189.5v-190q0 -13 -5 -16.5t-17 -3.5h-54q-12 0 -17 3.5t-5 16.5v190q-53 93 -93.5 189.5t-74.5 205.5q-3 10 -5 17t-2 13q0 8 5 10t16 2h48
q12 0 18 -4.5t8 -12.5q22 -84 55.5 -172t70.5 -163h6z" />
    <glyph glyph-name="Z" unicode="Z" horiz-adv-x="497" 
d="M33 45q0 11 4.5 19.5t13.5 23.5l297 479h-278q-20 0 -20 19v42q0 11 4 15t16 4h365q12 0 17.5 -4.5t5.5 -16.5v-26q0 -14 -4 -24.5t-18 -32.5l-291 -463h285q12 0 16 -4t4 -14v-44q0 -10 -4 -14t-16 -4h-370q-14 0 -20.5 5t-6.5 19v21z" />
    <glyph glyph-name="a" unicode="a" horiz-adv-x="476" 
d="M339 43h-2q-25 -52 -120 -52h-31q-78 0 -113 38t-35 106v16q0 82 48 118q22 17 56.5 24.5t97.5 7.5h24q15 0 31 -0.5t30 -2.5v42q0 49 -24 65.5t-75 16.5q-24 0 -52 -3.5t-57 -11.5q-16 -4 -21 -4q-10 0 -13 14l-4 19q-4 20 -4 26q0 11 14 15q28 9 67.5 15.5t77.5 6.5
q95 0 139 -37.5t44 -132.5v-315q0 -14 -16 -14h-39q-16 0 -19 14zM325 223q-12 2 -26 2.5t-28 0.5h-44q-53 0 -74.5 -15.5t-21.5 -60.5v-14q0 -38 16 -54t54 -16h33q46 0 68.5 20t22.5 65v72z" />
    <glyph glyph-name="b" unicode="b" horiz-adv-x="510" 
d="M260 67q30 0 51.5 6t35.5 23t20.5 49t6.5 84v32q0 88 -23.5 124.5t-87.5 36.5q-26 0 -46 -5.5t-34 -19.5t-21.5 -37t-7.5 -58v-129q0 -32 6 -52.5t19 -32.5t33 -16.5t48 -4.5zM154 456h2q17 19 49 31t76 12q98 0 142.5 -55t44.5 -178v-40q0 -65 -12.5 -110t-39 -73
t-66 -40t-93.5 -12q-48 0 -84 8t-61 28t-37.5 53.5t-12.5 84.5v494q0 11 4.5 14.5t15.5 3.5h52q11 0 15.5 -3.5t4.5 -14.5v-203z" />
    <glyph glyph-name="c" unicode="c" horiz-adv-x="428" 
d="M385 56q3 -10 4 -15.5t1 -7.5q0 -11 -15 -17q-27 -12 -63.5 -18.5t-71.5 -6.5q-45 0 -82.5 10.5t-60.5 32.5q-33 32 -44 81t-11 115v32q0 39 3 68.5t9.5 51t16.5 37.5t24 30q26 25 64.5 37.5t85.5 12.5q43 0 83 -12.5t66 -29.5q9 -6 9 -13q0 -5 -10 -24l-14 -26
q-6 -10 -12 -10q-5 0 -12 4q-28 17 -53.5 25t-53.5 8q-25 0 -45.5 -5.5t-34.5 -18.5q-12 -12 -18.5 -26t-9.5 -31.5t-3.5 -38.5t-0.5 -47v-16q0 -55 4.5 -86.5t20.5 -51.5q27 -33 91 -33q26 0 53.5 5.5t45.5 12.5q10 4 15 4q9 0 13 -12z" />
    <glyph glyph-name="d" unicode="d" horiz-adv-x="510" 
d="M356 299q0 67 -26 95.5t-83 28.5q-32 0 -53 -8.5t-34 -28t-18.5 -50.5t-5.5 -75v-27q0 -47 5.5 -79t18.5 -51.5t34.5 -28t53.5 -8.5q59 0 83.5 24t24.5 87v121zM448 174q0 -95 -50.5 -139t-149.5 -44q-57 0 -96.5 13.5t-63.5 42.5t-35 74.5t-11 109.5v34q0 63 12.5 107.5
t37 72.5t62.5 41t89 13q36 0 64.5 -10t46.5 -27h2v197q0 11 4.5 14.5t15.5 3.5h52q11 0 15.5 -3.5t4.5 -14.5v-485z" />
    <glyph glyph-name="e" unicode="e" horiz-adv-x="465" 
d="M422 227q0 -29 -28 -29h-258q1 -36 6.5 -60.5t19 -40.5t36.5 -23t60 -7q26 0 55.5 5.5t50.5 13.5q5 2 9 3t7 1q8 0 12 -11l7 -24q5 -17 5 -21q0 -9 -12 -15q-26 -12 -65 -20t-80 -8q-59 0 -98 13.5t-63 42t-34 73.5t-10 108v34q0 59 10 103.5t33 74t60.5 44.5t92.5 15
q90 0 137 -46.5t47 -153.5v-72zM320 273q13 0 13 14q0 36 -4.5 61.5t-15.5 42t-29.5 24.5t-47.5 8q-31 0 -50.5 -9t-31 -27.5t-15.5 -47t-4 -66.5h185z" />
    <glyph glyph-name="f" unicode="f" horiz-adv-x="312" 
d="M181 18q0 -11 -4.5 -14.5t-15.5 -3.5h-52q-11 0 -15.5 3.5t-4.5 14.5v393h-58q-10 0 -12.5 4t-2.5 12v32q0 14 15 17l58 11v35q0 43 8 72t27 49t50.5 31.5t75.5 11.5q29 0 51.5 -3t36.5 -7q13 -4 13 -12q0 -9 -5 -37l-2 -12q-2 -9 -6.5 -11t-18.5 0t-29 3.5t-30 1.5
q-37 0 -56 -15q-13 -10 -18 -27.5t-5 -48.5v-28h100q17 0 17 -16v-48q0 -8 -3 -11.5t-14 -3.5h-100v-393z" />
    <glyph glyph-name="g" unicode="g" horiz-adv-x="489" 
d="M334 488q54 -17 78.5 -61t24.5 -132v-18q0 -73 -17.5 -110t-46.5 -52q42 -23 62.5 -59t20.5 -79v-11q0 -153 -200 -153q-53 0 -106 10t-91 26q-15 7 -15 16q0 3 1.5 8t3.5 13l10 29q3 9 10 9q3 0 6 -1t8 -3q35 -14 79.5 -23t86.5 -9q54 0 84 19.5t30 68.5v8q0 33 -15 58
t-47 39q-13 -2 -28 -3.5t-34 -1.5q-107 0 -152.5 49t-45.5 152v18q0 56 12 95t37 63t62 35t87 11h11t11 -1q14 40 44.5 61t82.5 21h29q17 0 17 -18v-38q0 -9 -2.5 -12.5t-13.5 -3.5h-35q-21 0 -31.5 -4t-17.5 -16zM135 277q0 -65 21 -97t83 -32q63 0 83.5 32t20.5 98v21
q0 67 -22.5 97t-81.5 30q-31 0 -51 -7.5t-32 -23t-16.5 -39.5t-4.5 -57v-22z" />
    <glyph glyph-name="h" unicode="h" horiz-adv-x="515" 
d="M456 18q0 -11 -4.5 -14.5t-15.5 -3.5h-52q-11 0 -15.5 3.5t-4.5 14.5v287q0 67 -24.5 92.5t-81.5 25.5q-49 0 -75.5 -26.5t-26.5 -85.5v-293q0 -11 -4.5 -14.5t-15.5 -3.5h-52q-11 0 -15.5 3.5t-4.5 14.5v641q0 11 4.5 14.5t15.5 3.5h52q11 0 15.5 -3.5t4.5 -14.5v-202
q20 19 52.5 30.5t79.5 11.5q39 0 70 -10t53 -32.5t33.5 -59.5t11.5 -92v-287z" />
    <glyph glyph-name="i" unicode="i" horiz-adv-x="234" 
d="M163 18q0 -11 -4.5 -14.5t-15.5 -3.5h-52q-11 0 -15.5 3.5t-4.5 14.5v454q0 11 4.5 14.5t15.5 3.5h52q11 0 15.5 -3.5t4.5 -14.5v-454zM57 619q0 31 17 44.5t41 13.5h5q25 0 41 -13.5t16 -44.5v-7q0 -31 -16 -44.5t-41 -13.5h-5q-24 0 -41 13.5t-17 44.5v7z" />
    <glyph glyph-name="j" unicode="j" horiz-adv-x="237" 
d="M165 16q0 -39 -6 -76t-25 -63q-20 -28 -54.5 -41.5t-89.5 -13.5h-31q-17 0 -17 16v48q0 16 15 16h23q59 0 76 27q12 19 14.5 42t2.5 55v446q0 11 4.5 14.5t15.5 3.5h52q11 0 15.5 -3.5t4.5 -14.5v-456zM59 619q0 31 17 44.5t41 13.5h5q25 0 41 -13.5t16 -44.5v-7
q0 -31 -16 -44.5t-41 -13.5h-5q-24 0 -41 13.5t-17 44.5v7z" />
    <glyph glyph-name="k" unicode="k" horiz-adv-x="443" 
d="M156 18q0 -11 -4.5 -14.5t-15.5 -3.5h-52q-11 0 -15.5 3.5t-4.5 14.5v641q0 11 4.5 14.5t15.5 3.5h52q11 0 15.5 -3.5t4.5 -14.5v-359h38q7 0 10.5 2t8.5 9l109 165q5 8 11 11t17 3h58q25 0 12 -20l-139 -201q-4 -6 -4 -10q0 -6 4 -11l132 -209q16 -25 16 -30
q0 -9 -14 -9h-59q-19 0 -29 15l-119 195q-6 9 -17 9h-35v-201z" />
    <glyph glyph-name="l" unicode="l" horiz-adv-x="268" 
d="M157 132q0 -29 7.5 -41.5t33.5 -12.5h25q9 0 13 -3t4 -14v-43q0 -18 -16 -18h-43q-63 0 -89.5 26.5t-26.5 91.5v541q0 11 4.5 14.5t15.5 3.5h52q11 0 15.5 -3.5t4.5 -14.5v-527z" />
    <glyph glyph-name="m" unicode="m" horiz-adv-x="804" 
d="M745 18q0 -11 -4.5 -14.5t-15.5 -3.5h-52q-11 0 -15.5 3.5t-4.5 14.5v287q0 65 -21.5 91.5t-74.5 26.5q-37 0 -64.5 -13.5t-44.5 -36.5q2 -17 3 -33.5t1 -39.5v-282q0 -11 -4.5 -14.5t-15.5 -3.5h-52q-11 0 -15.5 3.5t-4.5 14.5v287q0 66 -24.5 92t-79.5 26
q-48 0 -74 -22.5t-26 -81.5v-301q0 -11 -4.5 -14.5t-15.5 -3.5h-52q-11 0 -15.5 3.5t-4.5 14.5v456q0 16 16 16h36q9 0 12.5 -3t5.5 -11l5 -33h2q20 25 53.5 40.5t81.5 15.5q51 0 87.5 -17.5t56.5 -47.5h1q32 34 71.5 49.5t85.5 15.5q90 0 128.5 -46t38.5 -144v-291z" />
    <glyph glyph-name="n" unicode="n" horiz-adv-x="515" 
d="M64 475q0 9 4 12t12 3h35q9 0 13 -3t6 -12l5 -32h2q21 26 56 41t86 15q85 0 129 -44.5t44 -152.5v-284q0 -11 -4.5 -14.5t-15.5 -3.5h-52q-11 0 -15.5 3.5t-4.5 14.5v288q0 63 -24 90.5t-81 27.5q-50 0 -76.5 -22.5t-26.5 -81.5v-302q0 -11 -4.5 -14.5t-15.5 -3.5h-52
q-11 0 -15.5 3.5t-4.5 14.5v457z" />
    <glyph glyph-name="o" unicode="o" horiz-adv-x="488" 
d="M352 255q0 49 -4 77t-12 46q-11 25 -34 36t-58 11t-58 -11t-34 -36q-8 -18 -12 -46t-4 -77v-20q0 -49 4 -77t12 -46q11 -25 34 -36t58 -11t58 11t34 36q8 18 12 46t4 77v20zM446 228q0 -66 -10.5 -111.5t-39.5 -74.5q-51 -51 -152 -51t-152 51q-29 29 -39.5 74.5
t-10.5 111.5v34q0 66 10.5 111.5t39.5 74.5q51 51 152 51t152 -51q29 -29 39.5 -74.5t10.5 -111.5v-34z" />
    <glyph glyph-name="p" unicode="p" horiz-adv-x="513" 
d="M156 -159q0 -11 -4.5 -14.5t-15.5 -3.5h-52q-11 0 -15.5 3.5t-4.5 14.5v632q0 17 16 17h35q9 0 12.5 -3t5.5 -11l6 -32h2q22 26 57 40.5t89 14.5q46 0 81 -11.5t57.5 -38t34 -70t11.5 -108.5v-45q0 -58 -9.5 -102t-31.5 -73.5t-59 -44.5t-91 -15q-46 0 -75 10.5t-48 29.5
h-1v-190zM266 422q-62 0 -86 -27t-24 -84v-136q0 -59 28 -83.5t83 -24.5q32 0 53.5 8.5t34 27.5t17.5 50t5 76v33q0 45 -5 75.5t-17.5 49t-34 27t-54.5 8.5z" />
    <glyph glyph-name="q" unicode="q" horiz-adv-x="512" 
d="M247 422q-32 0 -53.5 -7.5t-34 -26.5t-18 -51.5t-5.5 -81.5v-28q0 -49 6 -80t19 -49t34 -24.5t52 -6.5q110 0 110 110v132q0 57 -26.5 85t-83.5 28zM449 -159q0 -11 -4.5 -14.5t-15.5 -3.5h-52q-11 0 -15.5 3.5t-4.5 14.5v194h-1q-17 -20 -46.5 -32t-74.5 -12
q-101 0 -147 54t-46 177v41q0 64 11.5 109t35.5 73.5t61 41t88 12.5q47 0 80 -14.5t53 -40.5h2l6 32q3 14 20 14h31q10 0 14.5 -3.5t4.5 -14.5v-631z" />
    <glyph glyph-name="r" unicode="r" horiz-adv-x="324" 
d="M139 426h2q20 33 47.5 48.5t76.5 15.5h20q12 0 16.5 -3.5t4.5 -14.5v-44q0 -9 -4.5 -13t-16.5 -4h-22q-36 0 -54.5 -7t-30.5 -21t-17 -34.5t-5 -52.5v-278q0 -11 -4.5 -14.5t-15.5 -3.5h-52q-11 0 -15.5 3.5t-4.5 14.5v457q0 9 4 12t12 3h35q9 0 13.5 -3t5.5 -12z" />
    <glyph glyph-name="s" unicode="s" horiz-adv-x="417" 
d="M200 -9q-35 0 -75 7t-71 18q-7 2 -10.5 5t-3.5 9q0 5 1.5 11.5t4.5 18.5l5 18q4 14 13 14q6 0 13 -3t23 -8q45 -14 102 -14q48 0 69.5 17t21.5 52v5q0 35 -17 48.5t-54 21.5l-47 10q-38 8 -63 18.5t-39 26t-19.5 37.5t-5.5 53v7q0 70 41 103t127 33q38 0 70 -4.5
t57 -12.5q8 -2 10 -5t2 -8q0 -4 -2 -11t-4 -18l-5 -19q-4 -14 -12 -14q-4 0 -9.5 1t-10.5 3q-17 5 -42 8t-48 3q-51 0 -69.5 -13.5t-18.5 -45.5v-5q0 -13 3.5 -22.5t12 -16.5t23 -12.5t36.5 -10.5l46 -10q67 -14 95.5 -45t28.5 -96v-8q0 -72 -45 -109t-134 -37z" />
    <glyph glyph-name="t" unicode="t" horiz-adv-x="338" 
d="M236 0q-48 0 -76 9.5t-44 26.5q-17 19 -23.5 47t-6.5 75v253h-60q-8 0 -11.5 3t-3.5 12v32q0 10 2.5 12.5t10.5 4.5l62 12v109q0 19 20 19h53q19 0 19 -19v-106h108q16 0 16 -18v-43q0 -18 -16 -18h-108v-246q0 -29 2 -43t10 -25q8 -12 21.5 -15.5t41.5 -3.5h43
q10 0 14 -3.5t4 -15.5v-41q0 -10 -3.5 -14t-14.5 -4h-60z" />
    <glyph glyph-name="u" unicode="u" horiz-adv-x="499" 
d="M348 472q0 11 4.5 14.5t15.5 3.5h52q11 0 15.5 -4t4.5 -15v-324q0 -85 -51 -122q-23 -18 -55.5 -26t-83.5 -8t-83.5 8t-56.5 26q-51 37 -51 122v325q0 11 4.5 14.5t15.5 3.5h52q11 0 15.5 -3.5t4.5 -14.5v-310q0 -28 5 -45.5t18 -28.5q24 -20 76 -20t77 22
q12 11 16.5 27.5t4.5 44.5v310z" />
    <glyph glyph-name="v" unicode="v" horiz-adv-x="448" 
d="M85 490q18 0 22 -17q24 -97 52 -191.5t62 -193.5h7q34 99 62 194.5t51 190.5q4 17 22 17h55q15 0 15 -11q0 -6 -2 -15t-4 -15q-13 -51 -28.5 -105t-32.5 -107.5t-35 -105.5t-37 -99q-8 -19 -17 -25.5t-26 -6.5h-54q-17 0 -26 6.5t-17 25.5q-19 47 -37 99t-35 105.5
t-32.5 107.5t-28.5 105q-2 6 -4 15t-2 15q0 11 15 11h55z" />
    <glyph glyph-name="w" unicode="w" horiz-adv-x="671" 
d="M461 0q-17 0 -27.5 6.5t-15.5 26.5q-24 88 -44 171.5t-35 162.5h-6q-15 -79 -35.5 -162.5t-43.5 -171.5q-5 -20 -15.5 -26.5t-28.5 -6.5h-49q-18 0 -27.5 8t-14.5 25q-12 41 -25 91t-25.5 104t-25 109.5t-23.5 109.5q-2 7 -3.5 16.5t-1.5 14.5q0 12 21 12h48q20 0 23 -17
q16 -93 37 -195t43 -190h4q22 85 41.5 171.5t38.5 177.5q3 17 11 23t27 6h54q18 0 26 -6t12 -23q18 -91 37.5 -177.5t41.5 -171.5h4q22 88 43 190t37 195q3 17 23 17h48q21 0 21 -12q0 -5 -1.5 -14.5t-3.5 -16.5q-11 -54 -23.5 -109.5t-25 -109.5t-25.5 -104t-25 -91
q-5 -17 -14 -25t-27 -8h-50z" />
    <glyph glyph-name="x" unicode="x" horiz-adv-x="449" 
d="M332 475q5 10 10.5 12.5t17.5 2.5h54q14 0 14 -11q0 -5 -3.5 -12t-9.5 -18l-89 -170l-8 -16t-3 -11q0 -6 3 -12.5t9 -18.5l91 -177q5 -11 10.5 -20.5t5.5 -14.5q0 -9 -14 -9h-52q-18 0 -23.5 2.5t-10.5 13.5l-84 180q-5 10 -9 12.5t-13 2.5h-7q-9 0 -13 -2.5t-9 -12.5
l-84 -180q-5 -11 -11 -13.5t-23 -2.5h-52q-14 0 -14 9q0 5 5.5 14.5t10.5 20.5l91 177q6 12 9 18.5t3 12.5q0 5 -3 11l-8 16l-89 170q-6 11 -9.5 18t-3.5 12q0 11 14 11h54q12 0 17.5 -2.5t10.5 -12.5l82 -167q5 -9 9 -12t13 -3h7q9 0 13 2.5t9 12.5z" />
    <glyph glyph-name="y" unicode="y" horiz-adv-x="439" 
d="M127 -156q0 4 2.5 9.5t9.5 19.5q13 26 28.5 59.5t29.5 69.5q-45 9 -69 72q-12 32 -26 73.5t-27.5 88t-26.5 97t-24 101.5q-3 15 -5 26t-2 18q0 12 16 12h57q17 0 20 -15q20 -99 42.5 -188t42.5 -149q9 -26 15 -38.5t15 -12.5h4q30 90 57 191t45 197q3 15 20 15h59
q14 0 14 -10q0 -5 -1.5 -12.5t-5.5 -24.5q-17 -73 -35.5 -142t-42 -142t-55 -154.5t-73.5 -178.5q-7 -15 -14 -15q-6 0 -11 1.5t-16 6.5l-27 11q-16 6 -16 14z" />
    <glyph glyph-name="z" unicode="z" horiz-adv-x="406" 
d="M376 17q0 -17 -17 -17h-310q-12 0 -17 3.5t-5 14.5v20q0 11 4.5 21.5t15.5 27.5l209 325h-201q-11 0 -14 4t-3 13v43q0 10 3 14t14 4h302q16 0 16 -16v-20q0 -13 -5.5 -24t-20.5 -34l-207 -318h219q17 0 17 -18v-43z" />
    <glyph glyph-name="ampersand" unicode="&#x26;" horiz-adv-x="607" 
d="M587 51q9 -9 9 -14t-4 -9.5t-15 -15.5l-20 -20q-5 -5 -8.5 -6.5t-7.5 -1.5q-6 0 -16 10l-62 59q-29 -29 -74 -45.5t-109 -16.5h-29q-112 0 -164 45.5t-52 126.5v15q0 59 33.5 103.5t90.5 67.5q-38 32 -59.5 72t-21.5 76v8q0 68 47 109.5t132 41.5t130 -41t45 -105v-10
q0 -110 -119 -181l134 -132q3 14 3 30.5v32.5v55q0 16 16 16h55q16 0 16 -16v-59q0 -81 -21 -126zM276 68q42 0 75 11t52 32l-194 190q-35 -19 -54.5 -51.5t-19.5 -74.5v-8q0 -48 32 -73.5t94 -25.5h15zM175 499q0 -26 17 -52.5t51 -60.5l20 -20q35 23 55 56.5t20 72.5v5
q0 42 -22 61t-59 19t-59.5 -18.5t-22.5 -56.5v-6z" />
    <glyph glyph-name="at" unicode="@" horiz-adv-x="797" 
d="M752 378q0 -58 -14 -103t-38.5 -75.5t-57.5 -46.5t-72 -16q-42 0 -72.5 14t-42.5 40h-2q-15 -19 -38.5 -30t-56.5 -11q-51 0 -80.5 27t-29.5 79q0 28 3.5 58t8.5 58q11 67 43.5 95.5t85.5 28.5q70 0 93 -45l7 21q3 8 6.5 10t12.5 2h34q16 0 16 -10q0 -4 -1 -14t-3 -24
l-16 -134q-2 -21 -4.5 -36t-2.5 -32q0 -21 11 -30t34 -9q40 0 69.5 43.5t29.5 129.5q0 60 -18.5 105t-51.5 75t-78.5 45t-99.5 15q-62 0 -114.5 -20.5t-90.5 -61t-60 -99.5t-22 -137q0 -125 63.5 -187t206.5 -62q20 0 44 2t48.5 6t46.5 8.5t37 9.5q8 2 14 4t11 2q8 0 11 -12
l5 -20q4 -16 4 -21q0 -8 -11 -12q-45 -17 -106 -26.5t-118 -9.5q-174 0 -262.5 80t-88.5 232q0 93 29 166t80.5 124t122.5 78t155 27q69 0 128 -20t101.5 -58t66.5 -94.5t24 -128.5zM405 434q-27 0 -40 -15.5t-21 -54.5q-5 -23 -8.5 -50.5t-3.5 -56.5q0 -22 11 -34.5
t36 -12.5q28 0 46.5 16.5t24.5 63.5l8 62q3 21 3 31q0 51 -56 51z" />
    <glyph glyph-name="exclam" unicode="!" horiz-adv-x="216" 
d="M112 110q25 0 39.5 -13t14.5 -40v-13q0 -26 -14.5 -39.5t-39.5 -13.5h-7q-55 0 -55 53v13q0 27 16 40t39 13h7zM55 628q-1 17 5.5 22.5t23.5 5.5h52q20 0 24.5 -7t3.5 -21l-13 -438q0 -16 -8 -20.5t-22 -4.5h-26q-15 0 -21 4.5t-7 19.5z" />
    <glyph glyph-name="exclamdown" unicode="&#xa1;" horiz-adv-x="216" 
d="M112 379.977q25 0 39.5 12.999q14.5 13 14.5 39.998v12.999q0 25.998 -14.5 39.498q-14.5 13.499 -39.5 13.499h-7q-55 0 -55 -52.9971v-12.999q0 -26.998 16 -39.998q16 -12.999 39 -12.999h7zM55 -137.991q-1 -16.999 5.5 -22.499t23.5 -5.5h52q20 0 24.5 7t3.5 20.999
l-13 437.973q0 15.999 -8 20.499t-22 4.5h-26q-15 0 -21 -4.5t-7 -19.499z" />
    <glyph glyph-name="question" unicode="?" horiz-adv-x="444" 
d="M403 492q0 -53 -25.5 -95.5t-81.5 -79.5l-27 -18q-19 -13 -32 -25.5t-21 -26.5t-11.5 -31.5t-3.5 -39.5v-3q0 -9 -3.5 -12.5t-14.5 -3.5h-42q-18 0 -18 16v6q0 36 4.5 61.5t14 44.5t25 34t38.5 30l29 20q41 28 56 56.5t15 63.5v6q0 41 -23.5 62t-77.5 21q-35 0 -79 -11
q-27 -7 -43 -13t-24 -6q-6 0 -8.5 4t-4.5 9l-6 20q-2 8 -4 15t-2 11q0 10 13 16q37 16 81.5 24.5t88.5 8.5q89 0 138 -38.5t49 -119.5v-6zM166 110q55 0 55 -58q0 -61 -55 -61h-7q-30 0 -42.5 14.5t-12.5 43.5v8q0 27 16 40t39 13h7z" />
    <glyph glyph-name="questiondown" unicode="&#xbf;" horiz-adv-x="444" 
d="M40.9971 -2q0 52.9971 25.499 95.4941q25.498 42.498 81.4951 79.4951l26.998 17.999q18.999 12.999 31.998 25.498q12.999 12.5 20.999 26.499q7.99902 13.999 11.499 31.498t3.5 39.4971v3q0 9 3.5 12.499q3.49902 3.5 14.499 3.5h41.9971q17.999 0 17.999 -15.999
v-5.99902q0 -35.998 -4.5 -61.4971q-4.5 -25.498 -13.999 -44.4971t-24.998 -33.998t-38.498 -29.998l-28.998 -19.999q-40.998 -27.998 -55.9971 -56.4961t-14.999 -63.4961v-6q0 -40.9971 23.499 -61.9961q23.498 -20.998 77.4951 -20.998q34.998 0 78.9951 10.999
q26.998 6.99902 42.9971 12.999t23.999 6q6 0 8.49902 -4q2.5 -4 4.5 -9l6 -19.998q2 -8 3.99902 -14.999q2 -7 2 -11q0 -9.99902 -12.999 -15.999q-36.998 -15.999 -81.4951 -24.498q-44.4971 -8.5 -88.4941 -8.5q-88.9951 0 -137.992 38.498t-48.9971 119.492v6z
M277.983 379.977q-54.9971 0 -54.9971 57.9971q0 60.9961 54.9971 60.9961h6.99902q29.998 0 42.498 -14.499q12.499 -14.499 12.499 -43.498v-7.99902q0 -26.998 -15.999 -39.998q-15.999 -12.999 -38.998 -12.999h-6.99902z" />
    <glyph glyph-name="asterisk" unicode="*" horiz-adv-x="368" 
d="M184 528l-51 -95q-8 -14 -15 -14q-5 0 -9.5 2t-15.5 9l-28 18q-9 5 -9 14t9 17l80 79l-106 27q-11 3 -11 9q0 3 1.5 8t5.5 16l10 30q3 10 12 10q6 0 12 -3l88 -43q-6 51 -9.5 79.5t-3.5 33.5q0 6 3 9t12 3h50q9 0 12 -3t3 -9q0 -5 -4 -33.5t-9 -79.5l88 43q6 3 12 3
q9 0 12 -10l10 -30q4 -11 5.5 -16t1.5 -8q0 -6 -11 -9l-106 -27l80 -79q9 -8 9 -17t-9 -14l-28 -18q-11 -7 -15.5 -9t-9.5 -2q-7 0 -15 14z" />
    <glyph glyph-name="period" unicode="." horiz-adv-x="207" 
d="M162 44q0 -27 -14 -40t-39 -13h-11q-23 0 -38 13t-15 40v16q0 27 15 40t38 13h11q25 0 39 -13t14 -40v-16z" />
    <glyph glyph-name="comma" unicode="," horiz-adv-x="224" 
d="M119 112q30 0 44 -14.5t14 -47.5v-9q0 -42 -20 -93q-8 -20 -23.5 -47.5t-32.5 -44.5q-6 -8 -12 -8q-7 0 -16 6l-21 13q-9 6 -9 12q0 4 5 11q14 18 26.5 40t16.5 36q4 15 -6 21l-15 8q-11 6 -15.5 16t-4.5 29v24q0 48 54 48h15z" />
    <glyph glyph-name="colon" unicode=":" horiz-adv-x="207" 
d="M162 44q0 -27 -14 -40t-39 -13h-11q-23 0 -38 13t-15 40v16q0 27 15 40t38 13h11q25 0 39 -13t14 -40v-16zM162 425q0 -27 -14 -40t-39 -13h-11q-23 0 -38 13t-15 40v16q0 27 15 40t38 13h11q25 0 39 -13t14 -40v-16z" />
    <glyph glyph-name="semicolon" unicode=";" horiz-adv-x="229" 
d="M121 112q30 0 44 -14.5t14 -47.5v-9q0 -42 -20 -93q-8 -20 -23.5 -47.5t-32.5 -44.5q-6 -8 -12 -8q-7 0 -16 6l-21 13q-9 6 -9 12q0 4 5 11q14 18 26.5 40t16.5 36q4 15 -6 21l-15 8q-11 6 -15.5 16t-4.5 29v24q0 48 54 48h15zM172 425q0 -27 -14 -40t-39 -13h-11
q-23 0 -38 13t-15 40v16q0 27 15 40t38 13h11q25 0 39 -13t14 -40v-16z" />
    <glyph glyph-name="ellipsis" unicode="&#x2026;" horiz-adv-x="621" 
d="M162 44q0 -27 -14 -40t-39 -13h-11q-23 0 -38 13t-15 40v16q0 27 15 40t38 13h11q25 0 39 -13t14 -40v-16zM369 44q0 -27 -14 -40t-39 -13h-11q-23 0 -38 13t-15 40v16q0 27 15 40t38 13h11q25 0 39 -13t14 -40v-16zM576 44q0 -27 -14 -40t-39 -13h-11q-23 0 -38 13
t-15 40v16q0 27 15 40t38 13h11q25 0 39 -13t14 -40v-16z" />
    <glyph glyph-name="periodcentered" unicode="&#xb7;" horiz-adv-x="207" 
d="M162 282q0 -27 -14 -40t-39 -13h-11q-23 0 -38 13t-15 40v16q0 27 15 40t38 13h11q25 0 39 -13t14 -40v-16z" />
    <glyph glyph-name="bullet" unicode="&#x2022;" horiz-adv-x="339" 
d="M50 261q0 25 9 47t25 38t38 25.5t47 9.5t47 -9.5t38 -25.5t25.5 -38t9.5 -47t-9.5 -47t-25.5 -38t-38 -25.5t-47 -9.5t-47 9.5t-38 25.5t-25 38t-9 47z" />
    <glyph glyph-name="slash" unicode="/" horiz-adv-x="360" 
d="M121 -3q-5 -14 -11.5 -17.5t-18.5 -3.5h-45q-21 0 -21 11q0 3 1.5 9.5t6.5 20.5l206 649q5 14 11.5 17.5t18.5 3.5h45q21 0 21 -11q0 -3 -1.5 -9.5t-6.5 -20.5z" />
    <glyph glyph-name="parenleft" unicode="(" horiz-adv-x="302" 
d="M259 -51q5 -8 10.5 -15.5t5.5 -13.5q0 -5 -3 -9t-12 -9l-20 -12q-8 -5 -12.5 -7t-9.5 -2q-10 0 -20 13q-71 91 -106.5 188t-35.5 200q0 51 7.5 99.5t24.5 96.5t44 96t67 98q10 13 20 13q5 0 9.5 -2t12.5 -7l20 -12q9 -5 12 -9t3 -9q0 -6 -5.5 -13.5t-10.5 -15.5
q-57 -81 -81 -163.5t-24 -169.5q0 -98 25.5 -177.5t78.5 -157.5z" />
    <glyph glyph-name="brokenbar" unicode="&#xa6;" horiz-adv-x="230" 
d="M70 663q0 14 5.5 19.5t20.5 5.5h38q15 0 20.5 -5.5t5.5 -19.5v-224q0 -15 -6 -20t-21 -5h-36q-15 0 -21 5t-6 20v224zM70 228q0 14 5.5 19.5t20.5 5.5h38q15 0 20.5 -5.5t5.5 -19.5v-224q0 -15 -6 -20t-21 -5h-36q-15 0 -21 5t-6 20v224z" />
    <glyph glyph-name="parenright" unicode=")" horiz-adv-x="302" 
d="M43 -51q53 78 78.5 157.5t25.5 177.5q0 87 -24 169.5t-81 163.5q-5 8 -10.5 15.5t-5.5 13.5q0 5 3 9t12 9l20 12q8 5 12.5 7t9.5 2q10 0 20 -13q79 -99 111 -194t32 -196q0 -103 -35.5 -200t-106.5 -188q-10 -13 -20 -13q-5 0 -9.5 2t-12.5 7l-20 12q-9 5 -12 9t-3 9
q0 6 5.5 13.5t10.5 15.5z" />
    <glyph glyph-name="bracketleft" unicode="[" horiz-adv-x="293" 
d="M90 -88q-20 0 -20 20v722q0 19 20 19h163q11 0 15 -3.5t4 -14.5v-47q0 -11 -4 -13.5t-15 -2.5h-94v-599h94q11 0 15 -3.5t4 -14.5v-47q0 -11 -4 -13.5t-15 -2.5h-163z" />
    <glyph glyph-name="backslash" unicode="\" horiz-adv-x="370" 
d="M243.985 -3q4.99902 -14 11.499 -17.5t18.499 -3.5h44.9971q20.999 0 20.999 11q0 3 -1.5 9.5t-6.5 20.5l-205.987 649q-5 14 -11.499 17.5q-6.5 3.5 -18.499 3.5h-44.9971q-20.999 0 -20.999 -11q0 -3 1.5 -9.5t6.5 -20.5z" />
    <glyph glyph-name="bracketright" unicode="]" horiz-adv-x="293" 
d="M40 -88q-11 0 -15 2.5t-4 13.5v47q0 11 4 14.5t15 3.5h94v599h-94q-11 0 -15 2.5t-4 13.5v47q0 11 4 14.5t15 3.5h163q20 0 20 -19v-722q0 -20 -20 -20h-163z" />
    <glyph glyph-name="braceleft" unicode="{" horiz-adv-x="328" 
d="M134 569q0 63 26 89t78 26h49q11 0 15 -3.5t4 -14.5v-44q0 -19 -18 -19h-26q-12 0 -19.5 -2.5t-12 -9.5t-6 -20t-1.5 -34v-121q0 -48 -17 -76.5t-53 -45.5v-3q37 -19 53.5 -46.5t16.5 -79.5v-120q0 -21 1.5 -34t6 -20t12 -9.5t19.5 -2.5h26q18 0 18 -19v-44
q0 -11 -4 -14.5t-15 -3.5h-49q-52 0 -78 26t-26 89v157q0 39 -17.5 56t-49.5 28q-11 4 -14 7t-3 14v35q0 13 3.5 16t15.5 6q31 9 48 25t17 52v160z" />
    <glyph glyph-name="bar" unicode="|" horiz-adv-x="230" 
d="M160 4q0 -15 -6 -20t-21 -5h-36q-15 0 -21 5t-6 20v659q0 14 5.5 19.5t20.5 5.5h38q15 0 20.5 -5.5t5.5 -19.5v-659z" />
    <glyph glyph-name="braceright" unicode="}" horiz-adv-x="328" 
d="M194 409q0 -36 17 -52t48 -25q12 -3 15.5 -6t3.5 -16v-35q0 -11 -3 -14t-14 -7q-32 -11 -49.5 -28t-17.5 -56v-157q0 -63 -26 -89t-78 -26h-49q-11 0 -15 3.5t-4 14.5v44q0 19 18 19h26q12 0 19.5 2.5t12 9.5t6 20t1.5 34v120q0 52 16.5 79.5t53.5 46.5v3
q-36 17 -53 45.5t-17 76.5v121q0 21 -1.5 34t-6 20t-12 9.5t-19.5 2.5h-26q-18 0 -18 19v44q0 11 4 14.5t15 3.5h49q52 0 78 -26t26 -89v-160z" />
    <glyph glyph-name="hyphen" unicode="-" horiz-adv-x="315" 
d="M58 216q-23 0 -23 20v45q0 13 5 17.5t18 4.5h199q13 0 18 -4.5t5 -17.5v-45q0 -20 -23 -20h-199z" />
    <glyph glyph-name="uni00AD" unicode="&#xad;" horiz-adv-x="315" 
d="M58 216q-23 0 -23 20v45q0 13 5 17.5t18 4.5h199q13 0 18 -4.5t5 -17.5v-45q0 -20 -23 -20h-199z" />
    <glyph glyph-name="endash" unicode="&#x2013;" horiz-adv-x="500" 
d="M23 216q-23 0 -23 20v45q0 13 5 17.5t18 4.5h454q13 0 18 -4.5t5 -17.5v-45q0 -20 -23 -20h-454z" />
    <glyph glyph-name="emdash" unicode="&#x2014;" horiz-adv-x="1000" 
d="M23 216q-23 0 -23 20v45q0 13 5 17.5t18 4.5h954q13 0 18 -4.5t5 -17.5v-45q0 -20 -23 -20h-954z" />
    <glyph glyph-name="underscore" unicode="_" horiz-adv-x="508" 
d="M46 -82q-13 0 -17 3t-4 16v31q0 11 4 15t17 4h416q13 0 17 -4t4 -15v-31q0 -13 -4 -16t-17 -3h-416z" />
    <glyph glyph-name="dagger" unicode="&#x2020;" horiz-adv-x="400" 
d="M349 482q17 0 20 -6t3 -20v-35q0 -15 -3 -20.5t-20 -5.5l-102 2l-4 -375q0 -22 -24 -22h-40q-13 0 -17.5 5t-4.5 17l-5 375l-101 -2q-17 0 -20 5.5t-3 20.5v35q0 14 3 20t20 6l100 -2l-2 160q0 13 5 17.5t22 4.5h47q19 0 23 -5.5t4 -16.5l-2 -160z" />
    <glyph glyph-name="daggerdbl" unicode="&#x2021;" horiz-adv-x="400" 
d="M349 482q17 0 20 -6t3 -20v-35q0 -15 -3 -20.5t-20 -5.5l-102 2l-1 -90l92 3q17 1 20 -5.5t3 -20.5v-37q0 -16 -4 -20.5t-19 -4.5l-93 2l-2 -202q0 -22 -24 -22h-40q-13 0 -17.5 5t-4.5 17l-3 202l-93 -2q-17 0 -20 6t-3 20v36q0 14 3 20t20 6l92 -2l-1 89l-101 -2
q-17 0 -20 5.5t-3 20.5v35q0 14 3 20t20 6l100 -2l-2 160q0 13 5 17.5t22 4.5h47q19 0 23 -5.5t4 -16.5l-2 -160z" />
    <glyph glyph-name="section" unicode="&#xa7;" horiz-adv-x="436" 
d="M383 337q0 -31 -13.5 -56.5t-43.5 -43.5q56 -29 56 -104v-9q0 -63 -42 -97q-45 -36 -137 -36q-36 0 -72.5 7t-61.5 17q-10 4 -12.5 7t-2.5 8t4 20l7 29q3 14 13 14q4 0 10 -2q27 -10 57.5 -16.5t57.5 -6.5q53 0 71 14t18 41v6q0 24 -16 36.5t-48 19.5l-57 12
q-62 13 -89.5 39.5t-27.5 80.5v5q0 34 17 57t40 33q-56 26 -56 104v9q0 63 44.5 93t127.5 30q32 0 62 -5t53 -12q11 -4 11 -11q0 -4 -1 -9.5t-3 -11.5l-7 -29q-3 -13 -11 -13q-4 0 -9 1t-10 3q-18 5 -40.5 8.5t-45.5 3.5q-16 0 -31.5 -2t-27.5 -8q-10 -5 -16 -14.5t-6 -26.5
v-6q0 -22 14 -33t45 -17l60 -12q62 -12 90.5 -36t28.5 -77v-4zM144 327q0 -23 11.5 -35t43.5 -19l56 -12q17 11 26.5 26.5t9.5 38.5q0 22 -11 33.5t-48 19.5l-50 10q-17 -8 -27.5 -23.5t-10.5 -38.5z" />
    <glyph glyph-name="paragraph" unicode="&#xb6;" horiz-adv-x="598" 
d="M412 -112q-13 0 -17 3t-4 16v693h-83v-693q0 -13 -3.5 -16t-17.5 -3h-54q-13 0 -17 3t-4 16v406q-37 2 -68 16.5t-54 38.5t-36 56.5t-13 70.5t13.5 71.5t39.5 58.5t63 39.5t85 14.5h296q11 0 14.5 -3.5t3.5 -13.5v-46q0 -9 -3.5 -12.5t-14.5 -3.5h-58v-693
q0 -13 -3.5 -16t-17.5 -3h-47z" />
    <glyph glyph-name="registered" unicode="&#xae;" horiz-adv-x="824" 
d="M399 300h-16t-15 1v-127q0 -9 -4.5 -13t-16.5 -4h-40q-20 0 -20 17v339q0 23 21 27q12 2 39 4t56 2q32 0 59 -6t47 -19.5t31 -36t11 -55.5v-10q0 -88 -77 -110l67 -112q8 -14 11.5 -20.5t3.5 -10.5q0 -9 -14 -9h-50q-8 0 -13.5 3t-10.5 12zM368 365q8 -1 17 -1.5t20 -0.5
q32 0 48 12.5t16 45.5v5q0 29 -14.5 41.5t-46.5 12.5q-8 0 -16.5 -0.5t-16.5 -1.5q-7 -1 -7 -11v-102zM412 69q65 0 115.5 20.5t85.5 57t53.5 87.5t18.5 113t-18.5 113.5t-53.5 88t-85.5 57t-115.5 20.5t-115.5 -20.5t-85.5 -57t-53.5 -88t-18.5 -113.5t18.5 -113
t53.5 -87.5t85.5 -57t115.5 -20.5zM412 -15q-84 0 -151.5 26.5t-115.5 74.5t-74 115t-26 147t26 146.5t74 114.5t115.5 74.5t151.5 26.5q83 0 151 -26.5t116 -74.5t74 -114.5t26 -146.5t-26 -147t-74 -115t-116 -74.5t-151 -26.5z" />
    <glyph glyph-name="copyright" unicode="&#xa9;" horiz-adv-x="824" 
d="M525 206q5 -15 5 -20q0 -7 -9 -11q-20 -11 -48 -17t-54 -6q-46 0 -76.5 12t-48.5 35t-25.5 56.5t-7.5 75.5v32q0 43 7.5 77t25.5 56.5t48 34.5t74 12q30 0 59.5 -7.5t52.5 -20.5q8 -5 8 -13q0 -6 -8 -22l-9 -18q-5 -10 -13 -10q-5 0 -9.5 2.5t-12.5 6.5q-12 6 -28 10
t-31 4q-42 0 -59.5 -24t-17.5 -88v-23q0 -27 2 -49t10.5 -37.5t24 -24t42.5 -8.5q38 0 69 14q6 3 11 3q3 0 6 -2t6 -12zM412 69q65 0 115.5 20.5t85.5 57t53.5 87.5t18.5 113t-18.5 113.5t-53.5 88t-85.5 57t-115.5 20.5t-115.5 -20.5t-85.5 -57t-53.5 -88t-18.5 -113.5
t18.5 -113t53.5 -87.5t85.5 -57t115.5 -20.5zM412 -15q-84 0 -151.5 26.5t-115.5 74.5t-74 115t-26 147t26 146.5t74 114.5t115.5 74.5t151.5 26.5q83 0 151 -26.5t116 -74.5t74 -114.5t26 -146.5t-26 -147t-74 -115t-116 -74.5t-151 -26.5z" />
    <glyph glyph-name="trademark" unicode="&#x2122;" horiz-adv-x="723" 
d="M190 359q0 -8 -3 -11.5t-13 -3.5h-42q-10 0 -13 3.5t-3 11.5v231h-70q-14 0 -14 13v35q0 13 14 13h216q14 0 14 -13v-35q0 -13 -14 -13h-72v-231zM465 376q-14 0 -19.5 3.5t-8.5 14.5q-14 42 -26.5 89.5t-26.5 97.5h-3q-3 -56 -5 -107t-3 -116q0 -14 -17 -14h-40
q-17 0 -17 14q2 75 6 139.5t9 128.5q2 15 7.5 20t18.5 5h65q16 0 21.5 -4.5t9.5 -18.5q12 -48 23 -90t25 -90h4q13 48 24.5 90t23.5 90q4 14 9.5 18.5t21.5 4.5h65q13 0 18.5 -5t7.5 -20q5 -64 9 -128.5t6 -139.5q0 -14 -17 -14h-40q-17 0 -17 14q-2 65 -3.5 116t-4.5 107
h-3q-14 -50 -26.5 -97.5t-26.5 -89.5q-3 -11 -8.5 -14.5t-19.5 -3.5h-42z" />
    <glyph glyph-name="quotedblleft" unicode="&#x201c;" horiz-adv-x="407" 
d="M288.982 443.973q-29.998 0 -43.9971 14.499t-13.999 47.4971v9q0 41.9971 19.998 92.9941q8 19.999 23.499 47.4971t32.498 44.4971q5.99902 8 11.999 8q7 0 15.999 -6l20.999 -12.999q8.99902 -6 8.99902 -11.999q0 -4 -4.99902 -11q-14 -17.998 -26.499 -39.9971
t-16.499 -35.998q-4 -14.999 6 -20.999l14.999 -7.99902q10.999 -6 15.499 -15.999t4.5 -28.998v-23.999q0 -47.9971 -53.9971 -47.9971h-14.999zM102.994 443.973q-29.999 0 -43.998 14.499t-13.999 47.4971v9q0 41.9971 19.999 92.9941q7.99902 19.999 23.498 47.4971
q15.5 27.498 32.498 44.4971q6 8 12 8q6.99902 0 15.999 -6l20.998 -12.999q9 -6 9 -11.999q0 -4 -5 -11q-13.999 -17.998 -26.498 -39.9971t-16.499 -35.998q-4 -14.999 5.99902 -20.999l14.999 -7.99902q11 -6 15.5 -15.999q4.49902 -9.99902 4.49902 -28.998v-23.999
q0 -47.9971 -53.9961 -47.9971h-14.999z" />
    <glyph glyph-name="quotedblright" unicode="&#x201d;" horiz-adv-x="407" 
d="M304 708q30 0 44 -14.5t14 -47.5v-9q0 -42 -20 -93q-8 -20 -23.5 -47.5t-32.5 -44.5q-6 -8 -12 -8q-7 0 -16 6l-21 13q-9 6 -9 12q0 4 5 11q14 18 26.5 40t16.5 36q4 15 -6 21l-15 8q-11 6 -15.5 16t-4.5 29v24q0 48 54 48h15zM118 708q30 0 44 -14.5t14 -47.5v-9
q0 -42 -20 -93q-8 -20 -23.5 -47.5t-32.5 -44.5q-6 -8 -12 -8q-7 0 -16 6l-21 13q-9 6 -9 12q0 4 5 11q14 18 26.5 40t16.5 36q4 15 -6 21l-15 8q-11 6 -15.5 16t-4.5 29v24q0 48 54 48h15z" />
    <glyph glyph-name="quoteleft" unicode="&#x2018;" horiz-adv-x="221" 
d="M102.994 443.973q-29.999 0 -43.998 14.499t-13.999 47.4971v9q0 41.9971 19.999 92.9941q7.99902 19.999 23.498 47.4971q15.5 27.498 32.498 44.4971q6 8 12 8q6.99902 0 15.999 -6l20.998 -12.999q9 -6 9 -11.999q0 -4 -5 -11q-13.999 -17.998 -26.498 -39.9971
t-16.499 -35.998q-4 -14.999 5.99902 -20.999l14.999 -7.99902q11 -6 15.5 -15.999q4.49902 -9.99902 4.49902 -28.998v-23.999q0 -47.9971 -53.9961 -47.9971h-14.999z" />
    <glyph glyph-name="quoteright" unicode="&#x2019;" horiz-adv-x="221" 
d="M118 708q30 0 44 -14.5t14 -47.5v-9q0 -42 -20 -93q-8 -20 -23.5 -47.5t-32.5 -44.5q-6 -8 -12 -8q-7 0 -16 6l-21 13q-9 6 -9 12q0 4 5 11q14 18 26.5 40t16.5 36q4 15 -6 21l-15 8q-11 6 -15.5 16t-4.5 29v24q0 48 54 48h15z" />
    <glyph glyph-name="guillemotleft" unicode="&#xab;" horiz-adv-x="543" 
d="M258 130q11 -9 11 -18q0 -5 -3 -10.5t-12 -13.5l-16 -15q-9 -8 -17 -8q-9 0 -25 13l-145 119q-8 7 -11 14t-3 17v8q0 10 3 17t11 14l145 120q16 13 25 13q8 0 17 -8l16 -15q9 -8 12 -13.5t3 -10.5q0 -9 -11 -18l-110 -103zM497 130q11 -9 11 -18q0 -5 -3 -10.5t-12 -13.5
l-16 -15q-9 -8 -17 -8q-9 0 -25 13l-145 119q-8 7 -11 14t-3 17v8q0 10 3 17t11 14l145 120q16 13 25 13q8 0 17 -8l16 -15q9 -8 12 -13.5t3 -10.5q0 -9 -11 -18l-110 -103z" />
    <glyph glyph-name="guillemotright" unicode="&#xbb;" horiz-adv-x="543" 
d="M156 232l-110 103q-11 9 -11 18q0 5 3 10.5t12 13.5l16 15q9 8 17 8q9 0 25 -13l145 -120q8 -7 11 -14t3 -17v-8q0 -10 -3 -17t-11 -14l-145 -119q-16 -13 -25 -13q-8 0 -17 8l-16 15q-9 8 -12 13.5t-3 10.5q0 9 11 18zM395 232l-110 103q-11 9 -11 18q0 5 3 10.5
t12 13.5l16 15q9 8 17 8q9 0 25 -13l145 -120q8 -7 11 -14t3 -17v-8q0 -10 -3 -17t-11 -14l-145 -119q-16 -13 -25 -13q-8 0 -17 8l-16 15q-9 8 -12 13.5t-3 10.5q0 9 11 18z" />
    <glyph glyph-name="guilsinglleft" unicode="&#x2039;" horiz-adv-x="304" 
d="M258 130q11 -9 11 -18q0 -5 -3 -10.5t-12 -13.5l-16 -15q-9 -8 -17 -8q-9 0 -25 13l-145 119q-8 7 -11 14t-3 17v8q0 10 3 17t11 14l145 120q16 13 25 13q8 0 17 -8l16 -15q9 -8 12 -13.5t3 -10.5q0 -9 -11 -18l-110 -103z" />
    <glyph glyph-name="guilsinglright" unicode="&#x203a;" horiz-adv-x="304" 
d="M156 232l-110 103q-11 9 -11 18q0 5 3 10.5t12 13.5l16 15q9 8 17 8q9 0 25 -13l145 -120q8 -7 11 -14t3 -17v-8q0 -10 -3 -17t-11 -14l-145 -119q-16 -13 -25 -13q-8 0 -17 8l-16 15q-9 8 -12 13.5t-3 10.5q0 9 11 18z" />
    <glyph glyph-name="quotesinglbase" unicode="&#x201a;" horiz-adv-x="221" 
d="M118 112q30 0 44 -14.5t14 -47.5v-9q0 -42 -20 -93q-8 -20 -23.5 -47.5t-32.5 -44.5q-6 -8 -12 -8q-7 0 -16 6l-21 13q-9 6 -9 12q0 4 5 11q14 18 26.5 40t16.5 36q4 15 -6 21l-15 8q-11 6 -15.5 16t-4.5 29v24q0 48 54 48h15z" />
    <glyph glyph-name="quotedblbase" unicode="&#x201e;" horiz-adv-x="407" 
d="M304 112q30 0 44 -14.5t14 -47.5v-9q0 -42 -20 -93q-8 -20 -23.5 -47.5t-32.5 -44.5q-6 -8 -12 -8q-7 0 -16 6l-21 13q-9 6 -9 12q0 4 5 11q14 18 26.5 40t16.5 36q4 15 -6 21l-15 8q-11 6 -15.5 16t-4.5 29v24q0 48 54 48h15zM118 112q30 0 44 -14.5t14 -47.5v-9
q0 -42 -20 -93q-8 -20 -23.5 -47.5t-32.5 -44.5q-6 -8 -12 -8q-7 0 -16 6l-21 13q-9 6 -9 12q0 4 5 11q14 18 26.5 40t16.5 36q4 15 -6 21l-15 8q-11 6 -15.5 16t-4.5 29v24q0 48 54 48h15z" />
    <glyph glyph-name="ordfeminine" unicode="&#xaa;" horiz-adv-x="308" 
d="M210 321q-11 -16 -26.5 -24t-40.5 -8h-23q-51 0 -72.5 23t-21.5 66v11q0 50 28.5 71.5t91.5 21.5h24q9 0 17.5 -0.5t16.5 -1.5v18q0 26 -12 35t-48 9q-30 0 -65 -8q-4 -1 -8.5 -2t-7.5 -1q-4 0 -5.5 3t-3.5 12l-3 17q-2 10 -2 14q0 7 10 11q21 7 46.5 10.5t47.5 3.5
q64 0 92 -23t28 -82v-193q0 -10 -10 -10h-38q-11 0 -12 10zM204 424q-6 1 -13.5 1.5t-15.5 0.5h-31q-32 0 -41 -9.5t-9 -29.5v-7q0 -20 8.5 -28.5t29.5 -8.5h18q54 0 54 54v27z" />
    <glyph glyph-name="ordmasculine" unicode="&#xba;" horiz-adv-x="329" 
d="M107 440q0 -55 13 -73.5t45 -18.5t44.5 18.5t12.5 73.5v10q0 54 -12.5 73.5t-44.5 19.5t-45 -19.5t-13 -73.5v-10zM294 434q0 -79 -30 -112t-99 -33t-99.5 33t-30.5 112v24q0 79 30.5 111.5t99.5 32.5t99 -32.5t30 -111.5v-24z" />
    <glyph glyph-name="zero" unicode="0" 
d="M489 310q0 -94 -13 -156t-45 -100q-28 -33 -70 -48t-96 -15t-96 15t-70 48q-32 38 -45 100t-13 156v27q0 94 13 156t45 100q28 33 70 48t96 15t96 -15t70 -48q32 -38 45 -100t13 -156v-27zM388 330q0 33 -0.5 64t-4 59t-11 50.5t-20.5 39.5q-15 19 -36.5 26.5t-50.5 7.5
t-50.5 -7.5t-36.5 -26.5q-14 -17 -21 -39.5t-10.5 -50.5t-4 -59t-0.5 -64v-13q0 -33 0.5 -64t4 -59t10.5 -51t21 -39q15 -19 36.5 -26.5t50.5 -7.5t50.5 7.5t36.5 26.5q13 16 20.5 39t11 51t4 59t0.5 64v13z" />
    <glyph glyph-name="one" unicode="1" 
d="M101 0q-20 0 -20 17v41q0 12 4.5 15.5t15.5 3.5h134v474h-6l-97 -55q-5 -2 -7.5 -4t-7.5 -2q-6 0 -13 12l-14 24q-10 19 -10 24q0 4 1.5 7t8.5 7l123 70q14 8 23 10.5t26 2.5h43q17 0 22.5 -4.5t5.5 -19.5v-546h126q11 0 15.5 -3.5t4.5 -15.5v-41q0 -17 -20 -17h-358z
" />
    <glyph glyph-name="two" unicode="2" 
d="M94 621q38 16 86 25.5t91 9.5q94 0 143 -39t49 -130v-10q0 -39 -8.5 -68.5t-25 -52t-42 -39.5t-59.5 -32l-72 -32q-27 -12 -46 -25.5t-30 -31.5t-16 -40.5t-5 -52.5v-26h274q11 0 16 -4.5t5 -16.5v-37q0 -11 -5 -15t-16 -4h-338q-17 0 -23 5.5t-6 20.5v59q0 91 30.5 146
t101.5 87l74 33q28 13 46 25t28 26.5t13.5 32t3.5 41.5v7q0 55 -24.5 74.5t-75.5 19.5q-32 0 -69 -8.5t-72 -19.5q-9 -3 -13 -3q-5 0 -8 3t-6 13l-7 24q-2 6 -3 11t-1 9q0 11 10 15z" />
    <glyph glyph-name="three" unicode="3" 
d="M64 80q3 12 12 12q5 0 16 -3q28 -8 66.5 -14.5t72.5 -6.5q60 0 91.5 26t31.5 85v8q0 65 -34.5 89.5t-112.5 24.5h-35q-19 0 -19 18v43q0 17 20 17h24q66 0 104.5 24.5t38.5 83.5v8q0 46 -28 65t-73 19q-29 0 -61.5 -7t-59.5 -18q-13 -5 -18 -5q-6 0 -8.5 4.5t-4.5 9.5
l-7 24q-5 18 -5 23q0 9 11 14q30 13 75.5 22.5t89.5 9.5q41 0 75.5 -8.5t59.5 -27t39 -48t14 -71.5v-10q0 -52 -22 -91.5t-75 -53.5v-1q53 -9 82.5 -49t29.5 -106v-12q0 -88 -52.5 -137.5t-164.5 -49.5q-44 0 -89.5 6.5t-79.5 16.5q-10 3 -13 6t-3 9q0 4 2 11.5t4 16.5z" />
    <glyph glyph-name="four" unicode="4" 
d="M52 158q-14 0 -19.5 4.5t-5.5 18.5v22q0 11 6.5 23.5t15.5 27.5l227 370q8 14 16 18.5t23 4.5h75q18 0 25 -6t7 -23v-380h61q11 0 15 -4t4 -17v-38q0 -14 -4 -17.5t-15 -3.5h-61v-138q0 -11 -4.5 -15.5t-17.5 -4.5h-54q-13 0 -17.5 4.5t-4.5 15.5v138h-272zM324 550h-6
l-193 -312h199v312z" />
    <glyph glyph-name="five" unicode="5" 
d="M368 209q0 59 -24.5 91t-88.5 32q-32 0 -62 -8t-59 -22q-5 -2 -9 -4t-8 -2q-7 0 -17 6l-15 8q-10 6 -10 16v7.5t2 31.5l18 260q1 22 24 22h282q12 0 16.5 -3.5t4.5 -14.5v-42q0 -11 -4.5 -14.5t-16.5 -3.5h-213q-14 0 -15 -13l-11 -169q23 11 55 17.5t65 6.5
q96 0 141 -53t45 -146v-13q0 -58 -16 -97.5t-46 -64t-71.5 -35.5t-92.5 -11q-44 0 -93 11t-84 28q-14 7 -14 17q0 5 2 10.5t5 13.5l8 20q5 15 15 15q5 0 14 -4q29 -13 71 -23.5t78 -10.5q66 0 95 32.5t29 99.5v9z" />
    <glyph glyph-name="six" unicode="6" 
d="M424 638q11 -4 15 -8.5t1 -15.5l-10 -38q-3 -11 -7.5 -14t-17.5 1q-22 7 -45.5 11t-49.5 4q-44 0 -74.5 -14t-49.5 -41t-27 -67t-8 -92q30 21 69 34t84 13q89 0 132.5 -50.5t43.5 -141.5v-14q0 -101 -54.5 -157.5t-156.5 -56.5q-61 0 -103 19.5t-67.5 57.5t-37 95
t-11.5 131v28q0 172 65.5 253t195.5 81q33 0 63 -5t50 -13zM149 282q-1 -115 28.5 -164.5t93.5 -49.5q58 0 84.5 35t26.5 99v9q0 65 -26.5 92t-76.5 27q-37 0 -69.5 -13.5t-60.5 -34.5z" />
    <glyph glyph-name="seven" unicode="7" 
d="M206 21q-6 -12 -13.5 -16.5t-23.5 -4.5h-56q-16 0 -16 11q0 5 3 11.5t9 17.5l270 529h-292q-12 0 -16.5 4t-4.5 15v38q0 11 4.5 16t16.5 5h380q12 0 16 -4t4 -15v-25q0 -15 -7.5 -31t-18.5 -39z" />
    <glyph glyph-name="eight" unicode="8" 
d="M377 332q57 -25 82 -64t25 -87v-11q0 -44 -16.5 -77.5t-46 -56t-69.5 -34t-86 -11.5q-103 0 -162 45.5t-59 128.5v9q0 52 31 95t77 67q-47 29 -67 64t-20 84v8q0 36 14 66t40.5 52t64.5 34t86 12q91 0 143 -39.5t52 -117.5v-9q0 -49 -23 -90t-66 -68zM220 303
q-38 -25 -56 -57.5t-18 -69.5v-5q0 -49 33 -76.5t90 -27.5q55 0 84.5 26t29.5 76v4q0 36 -23 59.5t-83 47.5zM268 580q-46 0 -75.5 -22.5t-29.5 -66.5v-6q0 -35 21 -59t66 -42l58 -23q28 24 45 54.5t17 65.5v6q0 45 -27.5 69t-74.5 24z" />
    <glyph glyph-name="nine" unicode="9" 
d="M99 7q-13 4 -13 13q0 8 5 28l5 22q4 17 24 12q23 -6 48.5 -9.5t51.5 -3.5q50 0 81 15t48 42t23.5 65.5t7.5 85.5q-23 -20 -63 -31.5t-79 -11.5q-188 0 -188 196v17q0 46 14 84.5t41 66t66.5 43t90.5 15.5q61 0 103 -19.5t67.5 -58t36.5 -96.5t11 -134v-22
q0 -94 -15.5 -158t-47 -103.5t-81 -56.5t-116.5 -17q-35 0 -69.5 5t-51.5 11zM252 314q36 0 69 12t59 36q2 114 -24 165.5t-93 51.5q-115 0 -115 -131v-13q0 -121 104 -121z" />
    <glyph glyph-name="dollar" unicode="$" 
d="M468 180q0 -95 -41.5 -138t-133.5 -49v-76q0 -14 -15 -14h-30q-15 0 -15 14v75q-41 2 -82.5 9.5t-73.5 18.5q-15 6 -15 17q0 2 0.5 7t2.5 14l8 31q3 12 13 12q5 0 16 -4q28 -10 60.5 -17.5t70.5 -9.5v227l-21 5q-39 9 -67 22.5t-46 33t-26.5 46.5t-8.5 65v16
q0 158 176 170v77q0 14 15 14h30q15 0 15 -14v-77q37 -2 68.5 -7.5t52.5 -12.5q17 -6 17 -15q0 -5 -2 -12.5t-5 -18.5l-6 -22q-3 -14 -14 -14q-6 0 -13 3q-50 16 -98 20v-206l20 -4q39 -9 67 -21t46 -31.5t26.5 -49t8.5 -72.5v-12zM377 184q0 24 -3.5 39.5t-12.5 26.5
t-25.5 18.5t-42.5 14.5v-211q48 5 66 29t18 73v10zM157 473q0 -44 20 -61.5t63 -27.5v191q-44 -5 -63.5 -27.5t-19.5 -64.5v-10z" />
    <glyph glyph-name="cent" unicode="&#xa2;" 
d="M428 56q3 -10 4 -15.5t1 -7.5q0 -11 -15 -17q-20 -9 -44.5 -14.5t-50.5 -8.5v-88q0 -14 -15 -14h-30q-15 0 -15 14v87q-39 2 -71 12t-52 30q-33 32 -44 81t-11 115v32q0 39 3 68.5t9.5 51t16.5 37.5t24 30q23 22 54.5 34t70.5 15v81q0 14 15 14h30q15 0 15 -14v-83
q33 -5 63.5 -15.5t50.5 -24.5q9 -6 9 -13q0 -5 -10 -24l-14 -26q-6 -10 -12 -10q-5 0 -12 4q-38 23 -75 31v-350q20 2 38.5 7t32.5 10q10 4 15 4q9 0 13 -12zM204 100q19 -23 59 -31v350q-33 -5 -52 -22q-12 -12 -18.5 -26t-9.5 -31.5t-3.5 -38.5t-0.5 -47v-16
q0 -55 4.5 -86.5t20.5 -51.5z" />
    <glyph glyph-name="Euro" unicode="&#x20ac;" 
d="M211 205q4 -33 13 -58.5t25.5 -42t42.5 -25t64 -8.5q32 0 63 5t52 13q15 5 19 5q9 0 13 -14l5 -19q3 -13 4.5 -20t1.5 -12q0 -7 -13 -12q-29 -11 -70 -18.5t-79 -7.5q-62 0 -105 12.5t-72 38.5t-44.5 66.5t-21.5 96.5h-68q-11 0 -14.5 4t-3.5 15v33q0 11 3.5 15t14.5 4
h64v69h-64q-11 0 -14.5 4t-3.5 15v33q0 11 3.5 15t14.5 4h67q9 126 65 183t166 57q51 0 93 -11.5t76 -30.5q13 -8 13 -17q0 -5 -2.5 -11t-10.5 -20l-12 -21q-6 -10 -13 -10q-8 0 -19 7q-24 14 -55 24t-70 10q-30 0 -53 -7.5t-39 -25.5t-25.5 -49t-12.5 -78h199q11 0 14.5 -4
t3.5 -15v-33q0 -11 -3.5 -15t-14.5 -4h-202v-69h202q11 0 14.5 -4t3.5 -15v-33q0 -11 -3.5 -15t-14.5 -4h-197z" />
    <glyph glyph-name="florin" unicode="&#x192;" 
d="M280 -21q-2 -33 -10.5 -63t-26.5 -53.5t-47 -37.5t-71 -14q-31 0 -54.5 3.5t-42.5 9.5q-12 4 -12 13q0 4 1 9t4 16l5 21q2 9 7.5 12.5t17.5 -0.5q11 -3 27 -6t34 -3q72 0 78 94l22 318h-64q-12 0 -12 8v8.5t1 12.5l1 18q1 11 5.5 15t15.5 6l58 8l9 132q7 98 48 139
t124 41q22 0 44 -4t38 -9q14 -4 14 -13q0 -6 -6 -28l-6 -19q-4 -14 -13 -14q-3 0 -9 2q-13 4 -26.5 6.5t-31.5 2.5q-24 0 -39 -5.5t-25 -19.5t-14.5 -37.5t-7.5 -58.5l-8 -113h112q19 0 19 -14q0 -5 -0.5 -13t-1.5 -17l-2 -17q-1 -11 -5.5 -14t-18.5 -3h-109z" />
    <glyph glyph-name="sterling" unicode="&#xa3;" 
d="M441 564q-22 6 -50 10t-51 4q-55 0 -77 -23q-14 -14 -19 -37.5t-5 -62.5v-87h167q12 0 15.5 -4t3.5 -15v-40q0 -10 -4 -13.5t-15 -3.5h-167v-44q0 -55 -10.5 -96.5t-48.5 -72.5v-1h278q14 0 18 -3.5t4 -15.5v-40q0 -10 -4.5 -14.5t-16.5 -4.5h-382q-15 0 -19 4t-4 17v25
q0 11 4.5 17t16.5 14q35 23 50.5 60t15.5 89v66h-51q-11 0 -15.5 3t-4.5 14v27q0 11 4 15.5t15 6.5l52 9v88q0 54 11.5 90.5t35.5 61.5q24 24 60.5 36.5t90.5 12.5q29 0 62.5 -4t62.5 -15q15 -5 15 -15q0 -4 -2 -11t-4 -15l-6 -20q-3 -9 -5 -12t-7 -3q-4 0 -14 3z" />
    <glyph glyph-name="yen" unicode="&#xa5;" 
d="M314 20q0 -13 -5 -16.5t-17 -3.5h-54q-12 0 -17 3.5t-5 16.5v76h-117q-13 0 -15 4.5t-2 13.5v35q0 11 2 15t15 4h117v54h-117q-13 0 -15 4.5t-2 13.5v35q0 11 2 15t15 4h79q-21 40 -39 78.5t-35 79t-32.5 83.5t-31.5 93q-3 10 2 14.5t16 4.5h56q12 0 17.5 -3.5t8.5 -14.5
q23 -81 55 -165.5t67 -159.5h7q35 75 66.5 159.5t55.5 165.5q4 14 11.5 16t25.5 2h45q23 0 17 -19q-16 -49 -31.5 -92.5t-32 -84t-35 -79t-39.5 -78.5h79q13 0 15 -4t2 -15v-35q0 -9 -2 -13.5t-15 -4.5h-117v-54h117q13 0 15 -4t2 -15v-35q0 -9 -2 -13.5t-15 -4.5h-117v-76z
" />
    <glyph glyph-name="numbersign" unicode="#" horiz-adv-x="626" 
d="M268 372l-23 -103h109l23 103h-109zM514 648q12 0 16 -2.5t4 -8.5q0 -8 -6 -33l-33 -149h95q16 0 16 -9q0 -5 -2 -13t-5 -21l-4 -17q-3 -14 -9 -18.5t-20 -4.5h-90l-23 -103h97q16 0 16 -9q0 -5 -2 -13t-5 -21l-4 -17q-3 -14 -9 -18.5t-20 -4.5h-90l-37 -164
q-3 -13 -9 -17.5t-20 -4.5h-52q-12 0 -16 2.5t-4 8.5q0 7 6 31l32 144h-109l-36 -164q-3 -13 -9 -17.5t-20 -4.5h-52q-12 0 -16 2.5t-4 8.5q0 5 6 31l32 144h-92q-16 0 -16 9q0 5 2 13t5 21l4 17q3 14 9 18.5t20 4.5h86l23 103h-93q-16 0 -16 9q0 5 2 13t5 21l4 17
q3 14 9 18.5t20 4.5h87l38 171q3 13 9 17.5t20 4.5h52q12 0 16 -2.5t4 -8.5q0 -9 -6 -33l-33 -149h108l38 171q3 13 9 17.5t20 4.5h52z" />
    <glyph glyph-name="percent" unicode="%" horiz-adv-x="824" 
d="M197 656q32 0 55.5 -8.5t39.5 -23.5q26 -26 34 -63.5t8 -80.5v-10q0 -43 -8 -80.5t-34 -62.5q-33 -33 -95 -33t-95 33q-26 25 -34 62.5t-8 80.5v10q0 43 8 80.5t34 63.5q16 15 39.5 23.5t55.5 8.5zM197 366q26 0 37.5 21.5t11.5 83.5v8q0 62 -11.5 83.5t-37.5 21.5
t-37.5 -21.5t-11.5 -83.5v-8q0 -62 11.5 -83.5t37.5 -21.5zM627 353q32 0 55.5 -8.5t39.5 -23.5q26 -26 34 -63.5t8 -80.5v-10q0 -43 -8 -80.5t-34 -62.5q-33 -33 -95 -33t-95 33q-26 25 -34 62.5t-8 80.5v10q0 43 8 80.5t34 63.5q16 15 39.5 23.5t55.5 8.5zM627 63
q26 0 37.5 21.5t11.5 83.5v8q0 62 -11.5 83.5t-37.5 21.5t-37.5 -21.5t-11.5 -83.5v-8q0 -62 11.5 -83.5t37.5 -21.5zM281 8q-6 -10 -12.5 -13.5t-18.5 -3.5h-52q-14 0 -14 10q0 7 11 26l347 612q6 10 12.5 13.5t18.5 3.5h52q14 0 14 -10q0 -7 -11 -26z" />
    <glyph glyph-name="perthousand" unicode="&#x2030;" horiz-adv-x="1144" 
d="M197 656q32 0 55.5 -8.5t39.5 -23.5q26 -26 34 -63.5t8 -80.5v-10q0 -43 -8 -80.5t-34 -62.5q-33 -33 -95 -33t-95 33q-26 25 -34 62.5t-8 80.5v10q0 43 8 80.5t34 63.5q16 15 39.5 23.5t55.5 8.5zM197 366q26 0 37.5 21.5t11.5 83.5v8q0 62 -11.5 83.5t-37.5 21.5
t-37.5 -21.5t-11.5 -83.5v-8q0 -62 11.5 -83.5t37.5 -21.5zM627 353q32 0 55.5 -8.5t39.5 -23.5q26 -26 34 -63.5t8 -80.5v-10q0 -43 -8 -80.5t-34 -62.5q-33 -33 -95 -33t-95 33q-26 25 -34 62.5t-8 80.5v10q0 43 8 80.5t34 63.5q16 15 39.5 23.5t55.5 8.5zM627 63
q26 0 37.5 21.5t11.5 83.5v8q0 62 -11.5 83.5t-37.5 21.5t-37.5 -21.5t-11.5 -83.5v-8q0 -62 11.5 -83.5t37.5 -21.5zM281 8q-6 -10 -12.5 -13.5t-18.5 -3.5h-52q-14 0 -14 10q0 7 11 26l347 612q6 10 12.5 13.5t18.5 3.5h52q14 0 14 -10q0 -7 -11 -26zM947 353
q32 0 55.5 -8.5t39.5 -23.5q26 -26 34 -63.5t8 -80.5v-10q0 -43 -8 -80.5t-34 -62.5q-33 -33 -95 -33t-95 33q-26 25 -34 62.5t-8 80.5v10q0 43 8 80.5t34 63.5q16 15 39.5 23.5t55.5 8.5zM947 63q26 0 37.5 21.5t11.5 83.5v8q0 62 -11.5 83.5t-37.5 21.5t-37.5 -21.5
t-11.5 -83.5v-8q0 -62 11.5 -83.5t37.5 -21.5z" />
    <glyph glyph-name="plus" unicode="+" 
d="M310 216v-155q0 -14 -6 -18t-21 -4h-37q-16 0 -21.5 4t-5.5 18v155h-150q-14 0 -19 5t-5 18v41q0 12 5 17.5t19 5.5h150v155q0 14 5.5 18t21.5 4h37q15 0 21 -4t6 -18v-155h150q14 0 19 -5.5t5 -17.5v-41q0 -13 -5 -18t-19 -5h-150z" />
    <glyph glyph-name="minus" unicode="&#x2212;" 
d="M69 216q-14 0 -19 5t-5 18v41q0 12 5 17.5t19 5.5h391q14 0 19 -5.5t5 -17.5v-41q0 -13 -5 -18t-19 -5h-391z" />
    <glyph glyph-name="multiply" unicode="&#xd7;" 
d="M326 259l110 -109q10 -11 8.5 -17.5t-12.5 -17.5l-24 -24q-11 -11 -17 -12t-17 9l-110 110l-107 -107q-10 -10 -17 -10t-16 9l-29 29q-17 15 1 33l107 107l-110 110q-10 11 -9 17t12 17l24 24q11 11 17.5 12.5t17.5 -8.5l109 -110l108 107q18 18 33 1l29 -29q9 -9 9 -16
t-10 -17z" />
    <glyph glyph-name="less" unicode="&#x3c;" 
d="M77 226q-14 8 -14 24v21q0 16 14 24l326 175q7 4 11 5t7 1q9 0 16 -13l14 -24q11 -18 11 -26q0 -9 -16 -18l-251 -135l251 -133q16 -9 16 -18q0 -8 -11 -26l-14 -24q-7 -13 -16 -13q-3 0 -7 1t-11 5z" />
    <glyph glyph-name="divide" unicode="&#xf7;" 
d="M266 500q56 0 56 -52v-21q0 -52 -56 -52h-7q-57 0 -57 52v21q0 52 57 52h7zM69 216q-14 0 -19 5t-5 18v41q0 12 5 17.5t19 5.5h391q14 0 19 -5.5t5 -17.5v-41q0 -13 -5 -18t-19 -5h-391zM266 144q56 0 56 -52v-21q0 -52 -56 -52h-7q-57 0 -57 52v21q0 52 57 52h7z" />
    <glyph glyph-name="equal" unicode="=" 
d="M69 319q-14 0 -19 5t-5 18v41q0 12 5 17.5t19 5.5h391q14 0 19 -5.5t5 -17.5v-41q0 -13 -5 -18t-19 -5h-391zM69 113q-14 0 -19 5t-5 18v41q0 12 5 17.5t19 5.5h391q14 0 19 -5.5t5 -17.5v-41q0 -13 -5 -18t-19 -5h-391z" />
    <glyph glyph-name="logicalnot" unicode="&#xac;" 
d="M415 40q-14 0 -18.5 4.5t-4.5 17.5v154h-323q-14 0 -19 5t-5 18v41q0 12 5 17.5t19 5.5h391q14 0 19 -5.5t5 -17.5v-218q0 -13 -4.5 -17.5t-18.5 -4.5h-46z" />
    <glyph glyph-name="greater" unicode="&#x3e;" 
d="M127 52q-7 -4 -11 -5t-7 -1q-9 0 -16 13l-14 24q-11 18 -11 26q0 9 16 18l251 133l-251 135q-16 9 -16 18q0 8 11 26l14 24q7 13 16 13q3 0 7 -1t11 -5l326 -175q14 -8 14 -24v-21q0 -16 -14 -24z" />
    <glyph glyph-name="notequal" unicode="&#x2260;" 
d="M369 406h91q14 0 19 -5.5t5 -17.5v-41q0 -13 -5 -18t-19 -5h-126l-47 -119h173q14 0 19 -5.5t5 -17.5v-41q0 -13 -5 -18t-19 -5h-207l-41 -103q-4 -10 -9 -13.5t-19 -3.5h-53q-16 0 -16 12q0 5 3 13l37 95h-86q-14 0 -19 5t-5 18v41q0 12 5 17.5t19 5.5h121l47 119h-168
q-14 0 -19 5t-5 18v41q0 12 5 17.5t19 5.5h202l43 107q4 10 9 13.5t19 3.5h53q16 0 16 -12q0 -6 -3 -13z" />
    <glyph glyph-name="approxequal" unicode="&#x2248;" 
d="M358 292q-33 0 -57 10.5t-44 23t-38 23t-38 10.5q-19 0 -36.5 -14.5t-37.5 -40.5q-7 -10 -15 -10q-6 0 -15 5l-22 14q-21 13 -21 21q0 6 4 13.5t9 14.5q31 45 63.5 65t71.5 20q29 0 50.5 -10.5t40.5 -23t38 -23t43 -10.5q19 0 34.5 14t31.5 41q4 7 7 9t7 2q6 0 16 -5
l34 -17q12 -5 12 -15q0 -7 -4 -15q-32 -59 -65.5 -80.5t-68.5 -21.5zM358 80q-33 0 -57 10.5t-43.5 23t-37.5 23t-39 10.5q-19 0 -36.5 -14.5t-37.5 -40.5q-7 -10 -15 -10q-6 0 -15 5l-22 14q-21 13 -21 21q0 6 4 13.5t9 14.5q31 45 63.5 65t71.5 20q29 0 50.5 -10.5
t40.5 -23t38 -23t43 -10.5q19 0 34.5 14t31.5 41q4 7 7 9t7 2q6 0 16 -5l34 -17q12 -5 12 -15q0 -7 -4 -15q-32 -59 -65.5 -80.5t-68.5 -21.5z" />
    <glyph glyph-name="plusminus" unicode="&#xb1;" 
d="M69 336q-14 0 -19 5t-5 18v41q0 12 5 17.5t19 5.5h150v145q0 14 5 18t21 4h38q15 0 21 -4t6 -18v-145h150q14 0 19 -5.5t5 -17.5v-41q0 -13 -5 -18t-19 -5h-150v-145q0 -14 -6 -18t-21 -4h-38q-16 0 -21 4t-5 18v145h-150zM69 0q-14 0 -19 5t-5 18v41q0 12 5 17.5t19 5.5
h391q14 0 19 -5.5t5 -17.5v-41q0 -13 -5 -18t-19 -5h-391z" />
    <glyph glyph-name="lessequal" unicode="&#x2264;" 
d="M445 249q15 -7 15 -15q0 -3 -2 -8.5t-9 -16.5l-15 -28q-4 -7 -6.5 -9t-6.5 -2t-14 5l-342 169q-13 6 -13 23v21q0 16 13 23l342 169q10 5 14 5t6.5 -2t6.5 -9l15 -28q7 -11 9 -16.5t2 -8.5q0 -8 -15 -15l-259 -128zM69 0q-14 0 -19 5t-5 18v41q0 12 5 17.5t19 5.5h391
q14 0 19 -5.5t5 -17.5v-41q0 -13 -5 -18t-19 -5h-391z" />
    <glyph glyph-name="greaterequal" unicode="&#x2265;" 
d="M344 378l-259 128q-15 7 -15 15q0 3 2 8.5t9 16.5l15 28q4 7 6.5 9t6.5 2t14 -5l342 -169q13 -7 13 -23v-21q0 -17 -13 -23l-342 -169q-10 -5 -14 -5t-6.5 2t-6.5 9l-15 28q-7 11 -9 16.5t-2 8.5q0 8 15 15zM70 0q-14 0 -19 5t-5 18v41q0 12 5 17.5t19 5.5h391
q14 0 19 -5.5t5 -17.5v-41q0 -13 -5 -18t-19 -5h-391z" />
    <glyph glyph-name="asciicircum" unicode="^" 
d="M269 496h-8l-120 -182q-11 -17 -21 -17q-8 0 -19 8l-27 20q-11 8 -14 12t-3 9t6 14l147 220q8 11 15 13.5t21 2.5h38q14 0 21 -2.5t15 -13.5l147 -220q6 -9 6 -14t-3 -9t-14 -12l-27 -20q-11 -8 -19 -8q-10 0 -21 17z" />
    <glyph glyph-name="asciitilde" unicode="~" 
d="M358 240q-33 0 -57 10.5t-44 23t-38 23t-38 10.5q-19 0 -36.5 -14.5t-37.5 -40.5q-7 -10 -15 -10q-6 0 -15 5l-22 14q-21 13 -21 21q0 6 4 13.5t9 14.5q31 45 63.5 65t71.5 20q29 0 50.5 -10.5t40.5 -23t38 -23t43 -10.5q19 0 34.5 14t31.5 41q4 7 7 9t7 2q6 0 16 -5
l34 -17q12 -5 12 -15q0 -7 -4 -15q-32 -59 -65.5 -80.5t-68.5 -21.5z" />
    <glyph glyph-name="lozenge" unicode="&#x25ca;" 
d="M265 550h-1l-130 -227l130 -222h1l131 222zM308 10q-12 -19 -32 -19h-26q-19 0 -30 19l-164 280q-11 17 -11 31v9q0 9 3 16.5t8 15.5l164 281q7 11 14 15.5t17 4.5h26q11 0 18 -4.5t14 -15.5l165 -281q5 -8 8 -15.5t3 -16.5v-9q0 -8 -3 -15t-8 -16z" />
    <glyph glyph-name="degree" unicode="&#xb0;" horiz-adv-x="344" 
d="M172 542q25 0 39 16t14 42t-14 42t-39 16t-39 -16t-14 -42t14 -42t39 -16zM172 466q-28 0 -52.5 10.5t-42.5 28.5t-28.5 42.5t-10.5 52.5t10.5 52.5t28.5 42.5t42.5 28.5t52.5 10.5t52.5 -10.5t42.5 -28.5t28.5 -42.5t10.5 -52.5t-10.5 -52.5t-28.5 -42.5t-42.5 -28.5
t-52.5 -10.5z" />
    <glyph glyph-name="quotesingle" unicode="'" horiz-adv-x="191" 
d="M70 444q-16 0 -16 18l-10 220q-2 21 17 21h69q19 0 17 -21l-10 -220q0 -18 -17 -18h-50z" />
    <glyph glyph-name="quotedbl" unicode="&#x22;" horiz-adv-x="381" 
d="M260 444q-16 0 -16 18l-10 220q-2 21 17 21h69q19 0 17 -21l-10 -220q0 -18 -17 -18h-50zM70 444q-16 0 -16 18l-10 220q-2 21 17 21h69q19 0 17 -21l-10 -220q0 -18 -17 -18h-50z" />
    <glyph glyph-name="radical" unicode="&#x221a;" horiz-adv-x="590" 
d="M38 478q0 17 19 17h119q13 0 18 -4.5t8 -14.5l110 -374h4l172 539q3 9 7 12t15 3h69q14 0 14 -10q0 -7 -5 -21.5t-13 -36.5l-195 -567q-5 -12 -12.5 -16.5t-18.5 -4.5h-72q-13 0 -19.5 4.5t-10.5 16.5l-129 394h-61q-19 0 -19 17v46z" />
    <glyph glyph-name="currency" unicode="&#xa4;" 
d="M455 287q0 -54 -27 -98l58 -57q11 -11 14 -15t3 -8q0 -7 -7 -14l-36 -36q-8 -8 -14 -8q-7 0 -14 7l-68 67q-18 -14 -44.5 -21.5t-54.5 -7.5t-54.5 7.5t-44.5 21.5l-68 -67q-7 -7 -14 -7q-6 0 -14 8l-36 36q-7 7 -7 14q0 4 3 8t14 15l58 57q-27 44 -27 98t27 98l-58 57
q-11 11 -14 15t-3 8q0 7 7 14l36 36q8 8 14 8q7 0 14 -7l68 -67q18 14 44.5 21.5t54.5 7.5t54.5 -7.5t44.5 -21.5l68 67q7 7 14 7q6 0 14 -8l36 -36q7 -7 7 -14q0 -4 -3 -8t-14 -15l-58 -57q27 -44 27 -98zM367 287q0 46 -30 74.5t-72 28.5t-72 -28.5t-30 -74.5t30 -74.5
t72 -28.5t72 28.5t30 74.5z" />
    <glyph glyph-name="infinity" unicode="&#x221e;" horiz-adv-x="810" 
d="M405 258q-85 -108 -192 -108q-36 0 -67.5 11t-55 32.5t-37 54t-13.5 75.5q0 37 12.5 67.5t35 52.5t53.5 34t69 12q59 0 104 -26.5t91 -85.5q42 53 87.5 82.5t107.5 29.5q38 0 69 -12t53.5 -33.5t35 -52.5t12.5 -68q0 -40 -12.5 -72t-35 -54.5t-54.5 -34.5t-71 -12
q-56 0 -101 25t-91 83zM461 314q36 -45 65.5 -64.5t68.5 -19.5q32 0 55 23.5t23 66.5q0 44 -23 66t-62 22q-35 0 -65 -25.5t-62 -68.5zM350 317q-34 47 -65 69t-69 22q-36 0 -58.5 -22t-22.5 -66q0 -43 24 -66.5t61 -23.5q34 0 66 22.5t64 64.5z" />
    <glyph glyph-name="mu" unicode="&#xb5;" horiz-adv-x="554" 
d="M156 -160q0 -11 -4.5 -14.5t-15.5 -3.5h-52q-11 0 -15.5 3.5t-4.5 14.5v632q0 11 4.5 14.5t15.5 3.5h52q11 0 15.5 -3.5t4.5 -14.5v-301q0 -59 20.5 -80.5t76.5 -21.5q52 0 77.5 24.5t25.5 81.5v297q0 11 4.5 14.5t15.5 3.5h52q11 0 15.5 -4t4.5 -15v-354q0 -28 6.5 -38
t24.5 -10q13 0 23 2.5t18 2.5t9 -11l3 -20q2 -12 3 -19t1 -9q0 -10 -16 -15q-11 -4 -27.5 -6.5t-33.5 -2.5q-73 0 -89 53h-2q-36 -53 -120 -53q-60 0 -92 26v-177z" />
    <glyph glyph-name="mu" unicode="&#x3bc;" horiz-adv-x="554" 
d="M156 -160q0 -11 -4.5 -14.5t-15.5 -3.5h-52q-11 0 -15.5 3.5t-4.5 14.5v632q0 11 4.5 14.5t15.5 3.5h52q11 0 15.5 -3.5t4.5 -14.5v-301q0 -59 20.5 -80.5t76.5 -21.5q52 0 77.5 24.5t25.5 81.5v297q0 11 4.5 14.5t15.5 3.5h52q11 0 15.5 -4t4.5 -15v-354q0 -28 6.5 -38
t24.5 -10q13 0 23 2.5t18 2.5t9 -11l3 -20q2 -12 3 -19t1 -9q0 -10 -16 -15q-11 -4 -27.5 -6.5t-33.5 -2.5q-73 0 -89 53h-2q-36 -53 -120 -53q-60 0 -92 26v-177z" />
    <glyph glyph-name="partialdiff" unicode="&#x2202;" horiz-adv-x="524" 
d="M376 381q-2 106 -32.5 158.5t-99.5 52.5q-26 0 -52.5 -7.5t-45.5 -16.5q-7 -4 -13 -4q-8 0 -12 12l-11 28q-7 17 -7 21q0 8 12 14q26 13 63.5 22t75.5 9q50 0 90.5 -16t69.5 -53.5t45 -100.5t16 -157v-23q0 -79 -11 -140.5t-36.5 -103.5t-67.5 -63.5t-105 -21.5
q-45 0 -83 13.5t-65.5 39.5t-43 65.5t-15.5 92.5v16q0 96 50.5 150t147.5 54q39 0 73 -11.5t57 -29.5zM377 293q-25 24 -55 37t-71 13q-57 0 -82 -36t-25 -93v-13q0 -61 28 -97t87 -36q35 0 57.5 15.5t36 45t19 71t5.5 93.5z" />
    <glyph glyph-name="summation" unicode="&#x2211;" horiz-adv-x="520" 
d="M58 546q-10 11 -13.5 17t-3.5 18v48q0 18 21 18h402q12 0 16 -3.5t4 -13.5v-46q0 -10 -4 -14t-16 -4h-307l224 -240q8 -10 11 -17t3 -16v-20q0 -18 -12 -30l-242 -260h324q12 0 16 -4t4 -14v-43q0 -10 -4 -14t-16 -4h-412q-14 0 -21 4.5t-7 18.5v30q0 17 13 33l226 248
q18 20 26.5 28.5t8.5 14.5q0 7 -8.5 14.5t-26.5 27.5z" />
    <glyph glyph-name="product" unicode="&#x220f;" horiz-adv-x="617" 
d="M498 -75q0 -13 -5 -17t-17 -4h-54q-12 0 -17 4t-5 17v641h-181v-641q0 -13 -5 -17t-17 -4h-54q-12 0 -17 4t-5 17v641h-79q-11 0 -15 4t-4 15v43q0 11 4 15t15 4h533q11 0 15 -4t4 -15v-43q0 -11 -4 -15t-15 -4h-77v-641z" />
    <glyph glyph-name="pi" unicode="&#x3c0;" horiz-adv-x="588" 
d="M458 408v-281q0 -35 7 -47t29 -12q9 0 19.5 1t16.5 3q8 2 11 2q8 0 9 -10l4 -20q2 -11 3.5 -18t1.5 -11q0 -7 -11 -11q-14 -5 -34 -9t-45 -4q-59 0 -82.5 28t-23.5 94v295h-149v-387q0 -12 -5 -16.5t-18 -4.5h-50q-14 0 -18.5 4.5t-4.5 16.5v387h-71q-11 0 -15 4t-4 15
v44q0 11 4 15t15 4h494q11 0 15 -4t4 -15v-44q0 -11 -4 -15t-15 -4h-83z" />
    <glyph glyph-name="integral" unicode="&#x222b;" horiz-adv-x="358" 
d="M200 422q10 -78 21.5 -152.5t22.5 -148.5q2 -16 4 -35t2 -40q0 -34 -8.5 -62t-26.5 -47.5t-47 -30.5t-70 -11q-21 0 -39 2.5t-29 5.5q-12 3 -12 11q0 3 1 10t3 15l5 23q3 13 11 13q3 0 11 -2t20 -3t25 -1q35 0 50 18.5t15 60.5q0 16 -1 27.5t-3 28.5q-9 75 -21.5 152
t-22.5 144q-5 30 -7.5 56.5t-2.5 53.5q0 31 9 58t27.5 46.5t48 30.5t70.5 11q43 0 71 -10q13 -4 13 -12q0 -5 -1 -11t-3 -14l-5 -24q-2 -8 -4 -10.5t-5 -2.5q-4 0 -12 2q-18 5 -39 5q-39 0 -57.5 -18.5t-18.5 -60.5q0 -17 1.5 -38.5t3.5 -39.5z" />
    <glyph glyph-name="Omega" unicode="&#x3a9;" horiz-adv-x="636" 
d="M318 576q-38 0 -67 -12t-46 -32q-23 -27 -31.5 -70t-8.5 -108v-27q0 -84 25 -140.5t78 -99.5q8 -8 12 -12.5t4 -13.5v-45q0 -16 -16 -16h-205q-17 0 -17 17v45q0 17 17 17h102v3q-53 42 -77 100.5t-24 135.5v47q0 71 15 128t51 97q28 30 73 48t115 18t115 -18t73 -48
q36 -40 51 -97t15 -128v-47q0 -77 -24 -135.5t-77 -100.5v-3h102q17 0 17 -17v-45q0 -17 -17 -17h-205q-16 0 -16 16v45q0 9 4 13.5t12 12.5q52 43 77.5 99.5t25.5 140.5v27q0 65 -8.5 108t-31.5 70q-17 20 -46 32t-67 12z" />
    <glyph glyph-name="Omega" unicode="&#x2126;" horiz-adv-x="636" 
d="M318 576q-38 0 -67 -12t-46 -32q-23 -27 -31.5 -70t-8.5 -108v-27q0 -84 25 -140.5t78 -99.5q8 -8 12 -12.5t4 -13.5v-45q0 -16 -16 -16h-205q-17 0 -17 17v45q0 17 17 17h102v3q-53 42 -77 100.5t-24 135.5v47q0 71 15 128t51 97q28 30 73 48t115 18t115 -18t73 -48
q36 -40 51 -97t15 -128v-47q0 -77 -24 -135.5t-77 -100.5v-3h102q17 0 17 -17v-45q0 -17 -17 -17h-205q-16 0 -16 16v45q0 9 4 13.5t12 12.5q52 43 77.5 99.5t25.5 140.5v27q0 65 -8.5 108t-31.5 70q-17 20 -46 32t-67 12z" />
    <glyph glyph-name="Delta" unicode="&#x394;" horiz-adv-x="602" 
d="M452 86q-35 108 -74 224t-75 216h-5q-18 -50 -36.5 -104.5t-37.5 -111.5t-37.5 -114t-36.5 -110h302zM66 0q-26 0 -26 23v35q0 14 5 31.5t13 39.5q21 61 41.5 119t41.5 117.5t45 123t53 136.5q8 22 30 22h64q22 0 30 -22q29 -73 53 -136.5t45 -123t41.5 -117.5t41.5 -119
q8 -22 13 -39.5t5 -31.5v-35q0 -23 -26 -23h-470z" />
    <glyph glyph-name="Delta" unicode="&#x2206;" horiz-adv-x="602" 
d="M452 86q-35 108 -74 224t-75 216h-5q-18 -50 -36.5 -104.5t-37.5 -111.5t-37.5 -114t-36.5 -110h302zM66 0q-26 0 -26 23v35q0 14 5 31.5t13 39.5q21 61 41.5 119t41.5 117.5t45 123t53 136.5q8 22 30 22h64q22 0 30 -22q29 -73 53 -136.5t45 -123t41.5 -117.5t41.5 -119
q8 -22 13 -39.5t5 -31.5v-35q0 -23 -26 -23h-470z" />
    <glyph glyph-name="litre" unicode="&#x2113;" horiz-adv-x="447" 
d="M204 300q54 37 80.5 81.5t26.5 107.5q0 48 -14 66t-38 18q-26 0 -40.5 -18.5t-14.5 -73.5v-181zM204 147q0 -48 13.5 -63t39.5 -15q29 0 56 15t49 40q6 8 13 8q6 0 13 -8l15 -18q7 -8 9 -12t2 -7q0 -7 -7 -15q-32 -41 -73.5 -61t-88.5 -20q-71 0 -104 36t-33 114v24
q-11 -7 -26.5 -15t-28.5 -14q-6 -3 -11 -3q-7 0 -12 12l-11 25q-2 6 -4.5 12t-2.5 11q0 7 9 12q17 8 42 21t45 25v227q0 92 36.5 133t117.5 41q64 0 104.5 -39t40.5 -119q0 -81 -48.5 -154.5t-154.5 -131.5v-61z" />
    <glyph glyph-name="estimated" unicode="&#x212e;" horiz-adv-x="820" 
d="M181 316q-5 0 -5 -5v-182q0 -10 9 -21q42 -45 100.5 -71t126.5 -26q72 0 133.5 29.5t103.5 79.5h54q-51 -58 -126.5 -93.5t-165.5 -35.5q-77 0 -144.5 26t-117.5 71t-79.5 105.5t-29.5 129.5t29.5 130t79.5 106t117.5 71t144.5 26q76 0 143 -26t117.5 -71t79.5 -106
t29 -130v-7h-599zM644 521q0 12 -10 22q-42 43 -99 68t-123 25q-68 0 -126 -25.5t-100 -70.5q-10 -8 -10 -23v-179q0 -5 5 -5h458q5 0 5 5v183z" />
    <glyph glyph-name="numero" unicode="&#x2116;" horiz-adv-x="928" 
d="M644 0q-9 0 -12 3t-3 11v36q0 8 3 11t12 3h213q9 0 12 -3t3 -11v-36q0 -8 -3 -11t-12 -3h-213zM164 504h-5v-483q0 -13 -4.5 -17t-16.5 -4h-48q-12 0 -16.5 4t-4.5 17v598q0 17 6.5 22.5t23.5 5.5h53q20 0 29.5 -6.5t17.5 -21.5l259 -476h5v483q0 12 4.5 16.5t16.5 4.5
h48q12 0 16.5 -4.5t4.5 -16.5v-599q0 -17 -6.5 -22t-23.5 -5h-53q-20 0 -29.5 6.5t-17.5 20.5zM693 261q0 -55 13 -73.5t45 -18.5t44.5 18.5t12.5 73.5v10q0 54 -12.5 73.5t-44.5 19.5t-45 -19.5t-13 -73.5v-10zM880 255q0 -79 -30 -112t-99 -33t-99.5 33t-30.5 112v24
q0 79 30.5 111.5t99.5 32.5t99 -32.5t30 -111.5v-24z" />
    <glyph glyph-name="fraction" unicode="&#x2044;" horiz-adv-x="125" 
d="M203 640q9 16 31 16h49q17 0 17 -10q0 -7 -22 -44l-356 -598q-9 -16 -31 -16h-49q-17 0 -17 10q0 7 22 44z" />
    <glyph glyph-name="onesuperior" unicode="&#xb9;" horiz-adv-x="365" 
d="M81 437q-11 0 -15 3t-4 14v34q0 17 19 17h71v210h-4l-56 -37q-7 -5 -11 -5q-6 0 -12 9l-16 25q-8 11 -8 17t7 11l74 48q14 10 21 11.5t23 1.5h34q26 0 26 -23v-268h67q19 0 19 -17v-34q0 -11 -4 -14t-15 -3h-216z" />
    <glyph glyph-name="twosuperior" unicode="&#xb2;" horiz-adv-x="365" 
d="M103 723q-8 -3 -12 -3q-5 0 -6.5 4t-4.5 16l-4 17q-3 12 -3 19q0 9 12 13q17 6 45 11t57 5q57 0 87 -26t30 -74v-6q0 -39 -16 -63.5t-58 -45.5l-49 -24q-26 -13 -33.5 -25t-7.5 -29v-7h142q10 0 13.5 -3t3.5 -14v-34q0 -17 -17 -17h-202q-12 0 -16.5 4t-4.5 16v26
q0 52 16.5 84t55.5 52l47 23q26 13 36 24t10 29v3q0 20 -13 28t-38 8q-32 0 -70 -11z" />
    <glyph glyph-name="threesuperior" unicode="&#xb3;" horiz-adv-x="365" 
d="M64 498q3 12 12 12q3 0 9 -2q17 -5 39 -9t40 -4q58 0 58 42v5q0 26 -13 35t-55 9h-21q-15 0 -15 16v35q0 15 15 15h20q41 0 53 10.5t12 32.5v5q0 16 -11 25t-37 9q-16 0 -33.5 -3t-32.5 -8q-6 -2 -10 -2q-7 0 -11 13l-5 20q-2 6 -3 11.5t-1 8.5q0 7 10 11q21 8 48 13
t55 5q52 0 81.5 -22t29.5 -70v-8q0 -28 -10.5 -49t-36.5 -32v-3q53 -14 53 -76v-6q0 -109 -131 -109q-25 0 -53.5 4t-48.5 10q-14 4 -14 13q0 8 3 22z" />
    <glyph glyph-name="onehalf" unicode="&#xbd;" horiz-adv-x="845" 
d="M592 640q9 16 31 16h49q17 0 17 -10q0 -7 -22 -44l-356 -598q-9 -16 -31 -16h-49q-17 0 -17 10q0 7 22 44zM78 288q-11 0 -15 3t-4 14v34q0 17 19 17h71v210h-4l-56 -37q-7 -5 -11 -5q-6 0 -12 9l-16 25q-8 11 -8 17t7 11l74 48q14 10 21 11.5t23 1.5h34q26 0 26 -23
v-268h67q19 0 19 -17v-34q0 -11 -4 -14t-15 -3h-216zM602 286q-8 -3 -12 -3q-5 0 -6.5 4t-4.5 16l-4 17q-3 12 -3 19q0 9 12 13q17 6 45 11t57 5q57 0 87 -26t30 -74v-6q0 -39 -16 -63.5t-58 -45.5l-49 -24q-26 -13 -33.5 -25t-7.5 -29v-7h142q10 0 13.5 -3t3.5 -14v-34
q0 -17 -17 -17h-202q-12 0 -16.5 4t-4.5 16v26q0 52 16.5 84t55.5 52l47 23q26 13 36 24t10 29v3q0 20 -13 28t-38 8q-32 0 -70 -11z" />
    <glyph glyph-name="onequarter" unicode="&#xbc;" horiz-adv-x="845" 
d="M570 146h91v140h-2zM677 0q-16 0 -16 14v69h-151q-11 0 -14 3t-3 13v27q0 9 13 28l115 182q9 14 18.5 18.5t23.5 4.5h56q13 0 17.5 -4t4.5 -17v-192h34q8 0 10 -2.5t2 -10.5v-36q0 -8 -2 -11t-10 -3h-34v-69q0 -14 -16 -14h-48zM78 288q-11 0 -15 3t-4 14v34q0 17 19 17
h71v210h-4l-56 -37q-7 -5 -11 -5q-6 0 -12 9l-16 25q-8 11 -8 17t7 11l74 48q14 10 21 11.5t23 1.5h34q26 0 26 -23v-268h67q19 0 19 -17v-34q0 -11 -4 -14t-15 -3h-216zM592 640q9 16 31 16h49q17 0 17 -10q0 -7 -22 -44l-356 -598q-9 -16 -31 -16h-49q-17 0 -17 10
q0 7 22 44z" />
    <glyph glyph-name="threequarters" unicode="&#xbe;" horiz-adv-x="845" 
d="M570 146h91v140h-2zM677 0q-16 0 -16 14v69h-151q-11 0 -14 3t-3 13v27q0 9 13 28l115 182q9 14 18.5 18.5t23.5 4.5h56q13 0 17.5 -4t4.5 -17v-192h34q8 0 10 -2.5t2 -10.5v-36q0 -8 -2 -11t-10 -3h-34v-69q0 -14 -16 -14h-48zM576 640q9 16 31 16h49q17 0 17 -10
q0 -7 -22 -44l-356 -598q-9 -16 -31 -16h-49q-17 0 -17 10q0 7 22 44zM74 351q3 12 12 12q3 0 9 -2q17 -5 39 -9t40 -4q58 0 58 42v5q0 26 -13 35t-55 9h-21q-15 0 -15 16v35q0 15 15 15h20q41 0 53 10.5t12 32.5v5q0 16 -11 25t-37 9q-16 0 -33.5 -3t-32.5 -8q-6 -2 -10 -2
q-7 0 -11 13l-5 20q-2 6 -3 11.5t-1 8.5q0 7 10 11q21 8 48 13t55 5q52 0 81.5 -22t29.5 -70v-8q0 -28 -10.5 -49t-36.5 -32v-3q53 -14 53 -76v-6q0 -109 -131 -109q-25 0 -53.5 4t-48.5 10q-14 4 -14 13q0 8 3 22z" />
    <glyph glyph-name="grave" unicode="`" horiz-adv-x="337" 
d="M273 618q12 -7 12 -13q0 -5 -6 -15l-15 -25q-7 -12 -14 -12q-5 0 -17 5l-166 77q-9 5 -12 8t-3 8q0 6 9 21l21 35q4 7 7 9t7 2q6 0 15 -5z" />
    <glyph glyph-name="acute" unicode="&#xb4;" horiz-adv-x="337" 
d="M226 713q9 5 15 5q4 0 7 -2t7 -9l21 -35q9 -15 9 -21q0 -5 -3 -8t-12 -8l-166 -77q-12 -5 -17 -5q-7 0 -14 12l-15 25q-6 10 -6 15q0 6 12 13z" />
    <glyph glyph-name="dieresis" unicode="&#xa8;" horiz-adv-x="354" 
d="M149 628q0 -48 -49 -48h-10q-23 0 -35.5 12.5t-12.5 35.5v16q0 23 12.5 35.5t35.5 12.5h10q49 0 49 -48v-16zM312 628q0 -48 -49 -48h-10q-23 0 -35.5 12.5t-12.5 35.5v16q0 23 12.5 35.5t35.5 12.5h10q49 0 49 -48v-16z" />
    <glyph glyph-name="circumflex" unicode="&#x2c6;" horiz-adv-x="370" 
d="M208 723q7 0 11.5 -1.5t9.5 -7.5l98 -114q3 -4 5 -6.5t2 -6.5q0 -6 -8 -12l-23 -16q-11 -8 -17 -8t-14 8l-85 87h-4l-85 -87q-8 -8 -14 -8t-17 8l-23 16q-8 6 -8 12q0 4 2 6.5t5 6.5l98 114q5 6 9.5 7.5t11.5 1.5h46z" />
    <glyph glyph-name="tilde" unicode="&#x2dc;" horiz-adv-x="386" 
d="M35 589q-8 5 -8 11q0 4 3 10q40 83 106 83q17 0 29.5 -4t27.5 -15l28 -19q11 -8 19 -11.5t18 -3.5q27 0 50 39q4 7 10 7q4 0 6 -1.5t6 -3.5l20 -13q9 -6 9 -12q0 -4 -3 -10q-21 -38 -47 -58.5t-58 -20.5q-17 0 -30 4.5t-27 13.5l-27 19q-11 8 -18.5 11.5t-17.5 3.5
q-11 0 -22.5 -8.5t-25.5 -31.5q-5 -9 -11 -9q-5 0 -16 7z" />
    <glyph glyph-name="macron" unicode="&#xaf;" horiz-adv-x="352" 
d="M65 592q-19 0 -19 18v38q0 17 19 17h222q19 0 19 -17v-38q0 -18 -19 -18h-222z" />
    <glyph glyph-name="breve" unicode="&#x2d8;" horiz-adv-x="372" 
d="M186 558q-57 0 -93 26.5t-53 75.5q-5 15 -5 19q0 9 14 13l22 7q17 5 21 5q8 0 12 -12q14 -37 33.5 -52t48.5 -15t48.5 15t33.5 52q4 12 12 12q4 0 21 -5l22 -7q14 -4 14 -13q0 -4 -5 -19q-17 -49 -53 -75.5t-93 -26.5z" />
    <glyph glyph-name="dotaccent" unicode="&#x2d9;" horiz-adv-x="286" 
d="M143 565q-26 0 -44.5 19t-18.5 45t18.5 45t44.5 19t44.5 -19t18.5 -45t-18.5 -45t-44.5 -19z" />
    <glyph glyph-name="ring" unicode="&#x2da;" horiz-adv-x="316" 
d="M158 728q40 0 67 -26t27 -68t-27 -68t-67 -26t-67 26t-27 68t27 68t67 26zM158 595q17 0 27.5 11t10.5 28t-10.5 28t-27.5 11t-27.5 -11t-10.5 -28t10.5 -28t27.5 -11z" />
    <glyph glyph-name="cedilla" unicode="&#xb8;" horiz-adv-x="318" 
d="M153 -62q15 3 32 3q30 0 52.5 -19t22.5 -61q0 -50 -29.5 -73t-87.5 -23q-19 0 -39.5 3t-36.5 8q-10 3 -10 10q0 5 0.5 9t1.5 9l3 19q1 10 8 10q3 0 11 -2q11 -3 27.5 -5.5t27.5 -2.5q26 0 38 7t12 28q0 14 -7 21t-26 7q-18 0 -34 -3q-4 -1 -6.5 -1.5t-4.5 -0.5
q-6 0 -10 7l-8 13q-3 6 -3 11q0 4 3 19l11 62q2 8 11 8h41q9 0 9 -6q0 -5 -2 -15z" />
    <glyph glyph-name="hungarumlaut" unicode="&#x2dd;" horiz-adv-x="427" 
d="M178 730q7 6 14 6q8 0 16 -9l29 -38q6 -7 6 -15q-2 -9 -12 -15l-145 -102q-8 -5 -15 -5q-9 0 -19 13l-12 15q-9 12 -9 18q0 5 2 7.5t5 5.5zM388 730q7 6 14 6q8 0 16 -9l29 -38q6 -7 6 -15q-2 -9 -12 -15l-145 -102q-8 -5 -15 -5q-9 0 -19 13l-12 15q-9 12 -9 18
q0 5 2 7.5t5 5.5z" />
    <glyph glyph-name="ogonek" unicode="&#x2db;" horiz-adv-x="317" 
d="M69 -120q0 38 22.5 67.5t59.5 52.5q9 5 22 5h34q6 0 6.5 -3.5t-2.5 -5.5q-38 -31 -51.5 -55.5t-13.5 -47.5q0 -33 37 -33q11 0 24 2.5t24 6.5q9 3 10 3q7 0 8 -9l4 -18q3 -12 3 -17q0 -7 -12 -12q-17 -7 -36.5 -11t-37.5 -4q-48 0 -74.5 19.5t-26.5 59.5z" />
    <glyph glyph-name="caron" unicode="&#x2c7;" horiz-adv-x="371" 
d="M162 553q-7 0 -11.5 1.5t-9.5 7.5l-98 114q-3 4 -5 6.5t-2 6.5q0 6 8 12l23 16q11 8 17 8t14 -8l85 -87h4l85 87q8 8 14 8t17 -8l23 -16q8 -6 8 -12q0 -4 -2 -6.5t-5 -6.5l-98 -114q-5 -6 -9.5 -7.5t-11.5 -1.5h-46z" />
    <glyph glyph-name="commaaccent" horiz-adv-x="301" 
d="M165 -66q20 0 30.5 -10t10.5 -34v-18q0 -75 -66 -138q-6 -6 -12 -6q-5 0 -10 4l-17 15q-6 4 -6 10q0 4 4 8q9 10 20.5 24.5t16.5 27.5q2 4 2 7q0 6 -7 9q-14 8 -20.5 16t-6.5 27v19q0 20 11.5 29.5t28.5 9.5h21z" />
    <glyph glyph-name="grave.cap" horiz-adv-x="340" 
d="M275 762q12 -5 13 -12q0 -5 -6 -15l-13 -26q-6 -13 -13 -13t-18 4l-170 67q-9 4 -12 7t-4 8q0 4 2 9t6 13l19 36q3 7 6 9t7 3q6 0 15 -5z" />
    <glyph glyph-name="acute.cap" horiz-adv-x="340" 
d="M233 847q9 5 15 5q4 -1 7 -3t6 -9l19 -36q4 -8 6 -13t2 -9q-1 -5 -4 -8t-12 -7l-170 -67q-11 -4 -18 -4t-13 13l-13 26q-6 10 -6 15q1 7 13 12z" />
    <glyph glyph-name="dieresis.cap" horiz-adv-x="354" 
d="M149 771q0 -48 -49 -48h-10q-23 0 -35.5 12.5t-12.5 35.5v16q0 23 12.5 35.5t35.5 12.5h10q49 0 49 -48v-16zM312 771q0 -48 -49 -48h-10q-23 0 -35.5 12.5t-12.5 35.5v16q0 23 12.5 35.5t35.5 12.5h10q49 0 49 -48v-16z" />
    <glyph glyph-name="circumflex.cap" horiz-adv-x="370" 
d="M208 873q7 0 11.5 -1.5t9.5 -7.5l98 -114q3 -4 5 -6.5t2 -6.5q0 -6 -8 -12l-23 -16q-11 -8 -17 -8t-14 8l-85 87h-4l-85 -87q-8 -8 -14 -8t-17 8l-23 16q-8 6 -8 12q0 4 2 6.5t5 6.5l98 114q5 6 9.5 7.5t11.5 1.5h46z" />
    <glyph glyph-name="tilde.cap" horiz-adv-x="386" 
d="M35 731q-8 5 -8 11q0 4 3 10q40 83 106 83q17 0 29.5 -4t27.5 -15l28 -19q11 -8 19 -11.5t18 -3.5q27 0 50 39q4 7 10 7q4 0 6 -1.5t6 -3.5l20 -13q9 -6 9 -12q0 -4 -3 -10q-21 -38 -47 -58.5t-58 -20.5q-17 0 -30 4.5t-27 13.5l-27 19q-11 8 -18.5 11.5t-17.5 3.5
q-11 0 -22.5 -8.5t-25.5 -31.5q-5 -9 -11 -9q-5 0 -16 7z" />
    <glyph glyph-name="macron.cap" horiz-adv-x="352" 
d="M65 730q-19 0 -19 18v38q0 17 19 17h222q19 0 19 -17v-38q0 -18 -19 -18h-222z" />
    <glyph glyph-name="breve.cap" horiz-adv-x="372" 
d="M186 700q-57 0 -93 26.5t-53 75.5q-5 15 -5 19q0 9 14 13l22 7q17 5 21 5q8 0 12 -12q14 -37 33.5 -52t48.5 -15t48.5 15t33.5 52q4 12 12 12q4 0 21 -5l22 -7q14 -4 14 -13q0 -4 -5 -19q-17 -49 -53 -75.5t-93 -26.5z" />
    <glyph glyph-name="dotaccent.cap" horiz-adv-x="286" 
d="M143 717q-26 0 -44.5 19t-18.5 45t18.5 45t44.5 19t44.5 -19t18.5 -45t-18.5 -45t-44.5 -19z" />
    <glyph glyph-name="ring.cap" horiz-adv-x="316" 
d="M158 876q40 0 67 -26t27 -68t-27 -68t-67 -26t-67 26t-27 68t27 68t67 26zM158 743q17 0 27.5 11t10.5 28t-10.5 28t-27.5 11t-27.5 -11t-10.5 -28t10.5 -28t27.5 -11z" />
    <glyph glyph-name="hungarumlaut.cap" horiz-adv-x="427" 
d="M178 868q7 6 14 6q8 0 16 -9l29 -38q6 -7 6 -15q-2 -9 -12 -15l-145 -102q-8 -5 -15 -5q-9 0 -19 13l-12 15q-9 12 -9 18q0 5 2 7.5t5 5.5zM388 868q7 6 14 6q8 0 16 -9l29 -38q6 -7 6 -15q-2 -9 -12 -15l-145 -102q-8 -5 -15 -5q-9 0 -19 13l-12 15q-9 12 -9 18
q0 5 2 7.5t5 5.5z" />
    <glyph glyph-name="caron.cap" horiz-adv-x="370" 
d="M162 705q-7 0 -11.5 1.5t-9.5 7.5l-98 114q-3 4 -5 6.5t-2 6.5q0 6 8 12l23 16q11 8 17 8t14 -8l85 -87h4l85 87q8 8 14 8t17 -8l23 -16q8 -6 8 -12q0 -4 -2 -6.5t-5 -6.5l-98 -114q-5 -6 -9.5 -7.5t-11.5 -1.5h-46z" />
    <glyph glyph-name="Agrave" unicode="&#xc0;" horiz-adv-x="548" 
d="M295 647q25 0 35 -5.5t18 -26.5q21 -60 44 -129t46 -142.5t45 -149.5t43 -151q2 -8 4.5 -16t2.5 -15q0 -12 -20 -12h-48q-17 0 -23.5 3.5t-10.5 17.5q-8 34 -19 74.5t-22 79.5h-232q-11 -39 -22 -79.5t-19 -74.5q-4 -14 -10.5 -17.5t-23.5 -3.5h-48q-20 0 -20 12
q0 7 2.5 15t4.5 16q21 75 43 151t45 149.5t46 142.5t44 129q8 21 18 26.5t35 5.5h42zM271 550q-23 -69 -46 -144.5t-44 -147.5h186q-21 72 -44 147.5t-46 144.5h-6zM353 767q12 -5 13 -12q0 -5 -6 -15l-13 -26q-6 -13 -13 -13t-18 4l-170 67q-9 4 -12 7t-4 8q0 4 2 9t6 13
l19 36q3 7 6 9t7 3q6 0 15 -5z" />
    <glyph glyph-name="Aacute" unicode="&#xc1;" horiz-adv-x="548" 
d="M295 647q25 0 35 -5.5t18 -26.5q21 -60 44 -129t46 -142.5t45 -149.5t43 -151q2 -8 4.5 -16t2.5 -15q0 -12 -20 -12h-48q-17 0 -23.5 3.5t-10.5 17.5q-8 34 -19 74.5t-22 79.5h-232q-11 -39 -22 -79.5t-19 -74.5q-4 -14 -10.5 -17.5t-23.5 -3.5h-48q-20 0 -20 12
q0 7 2.5 15t4.5 16q21 75 43 151t45 149.5t46 142.5t44 129q8 21 18 26.5t35 5.5h42zM271 550q-23 -69 -46 -144.5t-44 -147.5h186q-21 72 -44 147.5t-46 144.5h-6zM368 852q9 5 15 5q4 -1 7 -3t6 -9l19 -36q4 -8 6 -13t2 -9q-1 -5 -4 -8t-12 -7l-170 -67q-11 -4 -18 -4
t-13 13l-13 26q-6 10 -6 15q1 7 13 12z" />
    <glyph glyph-name="Acircumflex" unicode="&#xc2;" horiz-adv-x="548" 
d="M295 647q25 0 35 -5.5t18 -26.5q21 -60 44 -129t46 -142.5t45 -149.5t43 -151q2 -8 4.5 -16t2.5 -15q0 -12 -20 -12h-48q-17 0 -23.5 3.5t-10.5 17.5q-8 34 -19 74.5t-22 79.5h-232q-11 -39 -22 -79.5t-19 -74.5q-4 -14 -10.5 -17.5t-23.5 -3.5h-48q-20 0 -20 12
q0 7 2.5 15t4.5 16q21 75 43 151t45 149.5t46 142.5t44 129q8 21 18 26.5t35 5.5h42zM271 550q-23 -69 -46 -144.5t-44 -147.5h186q-21 72 -44 147.5t-46 144.5h-6zM296 878q7 0 11.5 -1.5t9.5 -7.5l98 -114q3 -4 5 -6.5t2 -6.5q0 -6 -8 -12l-23 -16q-11 -8 -17 -8t-14 8
l-85 87h-4l-85 -87q-8 -8 -14 -8t-17 8l-23 16q-8 6 -8 12q0 4 2 6.5t5 6.5l98 114q5 6 9.5 7.5t11.5 1.5h46z" />
    <glyph glyph-name="Atilde" unicode="&#xc3;" horiz-adv-x="548" 
d="M295 647q25 0 35 -5.5t18 -26.5q21 -60 44 -129t46 -142.5t45 -149.5t43 -151q2 -8 4.5 -16t2.5 -15q0 -12 -20 -12h-48q-17 0 -23.5 3.5t-10.5 17.5q-8 34 -19 74.5t-22 79.5h-232q-11 -39 -22 -79.5t-19 -74.5q-4 -14 -10.5 -17.5t-23.5 -3.5h-48q-20 0 -20 12
q0 7 2.5 15t4.5 16q21 75 43 151t45 149.5t46 142.5t44 129q8 21 18 26.5t35 5.5h42zM271 550q-23 -69 -46 -144.5t-44 -147.5h186q-21 72 -44 147.5t-46 144.5h-6zM117 736q-8 5 -8 11q0 4 3 10q40 83 106 83q17 0 29.5 -4t27.5 -15l28 -19q11 -8 19 -11.5t18 -3.5
q27 0 50 39q4 7 10 7q4 0 6 -1.5t6 -3.5l20 -13q9 -6 9 -12q0 -4 -3 -10q-21 -38 -47 -58.5t-58 -20.5q-17 0 -30 4.5t-27 13.5l-27 19q-11 8 -18.5 11.5t-17.5 3.5q-11 0 -22.5 -8.5t-25.5 -31.5q-5 -9 -11 -9q-5 0 -16 7z" />
    <glyph glyph-name="Adieresis" unicode="&#xc4;" horiz-adv-x="548" 
d="M295 647q25 0 35 -5.5t18 -26.5q21 -60 44 -129t46 -142.5t45 -149.5t43 -151q2 -8 4.5 -16t2.5 -15q0 -12 -20 -12h-48q-17 0 -23.5 3.5t-10.5 17.5q-8 34 -19 74.5t-22 79.5h-232q-11 -39 -22 -79.5t-19 -74.5q-4 -14 -10.5 -17.5t-23.5 -3.5h-48q-20 0 -20 12
q0 7 2.5 15t4.5 16q21 75 43 151t45 149.5t46 142.5t44 129q8 21 18 26.5t35 5.5h42zM271 550q-23 -69 -46 -144.5t-44 -147.5h186q-21 72 -44 147.5t-46 144.5h-6zM245 776q0 -48 -49 -48h-10q-23 0 -35.5 12.5t-12.5 35.5v16q0 23 12.5 35.5t35.5 12.5h10q49 0 49 -48v-16
zM408 776q0 -48 -49 -48h-10q-23 0 -35.5 12.5t-12.5 35.5v16q0 23 12.5 35.5t35.5 12.5h10q49 0 49 -48v-16z" />
    <glyph glyph-name="Amacron" unicode="&#x100;" horiz-adv-x="548" 
d="M295 647q25 0 35 -5.5t18 -26.5q21 -60 44 -129t46 -142.5t45 -149.5t43 -151q2 -8 4.5 -16t2.5 -15q0 -12 -20 -12h-48q-17 0 -23.5 3.5t-10.5 17.5q-8 34 -19 74.5t-22 79.5h-232q-11 -39 -22 -79.5t-19 -74.5q-4 -14 -10.5 -17.5t-23.5 -3.5h-48q-20 0 -20 12
q0 7 2.5 15t4.5 16q21 75 43 151t45 149.5t46 142.5t44 129q8 21 18 26.5t35 5.5h42zM271 550q-23 -69 -46 -144.5t-44 -147.5h186q-21 72 -44 147.5t-46 144.5h-6zM162 730q-19 0 -19 18v38q0 17 19 17h222q19 0 19 -17v-38q0 -18 -19 -18h-222z" />
    <glyph glyph-name="Abreve" unicode="&#x102;" horiz-adv-x="548" 
d="M295 647q25 0 35 -5.5t18 -26.5q21 -60 44 -129t46 -142.5t45 -149.5t43 -151q2 -8 4.5 -16t2.5 -15q0 -12 -20 -12h-48q-17 0 -23.5 3.5t-10.5 17.5q-8 34 -19 74.5t-22 79.5h-232q-11 -39 -22 -79.5t-19 -74.5q-4 -14 -10.5 -17.5t-23.5 -3.5h-48q-20 0 -20 12
q0 7 2.5 15t4.5 16q21 75 43 151t45 149.5t46 142.5t44 129q8 21 18 26.5t35 5.5h42zM271 550q-23 -69 -46 -144.5t-44 -147.5h186q-21 72 -44 147.5t-46 144.5h-6zM274 700q-57 0 -93 26.5t-53 75.5q-5 15 -5 19q0 9 14 13l22 7q17 5 21 5q8 0 12 -12q14 -37 33.5 -52
t48.5 -15t48.5 15t33.5 52q4 12 12 12q4 0 21 -5l22 -7q14 -4 14 -13q0 -4 -5 -19q-17 -49 -53 -75.5t-93 -26.5z" />
    <glyph glyph-name="Acaron" unicode="&#x1cd;" horiz-adv-x="548" 
d="M295 647q25 0 35 -5.5t18 -26.5q21 -60 44 -129t46 -142.5t45 -149.5t43 -151q2 -8 4.5 -16t2.5 -15q0 -12 -20 -12h-48q-17 0 -23.5 3.5t-10.5 17.5q-8 34 -19 74.5t-22 79.5h-232q-11 -39 -22 -79.5t-19 -74.5q-4 -14 -10.5 -17.5t-23.5 -3.5h-48q-20 0 -20 12
q0 7 2.5 15t4.5 16q21 75 43 151t45 149.5t46 142.5t44 129q8 21 18 26.5t35 5.5h42zM271 550q-23 -69 -46 -144.5t-44 -147.5h186q-21 72 -44 147.5t-46 144.5h-6zM251 705q-7 0 -11.5 1.5t-9.5 7.5l-98 114q-3 4 -5 6.5t-2 6.5q0 6 8 12l23 16q11 8 17 8t14 -8l85 -87h4
l85 87q8 8 14 8t17 -8l23 -16q8 -6 8 -12q0 -4 -2 -6.5t-5 -6.5l-98 -114q-5 -6 -9.5 -7.5t-11.5 -1.5h-46z" />
    <glyph glyph-name="Aring" unicode="&#xc5;" horiz-adv-x="548" 
d="M295 647q25 0 35 -5.5t18 -26.5q21 -60 44 -129t46 -142.5t45 -149.5t43 -151q2 -8 4.5 -16t2.5 -15q0 -12 -20 -12h-48q-17 0 -23.5 3.5t-10.5 17.5q-8 34 -19 74.5t-22 79.5h-232q-11 -39 -22 -79.5t-19 -74.5q-4 -14 -10.5 -17.5t-23.5 -3.5h-48q-20 0 -20 12
q0 7 2.5 15t4.5 16q21 75 43 151t45 149.5t46 142.5t44 129q8 21 18 26.5t35 5.5h42zM271 550q-23 -69 -46 -144.5t-44 -147.5h186q-21 72 -44 147.5t-46 144.5h-6zM274 876q40 0 67 -26t27 -68t-27 -68t-67 -26t-67 26t-27 68t27 68t67 26zM274 743q17 0 27.5 11t10.5 28
t-10.5 28t-27.5 11t-27.5 -11t-10.5 -28t10.5 -28t27.5 -11z" />
    <glyph glyph-name="Aringacute" unicode="&#x1fa;" horiz-adv-x="548" 
d="M295 647q25 0 35 -5.5t18 -26.5q21 -60 44 -129t46 -142.5t45 -149.5t43 -151q2 -8 4.5 -16t2.5 -15q0 -12 -20 -12h-48q-17 0 -23.5 3.5t-10.5 17.5q-8 34 -19 74.5t-22 79.5h-232q-11 -39 -22 -79.5t-19 -74.5q-4 -14 -10.5 -17.5t-23.5 -3.5h-48q-20 0 -20 12
q0 7 2.5 15t4.5 16q21 75 43 151t45 149.5t46 142.5t44 129q8 21 18 26.5t35 5.5h42zM271 550q-23 -69 -46 -144.5t-44 -147.5h186q-21 72 -44 147.5t-46 144.5h-6zM274 873q40 0 67 -26t27 -68t-27 -68t-67 -26t-67 26t-27 68t27 68t67 26zM274 740q17 0 27.5 11t10.5 28
t-10.5 28t-27.5 11t-27.5 -11t-10.5 -28t10.5 -28t27.5 -11zM348 1056q9 5 15 5q4 0 7 -2t7 -9l21 -35q9 -15 9 -21q0 -5 -3 -8t-12 -8l-166 -77q-12 -5 -17 -5q-7 0 -14 12l-15 25q-6 10 -6 15q0 6 12 13z" />
    <glyph glyph-name="Aogonek" unicode="&#x104;" horiz-adv-x="548" 
d="M438 -6q-4 17 -10 40t-12.5 48t-13 49t-12.5 44h-232q-11 -39 -22 -79.5t-19 -74.5q-4 -14 -10.5 -17.5t-23.5 -3.5h-48q-20 0 -20 12q0 7 2.5 15t4.5 16q21 75 43 151t45 149.5t46 142.5t44 129q8 21 18 26.5t35 5.5h42q25 0 35 -5.5t18 -26.5q21 -60 44 -129t46 -142.5
t45 -149.5t43 -151q2 -8 4.5 -16t2.5 -15q0 -4 -2 -7t-11 -8q-43 -23 -60 -51t-17 -53q0 -33 37 -33q11 0 24 2.5t24 6.5q9 3 10 3q7 0 8 -9l4 -18q3 -12 3 -17q0 -7 -12 -12q-17 -7 -36.5 -11t-37.5 -4q-48 0 -74.5 19.5t-26.5 59.5q0 35 19.5 63t52.5 51zM271 550
q-23 -69 -46 -144.5t-44 -147.5h186q-21 72 -44 147.5t-46 144.5h-6z" />
    <glyph glyph-name="AE" unicode="&#xc6;" horiz-adv-x="818" 
d="M385 568q-43 -82 -78.5 -157t-73.5 -153h159v310h-7zM757 647q11 0 15 -3t4 -14v-45q0 -11 -4 -14t-15 -3h-269v-195h231q11 0 15 -3t4 -14v-45q0 -11 -4 -14t-15 -3h-231v-175q0 -23 9.5 -31.5t33.5 -8.5h226q11 0 15 -3t4 -14v-45q0 -11 -4 -14t-15 -3h-235
q-67 0 -98.5 23.5t-31.5 85.5v66h-200l-73 -154q-5 -11 -14 -16t-28 -5h-38q-26 0 -26 11q0 5 3 11.5t7 14.5q81 163 152 304t140 266q13 23 28.5 31.5t47.5 8.5h366z" />
    <glyph glyph-name="AEacute" unicode="&#x1fc;" horiz-adv-x="818" 
d="M385 568q-43 -82 -78.5 -157t-73.5 -153h159v310h-7zM757 647q11 0 15 -3t4 -14v-45q0 -11 -4 -14t-15 -3h-269v-195h231q11 0 15 -3t4 -14v-45q0 -11 -4 -14t-15 -3h-231v-175q0 -23 9.5 -31.5t33.5 -8.5h226q11 0 15 -3t4 -14v-45q0 -11 -4 -14t-15 -3h-235
q-67 0 -98.5 23.5t-31.5 85.5v66h-200l-73 -154q-5 -11 -14 -16t-28 -5h-38q-26 0 -26 11q0 5 3 11.5t7 14.5q81 163 152 304t140 266q13 23 28.5 31.5t47.5 8.5h366zM642 847q9 5 15 5q4 -1 7 -3t6 -9l19 -36q4 -8 6 -13t2 -9q-1 -5 -4 -8t-12 -7l-170 -67q-11 -4 -18 -4
t-13 13l-13 26q-6 10 -6 15q1 7 13 12z" />
    <glyph glyph-name="Cacute" unicode="&#x106;" horiz-adv-x="518" 
d="M471 611q10 -6 10 -13q0 -8 -8 -24l-15 -30q-5 -9 -13 -9q-5 0 -13 4q-30 17 -63 27t-70 10q-73 0 -106 -36q-11 -12 -18.5 -27t-12.5 -38.5t-7.5 -57t-2.5 -82.5v-23q0 -48 1.5 -81t5.5 -56t11 -38t18 -27q19 -21 48.5 -30t74.5 -9q31 0 66.5 7.5t61.5 16.5q5 2 9 3t7 1
q9 0 12 -9l6 -19q5 -15 6 -21t1 -11q0 -11 -12 -15q-34 -13 -81 -23t-90 -10q-72 0 -117 15t-71 43q-17 18 -28.5 40t-18 51.5t-9 68.5t-2.5 91v46q0 59 4.5 101.5t14 73t25 52t37.5 38.5q30 23 71.5 34t94.5 11q48 0 93 -12.5t80 -32.5zM385 847q9 5 15 5q4 -1 7 -3t6 -9
l19 -36q4 -8 6 -13t2 -9q-1 -5 -4 -8t-12 -7l-170 -67q-11 -4 -18 -4t-13 13l-13 26q-6 10 -6 15q1 7 13 12z" />
    <glyph glyph-name="Ccedilla" unicode="&#xc7;" horiz-adv-x="518" 
d="M471 611q10 -6 10 -13q0 -8 -8 -24l-15 -30q-5 -9 -13 -9q-5 0 -13 4q-30 17 -64 27t-69 10q-73 0 -106 -36q-11 -12 -18.5 -27t-12.5 -38.5t-7.5 -57t-2.5 -82.5v-23q0 -48 1.5 -81t5.5 -56t11 -38t18 -27q19 -21 48.5 -30t74.5 -9q31 0 66.5 7.5t61.5 16.5q5 2 9 3t7 1
q9 0 12 -9l6 -19q5 -15 6 -21t1 -11q0 -11 -12 -15q-32 -13 -75.5 -22t-84.5 -11l-9 -53q15 3 32 3q30 0 52.5 -19t22.5 -61q0 -50 -29.5 -73t-87.5 -23q-19 0 -39.5 3t-36.5 8q-10 3 -10 10q0 5 0.5 9t1.5 9l3 19q1 10 8 10q3 0 11 -2q11 -3 27.5 -5.5t27.5 -2.5q26 0 38 7
t12 28q0 14 -7 21t-26 7q-18 0 -34 -3q-4 -1 -6.5 -1.5t-4.5 -0.5q-6 0 -10 7l-8 13q-3 6 -3 11q0 4 3 19l11 63q-51 5 -84 19.5t-54 37.5q-17 18 -28.5 40t-18 51t-9 67.5t-2.5 90.5v46q0 59 4.5 101t14 72.5t25 51.5t37.5 38q61 47 166 47q47 0 92.5 -12.5t80.5 -32.5z
" />
    <glyph glyph-name="Ccircumflex" unicode="&#x108;" horiz-adv-x="518" 
d="M471 611q10 -6 10 -13q0 -8 -8 -24l-15 -30q-5 -9 -13 -9q-5 0 -13 4q-30 17 -63 27t-70 10q-73 0 -106 -36q-11 -12 -18.5 -27t-12.5 -38.5t-7.5 -57t-2.5 -82.5v-23q0 -48 1.5 -81t5.5 -56t11 -38t18 -27q19 -21 48.5 -30t74.5 -9q31 0 66.5 7.5t61.5 16.5q5 2 9 3t7 1
q9 0 12 -9l6 -19q5 -15 6 -21t1 -11q0 -11 -12 -15q-34 -13 -81 -23t-90 -10q-72 0 -117 15t-71 43q-17 18 -28.5 40t-18 51.5t-9 68.5t-2.5 91v46q0 59 4.5 101.5t14 73t25 52t37.5 38.5q30 23 71.5 34t94.5 11q48 0 93 -12.5t80 -32.5zM316 873q7 0 11.5 -1.5t9.5 -7.5
l98 -114q3 -4 5 -6.5t2 -6.5q0 -6 -8 -12l-23 -16q-11 -8 -17 -8t-14 8l-85 87h-4l-85 -87q-8 -8 -14 -8t-17 8l-23 16q-8 6 -8 12q0 4 2 6.5t5 6.5l98 114q5 6 9.5 7.5t11.5 1.5h46z" />
    <glyph glyph-name="Ccaron" unicode="&#x10c;" horiz-adv-x="518" 
d="M471 611q10 -6 10 -13q0 -8 -8 -24l-15 -30q-5 -9 -13 -9q-5 0 -13 4q-30 17 -63 27t-70 10q-73 0 -106 -36q-11 -12 -18.5 -27t-12.5 -38.5t-7.5 -57t-2.5 -82.5v-23q0 -48 1.5 -81t5.5 -56t11 -38t18 -27q19 -21 48.5 -30t74.5 -9q31 0 66.5 7.5t61.5 16.5q5 2 9 3t7 1
q9 0 12 -9l6 -19q5 -15 6 -21t1 -11q0 -11 -12 -15q-34 -13 -81 -23t-90 -10q-72 0 -117 15t-71 43q-17 18 -28.5 40t-18 51.5t-9 68.5t-2.5 91v46q0 59 4.5 101.5t14 73t25 52t37.5 38.5q30 23 71.5 34t94.5 11q48 0 93 -12.5t80 -32.5zM270 705q-7 0 -11.5 1.5t-9.5 7.5
l-98 114q-3 4 -5 6.5t-2 6.5q0 6 8 12l23 16q11 8 17 8t14 -8l85 -87h4l85 87q8 8 14 8t17 -8l23 -16q8 -6 8 -12q0 -4 -2 -6.5t-5 -6.5l-98 -114q-5 -6 -9.5 -7.5t-11.5 -1.5h-46z" />
    <glyph glyph-name="Cdotaccent" unicode="&#x10a;" horiz-adv-x="518" 
d="M471 611q10 -6 10 -13q0 -8 -8 -24l-15 -30q-5 -9 -13 -9q-5 0 -13 4q-30 17 -63 27t-70 10q-73 0 -106 -36q-11 -12 -18.5 -27t-12.5 -38.5t-7.5 -57t-2.5 -82.5v-23q0 -48 1.5 -81t5.5 -56t11 -38t18 -27q19 -21 48.5 -30t74.5 -9q31 0 66.5 7.5t61.5 16.5q5 2 9 3t7 1
q9 0 12 -9l6 -19q5 -15 6 -21t1 -11q0 -11 -12 -15q-34 -13 -81 -23t-90 -10q-72 0 -117 15t-71 43q-17 18 -28.5 40t-18 51.5t-9 68.5t-2.5 91v46q0 59 4.5 101.5t14 73t25 52t37.5 38.5q30 23 71.5 34t94.5 11q48 0 93 -12.5t80 -32.5zM287 717q-26 0 -44.5 19t-18.5 45
t18.5 45t44.5 19t44.5 -19t18.5 -45t-18.5 -45t-44.5 -19z" />
    <glyph glyph-name="Dcaron" unicode="&#x10e;" horiz-adv-x="599" 
d="M228 0h-66.5t-62.5 1q-17 1 -23.5 7.5t-6.5 22.5v583q0 17 6 24.5t23 9.5q30 3 61.5 4.5t67.5 1.5q83 0 143.5 -15.5t100 -50.5t58.5 -93t19 -143v-53q0 -79 -16.5 -135.5t-54 -93t-98.5 -53.5t-151 -17zM237 575q-14 0 -30.5 -0.5t-24.5 -1.5q-15 -1 -15 -17v-460
q0 -18 18 -18h56q55 0 94.5 10.5t64 37t36 71.5t11.5 114v29q0 69 -11.5 114t-36.5 72t-65 38t-97 11zM266 705q-7 0 -11.5 1.5t-9.5 7.5l-98 114q-3 4 -5 6.5t-2 6.5q0 6 8 12l23 16q11 8 17 8t14 -8l85 -87h4l85 87q8 8 14 8t17 -8l23 -16q8 -6 8 -12q0 -4 -2 -6.5
t-5 -6.5l-98 -114q-5 -6 -9.5 -7.5t-11.5 -1.5h-46z" />
    <glyph glyph-name="Dcroat" unicode="&#x110;" horiz-adv-x="620" 
d="M249 0h-66.5t-62.5 1q-17 1 -23.5 7.5t-6.5 22.5v259h-54q-12 0 -16 4.5t-4 17.5v39q0 13 4 17.5t16 4.5h54v241q0 17 6 24.5t23 9.5q30 3 61.5 4.5t67.5 1.5q83 0 143.5 -15.5t100 -50.5t58.5 -93t19 -143v-53q0 -79 -16.5 -135.5t-54 -93t-98.5 -53.5t-151 -17z
M258 575q-14 0 -30.5 -0.5t-24.5 -1.5q-15 -1 -15 -17v-183h100q14 0 18 -5t4 -21v-33q0 -19 -11.5 -21.5t-26.5 -2.5h-84v-194q0 -18 18 -18h56q55 0 94.5 10.5t64 37t36 71.5t11.5 114v29q0 69 -11.5 114t-36.5 72t-65 38t-97 11z" />
    <glyph glyph-name="Eth" unicode="&#xd0;" horiz-adv-x="620" 
d="M249 0h-66.5t-62.5 1q-17 1 -23.5 7.5t-6.5 22.5v259h-54q-12 0 -16 4.5t-4 17.5v39q0 13 4 17.5t16 4.5h54v241q0 17 6 24.5t23 9.5q30 3 61.5 4.5t67.5 1.5q83 0 143.5 -15.5t100 -50.5t58.5 -93t19 -143v-53q0 -79 -16.5 -135.5t-54 -93t-98.5 -53.5t-151 -17z
M258 575q-14 0 -30.5 -0.5t-24.5 -1.5q-15 -1 -15 -17v-183h100q14 0 18 -5t4 -21v-33q0 -19 -11.5 -21.5t-26.5 -2.5h-84v-194q0 -18 18 -18h56q55 0 94.5 10.5t64 37t36 71.5t11.5 114v29q0 69 -11.5 114t-36.5 72t-65 38t-97 11z" />
    <glyph glyph-name="Egrave" unicode="&#xc8;" horiz-adv-x="486" 
d="M193 0q-32 0 -55 4.5t-38.5 17.5t-24 35.5t-11.5 57.5q-4 42 -6 94t-2 97v39v45t0.5 51t2 51t3.5 46q3 32 12 53t24.5 33.5t39 17.5t56.5 5h230q13 0 16.5 -4.5t3.5 -15.5v-40q0 -11 -3.5 -15.5t-16.5 -4.5h-222q-21 0 -32 -8.5t-13 -28.5q-2 -29 -3.5 -70.5t-1.5 -86.5
h232q13 0 16.5 -4t3.5 -15v-41q0 -10 -3.5 -14.5t-16.5 -4.5h-232q0 -55 1 -99.5t6 -80.5q2 -20 12 -27.5t30 -7.5h222q14 0 17.5 -4t3.5 -15v-41q0 -11 -3.5 -15t-17.5 -4h-230zM375 762q12 -5 13 -12q0 -5 -6 -15l-13 -26q-6 -13 -13 -13t-18 4l-170 67q-9 4 -12 7t-4 8
q0 4 2 9t6 13l19 36q3 7 6 9t7 3q6 0 15 -5z" />
    <glyph glyph-name="Eacute" unicode="&#xc9;" horiz-adv-x="486" 
d="M193 0q-32 0 -55 4.5t-38.5 17.5t-24 35.5t-11.5 57.5q-4 42 -6 94t-2 97v39v45t0.5 51t2 51t3.5 46q3 32 12 53t24.5 33.5t39 17.5t56.5 5h230q13 0 16.5 -4.5t3.5 -15.5v-40q0 -11 -3.5 -15.5t-16.5 -4.5h-222q-21 0 -32 -8.5t-13 -28.5q-2 -29 -3.5 -70.5t-1.5 -86.5
h232q13 0 16.5 -4t3.5 -15v-41q0 -10 -3.5 -14.5t-16.5 -4.5h-232q0 -55 1 -99.5t6 -80.5q2 -20 12 -27.5t30 -7.5h222q14 0 17.5 -4t3.5 -15v-41q0 -11 -3.5 -15t-17.5 -4h-230zM365 847q9 5 15 5q4 -1 7 -3t6 -9l19 -36q4 -8 6 -13t2 -9q-1 -5 -4 -8t-12 -7l-170 -67
q-11 -4 -18 -4t-13 13l-13 26q-6 10 -6 15q1 7 13 12z" />
    <glyph glyph-name="Ecircumflex" unicode="&#xca;" horiz-adv-x="486" 
d="M193 0q-32 0 -55 4.5t-38.5 17.5t-24 35.5t-11.5 57.5q-4 42 -6 94t-2 97v39v45t0.5 51t2 51t3.5 46q3 32 12 53t24.5 33.5t39 17.5t56.5 5h230q13 0 16.5 -4.5t3.5 -15.5v-40q0 -11 -3.5 -15.5t-16.5 -4.5h-222q-21 0 -32 -8.5t-13 -28.5q-2 -29 -3.5 -70.5t-1.5 -86.5
h232q13 0 16.5 -4t3.5 -15v-41q0 -10 -3.5 -14.5t-16.5 -4.5h-232q0 -55 1 -99.5t6 -80.5q2 -20 12 -27.5t30 -7.5h222q14 0 17.5 -4t3.5 -15v-41q0 -11 -3.5 -15t-17.5 -4h-230zM297 873q7 0 11.5 -1.5t9.5 -7.5l98 -114q3 -4 5 -6.5t2 -6.5q0 -6 -8 -12l-23 -16
q-11 -8 -17 -8t-14 8l-85 87h-4l-85 -87q-8 -8 -14 -8t-17 8l-23 16q-8 6 -8 12q0 4 2 6.5t5 6.5l98 114q5 6 9.5 7.5t11.5 1.5h46z" />
    <glyph glyph-name="Ecaron" unicode="&#x11a;" horiz-adv-x="486" 
d="M193 0q-32 0 -55 4.5t-38.5 17.5t-24 35.5t-11.5 57.5q-4 42 -6 94t-2 97v39v45t0.5 51t2 51t3.5 46q3 32 12 53t24.5 33.5t39 17.5t56.5 5h230q13 0 16.5 -4.5t3.5 -15.5v-40q0 -11 -3.5 -15.5t-16.5 -4.5h-222q-21 0 -32 -8.5t-13 -28.5q-2 -29 -3.5 -70.5t-1.5 -86.5
h232q13 0 16.5 -4t3.5 -15v-41q0 -10 -3.5 -14.5t-16.5 -4.5h-232q0 -55 1 -99.5t6 -80.5q2 -20 12 -27.5t30 -7.5h222q14 0 17.5 -4t3.5 -15v-41q0 -11 -3.5 -15t-17.5 -4h-230zM253 705q-7 0 -11.5 1.5t-9.5 7.5l-98 114q-3 4 -5 6.5t-2 6.5q0 6 8 12l23 16q11 8 17 8
t14 -8l85 -87h4l85 87q8 8 14 8t17 -8l23 -16q8 -6 8 -12q0 -4 -2 -6.5t-5 -6.5l-98 -114q-5 -6 -9.5 -7.5t-11.5 -1.5h-46z" />
    <glyph glyph-name="Edieresis" unicode="&#xcb;" horiz-adv-x="486" 
d="M193 0q-32 0 -55 4.5t-38.5 17.5t-24 35.5t-11.5 57.5q-4 42 -6 94t-2 97v39v45t0.5 51t2 51t3.5 46q3 32 12 53t24.5 33.5t39 17.5t56.5 5h230q13 0 16.5 -4.5t3.5 -15.5v-40q0 -11 -3.5 -15.5t-16.5 -4.5h-222q-21 0 -32 -8.5t-13 -28.5q-2 -29 -3.5 -70.5t-1.5 -86.5
h232q13 0 16.5 -4t3.5 -15v-41q0 -10 -3.5 -14.5t-16.5 -4.5h-232q0 -55 1 -99.5t6 -80.5q2 -20 12 -27.5t30 -7.5h222q14 0 17.5 -4t3.5 -15v-41q0 -11 -3.5 -15t-17.5 -4h-230zM242 771q0 -48 -49 -48h-10q-23 0 -35.5 12.5t-12.5 35.5v16q0 23 12.5 35.5t35.5 12.5h10
q49 0 49 -48v-16zM405 771q0 -48 -49 -48h-10q-23 0 -35.5 12.5t-12.5 35.5v16q0 23 12.5 35.5t35.5 12.5h10q49 0 49 -48v-16z" />
    <glyph glyph-name="Emacron" unicode="&#x112;" horiz-adv-x="486" 
d="M193 0q-32 0 -55 4.5t-38.5 17.5t-24 35.5t-11.5 57.5q-4 42 -6 94t-2 97v39v45t0.5 51t2 51t3.5 46q3 32 12 53t24.5 33.5t39 17.5t56.5 5h230q13 0 16.5 -4.5t3.5 -15.5v-40q0 -11 -3.5 -15.5t-16.5 -4.5h-222q-21 0 -32 -8.5t-13 -28.5q-2 -29 -3.5 -70.5t-1.5 -86.5
h232q13 0 16.5 -4t3.5 -15v-41q0 -10 -3.5 -14.5t-16.5 -4.5h-232q0 -55 1 -99.5t6 -80.5q2 -20 12 -27.5t30 -7.5h222q14 0 17.5 -4t3.5 -15v-41q0 -11 -3.5 -15t-17.5 -4h-230zM161 730q-19 0 -19 18v38q0 17 19 17h222q19 0 19 -17v-38q0 -18 -19 -18h-222z" />
    <glyph glyph-name="Ebreve" unicode="&#x114;" horiz-adv-x="486" 
d="M193 0q-32 0 -55 4.5t-38.5 17.5t-24 35.5t-11.5 57.5q-4 42 -6 94t-2 97v39v45t0.5 51t2 51t3.5 46q3 32 12 53t24.5 33.5t39 17.5t56.5 5h230q13 0 16.5 -4.5t3.5 -15.5v-40q0 -11 -3.5 -15.5t-16.5 -4.5h-222q-21 0 -32 -8.5t-13 -28.5q-2 -29 -3.5 -70.5t-1.5 -86.5
h232q13 0 16.5 -4t3.5 -15v-41q0 -10 -3.5 -14.5t-16.5 -4.5h-232q0 -55 1 -99.5t6 -80.5q2 -20 12 -27.5t30 -7.5h222q14 0 17.5 -4t3.5 -15v-41q0 -11 -3.5 -15t-17.5 -4h-230zM272 700q-57 0 -93 26.5t-53 75.5q-5 15 -5 19q0 9 14 13l22 7q17 5 21 5q8 0 12 -12
q14 -37 33.5 -52t48.5 -15t48.5 15t33.5 52q4 12 12 12q4 0 21 -5l22 -7q14 -4 14 -13q0 -4 -5 -19q-17 -49 -53 -75.5t-93 -26.5z" />
    <glyph glyph-name="Edotaccent" unicode="&#x116;" horiz-adv-x="486" 
d="M193 0q-32 0 -55 4.5t-38.5 17.5t-24 35.5t-11.5 57.5q-4 42 -6 94t-2 97v39v45t0.5 51t2 51t3.5 46q3 32 12 53t24.5 33.5t39 17.5t56.5 5h230q13 0 16.5 -4.5t3.5 -15.5v-40q0 -11 -3.5 -15.5t-16.5 -4.5h-222q-21 0 -32 -8.5t-13 -28.5q-2 -29 -3.5 -70.5t-1.5 -86.5
h232q13 0 16.5 -4t3.5 -15v-41q0 -10 -3.5 -14.5t-16.5 -4.5h-232q0 -55 1 -99.5t6 -80.5q2 -20 12 -27.5t30 -7.5h222q14 0 17.5 -4t3.5 -15v-41q0 -11 -3.5 -15t-17.5 -4h-230zM271 717q-26 0 -44.5 19t-18.5 45t18.5 45t44.5 19t44.5 -19t18.5 -45t-18.5 -45t-44.5 -19z
" />
    <glyph glyph-name="Eogonek" unicode="&#x118;" horiz-adv-x="486" 
d="M283 -120q0 19 7 37t18 34t26 28.5t31 20.5h-172q-32 0 -55 4.5t-38.5 17.5t-24 35.5t-11.5 57.5q-4 42 -6 94t-2 97v39v45t0.5 51t2 51t3.5 46q3 32 12 53t24.5 33.5t39 17.5t56.5 5h230q13 0 16.5 -4.5t3.5 -15.5v-40q0 -11 -3.5 -15.5t-16.5 -4.5h-222q-21 0 -32 -8.5
t-13 -28.5q-2 -29 -3.5 -70.5t-1.5 -86.5h232q13 0 16.5 -4t3.5 -15v-41q0 -10 -3.5 -14.5t-16.5 -4.5h-232q0 -55 1 -99.5t6 -80.5q2 -20 12 -27.5t30 -7.5h222q14 0 17.5 -4t3.5 -15v-38q0 -11 -3.5 -14.5t-11.5 -8.5q-35 -23 -52 -50.5t-17 -55.5q0 -33 37 -33
q11 0 24 2.5t24 6.5q9 3 10 3q7 0 8 -9l4 -18q3 -12 3 -17q0 -7 -12 -12q-17 -7 -36.5 -11t-37.5 -4q-48 0 -74.5 19.5t-26.5 59.5z" />
    <glyph glyph-name="Gcircumflex" unicode="&#x11c;" horiz-adv-x="577" 
d="M497 624q12 -5 12 -14q0 -5 -7 -25l-9 -28q-6 -18 -27 -9q-31 12 -67 20t-77 8q-46 0 -78 -11.5t-52.5 -39t-30 -73.5t-9.5 -116v-25q0 -70 8 -116t27.5 -73.5t51.5 -39t80 -11.5q26 0 50 1.5t41 4.5q8 2 11.5 5.5t3.5 12.5v179h-81q-12 0 -16.5 3.5t-4.5 14.5v44
q0 11 4.5 15t16.5 4h160q19 0 19 -19v-290q0 -14 -4.5 -21t-18.5 -11q-38 -10 -86 -16.5t-95 -6.5q-78 0 -130 17t-82.5 54t-43 96t-12.5 143v46q0 94 22 158.5t70 101.5q33 26 78.5 37.5t105.5 11.5q48 0 91.5 -9t78.5 -23zM334 873q7 0 11.5 -1.5t9.5 -7.5l98 -114
q3 -4 5 -6.5t2 -6.5q0 -6 -8 -12l-23 -16q-11 -8 -17 -8t-14 8l-85 87h-4l-85 -87q-8 -8 -14 -8t-17 8l-23 16q-8 6 -8 12q0 4 2 6.5t5 6.5l98 114q5 6 9.5 7.5t11.5 1.5h46z" />
    <glyph glyph-name="Gbreve" unicode="&#x11e;" horiz-adv-x="577" 
d="M497 624q12 -5 12 -14q0 -5 -7 -25l-9 -28q-6 -18 -27 -9q-31 12 -67 20t-77 8q-46 0 -78 -11.5t-52.5 -39t-30 -73.5t-9.5 -116v-25q0 -70 8 -116t27.5 -73.5t51.5 -39t80 -11.5q26 0 50 1.5t41 4.5q8 2 11.5 5.5t3.5 12.5v179h-81q-12 0 -16.5 3.5t-4.5 14.5v44
q0 11 4.5 15t16.5 4h160q19 0 19 -19v-290q0 -14 -4.5 -21t-18.5 -11q-38 -10 -86 -16.5t-95 -6.5q-78 0 -130 17t-82.5 54t-43 96t-12.5 143v46q0 94 22 158.5t70 101.5q33 26 78.5 37.5t105.5 11.5q48 0 91.5 -9t78.5 -23zM310 700q-57 0 -93 26.5t-53 75.5q-5 15 -5 19
q0 9 14 13l22 7q17 5 21 5q8 0 12 -12q14 -37 33.5 -52t48.5 -15t48.5 15t33.5 52q4 12 12 12q4 0 21 -5l22 -7q14 -4 14 -13q0 -4 -5 -19q-17 -49 -53 -75.5t-93 -26.5z" />
    <glyph glyph-name="Gdotaccent" unicode="&#x120;" horiz-adv-x="577" 
d="M497 624q12 -5 12 -14q0 -5 -7 -25l-9 -28q-6 -18 -27 -9q-31 12 -67 20t-77 8q-46 0 -78 -11.5t-52.5 -39t-30 -73.5t-9.5 -116v-25q0 -70 8 -116t27.5 -73.5t51.5 -39t80 -11.5q26 0 50 1.5t41 4.5q8 2 11.5 5.5t3.5 12.5v179h-81q-12 0 -16.5 3.5t-4.5 14.5v44
q0 11 4.5 15t16.5 4h160q19 0 19 -19v-290q0 -14 -4.5 -21t-18.5 -11q-38 -10 -86 -16.5t-95 -6.5q-78 0 -130 17t-82.5 54t-43 96t-12.5 143v46q0 94 22 158.5t70 101.5q33 26 78.5 37.5t105.5 11.5q48 0 91.5 -9t78.5 -23zM309 717q-26 0 -44.5 19t-18.5 45t18.5 45
t44.5 19t44.5 -19t18.5 -45t-18.5 -45t-44.5 -19z" />
    <glyph glyph-name="Gcommaaccent" unicode="&#x122;" horiz-adv-x="577" 
d="M497 624q12 -5 12 -14q0 -5 -7 -25l-9 -28q-6 -18 -27 -9q-31 12 -67 20t-77 8q-46 0 -78 -11.5t-52.5 -39t-30 -73.5t-9.5 -116v-25q0 -70 8 -116t27.5 -73.5t51.5 -39t80 -11.5q26 0 50 1.5t41 4.5q8 2 11.5 5.5t3.5 12.5v179h-81q-12 0 -16.5 3.5t-4.5 14.5v44
q0 11 4.5 15t16.5 4h160q19 0 19 -19v-290q0 -14 -4.5 -21t-18.5 -11q-38 -10 -86 -16.5t-95 -6.5q-78 0 -130 17t-82.5 54t-43 96t-12.5 143v46q0 94 22 158.5t70 101.5q33 26 78.5 37.5t105.5 11.5q48 0 91.5 -9t78.5 -23zM326 -66q20 0 30.5 -10t10.5 -34v-18
q0 -75 -66 -138q-6 -6 -12 -6q-5 0 -10 4l-17 15q-6 4 -6 10q0 4 4 8q9 10 20.5 24.5t16.5 27.5q2 4 2 7q0 6 -7 9q-14 8 -20.5 16t-6.5 27v19q0 20 11.5 29.5t28.5 9.5h21z" />
    <glyph glyph-name="Hcircumflex" unicode="&#x124;" horiz-adv-x="612" 
d="M543 21q0 -13 -5 -17t-17 -4h-55q-12 0 -16.5 4t-4.5 17v269h-278v-269q0 -13 -5 -17t-17 -4h-54q-12 0 -17 4t-5 17v605q0 12 5 16.5t17 4.5h54q12 0 17 -4.5t5 -16.5v-255h278v255q0 12 5 16.5t17 4.5h54q12 0 17 -4.5t5 -16.5v-605zM328 873q7 0 11.5 -1.5t9.5 -7.5
l98 -114q3 -4 5 -6.5t2 -6.5q0 -6 -8 -12l-23 -16q-11 -8 -17 -8t-14 8l-85 87h-4l-85 -87q-8 -8 -14 -8t-17 8l-23 16q-8 6 -8 12q0 4 2 6.5t5 6.5l98 114q5 6 9.5 7.5t11.5 1.5h46z" />
    <glyph glyph-name="Hbar" unicode="&#x126;" horiz-adv-x="612" 
d="M543 542h40q11 0 14.5 -3.5t3.5 -13.5v-36q0 -10 -3.5 -13.5t-14.5 -3.5h-40v-451q0 -13 -5 -17t-17 -4h-55q-12 0 -16.5 4t-4.5 17v269h-278v-269q0 -13 -5 -17t-17 -4h-54q-12 0 -17 4t-5 17v451h-40q-11 0 -14.5 3.5t-3.5 13.5v36q0 10 3.5 13.5t14.5 3.5h40v84
q0 12 5 16.5t17 4.5h54q12 0 17 -4.5t5 -16.5v-84h278v84q0 12 5 16.5t17 4.5h54q12 0 17 -4.5t5 -16.5v-84zM445 371v101h-278v-101h278z" />
    <glyph glyph-name="Igrave" unicode="&#xcc;" horiz-adv-x="246" 
d="M150 647q12 0 17 -4.5t5 -16.5v-605q0 -13 -5 -17t-17 -4h-54q-12 0 -17 4t-5 17v605q0 12 4.5 16.5t16.5 4.5h55zM183 762q12 -5 13 -12q0 -5 -6 -15l-13 -26q-6 -13 -13 -13t-18 4l-170 67q-9 4 -12 7t-4 8q0 4 2 9t6 13l19 36q3 7 6 9t7 3q6 0 15 -5z" />
    <glyph glyph-name="Iacute" unicode="&#xcd;" horiz-adv-x="246" 
d="M150 647q12 0 17 -4.5t5 -16.5v-605q0 -13 -5 -17t-17 -4h-54q-12 0 -17 4t-5 17v605q0 12 4.5 16.5t16.5 4.5h55zM226 847q9 5 15 5q4 -1 7 -3t6 -9l19 -36q4 -8 6 -13t2 -9q-1 -5 -4 -8t-12 -7l-170 -67q-11 -4 -18 -4t-13 13l-13 26q-6 10 -6 15q1 7 13 12z" />
    <glyph glyph-name="Icircumflex" unicode="&#xce;" horiz-adv-x="246" 
d="M150 647q12 0 17 -4.5t5 -16.5v-605q0 -13 -5 -17t-17 -4h-54q-12 0 -17 4t-5 17v605q0 12 4.5 16.5t16.5 4.5h55zM146 873q7 0 11.5 -1.5t9.5 -7.5l98 -114q3 -4 5 -6.5t2 -6.5q0 -6 -8 -12l-23 -16q-11 -8 -17 -8t-14 8l-85 87h-4l-85 -87q-8 -8 -14 -8t-17 8l-23 16
q-8 6 -8 12q0 4 2 6.5t5 6.5l98 114q5 6 9.5 7.5t11.5 1.5h46z" />
    <glyph glyph-name="Itilde" unicode="&#x128;" horiz-adv-x="246" 
d="M150 647q12 0 17 -4.5t5 -16.5v-605q0 -13 -5 -17t-17 -4h-54q-12 0 -17 4t-5 17v605q0 12 4.5 16.5t16.5 4.5h55zM-35 731q-8 5 -8 11q0 4 3 10q40 83 106 83q17 0 29.5 -4t27.5 -15l28 -19q11 -8 19 -11.5t18 -3.5q27 0 50 39q4 7 10 7q4 0 6 -1.5t6 -3.5l20 -13
q9 -6 9 -12q0 -4 -3 -10q-21 -38 -47 -58.5t-58 -20.5q-17 0 -30 4.5t-27 13.5l-27 19q-11 8 -18.5 11.5t-17.5 3.5q-11 0 -22.5 -8.5t-25.5 -31.5q-5 -9 -11 -9q-5 0 -16 7z" />
    <glyph glyph-name="Idieresis" unicode="&#xcf;" horiz-adv-x="246" 
d="M150 647q12 0 17 -4.5t5 -16.5v-605q0 -13 -5 -17t-17 -4h-54q-12 0 -17 4t-5 17v605q0 12 4.5 16.5t16.5 4.5h55zM95 771q0 -48 -49 -48h-10q-23 0 -35.5 12.5t-12.5 35.5v16q0 23 12.5 35.5t35.5 12.5h10q49 0 49 -48v-16zM258 771q0 -48 -49 -48h-10q-23 0 -35.5 12.5
t-12.5 35.5v16q0 23 12.5 35.5t35.5 12.5h10q49 0 49 -48v-16z" />
    <glyph glyph-name="Imacron" unicode="&#x12a;" horiz-adv-x="246" 
d="M150 647q12 0 17 -4.5t5 -16.5v-605q0 -13 -5 -17t-17 -4h-54q-12 0 -17 4t-5 17v605q0 12 4.5 16.5t16.5 4.5h55zM12 730q-19 0 -19 18v38q0 17 19 17h222q19 0 19 -17v-38q0 -18 -19 -18h-222z" />
    <glyph glyph-name="Ibreve" unicode="&#x12c;" horiz-adv-x="246" 
d="M150 647q12 0 17 -4.5t5 -16.5v-605q0 -13 -5 -17t-17 -4h-54q-12 0 -17 4t-5 17v605q0 12 4.5 16.5t16.5 4.5h55zM123 700q-57 0 -93 26.5t-53 75.5q-5 15 -5 19q0 9 14 13l22 7q17 5 21 5q8 0 12 -12q14 -37 33.5 -52t48.5 -15t48.5 15t33.5 52q4 12 12 12q4 0 21 -5
l22 -7q14 -4 14 -13q0 -4 -5 -19q-17 -49 -53 -75.5t-93 -26.5z" />
    <glyph glyph-name="Idotaccent" unicode="&#x130;" horiz-adv-x="246" 
d="M150 647q12 0 17 -4.5t5 -16.5v-605q0 -13 -5 -17t-17 -4h-54q-12 0 -17 4t-5 17v605q0 12 4.5 16.5t16.5 4.5h55zM122 717q-26 0 -44.5 19t-18.5 45t18.5 45t44.5 19t44.5 -19t18.5 -45t-18.5 -45t-44.5 -19z" />
    <glyph glyph-name="Iogonek" unicode="&#x12e;" horiz-adv-x="246" 
d="M150 647q12 0 17 -4.5t5 -16.5v-605q0 -9 -2.5 -13t-11.5 -8q-51 -21 -71.5 -49.5t-20.5 -57.5q0 -33 37 -33q11 0 24 2.5t24 6.5q9 3 10 3q7 0 8 -9l4 -18q3 -12 3 -17q0 -7 -12 -12q-17 -7 -36.5 -11t-37.5 -4q-48 0 -74.5 21t-26.5 63q0 34 21 68.5t64 60.5v612
q0 12 4.5 16.5t16.5 4.5h55z" />
    <glyph glyph-name="IJ" unicode="&#x132;" horiz-adv-x="569" 
d="M150 647q12 0 17 -4.5t5 -16.5v-605q0 -13 -5 -17t-17 -4h-54q-12 0 -17 4t-5 17v605q0 12 4.5 16.5t16.5 4.5h55zM499 201q0 -49 -6.5 -82t-21.5 -58q-20 -32 -54 -46.5t-88 -14.5h-49q-12 0 -16 4t-4 15v44q0 11 4 15.5t15 4.5h43q53 0 68 32q8 18 9.5 37t1.5 54v420
q0 12 4.5 16.5t16.5 4.5h55q12 0 17 -4.5t5 -16.5v-425z" />
    <glyph glyph-name="Jcircumflex" unicode="&#x134;" horiz-adv-x="324" 
d="M254 201q0 -49 -6.5 -82t-21.5 -58q-20 -32 -54 -46.5t-88 -14.5h-49q-12 0 -16 4t-4 15v44q0 11 4 15.5t15 4.5h43q53 0 68 32q8 18 9.5 37t1.5 54v420q0 12 4.5 16.5t16.5 4.5h55q12 0 17 -4.5t5 -16.5v-425zM226 873q7 0 11.5 -1.5t9.5 -7.5l98 -114q3 -4 5 -6.5
t2 -6.5q0 -6 -8 -12l-23 -16q-11 -8 -17 -8t-14 8l-85 87h-4l-85 -87q-8 -8 -14 -8t-17 8l-23 16q-8 6 -8 12q0 4 2 6.5t5 6.5l98 114q5 6 9.5 7.5t11.5 1.5h46z" />
    <glyph glyph-name="Kcommaaccent" unicode="&#x136;" 
d="M167 21q0 -13 -5 -17t-17 -4h-54q-12 0 -17 4t-5 17v605q0 12 5 16.5t17 4.5h54q12 0 17 -4.5t5 -16.5v-253h47q11 0 16.5 3.5t10.5 11.5l165 242q6 9 13 13t20 4h61q16 0 16 -9q0 -7 -7 -17l-185 -266q-4 -5 -6 -8.5t-2 -8.5q0 -7 8 -18l168 -270l16.5 -25.5t5.5 -14.5
q0 -10 -18 -10h-60q-12 0 -18 3t-12 13l-159 262q-5 9 -11 11.5t-18 2.5h-51v-271zM279 -66q20 0 30.5 -10t10.5 -34v-18q0 -75 -66 -138q-6 -6 -12 -6q-5 0 -10 4l-17 15q-6 4 -6 10q0 4 4 8q9 10 20.5 24.5t16.5 27.5q2 4 2 7q0 6 -7 9q-14 8 -20.5 16t-6.5 27v19
q0 20 11.5 29.5t28.5 9.5h21z" />
    <glyph glyph-name="Lacute" unicode="&#x139;" horiz-adv-x="417" 
d="M167 106q0 -15 6 -21t23 -6h175q13 0 17 -3.5t4 -14.5v-43q0 -10 -4 -14t-17 -4h-206q-53 0 -74.5 22.5t-21.5 67.5v536q0 12 5 16.5t17 4.5h54q12 0 17 -4.5t5 -16.5v-520zM230 847q9 5 15 5q4 -1 7 -3t6 -9l19 -36q4 -8 6 -13t2 -9q-1 -5 -4 -8t-12 -7l-170 -67
q-11 -4 -18 -4t-13 13l-13 26q-6 10 -6 15q1 7 13 12z" />
    <glyph glyph-name="Lcaron" unicode="&#x13d;" horiz-adv-x="417" 
d="M167 106q0 -15 6 -21t23 -6h175q13 0 17 -3.5t4 -14.5v-43q0 -10 -4 -14t-17 -4h-206q-53 0 -74.5 22.5t-21.5 67.5v536q0 12 5 16.5t17 4.5h54q12 0 17 -4.5t5 -16.5v-520zM330 648q20 0 30.5 -10t10.5 -34v-18q0 -75 -66 -138q-6 -6 -12 -6q-5 0 -10 4l-17 15
q-6 4 -6 10q0 4 4 8q9 10 20.5 24.5t16.5 27.5q2 4 2 7q0 6 -7 9q-14 8 -20.5 16t-6.5 27v19q0 20 11.5 29.5t28.5 9.5h21z" />
    <glyph glyph-name="Lcommaaccent" unicode="&#x13b;" horiz-adv-x="417" 
d="M167 106q0 -15 6 -21t23 -6h175q13 0 17 -3.5t4 -14.5v-43q0 -10 -4 -14t-17 -4h-206q-53 0 -74.5 22.5t-21.5 67.5v536q0 12 5 16.5t17 4.5h54q12 0 17 -4.5t5 -16.5v-520zM237 -66q20 0 30.5 -10t10.5 -34v-18q0 -75 -66 -138q-6 -6 -12 -6q-5 0 -10 4l-17 15
q-6 4 -6 10q0 4 4 8q9 10 20.5 24.5t16.5 27.5q2 4 2 7q0 6 -7 9q-14 8 -20.5 16t-6.5 27v19q0 20 11.5 29.5t28.5 9.5h21z" />
    <glyph glyph-name="Lslash" unicode="&#x141;" horiz-adv-x="417" 
d="M167 409l91 61q7 5 12 2.5t5 -13.5v-57q0 -9 -2.5 -15t-12.5 -13l-93 -62v-206q0 -15 6 -21t23 -6h175q13 0 17 -3.5t4 -14.5v-43q0 -10 -4 -14t-17 -4h-206q-53 0 -74.5 22.5t-21.5 67.5v157l-63 -42q-13 -8 -16 0t-3 23v44q0 9 2.5 15t12.5 13l67 44v282q0 12 5 16.5
t17 4.5h54q12 0 17 -4.5t5 -16.5v-217z" />
    <glyph glyph-name="Ldot" unicode="&#x13f;" horiz-adv-x="417" 
d="M167 106q0 -15 6 -21t23 -6h175q13 0 17 -3.5t4 -14.5v-43q0 -10 -4 -14t-17 -4h-206q-53 0 -74.5 22.5t-21.5 67.5v536q0 12 5 16.5t17 4.5h54q12 0 17 -4.5t5 -16.5v-520zM325 285q-26 0 -44.5 19t-18.5 45t18.5 45t44.5 19t44.5 -19t18.5 -45t-18.5 -45t-44.5 -19z
" />
    <glyph glyph-name="Nacute" unicode="&#x143;" horiz-adv-x="622" 
d="M164 504h-5v-483q0 -13 -4.5 -17t-16.5 -4h-48q-12 0 -16.5 4t-4.5 17v598q0 17 6.5 22.5t23.5 5.5h53q20 0 29.5 -6.5t17.5 -21.5l259 -476h5v483q0 12 4.5 16.5t16.5 4.5h48q12 0 16.5 -4.5t4.5 -16.5v-599q0 -17 -6.5 -22t-23.5 -5h-53q-20 0 -29.5 6.5t-17.5 20.5z
M409 847q9 5 15 5q4 -1 7 -3t6 -9l19 -36q4 -8 6 -13t2 -9q-1 -5 -4 -8t-12 -7l-170 -67q-11 -4 -18 -4t-13 13l-13 26q-6 10 -6 15q1 7 13 12z" />
    <glyph glyph-name="Ncaron" unicode="&#x147;" horiz-adv-x="622" 
d="M164 504h-5v-483q0 -13 -4.5 -17t-16.5 -4h-48q-12 0 -16.5 4t-4.5 17v598q0 17 6.5 22.5t23.5 5.5h53q20 0 29.5 -6.5t17.5 -21.5l259 -476h5v483q0 12 4.5 16.5t16.5 4.5h48q12 0 16.5 -4.5t4.5 -16.5v-599q0 -17 -6.5 -22t-23.5 -5h-53q-20 0 -29.5 6.5t-17.5 20.5z
M295 705q-7 0 -11.5 1.5t-9.5 7.5l-98 114q-3 4 -5 6.5t-2 6.5q0 6 8 12l23 16q11 8 17 8t14 -8l85 -87h4l85 87q8 8 14 8t17 -8l23 -16q8 -6 8 -12q0 -4 -2 -6.5t-5 -6.5l-98 -114q-5 -6 -9.5 -7.5t-11.5 -1.5h-46z" />
    <glyph glyph-name="Ntilde" unicode="&#xd1;" horiz-adv-x="622" 
d="M164 504h-5v-483q0 -13 -4.5 -17t-16.5 -4h-48q-12 0 -16.5 4t-4.5 17v598q0 17 6.5 22.5t23.5 5.5h53q20 0 29.5 -6.5t17.5 -21.5l259 -476h5v483q0 12 4.5 16.5t16.5 4.5h48q12 0 16.5 -4.5t4.5 -16.5v-599q0 -17 -6.5 -22t-23.5 -5h-53q-20 0 -29.5 6.5t-17.5 20.5z
M158 731q-8 5 -8 11q0 4 3 10q40 83 106 83q17 0 29.5 -4t27.5 -15l28 -19q11 -8 19 -11.5t18 -3.5q27 0 50 39q4 7 10 7q4 0 6 -1.5t6 -3.5l20 -13q9 -6 9 -12q0 -4 -3 -10q-21 -38 -47 -58.5t-58 -20.5q-17 0 -30 4.5t-27 13.5l-27 19q-11 8 -18.5 11.5t-17.5 3.5
q-11 0 -22.5 -8.5t-25.5 -31.5q-5 -9 -11 -9q-5 0 -16 7z" />
    <glyph glyph-name="Ncommaaccent" unicode="&#x145;" horiz-adv-x="622" 
d="M164 504h-5v-483q0 -13 -4.5 -17t-16.5 -4h-48q-12 0 -16.5 4t-4.5 17v598q0 17 6.5 22.5t23.5 5.5h53q20 0 29.5 -6.5t17.5 -21.5l259 -476h5v483q0 12 4.5 16.5t16.5 4.5h48q12 0 16.5 -4.5t4.5 -16.5v-599q0 -17 -6.5 -22t-23.5 -5h-53q-20 0 -29.5 6.5t-17.5 20.5z
M335 -66q20 0 30.5 -10t10.5 -34v-18q0 -75 -66 -138q-6 -6 -12 -6q-5 0 -10 4l-17 15q-6 4 -6 10q0 4 4 8q9 10 20.5 24.5t16.5 27.5q2 4 2 7q0 6 -7 9q-14 8 -20.5 16t-6.5 27v19q0 20 11.5 29.5t28.5 9.5h21z" />
    <glyph glyph-name="Eng" unicode="&#x14a;" horiz-adv-x="621" 
d="M552 5q0 -102 -36 -147t-122 -45h-48q-12 0 -15.5 4t-3.5 15v39q0 10 3.5 14.5t15.5 4.5h39q42 0 59.5 19t17.5 70v21q-23 2 -37.5 11.5t-27.5 35.5l-232 456h-6v-482q0 -13 -4.5 -17t-16.5 -4h-48q-12 0 -16.5 4t-4.5 17v598q0 17 6.5 22.5t23.5 5.5h53q20 0 29.5 -6.5
t17.5 -21.5l258 -501h5v508q0 12 4.5 16.5t16.5 4.5h48q12 0 16.5 -4.5t4.5 -16.5v-621z" />
    <glyph glyph-name="Ograve" unicode="&#xd2;" horiz-adv-x="600" 
d="M549 300q0 -50 -3 -87.5t-10 -66t-19 -51t-30 -42.5q-26 -29 -73.5 -45.5t-113.5 -16.5t-113.5 16.5t-73.5 45.5q-18 20 -30 42.5t-19 51t-10 66t-3 87.5v46q0 50 3 87.5t10 66.5t19 51.5t30 42.5q26 29 73.5 45.5t113.5 16.5t113.5 -16.5t73.5 -45.5q18 -20 30 -42.5
t19 -51.5t10 -66.5t3 -87.5v-46zM448 335q0 75 -5.5 122.5t-30.5 76.5q-18 21 -44.5 31.5t-67.5 10.5t-67.5 -10.5t-44.5 -31.5q-25 -29 -30.5 -76.5t-5.5 -122.5v-23q0 -75 5.5 -122.5t30.5 -76.5q18 -21 44.5 -31.5t67.5 -10.5t67.5 10.5t44.5 31.5q25 29 30.5 76.5
t5.5 122.5v23zM396 762q12 -5 13 -12q0 -5 -6 -15l-13 -26q-6 -13 -13 -13t-18 4l-170 67q-9 4 -12 7t-4 8q0 4 2 9t6 13l19 36q3 7 6 9t7 3q6 0 15 -5z" />
    <glyph glyph-name="Oacute" unicode="&#xd3;" horiz-adv-x="600" 
d="M549 300q0 -50 -3 -87.5t-10 -66t-19 -51t-30 -42.5q-26 -29 -73.5 -45.5t-113.5 -16.5t-113.5 16.5t-73.5 45.5q-18 20 -30 42.5t-19 51t-10 66t-3 87.5v46q0 50 3 87.5t10 66.5t19 51.5t30 42.5q26 29 73.5 45.5t113.5 16.5t113.5 -16.5t73.5 -45.5q18 -20 30 -42.5
t19 -51.5t10 -66.5t3 -87.5v-46zM448 335q0 75 -5.5 122.5t-30.5 76.5q-18 21 -44.5 31.5t-67.5 10.5t-67.5 -10.5t-44.5 -31.5q-25 -29 -30.5 -76.5t-5.5 -122.5v-23q0 -75 5.5 -122.5t30.5 -76.5q18 -21 44.5 -31.5t67.5 -10.5t67.5 10.5t44.5 31.5q25 29 30.5 76.5
t5.5 122.5v23zM388 847q9 5 15 5q4 -1 7 -3t6 -9l19 -36q4 -8 6 -13t2 -9q-1 -5 -4 -8t-12 -7l-170 -67q-11 -4 -18 -4t-13 13l-13 26q-6 10 -6 15q1 7 13 12z" />
    <glyph glyph-name="Ocircumflex" unicode="&#xd4;" horiz-adv-x="600" 
d="M549 300q0 -50 -3 -87.5t-10 -66t-19 -51t-30 -42.5q-26 -29 -73.5 -45.5t-113.5 -16.5t-113.5 16.5t-73.5 45.5q-18 20 -30 42.5t-19 51t-10 66t-3 87.5v46q0 50 3 87.5t10 66.5t19 51.5t30 42.5q26 29 73.5 45.5t113.5 16.5t113.5 -16.5t73.5 -45.5q18 -20 30 -42.5
t19 -51.5t10 -66.5t3 -87.5v-46zM448 335q0 75 -5.5 122.5t-30.5 76.5q-18 21 -44.5 31.5t-67.5 10.5t-67.5 -10.5t-44.5 -31.5q-25 -29 -30.5 -76.5t-5.5 -122.5v-23q0 -75 5.5 -122.5t30.5 -76.5q18 -21 44.5 -31.5t67.5 -10.5t67.5 10.5t44.5 31.5q25 29 30.5 76.5
t5.5 122.5v23zM324 873q7 0 11.5 -1.5t9.5 -7.5l98 -114q3 -4 5 -6.5t2 -6.5q0 -6 -8 -12l-23 -16q-11 -8 -17 -8t-14 8l-85 87h-4l-85 -87q-8 -8 -14 -8t-17 8l-23 16q-8 6 -8 12q0 4 2 6.5t5 6.5l98 114q5 6 9.5 7.5t11.5 1.5h46z" />
    <glyph glyph-name="Otilde" unicode="&#xd5;" horiz-adv-x="600" 
d="M549 300q0 -50 -3 -87.5t-10 -66t-19 -51t-30 -42.5q-26 -29 -73.5 -45.5t-113.5 -16.5t-113.5 16.5t-73.5 45.5q-18 20 -30 42.5t-19 51t-10 66t-3 87.5v46q0 50 3 87.5t10 66.5t19 51.5t30 42.5q26 29 73.5 45.5t113.5 16.5t113.5 -16.5t73.5 -45.5q18 -20 30 -42.5
t19 -51.5t10 -66.5t3 -87.5v-46zM448 335q0 75 -5.5 122.5t-30.5 76.5q-18 21 -44.5 31.5t-67.5 10.5t-67.5 -10.5t-44.5 -31.5q-25 -29 -30.5 -76.5t-5.5 -122.5v-23q0 -75 5.5 -122.5t30.5 -76.5q18 -21 44.5 -31.5t67.5 -10.5t67.5 10.5t44.5 31.5q25 29 30.5 76.5
t5.5 122.5v23zM143 731q-8 5 -8 11q0 4 3 10q40 83 106 83q17 0 29.5 -4t27.5 -15l28 -19q11 -8 19 -11.5t18 -3.5q27 0 50 39q4 7 10 7q4 0 6 -1.5t6 -3.5l20 -13q9 -6 9 -12q0 -4 -3 -10q-21 -38 -47 -58.5t-58 -20.5q-17 0 -30 4.5t-27 13.5l-27 19q-11 8 -18.5 11.5
t-17.5 3.5q-11 0 -22.5 -8.5t-25.5 -31.5q-5 -9 -11 -9q-5 0 -16 7z" />
    <glyph glyph-name="Odieresis" unicode="&#xd6;" horiz-adv-x="600" 
d="M549 300q0 -50 -3 -87.5t-10 -66t-19 -51t-30 -42.5q-26 -29 -73.5 -45.5t-113.5 -16.5t-113.5 16.5t-73.5 45.5q-18 20 -30 42.5t-19 51t-10 66t-3 87.5v46q0 50 3 87.5t10 66.5t19 51.5t30 42.5q26 29 73.5 45.5t113.5 16.5t113.5 -16.5t73.5 -45.5q18 -20 30 -42.5
t19 -51.5t10 -66.5t3 -87.5v-46zM448 335q0 75 -5.5 122.5t-30.5 76.5q-18 21 -44.5 31.5t-67.5 10.5t-67.5 -10.5t-44.5 -31.5q-25 -29 -30.5 -76.5t-5.5 -122.5v-23q0 -75 5.5 -122.5t30.5 -76.5q18 -21 44.5 -31.5t67.5 -10.5t67.5 10.5t44.5 31.5q25 29 30.5 76.5
t5.5 122.5v23zM274 771q0 -48 -49 -48h-10q-23 0 -35.5 12.5t-12.5 35.5v16q0 23 12.5 35.5t35.5 12.5h10q49 0 49 -48v-16zM437 771q0 -48 -49 -48h-10q-23 0 -35.5 12.5t-12.5 35.5v16q0 23 12.5 35.5t35.5 12.5h10q49 0 49 -48v-16z" />
    <glyph glyph-name="Omacron" unicode="&#x14c;" horiz-adv-x="600" 
d="M549 300q0 -50 -3 -87.5t-10 -66t-19 -51t-30 -42.5q-26 -29 -73.5 -45.5t-113.5 -16.5t-113.5 16.5t-73.5 45.5q-18 20 -30 42.5t-19 51t-10 66t-3 87.5v46q0 50 3 87.5t10 66.5t19 51.5t30 42.5q26 29 73.5 45.5t113.5 16.5t113.5 -16.5t73.5 -45.5q18 -20 30 -42.5
t19 -51.5t10 -66.5t3 -87.5v-46zM448 335q0 75 -5.5 122.5t-30.5 76.5q-18 21 -44.5 31.5t-67.5 10.5t-67.5 -10.5t-44.5 -31.5q-25 -29 -30.5 -76.5t-5.5 -122.5v-23q0 -75 5.5 -122.5t30.5 -76.5q18 -21 44.5 -31.5t67.5 -10.5t67.5 10.5t44.5 31.5q25 29 30.5 76.5
t5.5 122.5v23zM190 730q-19 0 -19 18v38q0 17 19 17h222q19 0 19 -17v-38q0 -18 -19 -18h-222z" />
    <glyph glyph-name="Obreve" unicode="&#x14e;" horiz-adv-x="600" 
d="M549 300q0 -50 -3 -87.5t-10 -66t-19 -51t-30 -42.5q-26 -29 -73.5 -45.5t-113.5 -16.5t-113.5 16.5t-73.5 45.5q-18 20 -30 42.5t-19 51t-10 66t-3 87.5v46q0 50 3 87.5t10 66.5t19 51.5t30 42.5q26 29 73.5 45.5t113.5 16.5t113.5 -16.5t73.5 -45.5q18 -20 30 -42.5
t19 -51.5t10 -66.5t3 -87.5v-46zM448 335q0 75 -5.5 122.5t-30.5 76.5q-18 21 -44.5 31.5t-67.5 10.5t-67.5 -10.5t-44.5 -31.5q-25 -29 -30.5 -76.5t-5.5 -122.5v-23q0 -75 5.5 -122.5t30.5 -76.5q18 -21 44.5 -31.5t67.5 -10.5t67.5 10.5t44.5 31.5q25 29 30.5 76.5
t5.5 122.5v23zM299 700q-57 0 -93 26.5t-53 75.5q-5 15 -5 19q0 9 14 13l22 7q17 5 21 5q8 0 12 -12q14 -37 33.5 -52t48.5 -15t48.5 15t33.5 52q4 12 12 12q4 0 21 -5l22 -7q14 -4 14 -13q0 -4 -5 -19q-17 -49 -53 -75.5t-93 -26.5z" />
    <glyph glyph-name="Ohungarumlaut" unicode="&#x150;" horiz-adv-x="600" 
d="M549 300q0 -50 -3 -87.5t-10 -66t-19 -51t-30 -42.5q-26 -29 -73.5 -45.5t-113.5 -16.5t-113.5 16.5t-73.5 45.5q-18 20 -30 42.5t-19 51t-10 66t-3 87.5v46q0 50 3 87.5t10 66.5t19 51.5t30 42.5q26 29 73.5 45.5t113.5 16.5t113.5 -16.5t73.5 -45.5q18 -20 30 -42.5
t19 -51.5t10 -66.5t3 -87.5v-46zM448 335q0 75 -5.5 122.5t-30.5 76.5q-18 21 -44.5 31.5t-67.5 10.5t-67.5 -10.5t-44.5 -31.5q-25 -29 -30.5 -76.5t-5.5 -122.5v-23q0 -75 5.5 -122.5t30.5 -76.5q18 -21 44.5 -31.5t67.5 -10.5t67.5 10.5t44.5 31.5q25 29 30.5 76.5
t5.5 122.5v23zM290 868q7 6 14 6q8 0 16 -9l29 -38q6 -7 6 -15q-2 -9 -12 -15l-145 -102q-8 -5 -15 -5q-9 0 -19 13l-12 15q-9 12 -9 18q0 5 2 7.5t5 5.5zM500 868q7 6 14 6q8 0 16 -9l29 -38q6 -7 6 -15q-2 -9 -12 -15l-145 -102q-8 -5 -15 -5q-9 0 -19 13l-12 15
q-9 12 -9 18q0 5 2 7.5t5 5.5z" />
    <glyph glyph-name="Oslash" unicode="&#xd8;" horiz-adv-x="600" 
d="M549 300q0 -50 -3 -87.5t-10 -66t-19 -51t-30 -42.5q-26 -29 -73.5 -45.5t-113.5 -16.5q-39 0 -71.5 6t-58.5 17l-32 -59q-4 -6 -6.5 -9t-7.5 -3q-6 0 -19 7l-19 10q-13 7 -13 14q0 4 2.5 10t10.5 19l27 49v1q-18 20 -30 42.5t-19 51t-10 66t-3 87.5v46q0 50 3 87.5
t10 66.5t19 51.5t30 42.5q26 29 73.5 45.5t113.5 16.5q78 0 133 -25l35 63q4 8 6.5 10t7.5 2q6 0 19 -7l19 -10q13 -7 13 -14q0 -4 -2.5 -10t-10.5 -19l-31 -55q17 -20 28.5 -42.5t18.5 -51t10 -65.5t3 -86v-46zM152 312q0 -55 2 -94.5t13 -68.5l223 404q-34 23 -90 23
q-41 0 -67.5 -10.5t-44.5 -31.5q-25 -29 -30.5 -76.5t-5.5 -122.5v-23zM448 335q0 52 -2 90.5t-11 66.5l-222 -401q30 -20 87 -20q41 0 67.5 10.5t44.5 31.5q25 29 30.5 76.5t5.5 122.5v23z" />
    <glyph glyph-name="Oslashacute" unicode="&#x1fe;" horiz-adv-x="600" 
d="M549 300q0 -50 -3 -87.5t-10 -66t-19 -51t-30 -42.5q-26 -29 -73.5 -45.5t-113.5 -16.5q-39 0 -71.5 6t-58.5 17l-32 -59q-4 -6 -6.5 -9t-7.5 -3q-6 0 -19 7l-19 10q-13 7 -13 14q0 4 2.5 10t10.5 19l27 49v1q-18 20 -30 42.5t-19 51t-10 66t-3 87.5v46q0 50 3 87.5
t10 66.5t19 51.5t30 42.5q26 29 73.5 45.5t113.5 16.5q78 0 133 -25l35 63q4 8 6.5 10t7.5 2q6 0 19 -7l19 -10q13 -7 13 -14q0 -4 -2.5 -10t-10.5 -19l-31 -55q17 -20 28.5 -42.5t18.5 -51t10 -65.5t3 -86v-46zM152 312q0 -55 2 -94.5t13 -68.5l223 404q-34 23 -90 23
q-41 0 -67.5 -10.5t-44.5 -31.5q-25 -29 -30.5 -76.5t-5.5 -122.5v-23zM448 335q0 52 -2 90.5t-11 66.5l-222 -401q30 -20 87 -20q41 0 67.5 10.5t44.5 31.5q25 29 30.5 76.5t5.5 122.5v23zM386 847q9 5 15 5q4 -1 7 -3t6 -9l19 -36q4 -8 6 -13t2 -9q-1 -5 -4 -8t-12 -7
l-170 -67q-11 -4 -18 -4t-13 13l-13 26q-6 10 -6 15q1 7 13 12z" />
    <glyph glyph-name="OE" unicode="&#x152;" horiz-adv-x="851" 
d="M789 647q13 0 16.5 -4.5t3.5 -15.5v-40q0 -11 -3.5 -15.5t-16.5 -4.5h-222q-21 0 -32 -8.5t-13 -28.5q-2 -29 -3.5 -70.5t-1.5 -86.5h232q13 0 16.5 -4t3.5 -15v-41q0 -10 -3.5 -14.5t-16.5 -4.5h-232q0 -55 1 -99.5t6 -80.5q2 -20 12 -27.5t30 -7.5h222q14 0 17.5 -4
t3.5 -15v-41q0 -11 -3.5 -15t-17.5 -4h-232q-45 0 -71 9t-40 30q-25 -21 -64.5 -34.5t-87.5 -13.5q-69 0 -115 20t-74.5 59t-40.5 96.5t-12 133.5v46q0 76 12 134t40.5 97t75.5 59t117 20q47 0 84 -12.5t68 -33.5q14 22 41 29.5t67 7.5h233zM426 530q-20 20 -52.5 32
t-77.5 12q-49 0 -77.5 -19t-43.5 -51t-19 -76t-4 -93v-24q0 -48 4 -91.5t19 -76.5t44.5 -52t80.5 -19q40 0 74 11.5t55 33.5q-4 40 -6 89t-2 91v59q0 42 0.5 85t4.5 89z" />
    <glyph glyph-name="Thorn" unicode="&#xde;" horiz-adv-x="517" 
d="M246 549q126 0 183.5 -44.5t57.5 -151.5v-16q0 -56 -17 -94.5t-48.5 -63t-76 -35.5t-99.5 -11h-41.5t-37.5 1v-113q0 -13 -5 -17t-17 -4h-54q-12 0 -17 4t-5 17v605q0 12 4.5 16.5t16.5 4.5h55q12 0 17 -4.5t5 -16.5v-79q17 1 38 1.5t41 0.5zM167 213q17 -1 35 -1h35
q37 0 64.5 6t46.5 20t28.5 38.5t9.5 62.5v12q0 65 -32 92t-109 27q-20 0 -40 -0.5t-38 -2.5v-254z" />
    <glyph glyph-name="Racute" unicode="&#x154;" horiz-adv-x="538" 
d="M69 619q0 24 20 27q15 2 33.5 4t39 3.5t41.5 2t39 0.5q118 0 177.5 -40.5t59.5 -142.5v-19q0 -74 -33 -119t-88 -58l141 -237q8 -14 12 -20t4 -11q0 -9 -14 -9h-64q-13 0 -18 3.5t-10 11.5q-33 58 -72 125t-71 126q-11 -1 -23.5 -1h-23.5h-25t-27 1v-245q0 -13 -5 -17
t-17 -4h-54q-12 0 -17 4t-5 17v598zM167 345q15 -1 33.5 -1.5t38.5 -0.5q40 0 67 5.5t43.5 18.5t24 35t7.5 55v13q0 30 -6.5 50.5t-22 33t-41.5 18t-64 5.5q-41 0 -66 -3q-14 -2 -14 -16v-213zM345 847q9 5 15 5q4 -1 7 -3t6 -9l19 -36q4 -8 6 -13t2 -9q-1 -5 -4 -8t-12 -7
l-170 -67q-11 -4 -18 -4t-13 13l-13 26q-6 10 -6 15q1 7 13 12z" />
    <glyph glyph-name="Rcaron" unicode="&#x158;" horiz-adv-x="538" 
d="M69 619q0 24 20 27q15 2 33.5 4t39 3.5t41.5 2t39 0.5q118 0 177.5 -40.5t59.5 -142.5v-19q0 -74 -33 -119t-88 -58l141 -237q8 -14 12 -20t4 -11q0 -9 -14 -9h-64q-13 0 -18 3.5t-10 11.5q-33 58 -72 125t-71 126q-11 -1 -23.5 -1h-23.5h-25t-27 1v-245q0 -13 -5 -17
t-17 -4h-54q-12 0 -17 4t-5 17v598zM167 345q15 -1 33.5 -1.5t38.5 -0.5q40 0 67 5.5t43.5 18.5t24 35t7.5 55v13q0 30 -6.5 50.5t-22 33t-41.5 18t-64 5.5q-41 0 -66 -3q-14 -2 -14 -16v-213zM236 705q-7 0 -11.5 1.5t-9.5 7.5l-98 114q-3 4 -5 6.5t-2 6.5q0 6 8 12l23 16
q11 8 17 8t14 -8l85 -87h4l85 87q8 8 14 8t17 -8l23 -16q8 -6 8 -12q0 -4 -2 -6.5t-5 -6.5l-98 -114q-5 -6 -9.5 -7.5t-11.5 -1.5h-46z" />
    <glyph glyph-name="Rcommaaccent" unicode="&#x156;" horiz-adv-x="538" 
d="M69 619q0 24 20 27q15 2 33.5 4t39 3.5t41.5 2t39 0.5q118 0 177.5 -40.5t59.5 -142.5v-19q0 -74 -33 -119t-88 -58l141 -237q8 -14 12 -20t4 -11q0 -9 -14 -9h-64q-13 0 -18 3.5t-10 11.5q-33 58 -72 125t-71 126q-11 -1 -23.5 -1h-23.5h-25t-27 1v-245q0 -13 -5 -17
t-17 -4h-54q-12 0 -17 4t-5 17v598zM167 345q15 -1 33.5 -1.5t38.5 -0.5q40 0 67 5.5t43.5 18.5t24 35t7.5 55v13q0 30 -6.5 50.5t-22 33t-41.5 18t-64 5.5q-41 0 -66 -3q-14 -2 -14 -16v-213zM293 -66q20 0 30.5 -10t10.5 -34v-18q0 -75 -66 -138q-6 -6 -12 -6q-5 0 -10 4
l-17 15q-6 4 -6 10q0 4 4 8q9 10 20.5 24.5t16.5 27.5q2 4 2 7q0 6 -7 9q-14 8 -20.5 16t-6.5 27v19q0 20 11.5 29.5t28.5 9.5h21z" />
    <glyph glyph-name="Sacute" unicode="&#x15a;" horiz-adv-x="487" 
d="M229 -9q-44 0 -91.5 8t-82.5 21q-15 6 -15 17q0 2 0.5 7t2.5 14l8 31q3 12 13 12q5 0 16 -4q32 -11 71 -19t84 -8q69 0 94 23.5t25 80.5v10q0 25 -4 41.5t-14.5 27.5t-29 18.5t-48.5 14.5l-68 16q-39 9 -67 22.5t-46 33t-26.5 46.5t-8.5 65v16q0 171 205 171
q47 0 87 -6.5t65 -14.5q17 -6 17 -15q0 -5 -2 -12.5t-5 -18.5l-6 -22q-3 -14 -14 -14q-6 0 -13 3q-33 11 -63 16t-63 5q-61 0 -87.5 -22t-26.5 -72v-10q0 -24 5.5 -39t17 -24.5t29.5 -15.5t42 -12l68 -16q39 -9 67 -21t46 -31.5t26.5 -49t8.5 -72.5v-12q0 -52 -12.5 -88
t-39 -58.5t-67.5 -32.5t-98 -10zM335 847q9 5 15 5q4 -1 7 -3t6 -9l19 -36q4 -8 6 -13t2 -9q-1 -5 -4 -8t-12 -7l-170 -67q-11 -4 -18 -4t-13 13l-13 26q-6 10 -6 15q1 7 13 12z" />
    <glyph glyph-name="Scircumflex" unicode="&#x15c;" horiz-adv-x="487" 
d="M229 -9q-44 0 -91.5 8t-82.5 21q-15 6 -15 17q0 2 0.5 7t2.5 14l8 31q3 12 13 12q5 0 16 -4q32 -11 71 -19t84 -8q69 0 94 23.5t25 80.5v10q0 25 -4 41.5t-14.5 27.5t-29 18.5t-48.5 14.5l-68 16q-39 9 -67 22.5t-46 33t-26.5 46.5t-8.5 65v16q0 171 205 171
q47 0 87 -6.5t65 -14.5q17 -6 17 -15q0 -5 -2 -12.5t-5 -18.5l-6 -22q-3 -14 -14 -14q-6 0 -13 3q-33 11 -63 16t-63 5q-61 0 -87.5 -22t-26.5 -72v-10q0 -24 5.5 -39t17 -24.5t29.5 -15.5t42 -12l68 -16q39 -9 67 -21t46 -31.5t26.5 -49t8.5 -72.5v-12q0 -52 -12.5 -88
t-39 -58.5t-67.5 -32.5t-98 -10zM270 873q7 0 11.5 -1.5t9.5 -7.5l98 -114q3 -4 5 -6.5t2 -6.5q0 -6 -8 -12l-23 -16q-11 -8 -17 -8t-14 8l-85 87h-4l-85 -87q-8 -8 -14 -8t-17 8l-23 16q-8 6 -8 12q0 4 2 6.5t5 6.5l98 114q5 6 9.5 7.5t11.5 1.5h46z" />
    <glyph glyph-name="Scaron" unicode="&#x160;" horiz-adv-x="487" 
d="M229 -9q-44 0 -91.5 8t-82.5 21q-15 6 -15 17q0 2 0.5 7t2.5 14l8 31q3 12 13 12q5 0 16 -4q32 -11 71 -19t84 -8q69 0 94 23.5t25 80.5v10q0 25 -4 41.5t-14.5 27.5t-29 18.5t-48.5 14.5l-68 16q-39 9 -67 22.5t-46 33t-26.5 46.5t-8.5 65v16q0 171 205 171
q47 0 87 -6.5t65 -14.5q17 -6 17 -15q0 -5 -2 -12.5t-5 -18.5l-6 -22q-3 -14 -14 -14q-6 0 -13 3q-33 11 -63 16t-63 5q-61 0 -87.5 -22t-26.5 -72v-10q0 -24 5.5 -39t17 -24.5t29.5 -15.5t42 -12l68 -16q39 -9 67 -21t46 -31.5t26.5 -49t8.5 -72.5v-12q0 -52 -12.5 -88
t-39 -58.5t-67.5 -32.5t-98 -10zM219 705q-7 0 -11.5 1.5t-9.5 7.5l-98 114q-3 4 -5 6.5t-2 6.5q0 6 8 12l23 16q11 8 17 8t14 -8l85 -87h4l85 87q8 8 14 8t17 -8l23 -16q8 -6 8 -12q0 -4 -2 -6.5t-5 -6.5l-98 -114q-5 -6 -9.5 -7.5t-11.5 -1.5h-46z" />
    <glyph glyph-name="Scedilla" unicode="&#x15e;" horiz-adv-x="487" 
d="M177 -88q0 4 3 19l11 62q-37 3 -73 9.5t-63 17.5q-15 6 -15 17q0 2 0.5 7t2.5 14l8 31q3 12 13 12q5 0 16 -4q32 -11 71 -19t84 -8q69 0 94 23.5t25 80.5v10q0 25 -4 41.5t-14.5 27.5t-29 18.5t-48.5 14.5l-68 16q-39 9 -67 22.5t-46 33t-26.5 46.5t-8.5 65v16
q0 171 205 171q47 0 87 -6.5t65 -14.5q17 -6 17 -15q0 -5 -2 -12.5t-5 -18.5l-6 -22q-3 -14 -14 -14q-6 0 -13 3q-33 11 -63 16t-63 5q-61 0 -87.5 -22t-26.5 -72v-10q0 -24 5.5 -39t17 -24.5t29.5 -15.5t42 -12l68 -16q39 -9 67 -21t46 -31.5t26.5 -49t8.5 -72.5v-12
q0 -99 -46.5 -141.5t-147.5 -46.5q-2 -8 -2 -12l-7 -42q15 3 32 3q30 0 52.5 -19t22.5 -61q0 -50 -29.5 -73t-87.5 -23q-19 0 -39.5 3t-36.5 8q-10 3 -10 10q0 5 0.5 9t1.5 9l3 19q1 10 8 10q3 0 11 -2q11 -3 27.5 -5.5t27.5 -2.5q26 0 38 7t12 28q0 14 -7 21t-26 7
q-18 0 -34 -3q-4 -1 -6.5 -1.5t-4.5 -0.5q-6 0 -10 7l-8 13q-3 6 -3 11z" />
    <glyph glyph-name="Scommaaccent" unicode="&#x218;" horiz-adv-x="487" 
d="M229 -9q-44 0 -91.5 8t-82.5 21q-15 6 -15 17q0 2 0.5 7t2.5 14l8 31q3 12 13 12q5 0 16 -4q32 -11 71 -19t84 -8q69 0 94 23.5t25 80.5v10q0 25 -4 41.5t-14.5 27.5t-29 18.5t-48.5 14.5l-68 16q-39 9 -67 22.5t-46 33t-26.5 46.5t-8.5 65v16q0 171 205 171
q47 0 87 -6.5t65 -14.5q17 -6 17 -15q0 -5 -2 -12.5t-5 -18.5l-6 -22q-3 -14 -14 -14q-6 0 -13 3q-33 11 -63 16t-63 5q-61 0 -87.5 -22t-26.5 -72v-10q0 -24 5.5 -39t17 -24.5t29.5 -15.5t42 -12l68 -16q39 -9 67 -21t46 -31.5t26.5 -49t8.5 -72.5v-12q0 -52 -12.5 -88
t-39 -58.5t-67.5 -32.5t-98 -10zM257 -66q20 0 30.5 -10t10.5 -34v-18q0 -75 -66 -138q-6 -6 -12 -6q-5 0 -10 4l-17 15q-6 4 -6 10q0 4 4 8q9 10 20.5 24.5t16.5 27.5q2 4 2 7q0 6 -7 9q-14 8 -20.5 16t-6.5 27v19q0 20 11.5 29.5t28.5 9.5h21z" />
    <glyph glyph-name="Tcaron" unicode="&#x164;" horiz-adv-x="480" 
d="M289 567v-547q0 -12 -4.5 -16t-16.5 -4h-56q-12 0 -16.5 4t-4.5 16v547h-155q-13 0 -16.5 4.5t-3.5 15.5v41q0 12 5 15.5t15 3.5h408q10 0 15 -3.5t5 -15.5v-41q0 -11 -3.5 -15.5t-16.5 -4.5h-155zM217 705q-7 0 -11.5 1.5t-9.5 7.5l-98 114q-3 4 -5 6.5t-2 6.5q0 6 8 12
l23 16q11 8 17 8t14 -8l85 -87h4l85 87q8 8 14 8t17 -8l23 -16q8 -6 8 -12q0 -4 -2 -6.5t-5 -6.5l-98 -114q-5 -6 -9.5 -7.5t-11.5 -1.5h-46z" />
    <glyph glyph-name="Tcommaaccent" unicode="&#x162;" horiz-adv-x="480" 
d="M289 567v-547q0 -12 -4.5 -16t-16.5 -4h-56q-12 0 -16.5 4t-4.5 16v547h-155q-13 0 -16.5 4.5t-3.5 15.5v41q0 12 5 15.5t15 3.5h408q10 0 15 -3.5t5 -15.5v-41q0 -11 -3.5 -15.5t-16.5 -4.5h-155zM254 -66q20 0 30.5 -10t10.5 -34v-18q0 -75 -66 -138q-6 -6 -12 -6
q-5 0 -10 4l-17 15q-6 4 -6 10q0 4 4 8q9 10 20.5 24.5t16.5 27.5q2 4 2 7q0 6 -7 9q-14 8 -20.5 16t-6.5 27v19q0 20 11.5 29.5t28.5 9.5h21z" />
    <glyph glyph-name="uni021A" unicode="&#x21a;" horiz-adv-x="480" 
d="M289 567v-547q0 -12 -4.5 -16t-16.5 -4h-56q-12 0 -16.5 4t-4.5 16v547h-155q-13 0 -16.5 4.5t-3.5 15.5v41q0 12 5 15.5t15 3.5h408q10 0 15 -3.5t5 -15.5v-41q0 -11 -3.5 -15.5t-16.5 -4.5h-155zM254 -66q20 0 30.5 -10t10.5 -34v-18q0 -75 -66 -138q-6 -6 -12 -6
q-5 0 -10 4l-17 15q-6 4 -6 10q0 4 4 8q9 10 20.5 24.5t16.5 27.5q2 4 2 7q0 6 -7 9q-14 8 -20.5 16t-6.5 27v19q0 20 11.5 29.5t28.5 9.5h21z" />
    <glyph glyph-name="Tbar" unicode="&#x166;" horiz-adv-x="480" 
d="M289 567v-211h110q12 0 16 -4.5t4 -13.5v-38q0 -10 -4 -14t-16 -4h-110v-262q0 -12 -4.5 -16t-16.5 -4h-56q-12 0 -16.5 4t-4.5 16v262h-112q-12 0 -16 4t-4 14v38q0 9 4 13.5t16 4.5h112v211h-155q-13 0 -16.5 4.5t-3.5 15.5v41q0 12 5 15.5t15 3.5h408q10 0 15 -3.5
t5 -15.5v-41q0 -11 -3.5 -15.5t-16.5 -4.5h-155z" />
    <glyph glyph-name="Ugrave" unicode="&#xd9;" horiz-adv-x="599" 
d="M535 214q0 -117 -57 -169q-29 -26 -72 -40t-107 -14t-106 13.5t-72 40.5q-29 26 -43 69t-14 100v412q0 12 5 16.5t16 4.5h56q11 0 16 -4.5t5 -16.5v-407q0 -37 6 -65.5t23 -45.5q34 -37 108 -37q39 0 65.5 9t43.5 28q16 17 22.5 45.5t6.5 65.5v407q0 12 5 16.5t17 4.5h54
q12 0 17 -4.5t5 -16.5v-412zM390 762q12 -5 13 -12q0 -5 -6 -15l-13 -26q-6 -13 -13 -13t-18 4l-170 67q-9 4 -12 7t-4 8q0 4 2 9t6 13l19 36q3 7 6 9t7 3q6 0 15 -5z" />
    <glyph glyph-name="Uacute" unicode="&#xda;" horiz-adv-x="599" 
d="M535 214q0 -117 -57 -169q-29 -26 -72 -40t-107 -14t-106 13.5t-72 40.5q-29 26 -43 69t-14 100v412q0 12 5 16.5t16 4.5h56q11 0 16 -4.5t5 -16.5v-407q0 -37 6 -65.5t23 -45.5q34 -37 108 -37q39 0 65.5 9t43.5 28q16 17 22.5 45.5t6.5 65.5v407q0 12 5 16.5t17 4.5h54
q12 0 17 -4.5t5 -16.5v-412zM389 847q9 5 15 5q4 -1 7 -3t6 -9l19 -36q4 -8 6 -13t2 -9q-1 -5 -4 -8t-12 -7l-170 -67q-11 -4 -18 -4t-13 13l-13 26q-6 10 -6 15q1 7 13 12z" />
    <glyph glyph-name="Ucircumflex" unicode="&#xdb;" horiz-adv-x="599" 
d="M535 214q0 -117 -57 -169q-29 -26 -72 -40t-107 -14t-106 13.5t-72 40.5q-29 26 -43 69t-14 100v412q0 12 5 16.5t16 4.5h56q11 0 16 -4.5t5 -16.5v-407q0 -37 6 -65.5t23 -45.5q34 -37 108 -37q39 0 65.5 9t43.5 28q16 17 22.5 45.5t6.5 65.5v407q0 12 5 16.5t17 4.5h54
q12 0 17 -4.5t5 -16.5v-412zM324 873q7 0 11.5 -1.5t9.5 -7.5l98 -114q3 -4 5 -6.5t2 -6.5q0 -6 -8 -12l-23 -16q-11 -8 -17 -8t-14 8l-85 87h-4l-85 -87q-8 -8 -14 -8t-17 8l-23 16q-8 6 -8 12q0 4 2 6.5t5 6.5l98 114q5 6 9.5 7.5t11.5 1.5h46z" />
    <glyph glyph-name="Utilde" unicode="&#x168;" horiz-adv-x="599" 
d="M535 214q0 -117 -57 -169q-29 -26 -72 -40t-107 -14t-106 13.5t-72 40.5q-29 26 -43 69t-14 100v412q0 12 5 16.5t16 4.5h56q11 0 16 -4.5t5 -16.5v-407q0 -37 6 -65.5t23 -45.5q34 -37 108 -37q39 0 65.5 9t43.5 28q16 17 22.5 45.5t6.5 65.5v407q0 12 5 16.5t17 4.5h54
q12 0 17 -4.5t5 -16.5v-412zM142 731q-8 5 -8 11q0 4 3 10q40 83 106 83q17 0 29.5 -4t27.5 -15l28 -19q11 -8 19 -11.5t18 -3.5q27 0 50 39q4 7 10 7q4 0 6 -1.5t6 -3.5l20 -13q9 -6 9 -12q0 -4 -3 -10q-21 -38 -47 -58.5t-58 -20.5q-17 0 -30 4.5t-27 13.5l-27 19
q-11 8 -18.5 11.5t-17.5 3.5q-11 0 -22.5 -8.5t-25.5 -31.5q-5 -9 -11 -9q-5 0 -16 7z" />
    <glyph glyph-name="Udieresis" unicode="&#xdc;" horiz-adv-x="599" 
d="M535 214q0 -117 -57 -169q-29 -26 -72 -40t-107 -14t-106 13.5t-72 40.5q-29 26 -43 69t-14 100v412q0 12 5 16.5t16 4.5h56q11 0 16 -4.5t5 -16.5v-407q0 -37 6 -65.5t23 -45.5q34 -37 108 -37q39 0 65.5 9t43.5 28q16 17 22.5 45.5t6.5 65.5v407q0 12 5 16.5t17 4.5h54
q12 0 17 -4.5t5 -16.5v-412zM273 771q0 -48 -49 -48h-10q-23 0 -35.5 12.5t-12.5 35.5v16q0 23 12.5 35.5t35.5 12.5h10q49 0 49 -48v-16zM436 771q0 -48 -49 -48h-10q-23 0 -35.5 12.5t-12.5 35.5v16q0 23 12.5 35.5t35.5 12.5h10q49 0 49 -48v-16z" />
    <glyph glyph-name="Umacron" unicode="&#x16a;" horiz-adv-x="599" 
d="M535 214q0 -117 -57 -169q-29 -26 -72 -40t-107 -14t-106 13.5t-72 40.5q-29 26 -43 69t-14 100v412q0 12 5 16.5t16 4.5h56q11 0 16 -4.5t5 -16.5v-407q0 -37 6 -65.5t23 -45.5q34 -37 108 -37q39 0 65.5 9t43.5 28q16 17 22.5 45.5t6.5 65.5v407q0 12 5 16.5t17 4.5h54
q12 0 17 -4.5t5 -16.5v-412zM189 730q-19 0 -19 18v38q0 17 19 17h222q19 0 19 -17v-38q0 -18 -19 -18h-222z" />
    <glyph glyph-name="Ubreve" unicode="&#x16c;" horiz-adv-x="599" 
d="M535 214q0 -117 -57 -169q-29 -26 -72 -40t-107 -14t-106 13.5t-72 40.5q-29 26 -43 69t-14 100v412q0 12 5 16.5t16 4.5h56q11 0 16 -4.5t5 -16.5v-407q0 -37 6 -65.5t23 -45.5q34 -37 108 -37q39 0 65.5 9t43.5 28q16 17 22.5 45.5t6.5 65.5v407q0 12 5 16.5t17 4.5h54
q12 0 17 -4.5t5 -16.5v-412zM299 700q-57 0 -93 26.5t-53 75.5q-5 15 -5 19q0 9 14 13l22 7q17 5 21 5q8 0 12 -12q14 -37 33.5 -52t48.5 -15t48.5 15t33.5 52q4 12 12 12q4 0 21 -5l22 -7q14 -4 14 -13q0 -4 -5 -19q-17 -49 -53 -75.5t-93 -26.5z" />
    <glyph glyph-name="Uring" unicode="&#x16e;" horiz-adv-x="599" 
d="M535 214q0 -117 -57 -169q-29 -26 -72 -40t-107 -14t-106 13.5t-72 40.5q-29 26 -43 69t-14 100v412q0 12 5 16.5t16 4.5h56q11 0 16 -4.5t5 -16.5v-407q0 -37 6 -65.5t23 -45.5q34 -37 108 -37q39 0 65.5 9t43.5 28q16 17 22.5 45.5t6.5 65.5v407q0 12 5 16.5t17 4.5h54
q12 0 17 -4.5t5 -16.5v-412zM300 876q40 0 67 -26t27 -68t-27 -68t-67 -26t-67 26t-27 68t27 68t67 26zM300 743q17 0 27.5 11t10.5 28t-10.5 28t-27.5 11t-27.5 -11t-10.5 -28t10.5 -28t27.5 -11z" />
    <glyph glyph-name="Uhungarumlaut" unicode="&#x170;" horiz-adv-x="599" 
d="M535 214q0 -117 -57 -169q-29 -26 -72 -40t-107 -14t-106 13.5t-72 40.5q-29 26 -43 69t-14 100v412q0 12 5 16.5t16 4.5h56q11 0 16 -4.5t5 -16.5v-407q0 -37 6 -65.5t23 -45.5q34 -37 108 -37q39 0 65.5 9t43.5 28q16 17 22.5 45.5t6.5 65.5v407q0 12 5 16.5t17 4.5h54
q12 0 17 -4.5t5 -16.5v-412zM297 868q7 6 14 6q8 0 16 -9l29 -38q6 -7 6 -15q-2 -9 -12 -15l-145 -102q-8 -5 -15 -5q-9 0 -19 13l-12 15q-9 12 -9 18q0 5 2 7.5t5 5.5zM507 868q7 6 14 6q8 0 16 -9l29 -38q6 -7 6 -15q-2 -9 -12 -15l-145 -102q-8 -5 -15 -5q-9 0 -19 13
l-12 15q-9 12 -9 18q0 5 2 7.5t5 5.5z" />
    <glyph glyph-name="Uogonek" unicode="&#x172;" horiz-adv-x="599" 
d="M535 214q0 -117 -57 -169q-18 -17 -38 -27t-48 -18q-19 -6 -34.5 -19t-26 -28.5t-16 -31.5t-5.5 -28q0 -33 37 -33q11 0 24 2.5t24 6.5q9 3 10 3q7 0 8 -9l4 -18q3 -12 3 -17q0 -7 -12 -12q-17 -7 -36.5 -11t-37.5 -4q-48 0 -74.5 19.5t-26.5 59.5q0 34 18.5 62.5
t49.5 48.5h-2q-64 0 -106 13.5t-72 40.5q-29 26 -43 69t-14 100v412q0 12 5 16.5t16 4.5h56q11 0 16 -4.5t5 -16.5v-407q0 -37 6 -65.5t23 -45.5q34 -37 108 -37q39 0 65.5 9t43.5 28q16 17 22.5 45.5t6.5 65.5v407q0 12 5 16.5t17 4.5h54q12 0 17 -4.5t5 -16.5v-412z" />
    <glyph glyph-name="Wgrave" unicode="&#x1e80;" horiz-adv-x="800" 
d="M396 496q-21 -114 -47 -233.5t-55 -234.5q-5 -19 -15 -23.5t-31 -4.5h-57q-22 0 -31.5 5t-14.5 23q-32 125 -63 263.5t-58 287.5q-3 17 -6 32t-3 23q0 13 19 13h52q14 0 20 -3t9 -18q23 -140 48.5 -273t54.5 -255h8q13 55 27 116t27.5 124t26 125.5t24.5 121.5
q4 18 12.5 23t28.5 5h56q20 0 28.5 -5t12.5 -23q12 -59 24.5 -121.5t26 -125.5t27 -124t27.5 -116h8q29 122 54.5 255t48.5 273q3 15 9 18t20 3h52q19 0 19 -13q0 -8 -3 -23t-6 -32q-27 -149 -58 -287.5t-63 -263.5q-5 -18 -14.5 -23t-31.5 -5h-57q-21 0 -31 4.5t-15 23.5
q-29 115 -55 234.5t-47 233.5h-8zM486 762q12 -5 13 -12q0 -5 -6 -15l-13 -26q-6 -13 -13 -13t-18 4l-170 67q-9 4 -12 7t-4 8q0 4 2 9t6 13l19 36q3 7 6 9t7 3q6 0 15 -5z" />
    <glyph glyph-name="Wacute" unicode="&#x1e82;" horiz-adv-x="800" 
d="M396 496q-21 -114 -47 -233.5t-55 -234.5q-5 -19 -15 -23.5t-31 -4.5h-57q-22 0 -31.5 5t-14.5 23q-32 125 -63 263.5t-58 287.5q-3 17 -6 32t-3 23q0 13 19 13h52q14 0 20 -3t9 -18q23 -140 48.5 -273t54.5 -255h8q13 55 27 116t27.5 124t26 125.5t24.5 121.5
q4 18 12.5 23t28.5 5h56q20 0 28.5 -5t12.5 -23q12 -59 24.5 -121.5t26 -125.5t27 -124t27.5 -116h8q29 122 54.5 255t48.5 273q3 15 9 18t20 3h52q19 0 19 -13q0 -8 -3 -23t-6 -32q-27 -149 -58 -287.5t-63 -263.5q-5 -18 -14.5 -23t-31.5 -5h-57q-21 0 -31 4.5t-15 23.5
q-29 115 -55 234.5t-47 233.5h-8zM482 847q9 5 15 5q4 -1 7 -3t6 -9l19 -36q4 -8 6 -13t2 -9q-1 -5 -4 -8t-12 -7l-170 -67q-11 -4 -18 -4t-13 13l-13 26q-6 10 -6 15q1 7 13 12z" />
    <glyph glyph-name="Wcircumflex" unicode="&#x174;" horiz-adv-x="800" 
d="M396 496q-21 -114 -47 -233.5t-55 -234.5q-5 -19 -15 -23.5t-31 -4.5h-57q-22 0 -31.5 5t-14.5 23q-32 125 -63 263.5t-58 287.5q-3 17 -6 32t-3 23q0 13 19 13h52q14 0 20 -3t9 -18q23 -140 48.5 -273t54.5 -255h8q13 55 27 116t27.5 124t26 125.5t24.5 121.5
q4 18 12.5 23t28.5 5h56q20 0 28.5 -5t12.5 -23q12 -59 24.5 -121.5t26 -125.5t27 -124t27.5 -116h8q29 122 54.5 255t48.5 273q3 15 9 18t20 3h52q19 0 19 -13q0 -8 -3 -23t-6 -32q-27 -149 -58 -287.5t-63 -263.5q-5 -18 -14.5 -23t-31.5 -5h-57q-21 0 -31 4.5t-15 23.5
q-29 115 -55 234.5t-47 233.5h-8zM423 873q7 0 11.5 -1.5t9.5 -7.5l98 -114q3 -4 5 -6.5t2 -6.5q0 -6 -8 -12l-23 -16q-11 -8 -17 -8t-14 8l-85 87h-4l-85 -87q-8 -8 -14 -8t-17 8l-23 16q-8 6 -8 12q0 4 2 6.5t5 6.5l98 114q5 6 9.5 7.5t11.5 1.5h46z" />
    <glyph glyph-name="Wdieresis" unicode="&#x1e84;" horiz-adv-x="800" 
d="M396 496q-21 -114 -47 -233.5t-55 -234.5q-5 -19 -15 -23.5t-31 -4.5h-57q-22 0 -31.5 5t-14.5 23q-32 125 -63 263.5t-58 287.5q-3 17 -6 32t-3 23q0 13 19 13h52q14 0 20 -3t9 -18q23 -140 48.5 -273t54.5 -255h8q13 55 27 116t27.5 124t26 125.5t24.5 121.5
q4 18 12.5 23t28.5 5h56q20 0 28.5 -5t12.5 -23q12 -59 24.5 -121.5t26 -125.5t27 -124t27.5 -116h8q29 122 54.5 255t48.5 273q3 15 9 18t20 3h52q19 0 19 -13q0 -8 -3 -23t-6 -32q-27 -149 -58 -287.5t-63 -263.5q-5 -18 -14.5 -23t-31.5 -5h-57q-21 0 -31 4.5t-15 23.5
q-29 115 -55 234.5t-47 233.5h-8zM373 771q0 -48 -49 -48h-10q-23 0 -35.5 12.5t-12.5 35.5v16q0 23 12.5 35.5t35.5 12.5h10q49 0 49 -48v-16zM536 771q0 -48 -49 -48h-10q-23 0 -35.5 12.5t-12.5 35.5v16q0 23 12.5 35.5t35.5 12.5h10q49 0 49 -48v-16z" />
    <glyph glyph-name="Ygrave" unicode="&#x1ef2;" horiz-adv-x="478" 
d="M242 295q37 75 70 163t56 172q2 8 8 12.5t18 4.5h48q11 0 16 -2t5 -10q0 -6 -2 -13t-5 -17q-34 -109 -75 -205.5t-93 -189.5v-190q0 -13 -5 -16.5t-17 -3.5h-54q-12 0 -17 3.5t-5 16.5v190q-53 93 -93.5 189.5t-74.5 205.5q-3 10 -5 17t-2 13q0 8 5 10t16 2h48
q12 0 18 -4.5t8 -12.5q22 -84 55.5 -172t70.5 -163h6zM327 762q12 -5 13 -12q0 -5 -6 -15l-13 -26q-6 -13 -13 -13t-18 4l-170 67q-9 4 -12 7t-4 8q0 4 2 9t6 13l19 36q3 7 6 9t7 3q6 0 15 -5z" />
    <glyph glyph-name="Yacute" unicode="&#xdd;" horiz-adv-x="478" 
d="M242 295q37 75 70 163t56 172q2 8 8 12.5t18 4.5h48q11 0 16 -2t5 -10q0 -6 -2 -13t-5 -17q-34 -109 -75 -205.5t-93 -189.5v-190q0 -13 -5 -16.5t-17 -3.5h-54q-12 0 -17 3.5t-5 16.5v190q-53 93 -93.5 189.5t-74.5 205.5q-3 10 -5 17t-2 13q0 8 5 10t16 2h48
q12 0 18 -4.5t8 -12.5q22 -84 55.5 -172t70.5 -163h6zM330 847q9 5 15 5q4 -1 7 -3t6 -9l19 -36q4 -8 6 -13t2 -9q-1 -5 -4 -8t-12 -7l-170 -67q-11 -4 -18 -4t-13 13l-13 26q-6 10 -6 15q1 7 13 12z" />
    <glyph glyph-name="Ycircumflex" unicode="&#x176;" horiz-adv-x="478" 
d="M242 295q37 75 70 163t56 172q2 8 8 12.5t18 4.5h48q11 0 16 -2t5 -10q0 -6 -2 -13t-5 -17q-34 -109 -75 -205.5t-93 -189.5v-190q0 -13 -5 -16.5t-17 -3.5h-54q-12 0 -17 3.5t-5 16.5v190q-53 93 -93.5 189.5t-74.5 205.5q-3 10 -5 17t-2 13q0 8 5 10t16 2h48
q12 0 18 -4.5t8 -12.5q22 -84 55.5 -172t70.5 -163h6zM262 873q7 0 11.5 -1.5t9.5 -7.5l98 -114q3 -4 5 -6.5t2 -6.5q0 -6 -8 -12l-23 -16q-11 -8 -17 -8t-14 8l-85 87h-4l-85 -87q-8 -8 -14 -8t-17 8l-23 16q-8 6 -8 12q0 4 2 6.5t5 6.5l98 114q5 6 9.5 7.5t11.5 1.5h46z
" />
    <glyph glyph-name="Ydieresis" unicode="&#x178;" horiz-adv-x="478" 
d="M242 295q37 75 70 163t56 172q2 8 8 12.5t18 4.5h48q11 0 16 -2t5 -10q0 -6 -2 -13t-5 -17q-34 -109 -75 -205.5t-93 -189.5v-190q0 -13 -5 -16.5t-17 -3.5h-54q-12 0 -17 3.5t-5 16.5v190q-53 93 -93.5 189.5t-74.5 205.5q-3 10 -5 17t-2 13q0 8 5 10t16 2h48
q12 0 18 -4.5t8 -12.5q22 -84 55.5 -172t70.5 -163h6zM211 771q0 -48 -49 -48h-10q-23 0 -35.5 12.5t-12.5 35.5v16q0 23 12.5 35.5t35.5 12.5h10q49 0 49 -48v-16zM374 771q0 -48 -49 -48h-10q-23 0 -35.5 12.5t-12.5 35.5v16q0 23 12.5 35.5t35.5 12.5h10q49 0 49 -48v-16
z" />
    <glyph glyph-name="Zacute" unicode="&#x179;" horiz-adv-x="497" 
d="M33 45q0 11 4.5 19.5t13.5 23.5l297 479h-278q-20 0 -20 19v42q0 11 4 15t16 4h365q12 0 17.5 -4.5t5.5 -16.5v-26q0 -14 -4 -24.5t-18 -32.5l-291 -463h285q12 0 16 -4t4 -14v-44q0 -10 -4 -14t-16 -4h-370q-14 0 -20.5 5t-6.5 19v21zM352 847q9 5 15 5q4 -1 7 -3t6 -9
l19 -36q4 -8 6 -13t2 -9q-1 -5 -4 -8t-12 -7l-170 -67q-11 -4 -18 -4t-13 13l-13 26q-6 10 -6 15q1 7 13 12z" />
    <glyph glyph-name="Zcaron" unicode="&#x17d;" horiz-adv-x="497" 
d="M33 45q0 11 4.5 19.5t13.5 23.5l297 479h-278q-20 0 -20 19v42q0 11 4 15t16 4h365q12 0 17.5 -4.5t5.5 -16.5v-26q0 -14 -4 -24.5t-18 -32.5l-291 -463h285q12 0 16 -4t4 -14v-44q0 -10 -4 -14t-16 -4h-370q-14 0 -20.5 5t-6.5 19v21zM241 705q-7 0 -11.5 1.5t-9.5 7.5
l-98 114q-3 4 -5 6.5t-2 6.5q0 6 8 12l23 16q11 8 17 8t14 -8l85 -87h4l85 87q8 8 14 8t17 -8l23 -16q8 -6 8 -12q0 -4 -2 -6.5t-5 -6.5l-98 -114q-5 -6 -9.5 -7.5t-11.5 -1.5h-46z" />
    <glyph glyph-name="Zdotaccent" unicode="&#x17b;" horiz-adv-x="497" 
d="M33 45q0 11 4.5 19.5t13.5 23.5l297 479h-278q-20 0 -20 19v42q0 11 4 15t16 4h365q12 0 17.5 -4.5t5.5 -16.5v-26q0 -14 -4 -24.5t-18 -32.5l-291 -463h285q12 0 16 -4t4 -14v-44q0 -10 -4 -14t-16 -4h-370q-14 0 -20.5 5t-6.5 19v21zM257 717q-26 0 -44.5 19t-18.5 45
t18.5 45t44.5 19t44.5 -19t18.5 -45t-18.5 -45t-44.5 -19z" />
    <glyph glyph-name="agrave" unicode="&#xe0;" horiz-adv-x="476" 
d="M339 43h-2q-25 -52 -120 -52h-31q-78 0 -113 38t-35 106v16q0 82 48 118q22 17 56.5 24.5t97.5 7.5h24q15 0 31 -0.5t30 -2.5v42q0 49 -24 65.5t-75 16.5q-24 0 -52 -3.5t-57 -11.5q-16 -4 -21 -4q-10 0 -13 14l-4 19q-4 20 -4 26q0 11 14 15q28 9 67.5 15.5t77.5 6.5
q95 0 139 -37.5t44 -132.5v-315q0 -14 -16 -14h-39q-16 0 -19 14zM325 223q-12 2 -26 2.5t-28 0.5h-44q-53 0 -74.5 -15.5t-21.5 -60.5v-14q0 -38 16 -54t54 -16h33q46 0 68.5 20t22.5 65v72zM344 618q12 -7 12 -13q0 -5 -6 -15l-15 -25q-7 -12 -14 -12q-5 0 -17 5l-166 77
q-9 5 -12 8t-3 8q0 6 9 21l21 35q4 7 7 9t7 2q6 0 15 -5z" />
    <glyph glyph-name="aacute" unicode="&#xe1;" horiz-adv-x="476" 
d="M339 43h-2q-25 -52 -120 -52h-31q-78 0 -113 38t-35 106v16q0 82 48 118q22 17 56.5 24.5t97.5 7.5h24q15 0 31 -0.5t30 -2.5v42q0 49 -24 65.5t-75 16.5q-24 0 -52 -3.5t-57 -11.5q-16 -4 -21 -4q-10 0 -13 14l-4 19q-4 20 -4 26q0 11 14 15q28 9 67.5 15.5t77.5 6.5
q95 0 139 -37.5t44 -132.5v-315q0 -14 -16 -14h-39q-16 0 -19 14zM325 223q-12 2 -26 2.5t-28 0.5h-44q-53 0 -74.5 -15.5t-21.5 -60.5v-14q0 -38 16 -54t54 -16h33q46 0 68.5 20t22.5 65v72zM325 713q9 5 15 5q4 0 7 -2t7 -9l21 -35q9 -15 9 -21q0 -5 -3 -8t-12 -8
l-166 -77q-12 -5 -17 -5q-7 0 -14 12l-15 25q-6 10 -6 15q0 6 12 13z" />
    <glyph glyph-name="acircumflex" unicode="&#xe2;" horiz-adv-x="476" 
d="M339 43h-2q-25 -52 -120 -52h-31q-78 0 -113 38t-35 106v16q0 82 48 118q22 17 56.5 24.5t97.5 7.5h24q15 0 31 -0.5t30 -2.5v42q0 49 -24 65.5t-75 16.5q-24 0 -52 -3.5t-57 -11.5q-16 -4 -21 -4q-10 0 -13 14l-4 19q-4 20 -4 26q0 11 14 15q28 9 67.5 15.5t77.5 6.5
q95 0 139 -37.5t44 -132.5v-315q0 -14 -16 -14h-39q-16 0 -19 14zM325 223q-12 2 -26 2.5t-28 0.5h-44q-53 0 -74.5 -15.5t-21.5 -60.5v-14q0 -38 16 -54t54 -16h33q46 0 68.5 20t22.5 65v72zM269 723q7 0 11.5 -1.5t9.5 -7.5l98 -114q3 -4 5 -6.5t2 -6.5q0 -6 -8 -12
l-23 -16q-11 -8 -17 -8t-14 8l-85 87h-4l-85 -87q-8 -8 -14 -8t-17 8l-23 16q-8 6 -8 12q0 4 2 6.5t5 6.5l98 114q5 6 9.5 7.5t11.5 1.5h46z" />
    <glyph glyph-name="atilde" unicode="&#xe3;" horiz-adv-x="476" 
d="M339 43h-2q-25 -52 -120 -52h-31q-78 0 -113 38t-35 106v16q0 82 48 118q22 17 56.5 24.5t97.5 7.5h24q15 0 31 -0.5t30 -2.5v42q0 49 -24 65.5t-75 16.5q-24 0 -52 -3.5t-57 -11.5q-16 -4 -21 -4q-10 0 -13 14l-4 19q-4 20 -4 26q0 11 14 15q28 9 67.5 15.5t77.5 6.5
q95 0 139 -37.5t44 -132.5v-315q0 -14 -16 -14h-39q-16 0 -19 14zM325 223q-12 2 -26 2.5t-28 0.5h-44q-53 0 -74.5 -15.5t-21.5 -60.5v-14q0 -38 16 -54t54 -16h33q46 0 68.5 20t22.5 65v72zM92 589q-8 5 -8 11q0 4 3 10q40 83 106 83q17 0 29.5 -4t27.5 -15l28 -19
q11 -8 19 -11.5t18 -3.5q27 0 50 39q4 7 10 7q4 0 6 -1.5t6 -3.5l20 -13q9 -6 9 -12q0 -4 -3 -10q-21 -38 -47 -58.5t-58 -20.5q-17 0 -30 4.5t-27 13.5l-27 19q-11 8 -18.5 11.5t-17.5 3.5q-11 0 -22.5 -8.5t-25.5 -31.5q-5 -9 -11 -9q-5 0 -16 7z" />
    <glyph glyph-name="adieresis" unicode="&#xe4;" horiz-adv-x="476" 
d="M339 43h-2q-25 -52 -120 -52h-31q-78 0 -113 38t-35 106v16q0 82 48 118q22 17 56.5 24.5t97.5 7.5h24q15 0 31 -0.5t30 -2.5v42q0 49 -24 65.5t-75 16.5q-24 0 -52 -3.5t-57 -11.5q-16 -4 -21 -4q-10 0 -13 14l-4 19q-4 20 -4 26q0 11 14 15q28 9 67.5 15.5t77.5 6.5
q95 0 139 -37.5t44 -132.5v-315q0 -14 -16 -14h-39q-16 0 -19 14zM325 223q-12 2 -26 2.5t-28 0.5h-44q-53 0 -74.5 -15.5t-21.5 -60.5v-14q0 -38 16 -54t54 -16h33q46 0 68.5 20t22.5 65v72zM219 628q0 -48 -49 -48h-10q-23 0 -35.5 12.5t-12.5 35.5v16q0 23 12.5 35.5
t35.5 12.5h10q49 0 49 -48v-16zM382 628q0 -48 -49 -48h-10q-23 0 -35.5 12.5t-12.5 35.5v16q0 23 12.5 35.5t35.5 12.5h10q49 0 49 -48v-16z" />
    <glyph glyph-name="amacron" unicode="&#x101;" horiz-adv-x="476" 
d="M339 43h-2q-25 -52 -120 -52h-31q-78 0 -113 38t-35 106v16q0 82 48 118q22 17 56.5 24.5t97.5 7.5h24q15 0 31 -0.5t30 -2.5v42q0 49 -24 65.5t-75 16.5q-24 0 -52 -3.5t-57 -11.5q-16 -4 -21 -4q-10 0 -13 14l-4 19q-4 20 -4 26q0 11 14 15q28 9 67.5 15.5t77.5 6.5
q95 0 139 -37.5t44 -132.5v-315q0 -14 -16 -14h-39q-16 0 -19 14zM325 223q-12 2 -26 2.5t-28 0.5h-44q-53 0 -74.5 -15.5t-21.5 -60.5v-14q0 -38 16 -54t54 -16h33q46 0 68.5 20t22.5 65v72zM131 592q-19 0 -19 18v38q0 17 19 17h222q19 0 19 -17v-38q0 -18 -19 -18h-222z
" />
    <glyph glyph-name="abreve" unicode="&#x103;" horiz-adv-x="476" 
d="M339 43h-2q-25 -52 -120 -52h-31q-78 0 -113 38t-35 106v16q0 82 48 118q22 17 56.5 24.5t97.5 7.5h24q15 0 31 -0.5t30 -2.5v42q0 49 -24 65.5t-75 16.5q-24 0 -52 -3.5t-57 -11.5q-16 -4 -21 -4q-10 0 -13 14l-4 19q-4 20 -4 26q0 11 14 15q28 9 67.5 15.5t77.5 6.5
q95 0 139 -37.5t44 -132.5v-315q0 -14 -16 -14h-39q-16 0 -19 14zM325 223q-12 2 -26 2.5t-28 0.5h-44q-53 0 -74.5 -15.5t-21.5 -60.5v-14q0 -38 16 -54t54 -16h33q46 0 68.5 20t22.5 65v72zM243 558q-57 0 -93 26.5t-53 75.5q-5 15 -5 19q0 9 14 13l22 7q17 5 21 5
q8 0 12 -12q14 -37 33.5 -52t48.5 -15t48.5 15t33.5 52q4 12 12 12q4 0 21 -5l22 -7q14 -4 14 -13q0 -4 -5 -19q-17 -49 -53 -75.5t-93 -26.5z" />
    <glyph glyph-name="acaron" unicode="&#x1ce;" horiz-adv-x="476" 
d="M339 43h-2q-25 -52 -120 -52h-31q-78 0 -113 38t-35 106v16q0 82 48 118q22 17 56.5 24.5t97.5 7.5h24q15 0 31 -0.5t30 -2.5v42q0 49 -24 65.5t-75 16.5q-24 0 -52 -3.5t-57 -11.5q-16 -4 -21 -4q-10 0 -13 14l-4 19q-4 20 -4 26q0 11 14 15q28 9 67.5 15.5t77.5 6.5
q95 0 139 -37.5t44 -132.5v-315q0 -14 -16 -14h-39q-16 0 -19 14zM325 223q-12 2 -26 2.5t-28 0.5h-44q-53 0 -74.5 -15.5t-21.5 -60.5v-14q0 -38 16 -54t54 -16h33q46 0 68.5 20t22.5 65v72zM222 553q-7 0 -11.5 1.5t-9.5 7.5l-98 114q-3 4 -5 6.5t-2 6.5q0 6 8 12l23 16
q11 8 17 8t14 -8l85 -87h4l85 87q8 8 14 8t17 -8l23 -16q8 -6 8 -12q0 -4 -2 -6.5t-5 -6.5l-98 -114q-5 -6 -9.5 -7.5t-11.5 -1.5h-46z" />
    <glyph glyph-name="aring" unicode="&#xe5;" horiz-adv-x="476" 
d="M339 43h-2q-25 -52 -120 -52h-31q-78 0 -113 38t-35 106v16q0 82 48 118q22 17 56.5 24.5t97.5 7.5h24q15 0 31 -0.5t30 -2.5v42q0 49 -24 65.5t-75 16.5q-24 0 -52 -3.5t-57 -11.5q-16 -4 -21 -4q-10 0 -13 14l-4 19q-4 20 -4 26q0 11 14 15q28 9 67.5 15.5t77.5 6.5
q95 0 139 -37.5t44 -132.5v-315q0 -14 -16 -14h-39q-16 0 -19 14zM325 223q-12 2 -26 2.5t-28 0.5h-44q-53 0 -74.5 -15.5t-21.5 -60.5v-14q0 -38 16 -54t54 -16h33q46 0 68.5 20t22.5 65v72zM245 728q40 0 67 -26t27 -68t-27 -68t-67 -26t-67 26t-27 68t27 68t67 26z
M245 595q17 0 27.5 11t10.5 28t-10.5 28t-27.5 11t-27.5 -11t-10.5 -28t10.5 -28t27.5 -11z" />
    <glyph glyph-name="aringacute" unicode="&#x1fb;" horiz-adv-x="476" 
d="M339 43h-2q-25 -52 -120 -52h-31q-78 0 -113 38t-35 106v16q0 82 48 118q22 17 56.5 24.5t97.5 7.5h24q15 0 31 -0.5t30 -2.5v42q0 49 -24 65.5t-75 16.5q-24 0 -52 -3.5t-57 -11.5q-16 -4 -21 -4q-10 0 -13 14l-4 19q-4 20 -4 26q0 11 14 15q28 9 67.5 15.5t77.5 6.5
q95 0 139 -37.5t44 -132.5v-315q0 -14 -16 -14h-39q-16 0 -19 14zM325 223q-12 2 -26 2.5t-28 0.5h-44q-53 0 -74.5 -15.5t-21.5 -60.5v-14q0 -38 16 -54t54 -16h33q46 0 68.5 20t22.5 65v72zM239 722q40 0 67 -26t27 -68t-27 -68t-67 -26t-67 26t-27 68t27 68t67 26z
M239 589q17 0 27.5 11t10.5 28t-10.5 28t-27.5 11t-27.5 -11t-10.5 -28t10.5 -28t27.5 -11zM315 893q9 5 15 5q4 -1 7 -3t6 -9l19 -36q4 -8 6 -13t2 -9q-1 -5 -4 -8t-12 -7l-170 -67q-11 -4 -18 -4t-13 13l-13 26q-6 10 -6 15q1 7 13 12z" />
    <glyph glyph-name="aogonek" unicode="&#x105;" horiz-adv-x="476" 
d="M325 223q-12 2 -26 2.5t-28 0.5h-44q-53 0 -74.5 -15.5t-21.5 -60.5v-14q0 -38 16 -54t54 -16h33q45 0 68 20t23 65v72zM79 436q-4 20 -4 26q0 11 14 15q28 9 67.5 15.5t77.5 6.5q95 0 139 -37.5t44 -132.5v-315q0 -9 -7 -13q-42 -22 -59.5 -51.5t-17.5 -56.5
q0 -33 37 -33q11 0 24 2.5t24 6.5q9 3 10 3q7 0 8 -9l4 -18q3 -12 3 -17q0 -7 -12 -12q-17 -7 -36.5 -11t-37.5 -4q-48 0 -74.5 19.5t-26.5 59.5q0 37 23 70.5t65 58.5l-5 34h-2q-25 -52 -120 -52h-31q-78 0 -113 38t-35 106v16q0 82 48 118q22 17 56.5 24.5t97.5 7.5h24
q15 0 31 -0.5t30 -2.5v42q0 49 -24 65.5t-75 16.5q-24 0 -52 -3.5t-57 -11.5q-16 -4 -21 -4q-10 0 -13 14z" />
    <glyph glyph-name="ae" unicode="&#xe6;" horiz-adv-x="748" 
d="M705 227q0 -29 -28 -29h-258q1 -36 6.5 -60.5t19 -40.5t36.5 -23t60 -7q26 0 55.5 5.5t50.5 13.5q5 2 9 3t7 1q8 0 12 -11l7 -24q5 -17 5 -21q0 -9 -12 -15q-26 -12 -65 -20t-80 -8q-63 0 -102.5 16.5t-55.5 52.5q-9 -17 -21 -30t-30 -21.5t-43.5 -13t-60.5 -4.5h-31
q-78 0 -113 38t-35 106v16q0 82 48 118q22 17 56.5 24.5t97.5 7.5h24q15 0 31 -0.5t30 -2.5v42q0 49 -24 65.5t-75 16.5q-24 0 -49 -3t-46 -8q-9 -2 -19 -5t-15 -3q-11 0 -14 14l-4 19q-4 20 -4 26q0 11 14 15q28 9 67.5 15.5t77.5 6.5q52 0 89 -12.5t57 -44.5q22 29 58 43
t84 14q89 0 136 -45.5t47 -153.5v-73zM325 215v8q-12 2 -26 2.5t-28 0.5h-44q-53 0 -74.5 -15.5t-21.5 -60.5v-14q0 -38 16 -54t54 -16h33q45 0 68 20t23 65v64zM599 273q13 0 13 14q0 36 -3.5 62t-13.5 42.5t-28 24t-47 7.5q-56 0 -79 -33.5t-23 -116.5h181z" />
    <glyph glyph-name="aeacute" unicode="&#x1fd;" horiz-adv-x="748" 
d="M705 227q0 -29 -28 -29h-258q1 -36 6.5 -60.5t19 -40.5t36.5 -23t60 -7q26 0 55.5 5.5t50.5 13.5q5 2 9 3t7 1q8 0 12 -11l7 -24q5 -17 5 -21q0 -9 -12 -15q-26 -12 -65 -20t-80 -8q-63 0 -102.5 16.5t-55.5 52.5q-9 -17 -21 -30t-30 -21.5t-43.5 -13t-60.5 -4.5h-31
q-78 0 -113 38t-35 106v16q0 82 48 118q22 17 56.5 24.5t97.5 7.5h24q15 0 31 -0.5t30 -2.5v42q0 49 -24 65.5t-75 16.5q-24 0 -49 -3t-46 -8q-9 -2 -19 -5t-15 -3q-11 0 -14 14l-4 19q-4 20 -4 26q0 11 14 15q28 9 67.5 15.5t77.5 6.5q52 0 89 -12.5t57 -44.5q22 29 58 43
t84 14q89 0 136 -45.5t47 -153.5v-73zM325 215v8q-12 2 -26 2.5t-28 0.5h-44q-53 0 -74.5 -15.5t-21.5 -60.5v-14q0 -38 16 -54t54 -16h33q45 0 68 20t23 65v64zM599 273q13 0 13 14q0 36 -3.5 62t-13.5 42.5t-28 24t-47 7.5q-56 0 -79 -33.5t-23 -116.5h181zM493 713
q9 5 15 5q4 0 7 -2t7 -9l21 -35q9 -15 9 -21q0 -5 -3 -8t-12 -8l-166 -77q-12 -5 -17 -5q-7 0 -14 12l-15 25q-6 10 -6 15q0 6 12 13z" />
    <glyph glyph-name="cacute" unicode="&#x107;" horiz-adv-x="428" 
d="M385 56q3 -10 4 -15.5t1 -7.5q0 -11 -15 -17q-27 -12 -63.5 -18.5t-71.5 -6.5q-45 0 -82.5 10.5t-60.5 32.5q-33 32 -44 81t-11 115v32q0 39 3 68.5t9.5 51t16.5 37.5t24 30q26 25 64.5 37.5t85.5 12.5q43 0 83 -12.5t66 -29.5q9 -6 9 -13q0 -5 -10 -24l-14 -26
q-6 -10 -12 -10q-5 0 -12 4q-28 17 -53.5 25t-53.5 8q-25 0 -45.5 -5.5t-34.5 -18.5q-12 -12 -18.5 -26t-9.5 -31.5t-3.5 -38.5t-0.5 -47v-16q0 -55 4.5 -86.5t20.5 -51.5q27 -33 91 -33q26 0 53.5 5.5t45.5 12.5q10 4 15 4q9 0 13 -12zM323 713q9 5 15 5q4 0 7 -2t7 -9
l21 -35q9 -15 9 -21q0 -5 -3 -8t-12 -8l-166 -77q-12 -5 -17 -5q-7 0 -14 12l-15 25q-6 10 -6 15q0 6 12 13z" />
    <glyph glyph-name="ccedilla" unicode="&#xe7;" horiz-adv-x="428" 
d="M385 56q3 -10 4 -15.5t1 -7.5q0 -11 -15 -17q-24 -11 -55.5 -17t-63.5 -8q-2 -6 -2 -11l-7 -42q15 3 32 3q30 0 52.5 -19t22.5 -61q0 -50 -29.5 -73t-87.5 -23q-19 0 -39.5 3t-36.5 8q-10 3 -10 10q0 5 0.5 9t1.5 9l3 19q1 10 8 10q3 0 11 -2q11 -3 27.5 -5.5t27.5 -2.5
q26 0 38 7t12 28q0 14 -7 21t-26 7q-18 0 -34 -3q-4 -1 -6.5 -1.5t-4.5 -0.5q-6 0 -10 7l-8 13q-3 6 -3 11q0 4 3 19l11 62v1q-31 4 -56 13.5t-42 26.5q-33 32 -44 81t-11 115v32q0 39 3 68.5t9.5 51t16.5 37.5t24 30q26 26 64.5 38t85.5 12q42 0 82.5 -13t66.5 -30
q9 -6 9 -13q0 -5 -10 -24l-14 -26q-6 -10 -12 -10q-5 0 -12 4q-55 34 -107 34q-25 0 -45.5 -5.5t-34.5 -18.5q-12 -12 -18.5 -26t-9.5 -31.5t-3.5 -38.5t-0.5 -47v-16q0 -55 4.5 -86.5t20.5 -51.5q27 -33 91 -33q26 0 53.5 5.5t45.5 12.5q10 4 15 4q9 0 13 -12z" />
    <glyph glyph-name="ccircumflex" unicode="&#x109;" horiz-adv-x="428" 
d="M385 56q3 -10 4 -15.5t1 -7.5q0 -11 -15 -17q-27 -12 -63.5 -18.5t-71.5 -6.5q-45 0 -82.5 10.5t-60.5 32.5q-33 32 -44 81t-11 115v32q0 39 3 68.5t9.5 51t16.5 37.5t24 30q26 25 64.5 37.5t85.5 12.5q43 0 83 -12.5t66 -29.5q9 -6 9 -13q0 -5 -10 -24l-14 -26
q-6 -10 -12 -10q-5 0 -12 4q-28 17 -53.5 25t-53.5 8q-25 0 -45.5 -5.5t-34.5 -18.5q-12 -12 -18.5 -26t-9.5 -31.5t-3.5 -38.5t-0.5 -47v-16q0 -55 4.5 -86.5t20.5 -51.5q27 -33 91 -33q26 0 53.5 5.5t45.5 12.5q10 4 15 4q9 0 13 -12zM260 723q7 0 11.5 -1.5t9.5 -7.5
l98 -114q3 -4 5 -6.5t2 -6.5q0 -6 -8 -12l-23 -16q-11 -8 -17 -8t-14 8l-85 87h-4l-85 -87q-8 -8 -14 -8t-17 8l-23 16q-8 6 -8 12q0 4 2 6.5t5 6.5l98 114q5 6 9.5 7.5t11.5 1.5h46z" />
    <glyph glyph-name="ccaron" unicode="&#x10d;" horiz-adv-x="428" 
d="M385 56q3 -10 4 -15.5t1 -7.5q0 -11 -15 -17q-27 -12 -63.5 -18.5t-71.5 -6.5q-45 0 -82.5 10.5t-60.5 32.5q-33 32 -44 81t-11 115v32q0 39 3 68.5t9.5 51t16.5 37.5t24 30q26 25 64.5 37.5t85.5 12.5q43 0 83 -12.5t66 -29.5q9 -6 9 -13q0 -5 -10 -24l-14 -26
q-6 -10 -12 -10q-5 0 -12 4q-28 17 -53.5 25t-53.5 8q-25 0 -45.5 -5.5t-34.5 -18.5q-12 -12 -18.5 -26t-9.5 -31.5t-3.5 -38.5t-0.5 -47v-16q0 -55 4.5 -86.5t20.5 -51.5q27 -33 91 -33q26 0 53.5 5.5t45.5 12.5q10 4 15 4q9 0 13 -12zM213 553q-7 0 -11.5 1.5t-9.5 7.5
l-98 114q-3 4 -5 6.5t-2 6.5q0 6 8 12l23 16q11 8 17 8t14 -8l85 -87h4l85 87q8 8 14 8t17 -8l23 -16q8 -6 8 -12q0 -4 -2 -6.5t-5 -6.5l-98 -114q-5 -6 -9.5 -7.5t-11.5 -1.5h-46z" />
    <glyph glyph-name="cdotaccent" unicode="&#x10b;" horiz-adv-x="428" 
d="M385 56q3 -10 4 -15.5t1 -7.5q0 -11 -15 -17q-27 -12 -63.5 -18.5t-71.5 -6.5q-45 0 -82.5 10.5t-60.5 32.5q-33 32 -44 81t-11 115v32q0 39 3 68.5t9.5 51t16.5 37.5t24 30q26 25 64.5 37.5t85.5 12.5q43 0 83 -12.5t66 -29.5q9 -6 9 -13q0 -5 -10 -24l-14 -26
q-6 -10 -12 -10q-5 0 -12 4q-28 17 -53.5 25t-53.5 8q-25 0 -45.5 -5.5t-34.5 -18.5q-12 -12 -18.5 -26t-9.5 -31.5t-3.5 -38.5t-0.5 -47v-16q0 -55 4.5 -86.5t20.5 -51.5q27 -33 91 -33q26 0 53.5 5.5t45.5 12.5q10 4 15 4q9 0 13 -12zM233 565q-26 0 -44.5 19t-18.5 45
t18.5 45t44.5 19t44.5 -19t18.5 -45t-18.5 -45t-44.5 -19z" />
    <glyph glyph-name="dcaron" unicode="&#x10f;" horiz-adv-x="596" 
d="M356 299q0 67 -26 95.5t-83 28.5q-32 0 -53 -8.5t-34 -28t-18.5 -50.5t-5.5 -75v-27q0 -47 5.5 -79t18.5 -51.5t34.5 -28t53.5 -8.5q59 0 83.5 24t24.5 87v121zM448 174q0 -95 -50.5 -139t-149.5 -44q-57 0 -96.5 13.5t-63.5 42.5t-35 74.5t-11 109.5v34q0 63 12.5 107.5
t37 72.5t62.5 41t89 13q36 0 64.5 -10t46.5 -27h2v197q0 11 4.5 14.5t15.5 3.5h52q11 0 15.5 -3.5t4.5 -14.5v-485zM565 710q20 0 30.5 -10t10.5 -34v-18q0 -75 -66 -138q-6 -6 -12 -6q-5 0 -10 4l-17 15q-6 4 -6 10q0 4 4 8q9 10 20.5 24.5t16.5 27.5q2 4 2 7q0 6 -7 9
q-14 8 -20.5 16t-6.5 27v19q0 20 11.5 29.5t28.5 9.5h21z" />
    <glyph glyph-name="dcroat" unicode="&#x111;" horiz-adv-x="510" 
d="M448 612h48q12 0 14 -5.5t2 -13.5v-27q0 -10 -2 -14.5t-14 -4.5h-48v-373q0 -95 -50.5 -139t-149.5 -44q-57 0 -96.5 13.5t-63.5 42.5t-35 74.5t-11 109.5v34q0 63 12.5 107.5t37 72.5t62.5 41t89 13q36 0 64.5 -10t46.5 -27h2v85h-91q-12 0 -14 4.5t-2 14.5v27
q0 8 2 13.5t14 5.5h91v47q0 11 4.5 14.5t15.5 3.5h52q11 0 15.5 -3.5t4.5 -14.5v-47zM356 299q0 67 -26 95.5t-83 28.5q-32 0 -53 -8.5t-34 -28t-18.5 -50.5t-5.5 -75v-27q0 -47 5.5 -79t18.5 -51.5t34.5 -28t53.5 -8.5q59 0 83.5 24t24.5 87v121z" />
    <glyph glyph-name="eth" unicode="&#xf0;" horiz-adv-x="520" 
d="M169 705q21 -9 42 -19.5t40 -21.5l53 49q6 6 10 6q5 0 10 -6l22 -24q5 -5 5 -9t-7 -11l-42 -38q75 -59 115.5 -146.5t40.5 -220.5v-51q0 -53 -11 -94t-36 -69.5t-65 -43.5t-98 -15q-109 0 -157.5 51.5t-48.5 161.5v47q0 101 45 156.5t146 55.5q68 0 109 -31l2 2
q-13 46 -38 80.5t-61 63.5l-61 -57q-6 -6 -10 -6t-11 7l-19 21q-7 7 -7 11t6 10l51 47q-15 9 -29.5 16t-31.5 15q-9 4 -9 10q0 4 3 10l21 37q4 8 11 8q4 0 10 -2zM364 246q0 140 -112 140q-65 0 -90.5 -35t-25.5 -104v-35q0 -72 23.5 -108.5t91.5 -36.5q64 0 88.5 36.5
t24.5 100.5v42z" />
    <glyph glyph-name="egrave" unicode="&#xe8;" horiz-adv-x="465" 
d="M422 227q0 -29 -28 -29h-258q1 -36 6.5 -60.5t19 -40.5t36.5 -23t60 -7q26 0 55.5 5.5t50.5 13.5q5 2 9 3t7 1q8 0 12 -11l7 -24q5 -17 5 -21q0 -9 -12 -15q-26 -12 -65 -20t-80 -8q-59 0 -98 13.5t-63 42t-34 73.5t-10 108v34q0 59 10 103.5t33 74t60.5 44.5t92.5 15
q90 0 137 -46.5t47 -153.5v-72zM320 273q13 0 13 14q0 36 -4.5 61.5t-15.5 42t-29.5 24.5t-47.5 8q-31 0 -50.5 -9t-31 -27.5t-15.5 -47t-4 -66.5h185zM337 618q12 -7 12 -13q0 -5 -6 -15l-15 -25q-7 -12 -14 -12q-5 0 -17 5l-166 77q-9 5 -12 8t-3 8q0 6 9 21l21 35
q4 7 7 9t7 2q6 0 15 -5z" />
    <glyph glyph-name="eacute" unicode="&#xe9;" horiz-adv-x="465" 
d="M422 227q0 -29 -28 -29h-258q1 -36 6.5 -60.5t19 -40.5t36.5 -23t60 -7q26 0 55.5 5.5t50.5 13.5q5 2 9 3t7 1q8 0 12 -11l7 -24q5 -17 5 -21q0 -9 -12 -15q-26 -12 -65 -20t-80 -8q-59 0 -98 13.5t-63 42t-34 73.5t-10 108v34q0 59 10 103.5t33 74t60.5 44.5t92.5 15
q90 0 137 -46.5t47 -153.5v-72zM320 273q13 0 13 14q0 36 -4.5 61.5t-15.5 42t-29.5 24.5t-47.5 8q-31 0 -50.5 -9t-31 -27.5t-15.5 -47t-4 -66.5h185zM325 713q9 5 15 5q4 0 7 -2t7 -9l21 -35q9 -15 9 -21q0 -5 -3 -8t-12 -8l-166 -77q-12 -5 -17 -5q-7 0 -14 12l-15 25
q-6 10 -6 15q0 6 12 13z" />
    <glyph glyph-name="ecircumflex" unicode="&#xea;" horiz-adv-x="465" 
d="M422 227q0 -29 -28 -29h-258q1 -36 6.5 -60.5t19 -40.5t36.5 -23t60 -7q26 0 55.5 5.5t50.5 13.5q5 2 9 3t7 1q8 0 12 -11l7 -24q5 -17 5 -21q0 -9 -12 -15q-26 -12 -65 -20t-80 -8q-59 0 -98 13.5t-63 42t-34 73.5t-10 108v34q0 59 10 103.5t33 74t60.5 44.5t92.5 15
q90 0 137 -46.5t47 -153.5v-72zM320 273q13 0 13 14q0 36 -4.5 61.5t-15.5 42t-29.5 24.5t-47.5 8q-31 0 -50.5 -9t-31 -27.5t-15.5 -47t-4 -66.5h185zM258 723q7 0 11.5 -1.5t9.5 -7.5l98 -114q3 -4 5 -6.5t2 -6.5q0 -6 -8 -12l-23 -16q-11 -8 -17 -8t-14 8l-85 87h-4
l-85 -87q-8 -8 -14 -8t-17 8l-23 16q-8 6 -8 12q0 4 2 6.5t5 6.5l98 114q5 6 9.5 7.5t11.5 1.5h46z" />
    <glyph glyph-name="ecaron" unicode="&#x11b;" horiz-adv-x="465" 
d="M422 227q0 -29 -28 -29h-258q1 -36 6.5 -60.5t19 -40.5t36.5 -23t60 -7q26 0 55.5 5.5t50.5 13.5q5 2 9 3t7 1q8 0 12 -11l7 -24q5 -17 5 -21q0 -9 -12 -15q-26 -12 -65 -20t-80 -8q-59 0 -98 13.5t-63 42t-34 73.5t-10 108v34q0 59 10 103.5t33 74t60.5 44.5t92.5 15
q90 0 137 -46.5t47 -153.5v-72zM320 273q13 0 13 14q0 36 -4.5 61.5t-15.5 42t-29.5 24.5t-47.5 8q-31 0 -50.5 -9t-31 -27.5t-15.5 -47t-4 -66.5h185zM216 553q-7 0 -11.5 1.5t-9.5 7.5l-98 114q-3 4 -5 6.5t-2 6.5q0 6 8 12l23 16q11 8 17 8t14 -8l85 -87h4l85 87
q8 8 14 8t17 -8l23 -16q8 -6 8 -12q0 -4 -2 -6.5t-5 -6.5l-98 -114q-5 -6 -9.5 -7.5t-11.5 -1.5h-46z" />
    <glyph glyph-name="edieresis" unicode="&#xeb;" horiz-adv-x="465" 
d="M422 227q0 -29 -28 -29h-258q1 -36 6.5 -60.5t19 -40.5t36.5 -23t60 -7q26 0 55.5 5.5t50.5 13.5q5 2 9 3t7 1q8 0 12 -11l7 -24q5 -17 5 -21q0 -9 -12 -15q-26 -12 -65 -20t-80 -8q-59 0 -98 13.5t-63 42t-34 73.5t-10 108v34q0 59 10 103.5t33 74t60.5 44.5t92.5 15
q90 0 137 -46.5t47 -153.5v-72zM320 273q13 0 13 14q0 36 -4.5 61.5t-15.5 42t-29.5 24.5t-47.5 8q-31 0 -50.5 -9t-31 -27.5t-15.5 -47t-4 -66.5h185zM206 628q0 -48 -49 -48h-10q-23 0 -35.5 12.5t-12.5 35.5v16q0 23 12.5 35.5t35.5 12.5h10q49 0 49 -48v-16zM369 628
q0 -48 -49 -48h-10q-23 0 -35.5 12.5t-12.5 35.5v16q0 23 12.5 35.5t35.5 12.5h10q49 0 49 -48v-16z" />
    <glyph glyph-name="emacron" unicode="&#x113;" horiz-adv-x="465" 
d="M422 227q0 -29 -28 -29h-258q1 -36 6.5 -60.5t19 -40.5t36.5 -23t60 -7q26 0 55.5 5.5t50.5 13.5q5 2 9 3t7 1q8 0 12 -11l7 -24q5 -17 5 -21q0 -9 -12 -15q-26 -12 -65 -20t-80 -8q-59 0 -98 13.5t-63 42t-34 73.5t-10 108v34q0 59 10 103.5t33 74t60.5 44.5t92.5 15
q90 0 137 -46.5t47 -153.5v-72zM320 273q13 0 13 14q0 36 -4.5 61.5t-15.5 42t-29.5 24.5t-47.5 8q-31 0 -50.5 -9t-31 -27.5t-15.5 -47t-4 -66.5h185zM128 592q-19 0 -19 18v38q0 17 19 17h222q19 0 19 -17v-38q0 -18 -19 -18h-222z" />
    <glyph glyph-name="ebreve" unicode="&#x115;" horiz-adv-x="465" 
d="M422 227q0 -29 -28 -29h-258q1 -36 6.5 -60.5t19 -40.5t36.5 -23t60 -7q26 0 55.5 5.5t50.5 13.5q5 2 9 3t7 1q8 0 12 -11l7 -24q5 -17 5 -21q0 -9 -12 -15q-26 -12 -65 -20t-80 -8q-59 0 -98 13.5t-63 42t-34 73.5t-10 108v34q0 59 10 103.5t33 74t60.5 44.5t92.5 15
q90 0 137 -46.5t47 -153.5v-72zM320 273q13 0 13 14q0 36 -4.5 61.5t-15.5 42t-29.5 24.5t-47.5 8q-31 0 -50.5 -9t-31 -27.5t-15.5 -47t-4 -66.5h185zM238 558q-57 0 -93 26.5t-53 75.5q-5 15 -5 19q0 9 14 13l22 7q17 5 21 5q8 0 12 -12q14 -37 33.5 -52t48.5 -15t48.5 15
t33.5 52q4 12 12 12q4 0 21 -5l22 -7q14 -4 14 -13q0 -4 -5 -19q-17 -49 -53 -75.5t-93 -26.5z" />
    <glyph glyph-name="edotaccent" unicode="&#x117;" horiz-adv-x="465" 
d="M422 227q0 -29 -28 -29h-258q1 -36 6.5 -60.5t19 -40.5t36.5 -23t60 -7q26 0 55.5 5.5t50.5 13.5q5 2 9 3t7 1q8 0 12 -11l7 -24q5 -17 5 -21q0 -9 -12 -15q-26 -12 -65 -20t-80 -8q-59 0 -98 13.5t-63 42t-34 73.5t-10 108v34q0 59 10 103.5t33 74t60.5 44.5t92.5 15
q90 0 137 -46.5t47 -153.5v-72zM320 273q13 0 13 14q0 36 -4.5 61.5t-15.5 42t-29.5 24.5t-47.5 8q-31 0 -50.5 -9t-31 -27.5t-15.5 -47t-4 -66.5h185zM239 565q-26 0 -44.5 19t-18.5 45t18.5 45t44.5 19t44.5 -19t18.5 -45t-18.5 -45t-44.5 -19z" />
    <glyph glyph-name="eogonek" unicode="&#x119;" horiz-adv-x="465" 
d="M422 227q0 -29 -28 -29h-258q1 -36 6.5 -60.5t19 -40.5t36.5 -23t60 -7q26 0 55.5 5.5t50.5 13.5q5 2 9 3t7 1q8 0 12 -11l7 -24q4 -13 4 -19q0 -8 -12 -15q-51 -30 -73.5 -59t-22.5 -65q0 -37 37 -37q11 0 24 2.5t24 6.5q9 3 10 3q7 0 8 -9l4 -18q3 -12 3 -17
q0 -7 -12 -12q-17 -7 -36.5 -11t-37.5 -4q-48 0 -74.5 19.5t-26.5 59.5q0 35 20.5 64.5t51.5 49.5q-21 -3 -43 -3q-59 0 -98 13.5t-63 42t-34 73.5t-10 108v34q0 59 10 103.5t33.5 74t61 44.5t92.5 15q89 0 136 -45.5t47 -153.5v-73zM320 273q13 0 13 14q0 36 -4.5 61.5
t-15.5 42t-29.5 24.5t-47.5 8q-31 0 -50.5 -9t-31 -27.5t-15.5 -47t-4 -66.5h185z" />
    <glyph glyph-name="gcircumflex" unicode="&#x11d;" horiz-adv-x="489" 
d="M334 488q54 -17 78.5 -61t24.5 -132v-18q0 -73 -17.5 -110t-46.5 -52q42 -23 62.5 -59t20.5 -79v-11q0 -153 -200 -153q-53 0 -106 10t-91 26q-15 7 -15 16q0 3 1.5 8t3.5 13l10 29q3 9 10 9q3 0 6 -1t8 -3q35 -14 79.5 -23t86.5 -9q54 0 84 19.5t30 68.5v8q0 33 -15 58
t-47 39q-13 -2 -28 -3.5t-34 -1.5q-107 0 -152.5 49t-45.5 152v18q0 56 12 95t37 63t62 35t87 11h11t11 -1q14 40 44.5 61t82.5 21h29q17 0 17 -18v-38q0 -9 -2.5 -12.5t-13.5 -3.5h-35q-21 0 -31.5 -4t-17.5 -16zM135 277q0 -65 21 -97t83 -32q63 0 83.5 32t20.5 98v21
q0 67 -22.5 97t-81.5 30q-31 0 -51 -7.5t-32 -23t-16.5 -39.5t-4.5 -57v-22zM270 798q7 0 11.5 -1.5t9.5 -7.5l98 -114q3 -4 5 -6.5t2 -6.5q0 -6 -8 -12l-23 -16q-11 -8 -17 -8t-14 8l-85 87h-4l-85 -87q-8 -8 -14 -8t-17 8l-23 16q-8 6 -8 12q0 4 2 6.5t5 6.5l98 114
q5 6 9.5 7.5t11.5 1.5h46z" />
    <glyph glyph-name="gbreve" unicode="&#x11f;" horiz-adv-x="489" 
d="M334 488q54 -17 78.5 -61t24.5 -132v-18q0 -73 -17.5 -110t-46.5 -52q42 -23 62.5 -59t20.5 -79v-11q0 -153 -200 -153q-53 0 -106 10t-91 26q-15 7 -15 16q0 3 1.5 8t3.5 13l10 29q3 9 10 9q3 0 6 -1t8 -3q35 -14 79.5 -23t86.5 -9q54 0 84 19.5t30 68.5v8q0 33 -15 58
t-47 39q-13 -2 -28 -3.5t-34 -1.5q-107 0 -152.5 49t-45.5 152v18q0 56 12 95t37 63t62 35t87 11h11t11 -1q14 40 44.5 61t82.5 21h29q17 0 17 -18v-38q0 -9 -2.5 -12.5t-13.5 -3.5h-35q-21 0 -31.5 -4t-17.5 -16zM135 277q0 -65 21 -97t83 -32q63 0 83.5 32t20.5 98v21
q0 67 -22.5 97t-81.5 30q-31 0 -51 -7.5t-32 -23t-16.5 -39.5t-4.5 -57v-22zM237 617q-57 0 -93 26.5t-53 75.5q-5 15 -5 19q0 9 14 13l22 7q17 5 21 5q8 0 12 -12q14 -37 33.5 -52t48.5 -15t48.5 15t33.5 52q4 12 12 12q4 0 21 -5l22 -7q14 -4 14 -13q0 -4 -5 -19
q-17 -49 -53 -75.5t-93 -26.5z" />
    <glyph glyph-name="gdotaccent" unicode="&#x121;" horiz-adv-x="489" 
d="M334 488q54 -17 78.5 -61t24.5 -132v-18q0 -73 -17.5 -110t-46.5 -52q42 -23 62.5 -59t20.5 -79v-11q0 -153 -200 -153q-53 0 -106 10t-91 26q-15 7 -15 16q0 3 1.5 8t3.5 13l10 29q3 9 10 9q3 0 6 -1t8 -3q35 -14 79.5 -23t86.5 -9q54 0 84 19.5t30 68.5v8q0 33 -15 58
t-47 39q-13 -2 -28 -3.5t-34 -1.5q-107 0 -152.5 49t-45.5 152v18q0 56 12 95t37 63t62 35t87 11h11t11 -1q14 40 44.5 61t82.5 21h29q17 0 17 -18v-38q0 -9 -2.5 -12.5t-13.5 -3.5h-35q-21 0 -31.5 -4t-17.5 -16zM135 277q0 -65 21 -97t83 -32q63 0 83.5 32t20.5 98v21
q0 67 -22.5 97t-81.5 30q-31 0 -51 -7.5t-32 -23t-16.5 -39.5t-4.5 -57v-22zM238 618q-26 0 -44.5 19t-18.5 45t18.5 45t44.5 19t44.5 -19t18.5 -45t-18.5 -45t-44.5 -19z" />
    <glyph glyph-name="gcommaaccent" unicode="&#x123;" horiz-adv-x="489" 
d="M334 488q54 -17 78.5 -61t24.5 -132v-18q0 -73 -17.5 -110t-46.5 -52q42 -23 62.5 -59t20.5 -79v-11q0 -153 -200 -153q-53 0 -106 10t-91 26q-15 7 -15 16q0 3 1.5 8t3.5 13l10 29q3 9 10 9q3 0 6 -1t8 -3q35 -14 79.5 -23t86.5 -9q54 0 84 19.5t30 68.5v8q0 33 -15 58
t-47 39q-13 -2 -28 -3.5t-34 -1.5q-107 0 -152.5 49t-45.5 152v18q0 56 12 95t37 63t62 35t87 11h11t11 -1q14 40 44.5 61t82.5 21h29q17 0 17 -18v-38q0 -9 -2.5 -12.5t-13.5 -3.5h-35q-21 0 -31.5 -4t-17.5 -16zM135 277q0 -65 21 -97t83 -32q63 0 83.5 32t20.5 98v21
q0 67 -22.5 97t-81.5 30q-31 0 -51 -7.5t-32 -23t-16.5 -39.5t-4.5 -57v-22zM225.986 608.963q-19.999 0 -30.498 9.99902q-10.5 10 -10.5 33.998v17.999q0 74.9951 65.9961 137.991q6 6 12 6q4.99902 0 9.99902 -4l16.999 -14.999q6 -4 6 -9.99902q0 -4 -4 -8
q-9 -9.99902 -20.499 -24.498t-16.499 -27.498q-2 -4 -2 -7q0 -6 7 -8.99902q13.999 -8 20.498 -15.999q6.5 -8 6.5 -26.999v-18.998q0 -19.999 -11.499 -29.499q-11.499 -9.49902 -28.498 -9.49902h-20.999z" />
    <glyph glyph-name="hcircumflex" unicode="&#x125;" horiz-adv-x="515" 
d="M456 18q0 -11 -4.5 -14.5t-15.5 -3.5h-52q-11 0 -15.5 3.5t-4.5 14.5v287q0 67 -24.5 92.5t-81.5 25.5q-49 0 -75.5 -26.5t-26.5 -85.5v-293q0 -11 -4.5 -14.5t-15.5 -3.5h-52q-11 0 -15.5 3.5t-4.5 14.5v641q0 11 4.5 14.5t15.5 3.5h52q11 0 15.5 -3.5t4.5 -14.5v-202
q20 19 52.5 30.5t79.5 11.5q39 0 70 -10t53 -32.5t33.5 -59.5t11.5 -92v-287zM131 876q7 0 11.5 -1.5t9.5 -7.5l98 -114q3 -4 5 -6.5t2 -6.5q0 -6 -8 -12l-23 -16q-11 -8 -17 -8t-14 8l-85 87h-4l-85 -87q-8 -8 -14 -8t-17 8l-23 16q-8 6 -8 12q0 4 2 6.5t5 6.5l98 114
q5 6 9.5 7.5t11.5 1.5h46z" />
    <glyph glyph-name="hbar" unicode="&#x127;" horiz-adv-x="515" 
d="M456 18q0 -11 -4.5 -14.5t-15.5 -3.5h-52q-11 0 -15.5 3.5t-4.5 14.5v287q0 67 -24.5 92.5t-81.5 25.5q-49 0 -75.5 -26.5t-26.5 -85.5v-293q0 -11 -4.5 -14.5t-15.5 -3.5h-52q-11 0 -15.5 3.5t-4.5 14.5v529h-42q-11 0 -14 4t-3 14v29q0 8 3 13t14 5h42v47
q0 11 4.5 14.5t15.5 3.5h52q11 0 15.5 -3.5t4.5 -14.5v-47h111q11 0 14 -5t3 -13v-29q0 -10 -3 -14t-14 -4h-111v-90q20 19 52.5 30.5t80.5 11.5q39 0 70 -9t52.5 -31.5t33 -60t11.5 -93.5v-287z" />
    <glyph glyph-name="dotlessi" unicode="&#x131;" horiz-adv-x="234" 
d="M163 18q0 -11 -4.5 -14.5t-15.5 -3.5h-52q-11 0 -15.5 3.5t-4.5 14.5v454q0 11 4.5 14.5t15.5 3.5h52q11 0 15.5 -3.5t4.5 -14.5v-454z" />
    <glyph glyph-name="igrave" unicode="&#xec;" horiz-adv-x="234" 
d="M183 617q12 -7 12 -13q0 -5 -6 -15l-15 -25q-7 -12 -14 -12q-5 0 -17 5l-166 77q-9 5 -12 8t-3 8q0 6 9 21l21 35q4 7 7 9t7 2q6 0 15 -5zM163 18q0 -11 -4.5 -14.5t-15.5 -3.5h-52q-11 0 -15.5 3.5t-4.5 14.5v454q0 11 4.5 14.5t15.5 3.5h52q11 0 15.5 -3.5t4.5 -14.5
v-454z" />
    <glyph glyph-name="iacute" unicode="&#xed;" horiz-adv-x="234" 
d="M219 713q9 5 15 5q4 0 7 -2t7 -9l21 -35q9 -15 9 -21q0 -5 -3 -8t-12 -8l-166 -77q-12 -5 -17 -5q-7 0 -14 12l-15 25q-6 10 -6 15q0 6 12 13zM163 18q0 -11 -4.5 -14.5t-15.5 -3.5h-52q-11 0 -15.5 3.5t-4.5 14.5v454q0 11 4.5 14.5t15.5 3.5h52q11 0 15.5 -3.5
t4.5 -14.5v-454z" />
    <glyph glyph-name="icircumflex" unicode="&#xee;" horiz-adv-x="234" 
d="M163 18q0 -11 -4.5 -14.5t-15.5 -3.5h-52q-11 0 -15.5 3.5t-4.5 14.5v454q0 11 4.5 14.5t15.5 3.5h52q11 0 15.5 -3.5t4.5 -14.5v-454zM139 723q7 0 11.5 -1.5t9.5 -7.5l98 -114q3 -4 5 -6.5t2 -6.5q0 -6 -8 -12l-23 -16q-11 -8 -17 -8t-14 8l-85 87h-4l-85 -87
q-8 -8 -14 -8t-17 8l-23 16q-8 6 -8 12q0 4 2 6.5t5 6.5l98 114q5 6 9.5 7.5t11.5 1.5h46z" />
    <glyph glyph-name="itilde" unicode="&#x129;" horiz-adv-x="234" 
d="M-41 589q-8 5 -8 11q0 4 3 10q40 83 106 83q17 0 29.5 -4t27.5 -15l28 -19q11 -8 19 -11.5t18 -3.5q27 0 50 39q4 7 10 7q4 0 6 -1.5t6 -3.5l20 -13q9 -6 9 -12q0 -4 -3 -10q-21 -38 -47 -58.5t-58 -20.5q-17 0 -30 4.5t-27 13.5l-27 19q-11 8 -18.5 11.5t-17.5 3.5
q-11 0 -22.5 -8.5t-25.5 -31.5q-5 -9 -11 -9q-5 0 -16 7zM163 18q0 -11 -4.5 -14.5t-15.5 -3.5h-52q-11 0 -15.5 3.5t-4.5 14.5v454q0 11 4.5 14.5t15.5 3.5h52q11 0 15.5 -3.5t4.5 -14.5v-454z" />
    <glyph glyph-name="idieresis" unicode="&#xef;" horiz-adv-x="234" 
d="M88 628q0 -48 -49 -48h-10q-23 0 -35.5 12.5t-12.5 35.5v16q0 23 12.5 35.5t35.5 12.5h10q49 0 49 -48v-16zM251 628q0 -48 -49 -48h-10q-23 0 -35.5 12.5t-12.5 35.5v16q0 23 12.5 35.5t35.5 12.5h10q49 0 49 -48v-16zM163 18q0 -11 -4.5 -14.5t-15.5 -3.5h-52
q-11 0 -15.5 3.5t-4.5 14.5v454q0 11 4.5 14.5t15.5 3.5h52q11 0 15.5 -3.5t4.5 -14.5v-454z" />
    <glyph glyph-name="imacron" unicode="&#x12b;" horiz-adv-x="234" 
d="M5 592q-19 0 -19 18v38q0 17 19 17h222q19 0 19 -17v-38q0 -18 -19 -18h-222zM163 18q0 -11 -4.5 -14.5t-15.5 -3.5h-52q-11 0 -15.5 3.5t-4.5 14.5v454q0 11 4.5 14.5t15.5 3.5h52q11 0 15.5 -3.5t4.5 -14.5v-454z" />
    <glyph glyph-name="ibreve" unicode="&#x12d;" horiz-adv-x="234" 
d="M117 558q-57 0 -93 26.5t-53 75.5q-5 15 -5 19q0 9 14 13l22 7q17 5 21 5q8 0 12 -12q14 -37 33.5 -52t48.5 -15t48.5 15t33.5 52q4 12 12 12q4 0 21 -5l22 -7q14 -4 14 -13q0 -4 -5 -19q-17 -49 -53 -75.5t-93 -26.5zM163 18q0 -11 -4.5 -14.5t-15.5 -3.5h-52
q-11 0 -15.5 3.5t-4.5 14.5v454q0 11 4.5 14.5t15.5 3.5h52q11 0 15.5 -3.5t4.5 -14.5v-454z" />
    <glyph glyph-name="iogonek" unicode="&#x12f;" horiz-adv-x="234" 
d="M163 18q0 -8 -2 -11.5t-8 -6.5q-46 -24 -65.5 -53.5t-19.5 -52.5q0 -34 38 -34q12 0 25 3t22 7q8 4 11.5 2.5t5.5 -7.5l8 -31q2 -8 -0.5 -11t-10.5 -7q-16 -7 -34 -11t-41 -4q-48 0 -74 19.5t-26 59.5q0 37 21 69t58 56v467q0 11 4.5 14.5t15.5 3.5h52q11 0 15.5 -3.5
t4.5 -14.5v-454zM57 619q0 31 17 44.5t41 13.5h5q25 0 41 -13.5t16 -44.5v-7q0 -31 -16 -44.5t-41 -13.5h-5q-24 0 -41 13.5t-17 44.5v7z" />
    <glyph glyph-name="ij" unicode="&#x133;" horiz-adv-x="473" 
d="M163 18q0 -11 -4.5 -14.5t-15.5 -3.5h-52q-11 0 -15.5 3.5t-4.5 14.5v454q0 11 4.5 14.5t15.5 3.5h52q11 0 15.5 -3.5t4.5 -14.5v-454zM57 619q0 31 17 44.5t41 13.5h5q25 0 41 -13.5t16 -44.5v-7q0 -31 -16 -44.5t-41 -13.5h-5q-24 0 -41 13.5t-17 44.5v7zM401 16
q0 -39 -6 -76t-25 -63q-20 -28 -54.5 -41.5t-89.5 -13.5h-31q-17 0 -17 16v48q0 16 15 16h23q59 0 76 27q12 19 14.5 42t2.5 55v446q0 11 4.5 14.5t15.5 3.5h52q11 0 15.5 -3.5t4.5 -14.5v-456zM295 619q0 31 17 44.5t41 13.5h5q25 0 41 -13.5t16 -44.5v-7q0 -31 -16 -44.5
t-41 -13.5h-5q-24 0 -41 13.5t-17 44.5v7z" />
    <glyph glyph-name="jcircumflex" unicode="&#x135;" horiz-adv-x="237" 
d="M165 16q0 -39 -6 -76t-25 -63q-20 -28 -54.5 -41.5t-89.5 -13.5h-31q-17 0 -17 16v48q0 16 15 16h23q59 0 76 27q12 19 14.5 42t2.5 55v446q0 11 4.5 14.5t15.5 3.5h52q11 0 15.5 -3.5t4.5 -14.5v-456zM141 723q7 0 11.5 -1.5t9.5 -7.5l98 -114q3 -4 5 -6.5t2 -6.5
q0 -6 -8 -12l-23 -16q-11 -8 -17 -8t-14 8l-85 87h-4l-85 -87q-8 -8 -14 -8t-17 8l-23 16q-8 6 -8 12q0 4 2 6.5t5 6.5l98 114q5 6 9.5 7.5t11.5 1.5h46z" />
    <glyph glyph-name="kcommaaccent" unicode="&#x137;" horiz-adv-x="443" 
d="M156 18q0 -11 -4.5 -14.5t-15.5 -3.5h-52q-11 0 -15.5 3.5t-4.5 14.5v641q0 11 4.5 14.5t15.5 3.5h52q11 0 15.5 -3.5t4.5 -14.5v-359h38q7 0 10.5 2t8.5 9l109 165q5 8 11 11t17 3h58q25 0 12 -20l-139 -201q-4 -6 -4 -10q0 -6 4 -11l132 -209q16 -25 16 -30
q0 -9 -14 -9h-59q-19 0 -29 15l-119 195q-6 9 -17 9h-35v-201zM244 -66q20 0 30.5 -10t10.5 -34v-18q0 -75 -66 -138q-6 -6 -12 -6q-5 0 -10 4l-17 15q-6 4 -6 10q0 4 4 8q9 10 20.5 24.5t16.5 27.5q2 4 2 7q0 6 -7 9q-14 8 -20.5 16t-6.5 27v19q0 20 11.5 29.5t28.5 9.5h21
z" />
    <glyph glyph-name="kgreenlandic" unicode="&#x138;" horiz-adv-x="443" 
d="M156 18q0 -11 -4.5 -14.5t-15.5 -3.5h-52q-11 0 -15.5 3.5t-4.5 14.5v454q0 11 4.5 14.5t15.5 3.5h52q11 0 15.5 -3.5t4.5 -14.5v-172h38q7 0 10.5 2t8.5 9l109 165q5 8 11 11t17 3h58q25 0 12 -20l-139 -201q-4 -6 -4 -10q0 -6 4 -11l132 -209q16 -25 16 -30
q0 -9 -14 -9h-59q-19 0 -29 15l-119 195q-6 9 -17 9h-35v-201z" />
    <glyph glyph-name="lacute" unicode="&#x13a;" horiz-adv-x="268" 
d="M157 132q0 -29 7.5 -41.5t33.5 -12.5h25q9 0 13 -3t4 -14v-43q0 -18 -16 -18h-43q-63 0 -89.5 26.5t-26.5 91.5v541q0 11 4.5 14.5t15.5 3.5h52q11 0 15.5 -3.5t4.5 -14.5v-527zM211 872q9 5 15 5q4 0 7 -2t7 -9l21 -35q9 -15 9 -21q0 -5 -3 -8t-12 -8l-166 -77
q-12 -5 -17 -5q-7 0 -14 12l-15 25q-6 10 -6 15q0 6 12 13z" />
    <glyph glyph-name="lcaron" unicode="&#x13e;" horiz-adv-x="298" 
d="M157 132q0 -29 7.5 -41.5t33.5 -12.5h25q9 0 13 -3t4 -14v-43q0 -18 -16 -18h-43q-63 0 -89.5 26.5t-26.5 91.5v541q0 11 4.5 14.5t15.5 3.5h52q11 0 15.5 -3.5t4.5 -14.5v-527zM267 708q20 0 30.5 -10t10.5 -34v-18q0 -75 -66 -138q-6 -6 -12 -6q-5 0 -10 4l-17 15
q-6 4 -6 10q0 4 4 8q9 10 20.5 24.5t16.5 27.5q2 4 2 7q0 6 -7 9q-14 8 -20.5 16t-6.5 27v19q0 20 11.5 29.5t28.5 9.5h21z" />
    <glyph glyph-name="lcommaaccent" unicode="&#x13c;" horiz-adv-x="268" 
d="M157 132q0 -29 7.5 -41.5t33.5 -12.5h25q9 0 13 -3t4 -14v-43q0 -18 -16 -18h-43q-63 0 -89.5 26.5t-26.5 91.5v541q0 11 4.5 14.5t15.5 3.5h52q11 0 15.5 -3.5t4.5 -14.5v-527zM167 -66q20 0 30.5 -10t10.5 -34v-18q0 -75 -66 -138q-6 -6 -12 -6q-5 0 -10 4l-17 15
q-6 4 -6 10q0 4 4 8q9 10 20.5 24.5t16.5 27.5q2 4 2 7q0 6 -7 9q-14 8 -20.5 16t-6.5 27v19q0 20 11.5 29.5t28.5 9.5h21z" />
    <glyph glyph-name="lslash" unicode="&#x142;" horiz-adv-x="298" 
d="M172 430l83 54q8 5 11 6t5 1q5 0 6.5 -3.5t1.5 -14.5v-50q0 -9 -2.5 -15t-12.5 -13l-92 -61v-202q0 -29 7.5 -41.5t33.5 -12.5h25q9 0 13 -3t4 -14v-43q0 -18 -16 -18h-43q-63 0 -89.5 26.5t-26.5 91.5v156l-57 -37q-8 -5 -11 -6t-5 -1q-5 0 -6.5 3.5t-1.5 14.5v51
q0 9 2.5 15t12.5 13l66 43v289q0 11 4.5 14.5t15.5 3.5h52q11 0 15.5 -3.5t4.5 -14.5v-229z" />
    <glyph glyph-name="longs" unicode="&#x17f;" horiz-adv-x="277" 
d="M260 609q-37 0 -56 -15q-13 -10 -18 -27.5t-5 -48.5v-500q0 -11 -4.5 -14.5t-15.5 -3.5h-52q-11 0 -15.5 3.5t-4.5 14.5v393h-57q-10 0 -13 4t-3 12v32q0 9 3 12t12 5l58 11v35q0 43 8 72t27 49t50.5 31.5t75.5 11.5q29 0 52 -3t37 -7q12 -3 12 -12t-5 -37l-2 -12
q-1 -13 -10 -13q-4 0 -9 1t-9 2q-9 2 -23.5 3t-32.5 1z" />
    <glyph glyph-name="ldot" unicode="&#x140;" horiz-adv-x="376" 
d="M157 132q0 -29 7.5 -41.5t33.5 -12.5h25q9 0 13 -3t4 -14v-43q0 -18 -16 -18h-43q-63 0 -89.5 26.5t-26.5 91.5v541q0 11 4.5 14.5t15.5 3.5h52q11 0 15.5 -3.5t4.5 -14.5v-527zM295 287q-26 0 -44.5 19t-18.5 45t18.5 45t44.5 19t44.5 -19t18.5 -45t-18.5 -45t-44.5 -19
z" />
    <glyph glyph-name="nacute" unicode="&#x144;" horiz-adv-x="515" 
d="M64 475q0 9 4 12t12 3h35q9 0 13 -3t6 -12l5 -32h2q21 26 56 41t86 15q85 0 129 -44.5t44 -152.5v-284q0 -11 -4.5 -14.5t-15.5 -3.5h-52q-11 0 -15.5 3.5t-4.5 14.5v288q0 63 -24 90.5t-81 27.5q-50 0 -76.5 -22.5t-26.5 -81.5v-302q0 -11 -4.5 -14.5t-15.5 -3.5h-52
q-11 0 -15.5 3.5t-4.5 14.5v457zM344 713q9 5 15 5q4 0 7 -2t7 -9l21 -35q9 -15 9 -21q0 -5 -3 -8t-12 -8l-166 -77q-12 -5 -17 -5q-7 0 -14 12l-15 25q-6 10 -6 15q0 6 12 13z" />
    <glyph glyph-name="ncaron" unicode="&#x148;" horiz-adv-x="515" 
d="M64 475q0 9 4 12t12 3h35q9 0 13 -3t6 -12l5 -32h2q21 26 56 41t86 15q85 0 129 -44.5t44 -152.5v-284q0 -11 -4.5 -14.5t-15.5 -3.5h-52q-11 0 -15.5 3.5t-4.5 14.5v288q0 63 -24 90.5t-81 27.5q-50 0 -76.5 -22.5t-26.5 -81.5v-302q0 -11 -4.5 -14.5t-15.5 -3.5h-52
q-11 0 -15.5 3.5t-4.5 14.5v457zM242 553q-7 0 -11.5 1.5t-9.5 7.5l-98 114q-3 4 -5 6.5t-2 6.5q0 6 8 12l23 16q11 8 17 8t14 -8l85 -87h4l85 87q8 8 14 8t17 -8l23 -16q8 -6 8 -12q0 -4 -2 -6.5t-5 -6.5l-98 -114q-5 -6 -9.5 -7.5t-11.5 -1.5h-46z" />
    <glyph glyph-name="ntilde" unicode="&#xf1;" horiz-adv-x="515" 
d="M64 475q0 9 4 12t12 3h35q9 0 13 -3t6 -12l5 -32h2q21 26 56 41t86 15q85 0 129 -44.5t44 -152.5v-284q0 -11 -4.5 -14.5t-15.5 -3.5h-52q-11 0 -15.5 3.5t-4.5 14.5v288q0 63 -24 90.5t-81 27.5q-50 0 -76.5 -22.5t-26.5 -81.5v-302q0 -11 -4.5 -14.5t-15.5 -3.5h-52
q-11 0 -15.5 3.5t-4.5 14.5v457zM110 589q-8 5 -8 11q0 4 3 10q40 83 106 83q17 0 29.5 -4t27.5 -15l28 -19q11 -8 19 -11.5t18 -3.5q27 0 50 39q4 7 10 7q4 0 6 -1.5t6 -3.5l20 -13q9 -6 9 -12q0 -4 -3 -10q-21 -38 -47 -58.5t-58 -20.5q-17 0 -30 4.5t-27 13.5l-27 19
q-11 8 -18.5 11.5t-17.5 3.5q-11 0 -22.5 -8.5t-25.5 -31.5q-5 -9 -11 -9q-5 0 -16 7z" />
    <glyph glyph-name="ncommaaccent" unicode="&#x146;" horiz-adv-x="515" 
d="M64 475q0 9 4 12t12 3h35q9 0 13 -3t6 -12l5 -32h2q21 26 56 41t86 15q85 0 129 -44.5t44 -152.5v-284q0 -11 -4.5 -14.5t-15.5 -3.5h-52q-11 0 -15.5 3.5t-4.5 14.5v288q0 63 -24 90.5t-81 27.5q-50 0 -76.5 -22.5t-26.5 -81.5v-302q0 -11 -4.5 -14.5t-15.5 -3.5h-52
q-11 0 -15.5 3.5t-4.5 14.5v457zM272 -66q20 0 30.5 -10t10.5 -34v-18q0 -75 -66 -138q-6 -6 -12 -6q-5 0 -10 4l-17 15q-6 4 -6 10q0 4 4 8q9 10 20.5 24.5t16.5 27.5q2 4 2 7q0 6 -7 9q-14 8 -20.5 16t-6.5 27v19q0 20 11.5 29.5t28.5 9.5h21z" />
    <glyph glyph-name="napostrophe" unicode="&#x149;" horiz-adv-x="515" 
d="M64 475q0 9 4 12t12 3h35q9 0 13 -3t6 -12l5 -32h2q21 26 56 41t86 15q85 0 129 -44.5t44 -152.5v-284q0 -11 -4.5 -14.5t-15.5 -3.5h-52q-11 0 -15.5 3.5t-4.5 14.5v288q0 63 -24 90.5t-81 27.5q-50 0 -76.5 -22.5t-26.5 -81.5v-302q0 -11 -4.5 -14.5t-15.5 -3.5h-52
q-11 0 -15.5 3.5t-4.5 14.5v457zM1 721q30 0 44 -14.5t14 -47.5v-9q0 -42 -20 -93q-8 -20 -23.5 -47.5t-32.5 -44.5q-6 -8 -12 -8q-7 0 -16 6l-21 13q-9 6 -9 12q0 4 5 11q14 18 26.5 40t16.5 36q4 15 -6 21l-15 8q-11 6 -15.5 16t-4.5 29v24q0 48 54 48h15z" />
    <glyph glyph-name="eng" unicode="&#x14b;" horiz-adv-x="515" 
d="M364 306q0 63 -24 90.5t-81 27.5q-50 0 -76.5 -22.5t-26.5 -81.5v-302q0 -11 -4.5 -14.5t-15.5 -3.5h-52q-11 0 -15.5 3.5t-4.5 14.5v457q0 9 4 12t12 3h35q9 0 13 -3t6 -12l5 -32h2q21 26 56 41t86 15q85 0 129 -44.5t44 -152.5v-268q0 -105 -38 -153t-123 -48h-40
q-17 0 -17 16v45q0 15 16 15h27q23 0 39 5t25.5 19t14 39t4.5 66v268z" />
    <glyph glyph-name="ograve" unicode="&#xf2;" horiz-adv-x="488" 
d="M352 255q0 49 -4 77t-12 46q-11 25 -34 36t-58 11t-58 -11t-34 -36q-8 -18 -12 -46t-4 -77v-20q0 -49 4 -77t12 -46q11 -25 34 -36t58 -11t58 11t34 36q8 18 12 46t4 77v20zM446 228q0 -66 -10.5 -111.5t-39.5 -74.5q-51 -51 -152 -51t-152 51q-29 29 -39.5 74.5
t-10.5 111.5v34q0 66 10.5 111.5t39.5 74.5q51 51 152 51t152 -51q29 -29 39.5 -74.5t10.5 -111.5v-34zM344 618q12 -7 12 -13q0 -5 -6 -15l-15 -25q-7 -12 -14 -12q-5 0 -17 5l-166 77q-9 5 -12 8t-3 8q0 6 9 21l21 35q4 7 7 9t7 2q6 0 15 -5z" />
    <glyph glyph-name="oacute" unicode="&#xf3;" horiz-adv-x="488" 
d="M352 255q0 49 -4 77t-12 46q-11 25 -34 36t-58 11t-58 -11t-34 -36q-8 -18 -12 -46t-4 -77v-20q0 -49 4 -77t12 -46q11 -25 34 -36t58 -11t58 11t34 36q8 18 12 46t4 77v20zM446 228q0 -66 -10.5 -111.5t-39.5 -74.5q-51 -51 -152 -51t-152 51q-29 29 -39.5 74.5
t-10.5 111.5v34q0 66 10.5 111.5t39.5 74.5q51 51 152 51t152 -51q29 -29 39.5 -74.5t10.5 -111.5v-34zM326 713q9 5 15 5q4 0 7 -2t7 -9l21 -35q9 -15 9 -21q0 -5 -3 -8t-12 -8l-166 -77q-12 -5 -17 -5q-7 0 -14 12l-15 25q-6 10 -6 15q0 6 12 13z" />
    <glyph glyph-name="ocircumflex" unicode="&#xf4;" horiz-adv-x="488" 
d="M352 255q0 49 -4 77t-12 46q-11 25 -34 36t-58 11t-58 -11t-34 -36q-8 -18 -12 -46t-4 -77v-20q0 -49 4 -77t12 -46q11 -25 34 -36t58 -11t58 11t34 36q8 18 12 46t4 77v20zM446 228q0 -66 -10.5 -111.5t-39.5 -74.5q-51 -51 -152 -51t-152 51q-29 29 -39.5 74.5
t-10.5 111.5v34q0 66 10.5 111.5t39.5 74.5q51 51 152 51t152 -51q29 -29 39.5 -74.5t10.5 -111.5v-34zM266 723q7 0 11.5 -1.5t9.5 -7.5l98 -114q3 -4 5 -6.5t2 -6.5q0 -6 -8 -12l-23 -16q-11 -8 -17 -8t-14 8l-85 87h-4l-85 -87q-8 -8 -14 -8t-17 8l-23 16q-8 6 -8 12
q0 4 2 6.5t5 6.5l98 114q5 6 9.5 7.5t11.5 1.5h46z" />
    <glyph glyph-name="otilde" unicode="&#xf5;" horiz-adv-x="488" 
d="M352 255q0 49 -4 77t-12 46q-11 25 -34 36t-58 11t-58 -11t-34 -36q-8 -18 -12 -46t-4 -77v-20q0 -49 4 -77t12 -46q11 -25 34 -36t58 -11t58 11t34 36q8 18 12 46t4 77v20zM446 228q0 -66 -10.5 -111.5t-39.5 -74.5q-51 -51 -152 -51t-152 51q-29 29 -39.5 74.5
t-10.5 111.5v34q0 66 10.5 111.5t39.5 74.5q51 51 152 51t152 -51q29 -29 39.5 -74.5t10.5 -111.5v-34zM86 589q-8 5 -8 11q0 4 3 10q40 83 106 83q17 0 29.5 -4t27.5 -15l28 -19q11 -8 19 -11.5t18 -3.5q27 0 50 39q4 7 10 7q4 0 6 -1.5t6 -3.5l20 -13q9 -6 9 -12
q0 -4 -3 -10q-21 -38 -47 -58.5t-58 -20.5q-17 0 -30 4.5t-27 13.5l-27 19q-11 8 -18.5 11.5t-17.5 3.5q-11 0 -22.5 -8.5t-25.5 -31.5q-5 -9 -11 -9q-5 0 -16 7z" />
    <glyph glyph-name="odieresis" unicode="&#xf6;" horiz-adv-x="488" 
d="M352 255q0 49 -4 77t-12 46q-11 25 -34 36t-58 11t-58 -11t-34 -36q-8 -18 -12 -46t-4 -77v-20q0 -49 4 -77t12 -46q11 -25 34 -36t58 -11t58 11t34 36q8 18 12 46t4 77v20zM446 228q0 -66 -10.5 -111.5t-39.5 -74.5q-51 -51 -152 -51t-152 51q-29 29 -39.5 74.5
t-10.5 111.5v34q0 66 10.5 111.5t39.5 74.5q51 51 152 51t152 -51q29 -29 39.5 -74.5t10.5 -111.5v-34zM216 628q0 -48 -49 -48h-10q-23 0 -35.5 12.5t-12.5 35.5v16q0 23 12.5 35.5t35.5 12.5h10q49 0 49 -48v-16zM379 628q0 -48 -49 -48h-10q-23 0 -35.5 12.5t-12.5 35.5
v16q0 23 12.5 35.5t35.5 12.5h10q49 0 49 -48v-16z" />
    <glyph glyph-name="omacron" unicode="&#x14d;" horiz-adv-x="488" 
d="M352 255q0 49 -4 77t-12 46q-11 25 -34 36t-58 11t-58 -11t-34 -36q-8 -18 -12 -46t-4 -77v-20q0 -49 4 -77t12 -46q11 -25 34 -36t58 -11t58 11t34 36q8 18 12 46t4 77v20zM446 228q0 -66 -10.5 -111.5t-39.5 -74.5q-51 -51 -152 -51t-152 51q-29 29 -39.5 74.5
t-10.5 111.5v34q0 66 10.5 111.5t39.5 74.5q51 51 152 51t152 -51q29 -29 39.5 -74.5t10.5 -111.5v-34zM132 592q-19 0 -19 18v38q0 17 19 17h222q19 0 19 -17v-38q0 -18 -19 -18h-222z" />
    <glyph glyph-name="obreve" unicode="&#x14f;" horiz-adv-x="488" 
d="M352 255q0 49 -4 77t-12 46q-11 25 -34 36t-58 11t-58 -11t-34 -36q-8 -18 -12 -46t-4 -77v-20q0 -49 4 -77t12 -46q11 -25 34 -36t58 -11t58 11t34 36q8 18 12 46t4 77v20zM446 228q0 -66 -10.5 -111.5t-39.5 -74.5q-51 -51 -152 -51t-152 51q-29 29 -39.5 74.5
t-10.5 111.5v34q0 66 10.5 111.5t39.5 74.5q51 51 152 51t152 -51q29 -29 39.5 -74.5t10.5 -111.5v-34zM243 558q-57 0 -93 26.5t-53 75.5q-5 15 -5 19q0 9 14 13l22 7q17 5 21 5q8 0 12 -12q14 -37 33.5 -52t48.5 -15t48.5 15t33.5 52q4 12 12 12q4 0 21 -5l22 -7
q14 -4 14 -13q0 -4 -5 -19q-17 -49 -53 -75.5t-93 -26.5z" />
    <glyph glyph-name="ohungarumlaut" unicode="&#x151;" horiz-adv-x="488" 
d="M352 255q0 49 -4 77t-12 46q-11 25 -34 36t-58 11t-58 -11t-34 -36q-8 -18 -12 -46t-4 -77v-20q0 -49 4 -77t12 -46q11 -25 34 -36t58 -11t58 11t34 36q8 18 12 46t4 77v20zM446 228q0 -66 -10.5 -111.5t-39.5 -74.5q-51 -51 -152 -51t-152 51q-29 29 -39.5 74.5
t-10.5 111.5v34q0 66 10.5 111.5t39.5 74.5q51 51 152 51t152 -51q29 -29 39.5 -74.5t10.5 -111.5v-34zM234 730q7 6 14 6q8 0 16 -9l29 -38q6 -7 6 -15q-2 -9 -12 -15l-145 -102q-8 -5 -15 -5q-9 0 -19 13l-12 15q-9 12 -9 18q0 5 2 7.5t5 5.5zM444 730q7 6 14 6q8 0 16 -9
l29 -38q6 -7 6 -15q-2 -9 -12 -15l-145 -102q-8 -5 -15 -5q-9 0 -19 13l-12 15q-9 12 -9 18q0 5 2 7.5t5 5.5z" />
    <glyph glyph-name="oslash" unicode="&#xf8;" horiz-adv-x="488" 
d="M446 228q0 -66 -10.5 -111.5t-39.5 -74.5q-51 -51 -152 -51q-53 0 -93 14l-27 -50q-7 -14 -15 -14q-3 0 -6.5 2t-8.5 4l-18 10q-10 5 -10 11q0 5 2.5 10t10.5 19l20 38l-3.5 3.5l-3.5 3.5q-29 29 -39.5 74.5t-10.5 111.5v34q0 66 10.5 111.5t39.5 74.5q51 51 152 51
q53 0 94 -15l30 55q7 14 15 14q3 0 6.5 -2t8.5 -4l18 -10q10 -5 10 -11q0 -5 -2.5 -10t-10.5 -19l-23 -43l6 -6q29 -29 39.5 -74.5t10.5 -111.5v-34zM136 235q0 -42 2.5 -67.5t8.5 -43.5l154 290q-24 11 -57 11q-35 0 -58 -11t-34 -36q-8 -18 -12 -46t-4 -77v-20zM352 255
q0 40 -3 65.5t-8 42.5l-153 -288q21 -10 56 -10t58 11t34 36q8 18 12 46t4 77v20z" />
    <glyph glyph-name="oslashacute" unicode="&#x1ff;" horiz-adv-x="488" 
d="M326 713q9 5 15 5q4 0 7 -2t7 -9l21 -35q9 -15 9 -21q0 -5 -3 -8t-12 -8l-166 -77q-12 -5 -17 -5q-7 0 -14 12l-15 25q-6 10 -6 15q0 6 12 13zM446 228q0 -66 -10.5 -111.5t-39.5 -74.5q-51 -51 -152 -51q-53 0 -93 14l-27 -50q-7 -14 -15 -14q-3 0 -6.5 2t-8.5 4l-18 10
q-10 5 -10 11q0 5 2.5 10t10.5 19l20 38l-3.5 3.5l-3.5 3.5q-29 29 -39.5 74.5t-10.5 111.5v34q0 66 10.5 111.5t39.5 74.5q51 51 152 51q53 0 94 -15l30 55q7 14 15 14q3 0 6.5 -2t8.5 -4l18 -10q10 -5 10 -11q0 -5 -2.5 -10t-10.5 -19l-23 -43l6 -6q29 -29 39.5 -74.5
t10.5 -111.5v-34zM136 235q0 -42 2.5 -67.5t8.5 -43.5l154 290q-24 11 -57 11q-35 0 -58 -11t-34 -36q-8 -18 -12 -46t-4 -77v-20zM352 255q0 40 -3 65.5t-8 42.5l-153 -288q21 -10 56 -10t58 11t34 36q8 18 12 46t4 77v20z" />
    <glyph glyph-name="oe" unicode="&#x153;" horiz-adv-x="776" 
d="M733 227q0 -29 -28 -29h-258q1 -36 6.5 -60.5t19 -40.5t36.5 -23t60 -7q26 0 55.5 5.5t50.5 13.5q5 2 9 3t7 1q8 0 12 -11l7 -24q5 -17 5 -21q0 -9 -12 -15q-26 -12 -65 -20t-80 -8q-117 0 -163 61q-20 -29 -60.5 -45t-90.5 -16q-101 0 -152 51q-29 29 -39.5 74.5
t-10.5 111.5v34q0 66 10.5 111.5t39.5 74.5q51 51 152 51q106 0 155 -58q22 26 59.5 42t91.5 16q89 0 136 -45.5t47 -153.5v-73zM352 255q0 49 -4 77t-12 46q-11 25 -34 36t-58 11t-58 -11t-34 -36q-8 -18 -12 -46t-4 -77v-20q0 -49 4 -77t12 -46q11 -25 34 -36t58 -11
t58 11t34 36q8 18 12 46t4 77v20zM627 273q13 0 13 14q0 36 -3.5 62t-13.5 42.5t-28 24t-47 7.5q-56 0 -79 -33.5t-23 -116.5h181z" />
    <glyph glyph-name="thorn" unicode="&#xfe;" horiz-adv-x="513" 
d="M156 -159q0 -11 -4.5 -14.5t-15.5 -3.5h-52q-11 0 -15.5 3.5t-4.5 14.5v818q0 11 4.5 14.5t15.5 3.5h52q11 0 15.5 -3.5t4.5 -14.5v-201q23 20 53.5 30.5t77.5 10.5q46 0 81 -11.5t57.5 -38t34 -70t11.5 -108.5v-45q0 -58 -9.5 -102t-31.5 -73.5t-59 -44.5t-91 -15
q-46 0 -75 10.5t-48 29.5h-1v-190zM266 422q-62 0 -86 -27t-24 -84v-136q0 -59 28 -83.5t83 -24.5q32 0 53.5 8.5t34 27.5t17.5 50t5 76v33q0 45 -5 75.5t-17.5 49t-34 27t-54.5 8.5z" />
    <glyph glyph-name="racute" unicode="&#x155;" horiz-adv-x="324" 
d="M139 426h2q20 33 47.5 48.5t76.5 15.5h20q12 0 16.5 -3.5t4.5 -14.5v-44q0 -9 -4.5 -13t-16.5 -4h-22q-36 0 -54.5 -7t-30.5 -21t-17 -34.5t-5 -52.5v-278q0 -11 -4.5 -14.5t-15.5 -3.5h-52q-11 0 -15.5 3.5t-4.5 14.5v457q0 9 4 12t12 3h35q9 0 13.5 -3t5.5 -12z
M280 713q9 5 15 5q4 0 7 -2t7 -9l21 -35q9 -15 9 -21q0 -5 -3 -8t-12 -8l-166 -77q-12 -5 -17 -5q-7 0 -14 12l-15 25q-6 10 -6 15q0 6 12 13z" />
    <glyph glyph-name="rcaron" unicode="&#x159;" horiz-adv-x="324" 
d="M139 426h2q20 33 47.5 48.5t76.5 15.5h20q12 0 16.5 -3.5t4.5 -14.5v-44q0 -9 -4.5 -13t-16.5 -4h-22q-36 0 -54.5 -7t-30.5 -21t-17 -34.5t-5 -52.5v-278q0 -11 -4.5 -14.5t-15.5 -3.5h-52q-11 0 -15.5 3.5t-4.5 14.5v457q0 9 4 12t12 3h35q9 0 13.5 -3t5.5 -12z
M165 553q-7 0 -11.5 1.5t-9.5 7.5l-98 114q-3 4 -5 6.5t-2 6.5q0 6 8 12l23 16q11 8 17 8t14 -8l85 -87h4l85 87q8 8 14 8t17 -8l23 -16q8 -6 8 -12q0 -4 -2 -6.5t-5 -6.5l-98 -114q-5 -6 -9.5 -7.5t-11.5 -1.5h-46z" />
    <glyph glyph-name="rcommaaccent" unicode="&#x157;" horiz-adv-x="324" 
d="M139 426h2q20 33 47.5 48.5t76.5 15.5h20q12 0 16.5 -3.5t4.5 -14.5v-44q0 -9 -4.5 -13t-16.5 -4h-22q-36 0 -54.5 -7t-30.5 -21t-17 -34.5t-5 -52.5v-278q0 -11 -4.5 -14.5t-15.5 -3.5h-52q-11 0 -15.5 3.5t-4.5 14.5v457q0 9 4 12t12 3h35q9 0 13.5 -3t5.5 -12z
M121 -66q20 0 30.5 -10t10.5 -34v-18q0 -75 -66 -138q-6 -6 -12 -6q-5 0 -10 4l-17 15q-6 4 -6 10q0 4 4 8q9 10 20.5 24.5t16.5 27.5q2 4 2 7q0 6 -7 9q-14 8 -20.5 16t-6.5 27v19q0 20 11.5 29.5t28.5 9.5h21z" />
    <glyph glyph-name="sacute" unicode="&#x15b;" horiz-adv-x="417" 
d="M198 -9q-35 0 -75 7t-71 18q-7 2 -10.5 5t-3.5 9q0 5 1.5 11.5t4.5 18.5l5 18q4 14 13 14q6 0 13 -3t23 -8q45 -14 102 -14q48 0 69.5 17t21.5 52v5q0 35 -17 48.5t-54 21.5l-47 10q-38 8 -63 18.5t-39 26t-19.5 37.5t-5.5 53v7q0 70 41 103t127 33q38 0 70 -4.5
t57 -12.5q8 -2 10 -5t2 -8q0 -4 -2 -11t-4 -18l-5 -19q-4 -14 -12 -14q-4 0 -9.5 1t-10.5 3q-17 5 -42 8t-48 3q-51 0 -69.5 -13.5t-18.5 -45.5v-5q0 -13 3.5 -22.5t12 -16.5t23 -12.5t36.5 -10.5l46 -10q67 -14 95.5 -45t28.5 -96v-8q0 -72 -45 -109t-134 -37zM291 713
q9 5 15 5q4 0 7 -2t7 -9l21 -35q9 -15 9 -21q0 -5 -3 -8t-12 -8l-166 -77q-12 -5 -17 -5q-7 0 -14 12l-15 25q-6 10 -6 15q0 6 12 13z" />
    <glyph glyph-name="scircumflex" unicode="&#x15d;" horiz-adv-x="417" 
d="M198 -9q-35 0 -75 7t-71 18q-7 2 -10.5 5t-3.5 9q0 5 1.5 11.5t4.5 18.5l5 18q4 14 13 14q6 0 13 -3t23 -8q45 -14 102 -14q48 0 69.5 17t21.5 52v5q0 35 -17 48.5t-54 21.5l-47 10q-38 8 -63 18.5t-39 26t-19.5 37.5t-5.5 53v7q0 70 41 103t127 33q38 0 70 -4.5
t57 -12.5q8 -2 10 -5t2 -8q0 -4 -2 -11t-4 -18l-5 -19q-4 -14 -12 -14q-4 0 -9.5 1t-10.5 3q-17 5 -42 8t-48 3q-51 0 -69.5 -13.5t-18.5 -45.5v-5q0 -13 3.5 -22.5t12 -16.5t23 -12.5t36.5 -10.5l46 -10q67 -14 95.5 -45t28.5 -96v-8q0 -72 -45 -109t-134 -37zM235 723
q7 0 11.5 -1.5t9.5 -7.5l98 -114q3 -4 5 -6.5t2 -6.5q0 -6 -8 -12l-23 -16q-11 -8 -17 -8t-14 8l-85 87h-4l-85 -87q-8 -8 -14 -8t-17 8l-23 16q-8 6 -8 12q0 4 2 6.5t5 6.5l98 114q5 6 9.5 7.5t11.5 1.5h46z" />
    <glyph glyph-name="scaron" unicode="&#x161;" horiz-adv-x="417" 
d="M198 -9q-35 0 -75 7t-71 18q-7 2 -10.5 5t-3.5 9q0 5 1.5 11.5t4.5 18.5l5 18q4 14 13 14q6 0 13 -3t23 -8q45 -14 102 -14q48 0 69.5 17t21.5 52v5q0 35 -17 48.5t-54 21.5l-47 10q-38 8 -63 18.5t-39 26t-19.5 37.5t-5.5 53v7q0 70 41 103t127 33q38 0 70 -4.5
t57 -12.5q8 -2 10 -5t2 -8q0 -4 -2 -11t-4 -18l-5 -19q-4 -14 -12 -14q-4 0 -9.5 1t-10.5 3q-17 5 -42 8t-48 3q-51 0 -69.5 -13.5t-18.5 -45.5v-5q0 -13 3.5 -22.5t12 -16.5t23 -12.5t36.5 -10.5l46 -10q67 -14 95.5 -45t28.5 -96v-8q0 -72 -45 -109t-134 -37zM186 553
q-7 0 -11.5 1.5t-9.5 7.5l-98 114q-3 4 -5 6.5t-2 6.5q0 6 8 12l23 16q11 8 17 8t14 -8l85 -87h4l85 87q8 8 14 8t17 -8l23 -16q8 -6 8 -12q0 -4 -2 -6.5t-5 -6.5l-98 -114q-5 -6 -9.5 -7.5t-11.5 -1.5h-46z" />
    <glyph glyph-name="scedilla" unicode="&#x15f;" horiz-adv-x="417" 
d="M145 -88q0 4 3 19l11 62q-29 3 -56.5 9t-50.5 14q-7 2 -10.5 5t-3.5 9q0 5 1.5 11.5t4.5 18.5l5 18q4 14 13 14q6 0 13 -3t23 -8q45 -14 102 -14q48 0 69.5 17t21.5 52v5q0 35 -17 48.5t-54 21.5l-47 10q-38 8 -63 18.5t-39 26t-19.5 37.5t-5.5 53v7q0 70 41 103t127 33
q38 0 70 -4.5t57 -12.5q8 -2 10 -5t2 -8q0 -4 -2 -11t-4 -18l-5 -19q-4 -14 -12 -14q-4 0 -9.5 1t-10.5 3q-17 5 -42 8t-48 3q-51 0 -69.5 -13.5t-18.5 -45.5v-5q0 -13 3.5 -22.5t12 -16.5t23 -12.5t36.5 -10.5l46 -10q67 -14 95.5 -45t28.5 -96v-8q0 -136 -157 -145l-9 -54
q15 3 32 3q30 0 52.5 -19t22.5 -61q0 -50 -29.5 -73t-87.5 -23q-19 0 -39.5 3t-36.5 8q-10 3 -10 10q0 5 0.5 9t1.5 9l3 19q1 10 8 10q3 0 11 -2q11 -3 27.5 -5.5t27.5 -2.5q26 0 38 7t12 28q0 14 -7 21t-26 7q-18 0 -34 -3q-4 -1 -6.5 -1.5t-4.5 -0.5q-6 0 -10 7l-8 13
q-3 6 -3 11z" />
    <glyph glyph-name="scommaaccent" unicode="&#x219;" horiz-adv-x="417" 
d="M198 -9q-35 0 -75 7t-71 18q-7 2 -10.5 5t-3.5 9q0 5 1.5 11.5t4.5 18.5l5 18q4 14 13 14q6 0 13 -3t23 -8q45 -14 102 -14q48 0 69.5 17t21.5 52v5q0 35 -17 48.5t-54 21.5l-47 10q-38 8 -63 18.5t-39 26t-19.5 37.5t-5.5 53v7q0 70 41 103t127 33q38 0 70 -4.5
t57 -12.5q8 -2 10 -5t2 -8q0 -4 -2 -11t-4 -18l-5 -19q-4 -14 -12 -14q-4 0 -9.5 1t-10.5 3q-17 5 -42 8t-48 3q-51 0 -69.5 -13.5t-18.5 -45.5v-5q0 -13 3.5 -22.5t12 -16.5t23 -12.5t36.5 -10.5l46 -10q67 -14 95.5 -45t28.5 -96v-8q0 -72 -45 -109t-134 -37zM223 -66
q20 0 30.5 -10t10.5 -34v-18q0 -75 -66 -138q-6 -6 -12 -6q-5 0 -10 4l-17 15q-6 4 -6 10q0 4 4 8q9 10 20.5 24.5t16.5 27.5q2 4 2 7q0 6 -7 9q-14 8 -20.5 16t-6.5 27v19q0 20 11.5 29.5t28.5 9.5h21z" />
    <glyph glyph-name="germandbls" unicode="&#xdf;" horiz-adv-x="525" 
d="M156 -56q0 -11 -4.5 -14.5t-15.5 -3.5h-52q-11 0 -15.5 3.5t-4.5 14.5v554q0 101 47.5 144.5t151.5 43.5q89 0 141 -41.5t52 -121.5v-12q0 -55 -22 -94t-61 -53v-3q64 -13 90 -53.5t26 -104.5v-18q0 -104 -48.5 -149t-140.5 -45q-22 0 -47.5 2t-45.5 6q-15 3 -15 12v6.5
t2 16.5l3 27q2 12 12 12q9 0 28 -3.5t49 -3.5q62 0 86 32t24 93v11q0 65 -31 89.5t-98 24.5h-31q-16 0 -16 14v47q0 16 16 16h12q62 0 88.5 26.5t26.5 83.5v9q0 47 -23.5 72t-79.5 25q-59 0 -81.5 -28t-22.5 -98v-539v0z" />
    <glyph glyph-name="tcaron" unicode="&#x165;" horiz-adv-x="338" 
d="M236 0q-48 0 -76 9.5t-44 26.5q-17 19 -23.5 47t-6.5 75v253h-60q-8 0 -11.5 3t-3.5 12v32q0 10 2.5 12.5t10.5 4.5l62 12v109q0 19 20 19h53q19 0 19 -19v-106h108q16 0 16 -18v-43q0 -18 -16 -18h-108v-246q0 -29 2 -43t10 -25q8 -12 21.5 -15.5t41.5 -3.5h43
q10 0 14 -3.5t4 -15.5v-41q0 -10 -3.5 -14t-14.5 -4h-60zM312 736q20 0 30.5 -10t10.5 -34v-18q0 -75 -66 -138q-6 -6 -12 -6q-5 0 -10 4l-17 15q-6 4 -6 10q0 4 4 8q9 10 20.5 24.5t16.5 27.5q2 4 2 7q0 6 -7 9q-14 8 -20.5 16t-6.5 27v19q0 20 11.5 29.5t28.5 9.5h21z" />
    <glyph glyph-name="tcommaaccent" unicode="&#x163;" horiz-adv-x="338" 
d="M236 0q-48 0 -76 9.5t-44 26.5q-17 19 -23.5 47t-6.5 75v253h-60q-8 0 -11.5 3t-3.5 12v32q0 10 2.5 12.5t10.5 4.5l62 12v109q0 19 20 19h53q19 0 19 -19v-106h108q16 0 16 -18v-43q0 -18 -16 -18h-108v-246q0 -29 2 -43t10 -25q8 -12 21.5 -15.5t41.5 -3.5h43
q10 0 14 -3.5t4 -15.5v-41q0 -10 -3.5 -14t-14.5 -4h-60zM218 -66q20 0 30.5 -10t10.5 -34v-18q0 -75 -66 -138q-6 -6 -12 -6q-5 0 -10 4l-17 15q-6 4 -6 10q0 4 4 8q9 10 20.5 24.5t16.5 27.5q2 4 2 7q0 6 -7 9q-14 8 -20.5 16t-6.5 27v19q0 20 11.5 29.5t28.5 9.5h21z" />
    <glyph glyph-name="uni021B" unicode="&#x21b;" horiz-adv-x="338" 
d="M236 0q-48 0 -76 9.5t-44 26.5q-17 19 -23.5 47t-6.5 75v253h-60q-8 0 -11.5 3t-3.5 12v32q0 10 2.5 12.5t10.5 4.5l62 12v109q0 19 20 19h53q19 0 19 -19v-106h108q16 0 16 -18v-43q0 -18 -16 -18h-108v-246q0 -29 2 -43t10 -25q8 -12 21.5 -15.5t41.5 -3.5h43
q10 0 14 -3.5t4 -15.5v-41q0 -10 -3.5 -14t-14.5 -4h-60zM218 -66q20 0 30.5 -10t10.5 -34v-18q0 -75 -66 -138q-6 -6 -12 -6q-5 0 -10 4l-17 15q-6 4 -6 10q0 4 4 8q9 10 20.5 24.5t16.5 27.5q2 4 2 7q0 6 -7 9q-14 8 -20.5 16t-6.5 27v19q0 20 11.5 29.5t28.5 9.5h21z" />
    <glyph glyph-name="tbar" unicode="&#x167;" horiz-adv-x="338" 
d="M86 306v105h-60q-8 0 -11.5 3t-3.5 12v32q0 10 2.5 13t10.5 4l62 12v109q0 19 20 19h53q19 0 19 -19v-106h108q16 0 16 -18v-43q0 -18 -16 -18h-108v-102h108q16 0 16 -18v-43q0 -18 -16 -18h-108v-65q0 -29 2 -43t10 -25q8 -12 21.5 -15.5t41.5 -3.5h43q10 0 14 -3.5
t4 -15.5v-41q0 -10 -3.5 -14t-14.5 -4h-60q-48 0 -76 9.5t-44 26.5q-17 19 -23.5 47t-6.5 75v72h-60q-8 0 -11.5 3t-3.5 12v32q0 10 2.5 13t10.5 4z" />
    <glyph glyph-name="ugrave" unicode="&#xf9;" horiz-adv-x="499" 
d="M348 472q0 11 4.5 14.5t15.5 3.5h52q11 0 15.5 -4t4.5 -15v-324q0 -85 -51 -122q-23 -18 -55.5 -26t-83.5 -8t-83.5 8t-56.5 26q-51 37 -51 122v325q0 11 4.5 14.5t15.5 3.5h52q11 0 15.5 -3.5t4.5 -14.5v-310q0 -28 5 -45.5t18 -28.5q24 -20 76 -20t77 22
q12 11 16.5 27.5t4.5 44.5v310zM328 618q12 -7 12 -13q0 -5 -6 -15l-15 -25q-7 -12 -14 -12q-5 0 -17 5l-166 77q-9 5 -12 8t-3 8q0 6 9 21l21 35q4 7 7 9t7 2q6 0 15 -5z" />
    <glyph glyph-name="uacute" unicode="&#xfa;" horiz-adv-x="499" 
d="M348 472q0 11 4.5 14.5t15.5 3.5h52q11 0 15.5 -4t4.5 -15v-324q0 -85 -51 -122q-23 -18 -55.5 -26t-83.5 -8t-83.5 8t-56.5 26q-51 37 -51 122v325q0 11 4.5 14.5t15.5 3.5h52q11 0 15.5 -3.5t4.5 -14.5v-310q0 -28 5 -45.5t18 -28.5q24 -20 76 -20t77 22
q12 11 16.5 27.5t4.5 44.5v310zM338 713q9 5 15 5q4 0 7 -2t7 -9l21 -35q9 -15 9 -21q0 -5 -3 -8t-12 -8l-166 -77q-12 -5 -17 -5q-7 0 -14 12l-15 25q-6 10 -6 15q0 6 12 13z" />
    <glyph glyph-name="ucircumflex" unicode="&#xfb;" horiz-adv-x="499" 
d="M348 472q0 11 4.5 14.5t15.5 3.5h52q11 0 15.5 -4t4.5 -15v-324q0 -85 -51 -122q-23 -18 -55.5 -26t-83.5 -8t-83.5 8t-56.5 26q-51 37 -51 122v325q0 11 4.5 14.5t15.5 3.5h52q11 0 15.5 -3.5t4.5 -14.5v-310q0 -28 5 -45.5t18 -28.5q24 -20 76 -20t77 22
q12 11 16.5 27.5t4.5 44.5v310zM274 723q7 0 11.5 -1.5t9.5 -7.5l98 -114q3 -4 5 -6.5t2 -6.5q0 -6 -8 -12l-23 -16q-11 -8 -17 -8t-14 8l-85 87h-4l-85 -87q-8 -8 -14 -8t-17 8l-23 16q-8 6 -8 12q0 4 2 6.5t5 6.5l98 114q5 6 9.5 7.5t11.5 1.5h46z" />
    <glyph glyph-name="utilde" unicode="&#x169;" horiz-adv-x="499" 
d="M348 472q0 11 4.5 14.5t15.5 3.5h52q11 0 15.5 -4t4.5 -15v-324q0 -85 -51 -122q-23 -18 -55.5 -26t-83.5 -8t-83.5 8t-56.5 26q-51 37 -51 122v325q0 11 4.5 14.5t15.5 3.5h52q11 0 15.5 -3.5t4.5 -14.5v-310q0 -28 5 -45.5t18 -28.5q24 -20 76 -20t77 22
q12 11 16.5 27.5t4.5 44.5v310zM93 589q-8 5 -8 11q0 4 3 10q40 83 106 83q17 0 29.5 -4t27.5 -15l28 -19q11 -8 19 -11.5t18 -3.5q27 0 50 39q4 7 10 7q4 0 6 -1.5t6 -3.5l20 -13q9 -6 9 -12q0 -4 -3 -10q-21 -38 -47 -58.5t-58 -20.5q-17 0 -30 4.5t-27 13.5l-27 19
q-11 8 -18.5 11.5t-17.5 3.5q-11 0 -22.5 -8.5t-25.5 -31.5q-5 -9 -11 -9q-5 0 -16 7z" />
    <glyph glyph-name="udieresis" unicode="&#xfc;" horiz-adv-x="499" 
d="M348 472q0 11 4.5 14.5t15.5 3.5h52q11 0 15.5 -4t4.5 -15v-324q0 -85 -51 -122q-23 -18 -55.5 -26t-83.5 -8t-83.5 8t-56.5 26q-51 37 -51 122v325q0 11 4.5 14.5t15.5 3.5h52q11 0 15.5 -3.5t4.5 -14.5v-310q0 -28 5 -45.5t18 -28.5q24 -20 76 -20t77 22
q12 11 16.5 27.5t4.5 44.5v310zM223 628q0 -48 -49 -48h-10q-23 0 -35.5 12.5t-12.5 35.5v16q0 23 12.5 35.5t35.5 12.5h10q49 0 49 -48v-16zM386 628q0 -48 -49 -48h-10q-23 0 -35.5 12.5t-12.5 35.5v16q0 23 12.5 35.5t35.5 12.5h10q49 0 49 -48v-16z" />
    <glyph glyph-name="umacron" unicode="&#x16b;" horiz-adv-x="499" 
d="M348 472q0 11 4.5 14.5t15.5 3.5h52q11 0 15.5 -4t4.5 -15v-324q0 -85 -51 -122q-23 -18 -55.5 -26t-83.5 -8t-83.5 8t-56.5 26q-51 37 -51 122v325q0 11 4.5 14.5t15.5 3.5h52q11 0 15.5 -3.5t4.5 -14.5v-310q0 -28 5 -45.5t18 -28.5q24 -20 76 -20t77 22
q12 11 16.5 27.5t4.5 44.5v310zM139 592q-19 0 -19 18v38q0 17 19 17h222q19 0 19 -17v-38q0 -18 -19 -18h-222z" />
    <glyph glyph-name="ubreve" unicode="&#x16d;" horiz-adv-x="499" 
d="M348 472q0 11 4.5 14.5t15.5 3.5h52q11 0 15.5 -4t4.5 -15v-324q0 -85 -51 -122q-23 -18 -55.5 -26t-83.5 -8t-83.5 8t-56.5 26q-51 37 -51 122v325q0 11 4.5 14.5t15.5 3.5h52q11 0 15.5 -3.5t4.5 -14.5v-310q0 -28 5 -45.5t18 -28.5q24 -20 76 -20t77 22
q12 11 16.5 27.5t4.5 44.5v310zM249 558q-57 0 -93 26.5t-53 75.5q-5 15 -5 19q0 9 14 13l22 7q17 5 21 5q8 0 12 -12q14 -37 33.5 -52t48.5 -15t48.5 15t33.5 52q4 12 12 12q4 0 21 -5l22 -7q14 -4 14 -13q0 -4 -5 -19q-17 -49 -53 -75.5t-93 -26.5z" />
    <glyph glyph-name="uring" unicode="&#x16f;" horiz-adv-x="499" 
d="M348 472q0 11 4.5 14.5t15.5 3.5h52q11 0 15.5 -4t4.5 -15v-324q0 -85 -51 -122q-23 -18 -55.5 -26t-83.5 -8t-83.5 8t-56.5 26q-51 37 -51 122v325q0 11 4.5 14.5t15.5 3.5h52q11 0 15.5 -3.5t4.5 -14.5v-310q0 -28 5 -45.5t18 -28.5q24 -20 76 -20t77 22
q12 11 16.5 27.5t4.5 44.5v310zM250 728q40 0 67 -26t27 -68t-27 -68t-67 -26t-67 26t-27 68t27 68t67 26zM250 595q17 0 27.5 11t10.5 28t-10.5 28t-27.5 11t-27.5 -11t-10.5 -28t10.5 -28t27.5 -11z" />
    <glyph glyph-name="uhungarumlaut" unicode="&#x171;" horiz-adv-x="499" 
d="M348 472q0 11 4.5 14.5t15.5 3.5h52q11 0 15.5 -4t4.5 -15v-324q0 -85 -51 -122q-23 -18 -55.5 -26t-83.5 -8t-83.5 8t-56.5 26q-51 37 -51 122v325q0 11 4.5 14.5t15.5 3.5h52q11 0 15.5 -3.5t4.5 -14.5v-310q0 -28 5 -45.5t18 -28.5q24 -20 76 -20t77 22
q12 11 16.5 27.5t4.5 44.5v310zM244 730q7 6 14 6q8 0 16 -9l29 -38q6 -7 6 -15q-2 -9 -12 -15l-145 -102q-8 -5 -15 -5q-9 0 -19 13l-12 15q-9 12 -9 18q0 5 2 7.5t5 5.5zM454 730q7 6 14 6q8 0 16 -9l29 -38q6 -7 6 -15q-2 -9 -12 -15l-145 -102q-8 -5 -15 -5q-9 0 -19 13
l-12 15q-9 12 -9 18q0 5 2 7.5t5 5.5z" />
    <glyph glyph-name="uogonek" unicode="&#x173;" horiz-adv-x="499" 
d="M188 -120q0 34 19.5 64t48.5 47h-6q-51 0 -83.5 8t-56.5 26q-51 37 -51 122v325q0 11 4.5 14.5t15.5 3.5h52q11 0 15.5 -3.5t4.5 -14.5v-310q0 -28 5 -45.5t18 -28.5q24 -20 76 -20t77 22q12 11 16.5 27.5t4.5 44.5v310q0 11 4.5 14.5t15.5 3.5h52q11 0 15.5 -4t4.5 -15
v-324q0 -85 -51 -122q-12 -9 -22.5 -14t-18.5 -9q-20 -9 -35 -21.5t-26 -27.5t-16.5 -30.5t-5.5 -29.5q0 -33 37 -33q11 0 24 2.5t24 6.5q9 3 10 3q7 0 8 -9l4 -18q3 -12 3 -17q0 -7 -12 -12q-17 -7 -36.5 -11t-37.5 -4q-48 0 -74.5 19.5t-26.5 59.5z" />
    <glyph glyph-name="wgrave" unicode="&#x1e81;" horiz-adv-x="671" 
d="M461 0q-17 0 -27.5 6.5t-15.5 26.5q-24 88 -44 171.5t-35 162.5h-6q-15 -79 -35.5 -162.5t-43.5 -171.5q-5 -20 -15.5 -26.5t-28.5 -6.5h-49q-18 0 -27.5 8t-14.5 25q-12 41 -25 91t-25.5 104t-25 109.5t-23.5 109.5q-2 7 -3.5 16.5t-1.5 14.5q0 12 21 12h48q20 0 23 -17
q16 -93 37 -195t43 -190h4q22 85 41.5 171.5t38.5 177.5q3 17 11 23t27 6h54q18 0 26 -6t12 -23q18 -91 37.5 -177.5t41.5 -171.5h4q22 88 43 190t37 195q3 17 23 17h48q21 0 21 -12q0 -5 -1.5 -14.5t-3.5 -16.5q-11 -54 -23.5 -109.5t-25 -109.5t-25.5 -104t-25 -91
q-5 -17 -14 -25t-27 -8h-50zM420 618q12 -7 12 -13q0 -5 -6 -15l-15 -25q-7 -12 -14 -12q-5 0 -17 5l-166 77q-9 5 -12 8t-3 8q0 6 9 21l21 35q4 7 7 9t7 2q6 0 15 -5z" />
    <glyph glyph-name="wacute" unicode="&#x1e83;" horiz-adv-x="671" 
d="M461 0q-17 0 -27.5 6.5t-15.5 26.5q-24 88 -44 171.5t-35 162.5h-6q-15 -79 -35.5 -162.5t-43.5 -171.5q-5 -20 -15.5 -26.5t-28.5 -6.5h-49q-18 0 -27.5 8t-14.5 25q-12 41 -25 91t-25.5 104t-25 109.5t-23.5 109.5q-2 7 -3.5 16.5t-1.5 14.5q0 12 21 12h48q20 0 23 -17
q16 -93 37 -195t43 -190h4q22 85 41.5 171.5t38.5 177.5q3 17 11 23t27 6h54q18 0 26 -6t12 -23q18 -91 37.5 -177.5t41.5 -171.5h4q22 88 43 190t37 195q3 17 23 17h48q21 0 21 -12q0 -5 -1.5 -14.5t-3.5 -16.5q-11 -54 -23.5 -109.5t-25 -109.5t-25.5 -104t-25 -91
q-5 -17 -14 -25t-27 -8h-50zM417 713q9 5 15 5q4 0 7 -2t7 -9l21 -35q9 -15 9 -21q0 -5 -3 -8t-12 -8l-166 -77q-12 -5 -17 -5q-7 0 -14 12l-15 25q-6 10 -6 15q0 6 12 13z" />
    <glyph glyph-name="wcircumflex" unicode="&#x175;" horiz-adv-x="671" 
d="M461 0q-17 0 -27.5 6.5t-15.5 26.5q-24 88 -44 171.5t-35 162.5h-6q-15 -79 -35.5 -162.5t-43.5 -171.5q-5 -20 -15.5 -26.5t-28.5 -6.5h-49q-18 0 -27.5 8t-14.5 25q-12 41 -25 91t-25.5 104t-25 109.5t-23.5 109.5q-2 7 -3.5 16.5t-1.5 14.5q0 12 21 12h48q20 0 23 -17
q16 -93 37 -195t43 -190h4q22 85 41.5 171.5t38.5 177.5q3 17 11 23t27 6h54q18 0 26 -6t12 -23q18 -91 37.5 -177.5t41.5 -171.5h4q22 88 43 190t37 195q3 17 23 17h48q21 0 21 -12q0 -5 -1.5 -14.5t-3.5 -16.5q-11 -54 -23.5 -109.5t-25 -109.5t-25.5 -104t-25 -91
q-5 -17 -14 -25t-27 -8h-50zM358 723q7 0 11.5 -1.5t9.5 -7.5l98 -114q3 -4 5 -6.5t2 -6.5q0 -6 -8 -12l-23 -16q-11 -8 -17 -8t-14 8l-85 87h-4l-85 -87q-8 -8 -14 -8t-17 8l-23 16q-8 6 -8 12q0 4 2 6.5t5 6.5l98 114q5 6 9.5 7.5t11.5 1.5h46z" />
    <glyph glyph-name="wdieresis" unicode="&#x1e85;" horiz-adv-x="671" 
d="M461 0q-17 0 -27.5 6.5t-15.5 26.5q-24 88 -44 171.5t-35 162.5h-6q-15 -79 -35.5 -162.5t-43.5 -171.5q-5 -20 -15.5 -26.5t-28.5 -6.5h-49q-18 0 -27.5 8t-14.5 25q-12 41 -25 91t-25.5 104t-25 109.5t-23.5 109.5q-2 7 -3.5 16.5t-1.5 14.5q0 12 21 12h48q20 0 23 -17
q16 -93 37 -195t43 -190h4q22 85 41.5 171.5t38.5 177.5q3 17 11 23t27 6h54q18 0 26 -6t12 -23q18 -91 37.5 -177.5t41.5 -171.5h4q22 88 43 190t37 195q3 17 23 17h48q21 0 21 -12q0 -5 -1.5 -14.5t-3.5 -16.5q-11 -54 -23.5 -109.5t-25 -109.5t-25.5 -104t-25 -91
q-5 -17 -14 -25t-27 -8h-50zM308 628q0 -48 -49 -48h-10q-23 0 -35.5 12.5t-12.5 35.5v16q0 23 12.5 35.5t35.5 12.5h10q49 0 49 -48v-16zM471 628q0 -48 -49 -48h-10q-23 0 -35.5 12.5t-12.5 35.5v16q0 23 12.5 35.5t35.5 12.5h10q49 0 49 -48v-16z" />
    <glyph glyph-name="ygrave" unicode="&#x1ef3;" horiz-adv-x="439" 
d="M127 -156q0 4 2.5 9.5t9.5 19.5q13 26 28.5 59.5t29.5 69.5q-45 9 -69 72q-12 32 -26 73.5t-27.5 88t-26.5 97t-24 101.5q-3 15 -5 26t-2 18q0 12 16 12h57q17 0 20 -15q20 -99 42.5 -188t42.5 -149q9 -26 15 -38.5t15 -12.5h4q30 90 57 191t45 197q3 15 20 15h59
q14 0 14 -10q0 -5 -1.5 -12.5t-5.5 -24.5q-17 -73 -35.5 -142t-42 -142t-55 -154.5t-73.5 -178.5q-7 -15 -14 -15q-6 0 -11 1.5t-16 6.5l-27 11q-16 6 -16 14zM302 618q12 -7 12 -13q0 -5 -6 -15l-15 -25q-7 -12 -14 -12q-5 0 -17 5l-166 77q-9 5 -12 8t-3 8q0 6 9 21l21 35
q4 7 7 9t7 2q6 0 15 -5z" />
    <glyph glyph-name="yacute" unicode="&#xfd;" horiz-adv-x="439" 
d="M127 -156q0 4 2.5 9.5t9.5 19.5q13 26 28.5 59.5t29.5 69.5q-45 9 -69 72q-12 32 -26 73.5t-27.5 88t-26.5 97t-24 101.5q-3 15 -5 26t-2 18q0 12 16 12h57q17 0 20 -15q20 -99 42.5 -188t42.5 -149q9 -26 15 -38.5t15 -12.5h4q30 90 57 191t45 197q3 15 20 15h59
q14 0 14 -10q0 -5 -1.5 -12.5t-5.5 -24.5q-17 -73 -35.5 -142t-42 -142t-55 -154.5t-73.5 -178.5q-7 -15 -14 -15q-6 0 -11 1.5t-16 6.5l-27 11q-16 6 -16 14zM320 713q9 5 15 5q4 0 7 -2t7 -9l21 -35q9 -15 9 -21q0 -5 -3 -8t-12 -8l-166 -77q-12 -5 -17 -5q-7 0 -14 12
l-15 25q-6 10 -6 15q0 6 12 13z" />
    </font>
</defs>
</svg>
