<?xml version="1.0" standalone="no"?>
<!DOCTYPE svg PUBLIC "-//W3C//DTD SVG 1.1//EN" "http://www.w3.org/Graphics/SVG/1.1/DTD/svg11.dtd" >
<svg xmlns="http://www.w3.org/2000/svg">
<metadata>
Copyright (c) 2011 by Fontsmith Ltd. All rights reserved.
</metadata>
<defs>
<font id="FSJoeyWeb-BoldItalic" horiz-adv-x="540" >
  <font-face 
    font-family="FS Joey Web"
    font-weight="700"
    font-style="italic"
    font-stretch="normal"
    units-per-em="1000"
    panose-1="2 0 8 6 4 0 0 9 0 4"
    ascent="750"
    descent="-250"
    x-height="490"
    cap-height="647"
    bbox="-236.242 -285.125 1112 1081.5"
    underline-thickness="50"
    underline-position="-50"
    unicode-range="U+000D-FB02"
  />
<missing-glyph horiz-adv-x="535" 
d="M20 693h495v-693h-495v693zM436 644h-337l169 -253zM466 94v505l-169 -252zM436 50l-168 252l-169 -252h337zM70 94l168 253l-168 252v-505z" />
    <glyph glyph-name="fi" unicode="fi" horiz-adv-x="568" 
d="M163 88q-14 -75 -28.5 -133t-33.5 -111q-5 -13 -12 -17t-24 -4h-55q-17 0 -22.5 5.5t-0.5 19.5q18 54 31.5 110.5t24.5 116.5l56 315h-55q-22 0 -18 22l8 42q2 11 7 15t17 6l57 10l7 39q17 85 77.5 123.5t164.5 38.5q38 0 71 -5t52 -11q16 -6 11 -22l-17 -58
q-3 -11 -8.5 -13.5t-17.5 0.5q-20 5 -46.5 8t-56.5 3q-52 0 -79 -16.5t-34 -54.5l-5 -27h271q17 0 21.5 -5t1.5 -20l-86 -440q-3 -15 -9.5 -20t-23.5 -5h-63q-17 0 -21.5 5t-1.5 20l71 365h-178z" />
    <glyph glyph-name="fl" unicode="fl" horiz-adv-x="602" 
d="M431 578q-17 5 -40 8t-44 3q-50 0 -75 -14t-33 -58l-5 -27h95q14 0 17.5 -4.5t1.5 -17.5l-11 -58q-2 -11 -8 -15.5t-21 -4.5h-92l-53 -302q-14 -75 -28.5 -133t-33.5 -111q-5 -13 -12 -17t-24 -4h-55q-17 0 -22.5 5.5t-0.5 19.5q18 54 31.5 110.5t24.5 116.5l56 315h-55
q-22 0 -18 22l8 42q2 11 7 15t17 6l58 10l7 39q16 87 68.5 124.5t149.5 37.5q29 0 63.5 -4t60.5 -10l76 5q15 1 20.5 -4t2.5 -21l-97 -502q-2 -14 -3.5 -22.5t-1.5 -16.5q0 -7 5 -10t19 -3h30q14 0 17.5 -5t0.5 -19l-10 -50q-2 -14 -8 -19t-19 -5h-67q-51 0 -72 17.5
t-21 48.5q0 17 2 34.5t7 42.5z" />
    <glyph glyph-name=".notdef" horiz-adv-x="535" 
d="M20 693h495v-693h-495v693zM436 644h-337l169 -253zM466 94v505l-169 -252zM436 50l-168 252l-169 -252h337zM70 94l168 253l-168 252v-505z" />
    <glyph glyph-name=".null" horiz-adv-x="0" 
 />
    <glyph glyph-name=".null" horiz-adv-x="0" 
 />
    <glyph glyph-name="nonmarkingreturn" unicode="&#xd;" horiz-adv-x="225" 
 />
    <glyph glyph-name="space" unicode=" " horiz-adv-x="225" 
 />
    <glyph glyph-name="nonbreakingspace" unicode="&#xa0;" horiz-adv-x="225" 
 />
    <glyph glyph-name="A" unicode="A" horiz-adv-x="569" 
d="M314 519q-32 -64 -64.5 -131t-64.5 -134h166q-5 67 -11.5 134t-13.5 131h-12zM79 26q-8 -17 -18 -21.5t-30 -4.5h-53q-20 0 -30 3t-1 23q36 76 75.5 156.5t79 157t77 146.5t68.5 125q13 23 27.5 29.5t45.5 6.5h49q31 0 44 -6.5t17 -29.5q10 -59 20 -129t19.5 -146
t17.5 -155t14 -155q2 -20 -9 -23t-32 -3h-53q-20 0 -28 4.5t-10 21.5l-9 123h-224z" />
    <glyph glyph-name="B" unicode="B" horiz-adv-x="557" 
d="M302 656q40 0 78 -6t68 -21t48 -41t18 -65q0 -137 -110 -181v-2q45 -10 70.5 -37.5t25.5 -78.5q0 -66 -23.5 -109.5t-63.5 -69.5q-35 -23 -89 -34t-133 -11q-48 0 -88 2.5t-66 5.5q-18 2 -24 10.5t-1 31.5l109 565q3 16 11 23t24 9q54 9 146 9zM151 119q-2 -7 -0.5 -10
t9.5 -5q9 -2 24.5 -2.5t29.5 -0.5q42 0 69.5 6.5t43.5 17.5q19 13 30 35.5t11 50.5q0 47 -27 62t-90 15h-67zM300 554h-30.5t-23.5 -1q-11 -1 -14 -15l-30 -153h60q60 0 91 29t31 83q0 35 -19.5 46t-64.5 11z" />
    <glyph glyph-name="C" unicode="C" horiz-adv-x="544" 
d="M357 656q48 0 91.5 -11t74.5 -28q15 -7 5 -30l-27 -56q-8 -18 -27 -8q-22 11 -51.5 19t-62.5 8q-65 0 -96 -21q-29 -20 -44.5 -56t-26.5 -100q-5 -29 -10.5 -59t-9.5 -56.5t-6.5 -48.5t-2.5 -35q0 -21 6 -36.5t21 -25.5q26 -17 90 -17q30 0 67.5 7t66.5 17q12 4 18.5 1
t8.5 -17l9 -50q3 -15 -2.5 -22t-19.5 -12q-38 -14 -85.5 -21t-91.5 -7q-117 0 -167.5 37.5t-50.5 112.5q0 21 3 50t8.5 63t12.5 72t15 77q17 84 40.5 132.5t61.5 75.5q29 21 72.5 33t109.5 12z" />
    <glyph glyph-name="D" unicode="D" horiz-adv-x="608" 
d="M318 551h-38t-31 -1q-16 -1 -19 -18l-80 -412q-2 -11 1.5 -15t15.5 -4h38q90 0 141 38t71 118q14 53 21 101.5t7 83.5q0 60 -29.5 84.5t-97.5 24.5zM41 0q-23 0 -30 6.5t-3 26.5l112 581q3 17 11.5 23.5t22.5 8.5q26 2 64.5 4t91.5 2q83 0 134.5 -16t78.5 -45
q24 -26 35 -59.5t11 -68.5q0 -24 -3 -54.5t-8 -62.5t-10.5 -62t-11.5 -53q-14 -57 -40 -100t-67.5 -72t-101 -44t-140.5 -15h-146z" />
    <glyph glyph-name="E" unicode="E" horiz-adv-x="498" 
d="M165 282q-3 -18 -7 -41t-7.5 -45.5t-5.5 -42t-2 -29.5q0 -13 5.5 -17t21.5 -4h220q14 0 18.5 -4.5t2.5 -19.5l-9 -57q-2 -12 -7.5 -17t-20.5 -5h-293q-66 0 -66 61q0 44 9.5 109t23.5 147q9 53 21.5 113.5t25.5 116.5q7 31 20 50t27 29q20 14 40 17.5t52 3.5h248
q14 0 18 -5t2 -19l-11 -60q-2 -11 -8 -15t-21 -4h-211q-15 0 -24 -6.5t-14 -23.5q-7 -26 -14 -60t-14 -69h224q14 0 18.5 -5t1.5 -19l-13 -60q-2 -12 -8.5 -15.5t-20.5 -3.5h-222z" />
    <glyph glyph-name="F" unicode="F" horiz-adv-x="495" 
d="M181 275l-49 -250q-3 -16 -9 -20.5t-23 -4.5h-72q-17 0 -21 5t-1 20l99 510q7 35 17.5 55t27.5 33t38 18.5t53 5.5h227q14 0 18 -5t2 -19l-11 -60q-2 -11 -7.5 -15t-19.5 -4h-187q-19 0 -26 -7t-11 -26l-25 -133h208q14 0 18 -5t2 -19l-11 -60q-2 -12 -7.5 -15.5
t-19.5 -3.5h-210z" />
    <glyph glyph-name="G" unicode="G" horiz-adv-x="593" 
d="M551 613q8 -4 9.5 -9.5t-3.5 -17.5l-28 -59q-5 -10 -12 -11t-15 3q-29 14 -65 23.5t-75 9.5q-71 0 -109 -34q-27 -23 -42 -62t-28 -106q-11 -55 -17 -99t-6 -74q0 -21 5.5 -36t18.5 -25.5t35 -15.5t56 -5q23 0 42.5 2t32.5 5q10 2 14 5.5t6 13.5l27 142h-64
q-11 0 -15 4.5t-2 16.5l13 68q2 10 6 12.5t15 2.5h169q14 0 18 -5t2 -17l-58 -299q-3 -14 -8.5 -20t-18.5 -10q-36 -11 -85 -18t-101 -7q-125 0 -178.5 39.5t-53.5 125.5q0 38 9.5 98t22.5 129q16 86 42 139.5t59 79.5q32 26 80 40t111 14q53 0 103.5 -12.5t87.5 -30.5z" />
    <glyph glyph-name="H" unicode="H" horiz-adv-x="627" 
d="M503 25q-3 -16 -9 -20.5t-23 -4.5h-72q-17 0 -21 4.5t-1 20.5l49 252h-244l-49 -252q-3 -16 -9 -20.5t-23 -4.5h-72q-17 0 -21 4.5t-1 20.5l116 597q3 16 9 20.5t23 4.5h72q17 0 21 -4.5t1 -20.5l-47 -242h244l47 242q3 16 9 20.5t23 4.5h72q17 0 21 -4.5t1 -20.5z" />
    <glyph glyph-name="I" unicode="I" horiz-adv-x="270" 
d="M137 25q-3 -14 -9.5 -19.5t-22.5 -5.5h-72q-17 0 -21 5.5t-1 19.5l116 597q3 16 9 20.5t23 4.5h72q17 0 21 -5t1 -20z" />
    <glyph glyph-name="J" unicode="J" horiz-adv-x="342" 
d="M251 206q-11 -58 -25.5 -96.5t-41.5 -63.5q-29 -26 -66 -36t-87 -10h-45q-17 0 -20 4.5t-1 15.5l13 69q2 10 6 13t15 3h38q20 0 35.5 6t25.5 19q5 6 8.5 12.5t6.5 15.5t6 21.5t7 31.5l80 411q3 16 9 20.5t23 4.5h72q17 0 21 -4.5t1 -20.5z" />
    <glyph glyph-name="K" unicode="K" horiz-adv-x="557" 
d="M132 25q-3 -16 -9 -20.5t-23 -4.5h-72q-16 0 -20.5 4.5t-1.5 20.5l116 597q3 16 9 20.5t23 4.5h72q17 0 21 -4.5t1 -20.5l-47 -242h22q18 0 30 15l200 238q8 8 15 11t21 3h85q16 0 20 -6.5t-6 -17.5l-232 -273q-9 -11 -13.5 -19t-4.5 -16q0 -9 6 -21.5t13 -25.5l130 -243
q5 -11 0 -18t-19 -7h-75q-18 0 -24.5 4t-11.5 15l-122 243q-7 15 -25 15h-29z" />
    <glyph glyph-name="L" unicode="L" horiz-adv-x="436" 
d="M151 113q0 -10 16 -10h168q15 0 19.5 -5t2.5 -19l-10 -55q-2 -14 -8.5 -19t-23.5 -5h-239q-61 0 -61 47q0 23 6 52l102 523q3 16 9 20.5t23 4.5h72q17 0 21 -4.5t1 -20.5l-90 -461q-5 -23 -6.5 -33t-1.5 -15z" />
    <glyph glyph-name="M" unicode="M" horiz-adv-x="785" 
d="M320 81q-22 0 -31.5 5t-11.5 17q-8 41 -16 89t-16 97.5t-15.5 98.5t-13.5 93h-6q-10 -52 -21.5 -109t-23 -116t-23.5 -118t-23 -115q-3 -14 -9 -18.5t-21 -4.5h-73q-15 0 -20 4.5t-2 18.5q16 74 34 151.5t35.5 154t35 149.5t34.5 138q5 18 15.5 24.5t38.5 6.5h64
q30 0 39.5 -4t12.5 -25q14 -109 29.5 -216t29.5 -193h5q25 46 53 97.5t56.5 104.5t56 105.5t52.5 100.5q5 10 9.5 16t11 9t16 4t24.5 1h73q28 0 36.5 -5t5.5 -28q-19 -134 -42.5 -284.5t-49.5 -306.5q-2 -15 -8.5 -19t-25.5 -4h-69q-26 0 -22 23q21 112 44 230t43 228h-6
q-24 -46 -50.5 -95l-53 -98t-52.5 -96t-50 -89q-11 -19 -22 -20.5t-30 -1.5h-47z" />
    <glyph glyph-name="N" unicode="N" horiz-adv-x="641" 
d="M122 21q-2 -13 -7 -17t-22 -4h-65q-17 0 -21 3.5t-2 16.5l117 602q3 15 9 20t23 5h72q17 0 23 -5t11 -16l164 -435h4l84 435q2 13 7 17t22 4h65q17 0 21 -3.5t2 -16.5l-117 -602q-3 -16 -8.5 -20.5t-22.5 -4.5h-65q-17 0 -25.5 5t-13.5 16l-169 426h-4z" />
    <glyph glyph-name="O" unicode="O" horiz-adv-x="618" 
d="M356 552q-35 0 -61.5 -10t-46 -31.5t-34 -55.5t-25.5 -83q-14 -63 -21 -109.5t-7 -81.5q0 -86 100 -86q65 0 100.5 34t55.5 109q17 67 26.5 123.5t9.5 88.5q0 55 -24.5 78.5t-72.5 23.5zM366 656q100 0 156.5 -42.5t56.5 -139.5q0 -36 -11 -100t-30 -145
q-29 -127 -98 -182.5t-191 -55.5q-47 0 -85.5 10t-66 31t-43 54t-15.5 78q0 39 9 98t23 128q15 72 39 123t59 82.5t83.5 46t113.5 14.5z" />
    <glyph glyph-name="P" unicode="P" horiz-adv-x="550" 
d="M298 554h-25.5t-26.5 -2q-11 -2 -14 -14l-40 -206h60q61 0 93 18t46 63q6 20 9 41t3 34q0 38 -23.5 52t-81.5 14zM132 25q-3 -16 -8.5 -20.5t-22.5 -4.5h-72q-17 0 -21.5 4.5t-1.5 20.5l114 582q5 23 13.5 31t29.5 11q28 4 66 5.5t82 1.5q52 0 93 -7t69.5 -23.5t43 -44
t14.5 -69.5q0 -12 -2 -28.5t-5 -35t-7 -37t-8 -33.5q-21 -78 -85 -114.5t-175 -36.5h-77z" />
    <glyph glyph-name="Q" unicode="Q" horiz-adv-x="618" 
d="M366 656q100 0 156.5 -42.5t56.5 -139.5q0 -36 -11 -100t-30 -145q-23 -103 -71.5 -157.5t-129.5 -71.5q22 -32 52 -60t63 -50q11 -8 10.5 -14.5t-14.5 -15.5l-53 -35q-13 -8 -21.5 -8.5t-18.5 7.5q-38 29 -71.5 74t-54.5 94q-85 4 -137.5 45t-52.5 127q0 39 9 98t23 128
q15 72 39 123t59 82.5t83.5 46t113.5 14.5zM356 552q-35 0 -61.5 -10t-46 -31.5t-34 -55.5t-25.5 -83q-14 -63 -21 -109.5t-7 -81.5q0 -86 100 -86q65 0 100.5 34t55.5 109q17 67 26.5 123.5t9.5 88.5q0 55 -24.5 78.5t-72.5 23.5z" />
    <glyph glyph-name="R" unicode="R" horiz-adv-x="557" 
d="M302 554h-32t-23 -2q-12 -1 -15 -14l-35 -180h55q29 0 51.5 2.5t39 10.5t28 22.5t18.5 37.5q5 15 7.5 32t2.5 29q0 38 -23 50t-74 12zM132 25q-3 -16 -8.5 -20.5t-22.5 -4.5h-72q-29 0 -23 25l113 581q5 23 14 31t30 11q12 1 29 2.5t36 3t38 2t36 0.5q47 0 88.5 -5
t72.5 -20.5t49 -43.5t18 -73q0 -10 -1.5 -24.5t-4 -30.5t-6 -31.5t-7.5 -28.5q-17 -57 -53 -89t-90 -44l100 -237q5 -12 0 -20.5t-24 -8.5h-72q-18 0 -25.5 5.5t-12.5 16.5l-77 216q-4 11 -9.5 14t-16.5 3h-54z" />
    <glyph glyph-name="S" unicode="S" horiz-adv-x="510" 
d="M211 -9q-54 0 -103 8t-84 20q-13 5 -18 11.5t-1 21.5l14 54q4 14 12.5 17t19.5 -1q35 -12 75.5 -20t75.5 -8q48 0 78.5 11t41.5 46q4 12 7.5 29.5t3.5 28.5q0 22 -9.5 34t-37.5 20l-118 32q-52 14 -75.5 44.5t-23.5 69.5q0 29 6 62t13 57q19 67 73.5 97.5t150.5 30.5
q25 0 49.5 -2.5t46 -6t39.5 -8t30 -8.5q11 -4 14 -9.5t-2 -19.5l-21 -61q-7 -19 -30 -11q-28 9 -64.5 15.5t-66.5 6.5q-47 0 -69.5 -11t-31.5 -40q-4 -12 -7.5 -25.5t-3.5 -24.5q0 -22 11.5 -36t46.5 -23l115 -32q93 -26 93 -120q0 -25 -6.5 -60t-14.5 -60q-21 -69 -76 -99
t-153 -30z" />
    <glyph glyph-name="T" unicode="T" horiz-adv-x="482" 
d="M504 647q14 0 18 -5.5t2 -18.5l-11 -61q-2 -11 -7.5 -14.5t-17.5 -3.5h-144l-101 -519q-3 -16 -9 -20.5t-23 -4.5h-72q-17 0 -21 4.5t-1 20.5l101 519h-140q-14 0 -18 5.5t-2 18.5l11 61q2 11 7.5 14.5t17.5 3.5h410z" />
    <glyph glyph-name="U" unicode="U" horiz-adv-x="614" 
d="M531 219q-6 -32 -14 -58t-18.5 -47t-24.5 -38t-32 -32q-35 -28 -84 -40.5t-110 -12.5q-50 0 -90.5 8t-69 26.5t-43.5 49t-15 74.5q0 32 11 90l74 383q3 16 8 20.5t22 4.5h74q17 0 21 -4.5t1 -20.5l-77 -397q-2 -14 -4 -27t-2 -28q0 -11 3 -24.5t11 -23.5q11 -13 32 -20
t56 -7t58.5 8t42.5 25q16 14 27.5 40.5t17.5 56.5l77 397q3 16 8 20.5t22 4.5h74q17 0 21 -4.5t1 -20.5z" />
    <glyph glyph-name="V" unicode="V" horiz-adv-x="551" 
d="M174 0q-24 0 -33 7.5t-12 24.5q-10 63 -19 136.5t-17 150.5t-14.5 154.5t-9.5 150.5q0 13 6.5 18t23.5 5h68q16 0 21.5 -3.5t6.5 -19.5q2 -61 5.5 -125t8 -127t10.5 -123t13 -113h7q27 52 56 112t58.5 123t57.5 127.5t53 125.5q7 16 14.5 19.5t23.5 3.5h72q31 0 20 -23
q-32 -74 -69 -152.5t-75 -156t-75.5 -150t-70.5 -133.5q-9 -17 -21 -24.5t-36 -7.5h-73z" />
    <glyph glyph-name="W" unicode="W" horiz-adv-x="819" 
d="M494 611q20 0 27.5 -5t8.5 -22q1 -51 2 -111t2.5 -120t2.5 -117.5t3 -104.5h5q40 101 90 227.5t101 265.5q6 16 14 19.5t24 3.5h69q17 0 21 -5t-1 -18q-30 -76 -63.5 -158.5t-66.5 -161.5t-63 -150.5t-54 -125.5q-8 -17 -20.5 -22.5t-36.5 -5.5h-71q-24 0 -34 5.5
t-11 22.5q-3 46 -5 97.5t-3 105.5t-1.5 108t-0.5 104h-5q-20 -50 -41.5 -104t-43.5 -108t-44 -105.5t-43 -97.5q-8 -17 -20.5 -22.5t-36.5 -5.5h-75q-24 0 -34 5.5t-11 22.5q-3 54 -4.5 125.5t-3 150.5t-2.5 161.5t-1 158.5q1 13 7 18t23 5h69q16 0 22 -3.5t6 -19.5
q-2 -139 -4 -265.5t-1 -227.5h5q19 47 42.5 104.5t48 117.5l49 120t45.5 111q7 17 16.5 22t29.5 5h68z" />
    <glyph glyph-name="X" unicode="X" horiz-adv-x="575" 
d="M107 21q-8 -13 -17 -17t-25 -4h-76q-16 0 -19 7t5 18l183 279q8 11 13 19.5t5 16.5q0 10 -7 32l-80 252q-6 23 25 23h70q16 0 23 -3t11 -16l57 -214q5 -20 9.5 -26t10.5 -6h7q7 0 13.5 6t18.5 26l133 214q8 13 17 16t25 3h76q17 0 20 -5.5t-5 -17.5l-172 -261
q-8 -12 -15.5 -23t-7.5 -21q0 -5 3 -15.5t6 -18.5l91 -260q8 -25 -25 -25h-69q-16 0 -23 4t-11 17l-67 226q-6 20 -10 26t-12 6h-7q-8 0 -15 -7.5t-18 -24.5z" />
    <glyph glyph-name="Y" unicode="Y" horiz-adv-x="499" 
d="M246 25q-3 -16 -9 -20.5t-23 -4.5h-72q-17 0 -21 4.5t-1 20.5l36 184q-35 94 -59.5 198.5t-35.5 218.5q-2 13 5 17t24 4h65q16 0 21.5 -2.5t7.5 -18.5q6 -75 18 -155.5t30 -155.5h7q25 39 50.5 80t48.5 81.5t43.5 78.5t35.5 71q8 16 14.5 18.5t22.5 2.5h67q17 0 22 -4
t-1 -17q-49 -106 -116.5 -216t-145.5 -208z" />
    <glyph glyph-name="Z" unicode="Z" horiz-adv-x="511" 
d="M389 103q17 0 21 -5t1 -19l-10 -55q-3 -14 -9 -19t-23 -5h-369q-18 0 -25 6t-3 24l6 32q2 9 8 17.5t17 20.5l358 444h-241q-17 0 -21 5t-1 19l10 55q3 14 9 19t23 5h366q16 0 22 -5t3 -20l-6 -30q-2 -11 -7 -19.5t-19 -25.5l-362 -444h252z" />
    <glyph glyph-name="a" unicode="a" horiz-adv-x="495" 
d="M298 214q-13 1 -27 1.5t-29 0.5h-28q-35 0 -52.5 -11t-26.5 -39q-5 -14 -7.5 -27t-2.5 -24q0 -29 51 -29h23q41 0 60.5 16.5t27.5 54.5zM284 42q-17 -24 -47.5 -37.5t-78.5 -13.5h-32q-55 0 -85.5 26t-30.5 69q0 24 6 54.5t15 60.5q19 61 68 85.5t129 24.5h34
q14 0 27.5 -1t26.5 -2l3 14q2 11 4 22.5t2 20.5q0 23 -19 29.5t-56 6.5q-23 0 -56.5 -5.5t-64.5 -13.5q-19 -4 -22 16l-6 47q-2 14 2.5 20t18.5 10q32 10 77 17t88 7q47 0 76.5 -7.5t51.5 -24.5q17 -13 25 -31t8 -45q0 -23 -6 -56l-62 -316q-4 -19 -24 -19h-48q-20 0 -21 18
l-1 24h-2z" />
    <glyph glyph-name="b" unicode="b" horiz-adv-x="529" 
d="M340 208q9 48 15.5 84t6.5 50q0 33 -15 46.5t-61 13.5q-48 0 -74.5 -25t-38.5 -85l-17 -85q-5 -24 -7 -41.5t-2 -33.5q0 -19 16 -32t58 -13q32 0 51.5 6.5t32.5 19.5q14 13 20.5 34.5t14.5 60.5zM205 463h3q23 17 54 26.5t73 9.5q70 0 110.5 -29t40.5 -95q0 -31 -9.5 -82
t-22.5 -120q-10 -54 -29 -89t-49 -55.5t-71.5 -29t-95.5 -8.5q-99 0 -141.5 30t-42.5 88q0 21 4 49.5t11 63.5l84 430q3 15 9.5 20t23.5 5h63q17 0 21.5 -5t1.5 -20z" />
    <glyph glyph-name="c" unicode="c" horiz-adv-x="449" 
d="M356 37q2 -11 -1.5 -16.5t-12.5 -8.5q-25 -8 -65 -14.5t-82 -6.5q-94 0 -135.5 31t-41.5 100q0 15 2.5 37t6.5 46.5t8.5 50.5t9.5 48q14 67 35 102t53 57q25 17 60.5 26.5t83.5 9.5q35 0 74.5 -9.5t70.5 -24.5q8 -4 9 -10t-4 -15l-28 -57q-9 -16 -26 -7q-20 10 -45 16.5
t-48 6.5q-26 0 -43 -5.5t-30 -15.5q-16 -13 -27.5 -37t-20.5 -68q-5 -26 -9 -46t-6 -35t-3 -27t-1 -23q0 -29 20 -40.5t60 -11.5q26 0 54.5 3.5t48.5 9.5q12 4 18 1.5t8 -13.5z" />
    <glyph glyph-name="d" unicode="d" horiz-adv-x="530" 
d="M341 295q3 17 4.5 29t1.5 25q0 25 -15.5 40t-57.5 15q-47 0 -70 -23q-14 -14 -25 -39t-20 -70q-11 -53 -15.5 -84t-4.5 -51q0 -23 15.5 -36t53.5 -13q31 0 48.5 5t30.5 16t20 28t12 46zM437 178q-11 -54 -25 -88t-40 -55t-68.5 -32.5t-114.5 -11.5q-88 0 -129 33t-41 98
q0 29 6 72t20 107q12 55 30 93t44 61.5t61.5 33.5t80.5 10q35 0 64.5 -8.5t46.5 -22.5h3l36 184q3 15 9.5 20t23.5 5h63q17 0 21.5 -5t1.5 -20z" />
    <glyph glyph-name="e" unicode="e" horiz-adv-x="478" 
d="M424 217q-3 -16 -10 -22.5t-23 -6.5h-248q-2 -12 -3.5 -24t-1.5 -23t5 -21.5t16 -17.5q19 -12 80 -12q25 0 57.5 5t55.5 12q10 3 16 1.5t8 -13.5l8 -53q2 -12 -2.5 -17t-15.5 -9q-34 -11 -75 -18t-82 -7q-52 0 -88 8t-58.5 24t-33 40.5t-10.5 56.5q0 33 8 83t19 104
q11 55 30.5 91.5t48 59t66 32t84.5 9.5q84 0 127.5 -33t43.5 -96q0 -32 -6 -66.5t-16 -86.5zM262 405q-22 0 -36.5 -5.5t-25.5 -16.5q-14 -14 -22.5 -37t-16.5 -64h143q8 0 10.5 3t4.5 11q3 14 5 28t2 25q0 23 -8 36q-14 20 -56 20z" />
    <glyph glyph-name="f" unicode="f" horiz-adv-x="339" 
d="M163 88q-14 -75 -28.5 -133t-33.5 -111q-5 -13 -12 -17t-24 -4h-55q-17 0 -22.5 5.5t-0.5 19.5q18 54 31.5 110.5t24.5 116.5l56 315h-55q-22 0 -18 22l8 42q2 11 7 15t17 6l57 10l7 39q6 27 12 47t14 35t18 26.5t23 21.5q20 15 52.5 23.5t76.5 8.5q21 0 46 -3t44 -8
q11 -3 13.5 -8t-0.5 -16l-16 -56q-7 -19 -24 -14q-11 3 -26.5 5.5t-31.5 2.5q-33 0 -51 -11q-11 -7 -20 -21t-14 -40l-5 -27h96q14 0 17.5 -4.5t1.5 -17.5l-11 -58q-2 -11 -8 -15.5t-21 -4.5h-92z" />
    <glyph glyph-name="g" unicode="g" horiz-adv-x="509" 
d="M412 16q-12 -61 -30 -100.5t-45 -62t-65 -31.5t-89 -9q-41 0 -78.5 6t-58.5 13q-18 5 -12 25l15 54q3 11 9.5 13t16.5 -1q19 -6 47.5 -10.5t52.5 -4.5q60 0 87 21t38 75l8 34h-3q-23 -24 -54.5 -35.5t-79.5 -11.5q-79 0 -115.5 31.5t-36.5 93.5q0 31 7 81.5t22 114.5
q12 54 30 89.5t44 57.5t62 31t84 9q50 0 82.5 -13t47.5 -36h2l11 24q5 10 10.5 13t18.5 3h39q24 0 20 -23zM276 404q-49 0 -72 -22q-12 -11 -23.5 -37.5t-21.5 -71.5q-11 -50 -15.5 -83t-4.5 -54q0 -23 14.5 -35.5t51.5 -12.5q32 0 52 7t36 22q11 11 19 28t13 43l19 94
q5 23 7 38.5t2 29.5q0 27 -17.5 40.5t-59.5 13.5z" />
    <glyph glyph-name="h" unicode="h" horiz-adv-x="526" 
d="M350 301q6 28 6 48q0 53 -68 53q-29 0 -45 -4.5t-28 -13.5q-11 -9 -19.5 -23.5t-14.5 -45.5l-55 -290q-3 -15 -9.5 -20t-23.5 -5h-63q-17 0 -21 6.5t-2 18.5l119 627q3 15 9.5 20t23.5 5h63q17 0 21.5 -5t1.5 -20l-35 -185h2q50 32 127 32q64 0 101.5 -29.5t37.5 -84.5
q0 -23 -3 -47t-9 -54l-49 -259q-3 -15 -9.5 -20t-23.5 -5h-63q-17 0 -21.5 5t-1.5 20z" />
    <glyph glyph-name="i" unicode="i" horiz-adv-x="245" 
d="M246 611q-14 -70 -82 -70h-5q-38 0 -51.5 18t-6.5 52l1 6q7 36 29.5 52.5t54.5 16.5h5q31 0 47 -16.5t9 -52.5zM119 25q-3 -15 -9.5 -20t-23.5 -5h-63q-17 0 -21.5 5t-1.5 20l86 440q2 15 8.5 20t23.5 5h63q17 0 21.5 -5t2.5 -20z" />
    <glyph glyph-name="j" unicode="j" horiz-adv-x="245" 
d="M130 32q-11 -57 -27 -95t-45 -66q-51 -48 -142 -48h-44q-13 0 -16.5 4.5t-1.5 14.5l12 61q3 19 23 19h15q24 0 41 4.5t28 15.5q14 13 22.5 36t16.5 60l83 427q3 15 9.5 20t23.5 5h63q17 0 21.5 -5t1.5 -20zM255 611q-14 -70 -82 -70h-5q-38 0 -51.5 18t-6.5 52l1 6
q7 36 29.5 52.5t54.5 16.5h5q31 0 47 -16.5t9 -52.5z" />
    <glyph glyph-name="k" unicode="k" horiz-adv-x="456" 
d="M116 25q-3 -15 -9.5 -20t-23.5 -5h-63q-16 0 -20.5 5.5t-2.5 19.5l121 627q3 15 9.5 20t23.5 5h63q17 0 21.5 -5t1.5 -20l-66 -342h16q7 0 12.5 3t13.5 13l128 148q8 10 15 13t21 3h81q31 0 10 -23l-168 -191q-8 -10 -8 -16q0 -4 1.5 -7.5t3.5 -7.5l99 -222
q11 -23 -16 -23h-72q-16 0 -22.5 3.5t-11.5 17.5l-74 173q-4 9 -8.5 11.5t-12.5 2.5h-28z" />
    <glyph glyph-name="l" unicode="l" horiz-adv-x="283" 
d="M148 150q-2 -14 -3.5 -22.5t-1.5 -16.5q0 -7 5 -10t19 -3h30q14 0 17.5 -5t0.5 -19l-10 -50q-2 -14 -8 -19t-19 -5h-67q-51 0 -72 17.5t-21 48.5q0 17 2 34.5t7 42.5l99 509q3 15 9.5 20t23.5 5h63q17 0 21.5 -5t1.5 -20z" />
    <glyph glyph-name="m" unicode="m" horiz-adv-x="807" 
d="M697 25q-3 -15 -9.5 -20t-23.5 -5h-63q-17 0 -21.5 5t-1.5 20l54 278q5 28 5 42q0 21 -9 35q-15 22 -56 22q-27 0 -51.5 -10t-44.5 -27q-2 -15 -4.5 -35t-7.5 -42l-51 -263q-3 -15 -9.5 -20t-23.5 -5h-63q-17 0 -21.5 5t-1.5 20l54 278q5 28 5 42q0 23 -10 36
q-10 11 -22.5 16t-36.5 5q-46 0 -68 -18q-11 -9 -19.5 -23.5t-14.5 -45.5l-57 -290q-3 -15 -9.5 -20t-23.5 -5h-63q-17 0 -21.5 5t-1.5 20l87 447q2 11 7.5 14.5t18.5 3.5h39q13 0 17.5 -3.5t4.5 -14.5v-24h3q28 23 64 37t81 14t77 -15t48 -41q35 26 76.5 41t87.5 15
q84 0 117 -42q25 -29 25 -84q0 -28 -9 -74z" />
    <glyph glyph-name="n" unicode="n" horiz-adv-x="526" 
d="M416 25q-3 -15 -9.5 -20t-23.5 -5h-63q-17 0 -21.5 5t-1.5 20l53 278q2 13 3.5 24t1.5 24q0 26 -15 38.5t-53 12.5q-50 0 -72 -18q-11 -9 -19.5 -23.5t-14.5 -45.5l-56 -290q-3 -15 -9.5 -20t-23.5 -5h-63q-17 0 -21.5 5t-1.5 20l86 442q4 23 29 23h37q13 0 17.5 -3.5
t4.5 -14.5v-24h3q26 22 60.5 36.5t91.5 14.5q66 0 104.5 -29t38.5 -94q0 -18 -2.5 -38t-6.5 -40z" />
    <glyph glyph-name="o" unicode="o" horiz-adv-x="500" 
d="M286 499q90 0 133.5 -36t43.5 -114q0 -32 -6.5 -71.5t-18.5 -96.5q-20 -94 -75 -142t-168 -48q-85 0 -130.5 36t-45.5 105q0 23 5.5 60t16.5 93q21 108 79 161t166 53zM274 404q-26 0 -45 -8t-33 -25t-24 -44t-18 -65q-8 -37 -12 -66.5t-4 -49.5q0 -26 17 -43t55 -17
q25 0 43 6t31.5 21.5t23.5 41.5t19 66q18 79 18 115q0 68 -71 68z" />
    <glyph glyph-name="p" unicode="p" horiz-adv-x="524" 
d="M159 203q-4 -20 -6.5 -37.5t-2.5 -31.5q0 -24 17.5 -35.5t59.5 -11.5q28 0 48 5.5t33 17.5t21 31.5t13 47.5q4 23 8.5 46t8.5 42.5t6 35t2 24.5q0 39 -16 52t-59 13q-27 0 -44.5 -5.5t-30.5 -16.5t-23 -29.5t-15 -44.5zM180 449h2q31 25 68 37.5t96 12.5q31 0 57.5 -6.5
t46 -21.5t30.5 -39.5t11 -60.5q0 -37 -9.5 -85t-21.5 -110q-11 -54 -28.5 -90t-44 -57t-61 -29.5t-79.5 -8.5t-75 8.5t-48 23.5l-34 -175q-3 -14 -10 -19.5t-21 -5.5h-65q-15 0 -20 6t-3 19l122 623q2 11 7 15t18 4h39q13 0 18 -3t5 -13v-25z" />
    <glyph glyph-name="q" unicode="q" horiz-adv-x="518" 
d="M411 474q5 10 10 13t18 3h41q13 0 17.5 -4.5t1.5 -18.5l-121 -619q-3 -15 -9.5 -20t-23.5 -5h-63q-17 0 -21 6t-2 19l36 178h-3q-41 -35 -121 -35q-77 0 -114.5 31t-37.5 90q0 43 8 90.5t19 101.5q12 55 31 92.5t46 60.5t61.5 32.5t78.5 9.5q57 0 88 -13t47 -36h2z
M277 404q-28 0 -44 -5t-28 -16q-30 -25 -46 -109q-8 -42 -14 -78t-6 -57q0 -26 14.5 -38.5t53.5 -12.5q54 0 84 27q23 20 34 73l17 86q5 24 8 43t3 31q0 56 -76 56z" />
    <glyph glyph-name="r" unicode="r" horiz-adv-x="345" 
d="M176 425h2q26 37 57.5 51t77.5 14h25q16 0 21 -4.5t2 -19.5l-11 -59q-3 -17 -26 -17h-24q-33 0 -53.5 -7.5t-32.5 -18.5q-14 -14 -23 -32.5t-17 -57.5l-48 -249q-3 -15 -9.5 -20t-23.5 -5h-63q-17 0 -21.5 5t-1.5 20l86 446q2 11 8 15t19 4h36q13 0 18 -3.5t4 -14.5z" />
    <glyph glyph-name="s" unicode="s" horiz-adv-x="433" 
d="M170 -9q-39 0 -81 7.5t-77 20.5q-11 4 -13 10.5t2 18.5l15 52q4 11 11 12.5t15 -1.5q26 -11 60 -17t60 -6q33 0 55 7t29 24q4 9 6 19.5t2 18.5q0 15 -9.5 23.5t-32.5 15.5l-75 22q-46 14 -66.5 39t-20.5 54q0 41 12 80q9 28 23.5 48.5t37 34t54 19.5t74.5 6
q35 0 69.5 -5.5t59.5 -13.5q12 -4 14 -9.5t-1 -16.5l-16 -57q-5 -17 -25 -11q-23 7 -50 11.5t-53 4.5q-40 0 -56.5 -8t-23.5 -27q-2 -5 -3.5 -13t-1.5 -13q0 -12 8.5 -20t29.5 -14l68 -17q19 -5 37.5 -12.5t32 -19t22 -27.5t8.5 -39q0 -18 -3.5 -42.5t-8.5 -42.5
q-18 -65 -62.5 -90.5t-125.5 -25.5z" />
    <glyph glyph-name="t" unicode="t" horiz-adv-x="362" 
d="M239 490h99q13 0 16 -5.5t0 -20.5l-10 -49q-2 -13 -7.5 -19t-18.5 -6h-99l-42 -220q-2 -10 -4 -21.5t-2 -23.5q0 -14 9.5 -20.5t41.5 -6.5h46q16 0 19.5 -5t0.5 -19l-10 -49q-3 -15 -8.5 -20t-20.5 -5h-70q-69 0 -100.5 20.5t-31.5 65.5q0 18 2.5 36t7.5 44l43 224h-60
q-11 0 -14.5 4t-1.5 15l9 44q2 12 6 15.5t14 5.5l66 11l20 105q3 15 9.5 20t23.5 5h63q17 0 21.5 -5t1.5 -20z" />
    <glyph glyph-name="u" unicode="u" horiz-adv-x="510" 
d="M429 165q-6 -31 -13 -53.5t-17 -39.5t-22.5 -29.5t-28.5 -21.5q-29 -17 -67 -23.5t-85 -6.5q-91 0 -132 26.5t-41 79.5q0 24 3 46t7 42l55 280q3 15 9 20t23 5h63q17 0 22 -5t2 -20l-55 -279q-2 -13 -4.5 -26.5t-2.5 -28.5q0 -18 14 -29t48 -11q51 0 72 14q5 4 9.5 8.5
t8.5 12.5t7.5 20t7.5 30l57 289q3 15 9 20t23 5h63q17 0 22 -5t2 -20z" />
    <glyph glyph-name="v" unicode="v" horiz-adv-x="464" 
d="M255 26q-9 -15 -19.5 -20.5t-27.5 -5.5h-68q-17 0 -25.5 5.5t-11.5 20.5q-9 46 -17.5 100.5t-16.5 112t-15 116t-11 112.5q-1 23 28 23h64q23 0 24 -21q6 -94 15 -179.5t20 -164.5h5q42 77 86 167t82 177q5 11 12 16t20 5h68q29 0 18 -23q-24 -55 -53 -114t-59.5 -116.5
t-60.5 -111.5t-57 -99z" />
    <glyph glyph-name="w" unicode="w" horiz-adv-x="681" 
d="M702 467q-21 -55 -47 -117.5t-52 -122.5t-50 -113t-42 -88q-8 -15 -19 -20.5t-28 -5.5h-71q-17 0 -26 5.5t-11 20.5q-7 74 -8.5 154.5t0.5 147.5h-5q-12 -33 -26.5 -71t-30.5 -77t-33 -78.5t-34 -75.5q-8 -15 -19 -20.5t-28 -5.5h-71q-17 0 -26 5.5t-11 20.5
q-4 34 -7.5 87t-6.5 113t-5 123t-2 118q1 23 28 23h64q25 0 24 -21q-1 -41 -1.5 -87t-0.5 -92t0.5 -88.5t1.5 -76.5h3q15 34 31 72.5t32.5 79t33.5 81t32 79.5q7 18 15 23.5t31 5.5h64q23 0 29.5 -5.5t7.5 -23.5q1 -78 2 -161t5 -151h3q14 33 31 75.5t35 88.5t35.5 92.5
t32.5 87.5q7 21 32 21h70q14 0 18.5 -5t-0.5 -18z" />
    <glyph glyph-name="x" unicode="x" horiz-adv-x="481" 
d="M417 22q4 -8 0 -15t-21 -7h-71q-13 0 -18.5 4t-10.5 15l-51 128q-11 29 -15.5 37.5t-9.5 8.5h-3q-4 0 -10 -8t-21 -30l-94 -136q-12 -19 -35 -19h-85q-16 0 -17 7t5 15l144 196q13 17 19 26t6 15q0 7 -12 34l-75 175q-9 22 16 22h80q14 0 19 -4t9 -15l46 -133
q11 -30 16 -30h3q5 0 15.5 15.5t22.5 33.5l77 114q8 12 15 15.5t21 3.5h80q17 0 18 -7t-5 -15l-145 -195q-14 -19 -14 -26q0 -5 4 -15t14 -31z" />
    <glyph glyph-name="y" unicode="y" horiz-adv-x="458" 
d="M34 -139q20 29 42.5 67t41.5 70q-21 8 -32 25t-16 49q-6 38 -12 85t-11 99t-9.5 105.5t-8.5 105.5q-1 23 27 23h65q23 0 24 -21q4 -94 9 -171.5t8 -122.5q2 -33 5 -51.5t8 -30.5q56 107 97 197.5t75 178.5q8 21 32 21h69q14 0 19 -5t0 -18q-63 -146 -146.5 -307
t-187.5 -329q-12 -19 -24 -19q-5 0 -11 2t-11 4l-46 18q-19 8 -7 25z" />
    <glyph glyph-name="z" unicode="z" horiz-adv-x="413" 
d="M-6 0q-32 0 -28 25l4 21q3 16 9.5 26.5t23.5 30.5l241 287h-175q-17 0 -19 5.5t0 18.5l10 51q3 14 7.5 19.5t21.5 5.5h313q13 0 16.5 -4.5t1.5 -16.5l-4 -26q-3 -15 -11 -26t-25 -31l-243 -286h202q14 0 17.5 -5.5t0.5 -19.5l-10 -51q-2 -13 -7.5 -18.5t-19.5 -5.5h-326z
" />
    <glyph glyph-name="ampersand" unicode="&#x26;" horiz-adv-x="622" 
d="M423 37q-40 -24 -90.5 -35t-111.5 -11h-34q-51 0 -86 9t-56 26t-30.5 41.5t-9.5 55.5q0 15 2 33t7 40q14 60 49.5 98.5t96.5 60.5q-26 34 -39 66.5t-13 68.5q0 80 56.5 123t153.5 43q82 0 131 -37.5t49 -102.5q0 -59 -37 -112t-123 -90l93 -110q9 18 16.5 38.5t12.5 44.5
q2 11 7 14.5t19 3.5h63q12 0 15.5 -4t1.5 -15q-20 -105 -61 -169l48 -56q11 -12 9.5 -20t-18.5 -20l-44 -33q-14 -11 -21.5 -10t-15.5 11zM240 88q70 0 116 29l-142 172q-31 -19 -48.5 -41t-25.5 -55q-2 -9 -4 -22.5t-2 -25.5q0 -26 18.5 -41.5t66.5 -15.5h21zM282 380
q44 21 67 52.5t23 69.5q0 58 -62 58q-36 0 -56 -20t-20 -53q0 -24 8.5 -47t28.5 -47z" />
    <glyph glyph-name="at" unicode="@" horiz-adv-x="827" 
d="M807 416q0 -61 -16 -113t-44.5 -89.5t-69.5 -59t-90 -21.5q-42 0 -71 14t-45 38h-2q-17 -16 -40 -25t-55 -9h-6q-51 0 -78 24.5t-27 69.5q0 22 4 50.5t13 68.5q16 71 48.5 102.5t90.5 31.5h6q29 0 53.5 -11t33.5 -28h2l7 15q3 7 7 10t12 3h48q11 0 14.5 -3.5t1.5 -14.5
l-36 -184q-2 -10 -4 -23t-2 -24q0 -32 35 -32q23 0 42 16.5t32 44t20 62.5t7 71q0 102 -57 145.5t-157 43.5q-70 0 -128 -24t-100 -67.5t-65 -104.5t-23 -136q0 -98 53 -147.5t163 -49.5q48 0 99.5 6t92.5 17q11 3 16 1t7 -13l8 -48q4 -17 -17 -23q-51 -14 -107 -22t-110 -8
q-166 0 -246 70.5t-80 210.5q0 90 30.5 168t88 136.5t140.5 92t189 33.5q70 0 128 -16.5t98.5 -49.5t63 -83t22.5 -116zM476 351q2 11 3.5 20.5t1.5 18.5q0 30 -32 30h-6q-21 0 -31.5 -12t-17.5 -41q-9 -38 -14 -64.5t-5 -43.5q0 -20 7 -27.5t23 -7.5h5q21 0 33.5 12
t17.5 40z" />
    <glyph glyph-name="exclam" unicode="!" horiz-adv-x="215" 
d="M43 -9q-26 0 -42.5 11t-16.5 34q0 8 1 16t3 15q6 32 26 47t50 15h4q26 0 42.5 -11t16.5 -34q0 -8 -1 -16t-3 -15q-6 -32 -26 -47t-50 -15h-4zM97 636q3 17 12 22.5t25 5.5h65q21 0 29.5 -5.5t4.5 -22.5l-100 -432q-5 -19 -14.5 -26t-28.5 -7h-33q-17 0 -24.5 7t-4.5 25z
" />
    <glyph glyph-name="exclamdown" unicode="&#xa1;" horiz-adv-x="215" 
d="M131.992 498.97q25.998 0 42.4971 -10.999q16.499 -11 16.499 -33.998q0 -8 -1 -15.999q-1 -8 -3 -14.999q-5.99902 -31.998 -25.998 -46.998q-19.999 -14.999 -49.9971 -14.999h-4q-25.998 0 -42.4971 11q-16.499 10.999 -16.499 33.998q0 7.99902 1 15.999
q1 7.99902 3 14.999q5.99902 31.998 25.998 46.9971t49.9971 14.999h4zM77.9951 -145.991q-3 -16.999 -11.999 -22.498q-9 -5.5 -24.999 -5.5h-64.9951q-20.999 0 -29.499 5.5q-8.49902 5.49902 -4.49902 22.498l99.9932 431.974q5 18.999 14.499 25.998q9.5 7 28.499 7
h32.998q16.999 0 24.498 -7q7.5 -6.99902 4.5 -24.998z" />
    <glyph glyph-name="question" unicode="?" horiz-adv-x="445" 
d="M185 192q-4 -20 -28 -20h-55q-12 0 -16.5 4t-2.5 16q4 32 11 57.5t19.5 46t31 37t47.5 31.5l36 19q49 26 70.5 48t29.5 44q6 18 6 35q0 26 -19 37t-64 11q-35 0 -71.5 -8t-65.5 -19q-8 -3 -14.5 -0.5t-8.5 11.5l-10 54q-3 20 16 27q34 13 82 23t98 10q87 0 134.5 -26
t47.5 -93q0 -11 -1.5 -23.5t-4 -25t-5.5 -23.5t-6 -17q-8 -19 -18.5 -35t-26.5 -31.5t-39 -31t-56 -33.5l-35 -19q-20 -11 -34 -20.5t-23 -20.5t-15 -26.5t-10 -38.5zM98 -9q-26 0 -42.5 11t-16.5 34q0 8 1 16t3 15q6 32 26 47t50 15h4q26 0 42.5 -11t16.5 -34q0 -8 -1 -16
t-3 -15q-6 -32 -26 -47t-50 -15h-4z" />
    <glyph glyph-name="questiondown" unicode="&#xbf;" horiz-adv-x="445" 
d="M240.985 297.981q4 19.999 27.998 19.999h54.9971q11.999 0 16.499 -4q4.49902 -3.99902 2.5 -15.999q-4 -31.998 -11 -57.4961q-6.99902 -25.498 -19.499 -45.9971q-12.499 -20.499 -30.998 -36.998q-18.498 -16.499 -47.4971 -31.498l-35.9971 -18.999
q-48.9971 -25.998 -70.4961 -47.9971q-21.499 -21.998 -29.498 -43.9971q-6 -17.999 -6 -34.998q0 -25.998 18.999 -36.9971q18.999 -11 63.9961 -11q34.998 0 71.4961 8q36.4971 7.99902 65.4951 18.999q8 2.99902 14.5 0.5q6.49902 -2.5 8.49902 -11.5l9.99902 -53.9961
q3 -19.999 -15.999 -26.999q-33.9971 -12.999 -81.9941 -22.998q-47.9971 -10 -97.9941 -10q-86.9951 0 -134.492 25.999q-47.4971 25.998 -47.4971 92.9941q0 10.999 1.5 23.498q1.5 12.5 4 24.999t5.49902 23.498q3 11 6 16.999q7.99902 18.999 18.499 34.998
q10.499 15.999 26.498 31.498t38.998 30.998q22.998 15.499 55.9961 33.498l34.998 18.999q19.999 10.999 33.998 20.499q13.999 9.49902 22.998 20.498q9 11 15 26.499q5.99902 15.499 9.99902 38.4971zM327.98 498.97q25.998 0 42.4971 -10.999q16.499 -11 16.499 -33.998
q0 -8 -1 -15.999q-1 -8 -3 -14.999q-6 -31.998 -25.998 -46.998q-19.999 -14.999 -49.9971 -14.999h-4q-25.998 0 -42.4971 11q-16.499 10.999 -16.499 33.998q0 7.99902 1 15.999q1 7.99902 2.99902 14.999q6 31.998 25.999 46.9971t49.9971 14.999h4z" />
    <glyph glyph-name="asterisk" unicode="*" horiz-adv-x="388" 
d="M348 474q12 -17 -9 -29l-46 -28q-13 -8 -19 -3.5t-10 13.5l-34 91l-70 -98q-6 -8 -12 -10t-16 4l-47 31q-18 12 1 29l97 86l-97 22q-16 3 -6 19l29 53q5 10 11 11t15 -4l77 -40l8 105q1 11 4 14.5t14 3.5h65q18 0 12 -18l-36 -107l95 42q23 10 24 -7l6 -53q1 -8 -1 -12.5
t-11 -6.5l-107 -28z" />
    <glyph glyph-name="period" unicode="." horiz-adv-x="210" 
d="M144 55q-6 -32 -23 -48t-52 -16h-11q-29 0 -41.5 10.5t-12.5 32.5q0 5 1 12t4 25q7 35 25 49t50 14h11q25 0 39.5 -10t14.5 -34q0 -5 -1 -11.5t-4 -23.5z" />
    <glyph glyph-name="comma" unicode="," horiz-adv-x="224" 
d="M115 132q30 0 44.5 -16.5t9.5 -46.5l-4 -21q-10 -47 -42 -100.5t-93 -110.5q-11 -10 -18 -10t-16 6l-27 18q-8 6 -9.5 11.5t6.5 13.5q12 12 30 33t30 37q13 17 14.5 26.5t-6.5 15.5l-7 5q-10 7 -13.5 14t-3.5 18q0 8 2 18.5t7 30.5q8 31 28 44.5t53 13.5h15z" />
    <glyph glyph-name="colon" unicode=":" horiz-adv-x="238" 
d="M198 436q-6 -32 -23 -48t-52 -16h-11q-29 0 -41.5 10.5t-12.5 32.5q0 5 1 12t4 25q7 35 25 49t50 14h11q25 0 39.5 -10t14.5 -34q0 -5 -1 -11.5t-4 -23.5zM124 55q-6 -32 -23 -48t-52 -16h-11q-29 0 -41.5 10.5t-12.5 32.5q0 5 1 12t4 25q7 35 25 49t50 14h11
q25 0 39.5 -10t14.5 -34q0 -5 -1 -11.5t-4 -23.5z" />
    <glyph glyph-name="semicolon" unicode=";" horiz-adv-x="224" 
d="M189 436q-6 -32 -23 -48t-52 -16h-11q-29 0 -41.5 10.5t-12.5 32.5q0 5 1 12t4 25q7 35 25 49t50 14h11q25 0 39.5 -10t14.5 -34q0 -5 -1 -11.5t-4 -23.5zM81 132q30 0 44.5 -16.5t9.5 -46.5l-4 -21q-10 -47 -42 -100.5t-93 -110.5q-11 -10 -18 -10t-16 6l-27 18
q-8 6 -9.5 11.5t6.5 13.5q12 12 30 33t30 37q13 17 14.5 26.5t-6.5 15.5l-7 5q-10 7 -13.5 14t-3.5 18q0 8 2 18.5t7 30.5q8 31 28 44.5t53 13.5h15z" />
    <glyph glyph-name="ellipsis" unicode="&#x2026;" horiz-adv-x="630" 
d="M144 55q-6 -32 -23 -48t-52 -16h-11q-29 0 -41.5 10.5t-12.5 32.5q0 5 1 12t4 25q7 35 25 49t50 14h11q25 0 39.5 -10t14.5 -34q0 -5 -1 -11.5t-4 -23.5zM354 55q-6 -32 -23 -48t-52 -16h-11q-29 0 -41.5 10.5t-12.5 32.5q0 5 1 12t4 25q7 35 25 49t50 14h11
q25 0 39.5 -10t14.5 -34q0 -5 -1 -11.5t-4 -23.5zM564 55q-6 -32 -23 -48t-52 -16h-11q-29 0 -41.5 10.5t-12.5 32.5q0 5 1 12t4 25q7 35 25 49t50 14h11q25 0 39.5 -10t14.5 -34q0 -5 -1 -11.5t-4 -23.5z" />
    <glyph glyph-name="periodcentered" unicode="&#xb7;" horiz-adv-x="210" 
d="M154 282q-6 -32 -23 -48t-52 -16h-11q-29 0 -41.5 10.5t-12.5 32.5q0 5 1 12t4 25q7 35 25 49t50 14h11q25 0 39.5 -10t14.5 -34q0 -5 -1 -11.5t-4 -23.5z" />
    <glyph glyph-name="bullet" unicode="&#x2022;" horiz-adv-x="311" 
d="M268 285q0 -30 -9.5 -56t-27.5 -45.5t-44 -31t-59 -11.5q-51 0 -77 27t-26 69q0 30 9.5 56t27.5 45.5t44 31t59 11.5q51 0 77 -27t26 -69z" />
    <glyph glyph-name="slash" unicode="/" horiz-adv-x="395" 
d="M307 659q8 17 18 22t27 5h52q38 0 22 -30l-341 -652q-8 -17 -18 -22t-27 -5h-52q-39 0 -22 30z" />
    <glyph glyph-name="parenleft" unicode="(" horiz-adv-x="320" 
d="M261 666q12 11 19.5 12t18.5 -6l35 -23q15 -10 16 -17t-10 -19q-46 -47 -82 -99t-61 -105t-38 -105.5t-13 -98.5q0 -73 14 -139t38 -123q6 -15 2.5 -22.5t-20.5 -15.5l-32 -14q-17 -8 -25 -7.5t-18 19.5q-35 67 -58 142.5t-23 154.5q0 59 16.5 120.5t47 121.5t74.5 117
t99 107z" />
    <glyph glyph-name="brokenbar" unicode="&#xa6;" horiz-adv-x="245" 
d="M199 432q-5 -20 -16.5 -25.5t-34.5 -5.5h-29q-23 0 -32.5 5.5t-4.5 25.5l43 224q6 30 49 30h29q23 0 33 -6t6 -24zM116 12q-4 -20 -15.5 -26t-34.5 -6h-29q-23 0 -32.5 6t-5.5 26l43 221q4 20 16 26t35 6h29q23 0 32 -6t5 -26z" />
    <glyph glyph-name="parenright" unicode=")" horiz-adv-x="320" 
d="M38 -107q-12 -11 -19.5 -12t-18.5 6l-35 23q-15 10 -16 17t10 19q46 46 82 98.5t61 105.5t38 105t13 99q0 73 -14 139t-38 123q-6 15 -2.5 22.5t20.5 15.5l32 14q17 8 25 7.5t18 -19.5q35 -67 58 -142.5t23 -154.5q0 -59 -16.5 -120.5t-47.5 -121.5t-74.5 -117
t-98.5 -107z" />
    <glyph glyph-name="bracketleft" unicode="[" horiz-adv-x="330" 
d="M223 561l-105 -541h89q14 0 17 -4t1 -15l-14 -69q-2 -10 -7 -12.5t-19 -2.5h-176q-15 0 -19.5 6t-2.5 18l136 699q3 14 9 19t21 5h179q14 0 17 -4t1 -15l-14 -69q-2 -10 -7 -12.5t-19 -2.5h-87z" />
    <glyph glyph-name="backslash" unicode="\" horiz-adv-x="360" 
d="M281 7q2 -17 -4.5 -23.5t-26.5 -6.5h-52q-17 0 -25.5 5t-10.5 22l-74 652q-2 16 5 23t27 7h51q18 0 26 -5.5t10 -21.5z" />
    <glyph glyph-name="bracketright" unicode="]" horiz-adv-x="320" 
d="M79 20l105 541h-89q-14 0 -17 4t-1 15l14 69q2 10 7 12.5t19 2.5h176q15 0 19.5 -6t2.5 -18l-136 -699q-3 -14 -9 -19t-21 -5h-179q-14 0 -17 4t-1 15l14 69q2 10 7 12.5t19 2.5h87z" />
    <glyph glyph-name="braceleft" unicode="{" horiz-adv-x="358" 
d="M223 6q15 0 19 -5t1 -20l-12 -59q-2 -11 -8 -15t-21 -4h-51q-48 0 -72.5 22.5t-24.5 61.5q0 20 2.5 38t6.5 35l24 113q7 32 -6.5 45t-38.5 22q-14 5 -17 10.5t-1 17.5l10 49q2 11 6.5 15t18.5 7q30 7 49.5 19t24.5 41l28 136q8 40 19.5 66.5t28.5 42.5t40 23t55 7h56
q15 0 19 -5t2 -17l-13 -62q-2 -14 -8 -16.5t-18 -2.5h-35q-14 0 -19.5 -6.5t-10.5 -32.5l-26 -130q-10 -48 -31 -73.5t-56 -41.5v-3q43 -29 43 -76q0 -12 -1 -22.5t-3 -19.5l-24 -111q-2 -9 -3.5 -18t-1.5 -17q0 -14 16 -14h33z" />
    <glyph glyph-name="bar" unicode="|" horiz-adv-x="245" 
d="M117 11q-4 -20 -13.5 -25.5t-30.5 -5.5h-41q-21 0 -28.5 5.5t-3.5 25.5l122 629q5 20 13.5 25.5t29.5 5.5h42q21 0 29 -5.5t3 -25.5z" />
    <glyph glyph-name="braceright" unicode="}" horiz-adv-x="356" 
d="M116 571q-15 0 -19 5t-1 20l12 59q2 11 8 15t21 4h51q48 0 72.5 -22.5t24.5 -61.5q0 -20 -2.5 -38t-6.5 -35l-24 -113q-7 -32 6.5 -45t38.5 -22q14 -5 17 -10.5t1 -17.5l-10 -49q-2 -11 -6.5 -15t-18.5 -7q-30 -7 -49.5 -19t-24.5 -41l-28 -136q-8 -40 -19.5 -66.5
t-28.5 -42.5t-40.5 -23t-54.5 -7h-56q-15 0 -19 5t-2 17l13 62q2 14 8 16.5t18 2.5h35q14 0 19.5 6.5t10.5 32.5l26 130q10 48 31 73.5t56 41.5v3q-43 29 -43 76q0 12 1 22.5t3 19.5l24 111q2 9 3.5 18t1.5 17q0 14 -16 14h-33z" />
    <glyph glyph-name="hyphen" unicode="-" horiz-adv-x="333" 
d="M263 313q26 0 30.5 -8t1.5 -25l-9 -44q-4 -20 -15 -25.5t-29 -5.5h-191q-23 0 -29.5 8t-2.5 25l9 42q3 17 10.5 25t33.5 8h191z" />
    <glyph glyph-name="uni00AD" unicode="&#xad;" horiz-adv-x="299" 
d="M229 313q26 0 30.5 -8t1.5 -25l-9 -44q-4 -20 -15 -25.5t-29 -5.5h-191q-23 0 -29.5 8t-2.5 25l9 42q3 17 10.5 25t33.5 8h191z" />
    <glyph glyph-name="endash" unicode="&#x2013;" horiz-adv-x="500" 
d="M18 205q-23 0 -29.5 8t-2.5 25l9 42q3 17 10.5 25t33.5 8h424q26 0 31 -7t1 -26l-9 -44q-4 -20 -14 -25.5t-30 -5.5h-424z" />
    <glyph glyph-name="emdash" unicode="&#x2014;" horiz-adv-x="1000" 
d="M19 205q-26 0 -30.5 8t-1.5 25l9 44q4 20 15 25.5t29 5.5h923q26 0 30.5 -8t1.5 -25l-9 -44q-4 -20 -15 -25.5t-29 -5.5h-923z" />
    <glyph glyph-name="underscore" unicode="_" horiz-adv-x="539" 
d="M4 -78q-26 0 -30 8t-2 25l4 27q3 20 14.5 25.5t29.5 5.5h398q26 0 30 -8t2 -25l-4 -27q-3 -20 -14.5 -25.5t-29.5 -5.5h-398z" />
    <glyph glyph-name="dagger" unicode="&#x2020;" horiz-adv-x="411" 
d="M385 483q20 2 24.5 -4t1.5 -23l-10 -53q-4 -20 -10.5 -24.5t-26.5 -3.5l-91 3l-72 -351q-3 -16 -11 -21.5t-27 -5.5h-49q-18 0 -23.5 6t-2.5 21l63 350l-90 -2q-20 -1 -24.5 4.5t-1.5 22.5l10 53q4 20 11 25t26 3l87 -7l27 150q3 17 11 22.5t30 5.5h54q23 0 29.5 -5.5
t3.5 -22.5l-31 -150z" />
    <glyph glyph-name="daggerdbl" unicode="&#x2021;" horiz-adv-x="411" 
d="M236 199l-35 -172q-3 -16 -11 -21.5t-27 -5.5h-49q-18 0 -23.5 6t-2.5 21l31 171l-84 -2q-20 -1 -24.5 4.5t-1.5 22.5l10 53q4 20 11 25t26 3l81 -7l14 80l-90 -2q-20 -1 -24.5 4.5t-1.5 22.5l10 53q4 20 11 25t26 3l87 -7l27 150q3 17 11 22.5t30 5.5h54q23 0 29.5 -5.5
t3.5 -22.5l-31 -150l92 7q20 2 24.5 -4t1.5 -23l-10 -53q-4 -20 -10.5 -24.5t-26.5 -3.5l-91 3l-17 -81l91 7q20 2 24.5 -4t1.5 -23l-10 -53q-4 -20 -10.5 -24.5t-26.5 -3.5z" />
    <glyph glyph-name="section" unicode="&#xa7;" horiz-adv-x="440" 
d="M188 370q-12 -8 -20 -23t-8 -32q0 -25 35 -32l49 -11q14 8 23 24t9 33q0 11 -9 18.5t-31 12.5zM369 528q-17 7 -43.5 12t-52.5 5q-33 0 -50.5 -6.5t-22.5 -21.5q-2 -5 -3.5 -10.5t-1.5 -10.5q0 -14 7.5 -19.5t30.5 -10.5l58 -11q54 -11 79.5 -28t26.5 -54
q0 -19 -2.5 -37.5t-10.5 -34.5q-19 -43 -60 -60q16 -11 29 -29t13 -43q0 -14 -4 -36t-9 -36q-17 -59 -60.5 -82.5t-124.5 -23.5q-38 0 -81 7.5t-72 18.5q-11 5 -14.5 11.5t0.5 20.5l13 46q4 14 10 17.5t16 -0.5q28 -11 62.5 -18.5t59.5 -7.5q38 0 56.5 6.5t24.5 25.5
q2 5 3 12t1 12q0 14 -14.5 21.5t-52.5 15.5l-49 11q-49 11 -70 30t-21 57q0 11 2.5 25.5t6.5 26.5q8 23 24.5 40.5t39.5 28.5q-15 14 -24.5 30.5t-9.5 39.5t4.5 45t11.5 37q22 49 61 69.5t109 20.5q45 0 79.5 -5.5t57.5 -13.5q12 -5 13.5 -9.5t-2.5 -15.5l-17 -55
q-4 -12 -11 -14.5t-16 1.5z" />
    <glyph glyph-name="paragraph" unicode="&#xb6;" horiz-adv-x="623" 
d="M441 -81q-3 -15 -9.5 -20t-23.5 -5h-60q-17 0 -21.5 5t-1.5 20l127 651h-68l-127 -651q-3 -15 -9.5 -20t-23.5 -5h-67q-17 0 -21.5 5t-1.5 20l74 379q-31 4 -56 16.5t-42 31.5t-26.5 43.5t-9.5 51.5q0 54 20 96.5t55 72t83.5 45t104.5 15.5h296q14 0 17 -5t1 -18l-11 -56
q-2 -11 -7 -16t-19 -5h-46z" />
    <glyph glyph-name="registered" unicode="&#xae;" horiz-adv-x="826" 
d="M356 189q-2 -14 -9 -17.5t-25 -3.5h-44q-17 0 -21.5 4.5t-2.5 16.5l59 310q3 15 10 21t22 8q17 2 41.5 3t49.5 1q63 0 98 -20t35 -68q0 -84 -54 -122q-8 -5 -17 -10t-20 -8l52 -114q10 -22 -21 -22h-56q-12 0 -18.5 3.5t-11.5 15.5l-39 105h-9zM428 451h-12t-10 -1
l-15 -79h17q25 0 38 10q16 13 16 45q0 25 -34 25zM799 428q0 -96 -29.5 -177t-85.5 -140t-139 -92t-189 -33q-81 0 -141 20t-99 57t-58.5 89t-19.5 116q0 93 30.5 174t88.5 140.5t141 93.5t187 34q71 0 129 -19.5t99 -56.5t63.5 -89t22.5 -117zM368 90q70 0 127 22
t97.5 63.5t63 101.5t22.5 135q0 43 -12.5 78.5t-38.5 61t-65.5 40t-93.5 14.5q-68 0 -125 -22.5t-97.5 -64.5t-63 -102t-22.5 -135q0 -42 12.5 -77t38 -60.5t65 -40t92.5 -14.5z" />
    <glyph glyph-name="copyright" unicode="&#xa9;" horiz-adv-x="826" 
d="M511 209q2 -13 -3 -18t-17 -10q-21 -8 -49.5 -13.5t-59.5 -5.5q-71 0 -102 34.5t-14 115.5l19 90q8 39 21.5 64.5t33 40.5t46.5 21.5t63 6.5q29 0 58.5 -6.5t48.5 -16.5q9 -5 10.5 -10t-4.5 -18l-19 -40q-8 -17 -27 -8q-11 6 -27.5 11t-35.5 5q-25 0 -40 -13t-22 -54
l-15 -80q-6 -33 2.5 -46t37.5 -13q20 0 37 3.5t31 8.5q12 4 16.5 1.5t6.5 -13.5zM799 428q0 -96 -29.5 -177t-85.5 -140t-139 -92t-189 -33q-81 0 -141 20t-99 57t-58.5 89t-19.5 116q0 93 30.5 174t88.5 140.5t141 93.5t187 34q71 0 129 -19.5t99 -56.5t63.5 -89t22.5 -117
zM368 90q70 0 127 22t97.5 63.5t63 101.5t22.5 135q0 43 -12.5 78.5t-38.5 61t-65.5 40t-93.5 14.5q-68 0 -125 -22.5t-97.5 -64.5t-63 -102t-22.5 -135q0 -42 12.5 -77t38 -60.5t65 -40t92.5 -14.5z" />
    <glyph glyph-name="trademark" unicode="&#x2122;" horiz-adv-x="759" 
d="M323 654q12 0 15.5 -4t1.5 -17l-6 -32q-2 -13 -7.5 -17t-16.5 -4h-65l-42 -218q-2 -11 -8 -16t-20 -5h-46q-24 0 -19 21l42 218h-63q-11 0 -15 4.5t-2 16.5l6 32q2 13 7.5 17t17.5 4h220zM505 372q-17 0 -23.5 4.5t-7.5 15.5q-2 42 -3.5 89t-1.5 89h-3
q-12 -51 -22.5 -102.5t-20.5 -105.5q-5 -21 -32 -21h-42q-26 0 -21 21q16 75 34 144.5t34 120.5q5 17 12 22t22 5h80q20 0 25.5 -5.5t5.5 -18.5q0 -35 -0.5 -82.5t0.5 -89.5h3q17 40 34.5 87t31.5 85q5 13 11.5 18.5t26.5 5.5h85q17 0 22.5 -5t3.5 -22q-5 -57 -14 -126.5
t-21 -138.5q-2 -13 -8.5 -17t-17.5 -4h-44q-15 0 -19.5 5t-2.5 16q10 54 19 105.5t17 102.5h-3q-8 -22 -18 -46.5t-19.5 -48t-19 -45.5t-17.5 -38q-5 -11 -12 -15.5t-26 -4.5h-48z" />
    <glyph glyph-name="quotedblleft" unicode="&#x201c;" horiz-adv-x="469" 
d="M115.993 422.975q-29.998 0 -44.4971 16.499q-14.5 16.499 -9.5 46.4971l4 20.998q9.99902 46.9971 41.9971 100.494t92.9941 110.493q11 9.99902 17.999 9.99902q7 0 15.999 -5.99902l26.999 -17.999q7.99902 -6 9.49902 -11.499q1.5 -5.5 -6.5 -13.499
q-11.999 -12 -29.998 -32.998q-17.999 -20.999 -29.998 -36.998q-12.999 -16.999 -14.499 -26.498q-1.5 -9.5 6.5 -15.499l6.99902 -5q10 -7 13.499 -13.999q3.5 -7 3.5 -17.999q0 -8 -2 -18.499t-6.99902 -30.498q-8 -30.998 -27.999 -44.4971
q-19.998 -13.499 -52.9961 -13.499h-14.999zM334.979 422.975q-29.998 0 -44.4971 16.499t-9.5 46.4971l4 20.998q10 46.9971 41.998 100.494t92.9941 110.493q10.999 9.99902 17.999 9.99902q6.99902 0 15.999 -5.99902l26.998 -17.999q7.99902 -6 9.49902 -11.499
q1.5 -5.5 -6.49902 -13.499q-12 -12 -29.998 -32.998q-17.999 -20.999 -29.998 -36.998q-13 -16.999 -14.5 -26.498q-1.5 -9.5 6.5 -15.499l7 -5q9.99902 -7 13.499 -13.999q3.49902 -7 3.49902 -17.999q0 -8 -1.99902 -18.499q-2 -10.499 -7 -30.498
q-7.99902 -30.998 -27.998 -44.4971t-52.9971 -13.499h-14.999z" />
    <glyph glyph-name="quotedblright" unicode="&#x201d;" horiz-adv-x="469" 
d="M234 731q30 0 44.5 -16.5t9.5 -46.5l-4 -21q-10 -47 -42 -100.5t-93 -110.5q-11 -10 -18 -10t-16 6l-27 18q-8 6 -9.5 11.5t6.5 13.5q12 12 30 33t30 37q13 17 14.5 26.5t-6.5 15.5l-7 5q-10 7 -13.5 14t-3.5 18q0 8 2 18.5t7 30.5q8 31 28 44.5t53 13.5h15zM453 731
q30 0 44.5 -16.5t9.5 -46.5l-4 -21q-10 -47 -42 -100.5t-93 -110.5q-11 -10 -18 -10t-16 6l-27 18q-8 6 -9.5 11.5t6.5 13.5q12 12 30 33t30 37q13 17 14.5 26.5t-6.5 15.5l-7 5q-10 7 -13.5 14t-3.5 18q0 8 2 18.5t7 30.5q8 31 28 44.5t53 13.5h15z" />
    <glyph glyph-name="quoteleft" unicode="&#x2018;" horiz-adv-x="250" 
d="M116.993 422.975q-29.998 0 -44.498 16.499q-14.499 16.499 -9.49902 46.4971l4 20.998q9.99902 46.9971 41.9971 100.494t92.9941 110.493q11 9.99902 17.999 9.99902q7 0 15.999 -5.99902l26.999 -17.999q7.99902 -6 9.49902 -11.499q1.5 -5.5 -6.5 -13.499
q-11.999 -12 -29.998 -32.998q-17.999 -20.999 -29.998 -36.998q-12.999 -16.999 -14.499 -26.498q-1.5 -9.5 6.5 -15.499l6.99902 -5q10 -7 13.499 -13.999q3.5 -7 3.5 -17.999q0 -8 -2 -18.499t-6.99902 -30.498q-8 -30.998 -27.999 -44.4971
q-19.998 -13.499 -52.9961 -13.499h-14.999z" />
    <glyph glyph-name="quoteright" unicode="&#x2019;" horiz-adv-x="250" 
d="M234 726q30 0 44.5 -16.5t9.5 -46.5l-4 -21q-10 -47 -42 -100.5t-93 -110.5q-11 -10 -18 -10t-16 6l-27 18q-8 6 -9.5 11.5t6.5 13.5q12 12 30 33t30 37q13 17 14.5 26.5t-6.5 15.5l-7 5q-10 7 -13.5 14t-3.5 18q0 8 2 18.5t7 30.5q8 31 28 44.5t53 13.5h15z" />
    <glyph glyph-name="guillemotleft" unicode="&#xab;" horiz-adv-x="578" 
d="M508 118q17 -19 -6 -37l-26 -23q-12 -9 -24 -9t-28 15l-132 126q-13 13 -13 28q0 3 1 9.5t3 14.5q4 12 10 19t16 15l183 131q13 9 22 8.5t20 -12.5l30 -31q10 -11 10 -21t-14 -20l-142 -107v-3zM229 118q17 -19 -6 -37l-26 -23q-12 -9 -24 -9t-28 15l-132 126
q-13 13 -13 28q0 3 1 9.5t3 14.5q4 12 10 19t16 15l183 131q13 9 22 8.5t20 -12.5l30 -31q10 -11 10 -21t-14 -20l-142 -107v-3z" />
    <glyph glyph-name="guillemotright" unicode="&#xbb;" horiz-adv-x="568" 
d="M314 350q-17 19 6 37l26 23q12 9 24 9q11 0 28 -15l132 -126q13 -13 13 -28q0 -3 -1 -9.5t-3 -14.5q-4 -12 -10 -19t-16 -15l-183 -131q-13 -9 -22 -8.5t-20 12.5l-30 31q-10 11 -10 21t14 20l142 107v3zM45 350q-17 19 6 37l26 23q12 9 24 9q11 0 28 -15l132 -126
q13 -13 13 -28q0 -3 -1 -9.5t-3 -14.5q-4 -12 -10 -19t-16 -15l-183 -131q-13 -9 -22 -8.5t-20 12.5l-30 31q-10 11 -10 21t14 20l142 107v3z" />
    <glyph glyph-name="guilsinglleft" unicode="&#x2039;" horiz-adv-x="299" 
d="M221 118q17 -19 -6 -37l-26 -23q-12 -9 -24 -9t-28 15l-132 126q-13 13 -13 28q0 3 1 9.5t3 14.5q4 12 10 19t16 15l183 131q13 9 22 8.5t20 -12.5l30 -31q10 -11 10 -21t-14 -20l-142 -107v-3z" />
    <glyph glyph-name="guilsinglright" unicode="&#x203a;" horiz-adv-x="299" 
d="M45 350q-17 19 6 37l26 23q12 9 24 9q11 0 28 -15l132 -126q13 -13 13 -28q0 -3 -1 -9.5t-3 -14.5q-4 -12 -10 -19t-16 -15l-183 -131q-13 -9 -22 -8.5t-20 12.5l-30 31q-10 11 -10 21t14 20l142 107v3z" />
    <glyph glyph-name="quotesinglbase" unicode="&#x201a;" horiz-adv-x="255" 
d="M98 132q30 0 44.5 -16.5t9.5 -46.5l-4 -21q-10 -47 -42 -100.5t-93 -110.5q-11 -10 -18 -10t-16 6l-27 18q-8 6 -9.5 11.5t6.5 13.5q12 12 30 33t30 37q13 17 14.5 26.5t-6.5 15.5l-7 5q-10 7 -13.5 14t-3.5 18q0 8 2 18.5t7 30.5q8 31 28 44.5t53 13.5h15z" />
    <glyph glyph-name="quotedblbase" unicode="&#x201e;" horiz-adv-x="469" 
d="M98 132q30 0 44.5 -16.5t9.5 -46.5l-4 -21q-10 -47 -42 -100.5t-93 -110.5q-11 -10 -18 -10t-16 6l-27 18q-8 6 -9.5 11.5t6.5 13.5q12 12 30 33t30 37q13 17 14.5 26.5t-6.5 15.5l-7 5q-10 7 -13.5 14t-3.5 18q0 8 2 18.5t7 30.5q8 31 28 44.5t53 13.5h15zM312 132
q30 0 44.5 -16.5t9.5 -46.5l-4 -21q-10 -47 -42 -100.5t-93 -110.5q-11 -10 -18 -10t-16 6l-27 18q-8 6 -9.5 11.5t6.5 13.5q12 12 30 33t30 37q13 17 14.5 26.5t-6.5 15.5l-7 5q-10 7 -13.5 14t-3.5 18q0 8 2 18.5t7 30.5q8 31 28 44.5t53 13.5h15z" />
    <glyph glyph-name="ordfeminine" unicode="&#xaa;" horiz-adv-x="322" 
d="M206 416q-15 3 -39 3h-17q-34 0 -42 -25l-4 -16t-2 -14q0 -16 28 -16h15q24 0 38 10.5t17 27.5zM197 318q-25 -34 -77 -34h-22q-41 0 -60 15.5t-19 42.5q0 17 2.5 33.5t7.5 32.5q5 20 15 35t24 23q15 9 37.5 14t56.5 5h20q8 0 18.5 -0.5t18.5 -1.5l2 9q2 8 1.5 16
t-5.5 13q-8 9 -43 9q-17 0 -36.5 -2t-33.5 -6q-17 -4 -18 9l-4 41q-2 15 13 19q18 5 48 9.5t57 4.5q61 0 88 -21q21 -17 21 -49q0 -7 -1 -18.5t-4 -26.5l-37 -188q-3 -12 -14 -12h-45q-8 0 -10 2t-2 8l2 18h-1z" />
    <glyph glyph-name="ordmasculine" unicode="&#xba;" horiz-adv-x="324" 
d="M127 465q-6 -26 -8 -44t-2 -29q0 -35 37 -35q24 0 37.5 14t20.5 46q11 50 11 76q0 22 -8 31t-28 9q-23 0 -37 -15t-23 -53zM301 420q-7 -34 -18 -59.5t-29 -42.5t-45 -25.5t-65 -8.5q-59 0 -87 22.5t-28 71.5q0 12 2.5 36t10.5 58q9 39 21.5 64.5t31 40.5t45 21.5
t62.5 6.5q58 0 84.5 -23t26.5 -71q0 -15 -3 -38.5t-9 -52.5z" />
    <glyph glyph-name="zero" unicode="0" 
d="M224 92q33 0 56.5 12.5t40.5 37.5t29 61t22 83q11 50 17 92t6 76q0 51 -18 76t-63 25q-35 0 -59.5 -14.5t-42 -40.5t-29.5 -63.5t-22 -82.5q-11 -51 -16.5 -91.5t-5.5 -75.5q0 -47 18.5 -71t66.5 -24zM209 -9q-100 0 -146 47t-46 133q0 20 2 45.5t5.5 52.5t8 53.5
t8.5 48.5q15 76 39.5 130t60 88.5t82 50.5t105.5 16q102 0 146.5 -47.5t44.5 -140.5q0 -47 -9 -102.5t-23 -118.5q-16 -73 -41.5 -122t-60 -79t-78.5 -42.5t-98 -12.5z" />
    <glyph glyph-name="one" unicode="1" 
d="M41 0q-18 0 -23.5 6t-2.5 22l9 45q3 16 9 20.5t23 4.5h122l83 422h-6l-105 -51q-18 -8 -27 11l-20 51q-8 19 11 28l155 75q14 7 26 10t29 3h51q21 0 27.5 -6.5t2.5 -25.5l-101 -517h113q15 0 19 -6t1 -22l-9 -45q-3 -16 -9 -20.5t-23 -4.5h-355z" />
    <glyph glyph-name="two" unicode="2" 
d="M303 554q-29 0 -65.5 -7.5t-71.5 -18.5q-23 -8 -27 12l-12 55q-2 11 0 17t11 10q37 14 89 24t106 10q83 0 130.5 -33t47.5 -105q0 -13 -2.5 -35.5t-8.5 -43.5q-9 -31 -22 -55t-32.5 -43t-47.5 -34.5t-65 -29.5l-59 -22q-36 -14 -61 -27.5t-41.5 -30t-25.5 -36.5t-13 -45
l-3 -18h266q16 0 20.5 -4.5t1.5 -20.5l-9 -53q-2 -12 -9.5 -16t-23.5 -4h-349q-20 0 -27 6t-4 23l9 59q14 97 65 159t145 96l61 22q48 17 70 38.5t30 48.5q5 14 6.5 26t1.5 22q0 54 -81 54z" />
    <glyph glyph-name="three" unicode="3" 
d="M31 96q4 14 11.5 16.5t18.5 -1.5q30 -9 64.5 -15.5t62.5 -6.5q57 0 92.5 17t44.5 65q6 30 6 52t-9 35t-24.5 20t-36.5 9t-44 2h-41q-23 0 -19 23l11 56q2 12 7.5 16t21.5 4h26q56 0 97 23q19 11 29.5 26t15.5 35q3 11 4 21t1 21q0 44 -72 44q-34 0 -71 -8t-66 -20
q-13 -5 -19 -1.5t-8 14.5l-10 50q-5 22 16 30q40 15 87.5 24t94.5 9q36 0 68 -6t56 -20t38.5 -37t14.5 -57q0 -15 -2 -30.5t-5 -32.5q-8 -47 -35 -80t-82 -50q45 -10 64 -39.5t19 -73.5q0 -12 -2 -32.5t-6 -42.5q-9 -47 -30 -78t-53 -50.5t-74.5 -27.5t-93.5 -8t-94 8
t-72 18q-13 5 -15.5 12t1.5 21z" />
    <glyph glyph-name="four" unicode="4" 
d="M300 251l51 265h-5l-201 -265h155zM280 150h-258q-22 0 -18 23l6 35q2 13 13 26.5t23 29.5l276 357q13 16 23 21t27 5h88q23 0 30 -6t2 -27l-70 -363h57q14 0 19.5 -5.5t2.5 -19.5l-11 -57q-2 -12 -7.5 -15.5t-19.5 -3.5h-61l-24 -125q-3 -14 -10.5 -19.5t-23.5 -5.5h-64
q-16 0 -21 6t-3 19z" />
    <glyph glyph-name="five" unicode="5" 
d="M254 547q-13 0 -17 -13l-36 -138q23 9 52 14.5t64 5.5q71 0 113.5 -32.5t42.5 -104.5q0 -22 -5 -54.5t-11 -58.5q-21 -91 -84.5 -133.5t-167.5 -42.5q-53 0 -101.5 8.5t-80.5 20.5q-12 5 -16 12t0 21l12 45q4 15 13.5 19t21.5 -1q15 -5 33 -9.5t36.5 -8t37 -5.5t33.5 -2
q58 0 92.5 21.5t47.5 73.5q5 18 7.5 35.5t2.5 32.5q0 30 -20.5 47t-64.5 17q-29 0 -60 -8t-58 -19q-8 -4 -15 -4.5t-16 4.5l-26 13q-16 8 -10 30l77 292q4 14 9.5 18t17.5 4h298q17 0 21 -5t1 -21l-10 -50q-3 -15 -8.5 -19.5t-24.5 -4.5h-201z" />
    <glyph glyph-name="six" unicode="6" 
d="M277 314q-32 0 -61.5 -9t-56.5 -26q-12 -62 -12 -98q0 -92 80 -92q48 0 75 19t41 67q5 20 8 40.5t3 34.5q0 31 -20 47.5t-57 16.5zM487 635q11 -4 14 -10t-3 -20l-19 -50q-5 -14 -12 -17t-18 1q-20 7 -45.5 11.5t-54.5 4.5t-58.5 -10t-50.5 -30q-43 -41 -59 -131
q29 14 65.5 23t81.5 9q69 0 110.5 -34.5t41.5 -106.5q0 -35 -14 -100q-9 -42 -28 -77t-48 -58q-34 -27 -77 -38.5t-95 -11.5q-195 0 -195 177q0 26 7 79.5t24 138.5q28 141 100.5 206t201.5 65q39 0 72 -6t59 -15z" />
    <glyph glyph-name="seven" unicode="7" 
d="M159 22q-8 -12 -18 -17t-28 -5h-76q-14 0 -17.5 9t4.5 20l366 518h-268q-17 0 -22 5t-2 21l10 50q3 15 10 19.5t24 4.5h386q12 0 17.5 -5t3.5 -19l-6 -31q-4 -18 -14 -35.5t-33 -50.5z" />
    <glyph glyph-name="eight" unicode="8" 
d="M94 532q9 26 27 49t46.5 39.5t68 26t89.5 9.5q88 0 139.5 -36.5t51.5 -99.5q0 -13 -1.5 -28.5t-6.5 -30.5q-12 -40 -39.5 -74.5t-69.5 -56.5q74 -38 74 -120q0 -14 -3.5 -36t-8.5 -41q-23 -80 -87 -111t-168 -31q-54 0 -94 11.5t-63 28.5q-24 19 -34.5 43.5t-10.5 57.5
q0 10 2.5 31t7.5 41q12 45 45 83t76 56q-24 18 -39 48t-15 63q0 18 3 38t10 40zM136 197q-2 -11 -3.5 -23.5t-1.5 -22.5q0 -29 21.5 -46t66.5 -17q51 0 79.5 13.5t39.5 49.5q2 8 4 20t2 21q0 26 -24 46t-79 46l-30 14q-29 -17 -48.5 -43t-26.5 -58zM378 446q6 15 8 26.5
t2 24.5t-3.5 25t-11.5 20t-24 13.5t-37 5.5q-42 0 -66 -15t-32 -41q-3 -8 -4 -18.5t-1 -21.5q0 -23 16.5 -42t56.5 -36l33 -14q46 34 63 73z" />
    <glyph glyph-name="nine" unicode="9" 
d="M261 328q32 0 61.5 9t56.5 26q6 31 9.5 57t3.5 45q0 92 -82 92q-85 0 -109 -80q-8 -24 -10.5 -47t-2.5 -40q0 -62 73 -62zM57 9q-11 4 -13.5 10t2.5 20l13 49q5 14 12 17t18 -1q17 -5 45 -9.5t52 -4.5q70 0 113 41q22 21 36 51.5t22 75.5q-29 -15 -65.5 -23.5t-81.5 -8.5
q-72 0 -111.5 36t-39.5 102q0 24 4.5 52t9.5 55q8 42 27 76.5t52 60.5q27 22 69.5 35t103.5 13q191 0 191 -177q0 -26 -7 -79.5t-24 -138.5q-14 -71 -37.5 -122t-58.5 -84t-83.5 -49t-111.5 -16q-42 0 -79.5 5.5t-57.5 13.5z" />
    <glyph glyph-name="dollar" unicode="$" 
d="M382 653q35 -4 64 -10t46 -12q11 -4 14 -9.5t-2 -19.5l-18 -61q-7 -19 -30 -11q-20 6 -44.5 11.5t-49.5 7.5l-33 -174l54 -15q93 -26 93 -120q0 -25 -6.5 -60t-14.5 -60q-20 -65 -70 -95t-138 -33l-13 -66q-2 -11 -6.5 -14.5t-18.5 -3.5h-28q-14 0 -17.5 3.5t-1.5 14.5
l13 67q-40 3 -75 10t-61 16q-13 5 -18 11.5t-1 21.5l14 54q4 14 12.5 17t19.5 -1q30 -11 63.5 -18t65.5 -9l37 186l-49 14q-48 13 -73.5 42.5t-25.5 71.5q0 29 6 62t13 57q18 64 69 95t139 33l14 72q2 11 7 14.5t19 3.5h28q14 0 17 -3.5t1 -14.5zM300 263l-33 -166
q26 5 44 17t26 37q4 12 7.5 29.5t3.5 28.5q0 22 -9.5 34t-37.5 20h-1zM211 445q0 -17 9.5 -29.5t40.5 -21.5l30 156q-31 -3 -46.5 -14.5t-23.5 -34.5q-4 -12 -7 -27.5t-3 -28.5z" />
    <glyph glyph-name="cent" unicode="&#xa2;" 
d="M401 39q2 -11 -1.5 -16.5t-12.5 -8.5q-43 -14 -104 -20l-13 -68q-2 -11 -6.5 -14.5t-18.5 -3.5h-28q-14 0 -17.5 3.5t-1.5 14.5l12 66q-81 3 -117.5 34t-36.5 96q0 15 2.5 37t6.5 46.5t8.5 50.5t9.5 48q14 67 35 102t53 57q50 35 138 36l14 71q2 11 7 14.5t19 3.5h28
q14 0 17 -3.5t1 -14.5l-16 -79q23 -5 45 -12.5t42 -17.5q8 -4 9 -10t-4 -15l-28 -57q-9 -16 -26 -7q-12 6 -27 11.5t-30 9.5l-58 -301q17 2 34.5 5t31.5 8q12 4 18 1.5t8 -13.5zM178 142q0 -44 52 -51l59 306q-14 -2 -24.5 -7t-19.5 -12q-16 -13 -27.5 -37t-20.5 -68
q-5 -26 -9 -46t-6 -35t-3 -27t-1 -23z" />
    <glyph glyph-name="Euro" unicode="&#x20ac;" 
d="M218 192q-1 -21 2 -37t12 -28q24 -32 90 -32q35 0 67 6t57 17q18 8 21 -16l7 -53q2 -14 -2 -18.5t-15 -9.5q-16 -7 -36 -12.5t-41 -9.5t-41.5 -6t-37.5 -2q-70 0 -113 13.5t-69 44.5q-34 41 -34 109v17.5t1 16.5h-62q-17 0 -20.5 5.5t-1.5 19.5l8 42q3 14 8.5 19t22.5 5
h59l10 61h-57q-17 0 -21 5t-1 20l8 42q3 14 8.5 19t20.5 5h59q14 67 41.5 110.5t68.5 69.5q64 41 159 41q46 0 91 -11.5t74 -27.5q11 -7 12 -13.5t-6 -18.5l-28 -55q-5 -11 -12.5 -12t-15.5 4q-25 14 -55 22t-61 8q-52 0 -88 -27q-18 -14 -31.5 -37.5t-19.5 -52.5h189
q11 0 15 -4.5t1 -19.5l-8 -47q-2 -12 -8 -16t-18 -4h-189l-10 -61h188q11 0 15 -4.5t1 -19.5l-8 -42q-3 -15 -8 -20t-18 -5h-180z" />
    <glyph glyph-name="florin" unicode="&#x192;" 
d="M215 -20q-11 -41 -23.5 -70t-32.5 -50q-26 -28 -60.5 -39.5t-79.5 -11.5q-23 0 -52 5.5t-49 13.5q-12 5 -13 10.5t3 19.5l12 44q6 23 26 15q14 -5 35 -9.5t35 -4.5q31 0 50 19q10 9 17.5 24.5t12.5 34.5l84 309h-51q-11 0 -13.5 6t1.5 19l12 42q4 12 9 16.5t19 6.5l49 7
l30 111q14 51 32.5 87.5t47.5 59.5q52 41 134 41q23 0 46.5 -4t38.5 -9q14 -5 15 -9.5t-3 -16.5l-15 -50q-5 -14 -11 -16t-17 1t-26.5 5.5t-30.5 2.5q-38 0 -58.5 -21t-34.5 -74l-28 -105h100q16 0 20.5 -4.5t-0.5 -21.5l-15 -55q-4 -12 -10 -15.5t-23 -3.5h-99z" />
    <glyph glyph-name="sterling" unicode="&#xa3;" 
d="M495 536q-22 8 -49 14t-49 6q-24 0 -42 -5t-31.5 -17t-23 -33t-15.5 -54l-13 -71h153q16 0 21 -6t1 -23l-11 -49q-3 -13 -8.5 -17.5t-22.5 -4.5h-153l-6 -31q-10 -50 -27.5 -83.5t-54.5 -61.5h261q17 0 20.5 -6t0.5 -22l-9 -49q-2 -13 -7.5 -18t-22.5 -5h-400
q-17 0 -21 5.5t-2 16.5l7 36q3 14 8 20t22 16q42 25 64 55t32 78l9 49h-48q-26 0 -22 20l8 42q2 14 8 19t20 7l53 8l18 94q19 99 72.5 144.5t153.5 45.5q14 0 32 -2t36.5 -5.5t36 -8t30.5 -9.5q22 -8 15 -31l-16 -53q-6 -19 -28 -11z" />
    <glyph glyph-name="yen" unicode="&#xa5;" 
d="M172 164l9 45h-104q-15 0 -19 5.5t-2 22.5l6 38q2 15 9.5 20t22.5 5h58q-20 69 -37.5 153.5t-28.5 172.5q-2 13 5 17t24 4h65q16 0 21.5 -2.5t7.5 -18.5q3 -38 7.5 -79t10 -82.5t13 -83t16.5 -78.5h7q25 39 50.5 82t49 85.5t44 82.5t35.5 73q8 16 14.5 18.5t22.5 2.5h67
q17 0 22 -4t-1 -17q-38 -81 -85.5 -164t-103.5 -162h51q15 0 19.5 -5t2.5 -20l-6 -38q-2 -17 -8.5 -22.5t-24.5 -5.5h-105l-9 -45h111q15 0 19.5 -5t2.5 -20l-6 -38q-2 -17 -8.5 -22.5t-24.5 -5.5h-112l-9 -48q-3 -16 -9 -20.5t-23 -4.5h-72q-17 0 -21 4.5t-1 20.5l9 48h-97
q-15 0 -19 5.5t-2 22.5l6 38q2 15 9.5 20t22.5 5h98z" />
    <glyph glyph-name="numbersign" unicode="#" horiz-adv-x="642" 
d="M288 353l-31 -73h81l30 73h-80zM538 457h106q26 0 17 -22l-26 -61q-6 -14 -13 -17.5t-22 -3.5h-105l-31 -73h109q26 0 17 -22l-26 -61q-6 -14 -13 -17.5t-22 -3.5h-109l-64 -151q-6 -14 -14 -19.5t-25 -5.5h-66q-31 0 -21 25l64 151h-80l-63 -151q-6 -14 -14 -19.5
t-25 -5.5h-66q-31 0 -21 25l63 151h-93q-26 0 -17 22l26 61q6 14 13 17.5t22 3.5h93l30 73h-96q-26 0 -17 22l26 61q6 14 13 17.5t22 3.5h96l70 167q6 14 14 19.5t25 5.5h66q31 0 21 -25l-70 -167h80l70 167q6 14 14 19.5t25 5.5h66q31 0 21 -25z" />
    <glyph glyph-name="percent" unicode="%" horiz-adv-x="851" 
d="M591 638q8 10 17.5 14t26.5 4h60q37 0 16 -27l-461 -615q-11 -14 -20.5 -18.5t-24.5 -4.5h-63q-17 0 -18.5 10t7.5 23zM367 467q-11 -49 -26 -85t-44 -59q-22 -18 -48 -26.5t-63 -8.5q-68 0 -98 35q-14 16 -19 36t-5 43q0 16 2 33t7 42q8 42 24.5 82.5t49.5 66.5
q17 14 43.5 22t65.5 8q35 0 58.5 -9t37.5 -25t19 -37t5 -44q0 -32 -9 -74zM252 468q5 20 7 36.5t2 26.5q0 18 -6 25t-17 7q-18 0 -29.5 -17.5t-21.5 -69.5q-5 -24 -7 -38.5t-2 -24.5q0 -19 6 -25.5t18 -6.5q17 0 28 17.5t22 69.5zM766 170q-11 -49 -26 -85t-44 -59
q-22 -18 -48 -26.5t-63 -8.5q-68 0 -98 35q-14 16 -19 36t-5 43q0 16 2 33t7 42q8 42 24.5 82.5t49.5 66.5q17 14 43.5 22t65.5 8q35 0 58.5 -9t37.5 -25t19 -37t5 -44q0 -32 -9 -74zM651 171q5 20 7 36.5t2 26.5q0 18 -6 25t-17 7q-18 0 -29.5 -17.5t-21.5 -69.5
q-5 -24 -7 -38.5t-2 -24.5q0 -19 6 -25.5t18 -6.5q17 0 28 17.5t22 69.5z" />
    <glyph glyph-name="perthousand" unicode="&#x2030;" horiz-adv-x="1188" 
d="M591 638q8 10 17.5 14t26.5 4h60q37 0 16 -27l-461 -615q-11 -14 -20.5 -18.5t-24.5 -4.5h-63q-17 0 -18.5 10t7.5 23zM367 467q-11 -49 -26 -85t-44 -59q-22 -18 -48 -26.5t-63 -8.5q-68 0 -98 35q-14 16 -19 36t-5 43q0 16 2 33t7 42q8 42 24.5 82.5t49.5 66.5
q17 14 43.5 22t65.5 8q35 0 58.5 -9t37.5 -25t19 -37t5 -44q0 -32 -9 -74zM252 468q5 20 7 36.5t2 26.5q0 18 -6 25t-17 7q-18 0 -29.5 -17.5t-21.5 -69.5q-5 -24 -7 -38.5t-2 -24.5q0 -19 6 -25.5t18 -6.5q17 0 28 17.5t22 69.5zM766 170q-11 -49 -26 -85t-44 -59
q-22 -18 -48 -26.5t-63 -8.5q-68 0 -98 35q-14 16 -19 36t-5 43q0 16 2 33t7 42q8 42 24.5 82.5t49.5 66.5q17 14 43.5 22t65.5 8q35 0 58.5 -9t37.5 -25t19 -37t5 -44q0 -32 -9 -74zM651 171q5 20 7 36.5t2 26.5q0 18 -6 25t-17 7q-18 0 -29.5 -17.5t-21.5 -69.5
q-5 -24 -7 -38.5t-2 -24.5q0 -19 6 -25.5t18 -6.5q17 0 28 17.5t22 69.5zM1103 170q-11 -49 -26 -85t-44 -59q-22 -18 -48 -26.5t-63 -8.5q-68 0 -98 35q-14 16 -19 36t-5 43q0 16 2 33t7 42q8 42 24.5 82.5t49.5 66.5q17 14 43.5 22t65.5 8q35 0 58.5 -9t37.5 -25t19 -37
t5 -44q0 -32 -9 -74zM988 171q5 20 7 36.5t2 26.5q0 18 -6 25t-17 7q-18 0 -29.5 -17.5t-21.5 -69.5q-5 -24 -7 -38.5t-2 -24.5q0 -19 6 -25.5t18 -6.5q17 0 28 17.5t22 69.5z" />
    <glyph glyph-name="plus" unicode="+" 
d="M327 314h143q20 0 27 -6.5t4 -23.5l-10 -51q-4 -19 -13 -24t-29 -5h-143l-30 -153q-4 -19 -12.5 -25.5t-28.5 -6.5h-47q-36 0 -30 32l30 153h-143q-20 0 -26.5 6.5t-3.5 24.5l10 49q3 17 12 23.5t29 6.5h143l30 153q4 19 12.5 25.5t28.5 6.5h47q36 0 30 -32z" />
    <glyph glyph-name="minus" unicode="&#x2212;" 
d="M45 204q-20 0 -27 6.5t-3 24.5l10 49q3 17 12 23.5t29 6.5h404q20 0 27 -6.5t4 -23.5l-10 -51q-4 -19 -13 -24t-29 -5h-404z" />
    <glyph glyph-name="multiply" unicode="&#xd7;" 
d="M265 338l121 101q14 12 25.5 11t23.5 -15l30 -35q21 -24 -4 -44l-125 -102l85 -105q19 -23 -6 -44l-43 -36q-13 -11 -21.5 -11t-19.5 13l-86 108l-120 -100q-22 -18 -32.5 -15.5t-21.5 16.5l-26 31q-10 13 -11.5 24.5t20.5 29.5l119 99l-81 99q-20 24 8 46l40 31
q14 11 24 10.5t20 -12.5z" />
    <glyph glyph-name="less" unicode="&#x3c;" 
d="M40 279q2 10 7 15.5t16 11.5l361 172q11 5 20 4t15 -12l27 -54q6 -12 2 -19.5t-16 -13.5l-264 -128l197 -121q14 -8 18.5 -18t-6.5 -24l-33 -44q-8 -11 -17.5 -13.5t-26.5 8.5l-294 174q-13 9 -13 19q0 12 7 43z" />
    <glyph glyph-name="divide" unicode="&#xf7;" 
d="M358 432q-8 -36 -26.5 -50t-48.5 -14h-11q-54 0 -54 38q0 14 5 42q7 35 27.5 49t49.5 14h11q24 0 38 -9.5t14 -30.5q0 -14 -5 -39zM41 204q-20 0 -24 6t-1 24l9 52q3 18 9.5 23t27.5 5h408q20 0 24 -6t1 -24l-9 -52q-3 -18 -9.5 -23t-27.5 -5h-408zM288 71
q-8 -36 -26.5 -50t-48.5 -14h-11q-54 0 -54 38q0 14 5 42q7 35 27.5 49t49.5 14h11q24 0 38 -9.5t14 -30.5q0 -14 -5 -39z" />
    <glyph glyph-name="equal" unicode="=" 
d="M20 94q-20 0 -27 6.5t-3 24.5l10 49q3 17 12 23.5t29 6.5h404q20 0 27 -6.5t4 -23.5l-10 -51q-4 -19 -13 -24t-29 -5h-404zM62 314q-20 0 -27 6.5t-3 24.5l10 49q3 17 12 23.5t29 6.5h404q20 0 27 -6.5t4 -23.5l-10 -51q-4 -19 -13 -24t-29 -5h-404z" />
    <glyph glyph-name="logicalnot" unicode="&#xac;" 
d="M381 37q-20 0 -27 6t-4 23l27 138h-325q-21 0 -25 7t-1 21l10 53q4 17 10 23t28 6h410q17 0 23.5 -6.5t3.5 -23.5l-42 -218q-3 -17 -11 -23t-29 -6h-48v0z" />
    <glyph glyph-name="greater" unicode="&#x3e;" 
d="M479 235q-2 -10 -7 -15.5t-16 -11.5l-361 -172q-11 -5 -20 -4t-15 12l-27 54q-6 12 -2 19.5t16 13.5l264 128l-197 121q-14 8 -18.5 18t6.5 24l33 44q8 11 17.5 13.5t26.5 -8.5l294 -174q13 -9 13 -19q0 -12 -7 -43z" />
    <glyph glyph-name="notequal" unicode="&#x2260;" 
d="M225 94l-47 -87q-10 -18 -19.5 -23.5t-29.5 -5.5h-44q-23 0 -29.5 7.5t5.5 28.5l43 80h-84q-20 0 -27 6.5t-3 24.5l10 49q3 17 12 23.5t29 6.5h123l59 110h-161q-20 0 -27 6.5t-3 24.5l10 49q3 17 12 23.5t29 6.5h200l52 95q10 18 20 23.5t29 5.5h36q26 0 34.5 -8
t-2.5 -28l-48 -88h83q20 0 27 -6.5t4 -23.5l-10 -51q-4 -19 -13 -24t-29 -5h-122l-60 -110h161q20 0 27 -6.5t4 -23.5l-10 -51q-4 -19 -13 -24t-29 -5h-199z" />
    <glyph glyph-name="approxequal" unicode="&#x2248;" 
d="M250 326q-17 9 -30.5 13t-30.5 4q-21 0 -40.5 -12.5t-40.5 -36.5q-6 -8 -15 -7.5t-18 8.5l-35 30q-9 8 -13 14.5t4 17.5q35 54 77.5 81.5t82.5 27.5q28 0 49 -8t39 -18l29 -16q20 -11 35.5 -17t28.5 -6q34 0 67 49q8 11 15 11t16 -5l43 -27q11 -7 12.5 -13t-6.5 -20
q-34 -58 -74 -84.5t-76 -26.5q-28 0 -50 7t-41 18zM210 103q-17 9 -30.5 13t-30.5 4q-21 0 -40.5 -12.5t-40.5 -36.5q-13 -16 -33 1l-35 30q-9 8 -13 14.5t4 17.5q35 54 77.5 81.5t82.5 27.5q28 0 49 -8t39 -18l29 -16q20 -11 35.5 -17t28.5 -6q34 0 67 49q8 11 15 11t16 -5
l43 -27q11 -7 12.5 -13t-6.5 -20q-34 -58 -74 -84.5t-76 -26.5q-28 0 -50 7t-41 18z" />
    <glyph glyph-name="plusminus" unicode="&#xb1;" 
d="M347 447h143q20 0 27 -6.5t4 -23.5l-10 -51q-4 -19 -13 -24t-29 -5h-143l-25 -130q-4 -19 -12.5 -25.5t-28.5 -6.5h-47q-36 0 -30 32l25 130h-143q-20 0 -26.5 6.5t-3.5 24.5l10 49q3 17 12 23.5t29 6.5h143l27 139q4 19 12.5 25.5t28.5 6.5h47q36 0 30 -32zM0 0
q-20 0 -27 6.5t-3 24.5l10 49q3 17 12 23.5t29 6.5h404q20 0 27 -6.5t4 -23.5l-10 -51q-4 -19 -13 -24t-29 -5h-404z" />
    <glyph glyph-name="lessequal" unicode="&#x2264;" 
d="M2 0q-26 0 -29.5 9.5t0.5 27.5l7 36q3 17 10 27t33 10h404q25 0 28.5 -10t0.5 -27l-7 -38q-5 -26 -18 -30.5t-25 -4.5h-404zM52 411q2 10 6.5 16t16.5 11l367 165q11 5 20 4t15 -12l21 -56q5 -13 1.5 -20t-15.5 -13l-264 -119l209 -109q14 -8 18.5 -18t-6.5 -24l-33 -44
q-8 -11 -17.5 -12t-26.5 7l-306 162q-13 6 -13 19q0 12 7 43z" />
    <glyph glyph-name="greaterequal" unicode="&#x2265;" 
d="M500 375q-2 -10 -6.5 -16t-16.5 -11l-367 -165q-11 -5 -20 -4t-15 12l-21 56q-5 13 -1.5 20t15.5 13l264 119l-209 109q-14 8 -18.5 18t6.5 24l33 44q8 11 17.5 12t26.5 -7l306 -162q13 -7 13 -19t-7 -43zM2 0q-26 0 -29.5 9.5t0.5 27.5l7 36q3 17 10 27t33 10h404
q25 0 28.5 -10t0.5 -27l-7 -38q-5 -26 -18 -30.5t-25 -4.5h-404z" />
    <glyph glyph-name="asciicircum" unicode="^" 
d="M142 300q-17 -16 -27.5 -17.5t-27.5 7.5l-41 23q-17 9 -17 21q0 11 12 24l197 212q14 14 22.5 17.5t25.5 3.5h43q17 0 24.5 -3.5t15.5 -17.5l121 -217q8 -16 4.5 -23.5t-20.5 -17.5l-36 -22q-16 -10 -26 -6t-20 18l-97 148z" />
    <glyph glyph-name="asciitilde" unicode="~" 
d="M221 271q-14 10 -26 15.5t-27 5.5q-17 0 -36 -13t-45 -48q-8 -12 -17 -13t-23 8l-46 27q-11 6 -10 14t8 19q48 75 95 102.5t91 27.5q29 0 52.5 -9t47.5 -26l26 -19q15 -11 28 -17t24 -6q18 0 39.5 17t45.5 54q11 17 35 -1l35 -24q12 -8 13.5 -15.5t-5.5 -19.5
q-38 -68 -85 -99.5t-93 -31.5q-30 0 -53.5 8.5t-43.5 22.5z" />
    <glyph glyph-name="lozenge" unicode="&#x25ca;" 
d="M385 331l-74 181l-151 -193l73 -182zM501 369q3 -7 5 -13t2 -13q0 -5 -0.5 -12t-3.5 -15t-8 -15.5t-13 -16.5l-210 -269q-11 -14 -21 -19t-25 -5h-33q-12 0 -20.5 5t-14.5 19l-111 274q-7 16 -7 27q0 4 1 10.5t3 12.5q5 13 18 30l215 270q11 14 21 19t22 5h31
q15 0 23.5 -5t14.5 -19z" />
    <glyph glyph-name="degree" unicode="&#xb0;" horiz-adv-x="369" 
d="M56 572q0 35 12.5 67.5t36 57t57 39.5t74.5 15q56 0 90.5 -34.5t34.5 -87.5q0 -41 -14 -73.5t-38 -55.5t-57 -35.5t-70 -12.5q-55 0 -90 34t-36 86zM163 600q-4 -20 6.5 -33.5t28.5 -13.5q25 0 38 13.5t17 33.5q4 22 -6.5 35.5t-30.5 13.5t-34.5 -13.5t-18.5 -35.5z" />
    <glyph glyph-name="quotesingle" unicode="'" horiz-adv-x="225" 
d="M87 437q-15 0 -12 18l33 242q2 21 21 21h101q18 0 13 -21l-58 -242q-3 -18 -21 -18h-77z" />
    <glyph glyph-name="quotedbl" unicode="&#x22;" horiz-adv-x="452" 
d="M95 437q-15 0 -12 18l33 242q2 21 21 21h101q18 0 13 -21l-58 -242q-3 -18 -21 -18h-77zM322 437q-15 0 -12 18l33 242q2 21 21 21h101q18 0 13 -21l-58 -242q-3 -18 -21 -18h-77z" />
    <glyph glyph-name="radical" unicode="&#x221a;" horiz-adv-x="616" 
d="M36 480q3 20 26 20h137q27 0 28 -22q5 -106 11.5 -194t17.5 -169h5q80 147 149.5 282.5t123.5 243.5q5 9 9.5 12t15.5 3h98q19 0 9 -18q-27 -58 -63 -128t-79 -148.5t-91 -162.5t-100 -170q-17 -29 -46 -29h-104q-17 0 -24 6.5t-9 22.5q-14 88 -25.5 184t-21.5 184h-60
q-22 0 -18 20z" />
    <glyph glyph-name="currency" unicode="&#xa4;" horiz-adv-x="545" 
d="M329 113q-21 -13 -48.5 -19.5t-53.5 -6.5q-50 0 -88 22l-76 -66q-12 -9 -18.5 -8.5t-13.5 8.5l-42 50q-7 9 -6 15.5t13 17.5l77 64q-8 26 -8 53q0 37 11.5 71.5t33.5 63.5l-54 65q-14 16 7 33l56 44q19 16 32 0l53 -63q23 11 48.5 17.5t51.5 6.5q50 0 89 -22l77 63
q11 9 18.5 8.5t13.5 -8.5l39 -49q7 -9 6 -15.5t-13 -17.5l-76 -63q9 -24 9 -53q0 -35 -11.5 -73t-34.5 -70l53 -64q8 -10 6 -17t-13 -16l-48 -39q-18 -17 -32 0zM282 370q-23 0 -42 -8.5t-32.5 -23t-21.5 -33.5t-8 -40q0 -31 18.5 -49t52.5 -18q50 0 77.5 31t27.5 76
q-1 30 -21 47.5t-51 17.5z" />
    <glyph glyph-name="infinity" unicode="&#x221e;" horiz-adv-x="813" 
d="M380 237q-50 -53 -102.5 -78t-104.5 -25q-33 0 -60.5 10t-48 29.5t-32 47.5t-11.5 65q0 48 16.5 87t46 67.5t69.5 44t88 15.5q28 0 51.5 -5.5t44.5 -18t40.5 -33t40.5 -50.5q52 55 102.5 81t103.5 26q72 0 115.5 -38.5t43.5 -113.5q0 -45 -17 -84.5t-47.5 -68t-72 -45
t-89.5 -16.5q-26 0 -49 5t-44.5 17t-42 32t-41.5 49zM326 310q-20 35 -40.5 61t-51.5 26q-20 0 -36 -8t-28 -21.5t-18.5 -31.5t-6.5 -38q0 -29 16 -45.5t43 -16.5q31 0 60 21.5t62 52.5zM469 310q21 -31 42 -52.5t52 -21.5q32 0 56.5 22t32.5 60q7 37 -8.5 58t-48.5 21
q-32 0 -60.5 -24.5t-65.5 -62.5z" />
    <glyph glyph-name="mu" unicode="&#xb5;" horiz-adv-x="542" 
d="M81 -156q-2 -12 -8.5 -16.5t-23.5 -4.5h-63q-16 0 -20.5 5t-2.5 16l120 621q3 15 9.5 20t23.5 5h63q17 0 21.5 -5t1.5 -20l-56 -289q-2 -11 -3.5 -20.5t-1.5 -20.5q0 -24 19 -34t49 -10q25 0 39 4t26 12q15 11 22 27t12 42l56 289q3 15 9.5 20t23.5 5h63q17 0 21.5 -5
t1.5 -20l-64 -328q-5 -26 1 -36.5t19 -10.5q9 0 16.5 0.5t13.5 1.5q18 3 19 -16l3 -46q1 -10 -4 -15t-16 -10t-32.5 -9.5t-39.5 -4.5q-77 0 -97 46h-2q-21 -23 -50 -34.5t-58 -11.5q-26 0 -44.5 5t-33.5 16z" />
    <glyph glyph-name="mu" unicode="&#x3bc;" horiz-adv-x="542" 
d="M81 -156q-2 -12 -8.5 -16.5t-23.5 -4.5h-63q-16 0 -20.5 5t-2.5 16l120 621q3 15 9.5 20t23.5 5h63q17 0 21.5 -5t1.5 -20l-56 -289q-2 -11 -3.5 -20.5t-1.5 -20.5q0 -24 19 -34t49 -10q25 0 39 4t26 12q15 11 22 27t12 42l56 289q3 15 9.5 20t23.5 5h63q17 0 21.5 -5
t1.5 -20l-64 -328q-5 -26 1 -36.5t19 -10.5q9 0 16.5 0.5t13.5 1.5q18 3 19 -16l3 -46q1 -10 -4 -15t-16 -10t-32.5 -9.5t-39.5 -4.5q-77 0 -97 46h-2q-21 -23 -50 -34.5t-58 -11.5q-26 0 -44.5 5t-33.5 16z" />
    <glyph glyph-name="partialdiff" unicode="&#x2202;" horiz-adv-x="511" 
d="M250 328q-50 0 -75.5 -25t-35.5 -61q-7 -25 -10 -48.5t-3 -42.5q0 -28 17.5 -44.5t55.5 -16.5q39 0 65 19t42.5 48.5t26 66.5t17.5 73q-40 31 -100 31zM178 643q26 11 66.5 19t82.5 8q51 0 88 -14.5t58 -46.5q17 -26 23 -54.5t6 -70.5q0 -32 -5.5 -79.5t-19.5 -110.5
q-15 -68 -34.5 -123.5t-52 -95.5t-82 -61.5t-122.5 -21.5q-54 0 -93.5 14.5t-60.5 40.5q-14 17 -21.5 43t-7.5 52q0 20 3.5 49.5t9.5 58.5q8 38 27 74t51 61q30 24 68.5 34.5t85.5 10.5q33 0 65.5 -7.5t55.5 -20.5q4 20 5.5 37t1.5 37q0 46 -17 69t-70 23q-21 0 -46 -5.5
t-47 -13.5q-23 -8 -26 12l-8 51q-2 12 1 19t15 12z" />
    <glyph glyph-name="summation" unicode="&#x2211;" horiz-adv-x="487" 
d="M380 7q16 0 20.5 -5t1.5 -19l-10 -55q-3 -14 -9 -19t-23 -5h-407q-15 0 -21.5 6t-2.5 24l6 32q2 9 6.5 17.5t18.5 20.5l243 238q17 17 26 26.5t9 17.5q0 7 -5 15t-15 22l-145 201q-6 8 -8 14t0 18l14 74q4 17 25 17h397q17 0 21 -5t1 -19l-12 -58q-3 -14 -9 -19t-23 -5
h-263l148 -212q8 -11 8 -22q0 -3 -1 -10.5t-3 -16.5q-2 -11 -7 -20t-19 -22l-235 -231h273z" />
    <glyph glyph-name="product" unicode="&#x220f;" horiz-adv-x="619" 
d="M642 647q15 0 19 -5t1 -19l-11 -58q-3 -14 -9.5 -19t-20.5 -5h-69l-118 -608q-4 -17 -11 -23t-24 -6h-68q-17 0 -21.5 6t-1.5 23l118 608h-153l-118 -608q-4 -17 -11 -23t-24 -6h-68q-17 0 -22 6t-1 23l118 608h-69q-17 0 -20 5t0 19l11 58q3 14 9 19t21 5h543z" />
    <glyph glyph-name="pi" unicode="&#x3c0;" horiz-adv-x="588" 
d="M444 153q-2 -12 -3.5 -22t-1.5 -19q0 -11 5.5 -16.5t19.5 -5.5q11 0 20 1t17 3q13 3 14 -10l5 -61q1 -14 -15 -19q-15 -5 -41.5 -9t-55.5 -4q-55 0 -79 19t-23 58q0 27 10 76l47 240h-113l-69 -355q-4 -17 -11 -23t-24 -6h-68q-17 0 -22 6t-1 23l69 355h-69q-17 0 -20 5
t-1 19l12 58q2 14 8 19t21 5h512q15 0 19 -5t2 -19l-12 -58q-2 -14 -8.5 -19t-20.5 -5h-78z" />
    <glyph glyph-name="integral" unicode="&#x222b;" horiz-adv-x="358" 
d="M221 106q-4 -54 -13 -93.5t-28 -65.5t-50 -39t-79 -13q-29 0 -55 3.5t-42 7.5q-19 4 -14 25l14 50q4 19 24 14t49 -5q36 0 52 26t19 90q1 34 2.5 74t3 81.5l3 83t2.5 77.5q2 64 13 109t32.5 72.5t56 40t83.5 12.5q32 0 57.5 -3.5t38.5 -8.5q9 -3 11.5 -8t-1.5 -16
l-15 -54q-7 -20 -23 -15q-10 3 -24 5.5t-26 2.5q-24 0 -38.5 -6.5t-23 -23.5t-12 -45.5t-4.5 -71.5q-2 -75 -5 -156t-8 -150z" />
    <glyph glyph-name="Omega" unicode="&#x3a9;" horiz-adv-x="616" 
d="M349 552q-30 0 -56 -9.5t-41 -23.5q-24 -22 -42.5 -58.5t-29.5 -98.5q-8 -41 -10.5 -63.5t-2.5 -39.5q0 -45 12 -80.5t35 -65.5q7 -10 9.5 -15.5t0.5 -14.5l-13 -68q-2 -7 -5.5 -11t-12.5 -4h-213q-21 0 -16 22l11 61q3 20 25 20h101v3q-29 26 -45.5 62t-16.5 72
q0 29 3.5 66t10.5 69q16 76 40 128.5t68 92.5q29 26 79.5 43t125.5 17q104 0 161.5 -44t57.5 -135q0 -31 -4.5 -65.5t-13.5 -81.5q-14 -73 -46 -128.5t-87 -95.5v-3h90q12 0 15.5 -5t1.5 -15l-12 -61q-2 -11 -7.5 -16.5t-17.5 -5.5h-213q-9 0 -11.5 4t-0.5 11l13 68
q2 9 6.5 14.5t15.5 15.5q47 42 77.5 94.5t47.5 127.5q8 33 11.5 65.5t3.5 57.5q0 50 -25.5 72t-79.5 22z" />
    <glyph glyph-name="Omega" unicode="&#x2126;" horiz-adv-x="616" 
d="M349 552q-30 0 -56 -9.5t-41 -23.5q-24 -22 -42.5 -58.5t-29.5 -98.5q-8 -41 -10.5 -63.5t-2.5 -39.5q0 -45 12 -80.5t35 -65.5q7 -10 9.5 -15.5t0.5 -14.5l-13 -68q-2 -7 -5.5 -11t-12.5 -4h-213q-21 0 -16 22l11 61q3 20 25 20h101v3q-29 26 -45.5 62t-16.5 72
q0 29 3.5 66t10.5 69q16 76 40 128.5t68 92.5q29 26 79.5 43t125.5 17q104 0 161.5 -44t57.5 -135q0 -31 -4.5 -65.5t-13.5 -81.5q-14 -73 -46 -128.5t-87 -95.5v-3h90q12 0 15.5 -5t1.5 -15l-12 -61q-2 -11 -7.5 -16.5t-17.5 -5.5h-213q-9 0 -11.5 4t-0.5 11l13 68
q2 9 6.5 14.5t15.5 15.5q47 42 77.5 94.5t47.5 127.5q8 33 11.5 65.5t3.5 57.5q0 50 -25.5 72t-79.5 22z" />
    <glyph glyph-name="Delta" unicode="&#x394;" horiz-adv-x="602" 
d="M390 108q-12 97 -24.5 190t-28.5 185h-5q-52 -91 -103 -184.5t-102 -190.5h263zM-3 0q-19 0 -24.5 9t-1.5 25l9 37q2 9 5 17.5t7.5 18.5t11.5 23t16 30q28 52 57 105t61 110t67 117.5t74 127.5q16 27 43 27h83q14 0 20 -7t8 -19q15 -74 27.5 -139t22.5 -123.5t18 -111.5
t15 -103q2 -16 3.5 -27.5t1.5 -20.5t-0.5 -17.5t-2.5 -18.5l-6 -31q-3 -15 -11.5 -22t-27.5 -7h-476z" />
    <glyph glyph-name="Delta" unicode="&#x2206;" horiz-adv-x="602" 
d="M390 108q-12 97 -24.5 190t-28.5 185h-5q-52 -91 -103 -184.5t-102 -190.5h263zM-3 0q-19 0 -24.5 9t-1.5 25l9 37q2 9 5 17.5t7.5 18.5t11.5 23t16 30q28 52 57 105t61 110t67 117.5t74 127.5q16 27 43 27h83q14 0 20 -7t8 -19q15 -74 27.5 -139t22.5 -123.5t18 -111.5
t15 -103q2 -16 3.5 -27.5t1.5 -20.5t-0.5 -17.5t-2.5 -18.5l-6 -31q-3 -15 -11.5 -22t-27.5 -7h-476z" />
    <glyph glyph-name="litre" unicode="&#x2113;" horiz-adv-x="459" 
d="M227 320q50 41 76 78.5t35 68.5q5 15 7 30t2 25q0 19 -8 26t-22 7q-20 0 -36.5 -19.5t-25.5 -68.5zM200 179q-3 -15 -5.5 -31t-2.5 -28q0 -28 29 -28q19 0 46 12.5t59 35.5q15 10 25 -1l26 -35q5 -6 5.5 -11.5t-9.5 -15.5q-36 -36 -91 -61t-115 -25q-106 0 -106 73
q0 21 3 40.5t5 31.5l2 13q-13 -8 -28 -14.5t-27 -11.5q-21 -7 -25 13l-12 50q-2 11 4 17.5t17 11.5q22 9 45.5 20t46.5 23l38 200q20 103 65.5 149.5t131.5 46.5q71 0 108.5 -32t37.5 -89q0 -22 -4 -42q-14 -77 -75.5 -149.5t-188.5 -138.5z" />
    <glyph glyph-name="estimated" unicode="&#x212e;" horiz-adv-x="820" 
d="M189 316q-5 0 -5 -5v-182q0 -10 9 -21q42 -45 100.5 -71t126.5 -26q72 0 133.5 29.5t103.5 79.5h54q-51 -58 -126.5 -93.5t-165.5 -35.5q-77 0 -144.5 26t-117.5 71t-79.5 105.5t-29.5 129.5t29.5 130t79.5 106t117.5 71t144.5 26q76 0 143 -26t117.5 -71t79.5 -106
t29 -130v-7h-599zM652 521q0 12 -10 22q-42 43 -99 68t-123 25q-68 0 -126 -25.5t-100 -70.5q-10 -8 -10 -23v-179q0 -5 5 -5h458q5 0 5 5v183z" />
    <glyph glyph-name="numero" unicode="&#x2116;" horiz-adv-x="641" 
d="M875 81q9 0 11.5 -4t0.5 -11l-10 -53q-2 -10 -7 -11.5t-10 -1.5h-227q-9 0 -11.5 3.5t-0.5 11.5l9 51q2 7 5.5 11t12.5 4h227zM130 21q-2 -13 -7 -17t-22 -4h-65q-17 0 -21 3.5t-2 16.5l117 602q3 15 9 20t23 5h72q17 0 23 -5t11 -16l164 -435h4l84 435q2 13 7 17t22 4
h65q17 0 21 -3.5t2 -16.5l-117 -602q-3 -16 -8.5 -20.5t-22.5 -4.5h-65q-17 0 -25.5 5t-13.5 16l-169 426h-4zM758 310q-6 -26 -8 -44t-2 -29q0 -35 37 -35q24 0 37.5 14t20.5 46q11 50 11 76q0 22 -8 31t-28 9q-23 0 -37 -15t-23 -53zM932 265q-7 -34 -18 -59.5t-29 -42.5
t-45 -25.5t-65 -8.5q-59 0 -87 22.5t-28 71.5q0 12 2.5 36t10.5 58q9 39 21.5 64.5t31 40.5t45 21.5t62.5 6.5q58 0 84.5 -23t26.5 -71q0 -15 -3 -38.5t-9 -52.5z" />
    <glyph glyph-name="fraction" unicode="&#x2044;" horiz-adv-x="150" 
d="M231 636q8 11 17 15.5t26 4.5h59q23 0 26.5 -7t-9.5 -24l-457 -614q-8 -11 -17 -15.5t-26 -4.5h-65q-17 0 -20.5 7.5t9.5 23.5z" />
    <glyph glyph-name="onesuperior" unicode="&#xb9;" horiz-adv-x="400" 
d="M90 427q-14 0 -17.5 5t-1.5 18l8 45q3 14 8 17t19 3h68l36 184h-4l-49 -28q-10 -5 -15.5 -3t-10.5 11l-22 35q-10 16 9 26l91 52q14 8 23.5 11t27.5 3h41q14 0 19.5 -5t2.5 -20l-51 -266h60q11 0 15 -4t2 -16l-8 -50q-3 -18 -29 -18h-222z" />
    <glyph glyph-name="twosuperior" unicode="&#xb2;" horiz-adv-x="400" 
d="M163 712q-15 -5 -18 11l-7 52q-2 8 1 13t14 9q22 8 53 13t55 5q60 0 88 -24.5t28 -67.5q0 -9 -1 -19.5t-3 -22.5q-7 -38 -29 -60.5t-67 -39.5l-45 -17q-29 -11 -39.5 -20.5t-12.5 -22.5l-1 -6h129q14 0 18.5 -2.5t1.5 -18.5l-10 -49q-2 -11 -7.5 -14.5t-19.5 -3.5h-206
q-18 0 -22.5 5.5t-1.5 22.5l7 39q10 54 33 84t68 47l45 17q31 12 42.5 20.5t14.5 19.5q3 9 3 18q0 12 -10 18t-33 6q-15 0 -33 -3.5t-35 -8.5z" />
    <glyph glyph-name="threesuperior" unicode="&#xb3;" horiz-adv-x="400" 
d="M90 512q5 11 10.5 13.5t15.5 -2.5q15 -7 36 -12.5t41 -5.5q23 0 34.5 8.5t16.5 24.5q2 5 2.5 10.5t0.5 8.5q0 11 -8 16t-28 5h-35q-21 0 -16 20l8 45q2 12 6.5 15t16.5 3h29q26 0 37 8t14 20q2 8 2 15q0 10 -8.5 15t-29.5 5q-15 0 -31 -2t-30 -7q-11 -4 -15.5 0t-5.5 13
l-5 44q-1 10 2 15t12 8q24 8 55 13t57 5q51 0 78 -19.5t27 -61.5q0 -8 -1.5 -19.5t-3.5 -19.5q-7 -26 -21 -43.5t-40 -28.5v-2q17 -8 27 -23t10 -36q0 -16 -5 -39q-11 -56 -50.5 -79.5t-96.5 -23.5q-33 0 -64.5 6.5t-54.5 15.5q-17 7 -9 26z" />
    <glyph glyph-name="onehalf" unicode="&#xbd;" horiz-adv-x="890" 
d="M640 285q-15 -5 -18 11l-7 52q-2 8 1 13t14 9q22 8 53 13t55 5q60 0 88 -24.5t28 -67.5q0 -9 -1 -19.5t-3 -22.5q-7 -38 -29 -60.5t-67 -39.5l-45 -17q-29 -11 -39.5 -20.5t-12.5 -22.5l-1 -6h129q14 0 18.5 -2.5t1.5 -18.5l-10 -49q-2 -11 -7.5 -14.5t-19.5 -3.5h-206
q-18 0 -22.5 5.5t-1.5 22.5l7 39q10 54 33 84t68 47l45 17q31 12 42.5 20.5t14.5 19.5q3 9 3 18q0 12 -10 18t-33 6q-15 0 -33 -3.5t-35 -8.5zM634 636q8 11 17 15.5t26 4.5h59q23 0 26.5 -7t-9.5 -24l-457 -614q-8 -11 -17 -15.5t-26 -4.5h-65q-17 0 -20.5 7.5t9.5 23.5z
M58 268q-14 0 -17.5 5t-1.5 18l8 45q3 14 8 17t19 3h68l36 184h-4l-49 -28q-10 -5 -15.5 -3t-10.5 11l-22 35q-10 16 9 26l91 52q14 8 23.5 11t27.5 3h41q14 0 19.5 -5t2.5 -20l-51 -266h60q11 0 15 -4t2 -16l-8 -50q-3 -18 -29 -18h-222z" />
    <glyph glyph-name="onequarter" unicode="&#xbc;" horiz-adv-x="879" 
d="M761 82l-12 -63q-4 -19 -26 -19h-54q-22 0 -18 19l12 63h-147q-14 0 -18 4t-2 17l6 28q1 11 21 35l155 188q12 14 22.5 19.5t27.5 5.5h63q17 0 21 -6t1 -22l-37 -191h29q11 0 13.5 -5.5t0.5 -16.5l-6 -33q-2 -8 -7 -15.5t-16 -7.5h-29zM599 160h79l24 123h-3zM631 636
q8 11 17 15.5t26 4.5h59q23 0 26.5 -7t-9.5 -24l-457 -614q-8 -11 -17 -15.5t-26 -4.5h-65q-17 0 -20.5 7.5t9.5 23.5zM58 268q-14 0 -17.5 5t-1.5 18l8 45q3 14 8 17t19 3h68l36 184h-4l-49 -28q-10 -5 -15.5 -3t-10.5 11l-22 35q-10 16 9 26l91 52q14 8 23.5 11t27.5 3h41
q14 0 19.5 -5t2.5 -20l-51 -266h60q11 0 15 -4t2 -16l-8 -50q-3 -18 -29 -18h-222z" />
    <glyph glyph-name="threequarters" unicode="&#xbe;" horiz-adv-x="859" 
d="M741 82l-12 -63q-4 -19 -26 -19h-54q-22 0 -18 19l12 63h-147q-14 0 -18 4t-2 17l6 28q1 11 21 35l155 188q12 14 22.5 19.5t27.5 5.5h63q17 0 21 -6t1 -22l-37 -191h29q11 0 13.5 -5.5t0.5 -16.5l-6 -33q-2 -8 -7 -15.5t-16 -7.5h-29zM579 160h79l24 123h-3zM610 636
q8 11 17 15.5t26 4.5h59q23 0 26.5 -7t-9.5 -24l-457 -614q-8 -11 -17 -15.5t-26 -4.5h-65q-17 0 -20.5 7.5t9.5 23.5zM32 355q5 11 10.5 13.5t15.5 -2.5q15 -7 36 -12.5t41 -5.5q23 0 34.5 8.5t16.5 24.5q2 5 2.5 10.5t0.5 8.5q0 11 -8 16t-28 5h-35q-21 0 -16 20l8 45
q2 12 6.5 15t16.5 3h29q26 0 37 8t14 20q2 8 2 15q0 10 -8.5 15t-29.5 5q-15 0 -31 -2t-30 -7q-11 -4 -15.5 0t-5.5 13l-5 44q-1 10 2 15t12 8q24 8 55 13t57 5q51 0 78 -19.5t27 -61.5q0 -8 -1.5 -19.5t-3.5 -19.5q-7 -26 -21 -43.5t-40 -28.5v-2q17 -8 27 -23t10 -36
q0 -16 -5 -39q-11 -56 -50.5 -79.5t-96.5 -23.5q-33 0 -64.5 6.5t-54.5 15.5q-17 7 -9 26z" />
    <glyph glyph-name="grave" unicode="`" horiz-adv-x="370" 
d="M343 627q17 -9 8 -28l-16 -34q-8 -18 -30 -10l-193 74q-11 4 -13.5 10t2.5 17l26 58q6 13 12.5 15t17.5 -4z" />
    <glyph glyph-name="acute" unicode="&#xb4;" horiz-adv-x="370" 
d="M306 725q11 6 17.5 4t12.5 -15l26 -58q5 -11 2.5 -17t-13.5 -10l-193 -74q-22 -8 -30 10l-16 34q-9 19 8 28z" />
    <glyph glyph-name="dieresis" unicode="&#xa8;" horiz-adv-x="370" 
d="M173 693q22 0 34 -10.5t12 -28.5q0 -5 -1 -13.5t-4 -20.5q-6 -25 -23 -37t-42 -12h-10q-45 0 -45 35q0 8 1 17.5t5 23.5q6 23 22.5 34.5t40.5 11.5h10zM337 693q22 0 34 -10.5t12 -28.5q0 -5 -1 -13.5t-4 -20.5q-6 -25 -23 -37t-42 -12h-10q-45 0 -45 35q0 8 1 17.5
t5 23.5q6 23 22.5 34.5t40.5 11.5h10z" />
    <glyph glyph-name="circumflex" unicode="&#x2c6;" horiz-adv-x="370" 
d="M381 595q3 -5 5.5 -9.5t2.5 -9.5q0 -9 -12 -16l-24 -14q-11 -6 -18 -6q-8 0 -20 13l-68 76h-3l-97 -81q-10 -8 -17 -8q-9 0 -20 8l-28 22q-6 4 -6 12t10 17l112 109q8 8 14 9.5t13 1.5h57q6 0 12 -1.5t11 -9.5z" />
    <glyph glyph-name="tilde" unicode="&#x2dc;" horiz-adv-x="370" 
d="M79 578q-7 5 -9 8.5t5 14.5q26 43 58 66.5t64 23.5q18 0 32.5 -5t28.5 -16l19 -14q19 -15 33 -15q25 0 54 40q8 11 19 2l25 -19q8 -6 9 -11t-5 -13q-32 -45 -60 -64.5t-56 -19.5q-20 0 -34 5t-28 15l-20 15q-9 7 -17 10.5t-18 3.5q-11 0 -23.5 -9.5t-28.5 -32.5
q-5 -8 -11 -7t-15 7z" />
    <glyph glyph-name="macron" unicode="&#xaf;" horiz-adv-x="370" 
d="M350 662q15 0 18 -6.5t1 -17.5l-7 -37q-3 -17 -11.5 -19.5t-16.5 -2.5h-216q-14 0 -18 6t-2 18l7 35q2 11 8.5 17.5t20.5 6.5h216z" />
    <glyph glyph-name="breve" unicode="&#x2d8;" horiz-adv-x="370" 
d="M220 551q-58 0 -92 30t-39 84q-2 11 1.5 16t17.5 10l37 12q11 3 17 2t9 -14q8 -32 23.5 -46t40.5 -14t46 14t42 46q8 13 14.5 14t15.5 -2l33 -12q12 -5 13.5 -10t-4.5 -16q-26 -54 -69.5 -84t-105.5 -30z" />
    <glyph glyph-name="dotaccent" unicode="&#x2d9;" horiz-adv-x="370" 
d="M161 608q0 36 24 58.5t57 22.5q25 0 40 -16t15 -39q0 -37 -24 -58.5t-57 -21.5q-24 0 -39.5 15.5t-15.5 38.5z" />
    <glyph glyph-name="ring" unicode="&#x2da;" horiz-adv-x="370" 
d="M131 616q0 50 33 81.5t84 31.5q36 0 58.5 -22t22.5 -57q0 -24 -8 -44.5t-23 -36.5t-36 -25t-47 -9q-39 0 -61.5 22.5t-22.5 58.5zM234 664q-15 0 -26 -10.5t-11 -28.5q0 -11 7.5 -18.5t21.5 -7.5q17 0 27 10.5t10 26.5q0 28 -29 28z" />
    <glyph glyph-name="cedilla" unicode="&#xb8;" horiz-adv-x="370" 
d="M126 -58q8 2 14.5 2.5t16.5 0.5q31 0 52 -19.5t13 -64.5q-11 -53 -46 -76t-91 -23q-20 0 -43.5 3.5t-39.5 8.5q-8 3 -10.5 7t1.5 14l11 32q6 16 20 11q11 -4 26.5 -7t34.5 -3q22 0 33.5 6t14.5 22q2 14 -3.5 20t-24.5 6q-10 0 -17.5 -1t-18.5 -3q-15 -3 -20 8l-6 12
q-4 9 0 18l32 77q4 10 14 10h48q13 0 9 -10z" />
    <glyph glyph-name="hungarumlaut" unicode="&#x2dd;" horiz-adv-x="370" 
d="M210 734q11 8 18.5 7t12.5 -10l30 -47q8 -11 5.5 -17t-13.5 -14l-176 -114q-17 -11 -30 9l-17 27q-12 18 4 31zM426 734q11 8 18.5 7t12.5 -10l30 -47q8 -11 5.5 -17t-13.5 -14l-176 -114q-17 -11 -30 9l-17 27q-12 18 4 31z" />
    <glyph glyph-name="ogonek" unicode="&#x2db;" horiz-adv-x="370" 
d="M173 5q7 0 7 -4t-5 -7q-12 -8 -26.5 -19t-27 -24t-21.5 -28.5t-9 -31.5q0 -23 29 -23q12 0 27 3t23 7q14 6 16 -7l3 -37q1 -8 -3 -12t-15 -9q-36 -14 -78 -14q-91 0 -91 64q0 22 9 42.5t24 37.5t34 31.5t39 24.5q12 6 27 6h38z" />
    <glyph glyph-name="caron" unicode="&#x2c7;" horiz-adv-x="370" 
d="M93 670q-3 5 -5.5 9.5t-2.5 9.5q0 9 12 16l24 14q10 6 18 6t20 -13l68 -76h3l97 81q10 8 17 8q9 0 20 -8l28 -22q6 -5 6 -12q0 -8 -10 -17l-112 -109q-8 -8 -14 -9.5t-13 -1.5h-57q-6 0 -12 1.5t-11 9.5z" />
    <glyph glyph-name="commaaccent" horiz-adv-x="370" 
d="M123 -63q20 0 31 -9.5t11 -26.5q0 -2 -1 -11t-5 -26q-8 -34 -34 -72t-66 -71q-8 -7 -13.5 -6t-12.5 7l-17 16q-7 6 -6 10.5t7 10.5q15 14 29 29t22 27q4 7 -1 10q-11 7 -16.5 13.5t-5.5 18.5q0 3 1 12t5 25q5 22 20 32.5t37 10.5h15z" />
    <glyph glyph-name="grave.cap" horiz-adv-x="370" 
d="M344 777q16 -9 9 -28l-14 -34q-8 -19 -30 -12l-196 64q-11 4 -14.5 9.5t1.5 17.5l23 59q6 13 12.5 15.5t17.5 -3.5z" />
    <glyph glyph-name="acute.cap" horiz-adv-x="370" 
d="M347 865q11 5 18 3.5t12 -15.5l23 -59q5 -12 1.5 -17.5t-14.5 -9.5l-196 -64q-22 -7 -30 12l-14 34q-7 21 9 28z" />
    <glyph glyph-name="dieresis.cap" horiz-adv-x="370" 
d="M201 847q22 0 34 -10.5t12 -28.5q0 -5 -1 -13.5t-4 -20.5q-6 -25 -23 -37t-42 -12h-10q-45 0 -45 35q0 8 1 17.5t5 23.5q6 23 22.5 34.5t40.5 11.5h10zM365 847q22 0 34 -10.5t12 -28.5q0 -5 -1 -13.5t-4 -20.5q-6 -25 -23 -37t-42 -12h-10q-45 0 -45 35q0 8 1 17.5
t5 23.5q6 23 22.5 34.5t40.5 11.5h10z" />
    <glyph glyph-name="circumflex.cap" horiz-adv-x="370" 
d="M409 745q3 -5 5.5 -9.5t2.5 -9.5q0 -9 -12 -16l-24 -14q-11 -6 -18 -6q-8 0 -20 13l-68 76h-3l-97 -81q-10 -8 -17 -8q-9 0 -20 8l-28 22q-6 4 -6 12t10 17l112 109q8 8 14 9.5t13 1.5h57q6 0 12 -1.5t11 -9.5z" />
    <glyph glyph-name="tilde.cap" horiz-adv-x="370" 
d="M100 730q-7 5 -9 8.5t5 14.5q26 43 58 66.5t64 23.5q18 0 32.5 -5t28.5 -16l19 -14q19 -15 33 -15q25 0 54 40q8 11 19 2l25 -19q8 -6 9 -11t-5 -13q-32 -45 -60 -64.5t-56 -19.5q-20 0 -34 5t-28 15l-20 15q-9 7 -17 10.5t-18 3.5q-11 0 -23.5 -9.5t-28.5 -32.5
q-5 -8 -11 -7t-15 7z" />
    <glyph glyph-name="macron.cap" horiz-adv-x="370" 
d="M378 814q15 0 18 -6.5t1 -17.5l-7 -37q-3 -17 -11.5 -19.5t-16.5 -2.5h-216q-14 0 -18 6t-2 18l7 35q2 11 8.5 17.5t20.5 6.5h216z" />
    <glyph glyph-name="breve.cap" horiz-adv-x="370" 
d="M252 706q-58 0 -92 30t-39 84q-2 11 1.5 16t17.5 10l37 12q11 3 17 2t9 -14q8 -32 23.5 -46t40.5 -14t46 14t42 46q8 13 14.5 14t15.5 -2l33 -12q12 -5 13.5 -10t-4.5 -16q-26 -54 -69.5 -84t-105.5 -30z" />
    <glyph glyph-name="dotaccent.cap" horiz-adv-x="370" 
d="M206 780q0 36 24 58.5t57 22.5q25 0 40 -16t15 -39q0 -37 -24 -58.5t-57 -21.5q-24 0 -39.5 15.5t-15.5 38.5z" />
    <glyph glyph-name="ring.cap" horiz-adv-x="370" 
d="M170 780q0 50 33 81.5t84 31.5q36 0 58.5 -22t22.5 -57q0 -24 -8 -44.5t-23 -36.5t-36 -25t-47 -9q-39 0 -61.5 22.5t-22.5 58.5zM273 828q-15 0 -26 -10.5t-11 -28.5q0 -11 7.5 -18.5t21.5 -7.5q17 0 27 10.5t10 26.5q0 28 -29 28z" />
    <glyph glyph-name="hungarumlaut.cap" horiz-adv-x="370" 
d="M263 886q12 8 19 7t12 -10l30 -47q8 -11 5.5 -18t-16.5 -16l-166 -106q-24 -14 -37 4l-17 27q-11 19 4 31zM479 886q12 8 19 7t12 -10l30 -47q8 -11 5.5 -18t-16.5 -16l-166 -106q-24 -14 -37 4l-17 27q-11 19 4 31z" />
    <glyph glyph-name="caron.cap" horiz-adv-x="370" 
d="M312 716q-8 -8 -14.5 -9.5t-12.5 -1.5h-57q-7 0 -12.5 1.5t-10.5 9.5l-70 109q-6 8 -2.5 16t10.5 13l32 21q10 7 18 7.5t16 -9.5l62 -78h3l97 78q11 9 19 9t15 -7l24 -21q5 -5 5 -13t-9 -16z" />
    <glyph glyph-name="Agrave" unicode="&#xc0;" horiz-adv-x="569" 
d="M314 519q-32 -64 -64.5 -131t-64.5 -134h166q-5 67 -11.5 134t-13.5 131h-12zM79 26q-8 -17 -18 -21.5t-30 -4.5h-53q-20 0 -30 3t-1 23q36 76 75.5 156.5t79 157t77 146.5t68.5 125q13 23 27.5 29.5t45.5 6.5h49q31 0 44 -6.5t17 -29.5q10 -59 20 -129t19.5 -146
t17.5 -155t14 -155q2 -20 -9 -23t-32 -3h-53q-20 0 -28 4.5t-10 21.5l-9 123h-224zM451 777q16 -9 9 -28l-14 -34q-8 -19 -30 -12l-196 64q-11 4 -14.5 9.5t1.5 17.5l23 59q6 13 12.5 15.5t17.5 -3.5z" />
    <glyph glyph-name="Aacute" unicode="&#xc1;" horiz-adv-x="569" 
d="M314 519q-32 -64 -64.5 -131t-64.5 -134h166q-5 67 -11.5 134t-13.5 131h-12zM79 26q-8 -17 -18 -21.5t-30 -4.5h-53q-20 0 -30 3t-1 23q36 76 75.5 156.5t79 157t77 146.5t68.5 125q13 23 27.5 29.5t45.5 6.5h49q31 0 44 -6.5t17 -29.5q10 -59 20 -129t19.5 -146
t17.5 -155t14 -155q2 -20 -9 -23t-32 -3h-53q-20 0 -28 4.5t-10 21.5l-9 123h-224zM456 865q11 5 18 3.5t12 -15.5l23 -59q5 -12 1.5 -17.5t-14.5 -9.5l-196 -64q-22 -7 -30 12l-14 34q-7 21 9 28z" />
    <glyph glyph-name="Acircumflex" unicode="&#xc2;" horiz-adv-x="569" 
d="M314 519q-32 -64 -64.5 -131t-64.5 -134h166q-5 67 -11.5 134t-13.5 131h-12zM79 26q-8 -17 -18 -21.5t-30 -4.5h-53q-20 0 -30 3t-1 23q36 76 75.5 156.5t79 157t77 146.5t68.5 125q13 23 27.5 29.5t45.5 6.5h49q31 0 44 -6.5t17 -29.5q10 -59 20 -129t19.5 -146
t17.5 -155t14 -155q2 -20 -9 -23t-32 -3h-53q-20 0 -28 4.5t-10 21.5l-9 123h-224zM509 745q3 -5 5.5 -9.5t2.5 -9.5q0 -9 -12 -16l-24 -14q-11 -6 -18 -6q-8 0 -20 13l-68 76h-3l-97 -81q-10 -8 -17 -8q-9 0 -20 8l-28 22q-6 4 -6 12t10 17l112 109q8 8 14 9.5t13 1.5h57
q6 0 12 -1.5t11 -9.5z" />
    <glyph glyph-name="Atilde" unicode="&#xc3;" horiz-adv-x="569" 
d="M314 519q-32 -64 -64.5 -131t-64.5 -134h166q-5 67 -11.5 134t-13.5 131h-12zM79 26q-8 -17 -18 -21.5t-30 -4.5h-53q-20 0 -30 3t-1 23q36 76 75.5 156.5t79 157t77 146.5t68.5 125q13 23 27.5 29.5t45.5 6.5h49q31 0 44 -6.5t17 -29.5q10 -59 20 -129t19.5 -146
t17.5 -155t14 -155q2 -20 -9 -23t-32 -3h-53q-20 0 -28 4.5t-10 21.5l-9 123h-224zM203 730q-7 5 -9 8.5t5 14.5q26 43 58 66.5t64 23.5q18 0 32.5 -5t28.5 -16l19 -14q19 -15 33 -15q25 0 54 40q8 11 19 2l25 -19q8 -6 9 -11t-5 -13q-32 -45 -60 -64.5t-56 -19.5
q-20 0 -34 5t-28 15l-20 15q-9 7 -17 10.5t-18 3.5q-11 0 -23.5 -9.5t-28.5 -32.5q-5 -8 -11 -7t-15 7z" />
    <glyph glyph-name="Adieresis" unicode="&#xc4;" horiz-adv-x="569" 
d="M314 519q-32 -64 -64.5 -131t-64.5 -134h166q-5 67 -11.5 134t-13.5 131h-12zM79 26q-8 -17 -18 -21.5t-30 -4.5h-53q-20 0 -30 3t-1 23q36 76 75.5 156.5t79 157t77 146.5t68.5 125q13 23 27.5 29.5t45.5 6.5h49q31 0 44 -6.5t17 -29.5q10 -59 20 -129t19.5 -146
t17.5 -155t14 -155q2 -20 -9 -23t-32 -3h-53q-20 0 -28 4.5t-10 21.5l-9 123h-224zM299 847q22 0 34 -10.5t12 -28.5q0 -5 -1 -13.5t-4 -20.5q-6 -25 -23 -37t-42 -12h-10q-45 0 -45 35q0 8 1 17.5t5 23.5q6 23 22.5 34.5t40.5 11.5h10zM463 847q22 0 34 -10.5t12 -28.5
q0 -5 -1 -13.5t-4 -20.5q-6 -25 -23 -37t-42 -12h-10q-45 0 -45 35q0 8 1 17.5t5 23.5q6 23 22.5 34.5t40.5 11.5h10z" />
    <glyph glyph-name="Amacron" unicode="&#x100;" horiz-adv-x="569" 
d="M314 519q-32 -64 -64.5 -131t-64.5 -134h166q-5 67 -11.5 134t-13.5 131h-12zM79 26q-8 -17 -18 -21.5t-30 -4.5h-53q-20 0 -30 3t-1 23q36 76 75.5 156.5t79 157t77 146.5t68.5 125q13 23 27.5 29.5t45.5 6.5h49q31 0 44 -6.5t17 -29.5q10 -59 20 -129t19.5 -146
t17.5 -155t14 -155q2 -20 -9 -23t-32 -3h-53q-20 0 -28 4.5t-10 21.5l-9 123h-224zM484 814q15 0 18 -6.5t1 -17.5l-7 -37q-3 -17 -11.5 -19.5t-16.5 -2.5h-216q-14 0 -18 6t-2 18l7 35q2 11 8.5 17.5t20.5 6.5h216z" />
    <glyph glyph-name="Abreve" unicode="&#x102;" horiz-adv-x="569" 
d="M314 519q-32 -64 -64.5 -131t-64.5 -134h166q-5 67 -11.5 134t-13.5 131h-12zM79 26q-8 -17 -18 -21.5t-30 -4.5h-53q-20 0 -30 3t-1 23q36 76 75.5 156.5t79 157t77 146.5t68.5 125q13 23 27.5 29.5t45.5 6.5h49q31 0 44 -6.5t17 -29.5q10 -59 20 -129t19.5 -146
t17.5 -155t14 -155q2 -20 -9 -23t-32 -3h-53q-20 0 -28 4.5t-10 21.5l-9 123h-224zM352 706q-58 0 -92 30t-39 84q-2 11 1.5 16t17.5 10l37 12q11 3 17 2t9 -14q8 -32 23.5 -46t40.5 -14t46 14t42 46q8 13 14.5 14t15.5 -2l33 -12q12 -5 13.5 -10t-4.5 -16
q-26 -54 -69.5 -84t-105.5 -30z" />
    <glyph glyph-name="Acaron" unicode="&#x1cd;" horiz-adv-x="569" 
d="M314 519q-32 -64 -64.5 -131t-64.5 -134h166q-5 67 -11.5 134t-13.5 131h-12zM79 26q-8 -17 -18 -21.5t-30 -4.5h-53q-20 0 -30 3t-1 23q36 76 75.5 156.5t79 157t77 146.5t68.5 125q13 23 27.5 29.5t45.5 6.5h49q31 0 44 -6.5t17 -29.5q10 -59 20 -129t19.5 -146
t17.5 -155t14 -155q2 -20 -9 -23t-32 -3h-53q-20 0 -28 4.5t-10 21.5l-9 123h-224zM405 716q-8 -8 -14.5 -9.5t-12.5 -1.5h-57q-7 0 -12.5 1.5t-10.5 9.5l-70 109q-6 8 -2.5 16t10.5 13l32 21q10 7 18 7.5t16 -9.5l62 -78h3l97 78q11 9 19 9t15 -7l24 -21q5 -5 5 -13t-9 -16
z" />
    <glyph glyph-name="Aring" unicode="&#xc5;" horiz-adv-x="569" 
d="M314 519q-32 -64 -64.5 -131t-64.5 -134h166q-5 67 -11.5 134t-13.5 131h-12zM79 26q-8 -17 -18 -21.5t-30 -4.5h-53q-20 0 -30 3t-1 23q36 76 75.5 156.5t79 157t77 146.5t68.5 125q13 23 27.5 29.5t45.5 6.5h49q31 0 44 -6.5t17 -29.5q10 -59 20 -129t19.5 -146
t17.5 -155t14 -155q2 -20 -9 -23t-32 -3h-53q-20 0 -28 4.5t-10 21.5l-9 123h-224zM266 780q0 50 33 81.5t84 31.5q36 0 58.5 -22t22.5 -57q0 -24 -8 -44.5t-23 -36.5t-36 -25t-47 -9q-39 0 -61.5 22.5t-22.5 58.5zM369 828q-15 0 -26 -10.5t-11 -28.5q0 -11 7.5 -18.5
t21.5 -7.5q17 0 27 10.5t10 26.5q0 28 -29 28z" />
    <glyph glyph-name="Aringacute" unicode="&#x1fa;" horiz-adv-x="569" 
d="M314 519q-32 -64 -64.5 -131t-64.5 -134h166q-5 67 -11.5 134t-13.5 131h-12zM79 26q-8 -17 -18 -21.5t-30 -4.5h-53q-20 0 -30 3t-1 23q36 76 75.5 156.5t79 157t77 146.5t68.5 125q13 23 27.5 29.5t45.5 6.5h49q31 0 44 -6.5t17 -29.5q10 -59 20 -129t19.5 -146
t17.5 -155t14 -155q2 -20 -9 -23t-32 -3h-53q-20 0 -28 4.5t-10 21.5l-9 123h-224zM266 767q0 50 33 81.5t84 31.5q36 0 58.5 -22t22.5 -57q0 -24 -8 -44.5t-23 -36.5t-36 -25t-47 -9q-39 0 -61.5 22.5t-22.5 58.5zM369 815q-15 0 -26 -10.5t-11 -28.5q0 -11 7.5 -18.5
t21.5 -7.5q17 0 27 10.5t10 26.5q0 28 -29 28zM491 1077q11 6 17.5 4t12.5 -15l26 -58q5 -11 2.5 -17t-13.5 -10l-193 -74q-22 -8 -30 10l-16 34q-9 19 8 28z" />
    <glyph glyph-name="Aogonek" unicode="&#x104;" horiz-adv-x="569" 
d="M314 519q-32 -64 -64.5 -131t-64.5 -134h166q-5 67 -11.5 134t-13.5 131h-12zM264 -131q0 22 9.5 43.5t24.5 40t34 33.5t38 25l-10 138h-224l-57 -123q-8 -17 -18 -21.5t-30 -4.5h-53q-20 0 -30 3t-1 23q36 76 75.5 156.5t79 157t77 146.5t68.5 125q13 23 27.5 29.5
t45.5 6.5h49q31 0 44 -6.5t17 -29.5q10 -59 20 -129t19.5 -146t17.5 -155t14 -155q1 -15 -6 -19t-19 -8q-20 -7 -41.5 -17t-39.5 -23.5t-30 -30.5t-12 -37q0 -23 29 -23q12 0 27 3t23 7q14 6 16 -7l3 -37q1 -8 -3 -12t-15 -9q-36 -14 -78 -14q-91 0 -91 70z" />
    <glyph glyph-name="AE" unicode="&#xc6;" horiz-adv-x="844" 
d="M512 282l-27 -141q-3 -12 -3 -22q0 -16 27 -16h216q17 0 20.5 -5t0.5 -19l-10 -55q-3 -14 -8.5 -19t-22.5 -5h-245q-53 0 -80.5 18.5t-27.5 53.5q0 25 4 44l6 33h-197l-86 -127q-10 -14 -17 -18t-27 -4h-68q-17 0 -22 6t5 20q55 81 111 162t109.5 157.5t103.5 146
t92 126.5q11 15 26.5 22t46.5 7h388q17 0 20 -5t0 -19l-10 -55q-3 -14 -8 -19t-22 -5h-244l-31 -159h216q17 0 20 -5t0 -19l-11 -55q-3 -14 -8 -19t-22 -5h-215zM434 545q-45 -64 -96 -140t-102 -151h146l61 291h-9z" />
    <glyph glyph-name="AEacute" unicode="&#x1fc;" horiz-adv-x="844" 
d="M512 282l-27 -141q-3 -12 -3 -22q0 -16 27 -16h216q17 0 20.5 -5t0.5 -19l-10 -55q-3 -14 -8.5 -19t-22.5 -5h-245q-53 0 -80.5 18.5t-27.5 53.5q0 25 4 44l6 33h-197l-86 -127q-10 -14 -17 -18t-27 -4h-68q-17 0 -22 6t5 20q55 81 111 162t109.5 157.5t103.5 146
t92 126.5q11 15 26.5 22t46.5 7h388q17 0 20 -5t0 -19l-10 -55q-3 -14 -8 -19t-22 -5h-244l-31 -159h216q17 0 20 -5t0 -19l-11 -55q-3 -14 -8 -19t-22 -5h-215zM434 545q-45 -64 -96 -140t-102 -151h146l61 291h-9zM715 865q11 5 18 3.5t12 -15.5l23 -59q5 -12 1.5 -17.5
t-14.5 -9.5l-196 -64q-22 -7 -30 12l-14 34q-7 21 9 28z" />
    <glyph glyph-name="Cacute" unicode="&#x106;" horiz-adv-x="544" 
d="M357 656q48 0 91.5 -11t74.5 -28q15 -7 5 -30l-27 -56q-8 -18 -27 -8q-22 11 -51.5 19t-62.5 8q-65 0 -96 -21q-29 -20 -44.5 -56t-26.5 -100q-5 -29 -10.5 -59t-9.5 -56.5t-6.5 -48.5t-2.5 -35q0 -21 6 -36.5t21 -25.5q26 -17 90 -17q30 0 67.5 7t66.5 17q12 4 18.5 1
t8.5 -17l9 -50q3 -15 -2.5 -22t-19.5 -12q-38 -14 -85.5 -21t-91.5 -7q-117 0 -167.5 37.5t-50.5 112.5q0 21 3 50t8.5 63t12.5 72t15 77q17 84 40.5 132.5t61.5 75.5q29 21 72.5 33t109.5 12zM473 865q11 5 18 3.5t12 -15.5l23 -59q5 -12 1.5 -17.5t-14.5 -9.5l-196 -64
q-22 -7 -30 12l-14 34q-7 21 9 28z" />
    <glyph glyph-name="Ccedilla" unicode="&#xc7;" horiz-adv-x="544" 
d="M357 656q48 0 91.5 -11t74.5 -28q15 -7 5 -30l-27 -56q-8 -18 -27 -8q-22 11 -51.5 19t-62.5 8q-65 0 -96 -21q-29 -20 -44.5 -56t-26.5 -100q-5 -29 -10.5 -59t-9.5 -56.5t-6.5 -48.5t-2.5 -35q0 -21 6 -36.5t21 -25.5q26 -17 90 -17q30 0 67.5 7t66.5 17q12 4 18.5 1
t8.5 -17l9 -50q3 -15 -2.5 -22t-19.5 -12q-34 -12 -75 -18.5t-81 -8.5l-19 -50q8 2 14.5 2.5t16.5 0.5q31 0 52 -19.5t13 -64.5q-11 -53 -46 -76t-91 -23q-20 0 -43.5 3.5t-39.5 8.5q-8 3 -10.5 7t1.5 14l11 32q6 16 20 11q11 -4 26.5 -7t34.5 -3q22 0 33.5 6t14.5 22
q2 14 -3.5 20t-24.5 6q-10 0 -17.5 -1t-18.5 -3q-15 -3 -20 8l-6 12q-4 9 0 18l32 77q-90 7 -129.5 44t-39.5 104q0 21 3 50t8.5 63t12.5 72t15 77q17 84 40.5 132.5t61.5 75.5q29 21 72.5 33t109.5 12z" />
    <glyph glyph-name="Ccircumflex" unicode="&#x108;" horiz-adv-x="544" 
d="M357 656q48 0 91.5 -11t74.5 -28q15 -7 5 -30l-27 -56q-8 -18 -27 -8q-22 11 -51.5 19t-62.5 8q-65 0 -96 -21q-29 -20 -44.5 -56t-26.5 -100q-5 -29 -10.5 -59t-9.5 -56.5t-6.5 -48.5t-2.5 -35q0 -21 6 -36.5t21 -25.5q26 -17 90 -17q30 0 67.5 7t66.5 17q12 4 18.5 1
t8.5 -17l9 -50q3 -15 -2.5 -22t-19.5 -12q-38 -14 -85.5 -21t-91.5 -7q-117 0 -167.5 37.5t-50.5 112.5q0 21 3 50t8.5 63t12.5 72t15 77q17 84 40.5 132.5t61.5 75.5q29 21 72.5 33t109.5 12zM526 745q3 -5 5.5 -9.5t2.5 -9.5q0 -9 -12 -16l-24 -14q-11 -6 -18 -6
q-8 0 -20 13l-68 76h-3l-97 -81q-10 -8 -17 -8q-9 0 -20 8l-28 22q-6 4 -6 12t10 17l112 109q8 8 14 9.5t13 1.5h57q6 0 12 -1.5t11 -9.5z" />
    <glyph glyph-name="Ccaron" unicode="&#x10c;" horiz-adv-x="544" 
d="M357 656q48 0 91.5 -11t74.5 -28q15 -7 5 -30l-27 -56q-8 -18 -27 -8q-22 11 -51.5 19t-62.5 8q-65 0 -96 -21q-29 -20 -44.5 -56t-26.5 -100q-5 -29 -10.5 -59t-9.5 -56.5t-6.5 -48.5t-2.5 -35q0 -21 6 -36.5t21 -25.5q26 -17 90 -17q30 0 67.5 7t66.5 17q12 4 18.5 1
t8.5 -17l9 -50q3 -15 -2.5 -22t-19.5 -12q-38 -14 -85.5 -21t-91.5 -7q-117 0 -167.5 37.5t-50.5 112.5q0 21 3 50t8.5 63t12.5 72t15 77q17 84 40.5 132.5t61.5 75.5q29 21 72.5 33t109.5 12zM413 716q-8 -8 -14.5 -9.5t-12.5 -1.5h-57q-7 0 -12.5 1.5t-10.5 9.5l-70 109
q-6 8 -2.5 16t10.5 13l32 21q10 7 18 7.5t16 -9.5l62 -78h3l97 78q11 9 19 9t15 -7l24 -21q5 -5 5 -13t-9 -16z" />
    <glyph glyph-name="Cdotaccent" unicode="&#x10a;" horiz-adv-x="544" 
d="M357 656q48 0 91.5 -11t74.5 -28q15 -7 5 -30l-27 -56q-8 -18 -27 -8q-22 11 -51.5 19t-62.5 8q-65 0 -96 -21q-29 -20 -44.5 -56t-26.5 -100q-5 -29 -10.5 -59t-9.5 -56.5t-6.5 -48.5t-2.5 -35q0 -21 6 -36.5t21 -25.5q26 -17 90 -17q30 0 67.5 7t66.5 17q12 4 18.5 1
t8.5 -17l9 -50q3 -15 -2.5 -22t-19.5 -12q-38 -14 -85.5 -21t-91.5 -7q-117 0 -167.5 37.5t-50.5 112.5q0 21 3 50t8.5 63t12.5 72t15 77q17 84 40.5 132.5t61.5 75.5q29 21 72.5 33t109.5 12zM307 780q0 36 24 58.5t57 22.5q25 0 40 -16t15 -39q0 -37 -24 -58.5t-57 -21.5
q-24 0 -39.5 15.5t-15.5 38.5z" />
    <glyph glyph-name="Dcaron" unicode="&#x10e;" horiz-adv-x="608" 
d="M318 551h-38t-31 -1q-16 -1 -19 -18l-80 -412q-2 -11 1.5 -15t15.5 -4h38q90 0 141 38t71 118q14 53 21 101.5t7 83.5q0 60 -29.5 84.5t-97.5 24.5zM41 0q-23 0 -30 6.5t-3 26.5l112 581q3 17 11.5 23.5t22.5 8.5q26 2 64.5 4t91.5 2q83 0 134.5 -16t78.5 -45
q24 -26 35 -59.5t11 -68.5q0 -24 -3 -54.5t-8 -62.5t-10.5 -62t-11.5 -53q-14 -57 -40 -100t-67.5 -72t-101 -44t-140.5 -15h-146zM412 716q-8 -8 -14.5 -9.5t-12.5 -1.5h-57q-7 0 -12.5 1.5t-10.5 9.5l-70 109q-6 8 -2.5 16t10.5 13l32 21q10 7 18 7.5t16 -9.5l62 -78h3
l97 78q11 9 19 9t15 -7l24 -21q5 -5 5 -13t-9 -16z" />
    <glyph glyph-name="Dcroat" unicode="&#x110;" horiz-adv-x="642" 
d="M172 0q-29 0 -60.5 -0.5t-53.5 1.5q-20 2 -26 10t-1 31l46 235h-42q-19 0 -23 6t1 31l7 34q5 25 11 31t25 6h42l42 219q5 23 14 31.5t29 10.5q61 6 142 6q89 0 143.5 -16t87.5 -51q35 -38 44 -94t-8 -139l-11 -57q-30 -161 -132 -230q-27 -18 -54.5 -30.5t-60.5 -20
t-72.5 -11t-89.5 -3.5zM308 550h-19t-16 -1q-18 -1 -21 -18l-28 -146h71q19 0 23 -6t-1 -31l-7 -36q-5 -23 -11 -29t-25 -6h-71l-30 -153q-4 -23 20 -23h31q53 0 91.5 11t65.5 35t44.5 62.5t28.5 94.5l9 44q11 57 9.5 95.5t-19 62t-53 34t-92.5 10.5z" />
    <glyph glyph-name="Eth" unicode="&#xd0;" horiz-adv-x="642" 
d="M172 0q-29 0 -60.5 -0.5t-53.5 1.5q-20 2 -26 10t-1 31l46 235h-42q-19 0 -23 6t1 31l7 34q5 25 11 31t25 6h42l42 219q5 23 14 31.5t29 10.5q61 6 142 6q89 0 143.5 -16t87.5 -51q35 -38 44 -94t-8 -139l-11 -57q-30 -161 -132 -230q-27 -18 -54.5 -30.5t-60.5 -20
t-72.5 -11t-89.5 -3.5zM308 550h-19t-16 -1q-18 -1 -21 -18l-28 -146h71q19 0 23 -6t-1 -31l-7 -36q-5 -23 -11 -29t-25 -6h-71l-30 -153q-4 -23 20 -23h31q53 0 91.5 11t65.5 35t44.5 62.5t28.5 94.5l9 44q11 57 9.5 95.5t-19 62t-53 34t-92.5 10.5z" />
    <glyph glyph-name="Egrave" unicode="&#xc8;" horiz-adv-x="498" 
d="M165 282q-3 -18 -7 -41t-7.5 -45.5t-5.5 -42t-2 -29.5q0 -13 5.5 -17t21.5 -4h220q14 0 18.5 -4.5t2.5 -19.5l-9 -57q-2 -12 -7.5 -17t-20.5 -5h-293q-66 0 -66 61q0 44 9.5 109t23.5 147q9 53 21.5 113.5t25.5 116.5q7 31 20 50t27 29q20 14 40 17.5t52 3.5h248
q14 0 18 -5t2 -19l-11 -60q-2 -11 -8 -15t-21 -4h-211q-15 0 -24 -6.5t-14 -23.5q-7 -26 -14 -60t-14 -69h224q14 0 18.5 -5t1.5 -19l-13 -60q-2 -12 -8.5 -15.5t-20.5 -3.5h-222zM434 777q16 -9 9 -28l-14 -34q-8 -19 -30 -12l-196 64q-11 4 -14.5 9.5t1.5 17.5l23 59
q6 13 12.5 15.5t17.5 -3.5z" />
    <glyph glyph-name="Eacute" unicode="&#xc9;" horiz-adv-x="498" 
d="M165 282q-3 -18 -7 -41t-7.5 -45.5t-5.5 -42t-2 -29.5q0 -13 5.5 -17t21.5 -4h220q14 0 18.5 -4.5t2.5 -19.5l-9 -57q-2 -12 -7.5 -17t-20.5 -5h-293q-66 0 -66 61q0 44 9.5 109t23.5 147q9 53 21.5 113.5t25.5 116.5q7 31 20 50t27 29q20 14 40 17.5t52 3.5h248
q14 0 18 -5t2 -19l-11 -60q-2 -11 -8 -15t-21 -4h-211q-15 0 -24 -6.5t-14 -23.5q-7 -26 -14 -60t-14 -69h224q14 0 18.5 -5t1.5 -19l-13 -60q-2 -12 -8.5 -15.5t-20.5 -3.5h-222zM434 865q11 5 18 3.5t12 -15.5l23 -59q5 -12 1.5 -17.5t-14.5 -9.5l-196 -64q-22 -7 -30 12
l-14 34q-7 21 9 28z" />
    <glyph glyph-name="Ecircumflex" unicode="&#xca;" horiz-adv-x="498" 
d="M165 282q-3 -18 -7 -41t-7.5 -45.5t-5.5 -42t-2 -29.5q0 -13 5.5 -17t21.5 -4h220q14 0 18.5 -4.5t2.5 -19.5l-9 -57q-2 -12 -7.5 -17t-20.5 -5h-293q-66 0 -66 61q0 44 9.5 109t23.5 147q9 53 21.5 113.5t25.5 116.5q7 31 20 50t27 29q20 14 40 17.5t52 3.5h248
q14 0 18 -5t2 -19l-11 -60q-2 -11 -8 -15t-21 -4h-211q-15 0 -24 -6.5t-14 -23.5q-7 -26 -14 -60t-14 -69h224q14 0 18.5 -5t1.5 -19l-13 -60q-2 -12 -8.5 -15.5t-20.5 -3.5h-222zM494 745q3 -5 5.5 -9.5t2.5 -9.5q0 -9 -12 -16l-24 -14q-11 -6 -18 -6q-8 0 -20 13l-68 76
h-3l-97 -81q-10 -8 -17 -8q-9 0 -20 8l-28 22q-6 4 -6 12t10 17l112 109q8 8 14 9.5t13 1.5h57q6 0 12 -1.5t11 -9.5z" />
    <glyph glyph-name="Ecaron" unicode="&#x11a;" horiz-adv-x="498" 
d="M165 282q-3 -18 -7 -41t-7.5 -45.5t-5.5 -42t-2 -29.5q0 -13 5.5 -17t21.5 -4h220q14 0 18.5 -4.5t2.5 -19.5l-9 -57q-2 -12 -7.5 -17t-20.5 -5h-293q-66 0 -66 61q0 44 9.5 109t23.5 147q9 53 21.5 113.5t25.5 116.5q7 31 20 50t27 29q20 14 40 17.5t52 3.5h248
q14 0 18 -5t2 -19l-11 -60q-2 -11 -8 -15t-21 -4h-211q-15 0 -24 -6.5t-14 -23.5q-7 -26 -14 -60t-14 -69h224q14 0 18.5 -5t1.5 -19l-13 -60q-2 -12 -8.5 -15.5t-20.5 -3.5h-222zM380 716q-8 -8 -14.5 -9.5t-12.5 -1.5h-57q-7 0 -12.5 1.5t-10.5 9.5l-70 109q-6 8 -2.5 16
t10.5 13l32 21q10 7 18 7.5t16 -9.5l62 -78h3l97 78q11 9 19 9t15 -7l24 -21q5 -5 5 -13t-9 -16z" />
    <glyph glyph-name="Edieresis" unicode="&#xcb;" horiz-adv-x="498" 
d="M165 282q-3 -18 -7 -41t-7.5 -45.5t-5.5 -42t-2 -29.5q0 -13 5.5 -17t21.5 -4h220q14 0 18.5 -4.5t2.5 -19.5l-9 -57q-2 -12 -7.5 -17t-20.5 -5h-293q-66 0 -66 61q0 44 9.5 109t23.5 147q9 53 21.5 113.5t25.5 116.5q7 31 20 50t27 29q20 14 40 17.5t52 3.5h248
q14 0 18 -5t2 -19l-11 -60q-2 -11 -8 -15t-21 -4h-211q-15 0 -24 -6.5t-14 -23.5q-7 -26 -14 -60t-14 -69h224q14 0 18.5 -5t1.5 -19l-13 -60q-2 -12 -8.5 -15.5t-20.5 -3.5h-222zM281 847q22 0 34 -10.5t12 -28.5q0 -5 -1 -13.5t-4 -20.5q-6 -25 -23 -37t-42 -12h-10
q-45 0 -45 35q0 8 1 17.5t5 23.5q6 23 22.5 34.5t40.5 11.5h10zM445 847q22 0 34 -10.5t12 -28.5q0 -5 -1 -13.5t-4 -20.5q-6 -25 -23 -37t-42 -12h-10q-45 0 -45 35q0 8 1 17.5t5 23.5q6 23 22.5 34.5t40.5 11.5h10z" />
    <glyph glyph-name="Emacron" unicode="&#x112;" horiz-adv-x="498" 
d="M165 282q-3 -18 -7 -41t-7.5 -45.5t-5.5 -42t-2 -29.5q0 -13 5.5 -17t21.5 -4h220q14 0 18.5 -4.5t2.5 -19.5l-9 -57q-2 -12 -7.5 -17t-20.5 -5h-293q-66 0 -66 61q0 44 9.5 109t23.5 147q9 53 21.5 113.5t25.5 116.5q7 31 20 50t27 29q20 14 40 17.5t52 3.5h248
q14 0 18 -5t2 -19l-11 -60q-2 -11 -8 -15t-21 -4h-211q-15 0 -24 -6.5t-14 -23.5q-7 -26 -14 -60t-14 -69h224q14 0 18.5 -5t1.5 -19l-13 -60q-2 -12 -8.5 -15.5t-20.5 -3.5h-222zM458 814q15 0 18 -6.5t1 -17.5l-7 -37q-3 -17 -11.5 -19.5t-16.5 -2.5h-216q-14 0 -18 6
t-2 18l7 35q2 11 8.5 17.5t20.5 6.5h216z" />
    <glyph glyph-name="Ebreve" unicode="&#x114;" horiz-adv-x="498" 
d="M165 282q-3 -18 -7 -41t-7.5 -45.5t-5.5 -42t-2 -29.5q0 -13 5.5 -17t21.5 -4h220q14 0 18.5 -4.5t2.5 -19.5l-9 -57q-2 -12 -7.5 -17t-20.5 -5h-293q-66 0 -66 61q0 44 9.5 109t23.5 147q9 53 21.5 113.5t25.5 116.5q7 31 20 50t27 29q20 14 40 17.5t52 3.5h248
q14 0 18 -5t2 -19l-11 -60q-2 -11 -8 -15t-21 -4h-211q-15 0 -24 -6.5t-14 -23.5q-7 -26 -14 -60t-14 -69h224q14 0 18.5 -5t1.5 -19l-13 -60q-2 -12 -8.5 -15.5t-20.5 -3.5h-222zM333 706q-58 0 -92 30t-39 84q-2 11 1.5 16t17.5 10l37 12q11 3 17 2t9 -14q8 -32 23.5 -46
t40.5 -14t46 14t42 46q8 13 14.5 14t15.5 -2l33 -12q12 -5 13.5 -10t-4.5 -16q-26 -54 -69.5 -84t-105.5 -30z" />
    <glyph glyph-name="Edotaccent" unicode="&#x116;" horiz-adv-x="498" 
d="M165 282q-3 -18 -7 -41t-7.5 -45.5t-5.5 -42t-2 -29.5q0 -13 5.5 -17t21.5 -4h220q14 0 18.5 -4.5t2.5 -19.5l-9 -57q-2 -12 -7.5 -17t-20.5 -5h-293q-66 0 -66 61q0 44 9.5 109t23.5 147q9 53 21.5 113.5t25.5 116.5q7 31 20 50t27 29q20 14 40 17.5t52 3.5h248
q14 0 18 -5t2 -19l-11 -60q-2 -11 -8 -15t-21 -4h-211q-15 0 -24 -6.5t-14 -23.5q-7 -26 -14 -60t-14 -69h224q14 0 18.5 -5t1.5 -19l-13 -60q-2 -12 -8.5 -15.5t-20.5 -3.5h-222zM272 776q0 36 24 58.5t57 22.5q25 0 40 -16t15 -39q0 -37 -24 -58.5t-57 -21.5
q-24 0 -39.5 15.5t-15.5 38.5z" />
    <glyph glyph-name="Eogonek" unicode="&#x118;" horiz-adv-x="498" 
d="M199 -131q0 22 8.5 42t22.5 36.5t33 30t39 22.5h-221q-66 0 -66 61q0 44 9.5 109t23.5 147q9 53 21.5 113.5t25.5 116.5q7 31 20 50t27 29q20 14 40 17.5t52 3.5h248q14 0 18 -5t2 -19l-11 -60q-2 -11 -8 -15t-21 -4h-211q-15 0 -24 -6.5t-14 -23.5q-7 -26 -14 -60
t-14 -69h224q14 0 18.5 -5t1.5 -19l-13 -60q-2 -12 -8.5 -15.5t-20.5 -3.5h-222q-3 -18 -7 -41t-7.5 -45.5t-5.5 -42t-2 -29.5q0 -13 5.5 -17t21.5 -4h220q14 0 18.5 -4.5t2.5 -19.5l-8 -48q-2 -11 -7.5 -18t-22.5 -18q-36 -22 -60.5 -49.5t-24.5 -54.5q0 -23 29 -23
q12 0 27 3t23 7q14 6 16 -7l3 -37q1 -8 -3 -12t-15 -9q-36 -14 -78 -14q-91 0 -91 70z" />
    <glyph glyph-name="Gcircumflex" unicode="&#x11c;" horiz-adv-x="593" 
d="M551 613q8 -4 9.5 -9.5t-3.5 -17.5l-28 -59q-5 -10 -12 -11t-15 3q-29 14 -65 23.5t-75 9.5q-71 0 -109 -34q-27 -23 -42 -62t-28 -106q-11 -55 -17 -99t-6 -74q0 -21 5.5 -36t18.5 -25.5t35 -15.5t56 -5q23 0 42.5 2t32.5 5q10 2 14 5.5t6 13.5l27 142h-64
q-11 0 -15 4.5t-2 16.5l13 68q2 10 6 12.5t15 2.5h169q14 0 18 -5t2 -17l-58 -299q-3 -14 -8.5 -20t-18.5 -10q-36 -11 -85 -18t-101 -7q-125 0 -178.5 39.5t-53.5 125.5q0 38 9.5 98t22.5 129q16 86 42 139.5t59 79.5q32 26 80 40t111 14q53 0 103.5 -12.5t87.5 -30.5z
M534 745q3 -5 5.5 -9.5t2.5 -9.5q0 -9 -12 -16l-24 -14q-11 -6 -18 -6q-8 0 -20 13l-68 76h-3l-97 -81q-10 -8 -17 -8q-9 0 -20 8l-28 22q-6 4 -6 12t10 17l112 109q8 8 14 9.5t13 1.5h57q6 0 12 -1.5t11 -9.5z" />
    <glyph glyph-name="Gbreve" unicode="&#x11e;" horiz-adv-x="593" 
d="M551 613q8 -4 9.5 -9.5t-3.5 -17.5l-28 -59q-5 -10 -12 -11t-15 3q-29 14 -65 23.5t-75 9.5q-71 0 -109 -34q-27 -23 -42 -62t-28 -106q-11 -55 -17 -99t-6 -74q0 -21 5.5 -36t18.5 -25.5t35 -15.5t56 -5q23 0 42.5 2t32.5 5q10 2 14 5.5t6 13.5l27 142h-64
q-11 0 -15 4.5t-2 16.5l13 68q2 10 6 12.5t15 2.5h169q14 0 18 -5t2 -17l-58 -299q-3 -14 -8.5 -20t-18.5 -10q-36 -11 -85 -18t-101 -7q-125 0 -178.5 39.5t-53.5 125.5q0 38 9.5 98t22.5 129q16 86 42 139.5t59 79.5q32 26 80 40t111 14q53 0 103.5 -12.5t87.5 -30.5z
M383 706q-58 0 -92 30t-39 84q-2 11 1.5 16t17.5 10l37 12q11 3 17 2t9 -14q8 -32 23.5 -46t40.5 -14t46 14t42 46q8 13 14.5 14t15.5 -2l33 -12q12 -5 13.5 -10t-4.5 -16q-26 -54 -69.5 -84t-105.5 -30z" />
    <glyph glyph-name="Gdotaccent" unicode="&#x120;" horiz-adv-x="593" 
d="M551 613q8 -4 9.5 -9.5t-3.5 -17.5l-28 -59q-5 -10 -12 -11t-15 3q-29 14 -65 23.5t-75 9.5q-71 0 -109 -34q-27 -23 -42 -62t-28 -106q-11 -55 -17 -99t-6 -74q0 -21 5.5 -36t18.5 -25.5t35 -15.5t56 -5q23 0 42.5 2t32.5 5q10 2 14 5.5t6 13.5l27 142h-64
q-11 0 -15 4.5t-2 16.5l13 68q2 10 6 12.5t15 2.5h169q14 0 18 -5t2 -17l-58 -299q-3 -14 -8.5 -20t-18.5 -10q-36 -11 -85 -18t-101 -7q-125 0 -178.5 39.5t-53.5 125.5q0 38 9.5 98t22.5 129q16 86 42 139.5t59 79.5q32 26 80 40t111 14q53 0 103.5 -12.5t87.5 -30.5z
M317 780q0 36 24 58.5t57 22.5q25 0 40 -16t15 -39q0 -37 -24 -58.5t-57 -21.5q-24 0 -39.5 15.5t-15.5 38.5z" />
    <glyph glyph-name="Gcommaaccent" unicode="&#x122;" horiz-adv-x="593" 
d="M551 613q8 -4 9.5 -9.5t-3.5 -17.5l-28 -59q-5 -10 -12 -11t-15 3q-29 14 -65 23.5t-75 9.5q-71 0 -109 -34q-27 -23 -42 -62t-28 -106q-11 -55 -17 -99t-6 -74q0 -21 5.5 -36t18.5 -25.5t35 -15.5t56 -5q23 0 42.5 2t32.5 5q10 2 14 5.5t6 13.5l27 142h-64
q-11 0 -15 4.5t-2 16.5l13 68q2 10 6 12.5t15 2.5h169q14 0 18 -5t2 -17l-58 -299q-3 -14 -8.5 -20t-18.5 -10q-36 -11 -85 -18t-101 -7q-125 0 -178.5 39.5t-53.5 125.5q0 38 9.5 98t22.5 129q16 86 42 139.5t59 79.5q32 26 80 40t111 14q53 0 103.5 -12.5t87.5 -30.5z
M271 -63q20 0 31 -9.5t11 -26.5q0 -2 -1 -11t-5 -26q-8 -34 -34 -72t-66 -71q-8 -7 -13.5 -6t-12.5 7l-17 16q-7 6 -6 10.5t7 10.5q15 14 29 29t22 27q4 7 -1 10q-11 7 -16.5 13.5t-5.5 18.5q0 3 1 12t5 25q5 22 20 32.5t37 10.5h15z" />
    <glyph glyph-name="Hcircumflex" unicode="&#x124;" horiz-adv-x="627" 
d="M503 25q-3 -16 -9 -20.5t-23 -4.5h-72q-17 0 -21 4.5t-1 20.5l49 252h-244l-49 -252q-3 -16 -9 -20.5t-23 -4.5h-72q-17 0 -21 4.5t-1 20.5l116 597q3 16 9 20.5t23 4.5h72q17 0 21 -4.5t1 -20.5l-47 -242h244l47 242q3 16 9 20.5t23 4.5h72q17 0 21 -4.5t1 -20.5z
M533 745q3 -5 5.5 -9.5t2.5 -9.5q0 -9 -12 -16l-24 -14q-11 -6 -18 -6q-8 0 -20 13l-68 76h-3l-97 -81q-10 -8 -17 -8q-9 0 -20 8l-28 22q-6 4 -6 12t10 17l112 109q8 8 14 9.5t13 1.5h57q6 0 12 -1.5t11 -9.5z" />
    <glyph glyph-name="Hbar" unicode="&#x126;" horiz-adv-x="627" 
d="M606 555h33q23 0 19 -24l-7 -37q-3 -14 -10 -18t-18 -4h-33l-87 -447q-3 -16 -9 -20.5t-23 -4.5h-72q-17 0 -21 4.5t-1 20.5l49 252h-244l-49 -252q-3 -16 -9 -20.5t-23 -4.5h-72q-17 0 -21 4.5t-1 20.5l87 447h-33q-14 0 -17.5 6t-1.5 18l6 35q2 14 8.5 19t20.5 5h33
l13 67q3 16 9 20.5t23 4.5h72q17 0 21 -4.5t1 -20.5l-13 -67h244l13 67q3 16 9 20.5t23 4.5h72q17 0 21 -4.5t1 -20.5zM446 380l18 92h-244l-18 -92h244z" />
    <glyph glyph-name="Igrave" unicode="&#xcc;" horiz-adv-x="270" 
d="M137 25q-3 -14 -9.5 -19.5t-22.5 -5.5h-72q-17 0 -21 5.5t-1 19.5l116 597q3 16 9 20.5t23 4.5h72q17 0 21 -5t1 -20zM280 777q16 -9 9 -28l-14 -34q-8 -19 -30 -12l-196 64q-11 4 -14.5 9.5t1.5 17.5l23 59q6 13 12.5 15.5t17.5 -3.5z" />
    <glyph glyph-name="Iacute" unicode="&#xcd;" horiz-adv-x="270" 
d="M137 25q-3 -14 -9.5 -19.5t-22.5 -5.5h-72q-17 0 -21 5.5t-1 19.5l116 597q3 16 9 20.5t23 4.5h72q17 0 21 -5t1 -20zM319 865q11 5 18 3.5t12 -15.5l23 -59q5 -12 1.5 -17.5t-14.5 -9.5l-196 -64q-22 -7 -30 12l-14 34q-7 21 9 28z" />
    <glyph glyph-name="Icircumflex" unicode="&#xce;" horiz-adv-x="270" 
d="M137 25q-3 -14 -9.5 -19.5t-22.5 -5.5h-72q-17 0 -21 5.5t-1 19.5l116 597q3 16 9 20.5t23 4.5h72q17 0 21 -5t1 -20zM354 745q3 -5 5.5 -9.5t2.5 -9.5q0 -9 -12 -16l-24 -14q-11 -6 -18 -6q-8 0 -20 13l-68 76h-3l-97 -81q-10 -8 -17 -8q-9 0 -20 8l-28 22q-6 4 -6 12
t10 17l112 109q8 8 14 9.5t13 1.5h57q6 0 12 -1.5t11 -9.5z" />
    <glyph glyph-name="Itilde" unicode="&#x128;" horiz-adv-x="270" 
d="M137 25q-3 -14 -9.5 -19.5t-22.5 -5.5h-72q-17 0 -21 5.5t-1 19.5l116 597q3 16 9 20.5t23 4.5h72q17 0 21 -5t1 -20zM54 730q-7 5 -9 8.5t5 14.5q26 43 58 66.5t64 23.5q18 0 32.5 -5t28.5 -16l19 -14q19 -15 33 -15q25 0 54 40q8 11 19 2l25 -19q8 -6 9 -11t-5 -13
q-32 -45 -60 -64.5t-56 -19.5q-20 0 -34 5t-28 15l-20 15q-9 7 -17 10.5t-18 3.5q-11 0 -23.5 -9.5t-28.5 -32.5q-5 -8 -11 -7t-15 7z" />
    <glyph glyph-name="Idieresis" unicode="&#xcf;" horiz-adv-x="270" 
d="M137 25q-3 -14 -9.5 -19.5t-22.5 -5.5h-72q-17 0 -21 5.5t-1 19.5l116 597q3 16 9 20.5t23 4.5h72q17 0 21 -5t1 -20zM156 847q22 0 34 -10.5t12 -28.5q0 -5 -1 -13.5t-4 -20.5q-6 -25 -23 -37t-42 -12h-10q-45 0 -45 35q0 8 1 17.5t5 23.5q6 23 22.5 34.5t40.5 11.5h10z
M320 847q22 0 34 -10.5t12 -28.5q0 -5 -1 -13.5t-4 -20.5q-6 -25 -23 -37t-42 -12h-10q-45 0 -45 35q0 8 1 17.5t5 23.5q6 23 22.5 34.5t40.5 11.5h10z" />
    <glyph glyph-name="Imacron" unicode="&#x12a;" horiz-adv-x="270" 
d="M137 25q-3 -14 -9.5 -19.5t-22.5 -5.5h-72q-17 0 -21 5.5t-1 19.5l116 597q3 16 9 20.5t23 4.5h72q17 0 21 -5t1 -20zM334 814q15 0 18 -6.5t1 -17.5l-7 -37q-3 -17 -11.5 -19.5t-16.5 -2.5h-216q-14 0 -18 6t-2 18l7 35q2 11 8.5 17.5t20.5 6.5h216z" />
    <glyph glyph-name="Ibreve" unicode="&#x12c;" horiz-adv-x="270" 
d="M137 25q-3 -14 -9.5 -19.5t-22.5 -5.5h-72q-17 0 -21 5.5t-1 19.5l116 597q3 16 9 20.5t23 4.5h72q17 0 21 -5t1 -20zM212 706q-58 0 -92 30t-39 84q-2 11 1.5 16t17.5 10l37 12q11 3 17 2t9 -14q8 -32 23.5 -46t40.5 -14t46 14t42 46q8 13 14.5 14t15.5 -2l33 -12
q12 -5 13.5 -10t-4.5 -16q-26 -54 -69.5 -84t-105.5 -30z" />
    <glyph glyph-name="Idotaccent" unicode="&#x130;" horiz-adv-x="270" 
d="M137 25q-3 -14 -9.5 -19.5t-22.5 -5.5h-72q-17 0 -21 5.5t-1 19.5l116 597q3 16 9 20.5t23 4.5h72q17 0 21 -5t1 -20zM160 780q0 36 24 58.5t57 22.5q25 0 40 -16t15 -39q0 -37 -24 -58.5t-57 -21.5q-24 0 -39.5 15.5t-15.5 38.5z" />
    <glyph glyph-name="Iogonek" unicode="&#x12e;" horiz-adv-x="270" 
d="M-103 -127q0 45 30.5 82t83.5 66l116 597q3 17 10.5 23t24.5 6h68q17 0 21.5 -6t1.5 -23l-115 -592q-2 -12 -5 -17t-14 -7q-26 -6 -50 -17t-42.5 -26t-29.5 -32.5t-11 -35.5q0 -23 29 -23q12 0 27 3t23 7q14 6 16 -7l3 -37q1 -8 -3 -12t-15 -9q-36 -14 -78 -14
q-45 0 -68 20t-23 54z" />
    <glyph glyph-name="IJ" unicode="&#x132;" horiz-adv-x="612" 
d="M137 25q-3 -14 -9.5 -19.5t-22.5 -5.5h-72q-17 0 -21 5.5t-1 19.5l116 597q3 16 9 20.5t23 4.5h72q17 0 21 -5t1 -20zM521 206q-11 -58 -25.5 -96.5t-41.5 -63.5q-29 -26 -66 -36t-87 -10h-45q-17 0 -20 4.5t-1 15.5l13 69q2 10 6 13t15 3h38q20 0 35.5 6t25.5 19
q5 6 8.5 12.5t6.5 15.5t6 21.5t7 31.5l80 411q3 16 9 20.5t23 4.5h72q17 0 21 -4.5t1 -20.5z" />
    <glyph glyph-name="Jcircumflex" unicode="&#x134;" horiz-adv-x="342" 
d="M251 206q-11 -58 -25.5 -96.5t-41.5 -63.5q-29 -26 -66 -36t-87 -10h-45q-17 0 -20 4.5t-1 15.5l13 69q2 10 6 13t15 3h38q20 0 35.5 6t25.5 19q5 6 8.5 12.5t6.5 15.5t6 21.5t7 31.5l80 411q3 16 9 20.5t23 4.5h72q17 0 21 -4.5t1 -20.5zM436 745q3 -5 5.5 -9.5
t2.5 -9.5q0 -9 -12 -16l-24 -14q-11 -6 -18 -6q-8 0 -20 13l-68 76h-3l-97 -81q-10 -8 -17 -8q-9 0 -20 8l-28 22q-6 4 -6 12t10 17l112 109q8 8 14 9.5t13 1.5h57q6 0 12 -1.5t11 -9.5z" />
    <glyph glyph-name="Kcommaaccent" unicode="&#x136;" horiz-adv-x="557" 
d="M132 25q-3 -16 -9 -20.5t-23 -4.5h-72q-16 0 -20.5 4.5t-1.5 20.5l116 597q3 16 9 20.5t23 4.5h72q17 0 21 -4.5t1 -20.5l-47 -242h22q18 0 30 15l200 238q8 8 15 11t21 3h85q16 0 20 -6.5t-6 -17.5l-232 -273q-9 -11 -13.5 -19t-4.5 -16q0 -9 6 -21.5t13 -25.5l130 -243
q5 -11 0 -18t-19 -7h-75q-18 0 -24.5 4t-11.5 15l-122 243q-7 15 -25 15h-29zM241 -63q20 0 31 -9.5t11 -26.5q0 -2 -1 -11t-5 -26q-8 -34 -34 -72t-66 -71q-8 -7 -13.5 -6t-12.5 7l-17 16q-7 6 -6 10.5t7 10.5q15 14 29 29t22 27q4 7 -1 10q-11 7 -16.5 13.5t-5.5 18.5
q0 3 1 12t5 25q5 22 20 32.5t37 10.5h15z" />
    <glyph glyph-name="Lacute" unicode="&#x139;" horiz-adv-x="436" 
d="M151 113q0 -10 16 -10h168q15 0 19.5 -5t2.5 -19l-10 -55q-2 -14 -8.5 -19t-23.5 -5h-239q-61 0 -61 47q0 23 6 52l102 523q3 16 9 20.5t23 4.5h72q17 0 21 -4.5t1 -20.5l-90 -461q-5 -23 -6.5 -33t-1.5 -15zM323 865q11 5 18 3.5t12 -15.5l23 -59q5 -12 1.5 -17.5
t-14.5 -9.5l-196 -64q-22 -7 -30 12l-14 34q-7 21 9 28z" />
    <glyph glyph-name="Lcaron" unicode="&#x13d;" horiz-adv-x="436" 
d="M151 113q0 -10 16 -10h168q15 0 19.5 -5t2.5 -19l-10 -55q-2 -14 -8.5 -19t-23.5 -5h-239q-61 0 -61 47q0 23 6 52l102 523q3 16 9 20.5t23 4.5h72q17 0 21 -4.5t1 -20.5l-90 -461q-5 -23 -6.5 -33t-1.5 -15zM419 649q20 0 31 -9.5t11 -26.5q0 -2 -1 -11t-5 -26
q-8 -34 -34 -72t-66 -71q-8 -7 -13.5 -6t-12.5 7l-17 16q-7 6 -6 10.5t7 10.5q15 14 29 29t22 27q4 7 -1 10q-11 7 -16.5 13.5t-5.5 18.5q0 3 1 12t5 25q5 22 20 32.5t37 10.5h15z" />
    <glyph glyph-name="Lcommaaccent" unicode="&#x13b;" horiz-adv-x="436" 
d="M151 113q0 -10 16 -10h168q15 0 19.5 -5t2.5 -19l-10 -55q-2 -14 -8.5 -19t-23.5 -5h-239q-61 0 -61 47q0 23 6 52l102 523q3 16 9 20.5t23 4.5h72q17 0 21 -4.5t1 -20.5l-90 -461q-5 -23 -6.5 -33t-1.5 -15zM181 -63q20 0 31 -9.5t11 -26.5q0 -2 -1 -11t-5 -26
q-8 -34 -34 -72t-66 -71q-8 -7 -13.5 -6t-12.5 7l-17 16q-7 6 -6 10.5t7 10.5q15 14 29 29t22 27q4 7 -1 10q-11 7 -16.5 13.5t-5.5 18.5q0 3 1 12t5 25q5 22 20 32.5t37 10.5h15z" />
    <glyph glyph-name="Lslash" unicode="&#x141;" horiz-adv-x="444" 
d="M-10 194q-11 -7 -18.5 -3.5t-5.5 13.5l13 73q2 9 5.5 15.5t14.5 12.5l308 182q10 6 15.5 2.5t3.5 -14.5l-14 -75q-2 -9 -6 -15t-15 -13zM159 113q0 -10 16 -10h168q15 0 19.5 -5t2.5 -19l-10 -55q-2 -14 -8.5 -19t-23.5 -5h-239q-61 0 -61 47q0 23 6 52l102 523
q3 16 9 20.5t23 4.5h72q17 0 21 -4.5t1 -20.5l-90 -461q-5 -23 -6.5 -33t-1.5 -15z" />
    <glyph glyph-name="Ldot" unicode="&#x13f;" horiz-adv-x="436" 
d="M151 113q0 -10 16 -10h168q15 0 19.5 -5t2.5 -19l-10 -55q-2 -14 -8.5 -19t-23.5 -5h-239q-61 0 -61 47q0 23 6 52l102 523q3 16 9 20.5t23 4.5h72q17 0 21 -4.5t1 -20.5l-90 -461q-5 -23 -6.5 -33t-1.5 -15zM280 330q0 36 24 58.5t57 22.5q25 0 40 -16t15 -39
q0 -37 -24 -58.5t-57 -21.5q-24 0 -39.5 15.5t-15.5 38.5z" />
    <glyph glyph-name="Nacute" unicode="&#x143;" horiz-adv-x="641" 
d="M122 21q-2 -13 -7 -17t-22 -4h-65q-17 0 -21 3.5t-2 16.5l117 602q3 15 9 20t23 5h72q17 0 23 -5t11 -16l164 -435h4l84 435q2 13 7 17t22 4h65q17 0 21 -3.5t2 -16.5l-117 -602q-3 -16 -8.5 -20.5t-22.5 -4.5h-65q-17 0 -25.5 5t-13.5 16l-169 426h-4zM493 865
q11 5 18 3.5t12 -15.5l23 -59q5 -12 1.5 -17.5t-14.5 -9.5l-196 -64q-22 -7 -30 12l-14 34q-7 21 9 28z" />
    <glyph glyph-name="Ncaron" unicode="&#x147;" horiz-adv-x="641" 
d="M122 21q-2 -13 -7 -17t-22 -4h-65q-17 0 -21 3.5t-2 16.5l117 602q3 15 9 20t23 5h72q17 0 23 -5t11 -16l164 -435h4l84 435q2 13 7 17t22 4h65q17 0 21 -3.5t2 -16.5l-117 -602q-3 -16 -8.5 -20.5t-22.5 -4.5h-65q-17 0 -25.5 5t-13.5 16l-169 426h-4zM437 716
q-8 -8 -14.5 -9.5t-12.5 -1.5h-57q-7 0 -12.5 1.5t-10.5 9.5l-70 109q-6 8 -2.5 16t10.5 13l32 21q10 7 18 7.5t16 -9.5l62 -78h3l97 78q11 9 19 9t15 -7l24 -21q5 -5 5 -13t-9 -16z" />
    <glyph glyph-name="Ntilde" unicode="&#xd1;" horiz-adv-x="641" 
d="M122 21q-2 -13 -7 -17t-22 -4h-65q-17 0 -21 3.5t-2 16.5l117 602q3 15 9 20t23 5h72q17 0 23 -5t11 -16l164 -435h4l84 435q2 13 7 17t22 4h65q17 0 21 -3.5t2 -16.5l-117 -602q-3 -16 -8.5 -20.5t-22.5 -4.5h-65q-17 0 -25.5 5t-13.5 16l-169 426h-4zM234 730
q-7 5 -9 8.5t5 14.5q26 43 58 66.5t64 23.5q18 0 32.5 -5t28.5 -16l19 -14q19 -15 33 -15q25 0 54 40q8 11 19 2l25 -19q8 -6 9 -11t-5 -13q-32 -45 -60 -64.5t-56 -19.5q-20 0 -34 5t-28 15l-20 15q-9 7 -17 10.5t-18 3.5q-11 0 -23.5 -9.5t-28.5 -32.5q-5 -8 -11 -7t-15 7
z" />
    <glyph glyph-name="Ncommaaccent" unicode="&#x145;" horiz-adv-x="641" 
d="M122 21q-2 -13 -7 -17t-22 -4h-65q-17 0 -21 3.5t-2 16.5l117 602q3 15 9 20t23 5h72q17 0 23 -5t11 -16l164 -435h4l84 435q2 13 7 17t22 4h65q17 0 21 -3.5t2 -16.5l-117 -602q-3 -16 -8.5 -20.5t-22.5 -4.5h-65q-17 0 -25.5 5t-13.5 16l-169 426h-4zM277 -63
q20 0 31 -9.5t11 -26.5q0 -2 -1 -11t-5 -26q-8 -34 -34 -72t-66 -71q-8 -7 -13.5 -6t-12.5 7l-17 16q-7 6 -6 10.5t7 10.5q15 14 29 29t22 27q4 7 -1 10q-11 7 -16.5 13.5t-5.5 18.5q0 3 1 12t5 25q5 22 20 32.5t37 10.5h15z" />
    <glyph glyph-name="Eng" unicode="&#x14a;" horiz-adv-x="640" 
d="M228 -117q3 15 8.5 20.5t22.5 5.5h43q20 0 36 6t26 19q9 11 14 24t11 42q-23 0 -32.5 4t-14.5 20l-138 403h-4l-77 -398q-4 -17 -11 -23t-24 -6h-59q-17 0 -22 6t-1 23l113 583q4 20 16 27.5t36 7.5h35q26 0 35.5 -4.5t15.5 -19.5l161 -452h4l87 447q4 17 11 23t24 6h59
q17 0 22 -6t1 -23l-116 -599q-11 -58 -27.5 -95t-44.5 -62q-29 -26 -67 -37.5t-85 -11.5h-45q-17 0 -20.5 5.5t-0.5 19.5z" />
    <glyph glyph-name="Ograve" unicode="&#xd2;" horiz-adv-x="618" 
d="M356 552q-35 0 -61.5 -10t-46 -31.5t-34 -55.5t-25.5 -83q-14 -63 -21 -109.5t-7 -81.5q0 -86 100 -86q65 0 100.5 34t55.5 109q17 67 26.5 123.5t9.5 88.5q0 55 -24.5 78.5t-72.5 23.5zM366 656q100 0 156.5 -42.5t56.5 -139.5q0 -36 -11 -100t-30 -145
q-29 -127 -98 -182.5t-191 -55.5q-47 0 -85.5 10t-66 31t-43 54t-15.5 78q0 39 9 98t23 128q15 72 39 123t59 82.5t83.5 46t113.5 14.5zM493 777q16 -9 9 -28l-14 -34q-8 -19 -30 -12l-196 64q-11 4 -14.5 9.5t1.5 17.5l23 59q6 13 12.5 15.5t17.5 -3.5z" />
    <glyph glyph-name="Oacute" unicode="&#xd3;" horiz-adv-x="618" 
d="M356 552q-35 0 -61.5 -10t-46 -31.5t-34 -55.5t-25.5 -83q-14 -63 -21 -109.5t-7 -81.5q0 -86 100 -86q65 0 100.5 34t55.5 109q17 67 26.5 123.5t9.5 88.5q0 55 -24.5 78.5t-72.5 23.5zM366 656q100 0 156.5 -42.5t56.5 -139.5q0 -36 -11 -100t-30 -145
q-29 -127 -98 -182.5t-191 -55.5q-47 0 -85.5 10t-66 31t-43 54t-15.5 78q0 39 9 98t23 128q15 72 39 123t59 82.5t83.5 46t113.5 14.5zM486 865q11 5 18 3.5t12 -15.5l23 -59q5 -12 1.5 -17.5t-14.5 -9.5l-196 -64q-22 -7 -30 12l-14 34q-7 21 9 28z" />
    <glyph glyph-name="Ocircumflex" unicode="&#xd4;" horiz-adv-x="618" 
d="M356 552q-35 0 -61.5 -10t-46 -31.5t-34 -55.5t-25.5 -83q-14 -63 -21 -109.5t-7 -81.5q0 -86 100 -86q65 0 100.5 34t55.5 109q17 67 26.5 123.5t9.5 88.5q0 55 -24.5 78.5t-72.5 23.5zM366 656q100 0 156.5 -42.5t56.5 -139.5q0 -36 -11 -100t-30 -145
q-29 -127 -98 -182.5t-191 -55.5q-47 0 -85.5 10t-66 31t-43 54t-15.5 78q0 39 9 98t23 128q15 72 39 123t59 82.5t83.5 46t113.5 14.5zM536 745q3 -5 5.5 -9.5t2.5 -9.5q0 -9 -12 -16l-24 -14q-11 -6 -18 -6q-8 0 -20 13l-68 76h-3l-97 -81q-10 -8 -17 -8q-9 0 -20 8
l-28 22q-6 4 -6 12t10 17l112 109q8 8 14 9.5t13 1.5h57q6 0 12 -1.5t11 -9.5z" />
    <glyph glyph-name="Otilde" unicode="&#xd5;" horiz-adv-x="618" 
d="M356 552q-35 0 -61.5 -10t-46 -31.5t-34 -55.5t-25.5 -83q-14 -63 -21 -109.5t-7 -81.5q0 -86 100 -86q65 0 100.5 34t55.5 109q17 67 26.5 123.5t9.5 88.5q0 55 -24.5 78.5t-72.5 23.5zM366 656q100 0 156.5 -42.5t56.5 -139.5q0 -36 -11 -100t-30 -145
q-29 -127 -98 -182.5t-191 -55.5q-47 0 -85.5 10t-66 31t-43 54t-15.5 78q0 39 9 98t23 128q15 72 39 123t59 82.5t83.5 46t113.5 14.5zM229 730q-7 5 -9 8.5t5 14.5q26 43 58 66.5t64 23.5q18 0 32.5 -5t28.5 -16l19 -14q19 -15 33 -15q25 0 54 40q8 11 19 2l25 -19
q8 -6 9 -11t-5 -13q-32 -45 -60 -64.5t-56 -19.5q-20 0 -34 5t-28 15l-20 15q-9 7 -17 10.5t-18 3.5q-11 0 -23.5 -9.5t-28.5 -32.5q-5 -8 -11 -7t-15 7z" />
    <glyph glyph-name="Odieresis" unicode="&#xd6;" horiz-adv-x="618" 
d="M356 552q-35 0 -61.5 -10t-46 -31.5t-34 -55.5t-25.5 -83q-14 -63 -21 -109.5t-7 -81.5q0 -86 100 -86q65 0 100.5 34t55.5 109q17 67 26.5 123.5t9.5 88.5q0 55 -24.5 78.5t-72.5 23.5zM366 656q100 0 156.5 -42.5t56.5 -139.5q0 -36 -11 -100t-30 -145
q-29 -127 -98 -182.5t-191 -55.5q-47 0 -85.5 10t-66 31t-43 54t-15.5 78q0 39 9 98t23 128q15 72 39 123t59 82.5t83.5 46t113.5 14.5zM331 847q22 0 34 -10.5t12 -28.5q0 -5 -1 -13.5t-4 -20.5q-6 -25 -23 -37t-42 -12h-10q-45 0 -45 35q0 8 1 17.5t5 23.5q6 23 22.5 34.5
t40.5 11.5h10zM495 847q22 0 34 -10.5t12 -28.5q0 -5 -1 -13.5t-4 -20.5q-6 -25 -23 -37t-42 -12h-10q-45 0 -45 35q0 8 1 17.5t5 23.5q6 23 22.5 34.5t40.5 11.5h10z" />
    <glyph glyph-name="Omacron" unicode="&#x14c;" horiz-adv-x="618" 
d="M356 552q-35 0 -61.5 -10t-46 -31.5t-34 -55.5t-25.5 -83q-14 -63 -21 -109.5t-7 -81.5q0 -86 100 -86q65 0 100.5 34t55.5 109q17 67 26.5 123.5t9.5 88.5q0 55 -24.5 78.5t-72.5 23.5zM366 656q100 0 156.5 -42.5t56.5 -139.5q0 -36 -11 -100t-30 -145
q-29 -127 -98 -182.5t-191 -55.5q-47 0 -85.5 10t-66 31t-43 54t-15.5 78q0 39 9 98t23 128q15 72 39 123t59 82.5t83.5 46t113.5 14.5zM509 814q15 0 18 -6.5t1 -17.5l-7 -37q-3 -17 -11.5 -19.5t-16.5 -2.5h-216q-14 0 -18 6t-2 18l7 35q2 11 8.5 17.5t20.5 6.5h216z" />
    <glyph glyph-name="Obreve" unicode="&#x14e;" horiz-adv-x="618" 
d="M356 552q-35 0 -61.5 -10t-46 -31.5t-34 -55.5t-25.5 -83q-14 -63 -21 -109.5t-7 -81.5q0 -86 100 -86q65 0 100.5 34t55.5 109q17 67 26.5 123.5t9.5 88.5q0 55 -24.5 78.5t-72.5 23.5zM366 656q100 0 156.5 -42.5t56.5 -139.5q0 -36 -11 -100t-30 -145
q-29 -127 -98 -182.5t-191 -55.5q-47 0 -85.5 10t-66 31t-43 54t-15.5 78q0 39 9 98t23 128q15 72 39 123t59 82.5t83.5 46t113.5 14.5zM387 706q-58 0 -92 30t-39 84q-2 11 1.5 16t17.5 10l37 12q11 3 17 2t9 -14q8 -32 23.5 -46t40.5 -14t46 14t42 46q8 13 14.5 14
t15.5 -2l33 -12q12 -5 13.5 -10t-4.5 -16q-26 -54 -69.5 -84t-105.5 -30z" />
    <glyph glyph-name="Ohungarumlaut" unicode="&#x150;" horiz-adv-x="618" 
d="M356 552q-35 0 -61.5 -10t-46 -31.5t-34 -55.5t-25.5 -83q-14 -63 -21 -109.5t-7 -81.5q0 -86 100 -86q65 0 100.5 34t55.5 109q17 67 26.5 123.5t9.5 88.5q0 55 -24.5 78.5t-72.5 23.5zM366 656q100 0 156.5 -42.5t56.5 -139.5q0 -36 -11 -100t-30 -145
q-29 -127 -98 -182.5t-191 -55.5q-47 0 -85.5 10t-66 31t-43 54t-15.5 78q0 39 9 98t23 128q15 72 39 123t59 82.5t83.5 46t113.5 14.5zM410 886q12 8 19 7t12 -10l30 -47q8 -11 5.5 -18t-16.5 -16l-166 -106q-24 -14 -37 4l-17 27q-11 19 4 31zM626 886q12 8 19 7t12 -10
l30 -47q8 -11 5.5 -18t-16.5 -16l-166 -106q-24 -14 -37 4l-17 27q-11 19 4 31z" />
    <glyph glyph-name="Oslash" unicode="&#xd8;" horiz-adv-x="617" 
d="M363 656q79 0 127 -26l59 79q11 15 28 4l35 -21q16 -9 5 -24l-69 -92q25 -44 25 -109q0 -31 -9.5 -94t-28.5 -144q-29 -127 -98 -182.5t-191 -55.5q-71 0 -118 22l-50 -67q-9 -13 -14.5 -13.5t-16.5 5.5l-34 21q-9 6 -11 11t8 18l57 76q-28 42 -28 107q0 15 2 38t5.5 52
t9 62t12.5 67q15 72 39 123t59 82.5t83.5 46t113.5 14.5zM353 552q-35 0 -61.5 -10t-46 -31.5t-34 -55.5t-25.5 -83q-14 -60 -21 -105.5t-7 -80.5l259 347q-25 19 -64 19zM414 238q17 64 26 118.5t10 87.5l-252 -337q24 -12 60 -12q65 0 100.5 34t55.5 109z" />
    <glyph glyph-name="Oslashacute" unicode="&#x1fe;" horiz-adv-x="617" 
d="M363 656q79 0 127 -26l59 79q11 15 28 4l35 -21q16 -9 5 -24l-69 -92q25 -44 25 -109q0 -31 -9.5 -94t-28.5 -144q-29 -127 -98 -182.5t-191 -55.5q-71 0 -118 22l-50 -67q-9 -13 -14.5 -13.5t-16.5 5.5l-34 21q-9 6 -11 11t8 18l57 76q-28 42 -28 107q0 15 2 38t5.5 52
t9 62t12.5 67q15 72 39 123t59 82.5t83.5 46t113.5 14.5zM353 552q-35 0 -61.5 -10t-46 -31.5t-34 -55.5t-25.5 -83q-14 -60 -21 -105.5t-7 -80.5l259 347q-25 19 -64 19zM414 238q17 64 26 118.5t10 87.5l-252 -337q24 -12 60 -12q65 0 100.5 34t55.5 109zM467 865
q11 5 18 3.5t12 -15.5l23 -59q5 -12 1.5 -17.5t-14.5 -9.5l-196 -64q-22 -7 -30 12l-14 34q-7 21 9 28z" />
    <glyph glyph-name="OE" unicode="&#x152;" horiz-adv-x="862" 
d="M354 656q45 0 84.5 -15.5t62.5 -37.5q19 23 45.5 33.5t65.5 10.5h245q17 0 20 -5t0 -19l-10 -55q-3 -14 -8 -19t-22 -5h-218q-14 0 -24 -6.5t-15 -23.5q-8 -26 -16 -59t-15 -70h224q17 0 20 -5t0 -19l-10 -55q-3 -14 -8 -19t-22 -5h-224q-8 -41 -13.5 -77t-8.5 -74
q-2 -17 4 -22.5t22 -5.5h217q17 0 20.5 -5t0.5 -19l-10 -55q-3 -14 -8.5 -19t-22.5 -5h-229q-38 0 -65.5 9t-41.5 29q-25 -18 -67.5 -32.5t-87.5 -14.5q-44 0 -80.5 10t-63 32t-41.5 56t-15 82q0 15 2 38t5.5 52t9 62t12.5 67q15 72 40 123t60.5 82.5t81.5 46t104 14.5z
M258 95q39 0 73.5 12t54.5 31q5 38 12 90.5t19 115.5q3 16 7.5 37t9.5 43l10 44t10 41q-15 18 -42 30.5t-62 12.5q-34 0 -59.5 -10t-45 -31.5t-34 -55.5t-25.5 -83q-14 -63 -21 -109.5t-7 -81.5q0 -42 26.5 -64t73.5 -22z" />
    <glyph glyph-name="Thorn" unicode="&#xde;" horiz-adv-x="550" 
d="M230 218q61 0 93 18t46 63q6 20 9 41t3 34q0 38 -23.5 52t-81.5 14h-62l-44 -222h60zM133 27q-3 -17 -10 -22t-24 -5h-68q-17 0 -22 5t-2 22l116 593q3 17 10 22t24 5h68q17 0 22 -5t2 -22l-15 -78h55q52 0 93 -7t69.5 -23.5t43 -44t14.5 -69.5q0 -12 -2 -28.5t-5 -35
t-7 -37t-8 -33.5q-21 -78 -85 -114.5t-175 -36.5h-77z" />
    <glyph glyph-name="Racute" unicode="&#x154;" horiz-adv-x="557" 
d="M302 554h-32t-23 -2q-12 -1 -15 -14l-35 -180h55q29 0 51.5 2.5t39 10.5t28 22.5t18.5 37.5q5 15 7.5 32t2.5 29q0 38 -23 50t-74 12zM132 25q-3 -16 -8.5 -20.5t-22.5 -4.5h-72q-29 0 -23 25l113 581q5 23 14 31t30 11q12 1 29 2.5t36 3t38 2t36 0.5q47 0 88.5 -5
t72.5 -20.5t49 -43.5t18 -73q0 -10 -1.5 -24.5t-4 -30.5t-6 -31.5t-7.5 -28.5q-17 -57 -53 -89t-90 -44l100 -237q5 -12 0 -20.5t-24 -8.5h-72q-18 0 -25.5 5.5t-12.5 16.5l-77 216q-4 11 -9.5 14t-16.5 3h-54zM450 865q11 5 18 3.5t12 -15.5l23 -59q5 -12 1.5 -17.5
t-14.5 -9.5l-196 -64q-22 -7 -30 12l-14 34q-7 21 9 28z" />
    <glyph glyph-name="Rcaron" unicode="&#x158;" horiz-adv-x="557" 
d="M302 554h-32t-23 -2q-12 -1 -15 -14l-35 -180h55q29 0 51.5 2.5t39 10.5t28 22.5t18.5 37.5q5 15 7.5 32t2.5 29q0 38 -23 50t-74 12zM132 25q-3 -16 -8.5 -20.5t-22.5 -4.5h-72q-29 0 -23 25l113 581q5 23 14 31t30 11q12 1 29 2.5t36 3t38 2t36 0.5q47 0 88.5 -5
t72.5 -20.5t49 -43.5t18 -73q0 -10 -1.5 -24.5t-4 -30.5t-6 -31.5t-7.5 -28.5q-17 -57 -53 -89t-90 -44l100 -237q5 -12 0 -20.5t-24 -8.5h-72q-18 0 -25.5 5.5t-12.5 16.5l-77 216q-4 11 -9.5 14t-16.5 3h-54zM397 716q-8 -8 -14.5 -9.5t-12.5 -1.5h-57q-7 0 -12.5 1.5
t-10.5 9.5l-70 109q-6 8 -2.5 16t10.5 13l32 21q10 7 18 7.5t16 -9.5l62 -78h3l97 78q11 9 19 9t15 -7l24 -21q5 -5 5 -13t-9 -16z" />
    <glyph glyph-name="Rcommaaccent" unicode="&#x156;" horiz-adv-x="557" 
d="M302 554h-32t-23 -2q-12 -1 -15 -14l-35 -180h55q29 0 51.5 2.5t39 10.5t28 22.5t18.5 37.5q5 15 7.5 32t2.5 29q0 38 -23 50t-74 12zM132 25q-3 -16 -8.5 -20.5t-22.5 -4.5h-72q-29 0 -23 25l113 581q5 23 14 31t30 11q12 1 29 2.5t36 3t38 2t36 0.5q47 0 88.5 -5
t72.5 -20.5t49 -43.5t18 -73q0 -10 -1.5 -24.5t-4 -30.5t-6 -31.5t-7.5 -28.5q-17 -57 -53 -89t-90 -44l100 -237q5 -12 0 -20.5t-24 -8.5h-72q-18 0 -25.5 5.5t-12.5 16.5l-77 216q-4 11 -9.5 14t-16.5 3h-54zM240 -63q20 0 31 -9.5t11 -26.5q0 -2 -1 -11t-5 -26
q-8 -34 -34 -72t-66 -71q-8 -7 -13.5 -6t-12.5 7l-17 16q-7 6 -6 10.5t7 10.5q15 14 29 29t22 27q4 7 -1 10q-11 7 -16.5 13.5t-5.5 18.5q0 3 1 12t5 25q5 22 20 32.5t37 10.5h15z" />
    <glyph glyph-name="Sacute" unicode="&#x15a;" horiz-adv-x="510" 
d="M211 -9q-54 0 -103 8t-84 20q-13 5 -18 11.5t-1 21.5l14 54q4 14 12.5 17t19.5 -1q35 -12 75.5 -20t75.5 -8q48 0 78.5 11t41.5 46q4 12 7.5 29.5t3.5 28.5q0 22 -9.5 34t-37.5 20l-118 32q-52 14 -75.5 44.5t-23.5 69.5q0 29 6 62t13 57q19 67 73.5 97.5t150.5 30.5
q25 0 49.5 -2.5t46 -6t39.5 -8t30 -8.5q11 -4 14 -9.5t-2 -19.5l-21 -61q-7 -19 -30 -11q-28 9 -64.5 15.5t-66.5 6.5q-47 0 -69.5 -11t-31.5 -40q-4 -12 -7.5 -25.5t-3.5 -24.5q0 -22 11.5 -36t46.5 -23l115 -32q93 -26 93 -120q0 -25 -6.5 -60t-14.5 -60q-21 -69 -76 -99
t-153 -30zM417 865q11 5 18 3.5t12 -15.5l23 -59q5 -12 1.5 -17.5t-14.5 -9.5l-196 -64q-22 -7 -30 12l-14 34q-7 21 9 28z" />
    <glyph glyph-name="Scircumflex" unicode="&#x15c;" horiz-adv-x="510" 
d="M211 -9q-54 0 -103 8t-84 20q-13 5 -18 11.5t-1 21.5l14 54q4 14 12.5 17t19.5 -1q35 -12 75.5 -20t75.5 -8q48 0 78.5 11t41.5 46q4 12 7.5 29.5t3.5 28.5q0 22 -9.5 34t-37.5 20l-118 32q-52 14 -75.5 44.5t-23.5 69.5q0 29 6 62t13 57q19 67 73.5 97.5t150.5 30.5
q25 0 49.5 -2.5t46 -6t39.5 -8t30 -8.5q11 -4 14 -9.5t-2 -19.5l-21 -61q-7 -19 -30 -11q-28 9 -64.5 15.5t-66.5 6.5q-47 0 -69.5 -11t-31.5 -40q-4 -12 -7.5 -25.5t-3.5 -24.5q0 -22 11.5 -36t46.5 -23l115 -32q93 -26 93 -120q0 -25 -6.5 -60t-14.5 -60q-21 -69 -76 -99
t-153 -30zM469 745q3 -5 5.5 -9.5t2.5 -9.5q0 -9 -12 -16l-24 -14q-11 -6 -18 -6q-8 0 -20 13l-68 76h-3l-97 -81q-10 -8 -17 -8q-9 0 -20 8l-28 22q-6 4 -6 12t10 17l112 109q8 8 14 9.5t13 1.5h57q6 0 12 -1.5t11 -9.5z" />
    <glyph glyph-name="Scaron" unicode="&#x160;" horiz-adv-x="510" 
d="M211 -9q-54 0 -103 8t-84 20q-13 5 -18 11.5t-1 21.5l14 54q4 14 12.5 17t19.5 -1q35 -12 75.5 -20t75.5 -8q48 0 78.5 11t41.5 46q4 12 7.5 29.5t3.5 28.5q0 22 -9.5 34t-37.5 20l-118 32q-52 14 -75.5 44.5t-23.5 69.5q0 29 6 62t13 57q19 67 73.5 97.5t150.5 30.5
q25 0 49.5 -2.5t46 -6t39.5 -8t30 -8.5q11 -4 14 -9.5t-2 -19.5l-21 -61q-7 -19 -30 -11q-28 9 -64.5 15.5t-66.5 6.5q-47 0 -69.5 -11t-31.5 -40q-4 -12 -7.5 -25.5t-3.5 -24.5q0 -22 11.5 -36t46.5 -23l115 -32q93 -26 93 -120q0 -25 -6.5 -60t-14.5 -60q-21 -69 -76 -99
t-153 -30zM380 716q-8 -8 -14.5 -9.5t-12.5 -1.5h-57q-7 0 -12.5 1.5t-10.5 9.5l-70 109q-6 8 -2.5 16t10.5 13l32 21q10 7 18 7.5t16 -9.5l62 -78h3l97 78q11 9 19 9t15 -7l24 -21q5 -5 5 -13t-9 -16z" />
    <glyph glyph-name="Scedilla" unicode="&#x15e;" horiz-adv-x="510" 
d="M440 120q-20 -63 -67 -93t-130 -35l-19 -50q8 2 14.5 2.5t16.5 0.5q31 0 52 -19.5t13 -64.5q-11 -53 -46 -76t-91 -23q-20 0 -43.5 3.5t-39.5 8.5q-8 3 -10.5 7t1.5 14l11 32q6 16 20 11q11 -4 26.5 -7t34.5 -3q22 0 33.5 6t14.5 22q2 14 -3.5 20t-24.5 6q-10 0 -17.5 -1
t-18.5 -3q-15 -3 -20 8l-6 12q-4 9 0 18l31 76q-43 3 -81 10t-67 17q-13 5 -18 11.5t-1 21.5l14 54q4 14 12.5 17t19.5 -1q35 -12 75.5 -20t75.5 -8q48 0 78.5 11t41.5 46q4 12 7.5 29.5t3.5 28.5q0 22 -9.5 34t-37.5 20l-118 32q-52 14 -75.5 44.5t-23.5 69.5q0 29 6 62
t13 57q19 67 73.5 97.5t150.5 30.5q25 0 49.5 -2.5t46 -6t39.5 -8t30 -8.5q11 -4 14 -9.5t-2 -19.5l-21 -61q-7 -19 -30 -11q-28 9 -64.5 15.5t-66.5 6.5q-47 0 -69.5 -11t-31.5 -40q-4 -12 -7.5 -25.5t-3.5 -24.5q0 -22 11.5 -35.5t46.5 -23.5l115 -32q93 -26 93 -120
q0 -25 -6.5 -60t-14.5 -60z" />
    <glyph glyph-name="Scommaaccent" unicode="&#x218;" horiz-adv-x="510" 
d="M211 -9q-54 0 -103 8t-84 20q-13 5 -18 11.5t-1 21.5l14 54q4 14 12.5 17t19.5 -1q35 -12 75.5 -20t75.5 -8q48 0 78.5 11t41.5 46q4 12 7.5 29.5t3.5 28.5q0 22 -9.5 34t-37.5 20l-118 32q-52 14 -75.5 44.5t-23.5 69.5q0 29 6 62t13 57q19 67 73.5 97.5t150.5 30.5
q25 0 49.5 -2.5t46 -6t39.5 -8t30 -8.5q11 -4 14 -9.5t-2 -19.5l-21 -61q-7 -19 -30 -11q-28 9 -64.5 15.5t-66.5 6.5q-47 0 -69.5 -11t-31.5 -40q-4 -12 -7.5 -25.5t-3.5 -24.5q0 -22 11.5 -36t46.5 -23l115 -32q93 -26 93 -120q0 -25 -6.5 -60t-14.5 -60q-21 -69 -76 -99
t-153 -30zM225 -63q20 0 31 -9.5t11 -26.5q0 -2 -1 -11t-5 -26q-8 -34 -34 -72t-66 -71q-8 -7 -13.5 -6t-12.5 7l-17 16q-7 6 -6 10.5t7 10.5q15 14 29 29t22 27q4 7 -1 10q-11 7 -16.5 13.5t-5.5 18.5q0 3 1 12t5 25q5 22 20 32.5t37 10.5h15z" />
    <glyph glyph-name="Tcaron" unicode="&#x164;" horiz-adv-x="482" 
d="M504 647q14 0 18 -5.5t2 -18.5l-11 -61q-2 -11 -7.5 -14.5t-17.5 -3.5h-144l-101 -519q-3 -16 -9 -20.5t-23 -4.5h-72q-17 0 -21 4.5t-1 20.5l101 519h-140q-14 0 -18 5.5t-2 18.5l11 61q2 11 7.5 14.5t17.5 3.5h410zM362 716q-8 -8 -14.5 -9.5t-12.5 -1.5h-57
q-7 0 -12.5 1.5t-10.5 9.5l-70 109q-6 8 -2.5 16t10.5 13l32 21q10 7 18 7.5t16 -9.5l62 -78h3l97 78q11 9 19 9t15 -7l24 -21q5 -5 5 -13t-9 -16z" />
    <glyph glyph-name="Tcommaaccent" unicode="&#x162;" horiz-adv-x="482" 
d="M504 647q14 0 18 -5.5t2 -18.5l-11 -61q-2 -11 -7.5 -14.5t-17.5 -3.5h-144l-101 -519q-3 -16 -9 -20.5t-23 -4.5h-72q-17 0 -21 4.5t-1 20.5l101 519h-140q-14 0 -18 5.5t-2 18.5l11 61q2 11 7.5 14.5t17.5 3.5h410zM202 -63q20 0 31 -9.5t11 -26.5q0 -2 -1 -11t-5 -26
q-8 -34 -34 -72t-66 -71q-8 -7 -13.5 -6t-12.5 7l-17 16q-7 6 -6 10.5t7 10.5q15 14 29 29t22 27q4 7 -1 10q-11 7 -16.5 13.5t-5.5 18.5q0 3 1 12t5 25q5 22 20 32.5t37 10.5h15z" />
    <glyph glyph-name="uni021A" unicode="&#x21a;" horiz-adv-x="482" 
d="M504 647q14 0 18 -5.5t2 -18.5l-11 -61q-2 -11 -7.5 -14.5t-17.5 -3.5h-144l-101 -519q-3 -16 -9 -20.5t-23 -4.5h-72q-17 0 -21 4.5t-1 20.5l101 519h-140q-14 0 -18 5.5t-2 18.5l11 61q2 11 7.5 14.5t17.5 3.5h410zM202 -63q20 0 31 -9.5t11 -26.5q0 -2 -1 -11t-5 -26
q-8 -34 -34 -72t-66 -71q-8 -7 -13.5 -6t-12.5 7l-17 16q-7 6 -6 10.5t7 10.5q15 14 29 29t22 27q4 7 -1 10q-11 7 -16.5 13.5t-5.5 18.5q0 3 1 12t5 25q5 22 20 32.5t37 10.5h15z" />
    <glyph glyph-name="Tbar" unicode="&#x166;" horiz-adv-x="482" 
d="M294 286l-50 -257q-4 -17 -11 -23t-24 -6h-68q-17 0 -22 6t-1 23l50 257h-98q-14 0 -18 6t-2 18l8 41q2 11 8.5 17.5t20.5 6.5h98l32 166h-140q-17 0 -20 5t0 19l11 58q3 14 9 19t21 5h406q15 0 19 -5t1 -19l-11 -58q-3 -14 -8 -19t-22 -5h-140l-32 -166h104
q14 0 17.5 -6.5t1.5 -17.5l-8 -41q-2 -12 -8 -18t-20 -6h-104z" />
    <glyph glyph-name="Ugrave" unicode="&#xd9;" horiz-adv-x="614" 
d="M531 219q-6 -32 -14 -58t-18.5 -47t-24.5 -38t-32 -32q-35 -28 -84 -40.5t-110 -12.5q-50 0 -90.5 8t-69 26.5t-43.5 49t-15 74.5q0 32 11 90l74 383q3 16 8 20.5t22 4.5h74q17 0 21 -4.5t1 -20.5l-77 -397q-2 -14 -4 -27t-2 -28q0 -11 3 -24.5t11 -23.5q11 -13 32 -20
t56 -7t58.5 8t42.5 25q16 14 27.5 40.5t17.5 56.5l77 397q3 16 8 20.5t22 4.5h74q17 0 21 -4.5t1 -20.5zM467 777q16 -9 9 -28l-14 -34q-8 -19 -30 -12l-196 64q-11 4 -14.5 9.5t1.5 17.5l23 59q6 13 12.5 15.5t17.5 -3.5z" />
    <glyph glyph-name="Uacute" unicode="&#xda;" horiz-adv-x="614" 
d="M531 219q-6 -32 -14 -58t-18.5 -47t-24.5 -38t-32 -32q-35 -28 -84 -40.5t-110 -12.5q-50 0 -90.5 8t-69 26.5t-43.5 49t-15 74.5q0 32 11 90l74 383q3 16 8 20.5t22 4.5h74q17 0 21 -4.5t1 -20.5l-77 -397q-2 -14 -4 -27t-2 -28q0 -11 3 -24.5t11 -23.5q11 -13 32 -20
t56 -7t58.5 8t42.5 25q16 14 27.5 40.5t17.5 56.5l77 397q3 16 8 20.5t22 4.5h74q17 0 21 -4.5t1 -20.5zM479 865q11 5 18 3.5t12 -15.5l23 -59q5 -12 1.5 -17.5t-14.5 -9.5l-196 -64q-22 -7 -30 12l-14 34q-7 21 9 28z" />
    <glyph glyph-name="Ucircumflex" unicode="&#xdb;" horiz-adv-x="614" 
d="M531 219q-6 -32 -14 -58t-18.5 -47t-24.5 -38t-32 -32q-35 -28 -84 -40.5t-110 -12.5q-50 0 -90.5 8t-69 26.5t-43.5 49t-15 74.5q0 32 11 90l74 383q3 16 8 20.5t22 4.5h74q17 0 21 -4.5t1 -20.5l-77 -397q-2 -14 -4 -27t-2 -28q0 -11 3 -24.5t11 -23.5q11 -13 32 -20
t56 -7t58.5 8t42.5 25q16 14 27.5 40.5t17.5 56.5l77 397q3 16 8 20.5t22 4.5h74q17 0 21 -4.5t1 -20.5zM530 745q3 -5 5.5 -9.5t2.5 -9.5q0 -9 -12 -16l-24 -14q-11 -6 -18 -6q-8 0 -20 13l-68 76h-3l-97 -81q-10 -8 -17 -8q-9 0 -20 8l-28 22q-6 4 -6 12t10 17l112 109
q8 8 14 9.5t13 1.5h57q6 0 12 -1.5t11 -9.5z" />
    <glyph glyph-name="Utilde" unicode="&#x168;" horiz-adv-x="614" 
d="M531 219q-6 -32 -14 -58t-18.5 -47t-24.5 -38t-32 -32q-35 -28 -84 -40.5t-110 -12.5q-50 0 -90.5 8t-69 26.5t-43.5 49t-15 74.5q0 32 11 90l74 383q3 16 8 20.5t22 4.5h74q17 0 21 -4.5t1 -20.5l-77 -397q-2 -14 -4 -27t-2 -28q0 -11 3 -24.5t11 -23.5q11 -13 32 -20
t56 -7t58.5 8t42.5 25q16 14 27.5 40.5t17.5 56.5l77 397q3 16 8 20.5t22 4.5h74q17 0 21 -4.5t1 -20.5zM228 730q-7 5 -9 8.5t5 14.5q26 43 58 66.5t64 23.5q18 0 32.5 -5t28.5 -16l19 -14q19 -15 33 -15q25 0 54 40q8 11 19 2l25 -19q8 -6 9 -11t-5 -13q-32 -45 -60 -64.5
t-56 -19.5q-20 0 -34 5t-28 15l-20 15q-9 7 -17 10.5t-18 3.5q-11 0 -23.5 -9.5t-28.5 -32.5q-5 -8 -11 -7t-15 7z" />
    <glyph glyph-name="Udieresis" unicode="&#xdc;" horiz-adv-x="614" 
d="M531 219q-6 -32 -14 -58t-18.5 -47t-24.5 -38t-32 -32q-35 -28 -84 -40.5t-110 -12.5q-50 0 -90.5 8t-69 26.5t-43.5 49t-15 74.5q0 32 11 90l74 383q3 16 8 20.5t22 4.5h74q17 0 21 -4.5t1 -20.5l-77 -397q-2 -14 -4 -27t-2 -28q0 -11 3 -24.5t11 -23.5q11 -13 32 -20
t56 -7t58.5 8t42.5 25q16 14 27.5 40.5t17.5 56.5l77 397q3 16 8 20.5t22 4.5h74q17 0 21 -4.5t1 -20.5zM324 847q22 0 34 -10.5t12 -28.5q0 -5 -1 -13.5t-4 -20.5q-6 -25 -23 -37t-42 -12h-10q-45 0 -45 35q0 8 1 17.5t5 23.5q6 23 22.5 34.5t40.5 11.5h10zM488 847
q22 0 34 -10.5t12 -28.5q0 -5 -1 -13.5t-4 -20.5q-6 -25 -23 -37t-42 -12h-10q-45 0 -45 35q0 8 1 17.5t5 23.5q6 23 22.5 34.5t40.5 11.5h10z" />
    <glyph glyph-name="Umacron" unicode="&#x16a;" horiz-adv-x="614" 
d="M531 219q-6 -32 -14 -58t-18.5 -47t-24.5 -38t-32 -32q-35 -28 -84 -40.5t-110 -12.5q-50 0 -90.5 8t-69 26.5t-43.5 49t-15 74.5q0 32 11 90l74 383q3 16 8 20.5t22 4.5h74q17 0 21 -4.5t1 -20.5l-77 -397q-2 -14 -4 -27t-2 -28q0 -11 3 -24.5t11 -23.5q11 -13 32 -20
t56 -7t58.5 8t42.5 25q16 14 27.5 40.5t17.5 56.5l77 397q3 16 8 20.5t22 4.5h74q17 0 21 -4.5t1 -20.5zM504 814q15 0 18 -6.5t1 -17.5l-7 -37q-3 -17 -11.5 -19.5t-16.5 -2.5h-216q-14 0 -18 6t-2 18l7 35q2 11 8.5 17.5t20.5 6.5h216z" />
    <glyph glyph-name="Ubreve" unicode="&#x16c;" horiz-adv-x="614" 
d="M531 219q-6 -32 -14 -58t-18.5 -47t-24.5 -38t-32 -32q-35 -28 -84 -40.5t-110 -12.5q-50 0 -90.5 8t-69 26.5t-43.5 49t-15 74.5q0 32 11 90l74 383q3 16 8 20.5t22 4.5h74q17 0 21 -4.5t1 -20.5l-77 -397q-2 -14 -4 -27t-2 -28q0 -11 3 -24.5t11 -23.5q11 -13 32 -20
t56 -7t58.5 8t42.5 25q16 14 27.5 40.5t17.5 56.5l77 397q3 16 8 20.5t22 4.5h74q17 0 21 -4.5t1 -20.5zM375 706q-58 0 -92 30t-39 84q-2 11 1.5 16t17.5 10l37 12q11 3 17 2t9 -14q8 -32 23.5 -46t40.5 -14t46 14t42 46q8 13 14.5 14t15.5 -2l33 -12q12 -5 13.5 -10
t-4.5 -16q-26 -54 -69.5 -84t-105.5 -30z" />
    <glyph glyph-name="Uring" unicode="&#x16e;" horiz-adv-x="614" 
d="M531 219q-6 -32 -14 -58t-18.5 -47t-24.5 -38t-32 -32q-35 -28 -84 -40.5t-110 -12.5q-50 0 -90.5 8t-69 26.5t-43.5 49t-15 74.5q0 32 11 90l74 383q3 16 8 20.5t22 4.5h74q17 0 21 -4.5t1 -20.5l-77 -397q-2 -14 -4 -27t-2 -28q0 -11 3 -24.5t11 -23.5q11 -13 32 -20
t56 -7t58.5 8t42.5 25q16 14 27.5 40.5t17.5 56.5l77 397q3 16 8 20.5t22 4.5h74q17 0 21 -4.5t1 -20.5zM292 780q0 50 33 81.5t84 31.5q36 0 58.5 -22t22.5 -57q0 -24 -8 -44.5t-23 -36.5t-36 -25t-47 -9q-39 0 -61.5 22.5t-22.5 58.5zM395 828q-15 0 -26 -10.5t-11 -28.5
q0 -11 7.5 -18.5t21.5 -7.5q17 0 27 10.5t10 26.5q0 28 -29 28z" />
    <glyph glyph-name="Uhungarumlaut" unicode="&#x170;" horiz-adv-x="614" 
d="M531 219q-6 -32 -14 -58t-18.5 -47t-24.5 -38t-32 -32q-35 -28 -84 -40.5t-110 -12.5q-50 0 -90.5 8t-69 26.5t-43.5 49t-15 74.5q0 32 11 90l74 383q3 16 8 20.5t22 4.5h74q17 0 21 -4.5t1 -20.5l-77 -397q-2 -14 -4 -27t-2 -28q0 -11 3 -24.5t11 -23.5q11 -13 32 -20
t56 -7t58.5 8t42.5 25q16 14 27.5 40.5t17.5 56.5l77 397q3 16 8 20.5t22 4.5h74q17 0 21 -4.5t1 -20.5zM389 886q12 8 19 7t12 -10l30 -47q8 -11 5.5 -18t-16.5 -16l-166 -106q-24 -14 -37 4l-17 27q-11 19 4 31zM605 886q12 8 19 7t12 -10l30 -47q8 -11 5.5 -18t-16.5 -16
l-166 -106q-24 -14 -37 4l-17 27q-11 19 4 31z" />
    <glyph glyph-name="Uogonek" unicode="&#x172;" horiz-adv-x="614" 
d="M531 219q-6 -32 -14 -58t-18.5 -47t-24.5 -38t-32 -32q-18 -14 -38 -23.5t-48 -17.5q-17 -5 -38 -15t-39 -24.5t-30 -33t-12 -39.5q0 -26 27 -26q11 0 24.5 2.5t23.5 6.5q12 5 15.5 3t3.5 -9l3 -34q-1 -8 -4 -12t-15 -9q-34 -14 -81 -14q-88 0 -88 60q0 20 8 40
t21.5 37.5t31 31.5t36.5 23q-48 1 -87.5 9.5t-67 27t-43 48.5t-15.5 73q0 32 11 90l74 383q3 16 8 20.5t22 4.5h74q17 0 21 -4.5t1 -20.5l-77 -397q-2 -14 -4 -27t-2 -28q0 -11 3 -24.5t11 -23.5q11 -13 32 -20t56 -7t58.5 8t42.5 25q16 14 27.5 40.5t17.5 56.5l77 397
q3 16 8 20.5t22 4.5h74q17 0 21 -4.5t1 -20.5z" />
    <glyph glyph-name="Wgrave" unicode="&#x1e80;" horiz-adv-x="819" 
d="M494 611q20 0 27.5 -5t8.5 -22q1 -51 2 -111t2.5 -120t2.5 -117.5t3 -104.5h5q40 101 90 227.5t101 265.5q6 16 14 19.5t24 3.5h69q17 0 21 -5t-1 -18q-30 -76 -63.5 -158.5t-66.5 -161.5t-63 -150.5t-54 -125.5q-8 -17 -20.5 -22.5t-36.5 -5.5h-71q-24 0 -34 5.5
t-11 22.5q-3 46 -5 97.5t-3 105.5t-1.5 108t-0.5 104h-5q-20 -50 -41.5 -104t-43.5 -108t-44 -105.5t-43 -97.5q-8 -17 -20.5 -22.5t-36.5 -5.5h-75q-24 0 -34 5.5t-11 22.5q-3 54 -4.5 125.5t-3 150.5t-2.5 161.5t-1 158.5q1 13 7 18t23 5h69q16 0 22 -3.5t6 -19.5
q-2 -139 -4 -265.5t-1 -227.5h5q19 47 42.5 104.5t48 117.5l49 120t45.5 111q7 17 16.5 22t29.5 5h68zM542 777q16 -9 9 -28l-14 -34q-8 -19 -30 -12l-196 64q-11 4 -14.5 9.5t1.5 17.5l23 59q6 13 12.5 15.5t17.5 -3.5z" />
    <glyph glyph-name="Wacute" unicode="&#x1e82;" horiz-adv-x="819" 
d="M494 611q20 0 27.5 -5t8.5 -22q1 -51 2 -111t2.5 -120t2.5 -117.5t3 -104.5h5q40 101 90 227.5t101 265.5q6 16 14 19.5t24 3.5h69q17 0 21 -5t-1 -18q-30 -76 -63.5 -158.5t-66.5 -161.5t-63 -150.5t-54 -125.5q-8 -17 -20.5 -22.5t-36.5 -5.5h-71q-24 0 -34 5.5
t-11 22.5q-3 46 -5 97.5t-3 105.5t-1.5 108t-0.5 104h-5q-20 -50 -41.5 -104t-43.5 -108t-44 -105.5t-43 -97.5q-8 -17 -20.5 -22.5t-36.5 -5.5h-75q-24 0 -34 5.5t-11 22.5q-3 54 -4.5 125.5t-3 150.5t-2.5 161.5t-1 158.5q1 13 7 18t23 5h69q16 0 22 -3.5t6 -19.5
q-2 -139 -4 -265.5t-1 -227.5h5q19 47 42.5 104.5t48 117.5l49 120t45.5 111q7 17 16.5 22t29.5 5h68zM586 865q11 5 18 3.5t12 -15.5l23 -59q5 -12 1.5 -17.5t-14.5 -9.5l-196 -64q-22 -7 -30 12l-14 34q-7 21 9 28z" />
    <glyph glyph-name="Wcircumflex" unicode="&#x174;" horiz-adv-x="819" 
d="M494 611q20 0 27.5 -5t8.5 -22q1 -51 2 -111t2.5 -120t2.5 -117.5t3 -104.5h5q40 101 90 227.5t101 265.5q6 16 14 19.5t24 3.5h69q17 0 21 -5t-1 -18q-30 -76 -63.5 -158.5t-66.5 -161.5t-63 -150.5t-54 -125.5q-8 -17 -20.5 -22.5t-36.5 -5.5h-71q-24 0 -34 5.5
t-11 22.5q-3 46 -5 97.5t-3 105.5t-1.5 108t-0.5 104h-5q-20 -50 -41.5 -104t-43.5 -108t-44 -105.5t-43 -97.5q-8 -17 -20.5 -22.5t-36.5 -5.5h-75q-24 0 -34 5.5t-11 22.5q-3 54 -4.5 125.5t-3 150.5t-2.5 161.5t-1 158.5q1 13 7 18t23 5h69q16 0 22 -3.5t6 -19.5
q-2 -139 -4 -265.5t-1 -227.5h5q19 47 42.5 104.5t48 117.5l49 120t45.5 111q7 17 16.5 22t29.5 5h68zM625 745q3 -5 5.5 -9.5t2.5 -9.5q0 -9 -12 -16l-24 -14q-11 -6 -18 -6q-8 0 -20 13l-68 76h-3l-97 -81q-10 -8 -17 -8q-9 0 -20 8l-28 22q-6 4 -6 12t10 17l112 109
q8 8 14 9.5t13 1.5h57q6 0 12 -1.5t11 -9.5z" />
    <glyph glyph-name="Wdieresis" unicode="&#x1e84;" horiz-adv-x="819" 
d="M494 611q20 0 27.5 -5t8.5 -22q1 -51 2 -111t2.5 -120t2.5 -117.5t3 -104.5h5q40 101 90 227.5t101 265.5q6 16 14 19.5t24 3.5h69q17 0 21 -5t-1 -18q-30 -76 -63.5 -158.5t-66.5 -161.5t-63 -150.5t-54 -125.5q-8 -17 -20.5 -22.5t-36.5 -5.5h-71q-24 0 -34 5.5
t-11 22.5q-3 46 -5 97.5t-3 105.5t-1.5 108t-0.5 104h-5q-20 -50 -41.5 -104t-43.5 -108t-44 -105.5t-43 -97.5q-8 -17 -20.5 -22.5t-36.5 -5.5h-75q-24 0 -34 5.5t-11 22.5q-3 54 -4.5 125.5t-3 150.5t-2.5 161.5t-1 158.5q1 13 7 18t23 5h69q16 0 22 -3.5t6 -19.5
q-2 -139 -4 -265.5t-1 -227.5h5q19 47 42.5 104.5t48 117.5l49 120t45.5 111q7 17 16.5 22t29.5 5h68zM422 847q22 0 34 -10.5t12 -28.5q0 -5 -1 -13.5t-4 -20.5q-6 -25 -23 -37t-42 -12h-10q-45 0 -45 35q0 8 1 17.5t5 23.5q6 23 22.5 34.5t40.5 11.5h10zM586 847
q22 0 34 -10.5t12 -28.5q0 -5 -1 -13.5t-4 -20.5q-6 -25 -23 -37t-42 -12h-10q-45 0 -45 35q0 8 1 17.5t5 23.5q6 23 22.5 34.5t40.5 11.5h10z" />
    <glyph glyph-name="Ygrave" unicode="&#x1ef2;" horiz-adv-x="499" 
d="M246 25q-3 -16 -9 -20.5t-23 -4.5h-72q-17 0 -21 4.5t-1 20.5l36 184q-35 94 -59.5 198.5t-35.5 218.5q-2 13 5 17t24 4h65q16 0 21.5 -2.5t7.5 -18.5q6 -75 18 -155.5t30 -155.5h7q25 39 50.5 80t48.5 81.5t43.5 78.5t35.5 71q8 16 14.5 18.5t22.5 2.5h67q17 0 22 -4
t-1 -17q-49 -106 -116.5 -216t-145.5 -208zM384 777q16 -9 9 -28l-14 -34q-8 -19 -30 -12l-196 64q-11 4 -14.5 9.5t1.5 17.5l23 59q6 13 12.5 15.5t17.5 -3.5z" />
    <glyph glyph-name="Yacute" unicode="&#xdd;" horiz-adv-x="499" 
d="M246 25q-3 -16 -9 -20.5t-23 -4.5h-72q-17 0 -21 4.5t-1 20.5l36 184q-35 94 -59.5 198.5t-35.5 218.5q-2 13 5 17t24 4h65q16 0 21.5 -2.5t7.5 -18.5q6 -75 18 -155.5t30 -155.5h7q25 39 50.5 80t48.5 81.5t43.5 78.5t35.5 71q8 16 14.5 18.5t22.5 2.5h67q17 0 22 -4
t-1 -17q-49 -106 -116.5 -216t-145.5 -208zM426 865q11 5 18 3.5t12 -15.5l23 -59q5 -12 1.5 -17.5t-14.5 -9.5l-196 -64q-22 -7 -30 12l-14 34q-7 21 9 28z" />
    <glyph glyph-name="Ycircumflex" unicode="&#x176;" horiz-adv-x="499" 
d="M246 25q-3 -16 -9 -20.5t-23 -4.5h-72q-17 0 -21 4.5t-1 20.5l36 184q-35 94 -59.5 198.5t-35.5 218.5q-2 13 5 17t24 4h65q16 0 21.5 -2.5t7.5 -18.5q6 -75 18 -155.5t30 -155.5h7q25 39 50.5 80t48.5 81.5t43.5 78.5t35.5 71q8 16 14.5 18.5t22.5 2.5h67q17 0 22 -4
t-1 -17q-49 -106 -116.5 -216t-145.5 -208zM462 745q3 -5 5.5 -9.5t2.5 -9.5q0 -9 -12 -16l-24 -14q-11 -6 -18 -6q-8 0 -20 13l-68 76h-3l-97 -81q-10 -8 -17 -8q-9 0 -20 8l-28 22q-6 4 -6 12t10 17l112 109q8 8 14 9.5t13 1.5h57q6 0 12 -1.5t11 -9.5z" />
    <glyph glyph-name="Ydieresis" unicode="&#x178;" horiz-adv-x="499" 
d="M246 25q-3 -16 -9 -20.5t-23 -4.5h-72q-17 0 -21 4.5t-1 20.5l36 184q-35 94 -59.5 198.5t-35.5 218.5q-2 13 5 17t24 4h65q16 0 21.5 -2.5t7.5 -18.5q6 -75 18 -155.5t30 -155.5h7q25 39 50.5 80t48.5 81.5t43.5 78.5t35.5 71q8 16 14.5 18.5t22.5 2.5h67q17 0 22 -4
t-1 -17q-49 -106 -116.5 -216t-145.5 -208zM259 847q22 0 34 -10.5t12 -28.5q0 -5 -1 -13.5t-4 -20.5q-6 -25 -23 -37t-42 -12h-10q-45 0 -45 35q0 8 1 17.5t5 23.5q6 23 22.5 34.5t40.5 11.5h10zM423 847q22 0 34 -10.5t12 -28.5q0 -5 -1 -13.5t-4 -20.5q-6 -25 -23 -37
t-42 -12h-10q-45 0 -45 35q0 8 1 17.5t5 23.5q6 23 22.5 34.5t40.5 11.5h10z" />
    <glyph glyph-name="Zacute" unicode="&#x179;" horiz-adv-x="511" 
d="M389 103q17 0 21 -5t1 -19l-10 -55q-3 -14 -9 -19t-23 -5h-369q-18 0 -25 6t-3 24l6 32q2 9 8 17.5t17 20.5l358 444h-241q-17 0 -21 5t-1 19l10 55q3 14 9 19t23 5h366q16 0 22 -5t3 -20l-6 -30q-2 -11 -7 -19.5t-19 -25.5l-362 -444h252zM443 865q11 5 18 3.5t12 -15.5
l23 -59q5 -12 1.5 -17.5t-14.5 -9.5l-196 -64q-22 -7 -30 12l-14 34q-7 21 9 28z" />
    <glyph glyph-name="Zcaron" unicode="&#x17d;" horiz-adv-x="511" 
d="M389 103q17 0 21 -5t1 -19l-10 -55q-3 -14 -9 -19t-23 -5h-369q-18 0 -25 6t-3 24l6 32q2 9 8 17.5t17 20.5l358 444h-241q-17 0 -21 5t-1 19l10 55q3 14 9 19t23 5h366q16 0 22 -5t3 -20l-6 -30q-2 -11 -7 -19.5t-19 -25.5l-362 -444h252zM385 716q-8 -8 -14.5 -9.5
t-12.5 -1.5h-57q-7 0 -12.5 1.5t-10.5 9.5l-70 109q-6 8 -2.5 16t10.5 13l32 21q10 7 18 7.5t16 -9.5l62 -78h3l97 78q11 9 19 9t15 -7l24 -21q5 -5 5 -13t-9 -16z" />
    <glyph glyph-name="Zdotaccent" unicode="&#x17b;" horiz-adv-x="511" 
d="M389 103q17 0 21 -5t1 -19l-10 -55q-3 -14 -9 -19t-23 -5h-369q-18 0 -25 6t-3 24l6 32q2 9 8 17.5t17 20.5l358 444h-241q-17 0 -21 5t-1 19l10 55q3 14 9 19t23 5h366q16 0 22 -5t3 -20l-6 -30q-2 -11 -7 -19.5t-19 -25.5l-362 -444h252zM275 780q0 36 24 58.5t57 22.5
q25 0 40 -16t15 -39q0 -37 -24 -58.5t-57 -21.5q-24 0 -39.5 15.5t-15.5 38.5z" />
    <glyph glyph-name="agrave" unicode="&#xe0;" horiz-adv-x="495" 
d="M298 214q-13 1 -27 1.5t-29 0.5h-28q-35 0 -52.5 -11t-26.5 -39q-5 -14 -7.5 -27t-2.5 -24q0 -29 51 -29h23q41 0 60.5 16.5t27.5 54.5zM284 42q-17 -24 -47.5 -37.5t-78.5 -13.5h-32q-55 0 -85.5 26t-30.5 69q0 24 6 54.5t15 60.5q19 61 68 85.5t129 24.5h34
q14 0 27.5 -1t26.5 -2l3 14q2 11 4 22.5t2 20.5q0 23 -19 29.5t-56 6.5q-23 0 -56.5 -5.5t-64.5 -13.5q-19 -4 -22 16l-6 47q-2 14 2.5 20t18.5 10q32 10 77 17t88 7q47 0 76.5 -7.5t51.5 -24.5q17 -13 25 -31t8 -45q0 -23 -6 -56l-62 -316q-4 -19 -24 -19h-48q-20 0 -21 18
l-1 24h-2zM408 627q17 -9 8 -28l-16 -34q-8 -18 -30 -10l-193 74q-11 4 -13.5 10t2.5 17l26 58q6 13 12.5 15t17.5 -4z" />
    <glyph glyph-name="aacute" unicode="&#xe1;" horiz-adv-x="495" 
d="M298 214q-13 1 -27 1.5t-29 0.5h-28q-35 0 -52.5 -11t-26.5 -39q-5 -14 -7.5 -27t-2.5 -24q0 -29 51 -29h23q41 0 60.5 16.5t27.5 54.5zM284 42q-17 -24 -47.5 -37.5t-78.5 -13.5h-32q-55 0 -85.5 26t-30.5 69q0 24 6 54.5t15 60.5q19 61 68 85.5t129 24.5h34
q14 0 27.5 -1t26.5 -2l3 14q2 11 4 22.5t2 20.5q0 23 -19 29.5t-56 6.5q-23 0 -56.5 -5.5t-64.5 -13.5q-19 -4 -22 16l-6 47q-2 14 2.5 20t18.5 10q32 10 77 17t88 7q47 0 76.5 -7.5t51.5 -24.5q17 -13 25 -31t8 -45q0 -23 -6 -56l-62 -316q-4 -19 -24 -19h-48q-20 0 -21 18
l-1 24h-2zM405 725q11 6 17.5 4t12.5 -15l26 -58q5 -11 2.5 -17t-13.5 -10l-193 -74q-22 -8 -30 10l-16 34q-9 19 8 28z" />
    <glyph glyph-name="acircumflex" unicode="&#xe2;" horiz-adv-x="495" 
d="M298 214q-13 1 -27 1.5t-29 0.5h-28q-35 0 -52.5 -11t-26.5 -39q-5 -14 -7.5 -27t-2.5 -24q0 -29 51 -29h23q41 0 60.5 16.5t27.5 54.5zM284 42q-17 -24 -47.5 -37.5t-78.5 -13.5h-32q-55 0 -85.5 26t-30.5 69q0 24 6 54.5t15 60.5q19 61 68 85.5t129 24.5h34
q14 0 27.5 -1t26.5 -2l3 14q2 11 4 22.5t2 20.5q0 23 -19 29.5t-56 6.5q-23 0 -56.5 -5.5t-64.5 -13.5q-19 -4 -22 16l-6 47q-2 14 2.5 20t18.5 10q32 10 77 17t88 7q47 0 76.5 -7.5t51.5 -24.5q17 -13 25 -31t8 -45q0 -23 -6 -56l-62 -316q-4 -19 -24 -19h-48q-20 0 -21 18
l-1 24h-2zM452 595q3 -5 5.5 -9.5t2.5 -9.5q0 -9 -12 -16l-24 -14q-11 -6 -18 -6q-8 0 -20 13l-68 76h-3l-97 -81q-10 -8 -17 -8q-9 0 -20 8l-28 22q-6 4 -6 12t10 17l112 109q8 8 14 9.5t13 1.5h57q6 0 12 -1.5t11 -9.5z" />
    <glyph glyph-name="atilde" unicode="&#xe3;" horiz-adv-x="495" 
d="M298 214q-13 1 -27 1.5t-29 0.5h-28q-35 0 -52.5 -11t-26.5 -39q-5 -14 -7.5 -27t-2.5 -24q0 -29 51 -29h23q41 0 60.5 16.5t27.5 54.5zM284 42q-17 -24 -47.5 -37.5t-78.5 -13.5h-32q-55 0 -85.5 26t-30.5 69q0 24 6 54.5t15 60.5q19 61 68 85.5t129 24.5h34
q14 0 27.5 -1t26.5 -2l3 14q2 11 4 22.5t2 20.5q0 23 -19 29.5t-56 6.5q-23 0 -56.5 -5.5t-64.5 -13.5q-19 -4 -22 16l-6 47q-2 14 2.5 20t18.5 10q32 10 77 17t88 7q47 0 76.5 -7.5t51.5 -24.5q17 -13 25 -31t8 -45q0 -23 -6 -56l-62 -316q-4 -19 -24 -19h-48q-20 0 -21 18
l-1 24h-2zM148 578q-7 5 -9 8.5t5 14.5q26 43 58 66.5t64 23.5q18 0 32.5 -5t28.5 -16l19 -14q19 -15 33 -15q25 0 54 40q8 11 19 2l25 -19q8 -6 9 -11t-5 -13q-32 -45 -60 -64.5t-56 -19.5q-20 0 -34 5t-28 15l-20 15q-9 7 -17 10.5t-18 3.5q-11 0 -23.5 -9.5t-28.5 -32.5
q-5 -8 -11 -7t-15 7z" />
    <glyph glyph-name="adieresis" unicode="&#xe4;" horiz-adv-x="495" 
d="M298 214q-13 1 -27 1.5t-29 0.5h-28q-35 0 -52.5 -11t-26.5 -39q-5 -14 -7.5 -27t-2.5 -24q0 -29 51 -29h23q41 0 60.5 16.5t27.5 54.5zM284 42q-17 -24 -47.5 -37.5t-78.5 -13.5h-32q-55 0 -85.5 26t-30.5 69q0 24 6 54.5t15 60.5q19 61 68 85.5t129 24.5h34
q14 0 27.5 -1t26.5 -2l3 14q2 11 4 22.5t2 20.5q0 23 -19 29.5t-56 6.5q-23 0 -56.5 -5.5t-64.5 -13.5q-19 -4 -22 16l-6 47q-2 14 2.5 20t18.5 10q32 10 77 17t88 7q47 0 76.5 -7.5t51.5 -24.5q17 -13 25 -31t8 -45q0 -23 -6 -56l-62 -316q-4 -19 -24 -19h-48q-20 0 -21 18
l-1 24h-2zM250 693q22 0 34 -10.5t12 -28.5q0 -5 -1 -13.5t-4 -20.5q-6 -25 -23 -37t-42 -12h-10q-45 0 -45 35q0 8 1 17.5t5 23.5q6 23 22.5 34.5t40.5 11.5h10zM414 693q22 0 34 -10.5t12 -28.5q0 -5 -1 -13.5t-4 -20.5q-6 -25 -23 -37t-42 -12h-10q-45 0 -45 35
q0 8 1 17.5t5 23.5q6 23 22.5 34.5t40.5 11.5h10z" />
    <glyph glyph-name="amacron" unicode="&#x101;" horiz-adv-x="495" 
d="M298 214q-13 1 -27 1.5t-29 0.5h-28q-35 0 -52.5 -11t-26.5 -39q-5 -14 -7.5 -27t-2.5 -24q0 -29 51 -29h23q41 0 60.5 16.5t27.5 54.5zM284 42q-17 -24 -47.5 -37.5t-78.5 -13.5h-32q-55 0 -85.5 26t-30.5 69q0 24 6 54.5t15 60.5q19 61 68 85.5t129 24.5h34
q14 0 27.5 -1t26.5 -2l3 14q2 11 4 22.5t2 20.5q0 23 -19 29.5t-56 6.5q-23 0 -56.5 -5.5t-64.5 -13.5q-19 -4 -22 16l-6 47q-2 14 2.5 20t18.5 10q32 10 77 17t88 7q47 0 76.5 -7.5t51.5 -24.5q17 -13 25 -31t8 -45q0 -23 -6 -56l-62 -316q-4 -19 -24 -19h-48q-20 0 -21 18
l-1 24h-2zM427 662q15 0 18 -6.5t1 -17.5l-7 -37q-3 -17 -11.5 -19.5t-16.5 -2.5h-216q-14 0 -18 6t-2 18l7 35q2 11 8.5 17.5t20.5 6.5h216z" />
    <glyph glyph-name="abreve" unicode="&#x103;" horiz-adv-x="495" 
d="M298 214q-13 1 -27 1.5t-29 0.5h-28q-35 0 -52.5 -11t-26.5 -39q-5 -14 -7.5 -27t-2.5 -24q0 -29 51 -29h23q41 0 60.5 16.5t27.5 54.5zM284 42q-17 -24 -47.5 -37.5t-78.5 -13.5h-32q-55 0 -85.5 26t-30.5 69q0 24 6 54.5t15 60.5q19 61 68 85.5t129 24.5h34
q14 0 27.5 -1t26.5 -2l3 14q2 11 4 22.5t2 20.5q0 23 -19 29.5t-56 6.5q-23 0 -56.5 -5.5t-64.5 -13.5q-19 -4 -22 16l-6 47q-2 14 2.5 20t18.5 10q32 10 77 17t88 7q47 0 76.5 -7.5t51.5 -24.5q17 -13 25 -31t8 -45q0 -23 -6 -56l-62 -316q-4 -19 -24 -19h-48q-20 0 -21 18
l-1 24h-2zM299 551q-58 0 -92 30t-39 84q-2 11 1.5 16t17.5 10l37 12q11 3 17 2t9 -14q8 -32 23.5 -46t40.5 -14t46 14t42 46q8 13 14.5 14t15.5 -2l33 -12q12 -5 13.5 -10t-4.5 -16q-26 -54 -69.5 -84t-105.5 -30z" />
    <glyph glyph-name="acaron" unicode="&#x1ce;" horiz-adv-x="495" 
d="M298 214q-13 1 -27 1.5t-29 0.5h-28q-35 0 -52.5 -11t-26.5 -39q-5 -14 -7.5 -27t-2.5 -24q0 -29 51 -29h23q41 0 60.5 16.5t27.5 54.5zM284 42q-17 -24 -47.5 -37.5t-78.5 -13.5h-32q-55 0 -85.5 26t-30.5 69q0 24 6 54.5t15 60.5q19 61 68 85.5t129 24.5h34
q14 0 27.5 -1t26.5 -2l3 14q2 11 4 22.5t2 20.5q0 23 -19 29.5t-56 6.5q-23 0 -56.5 -5.5t-64.5 -13.5q-19 -4 -22 16l-6 47q-2 14 2.5 20t18.5 10q32 10 77 17t88 7q47 0 76.5 -7.5t51.5 -24.5q17 -13 25 -31t8 -45q0 -23 -6 -56l-62 -316q-4 -19 -24 -19h-48q-20 0 -21 18
l-1 24h-2zM172 670q-3 5 -5.5 9.5t-2.5 9.5q0 9 12 16l24 14q10 6 18 6t20 -13l68 -76h3l97 81q10 8 17 8q9 0 20 -8l28 -22q6 -5 6 -12q0 -8 -10 -17l-112 -109q-8 -8 -14 -9.5t-13 -1.5h-57q-6 0 -12 1.5t-11 9.5z" />
    <glyph glyph-name="aring" unicode="&#xe5;" horiz-adv-x="495" 
d="M298 214q-13 1 -27 1.5t-29 0.5h-28q-35 0 -52.5 -11t-26.5 -39q-5 -14 -7.5 -27t-2.5 -24q0 -29 51 -29h23q41 0 60.5 16.5t27.5 54.5zM284 42q-17 -24 -47.5 -37.5t-78.5 -13.5h-32q-55 0 -85.5 26t-30.5 69q0 24 6 54.5t15 60.5q19 61 68 85.5t129 24.5h34
q14 0 27.5 -1t26.5 -2l3 14q2 11 4 22.5t2 20.5q0 23 -19 29.5t-56 6.5q-23 0 -56.5 -5.5t-64.5 -13.5q-19 -4 -22 16l-6 47q-2 14 2.5 20t18.5 10q32 10 77 17t88 7q47 0 76.5 -7.5t51.5 -24.5q17 -13 25 -31t8 -45q0 -23 -6 -56l-62 -316q-4 -19 -24 -19h-48q-20 0 -21 18
l-1 24h-2zM208 616q0 50 33 81.5t84 31.5q36 0 58.5 -22t22.5 -57q0 -24 -8 -44.5t-23 -36.5t-36 -25t-47 -9q-39 0 -61.5 22.5t-22.5 58.5zM311 664q-15 0 -26 -10.5t-11 -28.5q0 -11 7.5 -18.5t21.5 -7.5q17 0 27 10.5t10 26.5q0 28 -29 28z" />
    <glyph glyph-name="aringacute" unicode="&#x1fb;" horiz-adv-x="495" 
d="M298 214q-13 1 -27 1.5t-29 0.5h-28q-35 0 -52.5 -11t-26.5 -39q-5 -14 -7.5 -27t-2.5 -24q0 -29 51 -29h23q41 0 60.5 16.5t27.5 54.5zM284 42q-17 -24 -47.5 -37.5t-78.5 -13.5h-32q-55 0 -85.5 26t-30.5 69q0 24 6 54.5t15 60.5q19 61 68 85.5t129 24.5h34
q14 0 27.5 -1t26.5 -2l3 14q2 11 4 22.5t2 20.5q0 23 -19 29.5t-56 6.5q-23 0 -56.5 -5.5t-64.5 -13.5q-19 -4 -22 16l-6 47q-2 14 2.5 20t18.5 10q32 10 77 17t88 7q47 0 76.5 -7.5t51.5 -24.5q17 -13 25 -31t8 -45q0 -23 -6 -56l-62 -316q-4 -19 -24 -19h-48q-20 0 -21 18
l-1 24h-2zM212 607q0 50 33 81.5t84 31.5q36 0 58.5 -22t22.5 -57q0 -24 -8 -44.5t-23 -36.5t-36 -25t-47 -9q-39 0 -61.5 22.5t-22.5 58.5zM315 655q-15 0 -26 -10.5t-11 -28.5q0 -11 7.5 -18.5t21.5 -7.5q17 0 27 10.5t10 26.5q0 28 -29 28zM429 903q11 5 18 3.5t12 -15.5
l23 -59q5 -12 1.5 -17.5t-14.5 -9.5l-196 -64q-22 -7 -30 12l-14 34q-7 21 9 28z" />
    <glyph glyph-name="aogonek" unicode="&#x105;" horiz-adv-x="495" 
d="M284 42q-17 -24 -47.5 -37.5t-78.5 -13.5h-32q-55 0 -85.5 26t-30.5 69q0 24 6 54.5t15 60.5q19 61 68 85.5t129 24.5h34q14 0 27.5 -1t26.5 -2l3 14q2 11 4 22.5t2 20.5q0 23 -19 29.5t-56 6.5q-23 0 -56.5 -5.5t-64.5 -13.5q-19 -4 -22 16l-6 47q-2 14 2.5 20t18.5 10
q32 10 77 17t88 7q47 0 76.5 -7.5t51.5 -24.5q17 -13 25 -31t8 -45q0 -23 -6 -56l-62 -316q-3 -13 -14 -18q-15 -7 -33 -17.5t-33.5 -25t-25.5 -32t-10 -38.5q0 -23 32 -23q11 0 22.5 2.5t21.5 6.5q11 5 14.5 3t3.5 -9l3 -34q0 -8 -3.5 -12t-14.5 -9q-36 -14 -78 -14
q-91 0 -91 66q0 23 9 44t24.5 40t36.5 34.5t44 28.5l-2 30h-2zM298 214q-13 1 -27 1.5t-29 0.5h-28q-35 0 -52.5 -11t-26.5 -39q-5 -14 -7.5 -27t-2.5 -24q0 -29 51 -29h23q41 0 60.5 16.5t27.5 54.5z" />
    <glyph glyph-name="ae" unicode="&#xe6;" horiz-adv-x="748" 
d="M694 217q-3 -16 -10 -22.5t-23 -6.5h-248q-2 -12 -3.5 -24t-1.5 -23q0 -26 21 -39q19 -12 80 -12q25 0 57.5 5t55.5 12q10 3 16 1.5t8 -13.5l8 -53q2 -12 -2.5 -17t-15.5 -9q-34 -11 -75 -18t-82 -7q-69 0 -106.5 13.5t-57.5 42.5q-22 -29 -61.5 -42.5t-95.5 -13.5h-32
q-55 0 -85.5 26t-30.5 69q0 24 6 54.5t15 60.5q19 61 68 85.5t129 24.5h34q14 0 28.5 -1.5t25.5 -3.5l3 16q2 13 4 24t2 19q0 23 -19 29.5t-56 6.5q-23 0 -56.5 -5.5t-64.5 -13.5q-19 -4 -22 16l-6 47q-2 14 2.5 20t18.5 10q16 5 35.5 9.5t40.5 7.5t41 5t38 2q95 0 128 -44
q23 20 59.5 32t80.5 12q84 0 127.5 -33t43.5 -96q0 -32 -6 -66.5t-16 -86.5zM298 214q-13 1 -27 1.5t-29 0.5h-28q-35 0 -52.5 -11t-26.5 -39q-5 -14 -7.5 -27t-2.5 -24q0 -29 51 -29h23q41 0 60.5 16.5t27.5 54.5zM532 405q-22 0 -36.5 -5.5t-25.5 -16.5q-14 -14 -22.5 -37
t-16.5 -64h143q8 0 10.5 3t4.5 11q3 14 5 28t2 25q0 23 -8 36q-14 20 -56 20z" />
    <glyph glyph-name="aeacute" unicode="&#x1fd;" horiz-adv-x="748" 
d="M702 217q-3 -16 -10 -22.5t-23 -6.5h-248q-2 -12 -3.5 -24t-1.5 -23q0 -26 21 -39q19 -12 80 -12q25 0 57.5 5t55.5 12q10 3 16 1.5t8 -13.5l8 -53q2 -12 -2.5 -17t-15.5 -9q-34 -11 -75 -18t-82 -7q-69 0 -106.5 13.5t-57.5 42.5q-22 -29 -61.5 -42.5t-95.5 -13.5h-32
q-55 0 -85.5 26t-30.5 69q0 24 6 54.5t15 60.5q19 61 68 85.5t129 24.5h34q14 0 28.5 -1.5t25.5 -3.5l3 16q2 13 4 24t2 19q0 23 -19 29.5t-56 6.5q-23 0 -56.5 -5.5t-64.5 -13.5q-19 -4 -22 16l-6 47q-2 14 2.5 20t18.5 10q16 5 35.5 9.5t40.5 7.5t41 5t38 2q95 0 128 -44
q23 20 59.5 32t80.5 12q84 0 127.5 -33t43.5 -96q0 -32 -6 -66.5t-16 -86.5zM306 214q-13 1 -27 1.5t-29 0.5h-28q-35 0 -52.5 -11t-26.5 -39q-5 -14 -7.5 -27t-2.5 -24q0 -29 51 -29h23q41 0 60.5 16.5t27.5 54.5zM540 405q-22 0 -36.5 -5.5t-25.5 -16.5q-14 -14 -22.5 -37
t-16.5 -64h143q8 0 10.5 3t4.5 11q3 14 5 28t2 25q0 23 -8 36q-14 20 -56 20zM559 725q11 6 17.5 4t12.5 -15l26 -58q5 -11 2.5 -17t-13.5 -10l-193 -74q-22 -8 -30 10l-16 34q-9 19 8 28z" />
    <glyph glyph-name="cacute" unicode="&#x107;" horiz-adv-x="449" 
d="M356 37q2 -11 -1.5 -16.5t-12.5 -8.5q-25 -8 -65 -14.5t-82 -6.5q-94 0 -135.5 31t-41.5 100q0 15 2.5 37t6.5 46.5t8.5 50.5t9.5 48q14 67 35 102t53 57q25 17 60.5 26.5t83.5 9.5q35 0 74.5 -9.5t70.5 -24.5q8 -4 9 -10t-4 -15l-28 -57q-9 -16 -26 -7q-20 10 -45 16.5
t-48 6.5q-26 0 -43 -5.5t-30 -15.5q-16 -13 -27.5 -37t-20.5 -68q-5 -26 -9 -46t-6 -35t-3 -27t-1 -23q0 -29 20 -40.5t60 -11.5q26 0 54.5 3.5t48.5 9.5q12 4 18 1.5t8 -13.5zM413 725q11 6 17.5 4t12.5 -15l26 -58q5 -11 2.5 -17t-13.5 -10l-193 -74q-22 -8 -30 10l-16 34
q-9 19 8 28z" />
    <glyph glyph-name="ccedilla" unicode="&#xe7;" horiz-adv-x="449" 
d="M356 37q2 -11 -1.5 -16.5t-12.5 -8.5q-20 -7 -51.5 -12.5t-66.5 -7.5l-19 -50q8 2 14.5 2.5t16.5 0.5q31 0 52 -19.5t13 -64.5q-11 -53 -46 -76t-91 -23q-20 0 -43.5 3.5t-39.5 8.5q-8 3 -10.5 7t1.5 14l11 32q6 16 20 11q11 -4 26.5 -7t34.5 -3q22 0 33.5 6t14.5 22
q2 14 -3.5 20t-24.5 6q-10 0 -17.5 -1t-18.5 -3q-15 -3 -20 8l-6 12q-4 9 0 18l32 77q-72 5 -104 36.5t-32 92.5q0 15 2.5 37t6.5 46.5t8.5 50.5t9.5 48q14 67 35 102t53 57q25 17 60.5 26.5t83.5 9.5q35 0 74.5 -9.5t70.5 -24.5q8 -4 9 -10t-4 -15l-28 -57q-9 -16 -26 -7
q-20 10 -45 16.5t-48 6.5q-26 0 -43 -5.5t-30 -15.5q-16 -13 -27.5 -37t-20.5 -68q-5 -26 -9 -46t-6 -35t-3 -27t-1 -23q0 -29 20 -40.5t60 -11.5q26 0 54.5 3.5t48.5 9.5q12 4 18 1.5t8 -13.5z" />
    <glyph glyph-name="ccircumflex" unicode="&#x109;" horiz-adv-x="449" 
d="M356 37q2 -11 -1.5 -16.5t-12.5 -8.5q-25 -8 -65 -14.5t-82 -6.5q-94 0 -135.5 31t-41.5 100q0 15 2.5 37t6.5 46.5t8.5 50.5t9.5 48q14 67 35 102t53 57q25 17 60.5 26.5t83.5 9.5q35 0 74.5 -9.5t70.5 -24.5q8 -4 9 -10t-4 -15l-28 -57q-9 -16 -26 -7q-20 10 -45 16.5
t-48 6.5q-26 0 -43 -5.5t-30 -15.5q-16 -13 -27.5 -37t-20.5 -68q-5 -26 -9 -46t-6 -35t-3 -27t-1 -23q0 -29 20 -40.5t60 -11.5q26 0 54.5 3.5t48.5 9.5q12 4 18 1.5t8 -13.5zM442 595q3 -5 5.5 -9.5t2.5 -9.5q0 -9 -12 -16l-24 -14q-11 -6 -18 -6q-8 0 -20 13l-68 76h-3
l-97 -81q-10 -8 -17 -8q-9 0 -20 8l-28 22q-6 4 -6 12t10 17l112 109q8 8 14 9.5t13 1.5h57q6 0 12 -1.5t11 -9.5z" />
    <glyph glyph-name="ccaron" unicode="&#x10d;" horiz-adv-x="449" 
d="M356 37q2 -11 -1.5 -16.5t-12.5 -8.5q-25 -8 -65 -14.5t-82 -6.5q-94 0 -135.5 31t-41.5 100q0 15 2.5 37t6.5 46.5t8.5 50.5t9.5 48q14 67 35 102t53 57q25 17 60.5 26.5t83.5 9.5q35 0 74.5 -9.5t70.5 -24.5q8 -4 9 -10t-4 -15l-28 -57q-9 -16 -26 -7q-20 10 -45 16.5
t-48 6.5q-26 0 -43 -5.5t-30 -15.5q-16 -13 -27.5 -37t-20.5 -68q-5 -26 -9 -46t-6 -35t-3 -27t-1 -23q0 -29 20 -40.5t60 -11.5q26 0 54.5 3.5t48.5 9.5q12 4 18 1.5t8 -13.5zM155 670q-3 5 -5.5 9.5t-2.5 9.5q0 9 12 16l24 14q10 6 18 6t20 -13l68 -76h3l97 81q10 8 17 8
q9 0 20 -8l28 -22q6 -5 6 -12q0 -8 -10 -17l-112 -109q-8 -8 -14 -9.5t-13 -1.5h-57q-6 0 -12 1.5t-11 9.5z" />
    <glyph glyph-name="cdotaccent" unicode="&#x10b;" horiz-adv-x="449" 
d="M356 37q2 -11 -1.5 -16.5t-12.5 -8.5q-25 -8 -65 -14.5t-82 -6.5q-94 0 -135.5 31t-41.5 100q0 15 2.5 37t6.5 46.5t8.5 50.5t9.5 48q14 67 35 102t53 57q25 17 60.5 26.5t83.5 9.5q35 0 74.5 -9.5t70.5 -24.5q8 -4 9 -10t-4 -15l-28 -57q-9 -16 -26 -7q-20 10 -45 16.5
t-48 6.5q-26 0 -43 -5.5t-30 -15.5q-16 -13 -27.5 -37t-20.5 -68q-5 -26 -9 -46t-6 -35t-3 -27t-1 -23q0 -29 20 -40.5t60 -11.5q26 0 54.5 3.5t48.5 9.5q12 4 18 1.5t8 -13.5zM223 608q0 36 24 58.5t57 22.5q25 0 40 -16t15 -39q0 -37 -24 -58.5t-57 -21.5
q-24 0 -39.5 15.5t-15.5 38.5z" />
    <glyph glyph-name="dcaron" unicode="&#x10f;" horiz-adv-x="530" 
d="M341 295q3 17 4.5 29t1.5 25q0 25 -15.5 40t-57.5 15q-47 0 -70 -23q-14 -14 -25 -39t-20 -70q-11 -53 -15.5 -84t-4.5 -51q0 -23 15.5 -36t53.5 -13q31 0 48.5 5t30.5 16t20 28t12 46zM437 178q-11 -54 -25 -88t-40 -55t-68.5 -32.5t-114.5 -11.5q-88 0 -129 33t-41 98
q0 29 6 72t20 107q12 55 30 93t44 61.5t61.5 33.5t80.5 10q35 0 64.5 -8.5t46.5 -22.5h3l36 184q3 15 9.5 20t23.5 5h63q17 0 21.5 -5t1.5 -20zM667 725q20 0 31 -9.5t11 -26.5q0 -2 -1 -11t-5 -26q-8 -34 -34 -72t-66 -71q-8 -7 -13.5 -6t-12.5 7l-17 16q-7 6 -6 10.5
t7 10.5q15 14 29 29t22 27q4 7 -1 10q-11 7 -16.5 13.5t-5.5 18.5q0 3 1 12t5 25q5 22 20 32.5t37 10.5h15z" />
    <glyph glyph-name="dcroat" unicode="&#x111;" horiz-adv-x="530" 
d="M524 622h29q15 0 18 -5.5t1 -18.5l-7 -37q-2 -14 -7.5 -18t-20.5 -4h-29l-71 -361q-11 -54 -25 -88t-40 -55t-68.5 -32.5t-114.5 -11.5q-88 0 -129 33t-41 98q0 29 6 72t20 107q12 55 30 93t44 61.5t61.5 33.5t80.5 10q35 0 64.5 -8.5t46.5 -22.5h3l14 71h-65
q-14 0 -18.5 5t-1.5 19l7 35q2 12 8.5 18t20.5 6h65l6 30q3 15 9.5 20t23.5 5h63q17 0 21.5 -5t1.5 -20zM341 295q3 17 4.5 29t1.5 25q0 25 -15.5 40t-57.5 15q-47 0 -70 -23q-14 -14 -25 -39t-20 -70q-11 -53 -15.5 -84t-4.5 -51q0 -23 15.5 -36t53.5 -13q31 0 48.5 5
t30.5 16t20 28t12 46z" />
    <glyph glyph-name="eth" unicode="&#xf0;" horiz-adv-x="523" 
d="M360 641q24 -19 43.5 -41t33.5 -49.5t22 -61.5t8 -77q0 -26 -6 -70t-16 -92q-8 -41 -15.5 -73.5t-16.5 -58.5t-21.5 -46.5t-30.5 -36.5q-26 -23 -67.5 -33.5t-110.5 -10.5q-54 0 -94 11t-62 39q-26 33 -26 85q0 16 5 51t17 98q10 51 28 86t52 61q24 19 60.5 30t79.5 11
q33 0 57.5 -6.5t42.5 -17.5h3q1 77 -57 123l-45 -49q-5 -5 -10.5 -5.5t-13.5 5.5l-25 20q-13 10 -3 22l42 46q-26 16 -51 28q-8 4 -7 9.5t6 11.5l41 51q8 11 22 4q31 -13 59 -28l43 47q12 12 27 1l21 -16q16 -14 4 -26zM258 367q-29 0 -49 -6.5t-35 -21.5q-26 -28 -37 -86
q-8 -45 -11.5 -69.5t-3.5 -41.5q0 -32 20.5 -43.5t62.5 -11.5q22 0 41.5 5.5t32.5 18.5q14 14 20.5 32.5t11.5 41.5q11 47 15 72.5t4 45.5q0 64 -72 64z" />
    <glyph glyph-name="egrave" unicode="&#xe8;" horiz-adv-x="478" 
d="M424 217q-3 -16 -10 -22.5t-23 -6.5h-248q-2 -12 -3.5 -24t-1.5 -23t5 -21.5t16 -17.5q19 -12 80 -12q25 0 57.5 5t55.5 12q10 3 16 1.5t8 -13.5l8 -53q2 -12 -2.5 -17t-15.5 -9q-34 -11 -75 -18t-82 -7q-52 0 -88 8t-58.5 24t-33 40.5t-10.5 56.5q0 33 8 83t19 104
q11 55 30.5 91.5t48 59t66 32t84.5 9.5q84 0 127.5 -33t43.5 -96q0 -32 -6 -66.5t-16 -86.5zM262 405q-22 0 -36.5 -5.5t-25.5 -16.5q-14 -14 -22.5 -37t-16.5 -64h143q8 0 10.5 3t4.5 11q3 14 5 28t2 25q0 23 -8 36q-14 20 -56 20zM382 627q17 -9 8 -28l-16 -34
q-8 -18 -30 -10l-193 74q-11 4 -13.5 10t2.5 17l26 58q6 13 12.5 15t17.5 -4z" />
    <glyph glyph-name="eacute" unicode="&#xe9;" horiz-adv-x="478" 
d="M424 217q-3 -16 -10 -22.5t-23 -6.5h-248q-2 -12 -3.5 -24t-1.5 -23t5 -21.5t16 -17.5q19 -12 80 -12q25 0 57.5 5t55.5 12q10 3 16 1.5t8 -13.5l8 -53q2 -12 -2.5 -17t-15.5 -9q-34 -11 -75 -18t-82 -7q-52 0 -88 8t-58.5 24t-33 40.5t-10.5 56.5q0 33 8 83t19 104
q11 55 30.5 91.5t48 59t66 32t84.5 9.5q84 0 127.5 -33t43.5 -96q0 -32 -6 -66.5t-16 -86.5zM262 405q-22 0 -36.5 -5.5t-25.5 -16.5q-14 -14 -22.5 -37t-16.5 -64h143q8 0 10.5 3t4.5 11q3 14 5 28t2 25q0 23 -8 36q-14 20 -56 20zM404 725q11 6 17.5 4t12.5 -15l26 -58
q5 -11 2.5 -17t-13.5 -10l-193 -74q-22 -8 -30 10l-16 34q-9 19 8 28z" />
    <glyph glyph-name="ecircumflex" unicode="&#xea;" horiz-adv-x="478" 
d="M424 217q-3 -16 -10 -22.5t-23 -6.5h-248q-2 -12 -3.5 -24t-1.5 -23t5 -21.5t16 -17.5q19 -12 80 -12q25 0 57.5 5t55.5 12q10 3 16 1.5t8 -13.5l8 -53q2 -12 -2.5 -17t-15.5 -9q-34 -11 -75 -18t-82 -7q-52 0 -88 8t-58.5 24t-33 40.5t-10.5 56.5q0 33 8 83t19 104
q11 55 30.5 91.5t48 59t66 32t84.5 9.5q84 0 127.5 -33t43.5 -96q0 -32 -6 -66.5t-16 -86.5zM262 405q-22 0 -36.5 -5.5t-25.5 -16.5q-14 -14 -22.5 -37t-16.5 -64h143q8 0 10.5 3t4.5 11q3 14 5 28t2 25q0 23 -8 36q-14 20 -56 20zM441 595q3 -5 5.5 -9.5t2.5 -9.5
q0 -9 -12 -16l-24 -14q-11 -6 -18 -6q-8 0 -20 13l-68 76h-3l-97 -81q-10 -8 -17 -8q-9 0 -20 8l-28 22q-6 4 -6 12t10 17l112 109q8 8 14 9.5t13 1.5h57q6 0 12 -1.5t11 -9.5z" />
    <glyph glyph-name="ecaron" unicode="&#x11b;" horiz-adv-x="478" 
d="M424 217q-3 -16 -10 -22.5t-23 -6.5h-248q-2 -12 -3.5 -24t-1.5 -23t5 -21.5t16 -17.5q19 -12 80 -12q25 0 57.5 5t55.5 12q10 3 16 1.5t8 -13.5l8 -53q2 -12 -2.5 -17t-15.5 -9q-34 -11 -75 -18t-82 -7q-52 0 -88 8t-58.5 24t-33 40.5t-10.5 56.5q0 33 8 83t19 104
q11 55 30.5 91.5t48 59t66 32t84.5 9.5q84 0 127.5 -33t43.5 -96q0 -32 -6 -66.5t-16 -86.5zM262 405q-22 0 -36.5 -5.5t-25.5 -16.5q-14 -14 -22.5 -37t-16.5 -64h143q8 0 10.5 3t4.5 11q3 14 5 28t2 25q0 23 -8 36q-14 20 -56 20zM159 670q-3 5 -5.5 9.5t-2.5 9.5
q0 9 12 16l24 14q10 6 18 6t20 -13l68 -76h3l97 81q10 8 17 8q9 0 20 -8l28 -22q6 -5 6 -12q0 -8 -10 -17l-112 -109q-8 -8 -14 -9.5t-13 -1.5h-57q-6 0 -12 1.5t-11 9.5z" />
    <glyph glyph-name="edieresis" unicode="&#xeb;" horiz-adv-x="478" 
d="M424 217q-3 -16 -10 -22.5t-23 -6.5h-248q-2 -12 -3.5 -24t-1.5 -23t5 -21.5t16 -17.5q19 -12 80 -12q25 0 57.5 5t55.5 12q10 3 16 1.5t8 -13.5l8 -53q2 -12 -2.5 -17t-15.5 -9q-34 -11 -75 -18t-82 -7q-52 0 -88 8t-58.5 24t-33 40.5t-10.5 56.5q0 33 8 83t19 104
q11 55 30.5 91.5t48 59t66 32t84.5 9.5q84 0 127.5 -33t43.5 -96q0 -32 -6 -66.5t-16 -86.5zM262 405q-22 0 -36.5 -5.5t-25.5 -16.5q-14 -14 -22.5 -37t-16.5 -64h143q8 0 10.5 3t4.5 11q3 14 5 28t2 25q0 23 -8 36q-14 20 -56 20zM233 693q22 0 34 -10.5t12 -28.5
q0 -5 -1 -13.5t-4 -20.5q-6 -25 -23 -37t-42 -12h-10q-45 0 -45 35q0 8 1 17.5t5 23.5q6 23 22.5 34.5t40.5 11.5h10zM397 693q22 0 34 -10.5t12 -28.5q0 -5 -1 -13.5t-4 -20.5q-6 -25 -23 -37t-42 -12h-10q-45 0 -45 35q0 8 1 17.5t5 23.5q6 23 22.5 34.5t40.5 11.5h10z
" />
    <glyph glyph-name="emacron" unicode="&#x113;" horiz-adv-x="478" 
d="M424 217q-3 -16 -10 -22.5t-23 -6.5h-248q-2 -12 -3.5 -24t-1.5 -23t5 -21.5t16 -17.5q19 -12 80 -12q25 0 57.5 5t55.5 12q10 3 16 1.5t8 -13.5l8 -53q2 -12 -2.5 -17t-15.5 -9q-34 -11 -75 -18t-82 -7q-52 0 -88 8t-58.5 24t-33 40.5t-10.5 56.5q0 33 8 83t19 104
q11 55 30.5 91.5t48 59t66 32t84.5 9.5q84 0 127.5 -33t43.5 -96q0 -32 -6 -66.5t-16 -86.5zM262 405q-22 0 -36.5 -5.5t-25.5 -16.5q-14 -14 -22.5 -37t-16.5 -64h143q8 0 10.5 3t4.5 11q3 14 5 28t2 25q0 23 -8 36q-14 20 -56 20zM414 662q15 0 18 -6.5t1 -17.5l-7 -37
q-3 -17 -11.5 -19.5t-16.5 -2.5h-216q-14 0 -18 6t-2 18l7 35q2 11 8.5 17.5t20.5 6.5h216z" />
    <glyph glyph-name="ebreve" unicode="&#x115;" horiz-adv-x="478" 
d="M424 217q-3 -16 -10 -22.5t-23 -6.5h-248q-2 -12 -3.5 -24t-1.5 -23t5 -21.5t16 -17.5q19 -12 80 -12q25 0 57.5 5t55.5 12q10 3 16 1.5t8 -13.5l8 -53q2 -12 -2.5 -17t-15.5 -9q-34 -11 -75 -18t-82 -7q-52 0 -88 8t-58.5 24t-33 40.5t-10.5 56.5q0 33 8 83t19 104
q11 55 30.5 91.5t48 59t66 32t84.5 9.5q84 0 127.5 -33t43.5 -96q0 -32 -6 -66.5t-16 -86.5zM262 405q-22 0 -36.5 -5.5t-25.5 -16.5q-14 -14 -22.5 -37t-16.5 -64h143q8 0 10.5 3t4.5 11q3 14 5 28t2 25q0 23 -8 36q-14 20 -56 20zM287 551q-58 0 -92 30t-39 84
q-2 11 1.5 16t17.5 10l37 12q11 3 17 2t9 -14q8 -32 23.5 -46t40.5 -14t46 14t42 46q8 13 14.5 14t15.5 -2l33 -12q12 -5 13.5 -10t-4.5 -16q-26 -54 -69.5 -84t-105.5 -30z" />
    <glyph glyph-name="edotaccent" unicode="&#x117;" horiz-adv-x="478" 
d="M424 217q-3 -16 -10 -22.5t-23 -6.5h-248q-2 -12 -3.5 -24t-1.5 -23t5 -21.5t16 -17.5q19 -12 80 -12q25 0 57.5 5t55.5 12q10 3 16 1.5t8 -13.5l8 -53q2 -12 -2.5 -17t-15.5 -9q-34 -11 -75 -18t-82 -7q-52 0 -88 8t-58.5 24t-33 40.5t-10.5 56.5q0 33 8 83t19 104
q11 55 30.5 91.5t48 59t66 32t84.5 9.5q84 0 127.5 -33t43.5 -96q0 -32 -6 -66.5t-16 -86.5zM262 405q-22 0 -36.5 -5.5t-25.5 -16.5q-14 -14 -22.5 -37t-16.5 -64h143q8 0 10.5 3t4.5 11q3 14 5 28t2 25q0 23 -8 36q-14 20 -56 20zM230 608q0 36 24 58.5t57 22.5
q25 0 40 -16t15 -39q0 -37 -24 -58.5t-57 -21.5q-24 0 -39.5 15.5t-15.5 38.5z" />
    <glyph glyph-name="eogonek" unicode="&#x119;" horiz-adv-x="478" 
d="M424 217q-3 -16 -10 -22.5t-23 -6.5h-248q-2 -12 -3.5 -24t-1.5 -23t5 -21.5t16 -17.5q19 -12 80 -12q25 0 57.5 5t55.5 12q10 3 16 1.5t8 -13.5l8 -53q3 -18 -18 -26q-22 -9 -44 -21.5t-40 -28t-29 -34.5t-11 -40q0 -15 7.5 -21t22.5 -6q8 0 21.5 2.5t23.5 6.5
q11 5 14.5 3t3.5 -9l3 -34q0 -8 -3.5 -12t-14.5 -9q-36 -14 -78 -14q-44 0 -67.5 15.5t-23.5 47.5q0 43 28 76.5t66 54.5q-9 -1 -18 -1.5t-18 -0.5q-52 0 -88 8t-58.5 24t-33 40.5t-10.5 56.5q0 33 8 83t19 104q11 55 30.5 91.5t48 59t66 32t84.5 9.5q84 0 127.5 -33
t43.5 -96q0 -32 -6 -66.5t-16 -86.5zM262 405q-22 0 -36.5 -5.5t-25.5 -16.5q-14 -14 -22.5 -37t-16.5 -64h143q8 0 10.5 3t4.5 11q3 14 5 28t2 25q0 23 -8 36q-14 20 -56 20z" />
    <glyph glyph-name="gcircumflex" unicode="&#x11d;" horiz-adv-x="509" 
d="M412 16q-12 -61 -30 -100.5t-45 -62t-65 -31.5t-89 -9q-41 0 -78.5 6t-58.5 13q-18 5 -12 25l15 54q3 11 9.5 13t16.5 -1q19 -6 47.5 -10.5t52.5 -4.5q60 0 87 21t38 75l8 34h-3q-23 -24 -54.5 -35.5t-79.5 -11.5q-79 0 -115.5 31.5t-36.5 93.5q0 31 7 81.5t22 114.5
q12 54 30 89.5t44 57.5t62 31t84 9q50 0 82.5 -13t47.5 -36h2l11 24q5 10 10.5 13t18.5 3h39q24 0 20 -23zM276 404q-49 0 -72 -22q-12 -11 -23.5 -37.5t-21.5 -71.5q-11 -50 -15.5 -83t-4.5 -54q0 -23 14.5 -35.5t51.5 -12.5q32 0 52 7t36 22q11 11 19 28t13 43l19 94
q5 23 7 38.5t2 29.5q0 27 -17.5 40.5t-59.5 13.5zM459 595q3 -5 5.5 -9.5t2.5 -9.5q0 -9 -12 -16l-24 -14q-11 -6 -18 -6q-8 0 -20 13l-68 76h-3l-97 -81q-10 -8 -17 -8q-9 0 -20 8l-28 22q-6 4 -6 12t10 17l112 109q8 8 14 9.5t13 1.5h57q6 0 12 -1.5t11 -9.5z" />
    <glyph glyph-name="gbreve" unicode="&#x11f;" horiz-adv-x="509" 
d="M412 16q-12 -61 -30 -100.5t-45 -62t-65 -31.5t-89 -9q-41 0 -78.5 6t-58.5 13q-18 5 -12 25l15 54q3 11 9.5 13t16.5 -1q19 -6 47.5 -10.5t52.5 -4.5q60 0 87 21t38 75l8 34h-3q-23 -24 -54.5 -35.5t-79.5 -11.5q-79 0 -115.5 31.5t-36.5 93.5q0 31 7 81.5t22 114.5
q12 54 30 89.5t44 57.5t62 31t84 9q50 0 82.5 -13t47.5 -36h2l11 24q5 10 10.5 13t18.5 3h39q24 0 20 -23zM276 404q-49 0 -72 -22q-12 -11 -23.5 -37.5t-21.5 -71.5q-11 -50 -15.5 -83t-4.5 -54q0 -23 14.5 -35.5t51.5 -12.5q32 0 52 7t36 22q11 11 19 28t13 43l19 94
q5 23 7 38.5t2 29.5q0 27 -17.5 40.5t-59.5 13.5zM314 551q-58 0 -92 30t-39 84q-2 11 1.5 16t17.5 10l37 12q11 3 17 2t9 -14q8 -32 23.5 -46t40.5 -14t46 14t42 46q8 13 14.5 14t15.5 -2l33 -12q12 -5 13.5 -10t-4.5 -16q-26 -54 -69.5 -84t-105.5 -30z" />
    <glyph glyph-name="gdotaccent" unicode="&#x121;" horiz-adv-x="509" 
d="M412 16q-12 -61 -30 -100.5t-45 -62t-65 -31.5t-89 -9q-41 0 -78.5 6t-58.5 13q-18 5 -12 25l15 54q3 11 9.5 13t16.5 -1q19 -6 47.5 -10.5t52.5 -4.5q60 0 87 21t38 75l8 34h-3q-23 -24 -54.5 -35.5t-79.5 -11.5q-79 0 -115.5 31.5t-36.5 93.5q0 31 7 81.5t22 114.5
q12 54 30 89.5t44 57.5t62 31t84 9q50 0 82.5 -13t47.5 -36h2l11 24q5 10 10.5 13t18.5 3h39q24 0 20 -23zM276 404q-49 0 -72 -22q-12 -11 -23.5 -37.5t-21.5 -71.5q-11 -50 -15.5 -83t-4.5 -54q0 -23 14.5 -35.5t51.5 -12.5q32 0 52 7t36 22q11 11 19 28t13 43l19 94
q5 23 7 38.5t2 29.5q0 27 -17.5 40.5t-59.5 13.5zM248 608q0 36 24 58.5t57 22.5q25 0 40 -16t15 -39q0 -37 -24 -58.5t-57 -21.5q-24 0 -39.5 15.5t-15.5 38.5z" />
    <glyph glyph-name="gcommaaccent" unicode="&#x123;" horiz-adv-x="509" 
d="M412 16q-12 -61 -30 -100.5t-45 -62t-65 -31.5t-89 -9q-41 0 -78.5 6t-58.5 13q-18 5 -12 25l15 54q3 11 9.5 13t16.5 -1q19 -6 47.5 -10.5t52.5 -4.5q60 0 87 21t38 75l8 34h-3q-23 -24 -54.5 -35.5t-79.5 -11.5q-79 0 -115.5 31.5t-36.5 93.5q0 31 7 81.5t22 114.5
q12 54 30 89.5t44 57.5t62 31t84 9q50 0 82.5 -13t47.5 -36h2l11 24q5 10 10.5 13t18.5 3h39q24 0 20 -23zM276 404q-49 0 -72 -22q-12 -11 -23.5 -37.5t-21.5 -71.5q-11 -50 -15.5 -83t-4.5 -54q0 -23 14.5 -35.5t51.5 -12.5q32 0 52 7t36 22q11 11 19 28t13 43l19 94
q5 23 7 38.5t2 29.5q0 27 -17.5 40.5t-59.5 13.5zM269.983 558.966q-19.999 0 -30.998 9.49902q-10.999 9.5 -10.999 26.499q0 2 1 10.999q1 9 4.99902 25.998q8 33.998 33.998 71.9961q25.999 37.998 65.9961 70.9961q8 6.99902 13.499 5.99902q5.5 -1 12.5 -6.99902
l16.998 -15.999q7 -6 6 -10.5q-1 -4.49902 -7 -10.499q-14.999 -13.999 -28.998 -28.998t-21.998 -26.999q-4 -6.99902 1 -9.99902q10.999 -7 16.499 -13.499q5.49902 -6.5 5.49902 -18.499q0 -3 -1 -11.999q-1 -9 -4.99902 -24.999q-5 -21.998 -19.999 -32.498
q-14.999 -10.499 -36.998 -10.499h-14.999z" />
    <glyph glyph-name="hcircumflex" unicode="&#x125;" horiz-adv-x="526" 
d="M350 301q6 28 6 48q0 53 -68 53q-29 0 -45 -4.5t-28 -13.5q-11 -9 -19.5 -23.5t-14.5 -45.5l-55 -290q-3 -15 -9.5 -20t-23.5 -5h-63q-17 0 -21 6.5t-2 18.5l119 627q3 15 9.5 20t23.5 5h63q17 0 21.5 -5t1.5 -20l-35 -185h2q50 32 127 32q64 0 101.5 -29.5t37.5 -84.5
q0 -23 -3 -47t-9 -54l-49 -259q-3 -15 -9.5 -20t-23.5 -5h-63q-17 0 -21.5 5t-1.5 20zM348 769q3 -5 5.5 -9.5t2.5 -9.5q0 -9 -12 -16l-24 -14q-11 -6 -18 -6q-8 0 -20 13l-68 76h-3l-97 -81q-10 -8 -17 -8q-9 0 -20 8l-28 22q-6 4 -6 12t10 17l112 109q8 8 14 9.5t13 1.5
h57q6 0 12 -1.5t11 -9.5z" />
    <glyph glyph-name="hbar" unicode="&#x127;" horiz-adv-x="526" 
d="M350 301q6 28 6 48q0 53 -68 53q-29 0 -45 -4.5t-28 -13.5q-11 -9 -19.5 -23.5t-14.5 -45.5l-55 -290q-3 -15 -9.5 -20t-23.5 -5h-63q-17 0 -21 6.5t-2 18.5l97 514h-24q-14 0 -17.5 6t-1.5 18l7 35q2 13 8.5 18.5t20.5 5.5h22l6 30q3 15 9.5 20t23.5 5h64q17 0 21.5 -5
t1.5 -20l-5 -30h103q15 0 18 -6.5t1 -17.5l-7 -37q-4 -17 -10.5 -19.5t-18.5 -2.5h-102l-14 -72h2q50 32 127 32q64 0 101.5 -29.5t37.5 -84.5q0 -23 -3 -47t-9 -54l-49 -259q-3 -15 -9.5 -20t-23.5 -5h-63q-17 0 -21.5 5t-1.5 20z" />
    <glyph glyph-name="dotlessi" unicode="&#x131;" horiz-adv-x="245" 
d="M119 25q-3 -15 -9.5 -20t-23.5 -5h-63q-17 0 -21.5 5t-1.5 20l85 440q3 15 9.5 20t23.5 5h63q17 0 21.5 -5t1.5 -20z" />
    <glyph glyph-name="igrave" unicode="&#xec;" horiz-adv-x="245" 
d="M119 25q-3 -15 -9.5 -20t-23.5 -5h-63q-17 0 -21.5 5t-1.5 20l85 440q3 15 9.5 20t23.5 5h63q17 0 21.5 -5t1.5 -20zM233 625q17 -9 8 -28l-16 -34q-8 -18 -30 -10l-193 74q-11 4 -13.5 10t2.5 17l26 58q6 13 12.5 15t17.5 -4z" />
    <glyph glyph-name="iacute" unicode="&#xed;" horiz-adv-x="245" 
d="M119 25q-3 -15 -9.5 -20t-23.5 -5h-63q-17 0 -21.5 5t-1.5 20l85 440q3 15 9.5 20t23.5 5h63q17 0 21.5 -5t1.5 -20zM274 725q11 6 17.5 4t12.5 -15l26 -58q5 -11 2.5 -17t-13.5 -10l-193 -74q-22 -8 -30 10l-16 34q-9 19 8 28z" />
    <glyph glyph-name="icircumflex" unicode="&#xee;" horiz-adv-x="245" 
d="M119 25q-3 -15 -9.5 -20t-23.5 -5h-63q-17 0 -21.5 5t-1.5 20l85 440q3 15 9.5 20t23.5 5h63q17 0 21.5 -5t1.5 -20zM310 595q3 -5 5.5 -9.5t2.5 -9.5q0 -9 -12 -16l-24 -14q-11 -6 -18 -6q-8 0 -20 13l-68 76h-3l-97 -81q-10 -8 -17 -8q-9 0 -20 8l-28 22q-6 4 -6 12
t10 17l112 109q8 8 14 9.5t13 1.5h57q6 0 12 -1.5t11 -9.5z" />
    <glyph glyph-name="itilde" unicode="&#x129;" horiz-adv-x="245" 
d="M119 25q-3 -15 -9.5 -20t-23.5 -5h-63q-17 0 -21.5 5t-1.5 20l85 440q3 15 9.5 20t23.5 5h63q17 0 21.5 -5t1.5 -20zM5 578q-7 5 -9 8.5t5 14.5q26 43 58 66.5t64 23.5q18 0 32.5 -5t28.5 -16l19 -14q19 -15 33 -15q25 0 54 40q8 11 19 2l25 -19q8 -6 9 -11t-5 -13
q-32 -45 -60 -64.5t-56 -19.5q-20 0 -34 5t-28 15l-20 15q-9 7 -17 10.5t-18 3.5q-11 0 -23.5 -9.5t-28.5 -32.5q-5 -8 -11 -7t-15 7z" />
    <glyph glyph-name="idieresis" unicode="&#xef;" horiz-adv-x="245" 
d="M119 25q-3 -15 -9.5 -20t-23.5 -5h-63q-17 0 -21.5 5t-1.5 20l85 440q3 15 9.5 20t23.5 5h63q17 0 21.5 -5t1.5 -20zM110 693q22 0 34 -10.5t12 -28.5q0 -5 -1 -13.5t-4 -20.5q-6 -25 -23 -37t-42 -12h-10q-45 0 -45 35q0 8 1 17.5t5 23.5q6 23 22.5 34.5t40.5 11.5h10z
M274 693q22 0 34 -10.5t12 -28.5q0 -5 -1 -13.5t-4 -20.5q-6 -25 -23 -37t-42 -12h-10q-45 0 -45 35q0 8 1 17.5t5 23.5q6 23 22.5 34.5t40.5 11.5h10z" />
    <glyph glyph-name="imacron" unicode="&#x12b;" horiz-adv-x="245" 
d="M119 25q-3 -15 -9.5 -20t-23.5 -5h-63q-17 0 -21.5 5t-1.5 20l85 440q3 15 9.5 20t23.5 5h63q17 0 21.5 -5t1.5 -20zM289 662q15 0 18 -6.5t1 -17.5l-7 -37q-3 -17 -11.5 -19.5t-16.5 -2.5h-216q-14 0 -18 6t-2 18l7 35q2 11 8.5 17.5t20.5 6.5h216z" />
    <glyph glyph-name="ibreve" unicode="&#x12d;" horiz-adv-x="245" 
d="M119 25q-3 -15 -9.5 -20t-23.5 -5h-63q-17 0 -21.5 5t-1.5 20l85 440q3 15 9.5 20t23.5 5h63q17 0 21.5 -5t1.5 -20zM163 551q-58 0 -92 30t-39 84q-2 11 1.5 16t17.5 10l37 12q11 3 17 2t9 -14q8 -32 23.5 -46t40.5 -14t46 14t42 46q8 13 14.5 14t15.5 -2l33 -12
q12 -5 13.5 -10t-4.5 -16q-26 -54 -69.5 -84t-105.5 -30z" />
    <glyph glyph-name="iogonek" unicode="&#x12f;" horiz-adv-x="245" 
d="M246 611q-7 -34 -30 -52t-54 -18h-5q-38 0 -50.5 18t-5.5 52l1 6q7 36 30.5 52.5t52.5 16.5h5q31 0 47.5 -16.5t9.5 -52.5zM-106 -131q0 43 30 77.5t72 60.5l89 458q3 15 9.5 20t23.5 5h63q17 0 21.5 -5t1.5 -20l-85 -440q-2 -12 -6 -16.5t-14 -8.5q-25 -9 -46 -22
t-36.5 -28t-24.5 -30.5t-9 -28.5q0 -23 29 -23q12 0 27 3t23 7q14 6 16 -7l3 -37q1 -8 -3 -12t-15 -9q-36 -14 -78 -14q-91 0 -91 70z" />
    <glyph glyph-name="ij" unicode="&#x133;" horiz-adv-x="489" 
d="M245 611q-14 -70 -82 -70h-5q-38 0 -51.5 18t-6.5 52l1 6q7 36 29.5 52.5t54.5 16.5h5q31 0 47 -16.5t9 -52.5zM118 25q-3 -15 -9.5 -20t-23.5 -5h-63q-17 0 -21.5 5t-1.5 20l86 440q2 15 8.5 20t23.5 5h63q17 0 21.5 -5t2.5 -20zM374 32q-11 -57 -27 -95t-45 -66
q-51 -48 -142 -48h-44q-13 0 -16.5 4.5t-1.5 14.5l12 61q3 19 23 19h15q24 0 41 4.5t28 15.5q14 13 22.5 36t16.5 60l83 427q3 15 9.5 20t23.5 5h63q17 0 21.5 -5t1.5 -20zM499 611q-14 -70 -82 -70h-5q-38 0 -51.5 18t-6.5 52l1 6q7 36 29.5 52.5t54.5 16.5h5
q31 0 47 -16.5t9 -52.5z" />
    <glyph glyph-name="jcircumflex" unicode="&#x135;" horiz-adv-x="245" 
d="M130 32q-11 -57 -27 -95t-45 -66q-51 -48 -142 -48h-44q-13 0 -16.5 4.5t-1.5 14.5l12 61q3 19 23 19h15q24 0 41 4.5t28 15.5q14 13 22.5 36t16.5 60l83 427q3 15 9.5 20t23.5 5h63q17 0 21.5 -5t1.5 -20zM323 595q3 -5 5.5 -9.5t2.5 -9.5q0 -9 -12 -16l-24 -14
q-11 -6 -18 -6q-8 0 -20 13l-68 76h-3l-97 -81q-10 -8 -17 -8q-9 0 -20 8l-28 22q-6 4 -6 12t10 17l112 109q8 8 14 9.5t13 1.5h57q6 0 12 -1.5t11 -9.5z" />
    <glyph glyph-name="kcommaaccent" unicode="&#x137;" horiz-adv-x="456" 
d="M116 25q-3 -15 -9.5 -20t-23.5 -5h-63q-16 0 -20.5 5.5t-2.5 19.5l121 627q3 15 9.5 20t23.5 5h63q17 0 21.5 -5t1.5 -20l-66 -342h16q7 0 12.5 3t13.5 13l128 148q8 10 15 13t21 3h81q31 0 10 -23l-168 -191q-8 -10 -8 -16q0 -4 1.5 -7.5t3.5 -7.5l99 -222
q11 -23 -16 -23h-72q-16 0 -22.5 3.5t-11.5 17.5l-74 173q-4 9 -8.5 11.5t-12.5 2.5h-28zM212 -63q20 0 31 -9.5t11 -26.5q0 -2 -1 -11t-5 -26q-8 -34 -34 -72t-66 -71q-8 -7 -13.5 -6t-12.5 7l-17 16q-7 6 -6 10.5t7 10.5q15 14 29 29t22 27q4 7 -1 10q-11 7 -16.5 13.5
t-5.5 18.5q0 3 1 12t5 25q5 22 20 32.5t37 10.5h15z" />
    <glyph glyph-name="kgreenlandic" unicode="&#x138;" horiz-adv-x="442" 
d="M116 25q-3 -15 -9.5 -20t-23.5 -5h-63q-16 0 -20.5 5.5t-2.5 19.5l85 440q3 15 9.5 20t23.5 5h63q17 0 21.5 -5t1.5 -20l-30 -155h16q7 0 12.5 3t13.5 13l128 148q8 10 15 13t21 3h81q31 0 10 -23l-168 -191q-8 -10 -8 -16q0 -4 1.5 -7.5t3.5 -7.5l99 -222
q11 -23 -16 -23h-72q-16 0 -22.5 3.5t-11.5 17.5l-74 173q-4 9 -8.5 11.5t-12.5 2.5h-28z" />
    <glyph glyph-name="lacute" unicode="&#x13a;" horiz-adv-x="283" 
d="M148 150q-2 -14 -3.5 -22.5t-1.5 -16.5q0 -7 5 -10t19 -3h30q14 0 17.5 -5t0.5 -19l-10 -50q-2 -14 -8 -19t-19 -5h-67q-51 0 -72 17.5t-21 48.5q0 17 2 34.5t7 42.5l99 509q3 15 9.5 20t23.5 5h63q17 0 21.5 -5t1.5 -20zM324 901q11 6 17.5 4t12.5 -15l26 -58
q5 -11 2.5 -17t-13.5 -10l-193 -74q-22 -8 -30 10l-16 34q-9 19 8 28z" />
    <glyph glyph-name="lcaron" unicode="&#x13e;" horiz-adv-x="283" 
d="M148 150q-2 -14 -3.5 -22.5t-1.5 -16.5q0 -7 5 -10t19 -3h30q14 0 17.5 -5t0.5 -19l-10 -50q-2 -14 -8 -19t-19 -5h-67q-51 0 -72 17.5t-21 48.5q0 17 2 34.5t7 42.5l99 509q3 15 9.5 20t23.5 5h63q17 0 21.5 -5t1.5 -20zM395 725q20 0 31 -9.5t11 -26.5q0 -2 -1 -11
t-5 -26q-8 -34 -34 -72t-66 -71q-8 -7 -13.5 -6t-12.5 7l-17 16q-7 6 -6 10.5t7 10.5q15 14 29 29t22 27q4 7 -1 10q-11 7 -16.5 13.5t-5.5 18.5q0 3 1 12t5 25q5 22 20 32.5t37 10.5h15z" />
    <glyph glyph-name="lcommaaccent" unicode="&#x13c;" horiz-adv-x="283" 
d="M148 150q-2 -14 -3.5 -22.5t-1.5 -16.5q0 -7 5 -10t19 -3h30q14 0 17.5 -5t0.5 -19l-10 -50q-2 -14 -8 -19t-19 -5h-67q-51 0 -72 17.5t-21 48.5q0 17 2 34.5t7 42.5l99 509q3 15 9.5 20t23.5 5h63q17 0 21.5 -5t1.5 -20zM149 -63q20 0 31 -9.5t11 -26.5q0 -2 -1 -11
t-5 -26q-8 -34 -34 -72t-66 -71q-8 -7 -13.5 -6t-12.5 7l-17 16q-7 6 -6 10.5t7 10.5q15 14 29 29t22 27q4 7 -1 10q-11 7 -16.5 13.5t-5.5 18.5q0 3 1 12t5 25q5 22 20 32.5t37 10.5h15z" />
    <glyph glyph-name="lslash" unicode="&#x142;" horiz-adv-x="283" 
d="M206 453l91 53q8 5 12.5 2.5t2.5 -13.5l-15 -75q-2 -9 -5.5 -15t-14.5 -13l-93 -54l-36 -188q-2 -14 -3.5 -22.5t-1.5 -16.5q0 -7 5 -10t19 -3h30q14 0 17.5 -5t0.5 -19l-10 -50q-2 -14 -8 -19t-19 -5h-67q-51 0 -72 17.5t-21 48.5q0 17 2 34.5t7 42.5l23 117l-60 -34
q-11 -6 -16.5 -2t-3.5 15l13 69q2 9 5.5 15t14.5 13l69 40l54 276q3 15 9.5 20t23.5 5h63q17 0 21.5 -5t1.5 -20z" />
    <glyph glyph-name="longs" unicode="&#x17f;" horiz-adv-x="291" 
d="M163 88q-14 -75 -28.5 -133t-33.5 -111q-5 -13 -12 -17t-24 -4h-55q-17 0 -22.5 5.5t-0.5 19.5q18 54 31.5 110.5t24.5 116.5l56 315h-55q-22 0 -18 22l8 42q2 11 7 15t17 6l57 10l7 39q6 27 12 47t14 35t18 26.5t23 21.5q20 15 52.5 23.5t76.5 8.5q21 0 46 -3t44 -8
q11 -3 13.5 -8t-0.5 -16l-16 -56q-7 -19 -24 -14q-11 3 -26.5 5.5t-31.5 2.5q-33 0 -51 -11q-11 -7 -20 -21t-14 -40z" />
    <glyph glyph-name="ldot" unicode="&#x140;" horiz-adv-x="360" 
d="M148 150q-2 -14 -3.5 -22.5t-1.5 -16.5q0 -7 5 -10t19 -3h30q14 0 17.5 -5t0.5 -19l-10 -50q-2 -14 -8 -19t-19 -5h-67q-51 0 -72 17.5t-21 48.5q0 17 2 34.5t7 42.5l99 509q3 15 9.5 20t23.5 5h63q17 0 21.5 -5t1.5 -20zM231 324q0 36 24 58.5t57 22.5q25 0 40 -16
t15 -39q0 -37 -24 -58.5t-57 -21.5q-24 0 -39.5 15.5t-15.5 38.5z" />
    <glyph glyph-name="nacute" unicode="&#x144;" horiz-adv-x="526" 
d="M416 25q-3 -15 -9.5 -20t-23.5 -5h-63q-17 0 -21.5 5t-1.5 20l53 278q2 13 3.5 24t1.5 24q0 26 -15 38.5t-53 12.5q-50 0 -72 -18q-11 -9 -19.5 -23.5t-14.5 -45.5l-56 -290q-3 -15 -9.5 -20t-23.5 -5h-63q-17 0 -21.5 5t-1.5 20l86 442q4 23 29 23h37q13 0 17.5 -3.5
t4.5 -14.5v-24h3q26 22 60.5 36.5t91.5 14.5q66 0 104.5 -29t38.5 -94q0 -18 -2.5 -38t-6.5 -40zM427 725q11 6 17.5 4t12.5 -15l26 -58q5 -11 2.5 -17t-13.5 -10l-193 -74q-22 -8 -30 10l-16 34q-9 19 8 28z" />
    <glyph glyph-name="ncaron" unicode="&#x148;" horiz-adv-x="526" 
d="M416 25q-3 -15 -9.5 -20t-23.5 -5h-63q-17 0 -21.5 5t-1.5 20l53 278q2 13 3.5 24t1.5 24q0 26 -15 38.5t-53 12.5q-50 0 -72 -18q-11 -9 -19.5 -23.5t-14.5 -45.5l-56 -290q-3 -15 -9.5 -20t-23.5 -5h-63q-17 0 -21.5 5t-1.5 20l86 442q4 23 29 23h37q13 0 17.5 -3.5
t4.5 -14.5v-24h3q26 22 60.5 36.5t91.5 14.5q66 0 104.5 -29t38.5 -94q0 -18 -2.5 -38t-6.5 -40zM200 670q-3 5 -5.5 9.5t-2.5 9.5q0 9 12 16l24 14q10 6 18 6t20 -13l68 -76h3l97 81q10 8 17 8q9 0 20 -8l28 -22q6 -5 6 -12q0 -8 -10 -17l-112 -109q-8 -8 -14 -9.5
t-13 -1.5h-57q-6 0 -12 1.5t-11 9.5z" />
    <glyph glyph-name="ntilde" unicode="&#xf1;" horiz-adv-x="526" 
d="M416 25q-3 -15 -9.5 -20t-23.5 -5h-63q-17 0 -21.5 5t-1.5 20l53 278q2 13 3.5 24t1.5 24q0 26 -15 38.5t-53 12.5q-50 0 -72 -18q-11 -9 -19.5 -23.5t-14.5 -45.5l-56 -290q-3 -15 -9.5 -20t-23.5 -5h-63q-17 0 -21.5 5t-1.5 20l86 442q4 23 29 23h37q13 0 17.5 -3.5
t4.5 -14.5v-24h3q26 22 60.5 36.5t91.5 14.5q66 0 104.5 -29t38.5 -94q0 -18 -2.5 -38t-6.5 -40zM172 578q-7 5 -9 8.5t5 14.5q26 43 58 66.5t64 23.5q18 0 32.5 -5t28.5 -16l19 -14q19 -15 33 -15q25 0 54 40q8 11 19 2l25 -19q8 -6 9 -11t-5 -13q-32 -45 -60 -64.5
t-56 -19.5q-20 0 -34 5t-28 15l-20 15q-9 7 -17 10.5t-18 3.5q-11 0 -23.5 -9.5t-28.5 -32.5q-5 -8 -11 -7t-15 7z" />
    <glyph glyph-name="ncommaaccent" unicode="&#x146;" horiz-adv-x="526" 
d="M416 25q-3 -15 -9.5 -20t-23.5 -5h-63q-17 0 -21.5 5t-1.5 20l53 278q2 13 3.5 24t1.5 24q0 26 -15 38.5t-53 12.5q-50 0 -72 -18q-11 -9 -19.5 -23.5t-14.5 -45.5l-56 -290q-3 -15 -9.5 -20t-23.5 -5h-63q-17 0 -21.5 5t-1.5 20l86 442q4 23 29 23h37q13 0 17.5 -3.5
t4.5 -14.5v-24h3q26 22 60.5 36.5t91.5 14.5q66 0 104.5 -29t38.5 -94q0 -18 -2.5 -38t-6.5 -40zM212 -63q20 0 31 -9.5t11 -26.5q0 -2 -1 -11t-5 -26q-8 -34 -34 -72t-66 -71q-8 -7 -13.5 -6t-12.5 7l-17 16q-7 6 -6 10.5t7 10.5q15 14 29 29t22 27q4 7 -1 10
q-11 7 -16.5 13.5t-5.5 18.5q0 3 1 12t5 25q5 22 20 32.5t37 10.5h15z" />
    <glyph glyph-name="napostrophe" unicode="&#x149;" horiz-adv-x="526" 
d="M416 25q-3 -15 -9.5 -20t-23.5 -5h-63q-17 0 -21.5 5t-1.5 20l53 278q2 13 3.5 24t1.5 24q0 26 -15 38.5t-53 12.5q-50 0 -72 -18q-11 -9 -19.5 -23.5t-14.5 -45.5l-56 -290q-3 -15 -9.5 -20t-23.5 -5h-63q-17 0 -21.5 5t-1.5 20l86 442q4 23 29 23h37q13 0 17.5 -3.5
t4.5 -14.5v-24h3q26 22 60.5 36.5t91.5 14.5q66 0 104.5 -29t38.5 -94q0 -18 -2.5 -38t-6.5 -40zM109 793q30 0 44.5 -16.5t9.5 -46.5l-4 -21q-10 -47 -42 -100.5t-93 -110.5q-11 -10 -18 -10t-16 6l-27 18q-8 6 -9.5 11.5t6.5 13.5q12 12 30 33t30 37q13 17 14.5 26.5
t-6.5 15.5l-7 5q-10 7 -13.5 14t-3.5 18q0 8 2 18.5t7 30.5q8 31 28 44.5t53 13.5h15z" />
    <glyph glyph-name="eng" unicode="&#x14b;" horiz-adv-x="526" 
d="M351 304q6 30 5 48t-11 30q-9 11 -23.5 16t-38.5 5q-45 0 -67 -18q-12 -9 -20.5 -23.5t-14.5 -45.5l-56 -291q-3 -15 -9.5 -20t-23.5 -5h-63q-17 0 -21.5 5t-1.5 20l86 442q4 23 28 23h37q13 0 18 -3.5t5 -14.5v-24h3q26 22 60 36.5t86 14.5q54 0 88 -15.5t51 -51.5
q11 -26 10 -61t-9 -73l-52 -266q-10 -51 -27 -91.5t-46 -68.5q-25 -23 -60.5 -36t-81.5 -13h-44q-13 0 -16.5 4.5t-1.5 14.5l11 57q4 19 24 19h15q24 0 41 4.5t29 15.5q14 13 22.5 36t15.5 60z" />
    <glyph glyph-name="ograve" unicode="&#xf2;" horiz-adv-x="500" 
d="M286 499q90 0 133.5 -36t43.5 -114q0 -32 -6.5 -71.5t-18.5 -96.5q-20 -94 -75 -142t-168 -48q-85 0 -130.5 36t-45.5 105q0 23 5.5 60t16.5 93q21 108 79 161t166 53zM274 404q-26 0 -45 -8t-33 -25t-24 -44t-18 -65q-8 -37 -12 -66.5t-4 -49.5q0 -26 17 -43t55 -17
q25 0 43 6t31.5 21.5t23.5 41.5t19 66q18 79 18 115q0 68 -71 68zM413 627q17 -9 8 -28l-16 -34q-8 -18 -30 -10l-193 74q-11 4 -13.5 10t2.5 17l26 58q6 13 12.5 15t17.5 -4z" />
    <glyph glyph-name="oacute" unicode="&#xf3;" horiz-adv-x="500" 
d="M286 499q90 0 133.5 -36t43.5 -114q0 -32 -6.5 -71.5t-18.5 -96.5q-20 -94 -75 -142t-168 -48q-85 0 -130.5 36t-45.5 105q0 23 5.5 60t16.5 93q21 108 79 161t166 53zM274 404q-26 0 -45 -8t-33 -25t-24 -44t-18 -65q-8 -37 -12 -66.5t-4 -49.5q0 -26 17 -43t55 -17
q25 0 43 6t31.5 21.5t23.5 41.5t19 66q18 79 18 115q0 68 -71 68zM421 725q11 6 17.5 4t12.5 -15l26 -58q5 -11 2.5 -17t-13.5 -10l-193 -74q-22 -8 -30 10l-16 34q-9 19 8 28z" />
    <glyph glyph-name="ocircumflex" unicode="&#xf4;" horiz-adv-x="500" 
d="M286 499q90 0 133.5 -36t43.5 -114q0 -32 -6.5 -71.5t-18.5 -96.5q-20 -94 -75 -142t-168 -48q-85 0 -130.5 36t-45.5 105q0 23 5.5 60t16.5 93q21 108 79 161t166 53zM274 404q-26 0 -45 -8t-33 -25t-24 -44t-18 -65q-8 -37 -12 -66.5t-4 -49.5q0 -26 17 -43t55 -17
q25 0 43 6t31.5 21.5t23.5 41.5t19 66q18 79 18 115q0 68 -71 68zM456 595q3 -5 5.5 -9.5t2.5 -9.5q0 -9 -12 -16l-24 -14q-11 -6 -18 -6q-8 0 -20 13l-68 76h-3l-97 -81q-10 -8 -17 -8q-9 0 -20 8l-28 22q-6 4 -6 12t10 17l112 109q8 8 14 9.5t13 1.5h57q6 0 12 -1.5
t11 -9.5z" />
    <glyph glyph-name="otilde" unicode="&#xf5;" horiz-adv-x="500" 
d="M286 499q90 0 133.5 -36t43.5 -114q0 -32 -6.5 -71.5t-18.5 -96.5q-20 -94 -75 -142t-168 -48q-85 0 -130.5 36t-45.5 105q0 23 5.5 60t16.5 93q21 108 79 161t166 53zM274 404q-26 0 -45 -8t-33 -25t-24 -44t-18 -65q-8 -37 -12 -66.5t-4 -49.5q0 -26 17 -43t55 -17
q25 0 43 6t31.5 21.5t23.5 41.5t19 66q18 79 18 115q0 68 -71 68zM152 578q-7 5 -9 8.5t5 14.5q26 43 58 66.5t64 23.5q18 0 32.5 -5t28.5 -16l19 -14q19 -15 33 -15q25 0 54 40q8 11 19 2l25 -19q8 -6 9 -11t-5 -13q-32 -45 -60 -64.5t-56 -19.5q-20 0 -34 5t-28 15l-20 15
q-9 7 -17 10.5t-18 3.5q-11 0 -23.5 -9.5t-28.5 -32.5q-5 -8 -11 -7t-15 7z" />
    <glyph glyph-name="odieresis" unicode="&#xf6;" horiz-adv-x="500" 
d="M286 499q90 0 133.5 -36t43.5 -114q0 -32 -6.5 -71.5t-18.5 -96.5q-20 -94 -75 -142t-168 -48q-85 0 -130.5 36t-45.5 105q0 23 5.5 60t16.5 93q21 108 79 161t166 53zM274 404q-26 0 -45 -8t-33 -25t-24 -44t-18 -65q-8 -37 -12 -66.5t-4 -49.5q0 -26 17 -43t55 -17
q25 0 43 6t31.5 21.5t23.5 41.5t19 66q18 79 18 115q0 68 -71 68zM252 693q22 0 34 -10.5t12 -28.5q0 -5 -1 -13.5t-4 -20.5q-6 -25 -23 -37t-42 -12h-10q-45 0 -45 35q0 8 1 17.5t5 23.5q6 23 22.5 34.5t40.5 11.5h10zM416 693q22 0 34 -10.5t12 -28.5q0 -5 -1 -13.5
t-4 -20.5q-6 -25 -23 -37t-42 -12h-10q-45 0 -45 35q0 8 1 17.5t5 23.5q6 23 22.5 34.5t40.5 11.5h10z" />
    <glyph glyph-name="omacron" unicode="&#x14d;" horiz-adv-x="500" 
d="M286 499q90 0 133.5 -36t43.5 -114q0 -32 -6.5 -71.5t-18.5 -96.5q-20 -94 -75 -142t-168 -48q-85 0 -130.5 36t-45.5 105q0 23 5.5 60t16.5 93q21 108 79 161t166 53zM274 404q-26 0 -45 -8t-33 -25t-24 -44t-18 -65q-8 -37 -12 -66.5t-4 -49.5q0 -26 17 -43t55 -17
q25 0 43 6t31.5 21.5t23.5 41.5t19 66q18 79 18 115q0 68 -71 68zM432 662q15 0 18 -6.5t1 -17.5l-7 -37q-3 -17 -11.5 -19.5t-16.5 -2.5h-216q-14 0 -18 6t-2 18l7 35q2 11 8.5 17.5t20.5 6.5h216z" />
    <glyph glyph-name="obreve" unicode="&#x14f;" horiz-adv-x="500" 
d="M286 499q90 0 133.5 -36t43.5 -114q0 -32 -6.5 -71.5t-18.5 -96.5q-20 -94 -75 -142t-168 -48q-85 0 -130.5 36t-45.5 105q0 23 5.5 60t16.5 93q21 108 79 161t166 53zM274 404q-26 0 -45 -8t-33 -25t-24 -44t-18 -65q-8 -37 -12 -66.5t-4 -49.5q0 -26 17 -43t55 -17
q25 0 43 6t31.5 21.5t23.5 41.5t19 66q18 79 18 115q0 68 -71 68zM305 551q-58 0 -92 30t-39 84q-2 11 1.5 16t17.5 10l37 12q11 3 17 2t9 -14q8 -32 23.5 -46t40.5 -14t46 14t42 46q8 13 14.5 14t15.5 -2l33 -12q12 -5 13.5 -10t-4.5 -16q-26 -54 -69.5 -84t-105.5 -30z
" />
    <glyph glyph-name="ohungarumlaut" unicode="&#x151;" horiz-adv-x="500" 
d="M286 499q90 0 133.5 -36t43.5 -114q0 -32 -6.5 -71.5t-18.5 -96.5q-20 -94 -75 -142t-168 -48q-85 0 -130.5 36t-45.5 105q0 23 5.5 60t16.5 93q21 108 79 161t166 53zM274 404q-26 0 -45 -8t-33 -25t-24 -44t-18 -65q-8 -37 -12 -66.5t-4 -49.5q0 -26 17 -43t55 -17
q25 0 43 6t31.5 21.5t23.5 41.5t19 66q18 79 18 115q0 68 -71 68zM328 734q11 8 18.5 7t12.5 -10l30 -47q8 -11 5.5 -17t-13.5 -14l-176 -114q-17 -11 -30 9l-17 27q-12 18 4 31zM544 734q11 8 18.5 7t12.5 -10l30 -47q8 -11 5.5 -17t-13.5 -14l-176 -114q-17 -11 -30 9
l-17 27q-12 18 4 31z" />
    <glyph glyph-name="oslash" unicode="&#xf8;" horiz-adv-x="499" 
d="M293 499q52 0 88 -14l40 54q10 13 18.5 14.5t22.5 -6.5l12 -8q14 -8 14.5 -15.5t-10.5 -20.5l-43 -57l5 -6q22 -32 24.5 -77.5t-8.5 -102.5l-6 -30q-11 -58 -31.5 -103t-54.5 -77q-30 -28 -72 -43.5t-98 -15.5q-26 0 -48 3.5t-40 9.5l-37 -50q-10 -13 -18.5 -14.5
t-22.5 6.5l-12 8q-14 8 -14.5 15.5t10.5 20.5l39 53l-5 7q-22 32 -24.5 77t8.5 103l6 30q11 57 31.5 102.5t54.5 77.5q31 29 72.5 44t98.5 15zM152 235q-4 -21 -7 -39t-4 -32l175 233q-14 7 -42 7q-27 0 -43 -6.5t-29 -20.5q-16 -17 -26.5 -46t-19.5 -75zM212 86q27 0 43 7
t30 20q16 17 26 46.5t19 75.5l4 21q4 20 6.5 36.5t3.5 30.5l-171 -230q13 -7 39 -7z" />
    <glyph glyph-name="oslashacute" unicode="&#x1ff;" horiz-adv-x="499" 
d="M293 499q52 0 88 -14l40 54q10 13 18.5 14.5t22.5 -6.5l12 -8q14 -8 14.5 -15.5t-10.5 -20.5l-43 -57l5 -6q22 -32 24.5 -77.5t-8.5 -102.5l-6 -30q-11 -58 -31.5 -103t-54.5 -77q-30 -28 -72 -43.5t-98 -15.5q-26 0 -48 3.5t-40 9.5l-37 -50q-10 -13 -18.5 -14.5
t-22.5 6.5l-12 8q-14 8 -14.5 15.5t10.5 20.5l39 53l-5 7q-22 32 -24.5 77t8.5 103l6 30q11 57 31.5 102.5t54.5 77.5q31 29 72.5 44t98.5 15zM152 235q-4 -21 -7 -39t-4 -32l175 233q-14 7 -42 7q-27 0 -43 -6.5t-29 -20.5q-16 -17 -26.5 -46t-19.5 -75zM212 86q27 0 43 7
t30 20q16 17 26 46.5t19 75.5l4 21q4 20 6.5 36.5t3.5 30.5l-171 -230q13 -7 39 -7zM394 725q11 6 17.5 4t12.5 -15l26 -58q5 -11 2.5 -17t-13.5 -10l-193 -74q-22 -8 -30 10l-16 34q-9 19 8 28z" />
    <glyph glyph-name="oe" unicode="&#x153;" horiz-adv-x="777" 
d="M723 217q-3 -16 -10 -22.5t-23 -6.5h-248q-2 -12 -3.5 -24t-1.5 -23t5 -21.5t16 -17.5q19 -12 80 -12q25 0 57.5 5t55.5 12q10 3 16 1.5t8 -13.5l8 -53q2 -12 -2.5 -17t-15.5 -9q-34 -11 -72 -18t-75 -7q-124 0 -163 60q-27 -31 -68 -45.5t-92 -14.5q-85 0 -130.5 36
t-45.5 105q0 23 5.5 60t16.5 93q21 109 78 161.5t162 52.5q44 0 80 -16t58 -43q26 28 65.5 43.5t89.5 15.5q84 0 127.5 -33t43.5 -96q0 -32 -6 -66.5t-16 -86.5zM274 404q-26 0 -45 -8t-33 -25t-24 -44t-18 -65q-8 -37 -12 -66.5t-4 -49.5q0 -26 17 -43t55 -17q25 0 43 6
t31.5 21.5t23.5 41.5t19 66q18 79 18 115q0 68 -71 68zM561 405q-22 0 -36.5 -5.5t-25.5 -16.5q-14 -14 -22.5 -37t-16.5 -64h143q8 0 10.5 3t4.5 11q3 14 5 28t2 25q0 23 -8 36q-14 20 -56 20z" />
    <glyph glyph-name="thorn" unicode="&#xfe;" horiz-adv-x="525" 
d="M211 468q26 15 57.5 23t78.5 8q31 0 57.5 -6.5t46 -21.5t30.5 -39.5t11 -60.5q0 -37 -9.5 -85t-21.5 -110q-11 -54 -28.5 -90t-44 -57t-61 -29.5t-79.5 -8.5t-75 8.5t-48 23.5l-34 -175q-3 -14 -10 -19.5t-21 -5.5h-65q-15 0 -20 5.5t-3 19.5l156 806q4 23 29 23h69
q16 0 20 -5.5t1 -19.5zM160 203q-4 -20 -6.5 -37.5t-2.5 -31.5q0 -24 17.5 -35.5t59.5 -11.5q28 0 48 5.5t33 17.5t21 31.5t13 47.5q4 23 8.5 46t8.5 42.5t6 35t2 24.5q0 39 -16 52t-59 13q-27 0 -44.5 -5.5t-30.5 -16.5t-23 -29.5t-15 -44.5z" />
    <glyph glyph-name="racute" unicode="&#x155;" horiz-adv-x="345" 
d="M176 425h2q26 37 57.5 51t77.5 14h25q16 0 21 -4.5t2 -19.5l-11 -59q-3 -17 -26 -17h-24q-33 0 -53.5 -7.5t-32.5 -18.5q-14 -14 -23 -32.5t-17 -57.5l-48 -249q-3 -15 -9.5 -20t-23.5 -5h-63q-17 0 -21.5 5t-1.5 20l86 446q2 11 8 15t19 4h36q13 0 18 -3.5t4 -14.5z
M379 725q11 6 17.5 4t12.5 -15l26 -58q5 -11 2.5 -17t-13.5 -10l-193 -74q-22 -8 -30 10l-16 34q-9 19 8 28z" />
    <glyph glyph-name="rcaron" unicode="&#x159;" horiz-adv-x="345" 
d="M176 425h2q26 37 57.5 51t77.5 14h25q16 0 21 -4.5t2 -19.5l-11 -59q-3 -17 -26 -17h-24q-33 0 -53.5 -7.5t-32.5 -18.5q-14 -14 -23 -32.5t-17 -57.5l-48 -249q-3 -15 -9.5 -20t-23.5 -5h-63q-17 0 -21.5 5t-1.5 20l86 446q2 11 8 15t19 4h36q13 0 18 -3.5t4 -14.5z
M116 670q-3 5 -5.5 9.5t-2.5 9.5q0 9 12 16l24 14q10 6 18 6t20 -13l68 -76h3l97 81q10 8 17 8q9 0 20 -8l28 -22q6 -5 6 -12q0 -8 -10 -17l-112 -109q-8 -8 -14 -9.5t-13 -1.5h-57q-6 0 -12 1.5t-11 9.5z" />
    <glyph glyph-name="rcommaaccent" unicode="&#x157;" horiz-adv-x="345" 
d="M176 425h2q26 37 57.5 51t77.5 14h25q16 0 21 -4.5t2 -19.5l-11 -59q-3 -17 -26 -17h-24q-33 0 -53.5 -7.5t-32.5 -18.5q-14 -14 -23 -32.5t-17 -57.5l-48 -249q-3 -15 -9.5 -20t-23.5 -5h-63q-17 0 -21.5 5t-1.5 20l86 446q2 11 8 15t19 4h36q13 0 18 -3.5t4 -14.5z
M56 -63q20 0 31 -9.5t11 -26.5q0 -2 -1 -11t-5 -26q-8 -34 -34 -72t-66 -71q-8 -7 -13.5 -6t-12.5 7l-17 16q-7 6 -6 10.5t7 10.5q15 14 29 29t22 27q4 7 -1 10q-11 7 -16.5 13.5t-5.5 18.5q0 3 1 12t5 25q5 22 20 32.5t37 10.5h15z" />
    <glyph glyph-name="sacute" unicode="&#x15b;" horiz-adv-x="433" 
d="M170 -9q-39 0 -81 7.5t-77 20.5q-11 4 -13 10.5t2 18.5l15 52q4 11 11 12.5t15 -1.5q26 -11 60 -17t60 -6q33 0 55 7t29 24q4 9 6 19.5t2 18.5q0 15 -9.5 23.5t-32.5 15.5l-75 22q-46 14 -66.5 39t-20.5 54q0 41 12 80q9 28 23.5 48.5t37 34t54 19.5t74.5 6
q35 0 69.5 -5.5t59.5 -13.5q12 -4 14 -9.5t-1 -16.5l-16 -57q-5 -17 -25 -11q-23 7 -50 11.5t-53 4.5q-40 0 -56.5 -8t-23.5 -27q-2 -5 -3.5 -13t-1.5 -13q0 -12 8.5 -20t29.5 -14l68 -17q19 -5 37.5 -12.5t32 -19t22 -27.5t8.5 -39q0 -18 -3.5 -42.5t-8.5 -42.5
q-18 -65 -62.5 -90.5t-125.5 -25.5zM366 725q11 6 17.5 4t12.5 -15l26 -58q5 -11 2.5 -17t-13.5 -10l-193 -74q-22 -8 -30 10l-16 34q-9 19 8 28z" />
    <glyph glyph-name="scircumflex" unicode="&#x15d;" horiz-adv-x="433" 
d="M170 -9q-39 0 -81 7.5t-77 20.5q-11 4 -13 10.5t2 18.5l15 52q4 11 11 12.5t15 -1.5q26 -11 60 -17t60 -6q33 0 55 7t29 24q4 9 6 19.5t2 18.5q0 15 -9.5 23.5t-32.5 15.5l-75 22q-46 14 -66.5 39t-20.5 54q0 41 12 80q9 28 23.5 48.5t37 34t54 19.5t74.5 6
q35 0 69.5 -5.5t59.5 -13.5q12 -4 14 -9.5t-1 -16.5l-16 -57q-5 -17 -25 -11q-23 7 -50 11.5t-53 4.5q-40 0 -56.5 -8t-23.5 -27q-2 -5 -3.5 -13t-1.5 -13q0 -12 8.5 -20t29.5 -14l68 -17q19 -5 37.5 -12.5t32 -19t22 -27.5t8.5 -39q0 -18 -3.5 -42.5t-8.5 -42.5
q-18 -65 -62.5 -90.5t-125.5 -25.5zM407 595q3 -5 5.5 -9.5t2.5 -9.5q0 -9 -12 -16l-24 -14q-11 -6 -18 -6q-8 0 -20 13l-68 76h-3l-97 -81q-10 -8 -17 -8q-9 0 -20 8l-28 22q-6 4 -6 12t10 17l112 109q8 8 14 9.5t13 1.5h57q6 0 12 -1.5t11 -9.5z" />
    <glyph glyph-name="scaron" unicode="&#x161;" horiz-adv-x="433" 
d="M170 -9q-39 0 -81 7.5t-77 20.5q-11 4 -13 10.5t2 18.5l15 52q4 11 11 12.5t15 -1.5q26 -11 60 -17t60 -6q33 0 55 7t29 24q4 9 6 19.5t2 18.5q0 15 -9.5 23.5t-32.5 15.5l-75 22q-46 14 -66.5 39t-20.5 54q0 41 12 80q9 28 23.5 48.5t37 34t54 19.5t74.5 6
q35 0 69.5 -5.5t59.5 -13.5q12 -4 14 -9.5t-1 -16.5l-16 -57q-5 -17 -25 -11q-23 7 -50 11.5t-53 4.5q-40 0 -56.5 -8t-23.5 -27q-2 -5 -3.5 -13t-1.5 -13q0 -12 8.5 -20t29.5 -14l68 -17q19 -5 37.5 -12.5t32 -19t22 -27.5t8.5 -39q0 -18 -3.5 -42.5t-8.5 -42.5
q-18 -65 -62.5 -90.5t-125.5 -25.5zM134 670q-3 5 -5.5 9.5t-2.5 9.5q0 9 12 16l24 14q10 6 18 6t20 -13l68 -76h3l97 81q10 8 17 8q9 0 20 -8l28 -22q6 -5 6 -12q0 -8 -10 -17l-112 -109q-8 -8 -14 -9.5t-13 -1.5h-57q-6 0 -12 1.5t-11 9.5z" />
    <glyph glyph-name="scedilla" unicode="&#x15f;" horiz-adv-x="433" 
d="M130 -7q-31 3 -61.5 9.5t-56.5 16.5q-11 4 -13 10.5t2 18.5l15 52q4 11 11 12.5t15 -1.5q26 -11 60 -17t60 -6q33 0 55 7t29 24q4 9 6 19.5t2 18.5q0 15 -9.5 23.5t-32.5 15.5l-75 22q-46 14 -66.5 39t-20.5 54q0 41 12 80q9 28 23.5 48.5t37 34t54 19.5t74.5 6
q35 0 69.5 -5.5t59.5 -13.5q12 -4 14 -9.5t-1 -16.5l-16 -57q-5 -17 -25 -11q-23 7 -50 11.5t-53 4.5q-40 0 -56.5 -8t-23.5 -27q-2 -5 -3.5 -13t-1.5 -13q0 -12 8.5 -20t29.5 -14l68 -17q19 -5 37.5 -12.5t32 -19t22 -27.5t8.5 -39q0 -18 -3.5 -42.5t-8.5 -42.5
q-17 -59 -54.5 -84.5t-103.5 -30.5l-19 -50q8 2 14.5 2.5t16.5 0.5q31 0 52 -19.5t13 -64.5q-11 -53 -46 -76t-91 -23q-20 0 -43.5 3.5t-39.5 8.5q-8 3 -10.5 7t1.5 14l11 32q6 16 20 11q11 -4 26.5 -7t34.5 -3q22 0 33.5 6t14.5 22q2 14 -3.5 20t-24.5 6q-10 0 -17.5 -1
t-18.5 -3q-15 -3 -20 8l-6 12q-4 9 0 18z" />
    <glyph glyph-name="scommaaccent" unicode="&#x219;" horiz-adv-x="433" 
d="M170 -9q-39 0 -81 7.5t-77 20.5q-11 4 -13 10.5t2 18.5l15 52q4 11 11 12.5t15 -1.5q26 -11 60 -17t60 -6q33 0 55 7t29 24q4 9 6 19.5t2 18.5q0 15 -9.5 23.5t-32.5 15.5l-75 22q-46 14 -66.5 39t-20.5 54q0 41 12 80q9 28 23.5 48.5t37 34t54 19.5t74.5 6
q35 0 69.5 -5.5t59.5 -13.5q12 -4 14 -9.5t-1 -16.5l-16 -57q-5 -17 -25 -11q-23 7 -50 11.5t-53 4.5q-40 0 -56.5 -8t-23.5 -27q-2 -5 -3.5 -13t-1.5 -13q0 -12 8.5 -20t29.5 -14l68 -17q19 -5 37.5 -12.5t32 -19t22 -27.5t8.5 -39q0 -18 -3.5 -42.5t-8.5 -42.5
q-18 -65 -62.5 -90.5t-125.5 -25.5zM200 -63q20 0 31 -9.5t11 -26.5q0 -2 -1 -11t-5 -26q-8 -34 -34 -72t-66 -71q-8 -7 -13.5 -6t-12.5 7l-17 16q-7 6 -6 10.5t7 10.5q15 14 29 29t22 27q4 7 -1 10q-11 7 -16.5 13.5t-5.5 18.5q0 3 1 12t5 25q5 22 20 32.5t37 10.5h15z" />
    <glyph glyph-name="germandbls" unicode="&#xdf;" horiz-adv-x="551" 
d="M104 -59q-3 -15 -9.5 -20t-23.5 -5h-63q-17 0 -21.5 5t-1.5 20l103 529q7 38 16.5 66.5t21 49.5t25.5 36t31 26q27 17 68 27.5t100 10.5q37 0 68.5 -6.5t54.5 -22t37 -41t15 -62.5q0 -9 -1.5 -27t-4.5 -35q-9 -54 -36 -84.5t-67 -44.5l-1 -3q27 -6 43.5 -17.5t25.5 -28.5
q13 -22 13 -57q0 -20 -4 -46.5t-10 -49.5q-10 -38 -25 -71t-42 -55q-29 -23 -70 -33.5t-91 -10.5q-26 0 -48 2t-41 5q-18 3 -12 22l15 56q5 17 23 14q14 -2 29 -3t32 -1q25 0 43 5t31 16t21.5 28.5t15.5 41.5q11 41 11 70q0 33 -25.5 45t-72.5 12h-29q-18 0 -14 17l12 63
q3 18 21 18h13q23 0 38.5 2t31.5 11q17 10 28.5 27t17.5 49q4 23 4 41q0 27 -16 42t-57 15q-22 0 -42 -5t-35 -17q-16 -14 -26 -37t-18 -65z" />
    <glyph glyph-name="tcaron" unicode="&#x165;" horiz-adv-x="362" 
d="M239 490h99q13 0 16 -5.5t0 -20.5l-10 -49q-2 -13 -7.5 -19t-18.5 -6h-99l-42 -220q-2 -10 -4 -21.5t-2 -23.5q0 -14 9.5 -20.5t41.5 -6.5h46q16 0 19.5 -5t0.5 -19l-10 -49q-3 -15 -8.5 -20t-20.5 -5h-70q-69 0 -100.5 20.5t-31.5 65.5q0 18 2.5 36t7.5 44l43 224h-60
q-11 0 -14.5 4t-1.5 15l9 44q2 12 6 15.5t14 5.5l66 11l20 105q3 15 9.5 20t23.5 5h63q17 0 21.5 -5t1.5 -20zM436 763q20 0 31 -9.5t11 -26.5q0 -2 -1 -11t-5 -26q-8 -34 -34 -72t-66 -71q-8 -7 -13.5 -6t-12.5 7l-17 16q-7 6 -6 10.5t7 10.5q15 14 29 29t22 27q4 7 -1 10
q-11 7 -16.5 13.5t-5.5 18.5q0 3 1 12t5 25q5 22 20 32.5t37 10.5h15z" />
    <glyph glyph-name="tcommaaccent" unicode="&#x163;" horiz-adv-x="362" 
d="M239 490h99q13 0 16 -5.5t0 -20.5l-10 -49q-2 -13 -7.5 -19t-18.5 -6h-99l-42 -220q-2 -10 -4 -21.5t-2 -23.5q0 -14 9.5 -20.5t41.5 -6.5h46q16 0 19.5 -5t0.5 -19l-10 -49q-3 -15 -8.5 -20t-20.5 -5h-70q-69 0 -100.5 20.5t-31.5 65.5q0 18 2.5 36t7.5 44l43 224h-60
q-11 0 -14.5 4t-1.5 15l9 44q2 12 6 15.5t14 5.5l66 11l20 105q3 15 9.5 20t23.5 5h63q17 0 21.5 -5t1.5 -20zM145 -63q20 0 31 -9.5t11 -26.5q0 -2 -1 -11t-5 -26q-8 -34 -34 -72t-66 -71q-8 -7 -13.5 -6t-12.5 7l-17 16q-7 6 -6 10.5t7 10.5q15 14 29 29t22 27q4 7 -1 10
q-11 7 -16.5 13.5t-5.5 18.5q0 3 1 12t5 25q5 22 20 32.5t37 10.5h15z" />
    <glyph glyph-name="uni021B" unicode="&#x21b;" horiz-adv-x="362" 
d="M239 490h99q13 0 16 -5.5t0 -20.5l-10 -49q-2 -13 -7.5 -19t-18.5 -6h-99l-42 -220q-2 -10 -4 -21.5t-2 -23.5q0 -14 9.5 -20.5t41.5 -6.5h46q16 0 19.5 -5t0.5 -19l-10 -49q-3 -15 -8.5 -20t-20.5 -5h-70q-69 0 -100.5 20.5t-31.5 65.5q0 18 2.5 36t7.5 44l43 224h-60
q-11 0 -14.5 4t-1.5 15l9 44q2 12 6 15.5t14 5.5l66 11l20 105q3 15 9.5 20t23.5 5h63q17 0 21.5 -5t1.5 -20zM145 -63q20 0 31 -9.5t11 -26.5q0 -2 -1 -11t-5 -26q-8 -34 -34 -72t-66 -71q-8 -7 -13.5 -6t-12.5 7l-17 16q-7 6 -6 10.5t7 10.5q15 14 29 29t22 27q4 7 -1 10
q-11 7 -16.5 13.5t-5.5 18.5q0 3 1 12t5 25q5 22 20 32.5t37 10.5h15z" />
    <glyph glyph-name="tbar" unicode="&#x167;" horiz-adv-x="363" 
d="M240 490h99q13 0 16 -5.5t0 -20.5l-10 -49q-2 -13 -7.5 -19t-18.5 -6h-99l-17 -88h99q13 0 16 -5.5t0 -20.5l-9 -49q-3 -13 -8 -19t-18 -6h-99l-6 -30q-5 -27 -5 -39t6 -20q5 -8 14.5 -10.5t29.5 -2.5h49q16 0 19 -5.5t0 -20.5l-9 -49q-3 -14 -7.5 -19.5t-21.5 -5.5h-72
q-44 0 -70 7.5t-41 24.5q-31 36 -15 120l10 50h-60q-11 0 -14.5 4t-1.5 15l8 44q2 12 6.5 15.5t13.5 5.5l66 11l18 93h-60q-11 0 -14.5 4t-1.5 15l9 44q2 12 6 15.5t14 5.5l66 11l20 105q3 15 9.5 20t23.5 5h63q17 0 21.5 -5t1.5 -20z" />
    <glyph glyph-name="ugrave" unicode="&#xf9;" horiz-adv-x="510" 
d="M429 165q-6 -31 -13 -53.5t-17 -39.5t-22.5 -29.5t-28.5 -21.5q-29 -17 -67 -23.5t-85 -6.5q-91 0 -132 26.5t-41 79.5q0 24 3 46t7 42l55 280q3 15 9 20t23 5h63q17 0 22 -5t2 -20l-55 -279q-2 -13 -4.5 -26.5t-2.5 -28.5q0 -18 14 -29t48 -11q51 0 72 14q5 4 9.5 8.5
t8.5 12.5t7.5 20t7.5 30l57 289q3 15 9 20t23 5h63q17 0 22 -5t2 -20zM387 627q17 -9 8 -28l-16 -34q-8 -18 -30 -10l-193 74q-11 4 -13.5 10t2.5 17l26 58q6 13 12.5 15t17.5 -4z" />
    <glyph glyph-name="uacute" unicode="&#xfa;" horiz-adv-x="510" 
d="M429 165q-6 -31 -13 -53.5t-17 -39.5t-22.5 -29.5t-28.5 -21.5q-29 -17 -67 -23.5t-85 -6.5q-91 0 -132 26.5t-41 79.5q0 24 3 46t7 42l55 280q3 15 9 20t23 5h63q17 0 22 -5t2 -20l-55 -279q-2 -13 -4.5 -26.5t-2.5 -28.5q0 -18 14 -29t48 -11q51 0 72 14q5 4 9.5 8.5
t8.5 12.5t7.5 20t7.5 30l57 289q3 15 9 20t23 5h63q17 0 22 -5t2 -20zM420 725q11 6 17.5 4t12.5 -15l26 -58q5 -11 2.5 -17t-13.5 -10l-193 -74q-22 -8 -30 10l-16 34q-9 19 8 28z" />
    <glyph glyph-name="ucircumflex" unicode="&#xfb;" horiz-adv-x="510" 
d="M429 165q-6 -31 -13 -53.5t-17 -39.5t-22.5 -29.5t-28.5 -21.5q-29 -17 -67 -23.5t-85 -6.5q-91 0 -132 26.5t-41 79.5q0 24 3 46t7 42l55 280q3 15 9 20t23 5h63q17 0 22 -5t2 -20l-55 -279q-2 -13 -4.5 -26.5t-2.5 -28.5q0 -18 14 -29t48 -11q51 0 72 14q5 4 9.5 8.5
t8.5 12.5t7.5 20t7.5 30l57 289q3 15 9 20t23 5h63q17 0 22 -5t2 -20zM451 595q3 -5 5.5 -9.5t2.5 -9.5q0 -9 -12 -16l-24 -14q-11 -6 -18 -6q-8 0 -20 13l-68 76h-3l-97 -81q-10 -8 -17 -8q-9 0 -20 8l-28 22q-6 4 -6 12t10 17l112 109q8 8 14 9.5t13 1.5h57q6 0 12 -1.5
t11 -9.5z" />
    <glyph glyph-name="utilde" unicode="&#x169;" horiz-adv-x="510" 
d="M429 165q-6 -31 -13 -53.5t-17 -39.5t-22.5 -29.5t-28.5 -21.5q-29 -17 -67 -23.5t-85 -6.5q-91 0 -132 26.5t-41 79.5q0 24 3 46t7 42l55 280q3 15 9 20t23 5h63q17 0 22 -5t2 -20l-55 -279q-2 -13 -4.5 -26.5t-2.5 -28.5q0 -18 14 -29t48 -11q51 0 72 14q5 4 9.5 8.5
t8.5 12.5t7.5 20t7.5 30l57 289q3 15 9 20t23 5h63q17 0 22 -5t2 -20zM154 578q-7 5 -9 8.5t5 14.5q26 43 58 66.5t64 23.5q18 0 32.5 -5t28.5 -16l19 -14q19 -15 33 -15q25 0 54 40q8 11 19 2l25 -19q8 -6 9 -11t-5 -13q-32 -45 -60 -64.5t-56 -19.5q-20 0 -34 5t-28 15
l-20 15q-9 7 -17 10.5t-18 3.5q-11 0 -23.5 -9.5t-28.5 -32.5q-5 -8 -11 -7t-15 7z" />
    <glyph glyph-name="udieresis" unicode="&#xfc;" horiz-adv-x="510" 
d="M429 165q-6 -31 -13 -53.5t-17 -39.5t-22.5 -29.5t-28.5 -21.5q-29 -17 -67 -23.5t-85 -6.5q-91 0 -132 26.5t-41 79.5q0 24 3 46t7 42l55 280q3 15 9 20t23 5h63q17 0 22 -5t2 -20l-55 -279q-2 -13 -4.5 -26.5t-2.5 -28.5q0 -18 14 -29t48 -11q51 0 72 14q5 4 9.5 8.5
t8.5 12.5t7.5 20t7.5 30l57 289q3 15 9 20t23 5h63q17 0 22 -5t2 -20zM250 693q22 0 34 -10.5t12 -28.5q0 -5 -1 -13.5t-4 -20.5q-6 -25 -23 -37t-42 -12h-10q-45 0 -45 35q0 8 1 17.5t5 23.5q6 23 22.5 34.5t40.5 11.5h10zM414 693q22 0 34 -10.5t12 -28.5q0 -5 -1 -13.5
t-4 -20.5q-6 -25 -23 -37t-42 -12h-10q-45 0 -45 35q0 8 1 17.5t5 23.5q6 23 22.5 34.5t40.5 11.5h10z" />
    <glyph glyph-name="umacron" unicode="&#x16b;" horiz-adv-x="510" 
d="M429 165q-6 -31 -13 -53.5t-17 -39.5t-22.5 -29.5t-28.5 -21.5q-29 -17 -67 -23.5t-85 -6.5q-91 0 -132 26.5t-41 79.5q0 24 3 46t7 42l55 280q3 15 9 20t23 5h63q17 0 22 -5t2 -20l-55 -279q-2 -13 -4.5 -26.5t-2.5 -28.5q0 -18 14 -29t48 -11q51 0 72 14q5 4 9.5 8.5
t8.5 12.5t7.5 20t7.5 30l57 289q3 15 9 20t23 5h63q17 0 22 -5t2 -20zM427 662q15 0 18 -6.5t1 -17.5l-7 -37q-3 -17 -11.5 -19.5t-16.5 -2.5h-216q-14 0 -18 6t-2 18l7 35q2 11 8.5 17.5t20.5 6.5h216z" />
    <glyph glyph-name="ubreve" unicode="&#x16d;" horiz-adv-x="510" 
d="M429 165q-6 -31 -13 -53.5t-17 -39.5t-22.5 -29.5t-28.5 -21.5q-29 -17 -67 -23.5t-85 -6.5q-91 0 -132 26.5t-41 79.5q0 24 3 46t7 42l55 280q3 15 9 20t23 5h63q17 0 22 -5t2 -20l-55 -279q-2 -13 -4.5 -26.5t-2.5 -28.5q0 -18 14 -29t48 -11q51 0 72 14q5 4 9.5 8.5
t8.5 12.5t7.5 20t7.5 30l57 289q3 15 9 20t23 5h63q17 0 22 -5t2 -20zM305 551q-58 0 -92 30t-39 84q-2 11 1.5 16t17.5 10l37 12q11 3 17 2t9 -14q8 -32 23.5 -46t40.5 -14t46 14t42 46q8 13 14.5 14t15.5 -2l33 -12q12 -5 13.5 -10t-4.5 -16q-26 -54 -69.5 -84t-105.5 -30
z" />
    </font>
</defs>
</svg>
